<svg xmlns="http://www.w3.org/2000/svg" xmlns:xlink="http://www.w3.org/1999/xlink" width="500" zoomAndPan="magnify" viewBox="0 0 375 374.999991" height="500" preserveAspectRatio="xMidYMid meet" version="1.0"><defs><clipPath id="c40ffbdf9c"><path d="M 28 2.398438 L 352 2.398438 L 352 372.449219 L 28 372.449219 Z M 28 2.398438 " clip-rule="nonzero"/></clipPath><clipPath id="519be8d11a"><path d="M 139.835938 183.300781 L 154.976562 183.300781 L 154.976562 198.445312 L 139.835938 198.445312 Z M 139.835938 183.300781 " clip-rule="nonzero"/></clipPath><clipPath id="9b2391c739"><path d="M 147.40625 183.300781 C 143.226562 183.300781 139.835938 186.691406 139.835938 190.875 C 139.835938 195.054688 143.226562 198.445312 147.40625 198.445312 C 151.589844 198.445312 154.980469 195.054688 154.980469 190.875 C 154.980469 186.691406 151.589844 183.300781 147.40625 183.300781 " clip-rule="nonzero"/></clipPath><clipPath id="f9de8ad723"><path d="M 182.710938 209.960938 L 197.855469 209.960938 L 197.855469 225.105469 L 182.710938 225.105469 Z M 182.710938 209.960938 " clip-rule="nonzero"/></clipPath><clipPath id="6d6449962f"><path d="M 190.285156 209.960938 C 186.101562 209.960938 182.710938 213.351562 182.710938 217.53125 C 182.710938 221.714844 186.101562 225.105469 190.285156 225.105469 C 194.464844 225.105469 197.855469 221.714844 197.855469 217.53125 C 197.855469 213.351562 194.464844 209.960938 190.285156 209.960938 " clip-rule="nonzero"/></clipPath><clipPath id="e673944aca"><path d="M 229.140625 332.902344 L 244.285156 332.902344 L 244.285156 348.046875 L 229.140625 348.046875 Z M 229.140625 332.902344 " clip-rule="nonzero"/></clipPath><clipPath id="370c1cbd4e"><path d="M 236.714844 332.902344 C 232.53125 332.902344 229.140625 336.292969 229.140625 340.472656 C 229.140625 344.65625 232.53125 348.046875 236.714844 348.046875 C 240.894531 348.046875 244.285156 344.65625 244.285156 340.472656 C 244.285156 336.292969 240.894531 332.902344 236.714844 332.902344 " clip-rule="nonzero"/></clipPath><clipPath id="46b9caabfe"><path d="M 83.191406 97.761719 L 98.335938 97.761719 L 98.335938 112.90625 L 83.191406 112.90625 Z M 83.191406 97.761719 " clip-rule="nonzero"/></clipPath><clipPath id="e02281fb68"><path d="M 90.761719 97.761719 C 86.582031 97.761719 83.191406 101.152344 83.191406 105.335938 C 83.191406 109.515625 86.582031 112.90625 90.761719 112.90625 C 94.945312 112.90625 98.335938 109.515625 98.335938 105.335938 C 98.335938 101.152344 94.945312 97.761719 90.761719 97.761719 " clip-rule="nonzero"/></clipPath><clipPath id="2997e23e3e"><path d="M 89.902344 47.085938 L 105.046875 47.085938 L 105.046875 62.230469 L 89.902344 62.230469 Z M 89.902344 47.085938 " clip-rule="nonzero"/></clipPath><clipPath id="cc95b3b1a2"><path d="M 97.472656 47.085938 C 93.292969 47.085938 89.902344 50.476562 89.902344 54.660156 C 89.902344 58.839844 93.292969 62.230469 97.472656 62.230469 C 101.65625 62.230469 105.046875 58.839844 105.046875 54.660156 C 105.046875 50.476562 101.65625 47.085938 97.472656 47.085938 " clip-rule="nonzero"/></clipPath></defs><path fill="#baca49" d="M 245.59375 335.382812 C 248.382812 340.289062 246.652344 346.515625 241.6875 349.304688 C 236.722656 352.066406 230.410156 350.332031 227.621094 345.429688 C 224.828125 340.496094 226.5625 334.269531 231.527344 331.507812 C 236.488281 328.71875 242.804688 330.449219 245.59375 335.382812 Z M 245.59375 335.382812 " fill-opacity="1" fill-rule="nonzero"/><path fill="#baca49" d="M 200.335938 262.929688 C 203.15625 267.835938 201.394531 274.0625 196.429688 276.820312 C 191.464844 279.613281 185.183594 277.878906 182.363281 272.945312 C 179.574219 268.039062 181.335938 261.816406 186.296875 259.054688 C 191.261719 256.265625 197.546875 257.996094 200.335938 262.929688 Z M 200.335938 262.929688 " fill-opacity="1" fill-rule="nonzero"/><path fill="#baca49" d="M 199.335938 212.652344 C 202.128906 217.585938 200.394531 223.8125 195.429688 226.570312 C 190.46875 229.363281 184.152344 227.601562 181.363281 222.695312 C 178.574219 217.789062 180.304688 211.5625 185.269531 208.773438 C 190.234375 206.011719 196.546875 207.746094 199.335938 212.652344 Z M 199.335938 212.652344 " fill-opacity="1" fill-rule="nonzero"/><path fill="#baca49" d="M 156.402344 185.835938 C 159.191406 190.742188 157.457031 196.96875 152.496094 199.730469 C 147.53125 202.519531 141.214844 200.785156 138.425781 195.851562 C 135.636719 190.949219 137.371094 184.722656 142.332031 181.960938 C 147.296875 179.171875 153.609375 180.902344 156.402344 185.835938 Z M 156.402344 185.835938 " fill-opacity="1" fill-rule="nonzero"/><path fill="#baca49" d="M 99.6875 100.226562 C 102.507812 105.132812 100.746094 111.359375 95.785156 114.148438 C 90.820312 116.90625 84.535156 115.175781 81.714844 110.269531 C 78.925781 105.335938 80.6875 99.109375 85.652344 96.351562 C 90.613281 93.558594 96.898438 95.292969 99.6875 100.226562 Z M 99.6875 100.226562 " fill-opacity="1" fill-rule="nonzero"/><path fill="#baca49" d="M 106.386719 49.59375 C 109.175781 54.5 107.414062 60.726562 102.449219 63.484375 C 97.488281 66.277344 91.203125 64.542969 88.410156 59.609375 C 85.59375 54.703125 87.355469 48.476562 92.316406 45.71875 C 97.28125 42.925781 103.566406 44.660156 106.386719 49.59375 Z M 106.386719 49.59375 " fill-opacity="1" fill-rule="nonzero"/><path fill="#6fceae" d="M 265.09375 324.488281 C 268.707031 326.75 272.261719 329.214844 275.753906 331.890625 C 264.390625 355.738281 239.777344 370.421875 213.433594 369.453125 C 212.730469 364.195312 212.320312 359.054688 212.261719 354.003906 L 227.621094 345.429688 C 230.410156 350.332031 236.722656 352.066406 241.6875 349.304688 C 246.652344 346.515625 248.382812 340.289062 245.59375 335.382812 Z M 265.09375 324.488281 " fill-opacity="1" fill-rule="nonzero"/><path fill="#6aac9c" d="M 265.09375 324.488281 L 245.59375 335.382812 C 242.804688 330.449219 236.488281 328.71875 231.527344 331.507812 C 226.5625 334.269531 224.828125 340.496094 227.621094 345.429688 L 212.261719 354.003906 C 211.90625 337.382812 214.84375 321.875 221.160156 308.511719 C 235.988281 310.097656 250.910156 315.617188 265.09375 324.488281 Z M 265.09375 324.488281 " fill-opacity="1" fill-rule="nonzero"/><path fill="#6fceae" d="M 232.203125 245.132812 C 236.019531 268.539062 232.203125 289.070312 224.683594 301.84375 C 223.421875 303.988281 222.246094 306.21875 221.160156 308.511719 C 218.601562 308.21875 216.078125 308.070312 213.550781 308.042969 C 198.601562 307.835938 178.898438 300.464844 160.601562 285.132812 L 160.601562 285.105469 L 182.363281 272.945312 C 185.183594 277.878906 191.464844 279.613281 196.429688 276.820312 C 201.394531 274.0625 203.15625 267.835938 200.335938 262.929688 Z M 232.203125 245.132812 " fill-opacity="1" fill-rule="nonzero"/><path fill="#6aac9c" d="M 232.203125 245.132812 L 200.335938 262.929688 C 197.546875 257.996094 191.261719 256.265625 186.296875 259.054688 C 181.335938 261.816406 179.574219 268.039062 182.363281 272.945312 L 160.601562 285.105469 L 160.601562 285.132812 C 150.027344 276.292969 139.984375 264.78125 131.582031 250.476562 L 181.363281 222.695312 C 184.152344 227.601562 190.46875 229.363281 195.429688 226.570312 C 200.394531 223.8125 202.128906 217.585938 199.335938 212.652344 L 217.28125 202.636719 L 217.3125 202.636719 C 225.300781 217.144531 230.027344 231.625 232.203125 245.132812 Z M 232.203125 245.132812 " fill-opacity="1" fill-rule="nonzero"/><path fill="#6fceae" d="M 217.28125 202.636719 L 199.335938 212.652344 C 196.546875 207.746094 190.234375 206.011719 185.269531 208.773438 C 180.304688 211.5625 178.574219 217.789062 181.363281 222.695312 L 131.582031 250.476562 C 131.230469 249.890625 130.878906 249.332031 130.554688 248.746094 C 122.800781 235.148438 117.957031 221.550781 115.402344 208.714844 L 138.425781 195.851562 C 141.214844 200.785156 147.53125 202.519531 152.496094 199.730469 C 157.457031 196.96875 159.191406 190.742188 156.402344 185.835938 L 189.527344 167.335938 C 199.308594 176.117188 208.558594 187.277344 216.3125 200.875 C 216.636719 201.460938 216.988281 202.050781 217.28125 202.636719 Z M 217.28125 202.636719 " fill-opacity="1" fill-rule="nonzero"/><path fill="#6aac9c" d="M 189.527344 167.335938 L 156.402344 185.835938 C 153.609375 180.902344 147.296875 179.171875 142.332031 181.960938 C 137.371094 184.722656 135.636719 190.949219 138.425781 195.851562 L 115.402344 208.714844 C 110.410156 183.546875 114.199219 161.285156 122.1875 147.773438 C 123.449219 145.601562 124.652344 143.371094 125.710938 141.078125 C 128.265625 141.34375 130.789062 141.519531 133.316406 141.546875 C 149.144531 141.785156 170.351562 150.066406 189.527344 167.335938 Z M 189.527344 167.335938 " fill-opacity="1" fill-rule="nonzero"/><path fill="#6aac9c" d="M 133.550781 81.3125 C 136.339844 103.308594 133.785156 123.925781 125.710938 141.078125 C 106.707031 139.050781 87.558594 130.566406 69.96875 116.847656 L 81.714844 110.269531 C 84.535156 115.175781 90.820312 116.90625 95.785156 114.148438 C 100.746094 111.359375 102.507812 105.132812 99.6875 100.226562 Z M 133.550781 81.3125 " fill-opacity="1" fill-rule="nonzero"/><path fill="#6fceae" d="M 133.550781 81.3125 L 99.6875 100.226562 C 96.898438 95.292969 90.613281 93.558594 85.652344 96.351562 C 80.6875 99.109375 78.925781 105.335938 81.714844 110.269531 L 69.96875 116.847656 L 69.9375 116.847656 C 59.308594 108.539062 49.261719 98.347656 40.1875 86.539062 L 88.410156 59.609375 C 91.203125 64.542969 97.488281 66.277344 102.449219 63.484375 C 107.414062 60.726562 109.175781 54.5 106.386719 49.59375 L 122.742188 40.429688 C 128.265625 54.234375 131.90625 68.039062 133.550781 81.3125 Z M 133.550781 81.3125 " fill-opacity="1" fill-rule="nonzero"/><path fill="#6aac9c" d="M 122.742188 40.429688 L 106.386719 49.59375 C 103.566406 44.660156 97.28125 42.925781 92.316406 45.71875 C 87.355469 48.476562 85.59375 54.703125 88.410156 59.609375 L 40.1875 86.539062 C 37.839844 83.457031 35.546875 80.285156 33.316406 76.996094 C 35.371094 53.617188 39.425781 29.625 45.621094 5.335938 C 72.347656 13.410156 97.457031 23.515625 120.628906 35.292969 C 121.363281 36.996094 122.066406 38.726562 122.742188 40.429688 Z M 122.742188 40.429688 " fill-opacity="1" fill-rule="nonzero"/><path fill="#5cc096" d="M 139.75 343.667969 C 63.273438 296.617188 23.035156 194.324219 33.316406 76.996094 C 35.546875 80.285156 37.839844 83.457031 40.1875 86.539062 C 49.261719 98.347656 59.308594 108.539062 69.9375 116.847656 L 69.96875 116.847656 C 87.558594 130.566406 106.707031 139.050781 125.710938 141.078125 C 124.652344 143.371094 123.449219 145.601562 122.1875 147.773438 C 114.199219 161.285156 110.410156 183.546875 115.402344 208.714844 C 117.957031 221.550781 122.800781 235.148438 130.554688 248.746094 C 130.878906 249.332031 131.230469 249.890625 131.582031 250.476562 C 139.984375 264.78125 150.027344 276.292969 160.601562 285.132812 C 178.898438 300.464844 198.601562 307.835938 213.550781 308.042969 C 216.078125 308.070312 218.601562 308.21875 221.160156 308.511719 C 214.84375 321.875 211.90625 337.382812 212.261719 354.003906 C 212.320312 359.054688 212.730469 364.195312 213.433594 369.453125 C 209.644531 369.335938 205.828125 368.863281 201.980469 368.070312 C 173.171875 362.023438 152.671875 351.625 139.75 343.667969 Z M 139.75 343.667969 " fill-opacity="1" fill-rule="nonzero"/><path fill="#5cc096" d="M 133.550781 81.3125 C 131.90625 68.039062 128.265625 54.234375 122.742188 40.429688 C 122.066406 38.726562 121.363281 36.996094 120.628906 35.292969 C 153.699219 52.089844 182.863281 72.324219 207.207031 94.941406 C 226.0625 112.386719 242.070312 131.300781 254.785156 151.152344 C 276.78125 185.425781 289.058594 222.546875 289.527344 260.023438 C 289.734375 274.589844 288.238281 296.292969 279.398438 322.609375 C 279.101562 323.519531 278.78125 324.429688 278.457031 325.371094 C 277.664062 327.601562 276.78125 329.773438 275.753906 331.890625 C 272.261719 329.214844 268.707031 326.75 265.09375 324.488281 C 250.910156 315.617188 235.988281 310.097656 221.160156 308.511719 C 222.246094 306.21875 223.421875 303.988281 224.683594 301.84375 C 232.203125 289.070312 236.019531 268.539062 232.203125 245.132812 C 230.027344 231.625 225.300781 217.144531 217.3125 202.636719 L 217.28125 202.636719 C 216.988281 202.050781 216.636719 201.460938 216.3125 200.875 C 208.558594 187.277344 199.308594 176.117188 189.527344 167.335938 C 170.351562 150.066406 149.144531 141.785156 133.316406 141.546875 C 130.789062 141.519531 128.265625 141.34375 125.710938 141.078125 C 133.785156 123.925781 136.339844 103.308594 133.550781 81.3125 Z M 133.550781 81.3125 " fill-opacity="1" fill-rule="nonzero"/><path fill="#4aaf8f" d="M 262.332031 134.382812 C 259.691406 140.050781 257.195312 145.660156 254.785156 151.152344 C 242.070312 131.300781 226.0625 112.386719 207.207031 94.941406 L 207.238281 94.910156 C 239.042969 65.128906 279.457031 39.402344 326.476562 20.546875 C 311.730469 42.429688 296.488281 67.363281 281.6875 95.292969 C 277.488281 103.28125 273.492188 111.121094 269.734375 118.875 L 269.707031 118.875 C 267.148438 124.105469 264.683594 129.273438 262.332031 134.382812 Z M 262.332031 134.382812 " fill-opacity="1" fill-rule="nonzero"/><path fill="#349370" d="M 289.527344 260.023438 C 289.058594 222.546875 276.78125 185.425781 254.785156 151.152344 C 257.195312 145.660156 259.691406 140.050781 262.332031 134.382812 C 264.683594 129.273438 267.148438 124.105469 269.707031 118.875 L 269.734375 118.875 C 273.492188 111.121094 277.488281 103.28125 281.6875 95.292969 C 296.488281 67.363281 311.730469 42.429688 326.476562 20.546875 C 369.472656 142.546875 349 261.933594 279.398438 322.609375 C 288.238281 296.292969 289.734375 274.589844 289.527344 260.023438 Z M 289.527344 260.023438 " fill-opacity="1" fill-rule="nonzero"/><g clip-path="url(#c40ffbdf9c)"><path fill="#3a322b" d="M 329.238281 19.5625 C 329.199219 19.457031 329.113281 19.375 329.066406 19.277344 C 328.976562 19.09375 328.878906 18.921875 328.753906 18.757812 C 328.636719 18.605469 328.5 18.480469 328.359375 18.355469 C 328.265625 18.277344 328.210938 18.171875 328.109375 18.101562 C 328.035156 18.050781 327.949219 18.046875 327.875 18.003906 C 327.800781 17.964844 327.753906 17.898438 327.679688 17.859375 C 327.578125 17.8125 327.460938 17.824219 327.351562 17.789062 C 327.152344 17.722656 326.964844 17.671875 326.761719 17.65625 C 326.582031 17.636719 326.417969 17.640625 326.242188 17.65625 C 326.03125 17.671875 325.835938 17.707031 325.632812 17.765625 C 325.546875 17.789062 325.457031 17.777344 325.375 17.8125 C 280.492188 35.816406 239.785156 61.023438 207.402344 90.792969 C 165.726562 52.859375 110.648438 21.921875 46.464844 2.523438 C 45.695312 2.292969 44.871094 2.382812 44.171875 2.777344 C 43.472656 3.171875 42.96875 3.835938 42.769531 4.609375 C 5.496094 150.851562 43.851562 288.113281 138.199219 346.175781 C 157.039062 357.765625 178.292969 366.101562 201.375 370.945312 C 205.34375 371.777344 209.308594 372.234375 213.246094 372.371094 C 213.3125 372.375 213.371094 372.40625 213.433594 372.40625 C 213.539062 372.40625 213.648438 372.398438 213.757812 372.386719 C 214.40625 372.402344 215.058594 372.4375 215.707031 372.4375 C 244.652344 372.4375 271.382812 354.339844 281.210938 326.34375 C 281.449219 325.671875 281.644531 324.996094 281.875 324.320312 C 316.488281 293.863281 339.375 249.191406 348.058594 195.042969 C 356.863281 140.140625 350.351562 79.460938 329.238281 19.5625 Z M 318.785156 26.921875 C 304.546875 48.605469 291.1875 71.066406 279.101562 93.914062 C 274.972656 101.722656 270.96875 109.660156 267.066406 117.652344 C 267.027344 117.738281 266.976562 117.8125 266.945312 117.898438 C 265.21875 121.441406 263.523438 124.992188 261.847656 128.554688 C 257.132812 121.609375 253.351562 114.128906 250.699219 106.195312 C 248.117188 98.460938 246.589844 90.410156 246.144531 82.257812 C 246.058594 80.636719 244.570312 79.390625 243.054688 79.484375 C 241.433594 79.574219 240.191406 80.957031 240.28125 82.578125 C 240.75 91.253906 242.382812 99.828125 245.128906 108.058594 C 248.316406 117.59375 253 126.527344 258.960938 134.691406 C 257.410156 138.0625 255.90625 141.441406 254.402344 144.828125 C 242.609375 127.226562 228.277344 110.460938 211.699219 94.824219 C 241.386719 67.605469 278.179688 44.285156 318.785156 26.921875 Z M 277.128906 204.105469 C 283.0625 222.382812 286.34375 241.121094 286.589844 260.0625 C 286.867188 281.332031 283.191406 302.976562 275.671875 324.394531 C 275.320312 325.386719 274.890625 326.328125 274.496094 327.296875 C 258.722656 315.878906 242.085938 308.683594 225.640625 306.140625 C 226.148438 305.191406 226.664062 304.25 227.207031 303.328125 C 234.996094 290.125 238.972656 268.964844 235.128906 244.878906 C 235.125 244.796875 235.101562 244.726562 235.089844 244.644531 C 232.867188 230.902344 228.046875 216.214844 219.988281 201.515625 C 219.941406 201.410156 219.941406 201.296875 219.882812 201.195312 C 219.835938 201.113281 219.757812 201.0625 219.703125 200.984375 C 219.414062 200.457031 219.164062 199.929688 218.863281 199.40625 C 211.007812 185.621094 201.597656 174.355469 191.644531 165.382812 C 191.476562 165.195312 191.300781 165.027344 191.097656 164.894531 C 171.414062 147.347656 149.652344 138.859375 133.359375 138.617188 C 132.257812 138.601562 131.144531 138.496094 130.042969 138.433594 C 136.851562 121.816406 139.003906 102.179688 136.46875 81.335938 C 136.472656 81.058594 136.421875 80.789062 136.347656 80.515625 C 134.730469 67.804688 131.386719 54.671875 126.316406 41.519531 C 155.96875 57.222656 182.328125 75.6875 204.667969 96.21875 C 204.792969 96.464844 204.910156 96.714844 205.105469 96.925781 C 205.410156 97.25 205.777344 97.476562 206.167969 97.628906 C 224.253906 114.457031 239.65625 132.632812 251.992188 151.761719 C 252.144531 152.445312 252.527344 153.035156 253.113281 153.460938 C 263.1875 169.371094 271.128906 185.921875 276.757812 202.890625 C 276.761719 202.9375 276.746094 202.972656 276.75 203.015625 C 276.792969 203.417969 276.9375 203.777344 277.128906 204.105469 Z M 230.167969 343.960938 C 229.210938 342.28125 228.96875 340.328125 229.488281 338.46875 C 230.011719 336.589844 231.246094 335.027344 232.96875 334.066406 C 234.117188 333.421875 235.367188 333.121094 236.597656 333.121094 C 239.179688 333.121094 241.683594 334.457031 243.039062 336.832031 C 243.039062 336.832031 243.039062 336.832031 243.042969 336.832031 C 244 338.511719 244.238281 340.460938 243.722656 342.320312 C 243.195312 344.203125 241.960938 345.769531 240.242188 346.730469 C 236.6875 348.707031 232.167969 347.464844 230.167969 343.960938 Z M 246.394531 331.5625 C 242.332031 327.132812 235.578125 325.878906 230.105469 328.9375 C 227.007812 330.667969 224.78125 333.488281 223.828125 336.890625 C 223.15625 339.296875 223.21875 341.78125 223.917969 344.117188 L 215.183594 348.996094 C 215.464844 335.359375 218.074219 322.777344 222.941406 311.710938 C 235.019531 313.3125 247.269531 317.589844 259.21875 324.402344 Z M 124.707031 149.265625 C 125.683594 147.609375 126.582031 145.902344 127.445312 144.167969 C 129.390625 144.328125 131.332031 144.460938 133.265625 144.492188 C 147.671875 144.703125 166.730469 151.890625 184.460938 166.792969 L 157.199219 182.015625 C 153.132812 177.585938 146.382812 176.332031 140.90625 179.386719 C 137.804688 181.121094 135.578125 183.945312 134.628906 187.351562 C 133.960938 189.753906 134.023438 192.234375 134.722656 194.566406 L 117.542969 204.164062 C 113.808594 181.433594 117.445312 161.574219 124.707031 149.265625 Z M 140.972656 194.40625 C 140.015625 192.730469 139.773438 190.78125 140.292969 188.921875 C 140.8125 187.042969 142.050781 185.476562 143.773438 184.515625 C 144.921875 183.875 146.167969 183.570312 147.402344 183.570312 C 149.984375 183.570312 152.492188 184.90625 153.847656 187.28125 C 154.804688 188.964844 155.046875 190.914062 154.527344 192.773438 C 154 194.652344 152.765625 196.214844 151.046875 197.175781 C 147.496094 199.167969 142.980469 197.925781 140.972656 194.40625 Z M 137.625 199.671875 C 140.171875 202.449219 143.753906 203.988281 147.4375 203.988281 C 149.636719 203.988281 151.867188 203.445312 153.914062 202.304688 C 157.011719 200.574219 159.238281 197.753906 160.1875 194.355469 C 160.863281 191.945312 160.800781 189.460938 160.097656 187.125 L 189.097656 170.929688 C 197.882812 179.121094 206.191406 189.28125 213.277344 201.519531 L 200.148438 208.851562 C 196.082031 204.417969 189.335938 203.15625 183.855469 206.222656 C 180.757812 207.953125 178.53125 210.773438 177.578125 214.175781 C 176.90625 216.582031 176.96875 219.066406 177.667969 221.398438 L 132.691406 246.519531 C 125.765625 234.191406 121.269531 221.902344 118.726562 210.226562 Z M 183.914062 221.246094 C 182.957031 219.566406 182.714844 217.613281 183.234375 215.753906 C 183.761719 213.875 184.992188 212.3125 186.714844 211.351562 C 187.863281 210.710938 189.113281 210.410156 190.34375 210.410156 C 192.925781 210.410156 195.433594 211.746094 196.789062 214.121094 C 197.746094 215.800781 197.988281 217.753906 197.46875 219.613281 C 196.945312 221.492188 195.710938 223.054688 193.988281 224.015625 C 190.433594 225.996094 185.917969 224.75 183.914062 221.246094 Z M 180.566406 226.511719 C 183.109375 229.285156 186.695312 230.828125 190.382812 230.828125 C 192.578125 230.828125 194.808594 230.285156 196.855469 229.140625 C 199.953125 227.410156 202.179688 224.589844 203.132812 221.1875 C 203.804688 218.785156 203.742188 216.296875 203.039062 213.964844 L 216.082031 206.679688 C 222.6875 219.285156 226.828125 231.789062 228.957031 243.578125 L 201.148438 259.109375 C 197.085938 254.679688 190.332031 253.417969 184.855469 256.480469 C 181.753906 258.210938 179.527344 261.039062 178.578125 264.4375 C 177.910156 266.84375 177.976562 269.324219 178.671875 271.660156 L 160.96875 281.542969 C 151.871094 273.648438 143.191406 263.675781 135.703125 251.5625 Z M 184.917969 271.503906 C 183.960938 269.824219 183.71875 267.875 184.234375 266.015625 C 184.761719 264.132812 185.996094 262.570312 187.714844 261.609375 C 188.867188 260.96875 190.113281 260.664062 191.347656 260.664062 C 193.929688 260.664062 196.4375 262 197.789062 264.378906 C 198.746094 266.058594 198.992188 268.011719 198.472656 269.871094 C 197.945312 271.75 196.710938 273.3125 194.992188 274.273438 C 191.4375 276.25 186.921875 275.011719 184.917969 271.503906 Z M 181.566406 276.769531 C 184.109375 279.542969 187.695312 281.085938 191.378906 281.085938 C 193.578125 281.085938 195.808594 280.542969 197.855469 279.402344 C 200.953125 277.671875 203.179688 274.847656 204.128906 271.449219 C 204.804688 269.042969 204.742188 266.558594 204.039062 264.222656 L 229.898438 249.78125 C 232.519531 270.683594 228.941406 288.835938 222.148438 300.351562 C 221.171875 302 220.273438 303.699219 219.410156 305.425781 C 217.46875 305.265625 215.527344 305.148438 213.589844 305.121094 C 200.113281 304.921875 182.566406 298.570312 165.84375 285.554688 Z M 44.660156 87.410156 L 87.605469 63.429688 C 90.148438 66.207031 93.734375 67.746094 97.417969 67.746094 C 99.617188 67.746094 101.84375 67.203125 103.890625 66.058594 C 106.992188 64.328125 109.21875 61.503906 110.167969 58.105469 C 110.839844 55.699219 110.777344 53.214844 110.078125 50.878906 L 121.222656 44.65625 C 125.714844 56.515625 128.730469 68.320312 130.3125 79.761719 L 100.503906 96.410156 C 96.4375 91.980469 89.6875 90.71875 84.210938 93.78125 C 81.109375 95.511719 78.882812 98.335938 77.9375 101.734375 C 77.265625 104.140625 77.328125 106.625 78.027344 108.957031 L 70.25 113.300781 C 61.207031 106.050781 52.597656 97.359375 44.660156 87.410156 Z M 103.828125 51.035156 C 104.785156 52.71875 105.027344 54.667969 104.507812 56.527344 C 103.984375 58.40625 102.75 59.96875 101.027344 60.933594 C 97.476562 62.925781 92.960938 61.679688 90.953125 58.167969 C 89.996094 56.488281 89.753906 54.539062 90.269531 52.679688 C 90.796875 50.796875 92.03125 49.234375 93.753906 48.273438 C 94.90625 47.632812 96.148438 47.328125 97.382812 47.328125 C 99.964844 47.320312 102.472656 48.660156 103.828125 51.035156 Z M 84.28125 108.800781 C 83.320312 107.121094 83.078125 105.171875 83.597656 103.308594 C 84.121094 101.429688 85.355469 99.867188 87.078125 98.90625 C 88.230469 98.261719 89.476562 97.960938 90.707031 97.960938 C 93.289062 97.960938 95.796875 99.296875 97.148438 101.671875 C 97.148438 101.671875 97.148438 101.671875 97.152344 101.671875 C 98.109375 103.351562 98.351562 105.300781 97.832031 107.160156 C 97.308594 109.039062 96.070312 110.605469 94.351562 111.566406 C 90.796875 113.554688 86.277344 112.316406 84.28125 108.800781 Z M 80.925781 114.066406 C 83.472656 116.84375 87.054688 118.386719 90.738281 118.386719 C 92.9375 118.386719 95.167969 117.84375 97.214844 116.699219 C 100.316406 114.96875 102.539062 112.140625 103.492188 108.742188 C 104.164062 106.335938 104.101562 103.855469 103.398438 101.519531 L 131.035156 86.085938 C 132.792969 105.109375 130.414062 122.878906 123.878906 137.847656 C 107.4375 135.660156 90.832031 128.554688 75.300781 117.207031 Z M 47.710938 9.046875 C 72.765625 16.796875 96.351562 26.347656 118.269531 37.367188 C 118.527344 37.96875 118.753906 38.566406 119.003906 39.164062 L 107.179688 45.769531 C 103.117188 41.335938 96.367188 40.074219 90.890625 43.140625 C 87.789062 44.867188 85.5625 47.695312 84.613281 51.097656 C 83.941406 53.503906 84.007812 55.984375 84.707031 58.320312 L 41.003906 82.726562 C 39.402344 80.582031 37.839844 78.371094 36.300781 76.121094 C 38.320312 54.179688 42.085938 31.734375 47.710938 9.046875 Z M 141.28125 341.171875 C 66.355469 295.070312 27.726562 197.402344 35.582031 85.246094 C 36.253906 86.160156 36.941406 87.042969 37.628906 87.9375 C 37.632812 87.949219 37.632812 87.960938 37.636719 87.972656 C 37.789062 88.242188 37.984375 88.472656 38.203125 88.675781 C 47.257812 100.402344 57.230469 110.519531 67.777344 118.796875 C 68.019531 119.0625 68.292969 119.273438 68.605469 119.433594 C 85.253906 132.316406 103.25 140.621094 121.191406 143.40625 C 120.679688 144.363281 120.199219 145.347656 119.648438 146.28125 C 111.425781 160.21875 107.511719 183.050781 112.503906 208.808594 C 112.507812 209.054688 112.570312 209.292969 112.640625 209.539062 C 115.257812 222.617188 120.132812 236.417969 127.992188 250.207031 C 128.289062 250.726562 128.613281 251.199219 128.910156 251.710938 C 128.945312 251.792969 128.945312 251.875 128.988281 251.953125 C 129.089844 252.136719 129.222656 252.289062 129.359375 252.441406 C 137.800781 266.65625 147.859375 278.183594 158.445312 287.09375 C 158.550781 287.210938 158.667969 287.304688 158.789062 287.402344 C 177.648438 303.167969 198.042969 310.769531 213.503906 310.996094 C 214.597656 311.011719 215.695312 311.0625 216.792969 311.121094 C 210.167969 327.125 207.878906 345.90625 210.105469 366.257812 C 207.597656 366.039062 205.089844 365.726562 202.578125 365.199219 C 180.164062 360.492188 159.542969 352.410156 141.28125 341.171875 Z M 216.046875 366.5 C 215.621094 362.84375 215.335938 359.242188 215.21875 355.703125 L 226.816406 349.226562 C 229.359375 352 232.945312 353.542969 236.632812 353.542969 C 238.828125 353.542969 241.0625 352.996094 243.109375 351.855469 C 246.207031 350.125 248.433594 347.296875 249.382812 343.894531 C 250.050781 341.488281 249.988281 339.011719 249.289062 336.675781 L 264.976562 327.914062 C 267.324219 329.425781 269.652344 331.03125 271.964844 332.734375 C 261.085938 353.417969 239.410156 366.367188 216.046875 366.5 Z M 285.371094 312.964844 C 290.277344 295.285156 292.6875 277.519531 292.464844 259.988281 C 292.222656 241.378906 289.128906 222.972656 283.550781 204.992188 C 293.976562 203.234375 303.96875 199.941406 313.308594 195.152344 C 320.652344 191.390625 327.535156 186.722656 333.769531 181.277344 C 334.992188 180.214844 335.117188 178.355469 334.050781 177.136719 C 332.984375 175.910156 331.128906 175.789062 329.910156 176.851562 C 324.035156 181.980469 317.546875 186.378906 310.632812 189.925781 C 301.59375 194.5625 291.894531 197.707031 281.773438 199.324219 C 276.066406 182.613281 268.152344 166.316406 258.246094 150.636719 C 262.496094 140.9375 266.972656 131.277344 271.621094 121.703125 C 282.230469 121.238281 292.730469 119.480469 302.855469 116.386719 C 311.742188 113.664062 320.34375 109.941406 328.417969 105.316406 C 329.824219 104.511719 330.316406 102.71875 329.507812 101.308594 C 328.699219 99.902344 326.914062 99.410156 325.5 100.21875 C 317.800781 104.625 309.605469 108.175781 301.136719 110.765625 C 292.523438 113.402344 283.621094 114.992188 274.617188 115.628906 C 277.777344 109.25 280.992188 102.90625 284.300781 96.652344 C 296.847656 72.9375 310.761719 49.621094 325.625 27.191406 C 363.195312 138.980469 347.109375 251.484375 285.371094 312.964844 Z M 285.371094 312.964844 " fill-opacity="1" fill-rule="nonzero"/></g><g clip-path="url(#519be8d11a)"><g clip-path="url(#9b2391c739)"><path fill="#ff5757" d="M 139.835938 183.300781 L 154.976562 183.300781 L 154.976562 198.445312 L 139.835938 198.445312 Z M 139.835938 183.300781 " fill-opacity="1" fill-rule="nonzero"/></g></g><g clip-path="url(#f9de8ad723)"><g clip-path="url(#6d6449962f)"><path fill="#5ce1e6" d="M 182.710938 209.960938 L 197.855469 209.960938 L 197.855469 225.105469 L 182.710938 225.105469 Z M 182.710938 209.960938 " fill-opacity="1" fill-rule="nonzero"/></g></g><g clip-path="url(#e673944aca)"><g clip-path="url(#370c1cbd4e)"><path fill="#c1ff72" d="M 229.140625 332.902344 L 244.285156 332.902344 L 244.285156 348.046875 L 229.140625 348.046875 Z M 229.140625 332.902344 " fill-opacity="1" fill-rule="nonzero"/></g></g><g clip-path="url(#46b9caabfe)"><g clip-path="url(#e02281fb68)"><path fill="#ffde59" d="M 83.191406 97.761719 L 98.335938 97.761719 L 98.335938 112.90625 L 83.191406 112.90625 Z M 83.191406 97.761719 " fill-opacity="1" fill-rule="nonzero"/></g></g><g clip-path="url(#2997e23e3e)"><g clip-path="url(#cc95b3b1a2)"><path fill="#bcbfff" d="M 89.902344 47.085938 L 105.046875 47.085938 L 105.046875 62.230469 L 89.902344 62.230469 Z M 89.902344 47.085938 " fill-opacity="1" fill-rule="nonzero"/></g></g></svg>