<svg xmlns="http://www.w3.org/2000/svg" xmlns:xlink="http://www.w3.org/1999/xlink" width="108" zoomAndPan="magnify" viewBox="0 0 81 30.000001" height="40" preserveAspectRatio="xMidYMid meet" version="1.0"><defs><g/><clipPath id="0af005a89f"><path d="M 14 24 L 20 24 L 20 27.632812 L 14 27.632812 Z M 14 24 " clip-rule="nonzero"/></clipPath><clipPath id="9d7b3fa2cf"><path d="M 1.304688 1.386719 L 9 1.386719 L 9 8 L 1.304688 8 Z M 1.304688 1.386719 " clip-rule="nonzero"/></clipPath><clipPath id="b12b203ef4"><path d="M 1.304688 6 L 16 6 L 16 27.632812 L 1.304688 27.632812 Z M 1.304688 6 " clip-rule="nonzero"/></clipPath><clipPath id="0965e68200"><path d="M 1.304688 1.386719 L 25 1.386719 L 25 27.632812 L 1.304688 27.632812 Z M 1.304688 1.386719 " clip-rule="nonzero"/></clipPath><clipPath id="f9ec89df42"><path d="M 9.386719 14.21875 L 10.460938 14.21875 L 10.460938 15.292969 L 9.386719 15.292969 Z M 9.386719 14.21875 " clip-rule="nonzero"/></clipPath><clipPath id="f62ffdb008"><path d="M 9.925781 14.21875 C 9.628906 14.21875 9.386719 14.457031 9.386719 14.753906 C 9.386719 15.050781 9.628906 15.292969 9.925781 15.292969 C 10.222656 15.292969 10.460938 15.050781 10.460938 14.753906 C 10.460938 14.457031 10.222656 14.21875 9.925781 14.21875 " clip-rule="nonzero"/></clipPath><clipPath id="b826b19329"><path d="M 12.429688 16.109375 L 13.503906 16.109375 L 13.503906 17.183594 L 12.429688 17.183594 Z M 12.429688 16.109375 " clip-rule="nonzero"/></clipPath><clipPath id="bed63e939c"><path d="M 12.964844 16.109375 C 12.671875 16.109375 12.429688 16.351562 12.429688 16.644531 C 12.429688 16.941406 12.671875 17.183594 12.964844 17.183594 C 13.261719 17.183594 13.503906 16.941406 13.503906 16.644531 C 13.503906 16.351562 13.261719 16.109375 12.964844 16.109375 " clip-rule="nonzero"/></clipPath><clipPath id="035fe37a92"><path d="M 15.722656 24.828125 L 16.796875 24.828125 L 16.796875 25.902344 L 15.722656 25.902344 Z M 15.722656 24.828125 " clip-rule="nonzero"/></clipPath><clipPath id="7fe4ae9a53"><path d="M 16.261719 24.828125 C 15.964844 24.828125 15.722656 25.070312 15.722656 25.367188 C 15.722656 25.664062 15.964844 25.902344 16.261719 25.902344 C 16.554688 25.902344 16.796875 25.664062 16.796875 25.367188 C 16.796875 25.070312 16.554688 24.828125 16.261719 24.828125 " clip-rule="nonzero"/></clipPath><clipPath id="e6698ea9a6"><path d="M 5.371094 8.152344 L 6.445312 8.152344 L 6.445312 9.226562 L 5.371094 9.226562 Z M 5.371094 8.152344 " clip-rule="nonzero"/></clipPath><clipPath id="20d9684480"><path d="M 5.90625 8.152344 C 5.609375 8.152344 5.371094 8.390625 5.371094 8.6875 C 5.371094 8.984375 5.609375 9.226562 5.90625 9.226562 C 6.203125 9.226562 6.445312 8.984375 6.445312 8.6875 C 6.445312 8.390625 6.203125 8.152344 5.90625 8.152344 " clip-rule="nonzero"/></clipPath><clipPath id="8595fdea32"><path d="M 5.847656 4.554688 L 6.921875 4.554688 L 6.921875 5.628906 L 5.847656 5.628906 Z M 5.847656 4.554688 " clip-rule="nonzero"/></clipPath><clipPath id="f7fa2a0a48"><path d="M 6.382812 4.554688 C 6.085938 4.554688 5.847656 4.796875 5.847656 5.09375 C 5.847656 5.390625 6.085938 5.628906 6.382812 5.628906 C 6.679688 5.628906 6.921875 5.390625 6.921875 5.09375 C 6.921875 4.796875 6.679688 4.554688 6.382812 4.554688 " clip-rule="nonzero"/></clipPath><clipPath id="2bcb7a6e3f"><path d="M 78 17 L 79.691406 17 L 79.691406 19 L 78 19 Z M 78 17 " clip-rule="nonzero"/></clipPath><clipPath id="9c7ff6b773"><path d="M 25 7 L 79.691406 7 L 79.691406 21 L 25 21 Z M 25 7 " clip-rule="nonzero"/></clipPath></defs><path fill="#baca49" d="M 16.890625 25.003906 C 17.085938 25.351562 16.964844 25.796875 16.613281 25.992188 C 16.261719 26.1875 15.8125 26.066406 15.613281 25.71875 C 15.417969 25.367188 15.539062 24.925781 15.890625 24.730469 C 16.242188 24.53125 16.691406 24.65625 16.890625 25.003906 Z M 16.890625 25.003906 " fill-opacity="1" fill-rule="nonzero"/><path fill="#baca49" d="M 13.679688 19.867188 C 13.878906 20.214844 13.753906 20.65625 13.402344 20.851562 C 13.050781 21.050781 12.605469 20.925781 12.40625 20.578125 C 12.207031 20.230469 12.332031 19.789062 12.683594 19.589844 C 13.035156 19.394531 13.480469 19.515625 13.679688 19.867188 Z M 13.679688 19.867188 " fill-opacity="1" fill-rule="nonzero"/><path fill="#baca49" d="M 13.609375 16.300781 C 13.808594 16.648438 13.683594 17.089844 13.332031 17.289062 C 12.980469 17.484375 12.53125 17.359375 12.335938 17.011719 C 12.136719 16.664062 12.257812 16.222656 12.609375 16.023438 C 12.964844 15.828125 13.410156 15.953125 13.609375 16.300781 Z M 13.609375 16.300781 " fill-opacity="1" fill-rule="nonzero"/><path fill="#baca49" d="M 10.5625 14.398438 C 10.761719 14.746094 10.636719 15.1875 10.285156 15.382812 C 9.933594 15.582031 9.488281 15.457031 9.289062 15.109375 C 9.089844 14.761719 9.214844 14.320312 9.566406 14.125 C 9.917969 13.925781 10.367188 14.046875 10.5625 14.398438 Z M 10.5625 14.398438 " fill-opacity="1" fill-rule="nonzero"/><path fill="#baca49" d="M 6.539062 8.324219 C 6.742188 8.671875 6.617188 9.117188 6.265625 9.3125 C 5.910156 9.507812 5.464844 9.386719 5.265625 9.039062 C 5.066406 8.6875 5.191406 8.246094 5.546875 8.050781 C 5.898438 7.851562 6.34375 7.976562 6.539062 8.324219 Z M 6.539062 8.324219 " fill-opacity="1" fill-rule="nonzero"/><path fill="#baca49" d="M 7.015625 4.734375 C 7.214844 5.082031 7.089844 5.523438 6.738281 5.71875 C 6.382812 5.917969 5.9375 5.792969 5.742188 5.445312 C 5.539062 5.097656 5.664062 4.65625 6.019531 4.460938 C 6.371094 4.261719 6.816406 4.382812 7.015625 4.734375 Z M 7.015625 4.734375 " fill-opacity="1" fill-rule="nonzero"/><g clip-path="url(#0af005a89f)"><path fill="#6fceae" d="M 18.273438 24.234375 C 18.527344 24.394531 18.78125 24.566406 19.027344 24.757812 C 18.222656 26.449219 16.476562 27.492188 14.609375 27.421875 C 14.558594 27.050781 14.53125 26.683594 14.527344 26.328125 L 15.613281 25.71875 C 15.8125 26.066406 16.261719 26.1875 16.613281 25.992188 C 16.964844 25.796875 17.085938 25.351562 16.890625 25.003906 Z M 18.273438 24.234375 " fill-opacity="1" fill-rule="nonzero"/></g><path fill="#6aac9c" d="M 18.273438 24.234375 L 16.890625 25.003906 C 16.691406 24.65625 16.242188 24.53125 15.890625 24.730469 C 15.539062 24.925781 15.417969 25.367188 15.613281 25.71875 L 14.527344 26.328125 C 14.5 25.148438 14.707031 24.046875 15.15625 23.097656 C 16.207031 23.210938 17.265625 23.605469 18.273438 24.234375 Z M 18.273438 24.234375 " fill-opacity="1" fill-rule="nonzero"/><path fill="#6fceae" d="M 15.941406 18.605469 C 16.210938 20.265625 15.941406 21.71875 15.40625 22.625 C 15.316406 22.777344 15.234375 22.9375 15.15625 23.097656 C 14.976562 23.078125 14.796875 23.066406 14.617188 23.066406 C 13.558594 23.050781 12.160156 22.527344 10.859375 21.441406 L 10.859375 21.4375 L 12.40625 20.578125 C 12.605469 20.925781 13.050781 21.050781 13.402344 20.851562 C 13.753906 20.65625 13.878906 20.214844 13.679688 19.867188 Z M 15.941406 18.605469 " fill-opacity="1" fill-rule="nonzero"/><path fill="#6aac9c" d="M 15.941406 18.605469 L 13.679688 19.867188 C 13.480469 19.515625 13.035156 19.394531 12.683594 19.589844 C 12.332031 19.789062 12.207031 20.230469 12.40625 20.578125 L 10.859375 21.4375 L 10.859375 21.441406 C 10.109375 20.8125 9.398438 19.996094 8.804688 18.984375 L 12.335938 17.011719 C 12.53125 17.359375 12.980469 17.484375 13.332031 17.289062 C 13.683594 17.089844 13.808594 16.648438 13.609375 16.300781 L 14.882812 15.589844 C 15.449219 16.617188 15.785156 17.644531 15.941406 18.605469 Z M 15.941406 18.605469 " fill-opacity="1" fill-rule="nonzero"/><path fill="#6fceae" d="M 14.882812 15.589844 L 13.609375 16.300781 C 13.410156 15.953125 12.964844 15.828125 12.609375 16.023438 C 12.257812 16.222656 12.136719 16.664062 12.335938 17.011719 L 8.804688 18.984375 C 8.777344 18.941406 8.753906 18.902344 8.730469 18.859375 C 8.179688 17.894531 7.835938 16.929688 7.65625 16.019531 L 9.289062 15.109375 C 9.488281 15.457031 9.933594 15.582031 10.285156 15.382812 C 10.636719 15.1875 10.761719 14.746094 10.5625 14.398438 L 12.914062 13.085938 C 13.605469 13.707031 14.261719 14.5 14.8125 15.464844 C 14.835938 15.507812 14.859375 15.546875 14.882812 15.589844 Z M 14.882812 15.589844 " fill-opacity="1" fill-rule="nonzero"/><path fill="#6aac9c" d="M 12.914062 13.085938 L 10.5625 14.398438 C 10.367188 14.046875 9.917969 13.925781 9.566406 14.125 C 9.214844 14.320312 9.089844 14.761719 9.289062 15.109375 L 7.65625 16.019531 C 7.300781 14.234375 7.570312 12.65625 8.136719 11.699219 C 8.226562 11.542969 8.3125 11.386719 8.386719 11.222656 C 8.566406 11.242188 8.746094 11.253906 8.925781 11.257812 C 10.046875 11.273438 11.554688 11.859375 12.914062 13.085938 Z M 12.914062 13.085938 " fill-opacity="1" fill-rule="nonzero"/><path fill="#6aac9c" d="M 8.941406 6.984375 C 9.140625 8.542969 8.960938 10.007812 8.386719 11.222656 C 7.039062 11.078125 5.679688 10.476562 4.433594 9.503906 L 5.265625 9.039062 C 5.464844 9.386719 5.910156 9.507812 6.265625 9.3125 C 6.617188 9.117188 6.742188 8.671875 6.539062 8.324219 Z M 8.941406 6.984375 " fill-opacity="1" fill-rule="nonzero"/><path fill="#6fceae" d="M 8.941406 6.984375 L 6.539062 8.324219 C 6.34375 7.976562 5.898438 7.851562 5.546875 8.050781 C 5.191406 8.246094 5.066406 8.6875 5.265625 9.039062 L 4.433594 9.503906 L 4.429688 9.503906 C 3.675781 8.914062 2.964844 8.191406 2.320312 7.355469 L 5.742188 5.445312 C 5.9375 5.792969 6.382812 5.917969 6.738281 5.71875 C 7.089844 5.523438 7.214844 5.082031 7.015625 4.734375 L 8.175781 4.085938 C 8.566406 5.0625 8.824219 6.042969 8.941406 6.984375 Z M 8.941406 6.984375 " fill-opacity="1" fill-rule="nonzero"/><g clip-path="url(#9d7b3fa2cf)"><path fill="#6aac9c" d="M 8.175781 4.085938 L 7.015625 4.734375 C 6.816406 4.382812 6.371094 4.261719 6.019531 4.460938 C 5.664062 4.65625 5.539062 5.097656 5.742188 5.445312 L 2.320312 7.355469 C 2.152344 7.136719 1.992188 6.910156 1.832031 6.679688 C 1.980469 5.019531 2.265625 3.316406 2.707031 1.59375 C 4.601562 2.167969 6.382812 2.882812 8.027344 3.71875 C 8.078125 3.839844 8.128906 3.964844 8.175781 4.085938 Z M 8.175781 4.085938 " fill-opacity="1" fill-rule="nonzero"/></g><g clip-path="url(#b12b203ef4)"><path fill="#5cc096" d="M 9.382812 25.59375 C 3.957031 22.253906 1.105469 15 1.832031 6.679688 C 1.992188 6.910156 2.152344 7.136719 2.320312 7.355469 C 2.964844 8.191406 3.675781 8.914062 4.429688 9.503906 L 4.433594 9.503906 C 5.679688 10.476562 7.039062 11.078125 8.386719 11.222656 C 8.3125 11.386719 8.226562 11.542969 8.136719 11.699219 C 7.570312 12.65625 7.300781 14.234375 7.65625 16.019531 C 7.835938 16.929688 8.179688 17.894531 8.730469 18.859375 C 8.753906 18.902344 8.777344 18.941406 8.804688 18.984375 C 9.398438 19.996094 10.109375 20.8125 10.859375 21.441406 C 12.160156 22.527344 13.558594 23.050781 14.617188 23.066406 C 14.796875 23.066406 14.976562 23.078125 15.15625 23.097656 C 14.707031 24.046875 14.5 25.148438 14.527344 26.328125 C 14.53125 26.683594 14.558594 27.050781 14.609375 27.421875 C 14.339844 27.414062 14.070312 27.378906 13.796875 27.324219 C 11.753906 26.894531 10.296875 26.15625 9.382812 25.59375 Z M 9.382812 25.59375 " fill-opacity="1" fill-rule="nonzero"/></g><path fill="#5cc096" d="M 8.941406 6.984375 C 8.824219 6.042969 8.566406 5.0625 8.175781 4.085938 C 8.128906 3.964844 8.078125 3.839844 8.027344 3.71875 C 10.371094 4.910156 12.441406 6.347656 14.167969 7.949219 C 15.503906 9.1875 16.640625 10.53125 17.542969 11.9375 C 19.101562 14.367188 19.972656 17.003906 20.007812 19.660156 C 20.019531 20.695312 19.914062 22.234375 19.289062 24.097656 C 19.265625 24.164062 19.242188 24.230469 19.222656 24.296875 C 19.164062 24.453125 19.101562 24.609375 19.027344 24.757812 C 18.78125 24.566406 18.527344 24.394531 18.273438 24.234375 C 17.265625 23.605469 16.207031 23.210938 15.15625 23.097656 C 15.234375 22.9375 15.316406 22.777344 15.40625 22.625 C 15.941406 21.71875 16.210938 20.265625 15.941406 18.605469 C 15.785156 17.644531 15.449219 16.617188 14.882812 15.589844 C 14.859375 15.546875 14.835938 15.507812 14.8125 15.464844 C 14.261719 14.5 13.605469 13.707031 12.914062 13.085938 C 11.554688 11.859375 10.046875 11.273438 8.925781 11.257812 C 8.746094 11.253906 8.566406 11.242188 8.386719 11.222656 C 8.960938 10.007812 9.140625 8.542969 8.941406 6.984375 Z M 8.941406 6.984375 " fill-opacity="1" fill-rule="nonzero"/><path fill="#4aaf8f" d="M 18.078125 10.75 C 17.890625 11.152344 17.710938 11.546875 17.542969 11.9375 C 16.640625 10.53125 15.503906 9.1875 14.167969 7.949219 C 16.425781 5.835938 19.292969 4.011719 22.625 2.675781 C 21.582031 4.226562 20.5 5.996094 19.449219 7.976562 C 19.152344 8.542969 18.867188 9.097656 18.601562 9.648438 C 18.417969 10.019531 18.242188 10.386719 18.078125 10.75 Z M 18.078125 10.75 " fill-opacity="1" fill-rule="nonzero"/><path fill="#349370" d="M 20.007812 19.660156 C 19.972656 17.003906 19.101562 14.367188 17.542969 11.9375 C 17.710938 11.546875 17.890625 11.152344 18.078125 10.75 C 18.242188 10.386719 18.417969 10.019531 18.601562 9.648438 C 18.867188 9.097656 19.152344 8.542969 19.449219 7.976562 C 20.5 5.996094 21.582031 4.226562 22.625 2.675781 C 25.675781 11.328125 24.222656 19.796875 19.289062 24.097656 C 19.914062 22.234375 20.019531 20.695312 20.007812 19.660156 Z M 20.007812 19.660156 " fill-opacity="1" fill-rule="nonzero"/><g clip-path="url(#0965e68200)"><path fill="#3a322b" d="M 22.824219 2.605469 C 22.820312 2.597656 22.8125 2.589844 22.808594 2.585938 C 22.804688 2.570312 22.796875 2.558594 22.789062 2.546875 C 22.78125 2.535156 22.769531 2.527344 22.761719 2.519531 C 22.753906 2.511719 22.75 2.503906 22.742188 2.5 C 22.738281 2.496094 22.730469 2.496094 22.726562 2.492188 C 22.722656 2.492188 22.71875 2.484375 22.710938 2.484375 C 22.703125 2.480469 22.695312 2.480469 22.6875 2.476562 C 22.675781 2.472656 22.660156 2.46875 22.648438 2.46875 C 22.632812 2.46875 22.621094 2.46875 22.609375 2.46875 C 22.59375 2.46875 22.582031 2.472656 22.566406 2.476562 C 22.5625 2.480469 22.554688 2.476562 22.546875 2.480469 C 19.363281 3.757812 16.476562 5.546875 14.179688 7.65625 C 11.226562 4.964844 7.316406 2.773438 2.765625 1.394531 C 2.710938 1.378906 2.652344 1.386719 2.601562 1.414062 C 2.554688 1.441406 2.519531 1.488281 2.503906 1.542969 C -0.140625 11.917969 2.582031 21.652344 9.273438 25.769531 C 10.609375 26.59375 12.117188 27.183594 13.753906 27.527344 C 14.035156 27.585938 14.316406 27.621094 14.59375 27.628906 C 14.601562 27.628906 14.605469 27.632812 14.609375 27.632812 C 14.617188 27.632812 14.625 27.632812 14.632812 27.628906 C 14.675781 27.632812 14.722656 27.632812 14.769531 27.632812 C 16.824219 27.632812 18.71875 26.351562 19.417969 24.363281 C 19.433594 24.316406 19.445312 24.269531 19.464844 24.222656 C 21.917969 22.0625 23.542969 18.890625 24.15625 15.050781 C 24.78125 11.15625 24.320312 6.851562 22.824219 2.605469 Z M 22.082031 3.125 C 21.070312 4.664062 20.125 6.257812 19.265625 7.878906 C 18.972656 8.433594 18.691406 8.996094 18.414062 9.5625 C 18.410156 9.566406 18.40625 9.574219 18.402344 9.578125 C 18.28125 9.832031 18.160156 10.082031 18.042969 10.335938 C 17.707031 9.84375 17.441406 9.3125 17.253906 8.75 C 17.070312 8.199219 16.960938 7.628906 16.929688 7.050781 C 16.921875 6.9375 16.816406 6.847656 16.710938 6.855469 C 16.59375 6.859375 16.507812 6.960938 16.511719 7.074219 C 16.546875 7.6875 16.660156 8.296875 16.855469 8.882812 C 17.082031 9.558594 17.414062 10.191406 17.839844 10.769531 C 17.726562 11.007812 17.621094 11.25 17.515625 11.488281 C 16.679688 10.242188 15.660156 9.050781 14.484375 7.941406 C 16.589844 6.011719 19.199219 4.359375 22.082031 3.125 Z M 19.125 15.695312 C 19.546875 16.992188 19.78125 18.320312 19.796875 19.664062 C 19.816406 21.171875 19.554688 22.707031 19.023438 24.226562 C 19 24.296875 18.96875 24.363281 18.941406 24.433594 C 17.820312 23.621094 16.640625 23.113281 15.472656 22.929688 C 15.511719 22.863281 15.546875 22.796875 15.585938 22.730469 C 16.136719 21.796875 16.421875 20.292969 16.148438 18.585938 C 16.148438 18.582031 16.144531 18.574219 16.144531 18.570312 C 15.988281 17.59375 15.644531 16.554688 15.074219 15.511719 C 15.070312 15.503906 15.070312 15.496094 15.066406 15.488281 C 15.0625 15.480469 15.058594 15.476562 15.054688 15.472656 C 15.03125 15.433594 15.015625 15.398438 14.992188 15.359375 C 14.4375 14.382812 13.769531 13.582031 13.0625 12.949219 C 13.050781 12.933594 13.039062 12.921875 13.023438 12.914062 C 11.628906 11.667969 10.085938 11.066406 8.929688 11.050781 C 8.851562 11.046875 8.773438 11.039062 8.695312 11.035156 C 9.175781 9.855469 9.328125 8.464844 9.148438 6.984375 C 9.148438 6.964844 9.144531 6.945312 9.140625 6.925781 C 9.027344 6.027344 8.789062 5.09375 8.429688 4.160156 C 10.53125 5.277344 12.402344 6.585938 13.988281 8.042969 C 13.996094 8.058594 14.003906 8.078125 14.019531 8.089844 C 14.039062 8.113281 14.066406 8.128906 14.09375 8.140625 C 15.375 9.335938 16.46875 10.625 17.34375 11.980469 C 17.355469 12.03125 17.382812 12.070312 17.421875 12.101562 C 18.136719 13.230469 18.699219 14.402344 19.101562 15.609375 C 19.101562 15.609375 19.097656 15.613281 19.101562 15.617188 C 19.101562 15.644531 19.113281 15.671875 19.125 15.695312 Z M 15.796875 25.613281 C 15.726562 25.496094 15.710938 25.355469 15.746094 25.222656 C 15.785156 25.089844 15.871094 24.980469 15.996094 24.910156 C 16.074219 24.867188 16.164062 24.84375 16.25 24.84375 C 16.433594 24.84375 16.613281 24.941406 16.707031 25.109375 C 16.777344 25.226562 16.792969 25.367188 16.757812 25.496094 C 16.71875 25.632812 16.632812 25.742188 16.511719 25.808594 C 16.257812 25.949219 15.9375 25.863281 15.796875 25.613281 Z M 16.945312 24.734375 C 16.660156 24.421875 16.179688 24.332031 15.792969 24.546875 C 15.570312 24.671875 15.414062 24.871094 15.347656 25.113281 C 15.296875 25.28125 15.304688 25.460938 15.351562 25.625 L 14.734375 25.972656 C 14.753906 25.003906 14.9375 24.113281 15.28125 23.328125 C 16.140625 23.441406 17.007812 23.742188 17.855469 24.226562 Z M 8.316406 11.804688 C 8.382812 11.6875 8.449219 11.566406 8.507812 11.441406 C 8.648438 11.453125 8.785156 11.464844 8.921875 11.464844 C 9.945312 11.480469 11.296875 11.992188 12.554688 13.046875 L 10.621094 14.128906 C 10.332031 13.8125 9.851562 13.722656 9.464844 13.941406 C 9.246094 14.0625 9.085938 14.265625 9.019531 14.503906 C 8.972656 14.675781 8.976562 14.851562 9.027344 15.015625 L 7.808594 15.699219 C 7.542969 14.085938 7.800781 12.675781 8.316406 11.804688 Z M 9.46875 15.007812 C 9.402344 14.886719 9.382812 14.75 9.421875 14.617188 C 9.457031 14.484375 9.546875 14.371094 9.667969 14.304688 C 9.75 14.257812 9.835938 14.238281 9.925781 14.238281 C 10.109375 14.238281 10.285156 14.332031 10.382812 14.5 C 10.449219 14.621094 10.46875 14.757812 10.429688 14.890625 C 10.394531 15.023438 10.304688 15.132812 10.183594 15.203125 C 9.933594 15.34375 9.613281 15.253906 9.46875 15.007812 Z M 9.230469 15.378906 C 9.414062 15.578125 9.667969 15.6875 9.925781 15.6875 C 10.082031 15.6875 10.242188 15.648438 10.386719 15.566406 C 10.605469 15.445312 10.765625 15.242188 10.832031 15.003906 C 10.878906 14.832031 10.875 14.65625 10.824219 14.488281 L 12.882812 13.339844 C 13.503906 13.921875 14.09375 14.640625 14.597656 15.511719 L 13.667969 16.03125 C 13.378906 15.714844 12.898438 15.625 12.511719 15.84375 C 12.289062 15.964844 12.132812 16.167969 12.066406 16.410156 C 12.019531 16.578125 12.023438 16.753906 12.070312 16.921875 L 8.882812 18.703125 C 8.390625 17.828125 8.070312 16.957031 7.890625 16.128906 Z M 12.515625 16.910156 C 12.445312 16.789062 12.429688 16.652344 12.464844 16.519531 C 12.503906 16.386719 12.589844 16.277344 12.714844 16.207031 C 12.796875 16.164062 12.882812 16.140625 12.972656 16.140625 C 13.152344 16.140625 13.332031 16.234375 13.429688 16.40625 C 13.496094 16.523438 13.511719 16.664062 13.476562 16.792969 C 13.4375 16.925781 13.351562 17.039062 13.230469 17.105469 C 12.976562 17.246094 12.65625 17.160156 12.515625 16.910156 Z M 12.277344 17.28125 C 12.457031 17.480469 12.710938 17.589844 12.972656 17.589844 C 13.128906 17.589844 13.289062 17.550781 13.433594 17.46875 C 13.652344 17.347656 13.808594 17.148438 13.878906 16.90625 C 13.925781 16.734375 13.921875 16.558594 13.871094 16.394531 L 14.796875 15.875 C 15.265625 16.769531 15.558594 17.65625 15.710938 18.492188 L 13.738281 19.59375 C 13.449219 19.28125 12.96875 19.191406 12.582031 19.410156 C 12.363281 19.53125 12.203125 19.730469 12.136719 19.972656 C 12.089844 20.144531 12.09375 20.320312 12.144531 20.484375 L 10.886719 21.1875 C 10.242188 20.625 9.625 19.917969 9.09375 19.058594 Z M 12.585938 20.472656 C 12.519531 20.355469 12.5 20.21875 12.539062 20.085938 C 12.574219 19.953125 12.664062 19.839844 12.785156 19.773438 C 12.867188 19.726562 12.953125 19.707031 13.042969 19.707031 C 13.226562 19.707031 13.402344 19.800781 13.5 19.96875 C 13.566406 20.089844 13.585938 20.226562 13.546875 20.359375 C 13.511719 20.492188 13.421875 20.601562 13.300781 20.671875 C 13.046875 20.8125 12.726562 20.722656 12.585938 20.472656 Z M 12.347656 20.847656 C 12.527344 21.042969 12.78125 21.152344 13.042969 21.152344 C 13.199219 21.152344 13.359375 21.117188 13.503906 21.035156 C 13.722656 20.910156 13.882812 20.710938 13.949219 20.46875 C 13.996094 20.300781 13.992188 20.125 13.941406 19.957031 L 15.777344 18.933594 C 15.960938 20.417969 15.707031 21.703125 15.226562 22.519531 C 15.15625 22.636719 15.09375 22.757812 15.03125 22.878906 C 14.894531 22.871094 14.757812 22.859375 14.621094 22.859375 C 13.664062 22.84375 12.417969 22.394531 11.234375 21.472656 Z M 2.636719 7.417969 L 5.683594 5.714844 C 5.863281 5.914062 6.117188 6.023438 6.378906 6.023438 C 6.535156 6.023438 6.695312 5.984375 6.839844 5.902344 C 7.058594 5.78125 7.214844 5.578125 7.285156 5.339844 C 7.332031 5.167969 7.328125 4.992188 7.277344 4.824219 L 8.066406 4.382812 C 8.386719 5.226562 8.601562 6.0625 8.714844 6.875 L 6.597656 8.054688 C 6.308594 7.742188 5.832031 7.652344 5.441406 7.867188 C 5.222656 7.992188 5.066406 8.191406 4.996094 8.433594 C 4.949219 8.605469 4.953125 8.78125 5.003906 8.945312 L 4.453125 9.253906 C 3.8125 8.738281 3.199219 8.121094 2.636719 7.417969 Z M 6.835938 4.835938 C 6.902344 4.957031 6.917969 5.09375 6.882812 5.226562 C 6.84375 5.359375 6.757812 5.46875 6.636719 5.539062 C 6.382812 5.679688 6.0625 5.589844 5.921875 5.34375 C 5.851562 5.222656 5.835938 5.085938 5.871094 4.953125 C 5.910156 4.820312 5.996094 4.707031 6.121094 4.640625 C 6.203125 4.59375 6.289062 4.574219 6.378906 4.574219 C 6.558594 4.574219 6.738281 4.667969 6.835938 4.835938 Z M 5.449219 8.933594 C 5.378906 8.816406 5.363281 8.675781 5.398438 8.542969 C 5.4375 8.410156 5.523438 8.300781 5.644531 8.230469 C 5.726562 8.1875 5.816406 8.164062 5.902344 8.164062 C 6.085938 8.164062 6.265625 8.261719 6.359375 8.429688 C 6.429688 8.546875 6.445312 8.6875 6.410156 8.816406 C 6.371094 8.949219 6.285156 9.0625 6.160156 9.128906 C 5.910156 9.269531 5.589844 9.183594 5.449219 8.933594 Z M 5.210938 9.308594 C 5.390625 9.503906 5.644531 9.613281 5.90625 9.613281 C 6.0625 9.613281 6.21875 9.574219 6.363281 9.496094 C 6.585938 9.371094 6.742188 9.171875 6.8125 8.929688 C 6.859375 8.757812 6.855469 8.582031 6.804688 8.417969 L 8.765625 7.324219 C 8.890625 8.671875 8.71875 9.933594 8.257812 10.996094 C 7.089844 10.839844 5.914062 10.335938 4.8125 9.53125 Z M 2.855469 1.859375 C 4.632812 2.40625 6.304688 3.085938 7.859375 3.867188 C 7.875 3.910156 7.894531 3.953125 7.910156 3.996094 L 7.070312 4.464844 C 6.785156 4.148438 6.304688 4.058594 5.917969 4.277344 C 5.695312 4.398438 5.539062 4.601562 5.472656 4.839844 C 5.425781 5.011719 5.429688 5.1875 5.476562 5.351562 L 2.378906 7.085938 C 2.265625 6.933594 2.152344 6.777344 2.042969 6.617188 C 2.1875 5.058594 2.453125 3.46875 2.855469 1.859375 Z M 9.492188 25.417969 C 4.175781 22.144531 1.4375 15.21875 1.992188 7.261719 C 2.042969 7.328125 2.089844 7.390625 2.140625 7.453125 C 2.140625 7.453125 2.140625 7.457031 2.140625 7.457031 C 2.148438 7.476562 2.164062 7.492188 2.179688 7.507812 C 2.820312 8.339844 3.527344 9.054688 4.277344 9.644531 C 4.292969 9.660156 4.3125 9.675781 4.335938 9.6875 C 5.515625 10.601562 6.792969 11.191406 8.066406 11.390625 C 8.03125 11.457031 7.996094 11.527344 7.957031 11.59375 C 7.375 12.582031 7.09375 14.199219 7.449219 16.027344 C 7.449219 16.046875 7.453125 16.0625 7.460938 16.078125 C 7.644531 17.007812 7.992188 17.984375 8.546875 18.964844 C 8.570312 19 8.59375 19.035156 8.613281 19.070312 C 8.617188 19.078125 8.617188 19.082031 8.617188 19.085938 C 8.625 19.101562 8.636719 19.113281 8.644531 19.121094 C 9.242188 20.128906 9.957031 20.949219 10.707031 21.582031 C 10.714844 21.589844 10.722656 21.59375 10.734375 21.601562 C 12.070312 22.71875 13.515625 23.257812 14.613281 23.277344 C 14.691406 23.277344 14.769531 23.28125 14.847656 23.285156 C 14.378906 24.417969 14.214844 25.75 14.371094 27.195312 C 14.195312 27.179688 14.015625 27.15625 13.839844 27.121094 C 12.25 26.785156 10.785156 26.214844 9.492188 25.417969 Z M 14.792969 27.210938 C 14.765625 26.953125 14.742188 26.699219 14.734375 26.445312 L 15.558594 25.988281 C 15.738281 26.183594 15.992188 26.292969 16.253906 26.292969 C 16.410156 26.292969 16.566406 26.253906 16.714844 26.175781 C 16.933594 26.050781 17.089844 25.851562 17.160156 25.609375 C 17.207031 25.4375 17.203125 25.261719 17.152344 25.097656 L 18.265625 24.476562 C 18.429688 24.582031 18.597656 24.695312 18.761719 24.816406 C 17.988281 26.285156 16.449219 27.203125 14.792969 27.210938 Z M 19.710938 23.414062 C 20.058594 22.160156 20.230469 20.902344 20.214844 19.65625 C 20.195312 18.335938 19.976562 17.03125 19.582031 15.757812 C 20.320312 15.632812 21.03125 15.398438 21.691406 15.058594 C 22.214844 14.792969 22.703125 14.460938 23.144531 14.074219 C 23.230469 14 23.238281 13.867188 23.164062 13.78125 C 23.089844 13.695312 22.957031 13.683594 22.871094 13.761719 C 22.453125 14.125 21.992188 14.4375 21.503906 14.6875 C 20.863281 15.015625 20.171875 15.238281 19.457031 15.355469 C 19.050781 14.167969 18.488281 13.011719 17.789062 11.902344 C 18.089844 11.214844 18.40625 10.527344 18.734375 9.847656 C 19.488281 9.816406 20.234375 9.691406 20.953125 9.472656 C 21.582031 9.277344 22.191406 9.015625 22.765625 8.6875 C 22.863281 8.628906 22.898438 8.503906 22.84375 8.402344 C 22.785156 8.300781 22.65625 8.269531 22.558594 8.324219 C 22.011719 8.636719 21.429688 8.890625 20.828125 9.074219 C 20.21875 9.261719 19.585938 9.371094 18.949219 9.417969 C 19.171875 8.964844 19.402344 8.515625 19.636719 8.074219 C 20.523438 6.390625 21.511719 4.738281 22.566406 3.144531 C 25.230469 11.074219 24.089844 19.054688 19.710938 23.414062 Z M 19.710938 23.414062 " fill-opacity="1" fill-rule="nonzero"/></g><g clip-path="url(#f9ec89df42)"><g clip-path="url(#f62ffdb008)"><path fill="#ff5757" d="M 9.386719 14.21875 L 10.460938 14.21875 L 10.460938 15.292969 L 9.386719 15.292969 Z M 9.386719 14.21875 " fill-opacity="1" fill-rule="nonzero"/></g></g><g clip-path="url(#b826b19329)"><g clip-path="url(#bed63e939c)"><path fill="#5ce1e6" d="M 12.429688 16.109375 L 13.503906 16.109375 L 13.503906 17.183594 L 12.429688 17.183594 Z M 12.429688 16.109375 " fill-opacity="1" fill-rule="nonzero"/></g></g><g clip-path="url(#035fe37a92)"><g clip-path="url(#7fe4ae9a53)"><path fill="#c1ff72" d="M 15.722656 24.828125 L 16.796875 24.828125 L 16.796875 25.902344 L 15.722656 25.902344 Z M 15.722656 24.828125 " fill-opacity="1" fill-rule="nonzero"/></g></g><g clip-path="url(#e6698ea9a6)"><g clip-path="url(#20d9684480)"><path fill="#ffde59" d="M 5.371094 8.152344 L 6.445312 8.152344 L 6.445312 9.226562 L 5.371094 9.226562 Z M 5.371094 8.152344 " fill-opacity="1" fill-rule="nonzero"/></g></g><g clip-path="url(#8595fdea32)"><g clip-path="url(#f7fa2a0a48)"><path fill="#bcbfff" d="M 5.847656 4.554688 L 6.921875 4.554688 L 6.921875 5.628906 L 5.847656 5.628906 Z M 5.847656 4.554688 " fill-opacity="1" fill-rule="nonzero"/></g></g><g fill="#000000" fill-opacity="1"><g transform="translate(27.684009, 18.22997)"><g><path d="M 0.1875 0.1875 C 0.332031 -0.132812 0.742188 -1.039062 1.421875 -2.53125 C 2.097656 -4.03125 2.820312 -5.644531 3.59375 -7.375 C 3.675781 -7.5625 3.71875 -7.726562 3.71875 -7.875 C 3.71875 -7.976562 3.6875 -8.054688 3.625 -8.109375 C 3.570312 -8.160156 3.46875 -8.1875 3.3125 -8.1875 C 2.988281 -8.1875 2.710938 -8.078125 2.484375 -7.859375 C 2.265625 -7.640625 2.097656 -7.359375 1.984375 -7.015625 C 1.878906 -6.679688 1.828125 -6.34375 1.828125 -6 C 1.828125 -5.894531 1.832031 -5.769531 1.84375 -5.625 C 1.632812 -5.625 1.472656 -5.726562 1.359375 -5.9375 C 1.253906 -6.144531 1.203125 -6.367188 1.203125 -6.609375 C 1.203125 -6.953125 1.320312 -7.273438 1.5625 -7.578125 C 1.800781 -7.890625 2.101562 -8.140625 2.46875 -8.328125 C 2.832031 -8.523438 3.191406 -8.625 3.546875 -8.625 C 3.828125 -8.625 4.050781 -8.546875 4.21875 -8.390625 C 4.394531 -8.242188 4.523438 -7.972656 4.609375 -7.578125 C 4.703125 -7.191406 4.75 -6.644531 4.75 -5.9375 C 4.75 -5.289062 4.703125 -4.320312 4.609375 -3.03125 C 4.566406 -2.414062 4.53125 -1.8125 4.5 -1.21875 C 4.769531 -2.269531 5.273438 -3.460938 6.015625 -4.796875 C 6.753906 -6.140625 7.390625 -7.203125 7.921875 -7.984375 C 8.046875 -8.171875 8.144531 -8.296875 8.21875 -8.359375 C 8.300781 -8.429688 8.398438 -8.46875 8.515625 -8.46875 C 8.628906 -8.46875 8.757812 -8.441406 8.90625 -8.390625 C 8.707031 -7.910156 8.523438 -7.351562 8.359375 -6.71875 C 8.085938 -5.65625 7.835938 -4.4375 7.609375 -3.0625 C 7.390625 -1.695312 7.28125 -0.65625 7.28125 0.0625 C 7.28125 0.25 7.285156 0.390625 7.296875 0.484375 C 7.316406 0.585938 7.34375 0.691406 7.375 0.796875 L 7.453125 1.046875 C 7.179688 1.046875 6.972656 1 6.828125 0.90625 C 6.691406 0.820312 6.597656 0.6875 6.546875 0.5 C 6.492188 0.320312 6.46875 0.0546875 6.46875 -0.296875 C 6.46875 -1.148438 6.566406 -2.0625 6.765625 -3.03125 C 6.972656 -4 7.273438 -5.242188 7.671875 -6.765625 C 7.316406 -6.304688 6.921875 -5.648438 6.484375 -4.796875 C 6.054688 -3.941406 5.65625 -3.070312 5.28125 -2.1875 C 4.914062 -1.300781 4.640625 -0.582031 4.453125 -0.03125 C 4.367188 0 4.3125 0.015625 4.28125 0.015625 C 4.082031 0.015625 3.941406 -0.0976562 3.859375 -0.328125 C 3.785156 -0.566406 3.75 -0.941406 3.75 -1.453125 C 3.75 -1.898438 3.78125 -2.757812 3.84375 -4.03125 C 3.90625 -5.300781 3.9375 -6.140625 3.9375 -6.546875 C 3.9375 -6.765625 3.929688 -6.988281 3.921875 -7.21875 C 3.347656 -5.882812 2.851562 -4.703125 2.4375 -3.671875 C 1.882812 -2.335938 1.472656 -1.367188 1.203125 -0.765625 C 0.929688 -0.171875 0.679688 0.273438 0.453125 0.578125 C 0.234375 0.890625 0.015625 1.046875 -0.203125 1.046875 Z M 0.1875 0.1875 "/></g></g></g><g fill="#000000" fill-opacity="1"><g transform="translate(36.83026, 18.22997)"><g><path d="M 2.296875 -5.171875 C 2.148438 -5.171875 2.03125 -5.203125 1.9375 -5.265625 C 1.851562 -5.335938 1.8125 -5.441406 1.8125 -5.578125 C 1.8125 -5.734375 1.90625 -5.875 2.09375 -6 C 2.289062 -6.132812 2.488281 -6.203125 2.6875 -6.203125 C 2.945312 -6.203125 3.078125 -6.078125 3.078125 -5.828125 C 3.078125 -5.671875 2.992188 -5.519531 2.828125 -5.375 C 2.671875 -5.238281 2.492188 -5.171875 2.296875 -5.171875 Z M 0.859375 0.3125 C 0.566406 0.3125 0.335938 0.21875 0.171875 0.03125 C 0.015625 -0.15625 -0.0625 -0.394531 -0.0625 -0.6875 C -0.0625 -1 0.0234375 -1.429688 0.203125 -1.984375 C 0.390625 -2.535156 0.613281 -3.019531 0.875 -3.4375 C 1.144531 -3.851562 1.410156 -4.0625 1.671875 -4.0625 C 1.742188 -4.0625 1.800781 -4.035156 1.84375 -3.984375 C 1.894531 -3.941406 1.921875 -3.878906 1.921875 -3.796875 C 1.921875 -3.679688 1.796875 -3.414062 1.546875 -3 C 1.285156 -2.5625 1.078125 -2.164062 0.921875 -1.8125 C 0.765625 -1.46875 0.6875 -1.140625 0.6875 -0.828125 C 0.6875 -0.546875 0.726562 -0.351562 0.8125 -0.25 C 0.90625 -0.15625 1.054688 -0.109375 1.265625 -0.109375 C 1.890625 -0.109375 2.503906 -0.71875 3.109375 -1.9375 L 3.21875 -1.828125 C 3 -1.148438 2.671875 -0.625 2.234375 -0.25 C 1.796875 0.125 1.335938 0.3125 0.859375 0.3125 Z M 0.859375 0.3125 "/></g></g></g><g fill="#000000" fill-opacity="1"><g transform="translate(39.719177, 18.22997)"><g><path d="M 1.28125 0.671875 C 0.882812 0.671875 0.5625 0.535156 0.3125 0.265625 C 0.0625 0.00390625 -0.0625 -0.367188 -0.0625 -0.859375 C -0.0625 -1.378906 0.0664062 -1.882812 0.328125 -2.375 C 0.597656 -2.875 0.9375 -3.273438 1.34375 -3.578125 C 1.757812 -3.890625 2.164062 -4.046875 2.5625 -4.046875 C 2.863281 -4.046875 3.082031 -3.957031 3.21875 -3.78125 C 3.351562 -3.613281 3.421875 -3.40625 3.421875 -3.15625 C 3.421875 -2.914062 3.363281 -2.707031 3.25 -2.53125 C 3.144531 -2.363281 3 -2.28125 2.8125 -2.28125 C 2.675781 -2.28125 2.5625 -2.34375 2.46875 -2.46875 C 2.59375 -2.519531 2.695312 -2.644531 2.78125 -2.84375 C 2.863281 -3.039062 2.90625 -3.234375 2.90625 -3.421875 C 2.90625 -3.523438 2.882812 -3.597656 2.84375 -3.640625 C 2.8125 -3.691406 2.75 -3.71875 2.65625 -3.71875 C 2.375 -3.71875 2.078125 -3.554688 1.765625 -3.234375 C 1.460938 -2.910156 1.207031 -2.515625 1 -2.046875 C 0.789062 -1.585938 0.6875 -1.164062 0.6875 -0.78125 C 0.6875 -0.488281 0.753906 -0.25 0.890625 -0.0625 C 1.023438 0.125 1.25 0.21875 1.5625 0.21875 C 2.039062 0.21875 2.519531 0.0195312 3 -0.375 C 3.476562 -0.78125 3.84375 -1.304688 4.09375 -1.953125 L 4.25 -1.828125 C 4.070312 -1.347656 3.820312 -0.914062 3.5 -0.53125 C 3.175781 -0.15625 2.820312 0.132812 2.4375 0.34375 C 2.050781 0.5625 1.664062 0.671875 1.28125 0.671875 Z M 1.28125 0.671875 "/></g></g></g><g fill="#000000" fill-opacity="1"><g transform="translate(43.591049, 18.22997)"><g><path d="M 2.078125 0.3125 C 1.804688 0.3125 1.59375 0.238281 1.4375 0.09375 C 1.28125 -0.0507812 1.203125 -0.238281 1.203125 -0.46875 C 1.203125 -0.738281 1.316406 -1.128906 1.546875 -1.640625 C 1.648438 -1.898438 1.726562 -2.109375 1.78125 -2.265625 C 1.832031 -2.421875 1.859375 -2.566406 1.859375 -2.703125 C 1.859375 -2.910156 1.8125 -3.070312 1.71875 -3.1875 C 1.625 -3.300781 1.519531 -3.394531 1.40625 -3.46875 C 1.300781 -3.539062 1.226562 -3.59375 1.1875 -3.625 C 1.007812 -3.175781 0.820312 -2.738281 0.625 -2.3125 C 0.425781 -1.882812 0.257812 -1.550781 0.125 -1.3125 L 0.015625 -1.515625 C 0.398438 -2.265625 0.722656 -3.023438 0.984375 -3.796875 C 0.898438 -3.878906 0.859375 -3.976562 0.859375 -4.09375 C 0.859375 -4.226562 0.890625 -4.359375 0.953125 -4.484375 C 1.015625 -4.617188 1.085938 -4.722656 1.171875 -4.796875 C 1.253906 -4.867188 1.316406 -4.90625 1.359375 -4.90625 C 1.472656 -4.90625 1.53125 -4.804688 1.53125 -4.609375 C 1.53125 -4.578125 1.507812 -4.503906 1.46875 -4.390625 C 1.4375 -4.285156 1.414062 -4.210938 1.40625 -4.171875 C 1.40625 -4.085938 1.4375 -4.007812 1.5 -3.9375 C 1.570312 -3.875 1.679688 -3.789062 1.828125 -3.6875 C 2.078125 -3.507812 2.269531 -3.332031 2.40625 -3.15625 C 2.550781 -2.988281 2.625 -2.769531 2.625 -2.5 C 2.625 -2.320312 2.59375 -2.144531 2.53125 -1.96875 C 2.476562 -1.800781 2.394531 -1.582031 2.28125 -1.3125 C 2.113281 -0.925781 2.03125 -0.648438 2.03125 -0.484375 C 2.03125 -0.242188 2.148438 -0.125 2.390625 -0.125 C 2.628906 -0.125 2.882812 -0.21875 3.15625 -0.40625 C 3.4375 -0.59375 3.691406 -0.828125 3.921875 -1.109375 C 4.148438 -1.398438 4.316406 -1.664062 4.421875 -1.90625 L 4.578125 -1.78125 C 4.328125 -1.226562 3.96875 -0.738281 3.5 -0.3125 C 3.03125 0.101562 2.554688 0.3125 2.078125 0.3125 Z M 2.078125 0.3125 "/></g></g></g><g fill="#000000" fill-opacity="1"><g transform="translate(47.762609, 18.22997)"><g><path d="M 0.828125 0.390625 C 0.492188 0.390625 0.25 0.285156 0.09375 0.078125 C -0.0507812 -0.117188 -0.125 -0.378906 -0.125 -0.703125 C -0.125 -1.035156 -0.0546875 -1.378906 0.078125 -1.734375 C 0.210938 -2.097656 0.390625 -2.398438 0.609375 -2.640625 C 0.828125 -2.878906 1.046875 -3 1.265625 -3 C 1.328125 -3 1.410156 -2.976562 1.515625 -2.9375 C 1.410156 -2.851562 1.289062 -2.675781 1.15625 -2.40625 C 1.019531 -2.132812 0.898438 -1.84375 0.796875 -1.53125 C 0.703125 -1.226562 0.65625 -0.984375 0.65625 -0.796875 C 0.65625 -0.335938 0.800781 -0.109375 1.09375 -0.109375 C 1.257812 -0.109375 1.457031 -0.195312 1.6875 -0.375 C 1.914062 -0.550781 2.144531 -0.78125 2.375 -1.0625 C 2.144531 -1.25 1.96875 -1.488281 1.84375 -1.78125 C 1.726562 -2.082031 1.671875 -2.390625 1.671875 -2.703125 C 1.671875 -3.117188 1.773438 -3.472656 1.984375 -3.765625 C 2.191406 -4.066406 2.476562 -4.21875 2.84375 -4.21875 C 3.144531 -4.21875 3.359375 -4.132812 3.484375 -3.96875 C 3.609375 -3.8125 3.671875 -3.585938 3.671875 -3.296875 C 3.671875 -2.992188 3.59375 -2.648438 3.4375 -2.265625 C 3.289062 -1.890625 3.097656 -1.519531 2.859375 -1.15625 C 3.003906 -1.082031 3.15625 -1.046875 3.3125 -1.046875 C 3.550781 -1.046875 3.789062 -1.113281 4.03125 -1.25 C 4.28125 -1.394531 4.472656 -1.613281 4.609375 -1.90625 L 4.75 -1.78125 C 4.59375 -1.4375 4.375 -1.175781 4.09375 -1 C 3.8125 -0.832031 3.523438 -0.75 3.234375 -0.75 C 3.015625 -0.75 2.820312 -0.789062 2.65625 -0.875 C 2.375 -0.5 2.070312 -0.195312 1.75 0.03125 C 1.425781 0.269531 1.117188 0.390625 0.828125 0.390625 Z M 2.59375 -1.375 C 2.800781 -1.6875 2.96875 -2.003906 3.09375 -2.328125 C 3.21875 -2.648438 3.28125 -2.945312 3.28125 -3.21875 C 3.28125 -3.445312 3.242188 -3.613281 3.171875 -3.71875 C 3.109375 -3.832031 3.023438 -3.890625 2.921875 -3.890625 C 2.804688 -3.890625 2.691406 -3.835938 2.578125 -3.734375 C 2.460938 -3.628906 2.367188 -3.484375 2.296875 -3.296875 C 2.222656 -3.109375 2.1875 -2.898438 2.1875 -2.671875 C 2.1875 -2.421875 2.21875 -2.179688 2.28125 -1.953125 C 2.351562 -1.734375 2.457031 -1.539062 2.59375 -1.375 Z M 2.59375 -1.375 "/></g></g></g><g fill="#000000" fill-opacity="1"><g transform="translate(52.137947, 18.22997)"><g><path d="M 1.265625 0.609375 C 0.742188 0.609375 0.363281 0.453125 0.125 0.140625 C -0.113281 -0.171875 -0.234375 -0.535156 -0.234375 -0.953125 C -0.234375 -1.273438 -0.175781 -1.5 -0.0625 -1.625 C 0.0390625 -1.757812 0.15625 -1.851562 0.28125 -1.90625 C 0.414062 -1.96875 0.5 -2.007812 0.53125 -2.03125 C 1.039062 -2.59375 1.4375 -3.175781 1.71875 -3.78125 L 1.71875 -3.921875 C 1.71875 -4.191406 1.757812 -4.394531 1.84375 -4.53125 C 1.9375 -4.664062 2.050781 -4.734375 2.1875 -4.734375 C 2.25 -4.734375 2.296875 -4.71875 2.328125 -4.6875 C 2.359375 -4.664062 2.375 -4.628906 2.375 -4.578125 C 2.375 -4.546875 2.359375 -4.476562 2.328125 -4.375 C 2.304688 -4.28125 2.296875 -4.171875 2.296875 -4.046875 C 2.296875 -3.890625 2.316406 -3.71875 2.359375 -3.53125 C 2.410156 -3.351562 2.484375 -3.125 2.578125 -2.84375 C 2.691406 -2.5 2.773438 -2.195312 2.828125 -1.9375 C 2.890625 -1.6875 2.921875 -1.425781 2.921875 -1.15625 C 2.921875 -0.945312 2.898438 -0.753906 2.859375 -0.578125 C 3.140625 -0.617188 3.40625 -0.742188 3.65625 -0.953125 C 3.90625 -1.171875 4.140625 -1.492188 4.359375 -1.921875 L 4.46875 -1.8125 C 4.320312 -1.394531 4.101562 -1.066406 3.8125 -0.828125 C 3.519531 -0.585938 3.179688 -0.441406 2.796875 -0.390625 C 2.671875 -0.0546875 2.472656 0.191406 2.203125 0.359375 C 1.929688 0.523438 1.617188 0.609375 1.265625 0.609375 Z M 2.09375 -0.59375 C 2.125 -0.800781 2.140625 -0.988281 2.140625 -1.15625 C 2.140625 -1.394531 2.117188 -1.632812 2.078125 -1.875 C 2.046875 -2.113281 1.988281 -2.390625 1.90625 -2.703125 C 1.832031 -3.015625 1.789062 -3.21875 1.78125 -3.3125 C 1.363281 -2.644531 0.972656 -2.128906 0.609375 -1.765625 C 0.734375 -1.484375 0.925781 -1.234375 1.1875 -1.015625 C 1.445312 -0.796875 1.75 -0.65625 2.09375 -0.59375 Z M 1.28125 0.1875 C 1.644531 0.1875 1.894531 -0.00390625 2.03125 -0.390625 C 1.71875 -0.453125 1.425781 -0.578125 1.15625 -0.765625 C 0.894531 -0.953125 0.695312 -1.160156 0.5625 -1.390625 C 0.382812 -1.378906 0.296875 -1.238281 0.296875 -0.96875 C 0.296875 -0.664062 0.382812 -0.394531 0.5625 -0.15625 C 0.75 0.0703125 0.988281 0.1875 1.28125 0.1875 Z M 1.28125 0.1875 "/></g></g></g><g fill="#000000" fill-opacity="1"><g transform="translate(56.273536, 18.22997)"><g><path d="M 0.5625 0.453125 C 0.414062 0.453125 0.296875 0.328125 0.203125 0.078125 C 0.117188 -0.160156 0.078125 -0.453125 0.078125 -0.796875 C 0.078125 -1.523438 0.300781 -2.507812 0.75 -3.75 C 1.195312 -5 1.707031 -6.113281 2.28125 -7.09375 C 2.863281 -8.070312 3.320312 -8.5625 3.65625 -8.5625 C 3.78125 -8.5625 3.875 -8.484375 3.9375 -8.328125 C 4.007812 -8.171875 4.046875 -7.992188 4.046875 -7.796875 C 4.046875 -7.421875 3.910156 -6.921875 3.640625 -6.296875 C 3.378906 -5.679688 3.035156 -5.082031 2.609375 -4.5 C 2.179688 -3.925781 1.742188 -3.503906 1.296875 -3.234375 C 1.148438 -2.898438 1.035156 -2.507812 0.953125 -2.0625 C 0.878906 -1.625 0.84375 -1.226562 0.84375 -0.875 C 0.84375 -0.75 0.851562 -0.613281 0.875 -0.46875 C 1.195312 -1.394531 1.554688 -2.144531 1.953125 -2.71875 C 2.359375 -3.289062 2.8125 -3.578125 3.3125 -3.578125 C 3.613281 -3.578125 3.835938 -3.46875 3.984375 -3.25 C 4.140625 -3.039062 4.21875 -2.789062 4.21875 -2.5 C 4.21875 -2.320312 4.195312 -2.148438 4.15625 -1.984375 C 4.113281 -1.828125 4.039062 -1.617188 3.9375 -1.359375 C 3.863281 -1.148438 3.804688 -0.976562 3.765625 -0.84375 C 3.722656 -0.71875 3.703125 -0.597656 3.703125 -0.484375 C 3.703125 -0.328125 3.734375 -0.210938 3.796875 -0.140625 C 3.859375 -0.0664062 3.945312 -0.03125 4.0625 -0.03125 C 4.332031 -0.03125 4.648438 -0.21875 5.015625 -0.59375 C 5.390625 -0.96875 5.695312 -1.414062 5.9375 -1.9375 L 6.09375 -1.796875 C 5.820312 -1.191406 5.476562 -0.691406 5.0625 -0.296875 C 4.65625 0.0859375 4.226562 0.28125 3.78125 0.28125 C 3.519531 0.28125 3.316406 0.210938 3.171875 0.078125 C 3.023438 -0.0546875 2.953125 -0.238281 2.953125 -0.46875 C 2.953125 -0.644531 3.015625 -0.925781 3.140625 -1.3125 C 3.265625 -1.75 3.328125 -2.070312 3.328125 -2.28125 C 3.328125 -2.476562 3.285156 -2.625 3.203125 -2.71875 C 3.117188 -2.8125 3.007812 -2.859375 2.875 -2.859375 C 2.582031 -2.859375 2.328125 -2.679688 2.109375 -2.328125 C 1.890625 -1.984375 1.648438 -1.492188 1.390625 -0.859375 C 1.203125 -0.398438 1.050781 -0.0664062 0.9375 0.140625 C 0.820312 0.347656 0.695312 0.453125 0.5625 0.453125 Z M 1.453125 -3.703125 C 1.796875 -3.972656 2.132812 -4.363281 2.46875 -4.875 C 2.8125 -5.394531 3.09375 -5.90625 3.3125 -6.40625 C 3.53125 -6.914062 3.640625 -7.273438 3.640625 -7.484375 C 3.640625 -7.554688 3.625 -7.59375 3.59375 -7.59375 C 3.507812 -7.59375 3.328125 -7.394531 3.046875 -7 C 2.773438 -6.601562 2.484375 -6.101562 2.171875 -5.5 C 1.867188 -4.90625 1.628906 -4.304688 1.453125 -3.703125 Z M 1.453125 -3.703125 "/></g></g></g><g fill="#000000" fill-opacity="1"><g transform="translate(61.97946, 18.22997)"><g><path d="M 0.828125 0.390625 C 0.492188 0.390625 0.25 0.285156 0.09375 0.078125 C -0.0507812 -0.117188 -0.125 -0.378906 -0.125 -0.703125 C -0.125 -1.035156 -0.0546875 -1.378906 0.078125 -1.734375 C 0.210938 -2.097656 0.390625 -2.398438 0.609375 -2.640625 C 0.828125 -2.878906 1.046875 -3 1.265625 -3 C 1.328125 -3 1.410156 -2.976562 1.515625 -2.9375 C 1.410156 -2.851562 1.289062 -2.675781 1.15625 -2.40625 C 1.019531 -2.132812 0.898438 -1.84375 0.796875 -1.53125 C 0.703125 -1.226562 0.65625 -0.984375 0.65625 -0.796875 C 0.65625 -0.335938 0.800781 -0.109375 1.09375 -0.109375 C 1.257812 -0.109375 1.457031 -0.195312 1.6875 -0.375 C 1.914062 -0.550781 2.144531 -0.78125 2.375 -1.0625 C 2.144531 -1.25 1.96875 -1.488281 1.84375 -1.78125 C 1.726562 -2.082031 1.671875 -2.390625 1.671875 -2.703125 C 1.671875 -3.117188 1.773438 -3.472656 1.984375 -3.765625 C 2.191406 -4.066406 2.476562 -4.21875 2.84375 -4.21875 C 3.144531 -4.21875 3.359375 -4.132812 3.484375 -3.96875 C 3.609375 -3.8125 3.671875 -3.585938 3.671875 -3.296875 C 3.671875 -2.992188 3.59375 -2.648438 3.4375 -2.265625 C 3.289062 -1.890625 3.097656 -1.519531 2.859375 -1.15625 C 3.003906 -1.082031 3.15625 -1.046875 3.3125 -1.046875 C 3.550781 -1.046875 3.789062 -1.113281 4.03125 -1.25 C 4.28125 -1.394531 4.472656 -1.613281 4.609375 -1.90625 L 4.75 -1.78125 C 4.59375 -1.4375 4.375 -1.175781 4.09375 -1 C 3.8125 -0.832031 3.523438 -0.75 3.234375 -0.75 C 3.015625 -0.75 2.820312 -0.789062 2.65625 -0.875 C 2.375 -0.5 2.070312 -0.195312 1.75 0.03125 C 1.425781 0.269531 1.117188 0.390625 0.828125 0.390625 Z M 2.59375 -1.375 C 2.800781 -1.6875 2.96875 -2.003906 3.09375 -2.328125 C 3.21875 -2.648438 3.28125 -2.945312 3.28125 -3.21875 C 3.28125 -3.445312 3.242188 -3.613281 3.171875 -3.71875 C 3.109375 -3.832031 3.023438 -3.890625 2.921875 -3.890625 C 2.804688 -3.890625 2.691406 -3.835938 2.578125 -3.734375 C 2.460938 -3.628906 2.367188 -3.484375 2.296875 -3.296875 C 2.222656 -3.109375 2.1875 -2.898438 2.1875 -2.671875 C 2.1875 -2.421875 2.21875 -2.179688 2.28125 -1.953125 C 2.351562 -1.734375 2.457031 -1.539062 2.59375 -1.375 Z M 2.59375 -1.375 "/></g></g></g><g fill="#000000" fill-opacity="1"><g transform="translate(66.354799, 18.22997)"><g><path d="M 2.078125 0.3125 C 1.804688 0.3125 1.59375 0.238281 1.4375 0.09375 C 1.28125 -0.0507812 1.203125 -0.238281 1.203125 -0.46875 C 1.203125 -0.738281 1.316406 -1.128906 1.546875 -1.640625 C 1.648438 -1.898438 1.726562 -2.109375 1.78125 -2.265625 C 1.832031 -2.421875 1.859375 -2.566406 1.859375 -2.703125 C 1.859375 -2.910156 1.8125 -3.070312 1.71875 -3.1875 C 1.625 -3.300781 1.519531 -3.394531 1.40625 -3.46875 C 1.300781 -3.539062 1.226562 -3.59375 1.1875 -3.625 C 1.007812 -3.175781 0.820312 -2.738281 0.625 -2.3125 C 0.425781 -1.882812 0.257812 -1.550781 0.125 -1.3125 L 0.015625 -1.515625 C 0.398438 -2.265625 0.722656 -3.023438 0.984375 -3.796875 C 0.898438 -3.878906 0.859375 -3.976562 0.859375 -4.09375 C 0.859375 -4.226562 0.890625 -4.359375 0.953125 -4.484375 C 1.015625 -4.617188 1.085938 -4.722656 1.171875 -4.796875 C 1.253906 -4.867188 1.316406 -4.90625 1.359375 -4.90625 C 1.472656 -4.90625 1.53125 -4.804688 1.53125 -4.609375 C 1.53125 -4.578125 1.507812 -4.503906 1.46875 -4.390625 C 1.4375 -4.285156 1.414062 -4.210938 1.40625 -4.171875 C 1.40625 -4.085938 1.4375 -4.007812 1.5 -3.9375 C 1.570312 -3.875 1.679688 -3.789062 1.828125 -3.6875 C 2.078125 -3.507812 2.269531 -3.332031 2.40625 -3.15625 C 2.550781 -2.988281 2.625 -2.769531 2.625 -2.5 C 2.625 -2.320312 2.59375 -2.144531 2.53125 -1.96875 C 2.476562 -1.800781 2.394531 -1.582031 2.28125 -1.3125 C 2.113281 -0.925781 2.03125 -0.648438 2.03125 -0.484375 C 2.03125 -0.242188 2.148438 -0.125 2.390625 -0.125 C 2.628906 -0.125 2.882812 -0.21875 3.15625 -0.40625 C 3.4375 -0.59375 3.691406 -0.828125 3.921875 -1.109375 C 4.148438 -1.398438 4.316406 -1.664062 4.421875 -1.90625 L 4.578125 -1.78125 C 4.328125 -1.226562 3.96875 -0.738281 3.5 -0.3125 C 3.03125 0.101562 2.554688 0.3125 2.078125 0.3125 Z M 2.078125 0.3125 "/></g></g></g><g fill="#000000" fill-opacity="1"><g transform="translate(70.526358, 18.22997)"><g><path d="M 1.015625 0.546875 C 0.304688 0.546875 -0.046875 0.148438 -0.046875 -0.640625 C -0.046875 -0.984375 0.015625 -1.40625 0.140625 -1.90625 C 0.265625 -2.414062 0.429688 -2.953125 0.640625 -3.515625 C 0.453125 -3.554688 0.3125 -3.59375 0.21875 -3.625 L 0.21875 -3.828125 C 0.5 -3.796875 0.675781 -3.78125 0.75 -3.78125 C 1.09375 -4.695312 1.46875 -5.488281 1.875 -6.15625 C 2.28125 -6.820312 2.597656 -7.15625 2.828125 -7.15625 C 2.890625 -7.15625 2.945312 -7.128906 3 -7.078125 C 3.050781 -7.035156 3.078125 -6.972656 3.078125 -6.890625 C 3.078125 -6.785156 3.023438 -6.632812 2.921875 -6.4375 C 2.828125 -6.238281 2.660156 -5.929688 2.421875 -5.515625 C 2.378906 -5.429688 2.253906 -5.207031 2.046875 -4.84375 C 1.835938 -4.476562 1.648438 -4.113281 1.484375 -3.75 L 1.921875 -3.75 C 2.585938 -3.75 3.160156 -3.773438 3.640625 -3.828125 L 3.640625 -3.609375 C 2.773438 -3.515625 2.070312 -3.46875 1.53125 -3.46875 L 1.359375 -3.46875 C 0.910156 -2.457031 0.6875 -1.582031 0.6875 -0.84375 C 0.6875 -0.5 0.738281 -0.253906 0.84375 -0.109375 C 0.945312 0.0351562 1.117188 0.109375 1.359375 0.109375 C 1.773438 0.109375 2.179688 -0.0703125 2.578125 -0.4375 C 2.972656 -0.800781 3.328125 -1.300781 3.640625 -1.9375 L 3.796875 -1.828125 C 3.503906 -1.128906 3.101562 -0.554688 2.59375 -0.109375 C 2.09375 0.328125 1.566406 0.546875 1.015625 0.546875 Z M 1.015625 0.546875 "/></g></g></g><g fill="#000000" fill-opacity="1"><g transform="translate(73.942719, 18.22997)"><g><path d="M 1.265625 0.609375 C 0.742188 0.609375 0.363281 0.453125 0.125 0.140625 C -0.113281 -0.171875 -0.234375 -0.535156 -0.234375 -0.953125 C -0.234375 -1.273438 -0.175781 -1.5 -0.0625 -1.625 C 0.0390625 -1.757812 0.15625 -1.851562 0.28125 -1.90625 C 0.414062 -1.96875 0.5 -2.007812 0.53125 -2.03125 C 1.039062 -2.59375 1.4375 -3.175781 1.71875 -3.78125 L 1.71875 -3.921875 C 1.71875 -4.191406 1.757812 -4.394531 1.84375 -4.53125 C 1.9375 -4.664062 2.050781 -4.734375 2.1875 -4.734375 C 2.25 -4.734375 2.296875 -4.71875 2.328125 -4.6875 C 2.359375 -4.664062 2.375 -4.628906 2.375 -4.578125 C 2.375 -4.546875 2.359375 -4.476562 2.328125 -4.375 C 2.304688 -4.28125 2.296875 -4.171875 2.296875 -4.046875 C 2.296875 -3.890625 2.316406 -3.71875 2.359375 -3.53125 C 2.410156 -3.351562 2.484375 -3.125 2.578125 -2.84375 C 2.691406 -2.5 2.773438 -2.195312 2.828125 -1.9375 C 2.890625 -1.6875 2.921875 -1.425781 2.921875 -1.15625 C 2.921875 -0.945312 2.898438 -0.753906 2.859375 -0.578125 C 3.140625 -0.617188 3.40625 -0.742188 3.65625 -0.953125 C 3.90625 -1.171875 4.140625 -1.492188 4.359375 -1.921875 L 4.46875 -1.8125 C 4.320312 -1.394531 4.101562 -1.066406 3.8125 -0.828125 C 3.519531 -0.585938 3.179688 -0.441406 2.796875 -0.390625 C 2.671875 -0.0546875 2.472656 0.191406 2.203125 0.359375 C 1.929688 0.523438 1.617188 0.609375 1.265625 0.609375 Z M 2.09375 -0.59375 C 2.125 -0.800781 2.140625 -0.988281 2.140625 -1.15625 C 2.140625 -1.394531 2.117188 -1.632812 2.078125 -1.875 C 2.046875 -2.113281 1.988281 -2.390625 1.90625 -2.703125 C 1.832031 -3.015625 1.789062 -3.21875 1.78125 -3.3125 C 1.363281 -2.644531 0.972656 -2.128906 0.609375 -1.765625 C 0.734375 -1.484375 0.925781 -1.234375 1.1875 -1.015625 C 1.445312 -0.796875 1.75 -0.65625 2.09375 -0.59375 Z M 1.28125 0.1875 C 1.644531 0.1875 1.894531 -0.00390625 2.03125 -0.390625 C 1.71875 -0.453125 1.425781 -0.578125 1.15625 -0.765625 C 0.894531 -0.953125 0.695312 -1.160156 0.5625 -1.390625 C 0.382812 -1.378906 0.296875 -1.238281 0.296875 -0.96875 C 0.296875 -0.664062 0.382812 -0.394531 0.5625 -0.15625 C 0.75 0.0703125 0.988281 0.1875 1.28125 0.1875 Z M 1.28125 0.1875 "/></g></g></g><g clip-path="url(#2bcb7a6e3f)"><g fill="#000000" fill-opacity="1"><g transform="translate(78.078307, 18.22997)"><g><path d="M 0.484375 0.125 C 0.367188 0.125 0.273438 0.09375 0.203125 0.03125 C 0.128906 -0.0195312 0.09375 -0.0976562 0.09375 -0.203125 C 0.09375 -0.328125 0.164062 -0.4375 0.3125 -0.53125 C 0.46875 -0.632812 0.628906 -0.6875 0.796875 -0.6875 C 1.003906 -0.6875 1.109375 -0.59375 1.109375 -0.40625 C 1.109375 -0.289062 1.039062 -0.171875 0.90625 -0.046875 C 0.769531 0.0664062 0.628906 0.125 0.484375 0.125 Z M 0.484375 0.125 "/></g></g></g></g><g clip-path="url(#9c7ff6b773)"><path stroke-linecap="butt" transform="matrix(0.725806, 0, 0, 0.725806, 22.802075, 8.709679)" fill="none" stroke-linejoin="miter" d="M 6.854815 13.268227 C 7.064711 12.816143 7.635197 11.556768 8.571655 9.500866 C 9.513496 7.439581 10.509155 5.216838 11.564017 2.821872 C 11.677037 2.568921 11.730857 2.348261 11.730857 2.149129 C 11.730857 2.003817 11.693183 1.896178 11.612454 1.826213 C 11.537107 1.750866 11.386412 1.713192 11.165753 1.713192 C 10.729815 1.713192 10.353079 1.869268 10.046308 2.170657 C 9.734155 2.472046 9.502732 2.859546 9.352037 3.322393 C 9.201343 3.785241 9.120614 4.248088 9.120614 4.721699 C 9.120614 4.867011 9.131378 5.039234 9.152905 5.238366 C 8.867662 5.238366 8.647003 5.093053 8.50169 4.80781 C 8.350996 4.522567 8.28103 4.210414 8.28103 3.882116 C 8.28103 3.419268 8.442489 2.972567 8.770787 2.542011 C 9.104468 2.111456 9.518878 1.767011 10.019398 1.503296 C 10.519919 1.239581 11.015058 1.105032 11.499433 1.105032 C 11.886933 1.105032 12.199086 1.212671 12.435892 1.422567 C 12.667315 1.632463 12.850301 2.003817 12.979468 2.547393 C 13.103253 3.085588 13.167836 3.83906 13.167836 4.802428 C 13.167836 5.695831 13.103253 7.035935 12.968704 8.822741 C 12.904121 9.667706 12.850301 10.501907 12.81801 11.314581 C 13.194746 9.87222 13.889017 8.225345 14.911586 6.379338 C 15.928774 4.522567 16.800649 3.06406 17.527211 1.998435 C 17.704815 1.73472 17.844746 1.557116 17.952385 1.460241 C 18.054642 1.368747 18.18919 1.32031 18.356031 1.32031 C 18.512107 1.32031 18.684329 1.357984 18.883461 1.438713 C 18.608982 2.100692 18.361412 2.87031 18.140753 3.747567 C 17.764017 5.200692 17.424954 6.874477 17.107419 8.763539 C 16.795267 10.652602 16.633808 12.089581 16.633808 13.079859 C 16.633808 13.348956 16.644572 13.548088 16.6661 13.677254 C 16.69301 13.811803 16.730683 13.951734 16.784503 14.102428 L 16.88676 14.436109 C 16.510024 14.436109 16.22478 14.376907 16.03103 14.253123 C 15.842662 14.13472 15.708114 13.946352 15.638149 13.6934 C 15.568183 13.440449 15.53051 13.074477 15.53051 12.590102 C 15.53051 11.406074 15.67044 10.152081 15.939537 8.822741 C 16.219399 7.488018 16.633808 5.77656 17.182767 3.682984 C 16.698392 4.307289 16.154815 5.211456 15.562801 6.38472 C 14.970787 7.557984 14.416447 8.758157 13.89978 9.979859 C 13.388496 11.20156 13.006378 12.191838 12.753426 12.950692 C 12.635024 12.993748 12.554294 13.015275 12.505857 13.015275 C 12.231378 13.015275 12.04301 12.853817 11.935371 12.525518 C 11.833114 12.202602 11.779294 11.691317 11.779294 10.997046 C 11.779294 10.383504 11.82235 9.194095 11.913843 7.434199 C 11.999954 5.690449 12.048392 4.538713 12.048392 3.984372 C 12.048392 3.67222 12.032246 3.365449 12.010718 3.053296 C 11.21419 4.893921 10.536065 6.52465 9.960197 7.945484 C 9.201343 9.775345 8.636239 11.099303 8.259503 11.928123 C 7.882767 12.75156 7.543704 13.375866 7.236933 13.801039 C 6.930162 14.220831 6.623392 14.436109 6.327385 14.436109 Z M 22.381725 5.862671 C 22.182593 5.862671 22.021135 5.819616 21.891968 5.722741 C 21.768183 5.631247 21.7036 5.496699 21.7036 5.319095 C 21.7036 5.098435 21.832767 4.899303 22.096482 4.721699 C 22.365579 4.544095 22.634676 4.457984 22.914537 4.457984 C 23.275128 4.457984 23.458114 4.630206 23.458114 4.969268 C 23.458114 5.179164 23.345093 5.383678 23.119051 5.577428 C 22.89301 5.765796 22.64544 5.862671 22.381725 5.862671 Z M 20.401169 13.429685 C 19.992142 13.429685 19.679989 13.300518 19.459329 13.042185 C 19.238669 12.783852 19.131031 12.450171 19.131031 12.041143 C 19.131031 11.610588 19.254815 11.018574 19.502385 10.25972 C 19.749954 9.495484 20.056725 8.828123 20.422697 8.257636 C 20.794051 7.681768 21.154642 7.396525 21.504468 7.396525 C 21.606725 7.396525 21.687454 7.428817 21.757419 7.498782 C 21.832767 7.563366 21.87044 7.654859 21.87044 7.762497 C 21.87044 7.918574 21.692836 8.284546 21.34301 8.871178 C 20.977037 9.473956 20.686412 10.017532 20.471135 10.501907 C 20.255857 10.975518 20.148218 11.432984 20.148218 11.858157 C 20.148218 12.245657 20.212801 12.509373 20.341968 12.643921 C 20.471135 12.783852 20.675649 12.848435 20.960892 12.848435 C 21.822003 12.848435 22.67235 12.008852 23.506551 10.324303 L 23.657246 10.485761 C 23.345093 11.411456 22.89301 12.132636 22.290232 12.654685 C 21.692836 13.171352 21.063149 13.429685 20.401169 13.429685 Z M 24.959676 13.924824 C 24.405336 13.924824 23.958635 13.741838 23.619572 13.381248 C 23.28051 13.015275 23.108287 12.493227 23.108287 11.80972 C 23.108287 11.093921 23.291274 10.394268 23.657246 9.710761 C 24.017836 9.032636 24.480683 8.478296 25.051169 8.053123 C 25.616274 7.627949 26.175996 7.418053 26.730336 7.418053 C 27.144746 7.418053 27.446135 7.536456 27.623739 7.773261 C 27.806725 8.010067 27.898218 8.300692 27.898218 8.639754 C 27.898218 8.973435 27.822871 9.253296 27.677558 9.490102 C 27.526864 9.726907 27.327732 9.84531 27.074781 9.84531 C 26.886413 9.84531 26.724954 9.764581 26.595788 9.597741 C 26.757246 9.522393 26.902558 9.350171 27.020961 9.081074 C 27.144746 8.806595 27.203947 8.548261 27.203947 8.29531 C 27.203947 8.149998 27.177038 8.042359 27.117836 7.977775 C 27.064017 7.913192 26.972524 7.875518 26.843357 7.875518 C 26.466621 7.875518 26.068357 8.10156 25.643183 8.548261 C 25.223392 8.994963 24.862801 9.538539 24.572176 10.178991 C 24.276169 10.81406 24.130857 11.39531 24.130857 11.928123 C 24.130857 12.321004 24.22235 12.649303 24.410718 12.913018 C 24.599086 13.171352 24.911239 13.300518 25.336413 13.300518 C 26.009156 13.300518 26.671135 13.020657 27.327732 12.471699 C 27.984329 11.922741 28.490232 11.196178 28.840058 10.308157 L 29.055336 10.469616 C 28.802385 11.131595 28.45794 11.723609 28.016621 12.251039 C 27.575301 12.773088 27.085544 13.182116 26.552732 13.478123 C 26.019919 13.774129 25.487107 13.924824 24.959676 13.924824 Z M 31.385718 13.429685 C 31.008982 13.429685 30.712975 13.327428 30.497697 13.128296 C 30.287801 12.934546 30.180163 12.676213 30.180163 12.353296 C 30.180163 11.981942 30.336239 11.443748 30.653774 10.738713 C 30.799086 10.372741 30.906725 10.087498 30.97669 9.87222 C 31.052038 9.656942 31.084329 9.452428 31.084329 9.26406 C 31.084329 8.989581 31.025128 8.774303 30.895961 8.618227 C 30.772176 8.456768 30.632246 8.32222 30.476169 8.214581 C 30.320093 8.112324 30.217836 8.042359 30.164017 8.010067 C 29.916447 8.628991 29.658114 9.231768 29.383635 9.823782 C 29.109156 10.410414 28.877732 10.862498 28.689364 11.180032 L 28.544051 10.900171 C 29.071482 9.877602 29.518183 8.833504 29.878774 7.762497 C 29.771135 7.654859 29.717315 7.52031 29.717315 7.364234 C 29.717315 7.170484 29.754989 6.982116 29.835718 6.804511 C 29.921829 6.626907 30.018704 6.492359 30.137107 6.395484 C 30.250128 6.293227 30.341621 6.244789 30.411586 6.244789 C 30.562281 6.244789 30.637628 6.373956 30.637628 6.637671 C 30.637628 6.680727 30.610718 6.782984 30.556899 6.93906 C 30.503079 7.089754 30.470788 7.197393 30.460024 7.251213 C 30.460024 7.364234 30.503079 7.466491 30.599954 7.557984 C 30.691447 7.649477 30.847524 7.767879 31.052038 7.90781 C 31.396482 8.155379 31.660197 8.397567 31.853947 8.634373 C 32.047697 8.871178 32.144572 9.172567 32.144572 9.549303 C 32.144572 9.791491 32.106899 10.028296 32.02617 10.265102 C 31.950822 10.501907 31.837801 10.81406 31.681725 11.20156 C 31.439538 11.728991 31.315753 12.105727 31.315753 12.33715 C 31.315753 12.670831 31.482593 12.832289 31.810892 12.832289 C 32.144572 12.832289 32.499781 12.703123 32.876517 12.439407 C 33.258635 12.175692 33.608461 11.847393 33.925996 11.454511 C 34.243531 11.067011 34.474954 10.706421 34.620267 10.372741 L 34.835545 10.539581 C 34.496482 11.298435 34.001343 11.971178 33.350128 12.552428 C 32.698913 13.133678 32.042315 13.429685 31.385718 13.429685 Z M 35.416795 13.52656 C 34.964711 13.52656 34.631031 13.392011 34.421135 13.11215 C 34.211239 12.837671 34.108982 12.477081 34.108982 12.024998 C 34.108982 11.572914 34.200475 11.099303 34.388843 10.604164 C 34.571829 10.109025 34.814017 9.694616 35.110024 9.366317 C 35.411413 9.038018 35.70742 8.871178 36.008808 8.871178 C 36.105683 8.871178 36.224086 8.898088 36.353253 8.951907 C 36.224086 9.059546 36.062628 9.301734 35.87426 9.67847 C 35.691274 10.055206 35.524433 10.45347 35.384503 10.878643 C 35.249954 11.298435 35.179989 11.642879 35.179989 11.911977 C 35.179989 12.536282 35.379121 12.848435 35.777385 12.848435 C 36.008808 12.848435 36.283288 12.730032 36.600822 12.487845 C 36.918357 12.245657 37.235892 11.928123 37.542663 11.529859 C 37.235892 11.276907 36.993704 10.943227 36.821482 10.539581 C 36.654642 10.130553 36.568531 9.705379 36.568531 9.26406 C 36.568531 8.693574 36.713843 8.203817 37.004468 7.794789 C 37.295093 7.391143 37.693357 7.186629 38.188496 7.186629 C 38.608288 7.186629 38.898913 7.29965 39.071135 7.52031 C 39.243357 7.746352 39.329468 8.058504 39.329468 8.456768 C 39.329468 8.87656 39.227211 9.344789 39.022697 9.87222 C 38.818183 10.394268 38.554468 10.900171 38.220788 11.400692 C 38.41992 11.508331 38.629815 11.56215 38.850475 11.56215 C 39.16801 11.56215 39.496308 11.465275 39.840753 11.271525 C 40.179815 11.077775 40.438149 10.781768 40.615753 10.372741 L 40.814885 10.539581 C 40.604989 11.023956 40.308982 11.379164 39.921482 11.610588 C 39.533982 11.842011 39.1411 11.960414 38.732072 11.960414 C 38.436065 11.960414 38.17235 11.906595 37.940926 11.793574 C 37.542663 12.315623 37.122871 12.730032 36.67617 13.047567 C 36.229468 13.370484 35.809676 13.52656 35.416795 13.52656 Z M 37.844051 11.099303 C 38.129295 10.668748 38.355336 10.23281 38.53294 9.786109 C 38.710545 9.339407 38.796656 8.930379 38.796656 8.553643 C 38.796656 8.246873 38.7536 8.015449 38.656725 7.859372 C 38.565232 7.708678 38.446829 7.633331 38.301517 7.633331 C 38.150822 7.633331 37.989364 7.703296 37.827906 7.853991 C 37.671829 7.999303 37.542663 8.203817 37.435024 8.467532 C 37.332767 8.725866 37.278947 9.011109 37.278947 9.317879 C 37.278947 9.656942 37.327385 9.985241 37.418878 10.302775 C 37.515753 10.614928 37.655683 10.878643 37.844051 11.099303 Z M 42.036586 13.844095 C 41.320788 13.844095 40.798739 13.628817 40.465058 13.198261 C 40.13676 12.767706 39.96992 12.261803 39.96992 11.675171 C 39.96992 11.233852 40.050649 10.927081 40.206725 10.744095 C 40.35742 10.561109 40.52426 10.431942 40.707246 10.356595 C 40.890232 10.281248 40.992489 10.227428 41.024781 10.195136 C 41.729815 9.420136 42.278774 8.623609 42.666274 7.794789 L 42.666274 7.601039 C 42.666274 7.224303 42.725475 6.944442 42.854642 6.756074 C 42.978427 6.567706 43.129121 6.476213 43.306725 6.476213 C 43.392836 6.476213 43.462802 6.492359 43.505857 6.535414 C 43.548913 6.573088 43.57044 6.621525 43.57044 6.686109 C 43.57044 6.734546 43.554295 6.826039 43.522003 6.960588 C 43.489711 7.100518 43.473565 7.251213 43.473565 7.418053 C 43.473565 7.633331 43.500475 7.870136 43.559677 8.117706 C 43.62426 8.365275 43.721135 8.688192 43.855683 9.081074 C 44.006378 9.554685 44.124781 9.969095 44.20551 10.324303 C 44.291621 10.679511 44.329295 11.03472 44.329295 11.400692 C 44.329295 11.685935 44.297003 11.955032 44.23242 12.207984 C 44.630683 12.1434 44.996656 11.965796 45.3411 11.675171 C 45.680163 11.379164 46.003079 10.937845 46.315232 10.340449 L 46.465927 10.507289 C 46.266795 11.077775 45.960024 11.529859 45.550996 11.858157 C 45.14735 12.191838 44.679121 12.396352 44.15169 12.471699 C 43.98485 12.923782 43.715753 13.262845 43.339017 13.494268 C 42.962281 13.725692 42.531725 13.844095 42.036586 13.844095 Z M 43.193704 12.191838 C 43.23676 11.906595 43.258288 11.648261 43.258288 11.416838 C 43.258288 11.083157 43.231378 10.754859 43.172177 10.421178 C 43.118357 10.092879 43.037628 9.710761 42.924607 9.280206 C 42.827732 8.844268 42.768531 8.559025 42.747003 8.424477 C 42.181899 9.344789 41.649086 10.06597 41.143183 10.571873 C 41.320788 10.953991 41.584503 11.298435 41.945093 11.594442 C 42.305683 11.890449 42.720093 12.089581 43.193704 12.191838 Z M 42.068878 13.268227 C 42.574781 13.268227 42.924607 12.993748 43.107593 12.455553 C 42.666274 12.369442 42.26801 12.191838 41.902038 11.933504 C 41.541447 11.675171 41.266968 11.39531 41.0786 11.083157 C 40.836413 11.093921 40.712628 11.287671 40.712628 11.659025 C 40.712628 12.078817 40.836413 12.450171 41.083982 12.77847 C 41.331552 13.101386 41.65985 13.268227 42.068878 13.268227 Z M 46.778079 13.628817 C 46.578947 13.628817 46.417489 13.456595 46.288322 13.117532 C 46.164538 12.773088 46.099954 12.374824 46.099954 11.911977 C 46.099954 10.894789 46.412107 9.533157 47.031031 7.810935 C 47.655336 6.094095 48.360371 4.565622 49.151517 3.220136 C 49.948045 1.87465 50.57235 1.201907 51.035197 1.201907 C 51.212802 1.201907 51.34735 1.309546 51.438843 1.524824 C 51.535718 1.740102 51.578774 1.982289 51.578774 2.246004 C 51.578774 2.762671 51.395788 3.45156 51.029815 4.312671 C 50.658461 5.1684 50.179468 5.99722 49.592836 6.788366 C 49.006204 7.579511 48.398045 8.166143 47.784503 8.537498 C 47.585371 9.000345 47.434677 9.538539 47.33242 10.152081 C 47.224781 10.760241 47.170961 11.309199 47.170961 11.793574 C 47.170961 11.971178 47.181725 12.159546 47.203253 12.353296 C 47.644572 11.077775 48.145093 10.044442 48.699434 9.258678 C 49.259156 8.467532 49.878079 8.07465 50.556204 8.07465 C 50.975996 8.07465 51.293531 8.219963 51.498045 8.51597 C 51.707941 8.806595 51.815579 9.156421 51.815579 9.565449 C 51.815579 9.807636 51.783288 10.03906 51.724086 10.25972 C 51.664885 10.480379 51.56801 10.765623 51.433461 11.115449 C 51.325822 11.416838 51.245093 11.653643 51.185892 11.831248 C 51.132072 12.00347 51.105163 12.175692 51.105163 12.33715 C 51.105163 12.547046 51.148218 12.703123 51.234329 12.810761 C 51.325822 12.913018 51.444225 12.966838 51.600302 12.966838 C 51.977038 12.966838 52.412975 12.708504 52.918878 12.186456 C 53.430163 11.659025 53.849954 11.040102 54.178253 10.324303 L 54.393531 10.523435 C 54.027559 11.357636 53.564711 12.046525 52.999607 12.590102 C 52.429121 13.128296 51.837107 13.397393 51.218184 13.397393 C 50.857593 13.397393 50.57235 13.300518 50.373218 13.106768 C 50.179468 12.913018 50.082593 12.665449 50.082593 12.353296 C 50.082593 12.111109 50.163322 11.723609 50.324781 11.180032 C 50.502385 10.588018 50.593878 10.146699 50.593878 9.861456 C 50.593878 9.586977 50.534677 9.382463 50.421656 9.258678 C 50.303253 9.129511 50.152559 9.07031 49.96419 9.07031 C 49.555163 9.07031 49.199954 9.307116 48.893184 9.791491 C 48.591795 10.270484 48.268878 10.943227 47.91367 11.80972 C 47.649954 12.450171 47.440059 12.913018 47.283982 13.198261 C 47.133288 13.483504 46.961065 13.628817 46.778079 13.628817 Z M 47.999781 7.891664 C 48.473392 7.52031 48.941621 6.976734 49.40985 6.266317 C 49.878079 5.561282 50.265579 4.856247 50.566968 4.156595 C 50.868357 3.456942 51.019052 2.961803 51.019052 2.67656 C 51.019052 2.585067 50.997524 2.542011 50.954468 2.542011 C 50.836065 2.542011 50.583114 2.816491 50.200996 3.360067 C 49.82426 3.909025 49.425996 4.592532 49.006204 5.41597 C 48.586413 6.244789 48.252732 7.068227 47.999781 7.891664 Z M 55.001691 13.52656 C 54.549607 13.52656 54.221309 13.392011 54.011413 13.11215 C 53.801517 12.837671 53.693878 12.477081 53.693878 12.024998 C 53.693878 11.572914 53.790753 11.099303 53.973739 10.604164 C 54.162107 10.109025 54.404295 9.694616 54.700302 9.366317 C 54.996309 9.038018 55.297697 8.871178 55.593704 8.871178 C 55.695961 8.871178 55.808982 8.898088 55.943531 8.951907 C 55.808982 9.059546 55.652906 9.301734 55.464538 9.67847 C 55.27617 10.055206 55.114711 10.45347 54.974781 10.878643 C 54.83485 11.298435 54.770267 11.642879 54.770267 11.911977 C 54.770267 12.536282 54.969399 12.848435 55.367663 12.848435 C 55.599086 12.848435 55.868184 12.730032 56.185718 12.487845 C 56.508635 12.245657 56.820788 11.928123 57.132941 11.529859 C 56.820788 11.276907 56.583982 10.943227 56.41176 10.539581 C 56.239538 10.130553 56.153427 9.705379 56.153427 9.26406 C 56.153427 8.693574 56.298739 8.203817 56.589364 7.794789 C 56.885371 7.391143 57.278253 7.186629 57.778774 7.186629 C 58.193184 7.186629 58.489191 7.29965 58.656031 7.52031 C 58.828253 7.746352 58.914364 8.058504 58.914364 8.456768 C 58.914364 8.87656 58.812107 9.344789 58.607593 9.87222 C 58.408461 10.394268 58.139364 10.900171 57.811066 11.400692 C 58.010197 11.508331 58.220093 11.56215 58.440753 11.56215 C 58.758288 11.56215 59.086586 11.465275 59.425649 11.271525 C 59.770093 11.077775 60.028427 10.781768 60.206031 10.372741 L 60.405163 10.539581 C 60.195267 11.023956 59.893878 11.379164 59.506378 11.610588 C 59.12426 11.842011 58.725996 11.960414 58.32235 11.960414 C 58.020961 11.960414 57.757246 11.906595 57.525822 11.793574 C 57.132941 12.315623 56.713149 12.730032 56.266447 13.047567 C 55.819746 13.370484 55.399954 13.52656 55.001691 13.52656 Z M 57.428947 11.099303 C 57.714191 10.668748 57.945614 10.23281 58.117836 9.786109 C 58.295441 9.339407 58.386934 8.930379 58.386934 8.553643 C 58.386934 8.246873 58.338496 8.015449 58.247003 7.859372 C 58.15551 7.708678 58.037107 7.633331 57.891795 7.633331 C 57.735718 7.633331 57.579642 7.703296 57.418184 7.853991 C 57.262107 7.999303 57.127559 8.203817 57.025302 8.467532 C 56.917663 8.725866 56.863843 9.011109 56.863843 9.317879 C 56.863843 9.656942 56.912281 9.985241 57.009156 10.302775 C 57.100649 10.614928 57.240579 10.878643 57.428947 11.099303 Z M 62.746309 13.429685 C 62.369573 13.429685 62.078948 13.327428 61.86367 13.128296 C 61.648392 12.934546 61.540753 12.676213 61.540753 12.353296 C 61.540753 11.981942 61.702211 11.443748 62.019746 10.738713 C 62.165059 10.372741 62.272698 10.087498 62.342663 9.87222 C 62.412628 9.656942 62.450302 9.452428 62.450302 9.26406 C 62.450302 8.989581 62.385718 8.774303 62.261934 8.618227 C 62.132767 8.456768 61.992836 8.32222 61.83676 8.214581 C 61.686066 8.112324 61.578427 8.042359 61.524607 8.010067 C 61.28242 8.628991 61.024086 9.231768 60.749607 9.823782 C 60.475128 10.410414 60.243704 10.862498 60.055336 11.180032 L 59.904642 10.900171 C 60.437454 9.877602 60.878774 8.833504 61.244746 7.762497 C 61.131725 7.654859 61.077906 7.52031 61.077906 7.364234 C 61.077906 7.170484 61.120961 6.982116 61.201691 6.804511 C 61.28242 6.626907 61.384677 6.492359 61.497698 6.395484 C 61.6161 6.293227 61.707593 6.244789 61.772177 6.244789 C 61.928253 6.244789 62.0036 6.373956 62.0036 6.637671 C 62.0036 6.680727 61.976691 6.782984 61.917489 6.93906 C 61.86367 7.089754 61.831378 7.197393 61.820614 7.251213 C 61.820614 7.364234 61.869052 7.466491 61.960545 7.557984 C 62.05742 7.649477 62.208114 7.767879 62.41801 7.90781 C 62.757073 8.155379 63.02617 8.397567 63.214538 8.634373 C 63.408288 8.871178 63.505163 9.172567 63.505163 9.549303 C 63.505163 9.791491 63.467489 10.028296 63.392142 10.265102 C 63.316795 10.501907 63.198392 10.81406 63.042316 11.20156 C 62.800128 11.728991 62.681725 12.105727 62.681725 12.33715 C 62.681725 12.670831 62.843184 12.832289 63.176864 12.832289 C 63.505163 12.832289 63.860371 12.703123 64.242489 12.439407 C 64.624607 12.175692 64.974434 11.847393 65.291968 11.454511 C 65.609503 11.067011 65.840927 10.706421 65.980857 10.372741 L 66.201517 10.539581 C 65.857073 11.298435 65.361934 11.971178 64.710718 12.552428 C 64.059503 13.133678 63.408288 13.429685 62.746309 13.429685 Z M 67.0411 13.757984 C 66.061586 13.757984 65.57183 13.214407 65.57183 12.127254 C 65.57183 11.653643 65.657941 11.067011 65.824781 10.367359 C 65.997003 9.667706 66.233809 8.924998 66.529816 8.144616 C 66.2661 8.096178 66.066968 8.053123 65.93242 8.010067 L 65.93242 7.71406 C 66.330684 7.757116 66.572871 7.778643 66.658982 7.778643 C 67.143357 6.52465 67.665406 5.437497 68.219746 4.517185 C 68.779468 3.596872 69.215406 3.139407 69.538323 3.139407 C 69.624434 3.139407 69.699781 3.171699 69.775128 3.241664 C 69.845093 3.306247 69.882767 3.392359 69.882767 3.499997 C 69.882767 3.64531 69.812802 3.855206 69.672871 4.129685 C 69.538323 4.404164 69.301517 4.829338 68.973218 5.399824 C 68.919399 5.512845 68.747177 5.819616 68.461934 6.320136 C 68.176691 6.820657 67.918357 7.32656 67.686934 7.827081 L 68.295093 7.827081 C 69.210024 7.827081 69.995788 7.794789 70.657767 7.730206 L 70.657767 8.026213 C 69.457593 8.160761 68.488843 8.225345 67.751517 8.225345 L 67.503948 8.225345 C 66.90117 9.613886 66.594399 10.81406 66.594399 11.825866 C 66.594399 12.299477 66.669746 12.638539 66.809677 12.843053 C 66.954989 13.047567 67.191795 13.149824 67.520093 13.149824 C 68.079816 13.149824 68.639538 12.896873 69.188496 12.401734 C 69.737455 11.895831 70.227211 11.20156 70.657767 10.324303 L 70.873045 10.485761 C 70.464017 11.449129 69.915059 12.234893 69.220788 12.843053 C 68.526517 13.451213 67.799955 13.757984 67.0411 13.757984 Z M 72.0786 13.844095 C 71.362802 13.844095 70.840753 13.628817 70.507073 13.198261 C 70.178774 12.767706 70.011934 12.261803 70.011934 11.675171 C 70.011934 11.233852 70.092663 10.927081 70.248739 10.744095 C 70.399434 10.561109 70.566274 10.431942 70.74926 10.356595 C 70.932246 10.281248 71.039885 10.227428 71.072177 10.195136 C 71.77183 9.420136 72.320788 8.623609 72.708288 7.794789 L 72.708288 7.601039 C 72.708288 7.224303 72.772871 6.944442 72.896656 6.756074 C 73.020441 6.567706 73.171135 6.476213 73.348739 6.476213 C 73.43485 6.476213 73.504816 6.492359 73.547871 6.535414 C 73.590927 6.573088 73.612455 6.621525 73.612455 6.686109 C 73.612455 6.734546 73.596309 6.826039 73.564017 6.960588 C 73.531725 7.100518 73.51558 7.251213 73.51558 7.418053 C 73.51558 7.633331 73.542489 7.870136 73.601691 8.117706 C 73.666274 8.365275 73.763149 8.688192 73.897698 9.081074 C 74.048392 9.554685 74.166795 9.969095 74.247524 10.324303 C 74.333635 10.679511 74.371309 11.03472 74.371309 11.400692 C 74.371309 11.685935 74.339017 11.955032 74.274434 12.207984 C 74.672698 12.1434 75.03867 11.965796 75.383114 11.675171 C 75.722177 11.379164 76.050475 10.937845 76.357246 10.340449 L 76.507941 10.507289 C 76.308809 11.077775 76.002038 11.529859 75.59301 11.858157 C 75.189364 12.191838 74.721135 12.396352 74.193705 12.471699 C 74.026864 12.923782 73.757767 13.262845 73.381031 13.494268 C 73.004295 13.725692 72.573739 13.844095 72.0786 13.844095 Z M 73.235718 12.191838 C 73.278774 11.906595 73.300302 11.648261 73.300302 11.416838 C 73.300302 11.083157 73.273392 10.754859 73.214191 10.421178 C 73.160371 10.092879 73.079642 9.710761 72.966621 9.280206 C 72.869746 8.844268 72.810545 8.559025 72.789017 8.424477 C 72.223913 9.344789 71.6911 10.06597 71.185198 10.571873 C 71.362802 10.953991 71.626517 11.298435 71.987107 11.594442 C 72.347698 11.890449 72.762107 12.089581 73.235718 12.191838 Z M 72.110892 13.268227 C 72.616795 13.268227 72.966621 12.993748 73.149607 12.455553 C 72.708288 12.369442 72.310024 12.191838 71.944052 11.933504 C 71.583462 11.675171 71.308982 11.39531 71.120614 11.083157 C 70.878427 11.093921 70.754642 11.287671 70.754642 11.659025 C 70.754642 12.078817 70.878427 12.450171 71.125996 12.77847 C 71.373566 13.101386 71.701864 13.268227 72.110892 13.268227 Z M 76.701691 13.16597 C 76.545614 13.16597 76.42183 13.128296 76.319573 13.047567 C 76.222698 12.97222 76.17426 12.864581 76.17426 12.719268 C 76.17426 12.541664 76.276517 12.385588 76.486413 12.251039 C 76.696309 12.111109 76.911587 12.041143 77.132246 12.041143 C 77.417489 12.041143 77.562802 12.175692 77.562802 12.439407 C 77.562802 12.600866 77.471309 12.767706 77.288323 12.929164 C 77.105337 13.085241 76.911587 13.16597 76.701691 13.16597 Z M 76.701691 13.16597 " stroke="#000000" stroke-width="0.423438" stroke-opacity="1" stroke-miterlimit="4"/></g></svg>