<svg xmlns="http://www.w3.org/2000/svg" xmlns:xlink="http://www.w3.org/1999/xlink" width="1122" zoomAndPan="magnify" viewBox="0 0 841.92 353.999987" height="472" preserveAspectRatio="xMidYMid meet" version="1.0"><defs><g/><clipPath id="e3876fa11c"><path d="M 0 0.015625 L 841.839844 0.015625 L 841.839844 353.878906 L 0 353.878906 Z M 0 0.015625 " clip-rule="nonzero"/></clipPath><clipPath id="b166e16d99"><path d="M 0 3 L 841.839844 3 L 841.839844 351.582031 L 0 351.582031 Z M 0 3 " clip-rule="nonzero"/></clipPath><clipPath id="880a41d6b3"><path d="M 279 2.96875 L 422 2.96875 L 422 91 L 279 91 Z M 279 2.96875 " clip-rule="nonzero"/></clipPath></defs><g clip-path="url(#e3876fa11c)"><path fill="#ffffff" d="M 0 0.015625 L 841.921875 0.015625 L 841.921875 353.878906 L 0 353.878906 Z M 0 0.015625 " fill-opacity="1" fill-rule="nonzero"/><path fill="#ffffff" d="M 0 0.015625 L 841.921875 0.015625 L 841.921875 353.878906 L 0 353.878906 Z M 0 0.015625 " fill-opacity="1" fill-rule="nonzero"/></g><g fill="#000000" fill-opacity="1"><g transform="translate(19.867926, 30.433336)"><g/></g></g><g fill="#000000" fill-opacity="1"><g transform="translate(23.167249, 30.433336)"><g/></g></g><g fill="#000000" fill-opacity="1"><g transform="translate(26.469058, 30.433336)"><g><path d="M 4.4375 0.140625 C 3.738281 0.140625 3.117188 0.0546875 2.578125 -0.109375 C 2.035156 -0.285156 1.582031 -0.507812 1.21875 -0.78125 C 0.863281 -1.0625 0.59375 -1.367188 0.40625 -1.703125 L 1.484375 -3.03125 L 1.65625 -3.03125 C 1.957031 -2.582031 2.335938 -2.222656 2.796875 -1.953125 C 3.265625 -1.691406 3.8125 -1.5625 4.4375 -1.5625 C 4.957031 -1.5625 5.351562 -1.671875 5.625 -1.890625 C 5.894531 -2.117188 6.03125 -2.429688 6.03125 -2.828125 C 6.03125 -3.054688 5.984375 -3.25 5.890625 -3.40625 C 5.804688 -3.570312 5.664062 -3.710938 5.46875 -3.828125 C 5.269531 -3.941406 5 -4.039062 4.65625 -4.125 L 3.375 -4.421875 C 2.476562 -4.617188 1.804688 -4.957031 1.359375 -5.4375 C 0.921875 -5.914062 0.703125 -6.535156 0.703125 -7.296875 C 0.703125 -7.859375 0.84375 -8.351562 1.125 -8.78125 C 1.40625 -9.207031 1.816406 -9.539062 2.359375 -9.78125 C 2.898438 -10.019531 3.546875 -10.140625 4.296875 -10.140625 C 5.066406 -10.140625 5.726562 -10.035156 6.28125 -9.828125 C 6.832031 -9.628906 7.296875 -9.320312 7.671875 -8.90625 L 6.6875 -7.5625 L 6.515625 -7.5625 C 6.234375 -7.851562 5.910156 -8.070312 5.546875 -8.21875 C 5.179688 -8.375 4.765625 -8.453125 4.296875 -8.453125 C 3.753906 -8.453125 3.34375 -8.351562 3.0625 -8.15625 C 2.78125 -7.96875 2.640625 -7.707031 2.640625 -7.375 C 2.640625 -7.050781 2.738281 -6.796875 2.9375 -6.609375 C 3.132812 -6.429688 3.476562 -6.289062 3.96875 -6.1875 L 5.28125 -5.90625 C 6.25 -5.695312 6.953125 -5.347656 7.390625 -4.859375 C 7.828125 -4.367188 8.046875 -3.734375 8.046875 -2.953125 C 8.046875 -2.328125 7.910156 -1.78125 7.640625 -1.3125 C 7.367188 -0.851562 6.960938 -0.492188 6.421875 -0.234375 C 5.878906 0.015625 5.21875 0.140625 4.4375 0.140625 Z M 4.4375 0.140625 "/></g></g></g><g fill="#000000" fill-opacity="1"><g transform="translate(35.048658, 30.433336)"><g><path d="M 2.9375 0.140625 C 2.457031 0.140625 2.039062 0.0507812 1.6875 -0.125 C 1.332031 -0.300781 1.054688 -0.5625 0.859375 -0.90625 C 0.671875 -1.25 0.578125 -1.660156 0.578125 -2.140625 C 0.578125 -2.585938 0.671875 -2.960938 0.859375 -3.265625 C 1.054688 -3.566406 1.351562 -3.816406 1.75 -4.015625 C 2.15625 -4.210938 2.679688 -4.363281 3.328125 -4.46875 C 3.773438 -4.539062 4.113281 -4.617188 4.34375 -4.703125 C 4.582031 -4.785156 4.742188 -4.878906 4.828125 -4.984375 C 4.910156 -5.097656 4.953125 -5.242188 4.953125 -5.421875 C 4.953125 -5.660156 4.863281 -5.84375 4.6875 -5.96875 C 4.519531 -6.09375 4.242188 -6.15625 3.859375 -6.15625 C 3.441406 -6.15625 3.039062 -6.0625 2.65625 -5.875 C 2.28125 -5.6875 1.953125 -5.441406 1.671875 -5.140625 L 1.53125 -5.140625 L 0.75 -6.34375 C 1.125 -6.757812 1.585938 -7.085938 2.140625 -7.328125 C 2.691406 -7.566406 3.296875 -7.6875 3.953125 -7.6875 C 4.953125 -7.6875 5.671875 -7.472656 6.109375 -7.046875 C 6.554688 -6.617188 6.78125 -6.019531 6.78125 -5.25 L 6.78125 -1.96875 C 6.78125 -1.632812 6.929688 -1.46875 7.234375 -1.46875 C 7.347656 -1.46875 7.457031 -1.488281 7.5625 -1.53125 L 7.65625 -1.5 L 7.796875 -0.171875 C 7.691406 -0.109375 7.546875 -0.0507812 7.359375 0 C 7.171875 0.0390625 6.96875 0.0625 6.75 0.0625 C 6.300781 0.0625 5.945312 -0.0234375 5.6875 -0.203125 C 5.4375 -0.378906 5.253906 -0.648438 5.140625 -1.015625 L 5 -1.03125 C 4.632812 -0.25 3.945312 0.140625 2.9375 0.140625 Z M 3.546875 -1.265625 C 3.984375 -1.265625 4.332031 -1.410156 4.59375 -1.703125 C 4.851562 -2.003906 4.984375 -2.414062 4.984375 -2.9375 L 4.984375 -3.703125 L 4.859375 -3.734375 C 4.742188 -3.640625 4.59375 -3.5625 4.40625 -3.5 C 4.21875 -3.4375 3.953125 -3.378906 3.609375 -3.328125 C 3.203125 -3.253906 2.90625 -3.132812 2.71875 -2.96875 C 2.539062 -2.800781 2.453125 -2.566406 2.453125 -2.265625 C 2.453125 -1.941406 2.546875 -1.691406 2.734375 -1.515625 C 2.929688 -1.347656 3.203125 -1.265625 3.546875 -1.265625 Z M 3.546875 -1.265625 "/></g></g></g><g fill="#000000" fill-opacity="1"><g transform="translate(42.992987, 30.433336)"><g><path d="M 1.09375 0 L 1.09375 -7.546875 L 2.90625 -7.546875 L 2.90625 -6.53125 L 3.046875 -6.5 C 3.296875 -6.90625 3.582031 -7.203125 3.90625 -7.390625 C 4.238281 -7.585938 4.664062 -7.6875 5.1875 -7.6875 C 5.75 -7.6875 6.203125 -7.570312 6.546875 -7.34375 C 6.898438 -7.113281 7.15625 -6.785156 7.3125 -6.359375 L 7.453125 -6.359375 C 7.691406 -6.804688 7.992188 -7.140625 8.359375 -7.359375 C 8.722656 -7.578125 9.179688 -7.6875 9.734375 -7.6875 C 11.296875 -7.6875 12.078125 -6.816406 12.078125 -5.078125 L 12.078125 0 L 10.171875 0 L 10.171875 -4.828125 C 10.171875 -5.273438 10.082031 -5.59375 9.90625 -5.78125 C 9.738281 -5.976562 9.460938 -6.078125 9.078125 -6.078125 C 8.046875 -6.078125 7.53125 -5.382812 7.53125 -4 L 7.53125 0 L 5.640625 0 L 5.640625 -4.828125 C 5.640625 -5.273438 5.550781 -5.59375 5.375 -5.78125 C 5.195312 -5.976562 4.914062 -6.078125 4.53125 -6.078125 C 4.039062 -6.078125 3.660156 -5.914062 3.390625 -5.59375 C 3.117188 -5.269531 2.984375 -4.753906 2.984375 -4.046875 L 2.984375 0 Z M 1.09375 0 "/></g></g></g><g fill="#000000" fill-opacity="1"><g transform="translate(56.026327, 30.433336)"><g><path d="M 1.09375 3.0625 L 1.09375 -7.546875 L 2.984375 -7.546875 L 2.984375 -6.5625 L 3.125 -6.53125 C 3.34375 -6.914062 3.640625 -7.203125 4.015625 -7.390625 C 4.390625 -7.585938 4.828125 -7.6875 5.328125 -7.6875 C 5.929688 -7.6875 6.460938 -7.539062 6.921875 -7.25 C 7.378906 -6.96875 7.734375 -6.53125 7.984375 -5.9375 C 8.234375 -5.351562 8.359375 -4.628906 8.359375 -3.765625 C 8.359375 -2.898438 8.222656 -2.175781 7.953125 -1.59375 C 7.691406 -1.007812 7.320312 -0.570312 6.84375 -0.28125 C 6.375 0 5.828125 0.140625 5.203125 0.140625 C 4.734375 0.140625 4.328125 0.0625 3.984375 -0.09375 C 3.648438 -0.25 3.363281 -0.492188 3.125 -0.828125 L 2.984375 -0.796875 L 2.984375 3.0625 Z M 4.6875 -1.46875 C 5.25 -1.46875 5.675781 -1.648438 5.96875 -2.015625 C 6.257812 -2.390625 6.40625 -2.972656 6.40625 -3.765625 C 6.40625 -4.566406 6.257812 -5.148438 5.96875 -5.515625 C 5.675781 -5.890625 5.25 -6.078125 4.6875 -6.078125 C 4.15625 -6.078125 3.734375 -5.882812 3.421875 -5.5 C 3.109375 -5.113281 2.953125 -4.535156 2.953125 -3.765625 C 2.953125 -2.992188 3.109375 -2.414062 3.421875 -2.03125 C 3.734375 -1.65625 4.15625 -1.46875 4.6875 -1.46875 Z M 4.6875 -1.46875 "/></g></g></g><g fill="#000000" fill-opacity="1"><g transform="translate(65.049937, 30.433336)"><g><path d="M 3.125 0.140625 C 2.445312 0.140625 1.929688 -0.0390625 1.578125 -0.40625 C 1.222656 -0.769531 1.046875 -1.328125 1.046875 -2.078125 L 1.046875 -10.5625 L 2.9375 -10.5625 L 2.9375 -2.15625 C 2.9375 -1.695312 3.125 -1.46875 3.5 -1.46875 C 3.613281 -1.46875 3.734375 -1.484375 3.859375 -1.515625 L 3.953125 -1.484375 L 4.125 -0.03125 C 4.019531 0.0195312 3.878906 0.0625 3.703125 0.09375 C 3.535156 0.125 3.34375 0.140625 3.125 0.140625 Z M 3.125 0.140625 "/></g></g></g><g fill="#000000" fill-opacity="1"><g transform="translate(69.380722, 30.433336)"><g><path d="M 7.453125 -3.34375 L 2.609375 -3.34375 C 2.660156 -2.6875 2.84375 -2.207031 3.15625 -1.90625 C 3.476562 -1.613281 3.914062 -1.46875 4.46875 -1.46875 C 4.90625 -1.46875 5.253906 -1.546875 5.515625 -1.703125 C 5.785156 -1.867188 6.003906 -2.113281 6.171875 -2.4375 L 6.3125 -2.4375 L 7.578125 -1.640625 C 7.328125 -1.109375 6.953125 -0.675781 6.453125 -0.34375 C 5.960938 -0.0195312 5.300781 0.140625 4.46875 0.140625 C 3.6875 0.140625 3.007812 -0.00390625 2.4375 -0.296875 C 1.875 -0.597656 1.4375 -1.039062 1.125 -1.625 C 0.820312 -2.207031 0.671875 -2.921875 0.671875 -3.765625 C 0.671875 -4.617188 0.832031 -5.335938 1.15625 -5.921875 C 1.476562 -6.515625 1.914062 -6.957031 2.46875 -7.25 C 3.019531 -7.539062 3.640625 -7.6875 4.328125 -7.6875 C 5.398438 -7.6875 6.21875 -7.398438 6.78125 -6.828125 C 7.351562 -6.265625 7.640625 -5.4375 7.640625 -4.34375 C 7.640625 -3.945312 7.625 -3.640625 7.59375 -3.421875 Z M 5.828125 -4.5625 C 5.804688 -5.132812 5.671875 -5.550781 5.421875 -5.8125 C 5.171875 -6.082031 4.804688 -6.21875 4.328125 -6.21875 C 3.378906 -6.21875 2.816406 -5.664062 2.640625 -4.5625 Z M 5.828125 -4.5625 "/></g></g></g><g fill="#000000" fill-opacity="1"><g transform="translate(77.570963, 30.433336)"><g/></g></g><g fill="#000000" fill-opacity="1"><g transform="translate(80.870286, 30.433336)"><g><path d="M 3.21875 0 L 1.296875 0 L 1.296875 -10 L 3.5625 -10 L 7.578125 -3.5625 L 7.75 -3.578125 L 7.75 -10 L 9.65625 -10 L 9.65625 0 L 7.625 0 L 3.390625 -6.875 L 3.21875 -6.84375 Z M 3.21875 0 "/></g></g></g><g fill="#000000" fill-opacity="1"><g transform="translate(91.820207, 30.433336)"><g><path d="M 2.9375 0.140625 C 2.457031 0.140625 2.039062 0.0507812 1.6875 -0.125 C 1.332031 -0.300781 1.054688 -0.5625 0.859375 -0.90625 C 0.671875 -1.25 0.578125 -1.660156 0.578125 -2.140625 C 0.578125 -2.585938 0.671875 -2.960938 0.859375 -3.265625 C 1.054688 -3.566406 1.351562 -3.816406 1.75 -4.015625 C 2.15625 -4.210938 2.679688 -4.363281 3.328125 -4.46875 C 3.773438 -4.539062 4.113281 -4.617188 4.34375 -4.703125 C 4.582031 -4.785156 4.742188 -4.878906 4.828125 -4.984375 C 4.910156 -5.097656 4.953125 -5.242188 4.953125 -5.421875 C 4.953125 -5.660156 4.863281 -5.84375 4.6875 -5.96875 C 4.519531 -6.09375 4.242188 -6.15625 3.859375 -6.15625 C 3.441406 -6.15625 3.039062 -6.0625 2.65625 -5.875 C 2.28125 -5.6875 1.953125 -5.441406 1.671875 -5.140625 L 1.53125 -5.140625 L 0.75 -6.34375 C 1.125 -6.757812 1.585938 -7.085938 2.140625 -7.328125 C 2.691406 -7.566406 3.296875 -7.6875 3.953125 -7.6875 C 4.953125 -7.6875 5.671875 -7.472656 6.109375 -7.046875 C 6.554688 -6.617188 6.78125 -6.019531 6.78125 -5.25 L 6.78125 -1.96875 C 6.78125 -1.632812 6.929688 -1.46875 7.234375 -1.46875 C 7.347656 -1.46875 7.457031 -1.488281 7.5625 -1.53125 L 7.65625 -1.5 L 7.796875 -0.171875 C 7.691406 -0.109375 7.546875 -0.0507812 7.359375 0 C 7.171875 0.0390625 6.96875 0.0625 6.75 0.0625 C 6.300781 0.0625 5.945312 -0.0234375 5.6875 -0.203125 C 5.4375 -0.378906 5.253906 -0.648438 5.140625 -1.015625 L 5 -1.03125 C 4.632812 -0.25 3.945312 0.140625 2.9375 0.140625 Z M 3.546875 -1.265625 C 3.984375 -1.265625 4.332031 -1.410156 4.59375 -1.703125 C 4.851562 -2.003906 4.984375 -2.414062 4.984375 -2.9375 L 4.984375 -3.703125 L 4.859375 -3.734375 C 4.742188 -3.640625 4.59375 -3.5625 4.40625 -3.5 C 4.21875 -3.4375 3.953125 -3.378906 3.609375 -3.328125 C 3.203125 -3.253906 2.90625 -3.132812 2.71875 -2.96875 C 2.539062 -2.800781 2.453125 -2.566406 2.453125 -2.265625 C 2.453125 -1.941406 2.546875 -1.691406 2.734375 -1.515625 C 2.929688 -1.347656 3.203125 -1.265625 3.546875 -1.265625 Z M 3.546875 -1.265625 "/></g></g></g><g fill="#000000" fill-opacity="1"><g transform="translate(99.764536, 30.433336)"><g><path d="M 1.09375 0 L 1.09375 -7.546875 L 2.90625 -7.546875 L 2.90625 -6.53125 L 3.046875 -6.5 C 3.296875 -6.90625 3.582031 -7.203125 3.90625 -7.390625 C 4.238281 -7.585938 4.664062 -7.6875 5.1875 -7.6875 C 5.75 -7.6875 6.203125 -7.570312 6.546875 -7.34375 C 6.898438 -7.113281 7.15625 -6.785156 7.3125 -6.359375 L 7.453125 -6.359375 C 7.691406 -6.804688 7.992188 -7.140625 8.359375 -7.359375 C 8.722656 -7.578125 9.179688 -7.6875 9.734375 -7.6875 C 11.296875 -7.6875 12.078125 -6.816406 12.078125 -5.078125 L 12.078125 0 L 10.171875 0 L 10.171875 -4.828125 C 10.171875 -5.273438 10.082031 -5.59375 9.90625 -5.78125 C 9.738281 -5.976562 9.460938 -6.078125 9.078125 -6.078125 C 8.046875 -6.078125 7.53125 -5.382812 7.53125 -4 L 7.53125 0 L 5.640625 0 L 5.640625 -4.828125 C 5.640625 -5.273438 5.550781 -5.59375 5.375 -5.78125 C 5.195312 -5.976562 4.914062 -6.078125 4.53125 -6.078125 C 4.039062 -6.078125 3.660156 -5.914062 3.390625 -5.59375 C 3.117188 -5.269531 2.984375 -4.753906 2.984375 -4.046875 L 2.984375 0 Z M 1.09375 0 "/></g></g></g><g fill="#000000" fill-opacity="1"><g transform="translate(112.797877, 30.433336)"><g><path d="M 7.453125 -3.34375 L 2.609375 -3.34375 C 2.660156 -2.6875 2.84375 -2.207031 3.15625 -1.90625 C 3.476562 -1.613281 3.914062 -1.46875 4.46875 -1.46875 C 4.90625 -1.46875 5.253906 -1.546875 5.515625 -1.703125 C 5.785156 -1.867188 6.003906 -2.113281 6.171875 -2.4375 L 6.3125 -2.4375 L 7.578125 -1.640625 C 7.328125 -1.109375 6.953125 -0.675781 6.453125 -0.34375 C 5.960938 -0.0195312 5.300781 0.140625 4.46875 0.140625 C 3.6875 0.140625 3.007812 -0.00390625 2.4375 -0.296875 C 1.875 -0.597656 1.4375 -1.039062 1.125 -1.625 C 0.820312 -2.207031 0.671875 -2.921875 0.671875 -3.765625 C 0.671875 -4.617188 0.832031 -5.335938 1.15625 -5.921875 C 1.476562 -6.515625 1.914062 -6.957031 2.46875 -7.25 C 3.019531 -7.539062 3.640625 -7.6875 4.328125 -7.6875 C 5.398438 -7.6875 6.21875 -7.398438 6.78125 -6.828125 C 7.351562 -6.265625 7.640625 -5.4375 7.640625 -4.34375 C 7.640625 -3.945312 7.625 -3.640625 7.59375 -3.421875 Z M 5.828125 -4.5625 C 5.804688 -5.132812 5.671875 -5.550781 5.421875 -5.8125 C 5.171875 -6.082031 4.804688 -6.21875 4.328125 -6.21875 C 3.378906 -6.21875 2.816406 -5.664062 2.640625 -4.5625 Z M 5.828125 -4.5625 "/></g></g></g><g fill="#000000" fill-opacity="1"><g transform="translate(67.129669, 38.769116)"><g/></g></g><g fill="#000000" fill-opacity="1"><g transform="translate(70.428992, 38.769116)"><g/></g></g><g fill="#000000" fill-opacity="1"><g transform="translate(179.599754, 30.433336)"><g/></g></g><g fill="#000000" fill-opacity="1"><g transform="translate(182.899078, 30.433336)"><g/></g></g><g fill="#000000" fill-opacity="1"><g transform="translate(186.200887, 30.433336)"><g><path d="M 4.890625 -10 C 6.515625 -10 7.753906 -9.578125 8.609375 -8.734375 C 9.460938 -7.898438 9.890625 -6.65625 9.890625 -5 C 9.890625 -3.34375 9.460938 -2.09375 8.609375 -1.25 C 7.753906 -0.414062 6.515625 0 4.890625 0 L 1.296875 0 L 1.296875 -10 Z M 4.78125 -1.65625 C 5.8125 -1.65625 6.582031 -1.914062 7.09375 -2.4375 C 7.601562 -2.96875 7.859375 -3.820312 7.859375 -5 C 7.859375 -6.164062 7.601562 -7.007812 7.09375 -7.53125 C 6.582031 -8.0625 5.8125 -8.328125 4.78125 -8.328125 L 3.28125 -8.328125 L 3.28125 -1.65625 Z M 4.78125 -1.65625 "/></g></g></g><g fill="#000000" fill-opacity="1"><g transform="translate(196.877573, 30.433336)"><g><path d="M 2.03125 -8.4375 C 1.6875 -8.4375 1.40625 -8.539062 1.1875 -8.75 C 0.976562 -8.957031 0.875 -9.226562 0.875 -9.5625 C 0.875 -9.882812 0.976562 -10.148438 1.1875 -10.359375 C 1.40625 -10.566406 1.6875 -10.671875 2.03125 -10.671875 C 2.257812 -10.671875 2.460938 -10.617188 2.640625 -10.515625 C 2.816406 -10.421875 2.953125 -10.289062 3.046875 -10.125 C 3.148438 -9.957031 3.203125 -9.769531 3.203125 -9.5625 C 3.203125 -9.34375 3.148438 -9.148438 3.046875 -8.984375 C 2.953125 -8.816406 2.816406 -8.679688 2.640625 -8.578125 C 2.460938 -8.484375 2.257812 -8.4375 2.03125 -8.4375 Z M 1.09375 0 L 1.09375 -7.546875 L 2.984375 -7.546875 L 2.984375 0 Z M 1.09375 0 "/></g></g></g><g fill="#000000" fill-opacity="1"><g transform="translate(200.935122, 30.433336)"><g><path d="M 3.125 0.140625 C 2.445312 0.140625 1.929688 -0.0390625 1.578125 -0.40625 C 1.222656 -0.769531 1.046875 -1.328125 1.046875 -2.078125 L 1.046875 -10.5625 L 2.9375 -10.5625 L 2.9375 -2.15625 C 2.9375 -1.695312 3.125 -1.46875 3.5 -1.46875 C 3.613281 -1.46875 3.734375 -1.484375 3.859375 -1.515625 L 3.953125 -1.484375 L 4.125 -0.03125 C 4.019531 0.0195312 3.878906 0.0625 3.703125 0.09375 C 3.535156 0.125 3.34375 0.140625 3.125 0.140625 Z M 3.125 0.140625 "/></g></g></g><g fill="#000000" fill-opacity="1"><g transform="translate(205.265907, 30.433336)"><g><path d="M 3.453125 0.140625 C 2.609375 0.140625 1.984375 -0.0859375 1.578125 -0.546875 C 1.171875 -1.015625 0.96875 -1.679688 0.96875 -2.546875 L 0.96875 -7.546875 L 2.859375 -7.546875 L 2.859375 -2.78125 C 2.859375 -2.320312 2.957031 -1.984375 3.15625 -1.765625 C 3.351562 -1.554688 3.660156 -1.453125 4.078125 -1.453125 C 4.609375 -1.453125 5.019531 -1.625 5.3125 -1.96875 C 5.601562 -2.3125 5.75 -2.851562 5.75 -3.59375 L 5.75 -7.546875 L 7.640625 -7.546875 L 7.640625 0 L 5.8125 0 L 5.8125 -1.109375 L 5.671875 -1.140625 C 5.429688 -0.710938 5.132812 -0.390625 4.78125 -0.171875 C 4.4375 0.0351562 3.992188 0.140625 3.453125 0.140625 Z M 3.453125 0.140625 "/></g></g></g><g fill="#000000" fill-opacity="1"><g transform="translate(213.982124, 30.433336)"><g><path d="M 5.203125 -1.796875 L 5.6875 -0.390625 C 5.488281 -0.222656 5.234375 -0.09375 4.921875 0 C 4.609375 0.09375 4.257812 0.140625 3.875 0.140625 C 3.050781 0.140625 2.425781 -0.078125 2 -0.515625 C 1.582031 -0.960938 1.375 -1.613281 1.375 -2.46875 L 1.375 -6.046875 L 0.21875 -6.046875 L 0.21875 -7.546875 L 1.375 -7.546875 L 1.375 -9.015625 L 3.265625 -9.328125 L 3.265625 -7.546875 L 5.40625 -7.546875 L 5.40625 -6.046875 L 3.265625 -6.046875 L 3.265625 -2.59375 C 3.265625 -2.21875 3.34375 -1.945312 3.5 -1.78125 C 3.65625 -1.613281 3.878906 -1.53125 4.171875 -1.53125 C 4.515625 -1.53125 4.8125 -1.617188 5.0625 -1.796875 Z M 5.203125 -1.796875 "/></g></g></g><g fill="#000000" fill-opacity="1"><g transform="translate(219.8362, 30.433336)"><g><path d="M 2.03125 -8.4375 C 1.6875 -8.4375 1.40625 -8.539062 1.1875 -8.75 C 0.976562 -8.957031 0.875 -9.226562 0.875 -9.5625 C 0.875 -9.882812 0.976562 -10.148438 1.1875 -10.359375 C 1.40625 -10.566406 1.6875 -10.671875 2.03125 -10.671875 C 2.257812 -10.671875 2.460938 -10.617188 2.640625 -10.515625 C 2.816406 -10.421875 2.953125 -10.289062 3.046875 -10.125 C 3.148438 -9.957031 3.203125 -9.769531 3.203125 -9.5625 C 3.203125 -9.34375 3.148438 -9.148438 3.046875 -8.984375 C 2.953125 -8.816406 2.816406 -8.679688 2.640625 -8.578125 C 2.460938 -8.484375 2.257812 -8.4375 2.03125 -8.4375 Z M 1.09375 0 L 1.09375 -7.546875 L 2.984375 -7.546875 L 2.984375 0 Z M 1.09375 0 "/></g></g></g><g fill="#000000" fill-opacity="1"><g transform="translate(223.893749, 30.433336)"><g><path d="M 4.375 0.140625 C 3.644531 0.140625 3 -0.0078125 2.4375 -0.3125 C 1.875 -0.613281 1.4375 -1.054688 1.125 -1.640625 C 0.820312 -2.222656 0.671875 -2.929688 0.671875 -3.765625 C 0.671875 -4.597656 0.820312 -5.304688 1.125 -5.890625 C 1.4375 -6.484375 1.875 -6.929688 2.4375 -7.234375 C 3 -7.535156 3.644531 -7.6875 4.375 -7.6875 C 5.113281 -7.6875 5.765625 -7.535156 6.328125 -7.234375 C 6.890625 -6.929688 7.320312 -6.484375 7.625 -5.890625 C 7.9375 -5.304688 8.09375 -4.597656 8.09375 -3.765625 C 8.09375 -2.929688 7.9375 -2.222656 7.625 -1.640625 C 7.320312 -1.054688 6.890625 -0.613281 6.328125 -0.3125 C 5.765625 -0.0078125 5.113281 0.140625 4.375 0.140625 Z M 4.375 -1.46875 C 5.550781 -1.46875 6.140625 -2.234375 6.140625 -3.765625 C 6.140625 -4.566406 5.988281 -5.148438 5.6875 -5.515625 C 5.382812 -5.890625 4.945312 -6.078125 4.375 -6.078125 C 3.207031 -6.078125 2.625 -5.304688 2.625 -3.765625 C 2.625 -2.234375 3.207031 -1.46875 4.375 -1.46875 Z M 4.375 -1.46875 "/></g></g></g><g fill="#000000" fill-opacity="1"><g transform="translate(232.650951, 30.433336)"><g><path d="M 1.09375 0 L 1.09375 -7.546875 L 2.90625 -7.546875 L 2.90625 -6.4375 L 3.046875 -6.40625 C 3.515625 -7.257812 4.273438 -7.6875 5.328125 -7.6875 C 6.203125 -7.6875 6.84375 -7.445312 7.25 -6.96875 C 7.65625 -6.5 7.859375 -5.8125 7.859375 -4.90625 L 7.859375 0 L 5.96875 0 L 5.96875 -4.671875 C 5.96875 -5.171875 5.863281 -5.53125 5.65625 -5.75 C 5.457031 -5.96875 5.140625 -6.078125 4.703125 -6.078125 C 4.160156 -6.078125 3.738281 -5.898438 3.4375 -5.546875 C 3.132812 -5.203125 2.984375 -4.65625 2.984375 -3.90625 L 2.984375 0 Z M 1.09375 0 "/></g></g></g><g fill="#000000" fill-opacity="1"><g transform="translate(207.241627, 38.769116)"><g/></g></g><g fill="#000000" fill-opacity="1"><g transform="translate(210.54095, 38.769116)"><g/></g></g><g fill="#000000" fill-opacity="1"><g transform="translate(331.844301, 44.614325)"><g/></g></g><g fill="#000000" fill-opacity="1"><g transform="translate(335.143624, 44.614325)"><g/></g></g><g fill="#000000" fill-opacity="1"><g transform="translate(338.445434, 44.614325)"><g><path d="M 1.296875 0 L 1.296875 -10 L 5.5625 -10 C 6.175781 -10 6.695312 -9.898438 7.125 -9.703125 C 7.550781 -9.503906 7.875 -9.226562 8.09375 -8.875 C 8.3125 -8.519531 8.421875 -8.097656 8.421875 -7.609375 C 8.421875 -7.171875 8.3125 -6.78125 8.09375 -6.4375 C 7.882812 -6.101562 7.578125 -5.832031 7.171875 -5.625 L 7.171875 -5.484375 C 7.804688 -5.316406 8.289062 -5.015625 8.625 -4.578125 C 8.96875 -4.148438 9.140625 -3.625 9.140625 -3 C 9.140625 -2.039062 8.851562 -1.300781 8.28125 -0.78125 C 7.707031 -0.257812 6.851562 0 5.71875 0 Z M 5.15625 -6.015625 C 6.070312 -6.015625 6.53125 -6.425781 6.53125 -7.25 C 6.53125 -7.675781 6.414062 -7.992188 6.1875 -8.203125 C 5.96875 -8.410156 5.625 -8.515625 5.15625 -8.515625 L 3.28125 -8.515625 L 3.28125 -6.015625 Z M 5.515625 -1.5625 C 6.609375 -1.5625 7.15625 -2.054688 7.15625 -3.046875 C 7.15625 -4.046875 6.609375 -4.546875 5.515625 -4.546875 L 3.28125 -4.546875 L 3.28125 -1.5625 Z M 5.515625 -1.5625 "/></g></g></g><g fill="#000000" fill-opacity="1"><g transform="translate(348.213608, 44.614325)"><g><path d="M 5.453125 0.140625 C 4.535156 0.140625 3.722656 -0.046875 3.015625 -0.421875 C 2.316406 -0.796875 1.769531 -1.363281 1.375 -2.125 C 0.976562 -2.894531 0.78125 -3.851562 0.78125 -5 C 0.78125 -6.144531 0.976562 -7.097656 1.375 -7.859375 C 1.769531 -8.628906 2.316406 -9.203125 3.015625 -9.578125 C 3.722656 -9.953125 4.535156 -10.140625 5.453125 -10.140625 C 6.367188 -10.140625 7.175781 -9.953125 7.875 -9.578125 C 8.570312 -9.210938 9.113281 -8.644531 9.5 -7.875 C 9.894531 -7.101562 10.09375 -6.144531 10.09375 -5 C 10.09375 -3.851562 9.894531 -2.894531 9.5 -2.125 C 9.113281 -1.351562 8.570312 -0.78125 7.875 -0.40625 C 7.175781 -0.0390625 6.367188 0.140625 5.453125 0.140625 Z M 5.453125 -1.578125 C 6.296875 -1.578125 6.941406 -1.847656 7.390625 -2.390625 C 7.835938 -2.929688 8.0625 -3.800781 8.0625 -5 C 8.0625 -6.1875 7.835938 -7.050781 7.390625 -7.59375 C 6.941406 -8.144531 6.296875 -8.421875 5.453125 -8.421875 C 4.597656 -8.421875 3.945312 -8.144531 3.5 -7.59375 C 3.050781 -7.050781 2.828125 -6.1875 2.828125 -5 C 2.828125 -3.800781 3.050781 -2.929688 3.5 -2.390625 C 3.945312 -1.847656 4.597656 -1.578125 5.453125 -1.578125 Z M 5.453125 -1.578125 "/></g></g></g><g fill="#000000" fill-opacity="1"><g transform="translate(359.09522, 44.614325)"><g><path d="M 4.890625 -10 C 6.515625 -10 7.753906 -9.578125 8.609375 -8.734375 C 9.460938 -7.898438 9.890625 -6.65625 9.890625 -5 C 9.890625 -3.34375 9.460938 -2.09375 8.609375 -1.25 C 7.753906 -0.414062 6.515625 0 4.890625 0 L 1.296875 0 L 1.296875 -10 Z M 4.78125 -1.65625 C 5.8125 -1.65625 6.582031 -1.914062 7.09375 -2.4375 C 7.601562 -2.96875 7.859375 -3.820312 7.859375 -5 C 7.859375 -6.164062 7.601562 -7.007812 7.09375 -7.53125 C 6.582031 -8.0625 5.8125 -8.328125 4.78125 -8.328125 L 3.28125 -8.328125 L 3.28125 -1.65625 Z M 4.78125 -1.65625 "/></g></g></g><g fill="#000000" fill-opacity="1"><g transform="translate(318.300376, 59.770288)"><g/></g></g><g fill="#000000" fill-opacity="1"><g transform="translate(321.602185, 59.770288)"><g><path d="M 5.265625 0.140625 C 4.304688 0.140625 3.59375 -0.21875 3.125 -0.9375 L 2.984375 -0.90625 L 2.984375 0 L 1.09375 0 L 1.09375 -10.5625 L 2.984375 -10.5625 L 2.984375 -6.65625 L 3.125 -6.625 C 3.382812 -6.988281 3.691406 -7.253906 4.046875 -7.421875 C 4.398438 -7.597656 4.820312 -7.6875 5.3125 -7.6875 C 5.925781 -7.6875 6.457031 -7.539062 6.90625 -7.25 C 7.363281 -6.96875 7.71875 -6.53125 7.96875 -5.9375 C 8.226562 -5.351562 8.359375 -4.628906 8.359375 -3.765625 C 8.359375 -2.910156 8.222656 -2.1875 7.953125 -1.59375 C 7.691406 -1.007812 7.328125 -0.570312 6.859375 -0.28125 C 6.398438 0 5.867188 0.140625 5.265625 0.140625 Z M 4.703125 -1.46875 C 5.253906 -1.46875 5.675781 -1.648438 5.96875 -2.015625 C 6.257812 -2.390625 6.40625 -2.972656 6.40625 -3.765625 C 6.40625 -4.566406 6.257812 -5.148438 5.96875 -5.515625 C 5.675781 -5.890625 5.253906 -6.078125 4.703125 -6.078125 C 4.160156 -6.078125 3.734375 -5.882812 3.421875 -5.5 C 3.109375 -5.113281 2.953125 -4.535156 2.953125 -3.765625 C 2.953125 -2.992188 3.109375 -2.414062 3.421875 -2.03125 C 3.734375 -1.65625 4.160156 -1.46875 4.703125 -1.46875 Z M 4.703125 -1.46875 "/></g></g></g><g fill="#000000" fill-opacity="1"><g transform="translate(330.625795, 59.770288)"><g><path d="M 4.375 0.140625 C 3.644531 0.140625 3 -0.0078125 2.4375 -0.3125 C 1.875 -0.613281 1.4375 -1.054688 1.125 -1.640625 C 0.820312 -2.222656 0.671875 -2.929688 0.671875 -3.765625 C 0.671875 -4.597656 0.820312 -5.304688 1.125 -5.890625 C 1.4375 -6.484375 1.875 -6.929688 2.4375 -7.234375 C 3 -7.535156 3.644531 -7.6875 4.375 -7.6875 C 5.113281 -7.6875 5.765625 -7.535156 6.328125 -7.234375 C 6.890625 -6.929688 7.320312 -6.484375 7.625 -5.890625 C 7.9375 -5.304688 8.09375 -4.597656 8.09375 -3.765625 C 8.09375 -2.929688 7.9375 -2.222656 7.625 -1.640625 C 7.320312 -1.054688 6.890625 -0.613281 6.328125 -0.3125 C 5.765625 -0.0078125 5.113281 0.140625 4.375 0.140625 Z M 4.375 -1.46875 C 5.550781 -1.46875 6.140625 -2.234375 6.140625 -3.765625 C 6.140625 -4.566406 5.988281 -5.148438 5.6875 -5.515625 C 5.382812 -5.890625 4.945312 -6.078125 4.375 -6.078125 C 3.207031 -6.078125 2.625 -5.304688 2.625 -3.765625 C 2.625 -2.234375 3.207031 -1.46875 4.375 -1.46875 Z M 4.375 -1.46875 "/></g></g></g><g fill="#000000" fill-opacity="1"><g transform="translate(339.382997, 59.770288)"><g><path d="M 5.203125 -1.796875 L 5.6875 -0.390625 C 5.488281 -0.222656 5.234375 -0.09375 4.921875 0 C 4.609375 0.09375 4.257812 0.140625 3.875 0.140625 C 3.050781 0.140625 2.425781 -0.078125 2 -0.515625 C 1.582031 -0.960938 1.375 -1.613281 1.375 -2.46875 L 1.375 -6.046875 L 0.21875 -6.046875 L 0.21875 -7.546875 L 1.375 -7.546875 L 1.375 -9.015625 L 3.265625 -9.328125 L 3.265625 -7.546875 L 5.40625 -7.546875 L 5.40625 -6.046875 L 3.265625 -6.046875 L 3.265625 -2.59375 C 3.265625 -2.21875 3.34375 -1.945312 3.5 -1.78125 C 3.65625 -1.613281 3.878906 -1.53125 4.171875 -1.53125 C 4.515625 -1.53125 4.8125 -1.617188 5.0625 -1.796875 Z M 5.203125 -1.796875 "/></g></g></g><g fill="#000000" fill-opacity="1"><g transform="translate(345.237074, 59.770288)"><g><path d="M 5.203125 -1.796875 L 5.6875 -0.390625 C 5.488281 -0.222656 5.234375 -0.09375 4.921875 0 C 4.609375 0.09375 4.257812 0.140625 3.875 0.140625 C 3.050781 0.140625 2.425781 -0.078125 2 -0.515625 C 1.582031 -0.960938 1.375 -1.613281 1.375 -2.46875 L 1.375 -6.046875 L 0.21875 -6.046875 L 0.21875 -7.546875 L 1.375 -7.546875 L 1.375 -9.015625 L 3.265625 -9.328125 L 3.265625 -7.546875 L 5.40625 -7.546875 L 5.40625 -6.046875 L 3.265625 -6.046875 L 3.265625 -2.59375 C 3.265625 -2.21875 3.34375 -1.945312 3.5 -1.78125 C 3.65625 -1.613281 3.878906 -1.53125 4.171875 -1.53125 C 4.515625 -1.53125 4.8125 -1.617188 5.0625 -1.796875 Z M 5.203125 -1.796875 "/></g></g></g><g fill="#000000" fill-opacity="1"><g transform="translate(351.09115, 59.770288)"><g><path d="M 3.125 0.140625 C 2.445312 0.140625 1.929688 -0.0390625 1.578125 -0.40625 C 1.222656 -0.769531 1.046875 -1.328125 1.046875 -2.078125 L 1.046875 -10.5625 L 2.9375 -10.5625 L 2.9375 -2.15625 C 2.9375 -1.695312 3.125 -1.46875 3.5 -1.46875 C 3.613281 -1.46875 3.734375 -1.484375 3.859375 -1.515625 L 3.953125 -1.484375 L 4.125 -0.03125 C 4.019531 0.0195312 3.878906 0.0625 3.703125 0.09375 C 3.535156 0.125 3.34375 0.140625 3.125 0.140625 Z M 3.125 0.140625 "/></g></g></g><g fill="#000000" fill-opacity="1"><g transform="translate(355.421935, 59.770288)"><g><path d="M 7.453125 -3.34375 L 2.609375 -3.34375 C 2.660156 -2.6875 2.84375 -2.207031 3.15625 -1.90625 C 3.476562 -1.613281 3.914062 -1.46875 4.46875 -1.46875 C 4.90625 -1.46875 5.253906 -1.546875 5.515625 -1.703125 C 5.785156 -1.867188 6.003906 -2.113281 6.171875 -2.4375 L 6.3125 -2.4375 L 7.578125 -1.640625 C 7.328125 -1.109375 6.953125 -0.675781 6.453125 -0.34375 C 5.960938 -0.0195312 5.300781 0.140625 4.46875 0.140625 C 3.6875 0.140625 3.007812 -0.00390625 2.4375 -0.296875 C 1.875 -0.597656 1.4375 -1.039062 1.125 -1.625 C 0.820312 -2.207031 0.671875 -2.921875 0.671875 -3.765625 C 0.671875 -4.617188 0.832031 -5.335938 1.15625 -5.921875 C 1.476562 -6.515625 1.914062 -6.957031 2.46875 -7.25 C 3.019531 -7.539062 3.640625 -7.6875 4.328125 -7.6875 C 5.398438 -7.6875 6.21875 -7.398438 6.78125 -6.828125 C 7.351562 -6.265625 7.640625 -5.4375 7.640625 -4.34375 C 7.640625 -3.945312 7.625 -3.640625 7.59375 -3.421875 Z M 5.828125 -4.5625 C 5.804688 -5.132812 5.671875 -5.550781 5.421875 -5.8125 C 5.171875 -6.082031 4.804688 -6.21875 4.328125 -6.21875 C 3.378906 -6.21875 2.816406 -5.664062 2.640625 -4.5625 Z M 5.828125 -4.5625 "/></g></g></g><g fill="#000000" fill-opacity="1"><g transform="translate(363.612176, 59.770288)"><g/></g></g><g fill="#000000" fill-opacity="1"><g transform="translate(366.9115, 59.770288)"><g><path d="M 3.21875 0 L 1.296875 0 L 1.296875 -10 L 3.5625 -10 L 7.578125 -3.5625 L 7.75 -3.578125 L 7.75 -10 L 9.65625 -10 L 9.65625 0 L 7.625 0 L 3.390625 -6.875 L 3.21875 -6.84375 Z M 3.21875 0 "/></g></g></g><g fill="#000000" fill-opacity="1"><g transform="translate(377.861421, 59.770288)"><g><path d="M 4.375 0.140625 C 3.644531 0.140625 3 -0.0078125 2.4375 -0.3125 C 1.875 -0.613281 1.4375 -1.054688 1.125 -1.640625 C 0.820312 -2.222656 0.671875 -2.929688 0.671875 -3.765625 C 0.671875 -4.597656 0.820312 -5.304688 1.125 -5.890625 C 1.4375 -6.484375 1.875 -6.929688 2.4375 -7.234375 C 3 -7.535156 3.644531 -7.6875 4.375 -7.6875 C 5.113281 -7.6875 5.765625 -7.535156 6.328125 -7.234375 C 6.890625 -6.929688 7.320312 -6.484375 7.625 -5.890625 C 7.9375 -5.304688 8.09375 -4.597656 8.09375 -3.765625 C 8.09375 -2.929688 7.9375 -2.222656 7.625 -1.640625 C 7.320312 -1.054688 6.890625 -0.613281 6.328125 -0.3125 C 5.765625 -0.0078125 5.113281 0.140625 4.375 0.140625 Z M 4.375 -1.46875 C 5.550781 -1.46875 6.140625 -2.234375 6.140625 -3.765625 C 6.140625 -4.566406 5.988281 -5.148438 5.6875 -5.515625 C 5.382812 -5.890625 4.945312 -6.078125 4.375 -6.078125 C 3.207031 -6.078125 2.625 -5.304688 2.625 -3.765625 C 2.625 -2.234375 3.207031 -1.46875 4.375 -1.46875 Z M 4.375 -1.46875 "/></g></g></g><g fill="#000000" fill-opacity="1"><g transform="translate(347.50941, 74.926252)"><g/></g></g><g fill="#000000" fill-opacity="1"><g transform="translate(350.808734, 74.926252)"><g/></g></g><g fill="#000000" fill-opacity="1"><g transform="translate(516.127581, 30.433336)"><g/></g></g><g fill="#000000" fill-opacity="1"><g transform="translate(519.426905, 30.433336)"><g/></g></g><g fill="#000000" fill-opacity="1"><g transform="translate(522.728716, 30.433336)"><g><path d="M 4.890625 -10 C 6.515625 -10 7.753906 -9.578125 8.609375 -8.734375 C 9.460938 -7.898438 9.890625 -6.65625 9.890625 -5 C 9.890625 -3.34375 9.460938 -2.09375 8.609375 -1.25 C 7.753906 -0.414062 6.515625 0 4.890625 0 L 1.296875 0 L 1.296875 -10 Z M 4.78125 -1.65625 C 5.8125 -1.65625 6.582031 -1.914062 7.09375 -2.4375 C 7.601562 -2.96875 7.859375 -3.820312 7.859375 -5 C 7.859375 -6.164062 7.601562 -7.007812 7.09375 -7.53125 C 6.582031 -8.0625 5.8125 -8.328125 4.78125 -8.328125 L 3.28125 -8.328125 L 3.28125 -1.65625 Z M 4.78125 -1.65625 "/></g></g></g><g fill="#000000" fill-opacity="1"><g transform="translate(533.405401, 30.433336)"><g><path d="M 1.921875 0.0625 C 1.679688 0.0625 1.46875 0.015625 1.28125 -0.078125 C 1.101562 -0.179688 0.960938 -0.316406 0.859375 -0.484375 C 0.765625 -0.660156 0.71875 -0.859375 0.71875 -1.078125 C 0.71875 -1.296875 0.765625 -1.488281 0.859375 -1.65625 C 0.960938 -1.832031 1.101562 -1.972656 1.28125 -2.078125 C 1.46875 -2.179688 1.679688 -2.234375 1.921875 -2.234375 C 2.171875 -2.234375 2.382812 -2.179688 2.5625 -2.078125 C 2.75 -1.984375 2.890625 -1.847656 2.984375 -1.671875 C 3.085938 -1.503906 3.140625 -1.3125 3.140625 -1.09375 C 3.140625 -0.757812 3.03125 -0.484375 2.8125 -0.265625 C 2.59375 -0.046875 2.296875 0.0625 1.921875 0.0625 Z M 1.921875 0.0625 "/></g></g></g><g fill="#000000" fill-opacity="1"><g transform="translate(537.264858, 30.433336)"><g><path d="M 5.453125 0.140625 C 4.535156 0.140625 3.722656 -0.046875 3.015625 -0.421875 C 2.316406 -0.796875 1.769531 -1.363281 1.375 -2.125 C 0.976562 -2.894531 0.78125 -3.851562 0.78125 -5 C 0.78125 -6.144531 0.976562 -7.097656 1.375 -7.859375 C 1.769531 -8.628906 2.316406 -9.203125 3.015625 -9.578125 C 3.722656 -9.953125 4.535156 -10.140625 5.453125 -10.140625 C 6.367188 -10.140625 7.175781 -9.953125 7.875 -9.578125 C 8.570312 -9.210938 9.113281 -8.644531 9.5 -7.875 C 9.894531 -7.101562 10.09375 -6.144531 10.09375 -5 C 10.09375 -3.851562 9.894531 -2.894531 9.5 -2.125 C 9.113281 -1.351562 8.570312 -0.78125 7.875 -0.40625 C 7.175781 -0.0390625 6.367188 0.140625 5.453125 0.140625 Z M 5.453125 -1.578125 C 6.296875 -1.578125 6.941406 -1.847656 7.390625 -2.390625 C 7.835938 -2.929688 8.0625 -3.800781 8.0625 -5 C 8.0625 -6.1875 7.835938 -7.050781 7.390625 -7.59375 C 6.941406 -8.144531 6.296875 -8.421875 5.453125 -8.421875 C 4.597656 -8.421875 3.945312 -8.144531 3.5 -7.59375 C 3.050781 -7.050781 2.828125 -6.1875 2.828125 -5 C 2.828125 -3.800781 3.050781 -2.929688 3.5 -2.390625 C 3.945312 -1.847656 4.597656 -1.578125 5.453125 -1.578125 Z M 5.453125 -1.578125 "/></g></g></g><g fill="#000000" fill-opacity="1"><g transform="translate(548.14647, 30.433336)"><g><path d="M 1.921875 0.0625 C 1.679688 0.0625 1.46875 0.015625 1.28125 -0.078125 C 1.101562 -0.179688 0.960938 -0.316406 0.859375 -0.484375 C 0.765625 -0.660156 0.71875 -0.859375 0.71875 -1.078125 C 0.71875 -1.296875 0.765625 -1.488281 0.859375 -1.65625 C 0.960938 -1.832031 1.101562 -1.972656 1.28125 -2.078125 C 1.46875 -2.179688 1.679688 -2.234375 1.921875 -2.234375 C 2.171875 -2.234375 2.382812 -2.179688 2.5625 -2.078125 C 2.75 -1.984375 2.890625 -1.847656 2.984375 -1.671875 C 3.085938 -1.503906 3.140625 -1.3125 3.140625 -1.09375 C 3.140625 -0.757812 3.03125 -0.484375 2.8125 -0.265625 C 2.59375 -0.046875 2.296875 0.0625 1.921875 0.0625 Z M 1.921875 0.0625 "/></g></g></g><g fill="#000000" fill-opacity="1"><g transform="translate(552.005926, 30.433336)"><g/></g></g><g fill="#000000" fill-opacity="1"><g transform="translate(555.30525, 30.433336)"><g><path d="M 3.0625 1.421875 C 2.4375 0.660156 1.929688 -0.1875 1.546875 -1.125 C 1.171875 -2.070312 0.984375 -3.21875 0.984375 -4.5625 C 0.984375 -5.914062 1.171875 -7.0625 1.546875 -8 C 1.929688 -8.945312 2.4375 -9.800781 3.0625 -10.5625 L 4.515625 -10.5625 L 4.546875 -10.421875 C 4.046875 -9.578125 3.660156 -8.703125 3.390625 -7.796875 C 3.128906 -6.890625 3 -5.8125 3 -4.5625 C 3 -3.320312 3.128906 -2.25 3.390625 -1.34375 C 3.660156 -0.4375 4.046875 0.4375 4.546875 1.28125 L 4.515625 1.421875 Z M 3.0625 1.421875 "/></g></g></g><g fill="#000000" fill-opacity="1"><g transform="translate(560.27131, 30.433336)"><g><path d="M 1.09375 0 L 1.09375 -7.546875 L 2.90625 -7.546875 L 2.90625 -6.53125 L 3.046875 -6.5 C 3.296875 -6.90625 3.582031 -7.203125 3.90625 -7.390625 C 4.238281 -7.585938 4.664062 -7.6875 5.1875 -7.6875 C 5.75 -7.6875 6.203125 -7.570312 6.546875 -7.34375 C 6.898438 -7.113281 7.15625 -6.785156 7.3125 -6.359375 L 7.453125 -6.359375 C 7.691406 -6.804688 7.992188 -7.140625 8.359375 -7.359375 C 8.722656 -7.578125 9.179688 -7.6875 9.734375 -7.6875 C 11.296875 -7.6875 12.078125 -6.816406 12.078125 -5.078125 L 12.078125 0 L 10.171875 0 L 10.171875 -4.828125 C 10.171875 -5.273438 10.082031 -5.59375 9.90625 -5.78125 C 9.738281 -5.976562 9.460938 -6.078125 9.078125 -6.078125 C 8.046875 -6.078125 7.53125 -5.382812 7.53125 -4 L 7.53125 0 L 5.640625 0 L 5.640625 -4.828125 C 5.640625 -5.273438 5.550781 -5.59375 5.375 -5.78125 C 5.195312 -5.976562 4.914062 -6.078125 4.53125 -6.078125 C 4.039062 -6.078125 3.660156 -5.914062 3.390625 -5.59375 C 3.117188 -5.269531 2.984375 -4.753906 2.984375 -4.046875 L 2.984375 0 Z M 1.09375 0 "/></g></g></g><g fill="#000000" fill-opacity="1"><g transform="translate(573.30465, 30.433336)"><g><path d="M 3.90625 3.203125 C 2.664062 3.203125 1.75 3.019531 1.15625 2.65625 C 0.5625 2.289062 0.265625 1.78125 0.265625 1.125 C 0.265625 0.726562 0.390625 0.40625 0.640625 0.15625 C 0.898438 -0.09375 1.265625 -0.265625 1.734375 -0.359375 L 1.734375 -0.5 C 1.484375 -0.65625 1.300781 -0.828125 1.1875 -1.015625 C 1.070312 -1.203125 1.015625 -1.421875 1.015625 -1.671875 C 1.015625 -2.273438 1.410156 -2.6875 2.203125 -2.90625 L 2.203125 -3.046875 C 1.796875 -3.273438 1.488281 -3.5625 1.28125 -3.90625 C 1.082031 -4.25 0.984375 -4.664062 0.984375 -5.15625 C 0.984375 -5.65625 1.097656 -6.09375 1.328125 -6.46875 C 1.554688 -6.851562 1.890625 -7.148438 2.328125 -7.359375 C 2.773438 -7.578125 3.3125 -7.6875 3.9375 -7.6875 C 4.5625 -7.6875 5.0625 -7.578125 5.4375 -7.359375 C 5.664062 -7.691406 5.800781 -8.082031 5.84375 -8.53125 L 5.984375 -8.609375 L 7.34375 -8.28125 C 7.300781 -7.914062 7.195312 -7.609375 7.03125 -7.359375 C 6.863281 -7.117188 6.597656 -6.90625 6.234375 -6.71875 L 6.234375 -6.5625 C 6.660156 -6.195312 6.875 -5.675781 6.875 -5 C 6.875 -4.539062 6.757812 -4.125 6.53125 -3.75 C 6.300781 -3.382812 5.960938 -3.09375 5.515625 -2.875 C 5.066406 -2.664062 4.539062 -2.5625 3.9375 -2.5625 L 3.640625 -2.5625 C 3.460938 -2.570312 3.335938 -2.578125 3.265625 -2.578125 C 3.085938 -2.578125 2.945312 -2.53125 2.84375 -2.4375 C 2.75 -2.34375 2.703125 -2.222656 2.703125 -2.078125 C 2.703125 -1.921875 2.765625 -1.796875 2.890625 -1.703125 C 3.023438 -1.617188 3.210938 -1.570312 3.453125 -1.5625 L 5.140625 -1.5 C 6.816406 -1.445312 7.65625 -0.726562 7.65625 0.65625 C 7.65625 1.144531 7.53125 1.578125 7.28125 1.953125 C 7.03125 2.335938 6.625 2.640625 6.0625 2.859375 C 5.507812 3.085938 4.789062 3.203125 3.90625 3.203125 Z M 3.9375 -3.890625 C 4.300781 -3.890625 4.582031 -3.992188 4.78125 -4.203125 C 4.988281 -4.421875 5.09375 -4.726562 5.09375 -5.125 C 5.09375 -5.519531 4.988281 -5.820312 4.78125 -6.03125 C 4.582031 -6.238281 4.300781 -6.34375 3.9375 -6.34375 C 3.5625 -6.34375 3.273438 -6.238281 3.078125 -6.03125 C 2.878906 -5.820312 2.78125 -5.519531 2.78125 -5.125 C 2.78125 -4.71875 2.878906 -4.410156 3.078125 -4.203125 C 3.273438 -3.992188 3.5625 -3.890625 3.9375 -3.890625 Z M 3.90625 1.828125 C 4.550781 1.828125 5.019531 1.734375 5.3125 1.546875 C 5.613281 1.367188 5.765625 1.132812 5.765625 0.84375 C 5.765625 0.601562 5.6875 0.425781 5.53125 0.3125 C 5.382812 0.207031 5.144531 0.148438 4.8125 0.140625 L 3.328125 0.0625 C 3.273438 0.0625 3.226562 0.0625 3.1875 0.0625 C 3.144531 0.0625 3.101562 0.0625 3.0625 0.0625 C 2.738281 0.0625 2.492188 0.128906 2.328125 0.265625 C 2.160156 0.398438 2.078125 0.585938 2.078125 0.828125 C 2.078125 1.148438 2.226562 1.394531 2.53125 1.5625 C 2.84375 1.738281 3.300781 1.828125 3.90625 1.828125 Z M 3.90625 1.828125 "/></g></g></g><g fill="#000000" fill-opacity="1"><g transform="translate(581.139685, 30.433336)"><g><path d="M 1.84375 1.421875 L 0.046875 1.421875 L 3.765625 -10.5625 L 5.578125 -10.5625 Z M 1.84375 1.421875 "/></g></g></g><g fill="#000000" fill-opacity="1"><g transform="translate(587.007423, 30.433336)"><g><path d="M 3.125 0.140625 C 2.445312 0.140625 1.929688 -0.0390625 1.578125 -0.40625 C 1.222656 -0.769531 1.046875 -1.328125 1.046875 -2.078125 L 1.046875 -10.5625 L 2.9375 -10.5625 L 2.9375 -2.15625 C 2.9375 -1.695312 3.125 -1.46875 3.5 -1.46875 C 3.613281 -1.46875 3.734375 -1.484375 3.859375 -1.515625 L 3.953125 -1.484375 L 4.125 -0.03125 C 4.019531 0.0195312 3.878906 0.0625 3.703125 0.09375 C 3.535156 0.125 3.34375 0.140625 3.125 0.140625 Z M 3.125 0.140625 "/></g></g></g><g fill="#000000" fill-opacity="1"><g transform="translate(591.338208, 30.433336)"><g><path d="M 2.03125 -8.4375 C 1.6875 -8.4375 1.40625 -8.539062 1.1875 -8.75 C 0.976562 -8.957031 0.875 -9.226562 0.875 -9.5625 C 0.875 -9.882812 0.976562 -10.148438 1.1875 -10.359375 C 1.40625 -10.566406 1.6875 -10.671875 2.03125 -10.671875 C 2.257812 -10.671875 2.460938 -10.617188 2.640625 -10.515625 C 2.816406 -10.421875 2.953125 -10.289062 3.046875 -10.125 C 3.148438 -9.957031 3.203125 -9.769531 3.203125 -9.5625 C 3.203125 -9.34375 3.148438 -9.148438 3.046875 -8.984375 C 2.953125 -8.816406 2.816406 -8.679688 2.640625 -8.578125 C 2.460938 -8.484375 2.257812 -8.4375 2.03125 -8.4375 Z M 1.09375 0 L 1.09375 -7.546875 L 2.984375 -7.546875 L 2.984375 0 Z M 1.09375 0 "/></g></g></g><g fill="#000000" fill-opacity="1"><g transform="translate(595.395758, 30.433336)"><g><path d="M 5.203125 -1.796875 L 5.6875 -0.390625 C 5.488281 -0.222656 5.234375 -0.09375 4.921875 0 C 4.609375 0.09375 4.257812 0.140625 3.875 0.140625 C 3.050781 0.140625 2.425781 -0.078125 2 -0.515625 C 1.582031 -0.960938 1.375 -1.613281 1.375 -2.46875 L 1.375 -6.046875 L 0.21875 -6.046875 L 0.21875 -7.546875 L 1.375 -7.546875 L 1.375 -9.015625 L 3.265625 -9.328125 L 3.265625 -7.546875 L 5.40625 -7.546875 L 5.40625 -6.046875 L 3.265625 -6.046875 L 3.265625 -2.59375 C 3.265625 -2.21875 3.34375 -1.945312 3.5 -1.78125 C 3.65625 -1.613281 3.878906 -1.53125 4.171875 -1.53125 C 4.515625 -1.53125 4.8125 -1.617188 5.0625 -1.796875 Z M 5.203125 -1.796875 "/></g></g></g><g fill="#000000" fill-opacity="1"><g transform="translate(601.249834, 30.433336)"><g><path d="M 0.4375 1.28125 C 0.75 0.738281 1.015625 0.191406 1.234375 -0.359375 C 1.460938 -0.910156 1.640625 -1.535156 1.765625 -2.234375 C 1.898438 -2.929688 1.96875 -3.707031 1.96875 -4.5625 C 1.96875 -5.425781 1.898438 -6.207031 1.765625 -6.90625 C 1.640625 -7.601562 1.460938 -8.226562 1.234375 -8.78125 C 1.015625 -9.332031 0.75 -9.878906 0.4375 -10.421875 L 0.453125 -10.5625 L 1.90625 -10.5625 C 2.300781 -10.082031 2.644531 -9.566406 2.9375 -9.015625 C 3.238281 -8.472656 3.488281 -7.828125 3.6875 -7.078125 C 3.882812 -6.335938 3.984375 -5.5 3.984375 -4.5625 C 3.984375 -3.21875 3.789062 -2.070312 3.40625 -1.125 C 3.03125 -0.1875 2.53125 0.660156 1.90625 1.421875 L 0.453125 1.421875 Z M 0.4375 1.28125 "/></g></g></g><g fill="#000000" fill-opacity="1"><g transform="translate(557.871606, 38.769116)"><g/></g></g><g fill="#000000" fill-opacity="1"><g transform="translate(561.170929, 38.769116)"><g/></g></g><g fill="#000000" fill-opacity="1"><g transform="translate(737.022347, 44.831502)"><g/></g></g><g fill="#000000" fill-opacity="1"><g transform="translate(740.32167, 44.831502)"><g/></g></g><g fill="#000000" fill-opacity="1"><g transform="translate(743.623479, 44.831502)"><g><path d="M 9.59375 0 L 7.515625 0 L 6.765625 -2.296875 L 2.9375 -2.296875 L 2.1875 0 L 0.15625 0 L 3.609375 -10 L 6.140625 -10 Z M 4.75 -7.90625 L 3.46875 -3.96875 L 6.21875 -3.96875 L 4.921875 -7.90625 Z M 4.75 -7.90625 "/></g></g></g><g fill="#000000" fill-opacity="1"><g transform="translate(753.357502, 44.831502)"><g><path d="M 5.1875 0 L 2.9375 0 L 0.140625 -7.546875 L 2.125 -7.546875 L 4 -2.171875 L 4.15625 -2.171875 L 6.03125 -7.546875 L 7.96875 -7.546875 Z M 5.1875 0 "/></g></g></g><g fill="#000000" fill-opacity="1"><g transform="translate(761.458939, 44.831502)"><g><path d="M 3.90625 3.203125 C 2.664062 3.203125 1.75 3.019531 1.15625 2.65625 C 0.5625 2.289062 0.265625 1.78125 0.265625 1.125 C 0.265625 0.726562 0.390625 0.40625 0.640625 0.15625 C 0.898438 -0.09375 1.265625 -0.265625 1.734375 -0.359375 L 1.734375 -0.5 C 1.484375 -0.65625 1.300781 -0.828125 1.1875 -1.015625 C 1.070312 -1.203125 1.015625 -1.421875 1.015625 -1.671875 C 1.015625 -2.273438 1.410156 -2.6875 2.203125 -2.90625 L 2.203125 -3.046875 C 1.796875 -3.273438 1.488281 -3.5625 1.28125 -3.90625 C 1.082031 -4.25 0.984375 -4.664062 0.984375 -5.15625 C 0.984375 -5.65625 1.097656 -6.09375 1.328125 -6.46875 C 1.554688 -6.851562 1.890625 -7.148438 2.328125 -7.359375 C 2.773438 -7.578125 3.3125 -7.6875 3.9375 -7.6875 C 4.5625 -7.6875 5.0625 -7.578125 5.4375 -7.359375 C 5.664062 -7.691406 5.800781 -8.082031 5.84375 -8.53125 L 5.984375 -8.609375 L 7.34375 -8.28125 C 7.300781 -7.914062 7.195312 -7.609375 7.03125 -7.359375 C 6.863281 -7.117188 6.597656 -6.90625 6.234375 -6.71875 L 6.234375 -6.5625 C 6.660156 -6.195312 6.875 -5.675781 6.875 -5 C 6.875 -4.539062 6.757812 -4.125 6.53125 -3.75 C 6.300781 -3.382812 5.960938 -3.09375 5.515625 -2.875 C 5.066406 -2.664062 4.539062 -2.5625 3.9375 -2.5625 L 3.640625 -2.5625 C 3.460938 -2.570312 3.335938 -2.578125 3.265625 -2.578125 C 3.085938 -2.578125 2.945312 -2.53125 2.84375 -2.4375 C 2.75 -2.34375 2.703125 -2.222656 2.703125 -2.078125 C 2.703125 -1.921875 2.765625 -1.796875 2.890625 -1.703125 C 3.023438 -1.617188 3.210938 -1.570312 3.453125 -1.5625 L 5.140625 -1.5 C 6.816406 -1.445312 7.65625 -0.726562 7.65625 0.65625 C 7.65625 1.144531 7.53125 1.578125 7.28125 1.953125 C 7.03125 2.335938 6.625 2.640625 6.0625 2.859375 C 5.507812 3.085938 4.789062 3.203125 3.90625 3.203125 Z M 3.9375 -3.890625 C 4.300781 -3.890625 4.582031 -3.992188 4.78125 -4.203125 C 4.988281 -4.421875 5.09375 -4.726562 5.09375 -5.125 C 5.09375 -5.519531 4.988281 -5.820312 4.78125 -6.03125 C 4.582031 -6.238281 4.300781 -6.34375 3.9375 -6.34375 C 3.5625 -6.34375 3.273438 -6.238281 3.078125 -6.03125 C 2.878906 -5.820312 2.78125 -5.519531 2.78125 -5.125 C 2.78125 -4.71875 2.878906 -4.410156 3.078125 -4.203125 C 3.273438 -3.992188 3.5625 -3.890625 3.9375 -3.890625 Z M 3.90625 1.828125 C 4.550781 1.828125 5.019531 1.734375 5.3125 1.546875 C 5.613281 1.367188 5.765625 1.132812 5.765625 0.84375 C 5.765625 0.601562 5.6875 0.425781 5.53125 0.3125 C 5.382812 0.207031 5.144531 0.148438 4.8125 0.140625 L 3.328125 0.0625 C 3.273438 0.0625 3.226562 0.0625 3.1875 0.0625 C 3.144531 0.0625 3.101562 0.0625 3.0625 0.0625 C 2.738281 0.0625 2.492188 0.128906 2.328125 0.265625 C 2.160156 0.398438 2.078125 0.585938 2.078125 0.828125 C 2.078125 1.148438 2.226562 1.394531 2.53125 1.5625 C 2.84375 1.738281 3.300781 1.828125 3.90625 1.828125 Z M 3.90625 1.828125 "/></g></g></g><g fill="#000000" fill-opacity="1"><g transform="translate(769.293974, 44.831502)"><g><path d="M 1.921875 0.0625 C 1.679688 0.0625 1.46875 0.015625 1.28125 -0.078125 C 1.101562 -0.179688 0.960938 -0.316406 0.859375 -0.484375 C 0.765625 -0.660156 0.71875 -0.859375 0.71875 -1.078125 C 0.71875 -1.296875 0.765625 -1.488281 0.859375 -1.65625 C 0.960938 -1.832031 1.101562 -1.972656 1.28125 -2.078125 C 1.46875 -2.179688 1.679688 -2.234375 1.921875 -2.234375 C 2.171875 -2.234375 2.382812 -2.179688 2.5625 -2.078125 C 2.75 -1.984375 2.890625 -1.847656 2.984375 -1.671875 C 3.085938 -1.503906 3.140625 -1.3125 3.140625 -1.09375 C 3.140625 -0.757812 3.03125 -0.484375 2.8125 -0.265625 C 2.59375 -0.046875 2.296875 0.0625 1.921875 0.0625 Z M 1.921875 0.0625 "/></g></g></g><g fill="#000000" fill-opacity="1"><g transform="translate(773.15343, 44.831502)"><g/></g></g><g fill="#000000" fill-opacity="1"><g transform="translate(776.452753, 44.831502)"><g><path d="M 4.890625 -10 C 6.515625 -10 7.753906 -9.578125 8.609375 -8.734375 C 9.460938 -7.898438 9.890625 -6.65625 9.890625 -5 C 9.890625 -3.34375 9.460938 -2.09375 8.609375 -1.25 C 7.753906 -0.414062 6.515625 0 4.890625 0 L 1.296875 0 L 1.296875 -10 Z M 4.78125 -1.65625 C 5.8125 -1.65625 6.582031 -1.914062 7.09375 -2.4375 C 7.601562 -2.96875 7.859375 -3.820312 7.859375 -5 C 7.859375 -6.164062 7.601562 -7.007812 7.09375 -7.53125 C 6.582031 -8.0625 5.8125 -8.328125 4.78125 -8.328125 L 3.28125 -8.328125 L 3.28125 -1.65625 Z M 4.78125 -1.65625 "/></g></g></g><g fill="#000000" fill-opacity="1"><g transform="translate(787.129439, 44.831502)"><g><path d="M 1.921875 0.0625 C 1.679688 0.0625 1.46875 0.015625 1.28125 -0.078125 C 1.101562 -0.179688 0.960938 -0.316406 0.859375 -0.484375 C 0.765625 -0.660156 0.71875 -0.859375 0.71875 -1.078125 C 0.71875 -1.296875 0.765625 -1.488281 0.859375 -1.65625 C 0.960938 -1.832031 1.101562 -1.972656 1.28125 -2.078125 C 1.46875 -2.179688 1.679688 -2.234375 1.921875 -2.234375 C 2.171875 -2.234375 2.382812 -2.179688 2.5625 -2.078125 C 2.75 -1.984375 2.890625 -1.847656 2.984375 -1.671875 C 3.085938 -1.503906 3.140625 -1.3125 3.140625 -1.09375 C 3.140625 -0.757812 3.03125 -0.484375 2.8125 -0.265625 C 2.59375 -0.046875 2.296875 0.0625 1.921875 0.0625 Z M 1.921875 0.0625 "/></g></g></g><g fill="#000000" fill-opacity="1"><g transform="translate(790.988895, 44.831502)"><g><path d="M 5.453125 0.140625 C 4.535156 0.140625 3.722656 -0.046875 3.015625 -0.421875 C 2.316406 -0.796875 1.769531 -1.363281 1.375 -2.125 C 0.976562 -2.894531 0.78125 -3.851562 0.78125 -5 C 0.78125 -6.144531 0.976562 -7.097656 1.375 -7.859375 C 1.769531 -8.628906 2.316406 -9.203125 3.015625 -9.578125 C 3.722656 -9.953125 4.535156 -10.140625 5.453125 -10.140625 C 6.367188 -10.140625 7.175781 -9.953125 7.875 -9.578125 C 8.570312 -9.210938 9.113281 -8.644531 9.5 -7.875 C 9.894531 -7.101562 10.09375 -6.144531 10.09375 -5 C 10.09375 -3.851562 9.894531 -2.894531 9.5 -2.125 C 9.113281 -1.351562 8.570312 -0.78125 7.875 -0.40625 C 7.175781 -0.0390625 6.367188 0.140625 5.453125 0.140625 Z M 5.453125 -1.578125 C 6.296875 -1.578125 6.941406 -1.847656 7.390625 -2.390625 C 7.835938 -2.929688 8.0625 -3.800781 8.0625 -5 C 8.0625 -6.1875 7.835938 -7.050781 7.390625 -7.59375 C 6.941406 -8.144531 6.296875 -8.421875 5.453125 -8.421875 C 4.597656 -8.421875 3.945312 -8.144531 3.5 -7.59375 C 3.050781 -7.050781 2.828125 -6.1875 2.828125 -5 C 2.828125 -3.800781 3.050781 -2.929688 3.5 -2.390625 C 3.945312 -1.847656 4.597656 -1.578125 5.453125 -1.578125 Z M 5.453125 -1.578125 "/></g></g></g><g fill="#000000" fill-opacity="1"><g transform="translate(801.870507, 44.831502)"><g><path d="M 1.921875 0.0625 C 1.679688 0.0625 1.46875 0.015625 1.28125 -0.078125 C 1.101562 -0.179688 0.960938 -0.316406 0.859375 -0.484375 C 0.765625 -0.660156 0.71875 -0.859375 0.71875 -1.078125 C 0.71875 -1.296875 0.765625 -1.488281 0.859375 -1.65625 C 0.960938 -1.832031 1.101562 -1.972656 1.28125 -2.078125 C 1.46875 -2.179688 1.679688 -2.234375 1.921875 -2.234375 C 2.171875 -2.234375 2.382812 -2.179688 2.5625 -2.078125 C 2.75 -1.984375 2.890625 -1.847656 2.984375 -1.671875 C 3.085938 -1.503906 3.140625 -1.3125 3.140625 -1.09375 C 3.140625 -0.757812 3.03125 -0.484375 2.8125 -0.265625 C 2.59375 -0.046875 2.296875 0.0625 1.921875 0.0625 Z M 1.921875 0.0625 "/></g></g></g><g fill="#000000" fill-opacity="1"><g transform="translate(742.617029, 59.608566)"><g/></g></g><g fill="#000000" fill-opacity="1"><g transform="translate(745.916352, 59.608566)"><g/></g></g><g fill="#000000" fill-opacity="1"><g transform="translate(749.218161, 59.608566)"><g><path d="M 3.0625 1.421875 C 2.4375 0.660156 1.929688 -0.1875 1.546875 -1.125 C 1.171875 -2.070312 0.984375 -3.21875 0.984375 -4.5625 C 0.984375 -5.914062 1.171875 -7.0625 1.546875 -8 C 1.929688 -8.945312 2.4375 -9.800781 3.0625 -10.5625 L 4.515625 -10.5625 L 4.546875 -10.421875 C 4.046875 -9.578125 3.660156 -8.703125 3.390625 -7.796875 C 3.128906 -6.890625 3 -5.8125 3 -4.5625 C 3 -3.320312 3.128906 -2.25 3.390625 -1.34375 C 3.660156 -0.4375 4.046875 0.4375 4.546875 1.28125 L 4.515625 1.421875 Z M 3.0625 1.421875 "/></g></g></g><g fill="#000000" fill-opacity="1"><g transform="translate(754.184222, 59.608566)"><g><path d="M 1.09375 0 L 1.09375 -7.546875 L 2.90625 -7.546875 L 2.90625 -6.53125 L 3.046875 -6.5 C 3.296875 -6.90625 3.582031 -7.203125 3.90625 -7.390625 C 4.238281 -7.585938 4.664062 -7.6875 5.1875 -7.6875 C 5.75 -7.6875 6.203125 -7.570312 6.546875 -7.34375 C 6.898438 -7.113281 7.15625 -6.785156 7.3125 -6.359375 L 7.453125 -6.359375 C 7.691406 -6.804688 7.992188 -7.140625 8.359375 -7.359375 C 8.722656 -7.578125 9.179688 -7.6875 9.734375 -7.6875 C 11.296875 -7.6875 12.078125 -6.816406 12.078125 -5.078125 L 12.078125 0 L 10.171875 0 L 10.171875 -4.828125 C 10.171875 -5.273438 10.082031 -5.59375 9.90625 -5.78125 C 9.738281 -5.976562 9.460938 -6.078125 9.078125 -6.078125 C 8.046875 -6.078125 7.53125 -5.382812 7.53125 -4 L 7.53125 0 L 5.640625 0 L 5.640625 -4.828125 C 5.640625 -5.273438 5.550781 -5.59375 5.375 -5.78125 C 5.195312 -5.976562 4.914062 -6.078125 4.53125 -6.078125 C 4.039062 -6.078125 3.660156 -5.914062 3.390625 -5.59375 C 3.117188 -5.269531 2.984375 -4.753906 2.984375 -4.046875 L 2.984375 0 Z M 1.09375 0 "/></g></g></g><g fill="#000000" fill-opacity="1"><g transform="translate(767.217562, 59.608566)"><g><path d="M 3.90625 3.203125 C 2.664062 3.203125 1.75 3.019531 1.15625 2.65625 C 0.5625 2.289062 0.265625 1.78125 0.265625 1.125 C 0.265625 0.726562 0.390625 0.40625 0.640625 0.15625 C 0.898438 -0.09375 1.265625 -0.265625 1.734375 -0.359375 L 1.734375 -0.5 C 1.484375 -0.65625 1.300781 -0.828125 1.1875 -1.015625 C 1.070312 -1.203125 1.015625 -1.421875 1.015625 -1.671875 C 1.015625 -2.273438 1.410156 -2.6875 2.203125 -2.90625 L 2.203125 -3.046875 C 1.796875 -3.273438 1.488281 -3.5625 1.28125 -3.90625 C 1.082031 -4.25 0.984375 -4.664062 0.984375 -5.15625 C 0.984375 -5.65625 1.097656 -6.09375 1.328125 -6.46875 C 1.554688 -6.851562 1.890625 -7.148438 2.328125 -7.359375 C 2.773438 -7.578125 3.3125 -7.6875 3.9375 -7.6875 C 4.5625 -7.6875 5.0625 -7.578125 5.4375 -7.359375 C 5.664062 -7.691406 5.800781 -8.082031 5.84375 -8.53125 L 5.984375 -8.609375 L 7.34375 -8.28125 C 7.300781 -7.914062 7.195312 -7.609375 7.03125 -7.359375 C 6.863281 -7.117188 6.597656 -6.90625 6.234375 -6.71875 L 6.234375 -6.5625 C 6.660156 -6.195312 6.875 -5.675781 6.875 -5 C 6.875 -4.539062 6.757812 -4.125 6.53125 -3.75 C 6.300781 -3.382812 5.960938 -3.09375 5.515625 -2.875 C 5.066406 -2.664062 4.539062 -2.5625 3.9375 -2.5625 L 3.640625 -2.5625 C 3.460938 -2.570312 3.335938 -2.578125 3.265625 -2.578125 C 3.085938 -2.578125 2.945312 -2.53125 2.84375 -2.4375 C 2.75 -2.34375 2.703125 -2.222656 2.703125 -2.078125 C 2.703125 -1.921875 2.765625 -1.796875 2.890625 -1.703125 C 3.023438 -1.617188 3.210938 -1.570312 3.453125 -1.5625 L 5.140625 -1.5 C 6.816406 -1.445312 7.65625 -0.726562 7.65625 0.65625 C 7.65625 1.144531 7.53125 1.578125 7.28125 1.953125 C 7.03125 2.335938 6.625 2.640625 6.0625 2.859375 C 5.507812 3.085938 4.789062 3.203125 3.90625 3.203125 Z M 3.9375 -3.890625 C 4.300781 -3.890625 4.582031 -3.992188 4.78125 -4.203125 C 4.988281 -4.421875 5.09375 -4.726562 5.09375 -5.125 C 5.09375 -5.519531 4.988281 -5.820312 4.78125 -6.03125 C 4.582031 -6.238281 4.300781 -6.34375 3.9375 -6.34375 C 3.5625 -6.34375 3.273438 -6.238281 3.078125 -6.03125 C 2.878906 -5.820312 2.78125 -5.519531 2.78125 -5.125 C 2.78125 -4.71875 2.878906 -4.410156 3.078125 -4.203125 C 3.273438 -3.992188 3.5625 -3.890625 3.9375 -3.890625 Z M 3.90625 1.828125 C 4.550781 1.828125 5.019531 1.734375 5.3125 1.546875 C 5.613281 1.367188 5.765625 1.132812 5.765625 0.84375 C 5.765625 0.601562 5.6875 0.425781 5.53125 0.3125 C 5.382812 0.207031 5.144531 0.148438 4.8125 0.140625 L 3.328125 0.0625 C 3.273438 0.0625 3.226562 0.0625 3.1875 0.0625 C 3.144531 0.0625 3.101562 0.0625 3.0625 0.0625 C 2.738281 0.0625 2.492188 0.128906 2.328125 0.265625 C 2.160156 0.398438 2.078125 0.585938 2.078125 0.828125 C 2.078125 1.148438 2.226562 1.394531 2.53125 1.5625 C 2.84375 1.738281 3.300781 1.828125 3.90625 1.828125 Z M 3.90625 1.828125 "/></g></g></g><g fill="#000000" fill-opacity="1"><g transform="translate(775.052597, 59.608566)"><g><path d="M 1.84375 1.421875 L 0.046875 1.421875 L 3.765625 -10.5625 L 5.578125 -10.5625 Z M 1.84375 1.421875 "/></g></g></g><g fill="#000000" fill-opacity="1"><g transform="translate(780.920335, 59.608566)"><g><path d="M 3.125 0.140625 C 2.445312 0.140625 1.929688 -0.0390625 1.578125 -0.40625 C 1.222656 -0.769531 1.046875 -1.328125 1.046875 -2.078125 L 1.046875 -10.5625 L 2.9375 -10.5625 L 2.9375 -2.15625 C 2.9375 -1.695312 3.125 -1.46875 3.5 -1.46875 C 3.613281 -1.46875 3.734375 -1.484375 3.859375 -1.515625 L 3.953125 -1.484375 L 4.125 -0.03125 C 4.019531 0.0195312 3.878906 0.0625 3.703125 0.09375 C 3.535156 0.125 3.34375 0.140625 3.125 0.140625 Z M 3.125 0.140625 "/></g></g></g><g fill="#000000" fill-opacity="1"><g transform="translate(785.25112, 59.608566)"><g><path d="M 2.03125 -8.4375 C 1.6875 -8.4375 1.40625 -8.539062 1.1875 -8.75 C 0.976562 -8.957031 0.875 -9.226562 0.875 -9.5625 C 0.875 -9.882812 0.976562 -10.148438 1.1875 -10.359375 C 1.40625 -10.566406 1.6875 -10.671875 2.03125 -10.671875 C 2.257812 -10.671875 2.460938 -10.617188 2.640625 -10.515625 C 2.816406 -10.421875 2.953125 -10.289062 3.046875 -10.125 C 3.148438 -9.957031 3.203125 -9.769531 3.203125 -9.5625 C 3.203125 -9.34375 3.148438 -9.148438 3.046875 -8.984375 C 2.953125 -8.816406 2.816406 -8.679688 2.640625 -8.578125 C 2.460938 -8.484375 2.257812 -8.4375 2.03125 -8.4375 Z M 1.09375 0 L 1.09375 -7.546875 L 2.984375 -7.546875 L 2.984375 0 Z M 1.09375 0 "/></g></g></g><g fill="#000000" fill-opacity="1"><g transform="translate(789.308669, 59.608566)"><g><path d="M 5.203125 -1.796875 L 5.6875 -0.390625 C 5.488281 -0.222656 5.234375 -0.09375 4.921875 0 C 4.609375 0.09375 4.257812 0.140625 3.875 0.140625 C 3.050781 0.140625 2.425781 -0.078125 2 -0.515625 C 1.582031 -0.960938 1.375 -1.613281 1.375 -2.46875 L 1.375 -6.046875 L 0.21875 -6.046875 L 0.21875 -7.546875 L 1.375 -7.546875 L 1.375 -9.015625 L 3.265625 -9.328125 L 3.265625 -7.546875 L 5.40625 -7.546875 L 5.40625 -6.046875 L 3.265625 -6.046875 L 3.265625 -2.59375 C 3.265625 -2.21875 3.34375 -1.945312 3.5 -1.78125 C 3.65625 -1.613281 3.878906 -1.53125 4.171875 -1.53125 C 4.515625 -1.53125 4.8125 -1.617188 5.0625 -1.796875 Z M 5.203125 -1.796875 "/></g></g></g><g fill="#000000" fill-opacity="1"><g transform="translate(795.162746, 59.608566)"><g><path d="M 0.4375 1.28125 C 0.75 0.738281 1.015625 0.191406 1.234375 -0.359375 C 1.460938 -0.910156 1.640625 -1.535156 1.765625 -2.234375 C 1.898438 -2.929688 1.96875 -3.707031 1.96875 -4.5625 C 1.96875 -5.425781 1.898438 -6.207031 1.765625 -6.90625 C 1.640625 -7.601562 1.460938 -8.226562 1.234375 -8.78125 C 1.015625 -9.332031 0.75 -9.878906 0.4375 -10.421875 L 0.453125 -10.5625 L 1.90625 -10.5625 C 2.300781 -10.082031 2.644531 -9.566406 2.9375 -9.015625 C 3.238281 -8.472656 3.488281 -7.828125 3.6875 -7.078125 C 3.882812 -6.335938 3.984375 -5.5 3.984375 -4.5625 C 3.984375 -3.21875 3.789062 -2.070312 3.40625 -1.125 C 3.03125 -0.1875 2.53125 0.660156 1.90625 1.421875 L 0.453125 1.421875 Z M 0.4375 1.28125 "/></g></g></g><g fill="#000000" fill-opacity="1"><g transform="translate(768.074313, 74.38563)"><g/></g></g><g fill="#000000" fill-opacity="1"><g transform="translate(771.373636, 74.38563)"><g/></g></g><g fill="#000000" fill-opacity="1"><g transform="translate(2.67538, 200.847487)"><g/></g><g transform="translate(3.789876, 200.847487)"><g/></g></g><g fill="#000000" fill-opacity="1"><g transform="translate(4.907332, 200.847487)"><g/></g></g><g fill="#000000" fill-opacity="1"><g transform="translate(2.67538, 203.49978)"><g/></g><g transform="translate(3.789876, 203.49978)"><g/></g></g><g fill="#000000" fill-opacity="1"><g transform="translate(142.864304, 200.847487)"><g/></g><g transform="translate(143.9788, 200.847487)"><g/></g></g><g fill="#000000" fill-opacity="1"><g transform="translate(145.096256, 200.847487)"><g/></g></g><g fill="#000000" fill-opacity="1"><g transform="translate(142.864304, 203.49978)"><g/></g><g transform="translate(143.9788, 203.49978)"><g/></g></g><g fill="#000000" fill-opacity="1"><g transform="translate(467.894911, 73.916292)"><g/></g></g><g fill="#000000" fill-opacity="1"><g transform="translate(471.194235, 73.916292)"><g/></g></g><g fill="#000000" fill-opacity="1"><g transform="translate(474.496044, 73.916292)"><g><path d="M 4.875 0.140625 C 4.0625 0.140625 3.351562 -0.0351562 2.75 -0.390625 C 2.144531 -0.753906 1.675781 -1.316406 1.34375 -2.078125 C 1.007812 -2.847656 0.84375 -3.820312 0.84375 -5 C 0.84375 -6.164062 1.007812 -7.128906 1.34375 -7.890625 C 1.675781 -8.660156 2.144531 -9.226562 2.75 -9.59375 C 3.351562 -9.957031 4.0625 -10.140625 4.875 -10.140625 C 5.695312 -10.140625 6.410156 -9.957031 7.015625 -9.59375 C 7.617188 -9.226562 8.085938 -8.660156 8.421875 -7.890625 C 8.753906 -7.128906 8.921875 -6.164062 8.921875 -5 C 8.921875 -3.820312 8.753906 -2.847656 8.421875 -2.078125 C 8.085938 -1.316406 7.617188 -0.753906 7.015625 -0.390625 C 6.410156 -0.0351562 5.695312 0.140625 4.875 0.140625 Z M 4.875 -1.53125 C 5.320312 -1.53125 5.695312 -1.640625 6 -1.859375 C 6.300781 -2.078125 6.53125 -2.441406 6.6875 -2.953125 C 6.851562 -3.460938 6.9375 -4.144531 6.9375 -5 C 6.9375 -5.851562 6.851562 -6.535156 6.6875 -7.046875 C 6.53125 -7.554688 6.300781 -7.921875 6 -8.140625 C 5.695312 -8.359375 5.320312 -8.46875 4.875 -8.46875 C 4.4375 -8.46875 4.066406 -8.359375 3.765625 -8.140625 C 3.460938 -7.921875 3.226562 -7.554688 3.0625 -7.046875 C 2.90625 -6.535156 2.828125 -5.851562 2.828125 -5 C 2.828125 -4.144531 2.90625 -3.460938 3.0625 -2.953125 C 3.226562 -2.441406 3.460938 -2.078125 3.765625 -1.859375 C 4.066406 -1.640625 4.4375 -1.53125 4.875 -1.53125 Z M 4.875 -1.53125 "/></g></g></g><g fill="#000000" fill-opacity="1"><g transform="translate(484.25739, 73.916292)"><g/></g></g><g fill="#000000" fill-opacity="1"><g transform="translate(487.556713, 73.916292)"><g><path d="M 4.890625 -10 C 6.515625 -10 7.753906 -9.578125 8.609375 -8.734375 C 9.460938 -7.898438 9.890625 -6.65625 9.890625 -5 C 9.890625 -3.34375 9.460938 -2.09375 8.609375 -1.25 C 7.753906 -0.414062 6.515625 0 4.890625 0 L 1.296875 0 L 1.296875 -10 Z M 4.78125 -1.65625 C 5.8125 -1.65625 6.582031 -1.914062 7.09375 -2.4375 C 7.601562 -2.96875 7.859375 -3.820312 7.859375 -5 C 7.859375 -6.164062 7.601562 -7.007812 7.09375 -7.53125 C 6.582031 -8.0625 5.8125 -8.328125 4.78125 -8.328125 L 3.28125 -8.328125 L 3.28125 -1.65625 Z M 4.78125 -1.65625 "/></g></g></g><g fill="#000000" fill-opacity="1"><g transform="translate(498.233399, 73.916292)"><g><path d="M 2.9375 0.140625 C 2.457031 0.140625 2.039062 0.0507812 1.6875 -0.125 C 1.332031 -0.300781 1.054688 -0.5625 0.859375 -0.90625 C 0.671875 -1.25 0.578125 -1.660156 0.578125 -2.140625 C 0.578125 -2.585938 0.671875 -2.960938 0.859375 -3.265625 C 1.054688 -3.566406 1.351562 -3.816406 1.75 -4.015625 C 2.15625 -4.210938 2.679688 -4.363281 3.328125 -4.46875 C 3.773438 -4.539062 4.113281 -4.617188 4.34375 -4.703125 C 4.582031 -4.785156 4.742188 -4.878906 4.828125 -4.984375 C 4.910156 -5.097656 4.953125 -5.242188 4.953125 -5.421875 C 4.953125 -5.660156 4.863281 -5.84375 4.6875 -5.96875 C 4.519531 -6.09375 4.242188 -6.15625 3.859375 -6.15625 C 3.441406 -6.15625 3.039062 -6.0625 2.65625 -5.875 C 2.28125 -5.6875 1.953125 -5.441406 1.671875 -5.140625 L 1.53125 -5.140625 L 0.75 -6.34375 C 1.125 -6.757812 1.585938 -7.085938 2.140625 -7.328125 C 2.691406 -7.566406 3.296875 -7.6875 3.953125 -7.6875 C 4.953125 -7.6875 5.671875 -7.472656 6.109375 -7.046875 C 6.554688 -6.617188 6.78125 -6.019531 6.78125 -5.25 L 6.78125 -1.96875 C 6.78125 -1.632812 6.929688 -1.46875 7.234375 -1.46875 C 7.347656 -1.46875 7.457031 -1.488281 7.5625 -1.53125 L 7.65625 -1.5 L 7.796875 -0.171875 C 7.691406 -0.109375 7.546875 -0.0507812 7.359375 0 C 7.171875 0.0390625 6.96875 0.0625 6.75 0.0625 C 6.300781 0.0625 5.945312 -0.0234375 5.6875 -0.203125 C 5.4375 -0.378906 5.253906 -0.648438 5.140625 -1.015625 L 5 -1.03125 C 4.632812 -0.25 3.945312 0.140625 2.9375 0.140625 Z M 3.546875 -1.265625 C 3.984375 -1.265625 4.332031 -1.410156 4.59375 -1.703125 C 4.851562 -2.003906 4.984375 -2.414062 4.984375 -2.9375 L 4.984375 -3.703125 L 4.859375 -3.734375 C 4.742188 -3.640625 4.59375 -3.5625 4.40625 -3.5 C 4.21875 -3.4375 3.953125 -3.378906 3.609375 -3.328125 C 3.203125 -3.253906 2.90625 -3.132812 2.71875 -2.96875 C 2.539062 -2.800781 2.453125 -2.566406 2.453125 -2.265625 C 2.453125 -1.941406 2.546875 -1.691406 2.734375 -1.515625 C 2.929688 -1.347656 3.203125 -1.265625 3.546875 -1.265625 Z M 3.546875 -1.265625 "/></g></g></g><g fill="#000000" fill-opacity="1"><g transform="translate(506.177728, 73.916292)"><g><path d="M 1.671875 3.203125 C 1.347656 3.203125 1.050781 3.175781 0.78125 3.125 C 0.519531 3.070312 0.3125 3.003906 0.15625 2.921875 L 0.453125 1.390625 L 0.578125 1.359375 C 0.691406 1.410156 0.832031 1.453125 1 1.484375 C 1.164062 1.523438 1.335938 1.546875 1.515625 1.546875 C 1.816406 1.546875 2.066406 1.503906 2.265625 1.421875 C 2.472656 1.347656 2.648438 1.21875 2.796875 1.03125 C 2.941406 0.851562 3.066406 0.597656 3.171875 0.265625 L 0.171875 -7.546875 L 2.140625 -7.546875 L 4.015625 -2.296875 L 4.1875 -2.296875 L 6.015625 -7.546875 L 7.9375 -7.546875 L 4.90625 0.46875 C 4.664062 1.113281 4.398438 1.632812 4.109375 2.03125 C 3.816406 2.425781 3.472656 2.71875 3.078125 2.90625 C 2.691406 3.101562 2.222656 3.203125 1.671875 3.203125 Z M 1.671875 3.203125 "/></g></g></g><g fill="#000000" fill-opacity="1"><g transform="translate(487.781193, 82.252072)"><g/></g></g><g fill="#000000" fill-opacity="1"><g transform="translate(491.080517, 82.252072)"><g/></g></g><g fill="#000000" fill-opacity="1"><g transform="translate(601.332908, 73.916292)"><g/></g></g><g fill="#000000" fill-opacity="1"><g transform="translate(604.632231, 73.916292)"><g/></g></g><g fill="#000000" fill-opacity="1"><g transform="translate(607.934041, 73.916292)"><g><path d="M 4.15625 0.140625 C 3.164062 0.140625 2.375 -0.0664062 1.78125 -0.484375 C 1.195312 -0.898438 0.816406 -1.488281 0.640625 -2.25 L 2.140625 -2.90625 L 2.296875 -2.875 C 2.441406 -2.4375 2.660156 -2.101562 2.953125 -1.875 C 3.242188 -1.65625 3.640625 -1.546875 4.140625 -1.546875 C 4.660156 -1.546875 5.0625 -1.691406 5.34375 -1.984375 C 5.625 -2.285156 5.765625 -2.726562 5.765625 -3.3125 C 5.765625 -3.894531 5.625 -4.335938 5.34375 -4.640625 C 5.0625 -4.941406 4.679688 -5.09375 4.203125 -5.09375 C 3.835938 -5.09375 3.53125 -5.007812 3.28125 -4.84375 C 3.03125 -4.6875 2.816406 -4.453125 2.640625 -4.140625 L 1.015625 -4.265625 L 1.21875 -10 L 7.171875 -10 L 7.171875 -8.328125 L 2.875 -8.328125 L 2.78125 -5.78125 L 2.921875 -5.75 C 3.160156 -6.0625 3.441406 -6.296875 3.765625 -6.453125 C 4.085938 -6.609375 4.472656 -6.6875 4.921875 -6.6875 C 5.492188 -6.6875 5.992188 -6.554688 6.421875 -6.296875 C 6.847656 -6.046875 7.175781 -5.671875 7.40625 -5.171875 C 7.644531 -4.679688 7.765625 -4.070312 7.765625 -3.34375 C 7.765625 -2.613281 7.625 -1.988281 7.34375 -1.46875 C 7.0625 -0.945312 6.648438 -0.546875 6.109375 -0.265625 C 5.578125 0.00390625 4.925781 0.140625 4.15625 0.140625 Z M 4.15625 0.140625 "/></g></g></g><g fill="#000000" fill-opacity="1"><g transform="translate(616.349698, 73.916292)"><g><path d="M 5.203125 -1.796875 L 5.6875 -0.390625 C 5.488281 -0.222656 5.234375 -0.09375 4.921875 0 C 4.609375 0.09375 4.257812 0.140625 3.875 0.140625 C 3.050781 0.140625 2.425781 -0.078125 2 -0.515625 C 1.582031 -0.960938 1.375 -1.613281 1.375 -2.46875 L 1.375 -6.046875 L 0.21875 -6.046875 L 0.21875 -7.546875 L 1.375 -7.546875 L 1.375 -9.015625 L 3.265625 -9.328125 L 3.265625 -7.546875 L 5.40625 -7.546875 L 5.40625 -6.046875 L 3.265625 -6.046875 L 3.265625 -2.59375 C 3.265625 -2.21875 3.34375 -1.945312 3.5 -1.78125 C 3.65625 -1.613281 3.878906 -1.53125 4.171875 -1.53125 C 4.515625 -1.53125 4.8125 -1.617188 5.0625 -1.796875 Z M 5.203125 -1.796875 "/></g></g></g><g fill="#000000" fill-opacity="1"><g transform="translate(622.203775, 73.916292)"><g><path d="M 1.09375 0 L 1.09375 -10.5625 L 2.984375 -10.5625 L 2.984375 -6.5625 L 3.125 -6.53125 C 3.375 -6.894531 3.679688 -7.175781 4.046875 -7.375 C 4.410156 -7.582031 4.847656 -7.6875 5.359375 -7.6875 C 7.023438 -7.6875 7.859375 -6.742188 7.859375 -4.859375 L 7.859375 0 L 5.96875 0 L 5.96875 -4.609375 C 5.96875 -5.128906 5.863281 -5.503906 5.65625 -5.734375 C 5.457031 -5.960938 5.140625 -6.078125 4.703125 -6.078125 C 4.171875 -6.078125 3.75 -5.898438 3.4375 -5.546875 C 3.132812 -5.203125 2.984375 -4.65625 2.984375 -3.90625 L 2.984375 0 Z M 1.09375 0 "/></g></g></g><g fill="#000000" fill-opacity="1"><g transform="translate(631.029286, 73.916292)"><g/></g></g><g fill="#000000" fill-opacity="1"><g transform="translate(634.328609, 73.916292)"><g><path d="M 4.890625 -10 C 6.515625 -10 7.753906 -9.578125 8.609375 -8.734375 C 9.460938 -7.898438 9.890625 -6.65625 9.890625 -5 C 9.890625 -3.34375 9.460938 -2.09375 8.609375 -1.25 C 7.753906 -0.414062 6.515625 0 4.890625 0 L 1.296875 0 L 1.296875 -10 Z M 4.78125 -1.65625 C 5.8125 -1.65625 6.582031 -1.914062 7.09375 -2.4375 C 7.601562 -2.96875 7.859375 -3.820312 7.859375 -5 C 7.859375 -6.164062 7.601562 -7.007812 7.09375 -7.53125 C 6.582031 -8.0625 5.8125 -8.328125 4.78125 -8.328125 L 3.28125 -8.328125 L 3.28125 -1.65625 Z M 4.78125 -1.65625 "/></g></g></g><g fill="#000000" fill-opacity="1"><g transform="translate(645.005295, 73.916292)"><g><path d="M 2.9375 0.140625 C 2.457031 0.140625 2.039062 0.0507812 1.6875 -0.125 C 1.332031 -0.300781 1.054688 -0.5625 0.859375 -0.90625 C 0.671875 -1.25 0.578125 -1.660156 0.578125 -2.140625 C 0.578125 -2.585938 0.671875 -2.960938 0.859375 -3.265625 C 1.054688 -3.566406 1.351562 -3.816406 1.75 -4.015625 C 2.15625 -4.210938 2.679688 -4.363281 3.328125 -4.46875 C 3.773438 -4.539062 4.113281 -4.617188 4.34375 -4.703125 C 4.582031 -4.785156 4.742188 -4.878906 4.828125 -4.984375 C 4.910156 -5.097656 4.953125 -5.242188 4.953125 -5.421875 C 4.953125 -5.660156 4.863281 -5.84375 4.6875 -5.96875 C 4.519531 -6.09375 4.242188 -6.15625 3.859375 -6.15625 C 3.441406 -6.15625 3.039062 -6.0625 2.65625 -5.875 C 2.28125 -5.6875 1.953125 -5.441406 1.671875 -5.140625 L 1.53125 -5.140625 L 0.75 -6.34375 C 1.125 -6.757812 1.585938 -7.085938 2.140625 -7.328125 C 2.691406 -7.566406 3.296875 -7.6875 3.953125 -7.6875 C 4.953125 -7.6875 5.671875 -7.472656 6.109375 -7.046875 C 6.554688 -6.617188 6.78125 -6.019531 6.78125 -5.25 L 6.78125 -1.96875 C 6.78125 -1.632812 6.929688 -1.46875 7.234375 -1.46875 C 7.347656 -1.46875 7.457031 -1.488281 7.5625 -1.53125 L 7.65625 -1.5 L 7.796875 -0.171875 C 7.691406 -0.109375 7.546875 -0.0507812 7.359375 0 C 7.171875 0.0390625 6.96875 0.0625 6.75 0.0625 C 6.300781 0.0625 5.945312 -0.0234375 5.6875 -0.203125 C 5.4375 -0.378906 5.253906 -0.648438 5.140625 -1.015625 L 5 -1.03125 C 4.632812 -0.25 3.945312 0.140625 2.9375 0.140625 Z M 3.546875 -1.265625 C 3.984375 -1.265625 4.332031 -1.410156 4.59375 -1.703125 C 4.851562 -2.003906 4.984375 -2.414062 4.984375 -2.9375 L 4.984375 -3.703125 L 4.859375 -3.734375 C 4.742188 -3.640625 4.59375 -3.5625 4.40625 -3.5 C 4.21875 -3.4375 3.953125 -3.378906 3.609375 -3.328125 C 3.203125 -3.253906 2.90625 -3.132812 2.71875 -2.96875 C 2.539062 -2.800781 2.453125 -2.566406 2.453125 -2.265625 C 2.453125 -1.941406 2.546875 -1.691406 2.734375 -1.515625 C 2.929688 -1.347656 3.203125 -1.265625 3.546875 -1.265625 Z M 3.546875 -1.265625 "/></g></g></g><g fill="#000000" fill-opacity="1"><g transform="translate(652.949624, 73.916292)"><g><path d="M 1.671875 3.203125 C 1.347656 3.203125 1.050781 3.175781 0.78125 3.125 C 0.519531 3.070312 0.3125 3.003906 0.15625 2.921875 L 0.453125 1.390625 L 0.578125 1.359375 C 0.691406 1.410156 0.832031 1.453125 1 1.484375 C 1.164062 1.523438 1.335938 1.546875 1.515625 1.546875 C 1.816406 1.546875 2.066406 1.503906 2.265625 1.421875 C 2.472656 1.347656 2.648438 1.21875 2.796875 1.03125 C 2.941406 0.851562 3.066406 0.597656 3.171875 0.265625 L 0.171875 -7.546875 L 2.140625 -7.546875 L 4.015625 -2.296875 L 4.1875 -2.296875 L 6.015625 -7.546875 L 7.9375 -7.546875 L 4.90625 0.46875 C 4.664062 1.113281 4.398438 1.632812 4.109375 2.03125 C 3.816406 2.425781 3.472656 2.71875 3.078125 2.90625 C 2.691406 3.101562 2.222656 3.203125 1.671875 3.203125 Z M 1.671875 3.203125 "/></g></g></g><g fill="#000000" fill-opacity="1"><g transform="translate(627.885448, 82.252072)"><g/></g></g><g fill="#000000" fill-opacity="1"><g transform="translate(631.184771, 82.252072)"><g/></g></g><g fill="#000000" fill-opacity="1"><g transform="translate(283.053239, 117.560965)"><g/></g></g><g fill="#000000" fill-opacity="1"><g transform="translate(286.352562, 117.560965)"><g/></g></g><g fill="#000000" fill-opacity="1"><g transform="translate(289.654371, 117.560965)"><g><path d="M 0.53125 0 L 0.53125 -1.640625 L 2.9375 -1.640625 L 2.9375 -7.859375 L 2.78125 -7.890625 C 2.4375 -7.734375 2.097656 -7.601562 1.765625 -7.5 C 1.441406 -7.40625 1.066406 -7.332031 0.640625 -7.28125 L 0.640625 -8.96875 C 1.742188 -9.195312 2.640625 -9.539062 3.328125 -10 L 4.890625 -10 L 4.890625 -1.640625 L 7.046875 -1.640625 L 7.046875 0 Z M 0.53125 0 "/></g></g></g><g fill="#000000" fill-opacity="1"><g transform="translate(297.024905, 117.560965)"><g><path d="M 1.921875 0.0625 C 1.679688 0.0625 1.46875 0.015625 1.28125 -0.078125 C 1.101562 -0.179688 0.960938 -0.316406 0.859375 -0.484375 C 0.765625 -0.660156 0.71875 -0.859375 0.71875 -1.078125 C 0.71875 -1.296875 0.765625 -1.488281 0.859375 -1.65625 C 0.960938 -1.832031 1.101562 -1.972656 1.28125 -2.078125 C 1.46875 -2.179688 1.679688 -2.234375 1.921875 -2.234375 C 2.171875 -2.234375 2.382812 -2.179688 2.5625 -2.078125 C 2.75 -1.984375 2.890625 -1.847656 2.984375 -1.671875 C 3.085938 -1.503906 3.140625 -1.3125 3.140625 -1.09375 C 3.140625 -0.757812 3.03125 -0.484375 2.8125 -0.265625 C 2.59375 -0.046875 2.296875 0.0625 1.921875 0.0625 Z M 1.921875 0.0625 "/></g></g></g><g fill="#000000" fill-opacity="1"><g transform="translate(283.053239, 125.896745)"><g/></g></g><g fill="#000000" fill-opacity="1"><g transform="translate(286.352562, 125.896745)"><g/></g></g><g fill="#000000" fill-opacity="1"><g transform="translate(563.431159, 113.989155)"><g/></g><g transform="translate(564.545655, 113.989155)"><g/></g></g><g fill="#000000" fill-opacity="1"><g transform="translate(565.663111, 113.989155)"><g><path d="M 1.5 -1.421875 L 0.234375 -1.421875 L 0.234375 -1.734375 L 1.5 -1.734375 Z M 1.5 -1.421875 "/></g></g><g transform="translate(567.385918, 113.989155)"><g><path d="M 1.5 -1.421875 L 0.234375 -1.421875 L 0.234375 -1.734375 L 1.5 -1.734375 Z M 1.5 -1.421875 "/></g></g><g transform="translate(569.108725, 113.989155)"><g><path d="M 1.5 -1.421875 L 0.234375 -1.421875 L 0.234375 -1.734375 L 1.5 -1.734375 Z M 1.5 -1.421875 "/></g></g><g transform="translate(570.831532, 113.989155)"><g><path d="M 1.5 -1.421875 L 0.234375 -1.421875 L 0.234375 -1.734375 L 1.5 -1.734375 Z M 1.5 -1.421875 "/></g></g><g transform="translate(572.554338, 113.989155)"><g><path d="M 1.5 -1.421875 L 0.234375 -1.421875 L 0.234375 -1.734375 L 1.5 -1.734375 Z M 1.5 -1.421875 "/></g></g></g><g fill="#000000" fill-opacity="1"><g transform="translate(563.431159, 116.641448)"><g/></g><g transform="translate(564.545655, 116.641448)"><g/></g></g><g fill="#000000" fill-opacity="1"><g transform="translate(703.620024, 113.989155)"><g/></g><g transform="translate(704.73452, 113.989155)"><g/></g></g><g fill="#000000" fill-opacity="1"><g transform="translate(705.851977, 113.989155)"><g/></g></g><g fill="#000000" fill-opacity="1"><g transform="translate(703.620024, 116.641448)"><g/></g><g transform="translate(704.73452, 116.641448)"><g/></g></g><g fill="#000000" fill-opacity="1"><g transform="translate(283.053239, 160.882194)"><g/></g></g><g fill="#000000" fill-opacity="1"><g transform="translate(286.352562, 160.882194)"><g/></g></g><g fill="#000000" fill-opacity="1"><g transform="translate(289.654371, 160.882194)"><g><path d="M 0.484375 -0.796875 C 0.484375 -1.347656 0.539062 -1.8125 0.65625 -2.1875 C 0.78125 -2.5625 0.976562 -2.90625 1.25 -3.21875 C 1.53125 -3.53125 1.921875 -3.867188 2.421875 -4.234375 L 3.75 -5.203125 C 4.113281 -5.453125 4.394531 -5.671875 4.59375 -5.859375 C 4.800781 -6.054688 4.957031 -6.257812 5.0625 -6.46875 C 5.164062 -6.675781 5.21875 -6.914062 5.21875 -7.1875 C 5.21875 -7.59375 5.09375 -7.90625 4.84375 -8.125 C 4.601562 -8.351562 4.234375 -8.46875 3.734375 -8.46875 C 3.265625 -8.46875 2.84375 -8.351562 2.46875 -8.125 C 2.101562 -7.894531 1.800781 -7.585938 1.5625 -7.203125 L 1.421875 -7.171875 L 0.34375 -8.375 C 0.695312 -8.90625 1.160156 -9.332031 1.734375 -9.65625 C 2.304688 -9.976562 3 -10.140625 3.8125 -10.140625 C 4.5625 -10.140625 5.1875 -10.015625 5.6875 -9.765625 C 6.195312 -9.523438 6.570312 -9.191406 6.8125 -8.765625 C 7.050781 -8.335938 7.171875 -7.847656 7.171875 -7.296875 C 7.171875 -6.816406 7.070312 -6.378906 6.875 -5.984375 C 6.675781 -5.597656 6.398438 -5.238281 6.046875 -4.90625 C 5.703125 -4.570312 5.253906 -4.210938 4.703125 -3.828125 L 3.53125 -3.015625 C 3.175781 -2.753906 2.925781 -2.523438 2.78125 -2.328125 C 2.644531 -2.128906 2.578125 -1.90625 2.578125 -1.65625 L 7.078125 -1.65625 L 7.078125 0 L 0.484375 0 Z M 0.484375 -0.796875 "/></g></g></g><g fill="#000000" fill-opacity="1"><g transform="translate(297.448421, 160.882194)"><g><path d="M 1.921875 0.0625 C 1.679688 0.0625 1.46875 0.015625 1.28125 -0.078125 C 1.101562 -0.179688 0.960938 -0.316406 0.859375 -0.484375 C 0.765625 -0.660156 0.71875 -0.859375 0.71875 -1.078125 C 0.71875 -1.296875 0.765625 -1.488281 0.859375 -1.65625 C 0.960938 -1.832031 1.101562 -1.972656 1.28125 -2.078125 C 1.46875 -2.179688 1.679688 -2.234375 1.921875 -2.234375 C 2.171875 -2.234375 2.382812 -2.179688 2.5625 -2.078125 C 2.75 -1.984375 2.890625 -1.847656 2.984375 -1.671875 C 3.085938 -1.503906 3.140625 -1.3125 3.140625 -1.09375 C 3.140625 -0.757812 3.03125 -0.484375 2.8125 -0.265625 C 2.59375 -0.046875 2.296875 0.0625 1.921875 0.0625 Z M 1.921875 0.0625 "/></g></g></g><g fill="#000000" fill-opacity="1"><g transform="translate(283.053239, 169.217974)"><g/></g></g><g fill="#000000" fill-opacity="1"><g transform="translate(286.352562, 169.217974)"><g/></g></g><g fill="#000000" fill-opacity="1"><g transform="translate(614.410847, 160.882194)"><g/></g></g><g fill="#000000" fill-opacity="1"><g transform="translate(617.71017, 160.882194)"><g/></g></g><g fill="#000000" fill-opacity="1"><g transform="translate(621.01198, 160.882194)"><g><path d="M 4.78125 -4.015625 L 0.59375 -4.015625 L 0.59375 -5.6875 L 4.78125 -5.6875 Z M 4.78125 -4.015625 "/></g></g></g><g fill="#000000" fill-opacity="1"><g transform="translate(626.401555, 160.882194)"><g><path d="M 4.78125 -4.015625 L 0.59375 -4.015625 L 0.59375 -5.6875 L 4.78125 -5.6875 Z M 4.78125 -4.015625 "/></g></g></g><g fill="#000000" fill-opacity="1"><g transform="translate(631.791131, 160.882194)"><g><path d="M 4.78125 -4.015625 L 0.59375 -4.015625 L 0.59375 -5.6875 L 4.78125 -5.6875 Z M 4.78125 -4.015625 "/></g></g></g><g fill="#000000" fill-opacity="1"><g transform="translate(637.180707, 160.882194)"><g><path d="M 4.78125 -4.015625 L 0.59375 -4.015625 L 0.59375 -5.6875 L 4.78125 -5.6875 Z M 4.78125 -4.015625 "/></g></g></g><g fill="#000000" fill-opacity="1"><g transform="translate(642.570283, 160.882194)"><g><path d="M 4.78125 -4.015625 L 0.59375 -4.015625 L 0.59375 -5.6875 L 4.78125 -5.6875 Z M 4.78125 -4.015625 "/></g></g></g><g fill="#000000" fill-opacity="1"><g transform="translate(627.885448, 169.217974)"><g/></g></g><g fill="#000000" fill-opacity="1"><g transform="translate(631.184771, 169.217974)"><g/></g></g><g fill="#000000" fill-opacity="1"><g transform="translate(703.620024, 179.06935)"><g/></g><g transform="translate(704.73452, 179.06935)"><g/></g></g><g fill="#000000" fill-opacity="1"><g transform="translate(705.851977, 179.06935)"><g/></g></g><g fill="#000000" fill-opacity="1"><g transform="translate(703.620024, 181.721644)"><g/></g><g transform="translate(704.73452, 181.721644)"><g/></g></g><g fill="#000000" fill-opacity="1"><g transform="translate(283.053239, 204.365138)"><g/></g></g><g fill="#000000" fill-opacity="1"><g transform="translate(286.352562, 204.365138)"><g/></g></g><g fill="#000000" fill-opacity="1"><g transform="translate(289.654371, 204.365138)"><g><path d="M 4.078125 0.140625 C 3.003906 0.140625 2.148438 -0.0820312 1.515625 -0.53125 C 0.890625 -0.988281 0.492188 -1.632812 0.328125 -2.46875 L 1.828125 -3.15625 L 1.984375 -3.125 C 2.148438 -2.570312 2.390625 -2.171875 2.703125 -1.921875 C 3.015625 -1.671875 3.445312 -1.546875 4 -1.546875 C 4.539062 -1.546875 4.953125 -1.671875 5.234375 -1.921875 C 5.515625 -2.171875 5.65625 -2.535156 5.65625 -3.015625 C 5.65625 -3.484375 5.515625 -3.84375 5.234375 -4.09375 C 4.953125 -4.34375 4.539062 -4.46875 4 -4.46875 L 2.5 -4.46875 L 2.5 -6.015625 L 3.8125 -6.015625 C 4.257812 -6.015625 4.613281 -6.125 4.875 -6.34375 C 5.144531 -6.5625 5.28125 -6.878906 5.28125 -7.296875 C 5.28125 -7.710938 5.15625 -8.019531 4.90625 -8.21875 C 4.65625 -8.425781 4.3125 -8.53125 3.875 -8.53125 C 3.425781 -8.53125 3.03125 -8.425781 2.6875 -8.21875 C 2.34375 -8.007812 2.066406 -7.726562 1.859375 -7.375 L 1.703125 -7.34375 L 0.65625 -8.5625 C 1.007812 -9.03125 1.460938 -9.410156 2.015625 -9.703125 C 2.566406 -9.992188 3.222656 -10.140625 3.984375 -10.140625 C 5.035156 -10.140625 5.835938 -9.921875 6.390625 -9.484375 C 6.941406 -9.046875 7.21875 -8.429688 7.21875 -7.640625 C 7.21875 -7.160156 7.101562 -6.75 6.875 -6.40625 C 6.65625 -6.070312 6.332031 -5.78125 5.90625 -5.53125 L 5.90625 -5.390625 C 7.0625 -4.984375 7.640625 -4.160156 7.640625 -2.921875 C 7.640625 -2.304688 7.503906 -1.765625 7.234375 -1.296875 C 6.972656 -0.835938 6.578125 -0.484375 6.046875 -0.234375 C 5.515625 0.015625 4.859375 0.140625 4.078125 0.140625 Z M 4.078125 0.140625 "/></g></g></g><g fill="#000000" fill-opacity="1"><g transform="translate(297.919749, 204.365138)"><g><path d="M 1.921875 0.0625 C 1.679688 0.0625 1.46875 0.015625 1.28125 -0.078125 C 1.101562 -0.179688 0.960938 -0.316406 0.859375 -0.484375 C 0.765625 -0.660156 0.71875 -0.859375 0.71875 -1.078125 C 0.71875 -1.296875 0.765625 -1.488281 0.859375 -1.65625 C 0.960938 -1.832031 1.101562 -1.972656 1.28125 -2.078125 C 1.46875 -2.179688 1.679688 -2.234375 1.921875 -2.234375 C 2.171875 -2.234375 2.382812 -2.179688 2.5625 -2.078125 C 2.75 -1.984375 2.890625 -1.847656 2.984375 -1.671875 C 3.085938 -1.503906 3.140625 -1.3125 3.140625 -1.09375 C 3.140625 -0.757812 3.03125 -0.484375 2.8125 -0.265625 C 2.59375 -0.046875 2.296875 0.0625 1.921875 0.0625 Z M 1.921875 0.0625 "/></g></g></g><g fill="#000000" fill-opacity="1"><g transform="translate(283.053239, 212.700918)"><g/></g></g><g fill="#000000" fill-opacity="1"><g transform="translate(286.352562, 212.700918)"><g/></g></g><g fill="#000000" fill-opacity="1"><g transform="translate(614.410847, 204.365138)"><g/></g></g><g fill="#000000" fill-opacity="1"><g transform="translate(617.71017, 204.365138)"><g/></g></g><g fill="#000000" fill-opacity="1"><g transform="translate(621.01198, 204.365138)"><g><path d="M 4.78125 -4.015625 L 0.59375 -4.015625 L 0.59375 -5.6875 L 4.78125 -5.6875 Z M 4.78125 -4.015625 "/></g></g></g><g fill="#000000" fill-opacity="1"><g transform="translate(626.401555, 204.365138)"><g><path d="M 4.78125 -4.015625 L 0.59375 -4.015625 L 0.59375 -5.6875 L 4.78125 -5.6875 Z M 4.78125 -4.015625 "/></g></g></g><g fill="#000000" fill-opacity="1"><g transform="translate(631.791131, 204.365138)"><g><path d="M 4.78125 -4.015625 L 0.59375 -4.015625 L 0.59375 -5.6875 L 4.78125 -5.6875 Z M 4.78125 -4.015625 "/></g></g></g><g fill="#000000" fill-opacity="1"><g transform="translate(637.180707, 204.365138)"><g><path d="M 4.78125 -4.015625 L 0.59375 -4.015625 L 0.59375 -5.6875 L 4.78125 -5.6875 Z M 4.78125 -4.015625 "/></g></g></g><g fill="#000000" fill-opacity="1"><g transform="translate(642.570283, 204.365138)"><g><path d="M 4.78125 -4.015625 L 0.59375 -4.015625 L 0.59375 -5.6875 L 4.78125 -5.6875 Z M 4.78125 -4.015625 "/></g></g></g><g fill="#000000" fill-opacity="1"><g transform="translate(627.885448, 212.700918)"><g/></g></g><g fill="#000000" fill-opacity="1"><g transform="translate(631.184771, 212.700918)"><g/></g></g><g fill="#000000" fill-opacity="1"><g transform="translate(283.053239, 247.848086)"><g/></g></g><g fill="#000000" fill-opacity="1"><g transform="translate(286.352562, 247.848086)"><g/></g></g><g fill="#000000" fill-opacity="1"><g transform="translate(289.654371, 247.848086)"><g><path d="M 6.78125 0 L 4.890625 0 L 4.890625 -2.171875 L 0.34375 -2.171875 L 0.34375 -3.765625 L 4.265625 -10 L 6.78125 -10 L 6.78125 -3.765625 L 8.328125 -3.765625 L 8.328125 -2.171875 L 6.78125 -2.171875 Z M 2.359375 -3.90625 L 2.421875 -3.765625 L 4.890625 -3.765625 L 4.890625 -7.640625 L 4.734375 -7.65625 Z M 2.359375 -3.90625 "/></g></g></g><g fill="#000000" fill-opacity="1"><g transform="translate(298.356926, 247.848086)"><g><path d="M 1.921875 0.0625 C 1.679688 0.0625 1.46875 0.015625 1.28125 -0.078125 C 1.101562 -0.179688 0.960938 -0.316406 0.859375 -0.484375 C 0.765625 -0.660156 0.71875 -0.859375 0.71875 -1.078125 C 0.71875 -1.296875 0.765625 -1.488281 0.859375 -1.65625 C 0.960938 -1.832031 1.101562 -1.972656 1.28125 -2.078125 C 1.46875 -2.179688 1.679688 -2.234375 1.921875 -2.234375 C 2.171875 -2.234375 2.382812 -2.179688 2.5625 -2.078125 C 2.75 -1.984375 2.890625 -1.847656 2.984375 -1.671875 C 3.085938 -1.503906 3.140625 -1.3125 3.140625 -1.09375 C 3.140625 -0.757812 3.03125 -0.484375 2.8125 -0.265625 C 2.59375 -0.046875 2.296875 0.0625 1.921875 0.0625 Z M 1.921875 0.0625 "/></g></g></g><g fill="#000000" fill-opacity="1"><g transform="translate(283.053239, 256.183866)"><g/></g></g><g fill="#000000" fill-opacity="1"><g transform="translate(286.352562, 256.183866)"><g/></g></g><g fill="#000000" fill-opacity="1"><g transform="translate(474.221838, 247.848086)"><g/></g></g><g fill="#000000" fill-opacity="1"><g transform="translate(477.521161, 247.848086)"><g/></g></g><g fill="#000000" fill-opacity="1"><g transform="translate(480.82297, 247.848086)"><g><path d="M 4.78125 -4.015625 L 0.59375 -4.015625 L 0.59375 -5.6875 L 4.78125 -5.6875 Z M 4.78125 -4.015625 "/></g></g></g><g fill="#000000" fill-opacity="1"><g transform="translate(486.212546, 247.848086)"><g><path d="M 4.78125 -4.015625 L 0.59375 -4.015625 L 0.59375 -5.6875 L 4.78125 -5.6875 Z M 4.78125 -4.015625 "/></g></g></g><g fill="#000000" fill-opacity="1"><g transform="translate(491.602122, 247.848086)"><g><path d="M 4.78125 -4.015625 L 0.59375 -4.015625 L 0.59375 -5.6875 L 4.78125 -5.6875 Z M 4.78125 -4.015625 "/></g></g></g><g fill="#000000" fill-opacity="1"><g transform="translate(496.991698, 247.848086)"><g><path d="M 4.78125 -4.015625 L 0.59375 -4.015625 L 0.59375 -5.6875 L 4.78125 -5.6875 Z M 4.78125 -4.015625 "/></g></g></g><g fill="#000000" fill-opacity="1"><g transform="translate(502.381274, 247.848086)"><g><path d="M 4.78125 -4.015625 L 0.59375 -4.015625 L 0.59375 -5.6875 L 4.78125 -5.6875 Z M 4.78125 -4.015625 "/></g></g></g><g fill="#000000" fill-opacity="1"><g transform="translate(487.696438, 256.183866)"><g/></g></g><g fill="#000000" fill-opacity="1"><g transform="translate(490.995762, 256.183866)"><g/></g></g><g fill="#000000" fill-opacity="1"><g transform="translate(563.431159, 247.848086)"><g/></g></g><g fill="#000000" fill-opacity="1"><g transform="translate(566.730482, 247.848086)"><g/></g></g><g fill="#000000" fill-opacity="1"><g transform="translate(570.032291, 247.848086)"><g/></g></g><g fill="#000000" fill-opacity="1"><g transform="translate(563.431159, 256.183866)"><g/></g></g><g fill="#000000" fill-opacity="1"><g transform="translate(566.730482, 256.183866)"><g/></g></g><g fill="#000000" fill-opacity="1"><g transform="translate(703.620024, 266.035242)"><g/></g><g transform="translate(704.73452, 266.035242)"><g/></g></g><g fill="#000000" fill-opacity="1"><g transform="translate(705.851977, 266.035242)"><g/></g></g><g fill="#000000" fill-opacity="1"><g transform="translate(703.620024, 268.687536)"><g/></g><g transform="translate(704.73452, 268.687536)"><g/></g></g><g fill="#000000" fill-opacity="1"><g transform="translate(283.053239, 291.331033)"><g/></g></g><g fill="#000000" fill-opacity="1"><g transform="translate(286.352562, 291.331033)"><g/></g></g><g fill="#000000" fill-opacity="1"><g transform="translate(289.654371, 291.331033)"><g><path d="M 4.15625 0.140625 C 3.164062 0.140625 2.375 -0.0664062 1.78125 -0.484375 C 1.195312 -0.898438 0.816406 -1.488281 0.640625 -2.25 L 2.140625 -2.90625 L 2.296875 -2.875 C 2.441406 -2.4375 2.660156 -2.101562 2.953125 -1.875 C 3.242188 -1.65625 3.640625 -1.546875 4.140625 -1.546875 C 4.660156 -1.546875 5.0625 -1.691406 5.34375 -1.984375 C 5.625 -2.285156 5.765625 -2.726562 5.765625 -3.3125 C 5.765625 -3.894531 5.625 -4.335938 5.34375 -4.640625 C 5.0625 -4.941406 4.679688 -5.09375 4.203125 -5.09375 C 3.835938 -5.09375 3.53125 -5.007812 3.28125 -4.84375 C 3.03125 -4.6875 2.816406 -4.453125 2.640625 -4.140625 L 1.015625 -4.265625 L 1.21875 -10 L 7.171875 -10 L 7.171875 -8.328125 L 2.875 -8.328125 L 2.78125 -5.78125 L 2.921875 -5.75 C 3.160156 -6.0625 3.441406 -6.296875 3.765625 -6.453125 C 4.085938 -6.609375 4.472656 -6.6875 4.921875 -6.6875 C 5.492188 -6.6875 5.992188 -6.554688 6.421875 -6.296875 C 6.847656 -6.046875 7.175781 -5.671875 7.40625 -5.171875 C 7.644531 -4.679688 7.765625 -4.070312 7.765625 -3.34375 C 7.765625 -2.613281 7.625 -1.988281 7.34375 -1.46875 C 7.0625 -0.945312 6.648438 -0.546875 6.109375 -0.265625 C 5.578125 0.00390625 4.925781 0.140625 4.15625 0.140625 Z M 4.15625 0.140625 "/></g></g></g><g fill="#000000" fill-opacity="1"><g transform="translate(298.070029, 291.331033)"><g><path d="M 1.921875 0.0625 C 1.679688 0.0625 1.46875 0.015625 1.28125 -0.078125 C 1.101562 -0.179688 0.960938 -0.316406 0.859375 -0.484375 C 0.765625 -0.660156 0.71875 -0.859375 0.71875 -1.078125 C 0.71875 -1.296875 0.765625 -1.488281 0.859375 -1.65625 C 0.960938 -1.832031 1.101562 -1.972656 1.28125 -2.078125 C 1.46875 -2.179688 1.679688 -2.234375 1.921875 -2.234375 C 2.171875 -2.234375 2.382812 -2.179688 2.5625 -2.078125 C 2.75 -1.984375 2.890625 -1.847656 2.984375 -1.671875 C 3.085938 -1.503906 3.140625 -1.3125 3.140625 -1.09375 C 3.140625 -0.757812 3.03125 -0.484375 2.8125 -0.265625 C 2.59375 -0.046875 2.296875 0.0625 1.921875 0.0625 Z M 1.921875 0.0625 "/></g></g></g><g fill="#000000" fill-opacity="1"><g transform="translate(301.929485, 291.331033)"><g/></g></g><g fill="#000000" fill-opacity="1"><g transform="translate(283.053239, 299.666813)"><g/></g></g><g fill="#000000" fill-opacity="1"><g transform="translate(286.352562, 299.666813)"><g/></g></g><g fill="#000000" fill-opacity="1"><g transform="translate(474.221838, 291.331033)"><g/></g></g><g fill="#000000" fill-opacity="1"><g transform="translate(477.521161, 291.331033)"><g/></g></g><g fill="#000000" fill-opacity="1"><g transform="translate(480.82297, 291.331033)"><g><path d="M 4.78125 -4.015625 L 0.59375 -4.015625 L 0.59375 -5.6875 L 4.78125 -5.6875 Z M 4.78125 -4.015625 "/></g></g></g><g fill="#000000" fill-opacity="1"><g transform="translate(486.212546, 291.331033)"><g><path d="M 4.78125 -4.015625 L 0.59375 -4.015625 L 0.59375 -5.6875 L 4.78125 -5.6875 Z M 4.78125 -4.015625 "/></g></g></g><g fill="#000000" fill-opacity="1"><g transform="translate(491.602122, 291.331033)"><g><path d="M 4.78125 -4.015625 L 0.59375 -4.015625 L 0.59375 -5.6875 L 4.78125 -5.6875 Z M 4.78125 -4.015625 "/></g></g></g><g fill="#000000" fill-opacity="1"><g transform="translate(496.991698, 291.331033)"><g><path d="M 4.78125 -4.015625 L 0.59375 -4.015625 L 0.59375 -5.6875 L 4.78125 -5.6875 Z M 4.78125 -4.015625 "/></g></g></g><g fill="#000000" fill-opacity="1"><g transform="translate(502.381274, 291.331033)"><g><path d="M 4.78125 -4.015625 L 0.59375 -4.015625 L 0.59375 -5.6875 L 4.78125 -5.6875 Z M 4.78125 -4.015625 "/></g></g></g><g fill="#000000" fill-opacity="1"><g transform="translate(487.696438, 299.666813)"><g/></g></g><g fill="#000000" fill-opacity="1"><g transform="translate(490.995762, 299.666813)"><g/></g></g><g fill="#000000" fill-opacity="1"><g transform="translate(563.431159, 291.331033)"><g/></g></g><g fill="#000000" fill-opacity="1"><g transform="translate(566.730482, 291.331033)"><g/></g></g><g fill="#000000" fill-opacity="1"><g transform="translate(570.032291, 291.331033)"><g/></g></g><g fill="#000000" fill-opacity="1"><g transform="translate(563.431159, 299.666813)"><g/></g></g><g fill="#000000" fill-opacity="1"><g transform="translate(566.730482, 299.666813)"><g/></g></g><g fill="#000000" fill-opacity="1"><g transform="translate(283.053239, 334.813978)"><g/></g></g><g fill="#000000" fill-opacity="1"><g transform="translate(286.352562, 334.813978)"><g/></g></g><g fill="#000000" fill-opacity="1"><g transform="translate(289.654371, 334.813978)"><g><path d="M 4.78125 0.140625 C 4.03125 0.140625 3.359375 -0.03125 2.765625 -0.375 C 2.171875 -0.71875 1.703125 -1.265625 1.359375 -2.015625 C 1.015625 -2.773438 0.84375 -3.738281 0.84375 -4.90625 C 0.84375 -6.082031 1.023438 -7.0625 1.390625 -7.84375 C 1.753906 -8.632812 2.25 -9.210938 2.875 -9.578125 C 3.507812 -9.953125 4.234375 -10.140625 5.046875 -10.140625 C 5.734375 -10.140625 6.320312 -10.039062 6.8125 -9.84375 C 7.300781 -9.644531 7.679688 -9.351562 7.953125 -8.96875 L 6.984375 -7.734375 L 6.8125 -7.734375 C 6.394531 -8.234375 5.804688 -8.484375 5.046875 -8.484375 C 3.628906 -8.484375 2.90625 -7.441406 2.875 -5.359375 L 3.015625 -5.3125 C 3.242188 -5.738281 3.546875 -6.0625 3.921875 -6.28125 C 4.304688 -6.507812 4.789062 -6.625 5.375 -6.625 C 5.988281 -6.625 6.519531 -6.492188 6.96875 -6.234375 C 7.425781 -5.972656 7.773438 -5.597656 8.015625 -5.109375 C 8.253906 -4.617188 8.375 -4.039062 8.375 -3.375 C 8.375 -2.644531 8.226562 -2.015625 7.9375 -1.484375 C 7.65625 -0.953125 7.242188 -0.546875 6.703125 -0.265625 C 6.160156 0.00390625 5.519531 0.140625 4.78125 0.140625 Z M 4.734375 -1.546875 C 5.253906 -1.546875 5.660156 -1.695312 5.953125 -2 C 6.242188 -2.300781 6.390625 -2.726562 6.390625 -3.28125 C 6.390625 -3.820312 6.242188 -4.242188 5.953125 -4.546875 C 5.660156 -4.847656 5.253906 -5 4.734375 -5 C 4.398438 -5 4.101562 -4.925781 3.84375 -4.78125 C 3.59375 -4.644531 3.398438 -4.445312 3.265625 -4.1875 C 3.128906 -3.925781 3.0625 -3.625 3.0625 -3.28125 C 3.0625 -2.738281 3.207031 -2.3125 3.5 -2 C 3.800781 -1.695312 4.210938 -1.546875 4.734375 -1.546875 Z M 4.734375 -1.546875 "/></g></g></g><g fill="#000000" fill-opacity="1"><g transform="translate(298.725794, 334.813978)"><g><path d="M 1.921875 0.0625 C 1.679688 0.0625 1.46875 0.015625 1.28125 -0.078125 C 1.101562 -0.179688 0.960938 -0.316406 0.859375 -0.484375 C 0.765625 -0.660156 0.71875 -0.859375 0.71875 -1.078125 C 0.71875 -1.296875 0.765625 -1.488281 0.859375 -1.65625 C 0.960938 -1.832031 1.101562 -1.972656 1.28125 -2.078125 C 1.46875 -2.179688 1.679688 -2.234375 1.921875 -2.234375 C 2.171875 -2.234375 2.382812 -2.179688 2.5625 -2.078125 C 2.75 -1.984375 2.890625 -1.847656 2.984375 -1.671875 C 3.085938 -1.503906 3.140625 -1.3125 3.140625 -1.09375 C 3.140625 -0.757812 3.03125 -0.484375 2.8125 -0.265625 C 2.59375 -0.046875 2.296875 0.0625 1.921875 0.0625 Z M 1.921875 0.0625 "/></g></g></g><g fill="#000000" fill-opacity="1"><g transform="translate(283.053239, 343.149758)"><g/></g></g><g fill="#000000" fill-opacity="1"><g transform="translate(286.352562, 343.149758)"><g/></g></g><g fill="#000000" fill-opacity="1"><g transform="translate(474.221838, 334.813978)"><g/></g></g><g fill="#000000" fill-opacity="1"><g transform="translate(477.521161, 334.813978)"><g/></g></g><g fill="#000000" fill-opacity="1"><g transform="translate(480.82297, 334.813978)"><g><path d="M 4.78125 -4.015625 L 0.59375 -4.015625 L 0.59375 -5.6875 L 4.78125 -5.6875 Z M 4.78125 -4.015625 "/></g></g></g><g fill="#000000" fill-opacity="1"><g transform="translate(486.212546, 334.813978)"><g><path d="M 4.78125 -4.015625 L 0.59375 -4.015625 L 0.59375 -5.6875 L 4.78125 -5.6875 Z M 4.78125 -4.015625 "/></g></g></g><g fill="#000000" fill-opacity="1"><g transform="translate(491.602122, 334.813978)"><g><path d="M 4.78125 -4.015625 L 0.59375 -4.015625 L 0.59375 -5.6875 L 4.78125 -5.6875 Z M 4.78125 -4.015625 "/></g></g></g><g fill="#000000" fill-opacity="1"><g transform="translate(496.991698, 334.813978)"><g><path d="M 4.78125 -4.015625 L 0.59375 -4.015625 L 0.59375 -5.6875 L 4.78125 -5.6875 Z M 4.78125 -4.015625 "/></g></g></g><g fill="#000000" fill-opacity="1"><g transform="translate(502.381274, 334.813978)"><g><path d="M 4.78125 -4.015625 L 0.59375 -4.015625 L 0.59375 -5.6875 L 4.78125 -5.6875 Z M 4.78125 -4.015625 "/></g></g></g><g fill="#000000" fill-opacity="1"><g transform="translate(487.696438, 343.149758)"><g/></g></g><g fill="#000000" fill-opacity="1"><g transform="translate(490.995762, 343.149758)"><g/></g></g><g fill="#000000" fill-opacity="1"><g transform="translate(563.431159, 334.813978)"><g/></g></g><g fill="#000000" fill-opacity="1"><g transform="translate(566.730482, 334.813978)"><g/></g></g><g fill="#000000" fill-opacity="1"><g transform="translate(570.032291, 334.813978)"><g/></g></g><g fill="#000000" fill-opacity="1"><g transform="translate(563.431159, 343.149758)"><g/></g></g><g fill="#000000" fill-opacity="1"><g transform="translate(566.730482, 343.149758)"><g/></g></g><g fill="#000000" fill-opacity="1"><g transform="translate(703.620024, 331.403886)"><g/></g><g transform="translate(704.73452, 331.403886)"><g/></g></g><g fill="#000000" fill-opacity="1"><g transform="translate(705.851977, 331.403886)"><g/></g></g><g fill="#000000" fill-opacity="1"><g transform="translate(703.620024, 334.05618)"><g/></g><g transform="translate(704.73452, 334.05618)"><g/></g></g><g clip-path="url(#b166e16d99)"><path stroke-linecap="butt" transform="matrix(0.749706, 0, 0, 0.749706, 0, 2.967794)" fill-opacity="1" fill="#000000" fill-rule="nonzero" stroke-linejoin="miter" d="M 0.286571 0.782832 L 0.286571 464.214446 M 187.276517 0.782832 L 187.276517 464.214446 M 374.266463 117.000251 L 374.266463 464.214446 M 561.261619 117.000251 L 561.261619 464.214446 M 748.251565 58.784729 L 748.251565 464.214446 M 935.241511 0.782832 L 935.241511 464.214446 M 1122.236668 0.782832 L 1122.236668 464.214446 M 0 0.501472 L 373.766267 0.501472 M 561.761815 0.501472 L 1122.518028 0.501472 M 0 58.498158 L 373.766267 58.498158 M 561.761815 58.498158 L 935.528082 58.498158 M 561.761815 116.500055 L 1122.518028 116.500055 M 373.985102 174.501952 L 1122.518028 174.501952 M 373.985102 232.498639 L 935.528082 232.498639 M 373.985102 290.500536 L 1122.518028 290.500536 M 373.985102 348.502433 L 935.528082 348.502433 M 373.985102 406.49912 L 1122.518028 406.49912 M 0 464.501017 L 1122.518028 464.501017 " stroke="#000000" stroke-width="0.568571" stroke-opacity="1" stroke-miterlimit="4"/></g><path fill="#000000" d="M 280.589844 3.71875 L 280.589844 89.933594 M 420.78125 3.71875 L 420.78125 89.933594 M 280.214844 3.34375 L 421.15625 3.34375 M 280.214844 90.308594 L 421.15625 90.308594 " fill-opacity="1" fill-rule="nonzero"/><g clip-path="url(#880a41d6b3)"><path stroke-linecap="butt" transform="matrix(0.749706, 0, 0, 0.749706, 0, 2.967794)" fill="none" stroke-linejoin="miter" d="M 374.266463 1.001668 L 374.266463 115.999859 M 561.261619 1.001668 L 561.261619 115.999859 M 373.766267 0.501472 L 561.761815 0.501472 M 373.766267 116.500055 L 561.761815 116.500055 " stroke="#000000" stroke-width="1" stroke-opacity="1" stroke-miterlimit="4"/></g></svg>