<svg xmlns="http://www.w3.org/2000/svg" xmlns:xlink="http://www.w3.org/1999/xlink" width="300" zoomAndPan="magnify" viewBox="0 0 224.87999 74.999997" height="100" preserveAspectRatio="xMidYMid meet" version="1.0"><defs><g/><clipPath id="bc3bd307b8"><path d="M 0 0.0195312 L 224.761719 0.0195312 L 224.761719 74.980469 L 0 74.980469 Z M 0 0.0195312 " clip-rule="nonzero"/></clipPath><clipPath id="8d0b1caad9"><path d="M 2.664062 1.855469 L 223 1.855469 L 223 73.816406 L 2.664062 73.816406 Z M 2.664062 1.855469 " clip-rule="nonzero"/></clipPath></defs><g clip-path="url(#bc3bd307b8)"><path fill="#ffffff" d="M 0 0.0195312 L 224.878906 0.0195312 L 224.878906 74.980469 L 0 74.980469 Z M 0 0.0195312 " fill-opacity="1" fill-rule="nonzero"/><path fill="#ffffff" d="M 0 0.0195312 L 224.878906 0.0195312 L 224.878906 74.980469 L 0 74.980469 Z M 0 0.0195312 " fill-opacity="1" fill-rule="nonzero"/></g><g fill="#004aad" fill-opacity="1"><g transform="translate(3.523631, 9.757118)"><g><path d="M 2.078125 -4.015625 C 2.359375 -4.015625 2.601562 -3.960938 2.8125 -3.859375 C 3.019531 -3.753906 3.175781 -3.601562 3.28125 -3.40625 C 3.382812 -3.21875 3.4375 -3 3.4375 -2.75 C 3.4375 -2.5 3.382812 -2.28125 3.28125 -2.09375 C 3.175781 -1.90625 3.019531 -1.757812 2.8125 -1.65625 C 2.601562 -1.550781 2.359375 -1.5 2.078125 -1.5 L 1.3125 -1.5 L 1.3125 0 L 0.515625 0 L 0.515625 -4.015625 Z M 1.96875 -2.125 C 2.40625 -2.125 2.625 -2.332031 2.625 -2.75 C 2.625 -3.175781 2.40625 -3.390625 1.96875 -3.390625 L 1.3125 -3.390625 L 1.3125 -2.125 Z M 1.96875 -2.125 "/></g></g><g transform="translate(7.197857, 9.757118)"><g><path d="M 3 -1.34375 L 1.046875 -1.34375 C 1.066406 -1.082031 1.140625 -0.890625 1.265625 -0.765625 C 1.398438 -0.648438 1.578125 -0.59375 1.796875 -0.59375 C 1.972656 -0.59375 2.113281 -0.625 2.21875 -0.6875 C 2.320312 -0.75 2.410156 -0.847656 2.484375 -0.984375 L 2.53125 -0.984375 L 3.046875 -0.65625 C 2.941406 -0.445312 2.789062 -0.273438 2.59375 -0.140625 C 2.394531 -0.00390625 2.128906 0.0625 1.796875 0.0625 C 1.484375 0.0625 1.210938 0.00390625 0.984375 -0.109375 C 0.753906 -0.234375 0.578125 -0.410156 0.453125 -0.640625 C 0.328125 -0.878906 0.265625 -1.171875 0.265625 -1.515625 C 0.265625 -1.859375 0.328125 -2.144531 0.453125 -2.375 C 0.585938 -2.613281 0.765625 -2.789062 0.984375 -2.90625 C 1.210938 -3.03125 1.460938 -3.09375 1.734375 -3.09375 C 2.171875 -3.09375 2.5 -2.976562 2.71875 -2.75 C 2.945312 -2.519531 3.0625 -2.1875 3.0625 -1.75 C 3.0625 -1.59375 3.054688 -1.46875 3.046875 -1.375 Z M 2.34375 -1.828125 C 2.332031 -2.066406 2.273438 -2.238281 2.171875 -2.34375 C 2.078125 -2.445312 1.929688 -2.5 1.734375 -2.5 C 1.359375 -2.5 1.132812 -2.273438 1.0625 -1.828125 Z M 2.34375 -1.828125 "/></g></g><g transform="translate(10.49531, 9.757118)"><g><path d="M 0.4375 1.234375 L 0.4375 -3.03125 L 1.203125 -3.03125 L 1.203125 -2.640625 L 1.25 -2.625 C 1.34375 -2.78125 1.460938 -2.894531 1.609375 -2.96875 C 1.765625 -3.050781 1.941406 -3.09375 2.140625 -3.09375 C 2.378906 -3.09375 2.585938 -3.03125 2.765625 -2.90625 C 2.953125 -2.789062 3.097656 -2.613281 3.203125 -2.375 C 3.304688 -2.144531 3.359375 -1.859375 3.359375 -1.515625 C 3.359375 -1.171875 3.300781 -0.878906 3.1875 -0.640625 C 3.082031 -0.410156 2.9375 -0.234375 2.75 -0.109375 C 2.5625 0.00390625 2.34375 0.0625 2.09375 0.0625 C 1.90625 0.0625 1.738281 0.03125 1.59375 -0.03125 C 1.457031 -0.09375 1.34375 -0.191406 1.25 -0.328125 L 1.203125 -0.328125 L 1.203125 1.234375 Z M 1.875 -0.59375 C 2.101562 -0.59375 2.273438 -0.664062 2.390625 -0.8125 C 2.515625 -0.957031 2.578125 -1.191406 2.578125 -1.515625 C 2.578125 -1.835938 2.515625 -2.070312 2.390625 -2.21875 C 2.273438 -2.363281 2.101562 -2.4375 1.875 -2.4375 C 1.664062 -2.4375 1.5 -2.359375 1.375 -2.203125 C 1.25 -2.054688 1.1875 -1.828125 1.1875 -1.515625 C 1.1875 -1.203125 1.25 -0.96875 1.375 -0.8125 C 1.5 -0.664062 1.664062 -0.59375 1.875 -0.59375 Z M 1.875 -0.59375 "/></g></g><g transform="translate(14.128284, 9.757118)"><g><path d="M 2.09375 -0.71875 L 2.28125 -0.15625 C 2.207031 -0.09375 2.109375 -0.0390625 1.984375 0 C 1.859375 0.0390625 1.710938 0.0625 1.546875 0.0625 C 1.222656 0.0625 0.972656 -0.0234375 0.796875 -0.203125 C 0.628906 -0.390625 0.546875 -0.648438 0.546875 -0.984375 L 0.546875 -2.421875 L 0.09375 -2.421875 L 0.09375 -3.03125 L 0.546875 -3.03125 L 0.546875 -3.625 L 1.3125 -3.75 L 1.3125 -3.03125 L 2.171875 -3.03125 L 2.171875 -2.421875 L 1.3125 -2.421875 L 1.3125 -1.046875 C 1.3125 -0.890625 1.34375 -0.773438 1.40625 -0.703125 C 1.46875 -0.640625 1.554688 -0.609375 1.671875 -0.609375 C 1.804688 -0.609375 1.925781 -0.644531 2.03125 -0.71875 Z M 2.09375 -0.71875 "/></g></g><g transform="translate(16.485179, 9.757118)"><g><path d="M 1.765625 0.0625 C 1.460938 0.0625 1.195312 0 0.96875 -0.125 C 0.75 -0.25 0.578125 -0.425781 0.453125 -0.65625 C 0.328125 -0.894531 0.265625 -1.179688 0.265625 -1.515625 C 0.265625 -1.847656 0.328125 -2.128906 0.453125 -2.359375 C 0.578125 -2.597656 0.75 -2.78125 0.96875 -2.90625 C 1.195312 -3.03125 1.460938 -3.09375 1.765625 -3.09375 C 2.054688 -3.09375 2.3125 -3.03125 2.53125 -2.90625 C 2.757812 -2.78125 2.9375 -2.597656 3.0625 -2.359375 C 3.1875 -2.128906 3.25 -1.847656 3.25 -1.515625 C 3.25 -1.179688 3.1875 -0.894531 3.0625 -0.65625 C 2.9375 -0.425781 2.757812 -0.25 2.53125 -0.125 C 2.3125 0 2.054688 0.0625 1.765625 0.0625 Z M 1.765625 -0.59375 C 2.234375 -0.59375 2.46875 -0.898438 2.46875 -1.515625 C 2.46875 -1.835938 2.40625 -2.070312 2.28125 -2.21875 C 2.164062 -2.363281 1.992188 -2.4375 1.765625 -2.4375 C 1.296875 -2.4375 1.0625 -2.128906 1.0625 -1.515625 C 1.0625 -0.898438 1.296875 -0.59375 1.765625 -0.59375 Z M 1.765625 -0.59375 "/></g></g><g transform="translate(20.010897, 9.757118)"><g><path d="M 0.4375 0 L 0.4375 -3.03125 L 1.171875 -3.03125 L 1.171875 -2.578125 L 1.21875 -2.578125 C 1.414062 -2.921875 1.722656 -3.09375 2.140625 -3.09375 C 2.492188 -3.09375 2.75 -2.992188 2.90625 -2.796875 C 3.070312 -2.609375 3.15625 -2.332031 3.15625 -1.96875 L 3.15625 0 L 2.390625 0 L 2.390625 -1.875 C 2.390625 -2.070312 2.347656 -2.210938 2.265625 -2.296875 C 2.191406 -2.390625 2.066406 -2.4375 1.890625 -2.4375 C 1.671875 -2.4375 1.5 -2.363281 1.375 -2.21875 C 1.257812 -2.082031 1.203125 -1.863281 1.203125 -1.5625 L 1.203125 0 Z M 0.4375 0 "/></g></g><g transform="translate(23.564115, 9.757118)"><g><path d="M 3 -1.34375 L 1.046875 -1.34375 C 1.066406 -1.082031 1.140625 -0.890625 1.265625 -0.765625 C 1.398438 -0.648438 1.578125 -0.59375 1.796875 -0.59375 C 1.972656 -0.59375 2.113281 -0.625 2.21875 -0.6875 C 2.320312 -0.75 2.410156 -0.847656 2.484375 -0.984375 L 2.53125 -0.984375 L 3.046875 -0.65625 C 2.941406 -0.445312 2.789062 -0.273438 2.59375 -0.140625 C 2.394531 -0.00390625 2.128906 0.0625 1.796875 0.0625 C 1.484375 0.0625 1.210938 0.00390625 0.984375 -0.109375 C 0.753906 -0.234375 0.578125 -0.410156 0.453125 -0.640625 C 0.328125 -0.878906 0.265625 -1.171875 0.265625 -1.515625 C 0.265625 -1.859375 0.328125 -2.144531 0.453125 -2.375 C 0.585938 -2.613281 0.765625 -2.789062 0.984375 -2.90625 C 1.210938 -3.03125 1.460938 -3.09375 1.734375 -3.09375 C 2.171875 -3.09375 2.5 -2.976562 2.71875 -2.75 C 2.945312 -2.519531 3.0625 -2.1875 3.0625 -1.75 C 3.0625 -1.59375 3.054688 -1.46875 3.046875 -1.375 Z M 2.34375 -1.828125 C 2.332031 -2.066406 2.273438 -2.238281 2.171875 -2.34375 C 2.078125 -2.445312 1.929688 -2.5 1.734375 -2.5 C 1.359375 -2.5 1.132812 -2.273438 1.0625 -1.828125 Z M 2.34375 -1.828125 "/></g></g></g><g fill="#000000" fill-opacity="1"><g transform="translate(113.550094, 9.757118)"><g><path d="M 0.21875 0 L 0.21875 -0.65625 L 1.1875 -0.65625 L 1.1875 -3.15625 L 1.125 -3.171875 C 0.976562 -3.109375 0.835938 -3.054688 0.703125 -3.015625 C 0.578125 -2.972656 0.429688 -2.941406 0.265625 -2.921875 L 0.265625 -3.609375 C 0.703125 -3.703125 1.0625 -3.835938 1.34375 -4.015625 L 1.96875 -4.015625 L 1.96875 -0.65625 L 2.828125 -0.65625 L 2.828125 0 Z M 0.21875 0 "/></g></g><g transform="translate(116.517527, 9.757118)"><g><path d="M 1.96875 0.0625 C 1.632812 0.0625 1.34375 -0.0078125 1.09375 -0.15625 C 0.851562 -0.300781 0.664062 -0.523438 0.53125 -0.828125 C 0.40625 -1.140625 0.34375 -1.53125 0.34375 -2 C 0.34375 -2.476562 0.40625 -2.867188 0.53125 -3.171875 C 0.664062 -3.484375 0.851562 -3.710938 1.09375 -3.859375 C 1.34375 -4.003906 1.632812 -4.078125 1.96875 -4.078125 C 2.289062 -4.078125 2.570312 -4.003906 2.8125 -3.859375 C 3.0625 -3.710938 3.253906 -3.484375 3.390625 -3.171875 C 3.523438 -2.867188 3.59375 -2.476562 3.59375 -2 C 3.59375 -1.53125 3.523438 -1.140625 3.390625 -0.828125 C 3.253906 -0.523438 3.0625 -0.300781 2.8125 -0.15625 C 2.570312 -0.0078125 2.289062 0.0625 1.96875 0.0625 Z M 1.96875 -0.609375 C 2.144531 -0.609375 2.289062 -0.648438 2.40625 -0.734375 C 2.53125 -0.828125 2.625 -0.972656 2.6875 -1.171875 C 2.75 -1.378906 2.78125 -1.65625 2.78125 -2 C 2.78125 -2.351562 2.75 -2.628906 2.6875 -2.828125 C 2.625 -3.035156 2.53125 -3.179688 2.40625 -3.265625 C 2.289062 -3.359375 2.144531 -3.40625 1.96875 -3.40625 C 1.78125 -3.40625 1.625 -3.359375 1.5 -3.265625 C 1.382812 -3.179688 1.296875 -3.035156 1.234375 -2.828125 C 1.171875 -2.628906 1.140625 -2.351562 1.140625 -2 C 1.140625 -1.65625 1.171875 -1.378906 1.234375 -1.171875 C 1.296875 -0.972656 1.382812 -0.828125 1.5 -0.734375 C 1.625 -0.648438 1.78125 -0.609375 1.96875 -0.609375 Z M 1.96875 -0.609375 "/></g></g><g transform="translate(120.447519, 9.757118)"><g><path d="M 0.78125 0.03125 C 0.675781 0.03125 0.585938 0.0078125 0.515625 -0.03125 C 0.441406 -0.0703125 0.382812 -0.125 0.34375 -0.1875 C 0.300781 -0.257812 0.28125 -0.34375 0.28125 -0.4375 C 0.28125 -0.519531 0.300781 -0.597656 0.34375 -0.671875 C 0.382812 -0.742188 0.441406 -0.796875 0.515625 -0.828125 C 0.585938 -0.867188 0.675781 -0.890625 0.78125 -0.890625 C 0.875 -0.890625 0.957031 -0.867188 1.03125 -0.828125 C 1.101562 -0.796875 1.160156 -0.742188 1.203125 -0.671875 C 1.242188 -0.597656 1.265625 -0.519531 1.265625 -0.4375 C 1.265625 -0.300781 1.21875 -0.1875 1.125 -0.09375 C 1.039062 -0.0078125 0.925781 0.03125 0.78125 0.03125 Z M 0.78125 0.03125 "/></g></g><g transform="translate(122.001365, 9.757118)"><g><path d="M 1.96875 0.0625 C 1.632812 0.0625 1.34375 -0.0078125 1.09375 -0.15625 C 0.851562 -0.300781 0.664062 -0.523438 0.53125 -0.828125 C 0.40625 -1.140625 0.34375 -1.53125 0.34375 -2 C 0.34375 -2.476562 0.40625 -2.867188 0.53125 -3.171875 C 0.664062 -3.484375 0.851562 -3.710938 1.09375 -3.859375 C 1.34375 -4.003906 1.632812 -4.078125 1.96875 -4.078125 C 2.289062 -4.078125 2.570312 -4.003906 2.8125 -3.859375 C 3.0625 -3.710938 3.253906 -3.484375 3.390625 -3.171875 C 3.523438 -2.867188 3.59375 -2.476562 3.59375 -2 C 3.59375 -1.53125 3.523438 -1.140625 3.390625 -0.828125 C 3.253906 -0.523438 3.0625 -0.300781 2.8125 -0.15625 C 2.570312 -0.0078125 2.289062 0.0625 1.96875 0.0625 Z M 1.96875 -0.609375 C 2.144531 -0.609375 2.289062 -0.648438 2.40625 -0.734375 C 2.53125 -0.828125 2.625 -0.972656 2.6875 -1.171875 C 2.75 -1.378906 2.78125 -1.65625 2.78125 -2 C 2.78125 -2.351562 2.75 -2.628906 2.6875 -2.828125 C 2.625 -3.035156 2.53125 -3.179688 2.40625 -3.265625 C 2.289062 -3.359375 2.144531 -3.40625 1.96875 -3.40625 C 1.78125 -3.40625 1.625 -3.359375 1.5 -3.265625 C 1.382812 -3.179688 1.296875 -3.035156 1.234375 -2.828125 C 1.171875 -2.628906 1.140625 -2.351562 1.140625 -2 C 1.140625 -1.65625 1.171875 -1.378906 1.234375 -1.171875 C 1.296875 -0.972656 1.382812 -0.828125 1.5 -0.734375 C 1.625 -0.648438 1.78125 -0.609375 1.96875 -0.609375 Z M 1.96875 -0.609375 "/></g></g><g transform="translate(125.931357, 9.757118)"><g/></g><g transform="translate(127.259689, 9.757118)"><g><path d="M 1.578125 1.28125 C 1.078125 1.28125 0.707031 1.207031 0.46875 1.0625 C 0.226562 0.914062 0.109375 0.710938 0.109375 0.453125 C 0.109375 0.296875 0.15625 0.164062 0.25 0.0625 C 0.351562 -0.0390625 0.503906 -0.109375 0.703125 -0.140625 L 0.703125 -0.203125 C 0.597656 -0.265625 0.519531 -0.332031 0.46875 -0.40625 C 0.425781 -0.476562 0.40625 -0.566406 0.40625 -0.671875 C 0.40625 -0.910156 0.566406 -1.078125 0.890625 -1.171875 L 0.890625 -1.21875 C 0.722656 -1.3125 0.597656 -1.425781 0.515625 -1.5625 C 0.429688 -1.707031 0.390625 -1.878906 0.390625 -2.078125 C 0.390625 -2.273438 0.4375 -2.445312 0.53125 -2.59375 C 0.625 -2.75 0.757812 -2.867188 0.9375 -2.953125 C 1.113281 -3.046875 1.328125 -3.09375 1.578125 -3.09375 C 1.828125 -3.09375 2.03125 -3.046875 2.1875 -2.953125 C 2.28125 -3.085938 2.332031 -3.242188 2.34375 -3.421875 L 2.40625 -3.453125 L 2.953125 -3.328125 C 2.929688 -3.179688 2.882812 -3.054688 2.8125 -2.953125 C 2.75 -2.859375 2.644531 -2.773438 2.5 -2.703125 L 2.5 -2.640625 C 2.675781 -2.492188 2.765625 -2.285156 2.765625 -2.015625 C 2.765625 -1.828125 2.71875 -1.65625 2.625 -1.5 C 2.53125 -1.351562 2.394531 -1.238281 2.21875 -1.15625 C 2.039062 -1.070312 1.828125 -1.03125 1.578125 -1.03125 L 1.46875 -1.03125 C 1.394531 -1.03125 1.34375 -1.03125 1.3125 -1.03125 C 1.238281 -1.03125 1.179688 -1.007812 1.140625 -0.96875 C 1.109375 -0.9375 1.09375 -0.890625 1.09375 -0.828125 C 1.09375 -0.765625 1.113281 -0.710938 1.15625 -0.671875 C 1.207031 -0.640625 1.285156 -0.625 1.390625 -0.625 L 2.0625 -0.59375 C 2.738281 -0.582031 3.078125 -0.296875 3.078125 0.265625 C 3.078125 0.460938 3.023438 0.632812 2.921875 0.78125 C 2.828125 0.9375 2.664062 1.054688 2.4375 1.140625 C 2.21875 1.234375 1.929688 1.28125 1.578125 1.28125 Z M 1.578125 -1.5625 C 1.722656 -1.5625 1.835938 -1.601562 1.921875 -1.6875 C 2.003906 -1.769531 2.046875 -1.894531 2.046875 -2.0625 C 2.046875 -2.21875 2.003906 -2.335938 1.921875 -2.421875 C 1.835938 -2.503906 1.722656 -2.546875 1.578125 -2.546875 C 1.429688 -2.546875 1.316406 -2.503906 1.234375 -2.421875 C 1.148438 -2.335938 1.109375 -2.21875 1.109375 -2.0625 C 1.109375 -1.894531 1.148438 -1.769531 1.234375 -1.6875 C 1.316406 -1.601562 1.429688 -1.5625 1.578125 -1.5625 Z M 1.578125 0.734375 C 1.835938 0.734375 2.023438 0.695312 2.140625 0.625 C 2.253906 0.550781 2.3125 0.457031 2.3125 0.34375 C 2.3125 0.238281 2.28125 0.164062 2.21875 0.125 C 2.164062 0.0820312 2.070312 0.0625 1.9375 0.0625 L 1.34375 0.03125 C 1.320312 0.03125 1.300781 0.0234375 1.28125 0.015625 C 1.257812 0.015625 1.242188 0.015625 1.234375 0.015625 C 1.097656 0.015625 1 0.0390625 0.9375 0.09375 C 0.875 0.15625 0.84375 0.234375 0.84375 0.328125 C 0.84375 0.460938 0.898438 0.5625 1.015625 0.625 C 1.140625 0.695312 1.328125 0.734375 1.578125 0.734375 Z M 1.578125 0.734375 "/></g></g></g><g fill="#004aad" fill-opacity="1"><g transform="translate(3.523631, 21.686703)"><g><path d="M 1.296875 0 L 0.515625 0 L 0.515625 -4.015625 L 1.4375 -4.015625 L 3.046875 -1.421875 L 3.109375 -1.4375 L 3.109375 -4.015625 L 3.875 -4.015625 L 3.875 0 L 3.0625 0 L 1.359375 -2.765625 L 1.296875 -2.75 Z M 1.296875 0 "/></g></g><g transform="translate(7.932152, 21.686703)"><g><path d="M 1.1875 0.0625 C 0.988281 0.0625 0.816406 0.0234375 0.671875 -0.046875 C 0.535156 -0.117188 0.425781 -0.222656 0.34375 -0.359375 C 0.269531 -0.503906 0.234375 -0.671875 0.234375 -0.859375 C 0.234375 -1.035156 0.269531 -1.1875 0.34375 -1.3125 C 0.425781 -1.4375 0.546875 -1.535156 0.703125 -1.609375 C 0.859375 -1.691406 1.066406 -1.753906 1.328125 -1.796875 C 1.515625 -1.828125 1.65625 -1.859375 1.75 -1.890625 C 1.84375 -1.921875 1.90625 -1.957031 1.9375 -2 C 1.96875 -2.050781 1.984375 -2.109375 1.984375 -2.171875 C 1.984375 -2.273438 1.945312 -2.347656 1.875 -2.390625 C 1.8125 -2.441406 1.703125 -2.46875 1.546875 -2.46875 C 1.378906 -2.46875 1.21875 -2.429688 1.0625 -2.359375 C 0.914062 -2.285156 0.785156 -2.1875 0.671875 -2.0625 L 0.625 -2.0625 L 0.296875 -2.546875 C 0.453125 -2.710938 0.640625 -2.84375 0.859375 -2.9375 C 1.078125 -3.039062 1.320312 -3.09375 1.59375 -3.09375 C 1.988281 -3.09375 2.273438 -3.003906 2.453125 -2.828125 C 2.640625 -2.660156 2.734375 -2.421875 2.734375 -2.109375 L 2.734375 -0.796875 C 2.734375 -0.660156 2.789062 -0.59375 2.90625 -0.59375 C 2.945312 -0.59375 2.992188 -0.597656 3.046875 -0.609375 L 3.078125 -0.59375 L 3.140625 -0.078125 C 3.097656 -0.046875 3.035156 -0.0195312 2.953125 0 C 2.878906 0.0078125 2.796875 0.015625 2.703125 0.015625 C 2.523438 0.015625 2.382812 -0.015625 2.28125 -0.078125 C 2.1875 -0.148438 2.113281 -0.257812 2.0625 -0.40625 L 2.015625 -0.421875 C 1.859375 -0.0976562 1.582031 0.0625 1.1875 0.0625 Z M 1.421875 -0.515625 C 1.597656 -0.515625 1.738281 -0.570312 1.84375 -0.6875 C 1.945312 -0.800781 2 -0.96875 2 -1.1875 L 2 -1.484375 L 1.953125 -1.5 C 1.898438 -1.457031 1.835938 -1.425781 1.765625 -1.40625 C 1.691406 -1.382812 1.585938 -1.359375 1.453125 -1.328125 C 1.285156 -1.304688 1.164062 -1.257812 1.09375 -1.1875 C 1.019531 -1.125 0.984375 -1.03125 0.984375 -0.90625 C 0.984375 -0.78125 1.019531 -0.679688 1.09375 -0.609375 C 1.175781 -0.546875 1.285156 -0.515625 1.421875 -0.515625 Z M 1.421875 -0.515625 "/></g></g><g transform="translate(11.130599, 21.686703)"><g><path d="M 1.765625 0.0625 C 1.472656 0.0625 1.210938 0 0.984375 -0.125 C 0.765625 -0.25 0.585938 -0.425781 0.453125 -0.65625 C 0.328125 -0.894531 0.265625 -1.179688 0.265625 -1.515625 C 0.265625 -1.847656 0.328125 -2.128906 0.453125 -2.359375 C 0.585938 -2.597656 0.765625 -2.78125 0.984375 -2.90625 C 1.210938 -3.03125 1.46875 -3.09375 1.75 -3.09375 C 2.382812 -3.09375 2.796875 -2.859375 2.984375 -2.390625 L 2.453125 -2.015625 L 2.40625 -2.015625 C 2.34375 -2.160156 2.257812 -2.265625 2.15625 -2.328125 C 2.050781 -2.398438 1.914062 -2.4375 1.75 -2.4375 C 1.53125 -2.4375 1.359375 -2.359375 1.234375 -2.203125 C 1.117188 -2.054688 1.0625 -1.828125 1.0625 -1.515625 C 1.0625 -1.203125 1.117188 -0.96875 1.234375 -0.8125 C 1.359375 -0.664062 1.535156 -0.59375 1.765625 -0.59375 C 1.929688 -0.59375 2.070312 -0.632812 2.1875 -0.71875 C 2.300781 -0.8125 2.382812 -0.941406 2.4375 -1.109375 L 2.484375 -1.109375 L 3.03125 -0.8125 C 2.957031 -0.550781 2.816406 -0.335938 2.609375 -0.171875 C 2.398438 -0.015625 2.117188 0.0625 1.765625 0.0625 Z M 1.765625 0.0625 "/></g></g><g transform="translate(14.257542, 21.686703)"><g><path d="M 1.265625 0.0625 C 0.984375 0.0625 0.769531 -0.0078125 0.625 -0.15625 C 0.488281 -0.3125 0.421875 -0.535156 0.421875 -0.828125 L 0.421875 -4.25 L 1.171875 -4.25 L 1.171875 -0.859375 C 1.171875 -0.679688 1.25 -0.59375 1.40625 -0.59375 C 1.445312 -0.59375 1.492188 -0.597656 1.546875 -0.609375 L 1.59375 -0.59375 L 1.65625 -0.015625 C 1.613281 0.00390625 1.554688 0.0195312 1.484375 0.03125 C 1.421875 0.0507812 1.347656 0.0625 1.265625 0.0625 Z M 1.265625 0.0625 "/></g></g></g><g fill="#000000" fill-opacity="1"><g transform="translate(113.550094, 21.686703)"><g><path d="M 1.671875 0.0625 C 1.273438 0.0625 0.957031 -0.0195312 0.71875 -0.1875 C 0.476562 -0.363281 0.328125 -0.601562 0.265625 -0.90625 L 0.859375 -1.171875 L 0.921875 -1.15625 C 0.984375 -0.976562 1.070312 -0.84375 1.1875 -0.75 C 1.300781 -0.664062 1.460938 -0.625 1.671875 -0.625 C 1.878906 -0.625 2.035156 -0.679688 2.140625 -0.796875 C 2.253906 -0.921875 2.3125 -1.097656 2.3125 -1.328125 C 2.3125 -1.566406 2.253906 -1.742188 2.140625 -1.859375 C 2.035156 -1.984375 1.882812 -2.046875 1.6875 -2.046875 C 1.539062 -2.046875 1.414062 -2.015625 1.3125 -1.953125 C 1.21875 -1.890625 1.132812 -1.796875 1.0625 -1.671875 L 0.40625 -1.71875 L 0.484375 -4.015625 L 2.875 -4.015625 L 2.875 -3.34375 L 1.15625 -3.34375 L 1.125 -2.328125 L 1.171875 -2.3125 C 1.265625 -2.4375 1.375 -2.53125 1.5 -2.59375 C 1.632812 -2.65625 1.796875 -2.6875 1.984375 -2.6875 C 2.210938 -2.6875 2.410156 -2.632812 2.578125 -2.53125 C 2.753906 -2.425781 2.890625 -2.273438 2.984375 -2.078125 C 3.078125 -1.878906 3.125 -1.632812 3.125 -1.34375 C 3.125 -1.050781 3.066406 -0.800781 2.953125 -0.59375 C 2.835938 -0.382812 2.671875 -0.222656 2.453125 -0.109375 C 2.234375 0.00390625 1.972656 0.0625 1.671875 0.0625 Z M 1.671875 0.0625 "/></g></g><g transform="translate(116.938303, 21.686703)"><g><path d="M 0.78125 0.03125 C 0.675781 0.03125 0.585938 0.0078125 0.515625 -0.03125 C 0.441406 -0.0703125 0.382812 -0.125 0.34375 -0.1875 C 0.300781 -0.257812 0.28125 -0.34375 0.28125 -0.4375 C 0.28125 -0.519531 0.300781 -0.597656 0.34375 -0.671875 C 0.382812 -0.742188 0.441406 -0.796875 0.515625 -0.828125 C 0.585938 -0.867188 0.675781 -0.890625 0.78125 -0.890625 C 0.875 -0.890625 0.957031 -0.867188 1.03125 -0.828125 C 1.101562 -0.796875 1.160156 -0.742188 1.203125 -0.671875 C 1.242188 -0.597656 1.265625 -0.519531 1.265625 -0.4375 C 1.265625 -0.300781 1.21875 -0.1875 1.125 -0.09375 C 1.039062 -0.0078125 0.925781 0.03125 0.78125 0.03125 Z M 0.78125 0.03125 "/></g></g><g transform="translate(118.492148, 21.686703)"><g><path d="M 1.96875 0.0625 C 1.632812 0.0625 1.34375 -0.0078125 1.09375 -0.15625 C 0.851562 -0.300781 0.664062 -0.523438 0.53125 -0.828125 C 0.40625 -1.140625 0.34375 -1.53125 0.34375 -2 C 0.34375 -2.476562 0.40625 -2.867188 0.53125 -3.171875 C 0.664062 -3.484375 0.851562 -3.710938 1.09375 -3.859375 C 1.34375 -4.003906 1.632812 -4.078125 1.96875 -4.078125 C 2.289062 -4.078125 2.570312 -4.003906 2.8125 -3.859375 C 3.0625 -3.710938 3.253906 -3.484375 3.390625 -3.171875 C 3.523438 -2.867188 3.59375 -2.476562 3.59375 -2 C 3.59375 -1.53125 3.523438 -1.140625 3.390625 -0.828125 C 3.253906 -0.523438 3.0625 -0.300781 2.8125 -0.15625 C 2.570312 -0.0078125 2.289062 0.0625 1.96875 0.0625 Z M 1.96875 -0.609375 C 2.144531 -0.609375 2.289062 -0.648438 2.40625 -0.734375 C 2.53125 -0.828125 2.625 -0.972656 2.6875 -1.171875 C 2.75 -1.378906 2.78125 -1.65625 2.78125 -2 C 2.78125 -2.351562 2.75 -2.628906 2.6875 -2.828125 C 2.625 -3.035156 2.53125 -3.179688 2.40625 -3.265625 C 2.289062 -3.359375 2.144531 -3.40625 1.96875 -3.40625 C 1.78125 -3.40625 1.625 -3.359375 1.5 -3.265625 C 1.382812 -3.179688 1.296875 -3.035156 1.234375 -2.828125 C 1.171875 -2.628906 1.140625 -2.351562 1.140625 -2 C 1.140625 -1.65625 1.171875 -1.378906 1.234375 -1.171875 C 1.296875 -0.972656 1.382812 -0.828125 1.5 -0.734375 C 1.625 -0.648438 1.78125 -0.609375 1.96875 -0.609375 Z M 1.96875 -0.609375 "/></g></g><g transform="translate(122.422141, 21.686703)"><g/></g><g transform="translate(123.750472, 21.686703)"><g><path d="M 1.578125 1.28125 C 1.078125 1.28125 0.707031 1.207031 0.46875 1.0625 C 0.226562 0.914062 0.109375 0.710938 0.109375 0.453125 C 0.109375 0.296875 0.15625 0.164062 0.25 0.0625 C 0.351562 -0.0390625 0.503906 -0.109375 0.703125 -0.140625 L 0.703125 -0.203125 C 0.597656 -0.265625 0.519531 -0.332031 0.46875 -0.40625 C 0.425781 -0.476562 0.40625 -0.566406 0.40625 -0.671875 C 0.40625 -0.910156 0.566406 -1.078125 0.890625 -1.171875 L 0.890625 -1.21875 C 0.722656 -1.3125 0.597656 -1.425781 0.515625 -1.5625 C 0.429688 -1.707031 0.390625 -1.878906 0.390625 -2.078125 C 0.390625 -2.273438 0.4375 -2.445312 0.53125 -2.59375 C 0.625 -2.75 0.757812 -2.867188 0.9375 -2.953125 C 1.113281 -3.046875 1.328125 -3.09375 1.578125 -3.09375 C 1.828125 -3.09375 2.03125 -3.046875 2.1875 -2.953125 C 2.28125 -3.085938 2.332031 -3.242188 2.34375 -3.421875 L 2.40625 -3.453125 L 2.953125 -3.328125 C 2.929688 -3.179688 2.882812 -3.054688 2.8125 -2.953125 C 2.75 -2.859375 2.644531 -2.773438 2.5 -2.703125 L 2.5 -2.640625 C 2.675781 -2.492188 2.765625 -2.285156 2.765625 -2.015625 C 2.765625 -1.828125 2.71875 -1.65625 2.625 -1.5 C 2.53125 -1.351562 2.394531 -1.238281 2.21875 -1.15625 C 2.039062 -1.070312 1.828125 -1.03125 1.578125 -1.03125 L 1.46875 -1.03125 C 1.394531 -1.03125 1.34375 -1.03125 1.3125 -1.03125 C 1.238281 -1.03125 1.179688 -1.007812 1.140625 -0.96875 C 1.109375 -0.9375 1.09375 -0.890625 1.09375 -0.828125 C 1.09375 -0.765625 1.113281 -0.710938 1.15625 -0.671875 C 1.207031 -0.640625 1.285156 -0.625 1.390625 -0.625 L 2.0625 -0.59375 C 2.738281 -0.582031 3.078125 -0.296875 3.078125 0.265625 C 3.078125 0.460938 3.023438 0.632812 2.921875 0.78125 C 2.828125 0.9375 2.664062 1.054688 2.4375 1.140625 C 2.21875 1.234375 1.929688 1.28125 1.578125 1.28125 Z M 1.578125 -1.5625 C 1.722656 -1.5625 1.835938 -1.601562 1.921875 -1.6875 C 2.003906 -1.769531 2.046875 -1.894531 2.046875 -2.0625 C 2.046875 -2.21875 2.003906 -2.335938 1.921875 -2.421875 C 1.835938 -2.503906 1.722656 -2.546875 1.578125 -2.546875 C 1.429688 -2.546875 1.316406 -2.503906 1.234375 -2.421875 C 1.148438 -2.335938 1.109375 -2.21875 1.109375 -2.0625 C 1.109375 -1.894531 1.148438 -1.769531 1.234375 -1.6875 C 1.316406 -1.601562 1.429688 -1.5625 1.578125 -1.5625 Z M 1.578125 0.734375 C 1.835938 0.734375 2.023438 0.695312 2.140625 0.625 C 2.253906 0.550781 2.3125 0.457031 2.3125 0.34375 C 2.3125 0.238281 2.28125 0.164062 2.21875 0.125 C 2.164062 0.0820312 2.070312 0.0625 1.9375 0.0625 L 1.34375 0.03125 C 1.320312 0.03125 1.300781 0.0234375 1.28125 0.015625 C 1.257812 0.015625 1.242188 0.015625 1.234375 0.015625 C 1.097656 0.015625 1 0.0390625 0.9375 0.09375 C 0.875 0.15625 0.84375 0.234375 0.84375 0.328125 C 0.84375 0.460938 0.898438 0.5625 1.015625 0.625 C 1.140625 0.695312 1.328125 0.734375 1.578125 0.734375 Z M 1.578125 0.734375 "/></g></g></g><g fill="#004aad" fill-opacity="1"><g transform="translate(3.523631, 33.616292)"><g><path d="M 1.953125 0.0625 C 1.617188 0.0625 1.328125 -0.015625 1.078125 -0.171875 C 0.835938 -0.328125 0.648438 -0.554688 0.515625 -0.859375 C 0.378906 -1.171875 0.3125 -1.550781 0.3125 -2 C 0.3125 -2.457031 0.390625 -2.84375 0.546875 -3.15625 C 0.710938 -3.46875 0.9375 -3.695312 1.21875 -3.84375 C 1.5 -4 1.828125 -4.078125 2.203125 -4.078125 C 2.585938 -4.078125 2.914062 -4.003906 3.1875 -3.859375 C 3.457031 -3.710938 3.644531 -3.5 3.75 -3.21875 L 3.171875 -2.875 L 3.109375 -2.875 C 3.023438 -3.050781 2.90625 -3.179688 2.75 -3.265625 C 2.601562 -3.347656 2.421875 -3.390625 2.203125 -3.390625 C 1.859375 -3.390625 1.59375 -3.28125 1.40625 -3.0625 C 1.226562 -2.84375 1.140625 -2.488281 1.140625 -2 C 1.140625 -1.519531 1.222656 -1.171875 1.390625 -0.953125 C 1.554688 -0.734375 1.8125 -0.625 2.15625 -0.625 C 2.4375 -0.625 2.644531 -0.6875 2.78125 -0.8125 C 2.925781 -0.945312 3 -1.140625 3 -1.390625 L 3 -1.578125 L 2.046875 -1.578125 L 2.046875 -2.21875 L 3.78125 -2.21875 L 3.78125 0 L 3.03125 0 L 3.03125 -0.53125 L 2.96875 -0.546875 C 2.882812 -0.359375 2.757812 -0.207031 2.59375 -0.09375 C 2.425781 0.0078125 2.210938 0.0625 1.953125 0.0625 Z M 1.953125 0.0625 "/></g></g><g transform="translate(7.717639, 33.616292)"><g><path d="M 1.265625 0.0625 C 0.984375 0.0625 0.769531 -0.0078125 0.625 -0.15625 C 0.488281 -0.3125 0.421875 -0.535156 0.421875 -0.828125 L 0.421875 -4.25 L 1.171875 -4.25 L 1.171875 -0.859375 C 1.171875 -0.679688 1.25 -0.59375 1.40625 -0.59375 C 1.445312 -0.59375 1.492188 -0.597656 1.546875 -0.609375 L 1.59375 -0.59375 L 1.65625 -0.015625 C 1.613281 0.00390625 1.554688 0.0195312 1.484375 0.03125 C 1.421875 0.0507812 1.347656 0.0625 1.265625 0.0625 Z M 1.265625 0.0625 "/></g></g><g transform="translate(9.461247, 33.616292)"><g><path d="M 1.390625 0.0625 C 1.046875 0.0625 0.789062 -0.03125 0.625 -0.21875 C 0.46875 -0.40625 0.390625 -0.671875 0.390625 -1.015625 L 0.390625 -3.03125 L 1.15625 -3.03125 L 1.15625 -1.125 C 1.15625 -0.9375 1.191406 -0.796875 1.265625 -0.703125 C 1.347656 -0.617188 1.472656 -0.578125 1.640625 -0.578125 C 1.847656 -0.578125 2.007812 -0.644531 2.125 -0.78125 C 2.25 -0.925781 2.3125 -1.144531 2.3125 -1.4375 L 2.3125 -3.03125 L 3.0625 -3.03125 L 3.0625 0 L 2.34375 0 L 2.34375 -0.4375 L 2.28125 -0.453125 C 2.1875 -0.285156 2.066406 -0.15625 1.921875 -0.0625 C 1.785156 0.0195312 1.609375 0.0625 1.390625 0.0625 Z M 1.390625 0.0625 "/></g></g><g transform="translate(12.970463, 33.616292)"><g><path d="M 1.765625 0.0625 C 1.472656 0.0625 1.210938 0 0.984375 -0.125 C 0.765625 -0.25 0.585938 -0.425781 0.453125 -0.65625 C 0.328125 -0.894531 0.265625 -1.179688 0.265625 -1.515625 C 0.265625 -1.847656 0.328125 -2.128906 0.453125 -2.359375 C 0.585938 -2.597656 0.765625 -2.78125 0.984375 -2.90625 C 1.210938 -3.03125 1.46875 -3.09375 1.75 -3.09375 C 2.382812 -3.09375 2.796875 -2.859375 2.984375 -2.390625 L 2.453125 -2.015625 L 2.40625 -2.015625 C 2.34375 -2.160156 2.257812 -2.265625 2.15625 -2.328125 C 2.050781 -2.398438 1.914062 -2.4375 1.75 -2.4375 C 1.53125 -2.4375 1.359375 -2.359375 1.234375 -2.203125 C 1.117188 -2.054688 1.0625 -1.828125 1.0625 -1.515625 C 1.0625 -1.203125 1.117188 -0.96875 1.234375 -0.8125 C 1.359375 -0.664062 1.535156 -0.59375 1.765625 -0.59375 C 1.929688 -0.59375 2.070312 -0.632812 2.1875 -0.71875 C 2.300781 -0.8125 2.382812 -0.941406 2.4375 -1.109375 L 2.484375 -1.109375 L 3.03125 -0.8125 C 2.957031 -0.550781 2.816406 -0.335938 2.609375 -0.171875 C 2.398438 -0.015625 2.117188 0.0625 1.765625 0.0625 Z M 1.765625 0.0625 "/></g></g><g transform="translate(16.097405, 33.616292)"><g><path d="M 1.765625 0.0625 C 1.460938 0.0625 1.195312 0 0.96875 -0.125 C 0.75 -0.25 0.578125 -0.425781 0.453125 -0.65625 C 0.328125 -0.894531 0.265625 -1.179688 0.265625 -1.515625 C 0.265625 -1.847656 0.328125 -2.128906 0.453125 -2.359375 C 0.578125 -2.597656 0.75 -2.78125 0.96875 -2.90625 C 1.195312 -3.03125 1.460938 -3.09375 1.765625 -3.09375 C 2.054688 -3.09375 2.3125 -3.03125 2.53125 -2.90625 C 2.757812 -2.78125 2.9375 -2.597656 3.0625 -2.359375 C 3.1875 -2.128906 3.25 -1.847656 3.25 -1.515625 C 3.25 -1.179688 3.1875 -0.894531 3.0625 -0.65625 C 2.9375 -0.425781 2.757812 -0.25 2.53125 -0.125 C 2.3125 0 2.054688 0.0625 1.765625 0.0625 Z M 1.765625 -0.59375 C 2.234375 -0.59375 2.46875 -0.898438 2.46875 -1.515625 C 2.46875 -1.835938 2.40625 -2.070312 2.28125 -2.21875 C 2.164062 -2.363281 1.992188 -2.4375 1.765625 -2.4375 C 1.296875 -2.4375 1.0625 -2.128906 1.0625 -1.515625 C 1.0625 -0.898438 1.296875 -0.59375 1.765625 -0.59375 Z M 1.765625 -0.59375 "/></g></g><g transform="translate(19.623123, 33.616292)"><g><path d="M 1.421875 0.0625 C 1.210938 0.0625 1.019531 0.0351562 0.84375 -0.015625 C 0.675781 -0.0664062 0.53125 -0.132812 0.40625 -0.21875 C 0.28125 -0.300781 0.191406 -0.398438 0.140625 -0.515625 L 0.5625 -0.96875 L 0.625 -0.96875 C 0.71875 -0.832031 0.832031 -0.726562 0.96875 -0.65625 C 1.113281 -0.59375 1.265625 -0.5625 1.421875 -0.5625 C 1.566406 -0.5625 1.675781 -0.585938 1.75 -0.640625 C 1.832031 -0.691406 1.875 -0.765625 1.875 -0.859375 C 1.875 -0.941406 1.84375 -1.007812 1.78125 -1.0625 C 1.726562 -1.113281 1.644531 -1.15625 1.53125 -1.1875 L 1.125 -1.28125 C 0.820312 -1.351562 0.601562 -1.460938 0.46875 -1.609375 C 0.332031 -1.753906 0.265625 -1.941406 0.265625 -2.171875 C 0.265625 -2.359375 0.3125 -2.519531 0.40625 -2.65625 C 0.5 -2.800781 0.632812 -2.910156 0.8125 -2.984375 C 0.988281 -3.054688 1.191406 -3.09375 1.421875 -3.09375 C 1.691406 -3.09375 1.914062 -3.050781 2.09375 -2.96875 C 2.28125 -2.882812 2.421875 -2.78125 2.515625 -2.65625 L 2.109375 -2.21875 L 2.0625 -2.21875 C 1.976562 -2.3125 1.882812 -2.378906 1.78125 -2.421875 C 1.675781 -2.460938 1.554688 -2.484375 1.421875 -2.484375 C 1.117188 -2.484375 0.96875 -2.390625 0.96875 -2.203125 C 0.96875 -2.128906 0.992188 -2.066406 1.046875 -2.015625 C 1.109375 -1.960938 1.207031 -1.921875 1.34375 -1.890625 L 1.71875 -1.8125 C 2.03125 -1.75 2.253906 -1.644531 2.390625 -1.5 C 2.535156 -1.351562 2.609375 -1.15625 2.609375 -0.90625 C 2.609375 -0.71875 2.5625 -0.550781 2.46875 -0.40625 C 2.375 -0.257812 2.234375 -0.144531 2.046875 -0.0625 C 1.867188 0.0195312 1.660156 0.0625 1.421875 0.0625 Z M 1.421875 0.0625 "/></g></g><g transform="translate(22.420045, 33.616292)"><g><path d="M 3 -1.34375 L 1.046875 -1.34375 C 1.066406 -1.082031 1.140625 -0.890625 1.265625 -0.765625 C 1.398438 -0.648438 1.578125 -0.59375 1.796875 -0.59375 C 1.972656 -0.59375 2.113281 -0.625 2.21875 -0.6875 C 2.320312 -0.75 2.410156 -0.847656 2.484375 -0.984375 L 2.53125 -0.984375 L 3.046875 -0.65625 C 2.941406 -0.445312 2.789062 -0.273438 2.59375 -0.140625 C 2.394531 -0.00390625 2.128906 0.0625 1.796875 0.0625 C 1.484375 0.0625 1.210938 0.00390625 0.984375 -0.109375 C 0.753906 -0.234375 0.578125 -0.410156 0.453125 -0.640625 C 0.328125 -0.878906 0.265625 -1.171875 0.265625 -1.515625 C 0.265625 -1.859375 0.328125 -2.144531 0.453125 -2.375 C 0.585938 -2.613281 0.765625 -2.789062 0.984375 -2.90625 C 1.210938 -3.03125 1.460938 -3.09375 1.734375 -3.09375 C 2.171875 -3.09375 2.5 -2.976562 2.71875 -2.75 C 2.945312 -2.519531 3.0625 -2.1875 3.0625 -1.75 C 3.0625 -1.59375 3.054688 -1.46875 3.046875 -1.375 Z M 2.34375 -1.828125 C 2.332031 -2.066406 2.273438 -2.238281 2.171875 -2.34375 C 2.078125 -2.445312 1.929688 -2.5 1.734375 -2.5 C 1.359375 -2.5 1.132812 -2.273438 1.0625 -1.828125 Z M 2.34375 -1.828125 "/></g></g></g><g fill="#004aad" fill-opacity="1"><g transform="translate(25.722998, 33.616292)"><g/></g></g><g fill="#000000" fill-opacity="1"><g transform="translate(113.550094, 33.616292)"><g><path d="M 2.734375 0 L 1.96875 0 L 1.96875 -0.875 L 0.140625 -0.875 L 0.140625 -1.515625 L 1.71875 -4.015625 L 2.734375 -4.015625 L 2.734375 -1.515625 L 3.34375 -1.515625 L 3.34375 -0.875 L 2.734375 -0.875 Z M 0.953125 -1.578125 L 0.96875 -1.515625 L 1.96875 -1.515625 L 1.96875 -3.0625 L 1.90625 -3.078125 Z M 0.953125 -1.578125 "/></g></g><g transform="translate(117.05381, 33.616292)"><g><path d="M 1.96875 0.0625 C 1.632812 0.0625 1.34375 -0.0078125 1.09375 -0.15625 C 0.851562 -0.300781 0.664062 -0.523438 0.53125 -0.828125 C 0.40625 -1.140625 0.34375 -1.53125 0.34375 -2 C 0.34375 -2.476562 0.40625 -2.867188 0.53125 -3.171875 C 0.664062 -3.484375 0.851562 -3.710938 1.09375 -3.859375 C 1.34375 -4.003906 1.632812 -4.078125 1.96875 -4.078125 C 2.289062 -4.078125 2.570312 -4.003906 2.8125 -3.859375 C 3.0625 -3.710938 3.253906 -3.484375 3.390625 -3.171875 C 3.523438 -2.867188 3.59375 -2.476562 3.59375 -2 C 3.59375 -1.53125 3.523438 -1.140625 3.390625 -0.828125 C 3.253906 -0.523438 3.0625 -0.300781 2.8125 -0.15625 C 2.570312 -0.0078125 2.289062 0.0625 1.96875 0.0625 Z M 1.96875 -0.609375 C 2.144531 -0.609375 2.289062 -0.648438 2.40625 -0.734375 C 2.53125 -0.828125 2.625 -0.972656 2.6875 -1.171875 C 2.75 -1.378906 2.78125 -1.65625 2.78125 -2 C 2.78125 -2.351562 2.75 -2.628906 2.6875 -2.828125 C 2.625 -3.035156 2.53125 -3.179688 2.40625 -3.265625 C 2.289062 -3.359375 2.144531 -3.40625 1.96875 -3.40625 C 1.78125 -3.40625 1.625 -3.359375 1.5 -3.265625 C 1.382812 -3.179688 1.296875 -3.035156 1.234375 -2.828125 C 1.171875 -2.628906 1.140625 -2.351562 1.140625 -2 C 1.140625 -1.65625 1.171875 -1.378906 1.234375 -1.171875 C 1.296875 -0.972656 1.382812 -0.828125 1.5 -0.734375 C 1.625 -0.648438 1.78125 -0.609375 1.96875 -0.609375 Z M 1.96875 -0.609375 "/></g></g><g transform="translate(120.983802, 33.616292)"><g><path d="M 0.78125 0.03125 C 0.675781 0.03125 0.585938 0.0078125 0.515625 -0.03125 C 0.441406 -0.0703125 0.382812 -0.125 0.34375 -0.1875 C 0.300781 -0.257812 0.28125 -0.34375 0.28125 -0.4375 C 0.28125 -0.519531 0.300781 -0.597656 0.34375 -0.671875 C 0.382812 -0.742188 0.441406 -0.796875 0.515625 -0.828125 C 0.585938 -0.867188 0.675781 -0.890625 0.78125 -0.890625 C 0.875 -0.890625 0.957031 -0.867188 1.03125 -0.828125 C 1.101562 -0.796875 1.160156 -0.742188 1.203125 -0.671875 C 1.242188 -0.597656 1.265625 -0.519531 1.265625 -0.4375 C 1.265625 -0.300781 1.21875 -0.1875 1.125 -0.09375 C 1.039062 -0.0078125 0.925781 0.03125 0.78125 0.03125 Z M 0.78125 0.03125 "/></g></g><g transform="translate(122.537648, 33.616292)"><g><path d="M 1.96875 0.0625 C 1.632812 0.0625 1.34375 -0.0078125 1.09375 -0.15625 C 0.851562 -0.300781 0.664062 -0.523438 0.53125 -0.828125 C 0.40625 -1.140625 0.34375 -1.53125 0.34375 -2 C 0.34375 -2.476562 0.40625 -2.867188 0.53125 -3.171875 C 0.664062 -3.484375 0.851562 -3.710938 1.09375 -3.859375 C 1.34375 -4.003906 1.632812 -4.078125 1.96875 -4.078125 C 2.289062 -4.078125 2.570312 -4.003906 2.8125 -3.859375 C 3.0625 -3.710938 3.253906 -3.484375 3.390625 -3.171875 C 3.523438 -2.867188 3.59375 -2.476562 3.59375 -2 C 3.59375 -1.53125 3.523438 -1.140625 3.390625 -0.828125 C 3.253906 -0.523438 3.0625 -0.300781 2.8125 -0.15625 C 2.570312 -0.0078125 2.289062 0.0625 1.96875 0.0625 Z M 1.96875 -0.609375 C 2.144531 -0.609375 2.289062 -0.648438 2.40625 -0.734375 C 2.53125 -0.828125 2.625 -0.972656 2.6875 -1.171875 C 2.75 -1.378906 2.78125 -1.65625 2.78125 -2 C 2.78125 -2.351562 2.75 -2.628906 2.6875 -2.828125 C 2.625 -3.035156 2.53125 -3.179688 2.40625 -3.265625 C 2.289062 -3.359375 2.144531 -3.40625 1.96875 -3.40625 C 1.78125 -3.40625 1.625 -3.359375 1.5 -3.265625 C 1.382812 -3.179688 1.296875 -3.035156 1.234375 -2.828125 C 1.171875 -2.628906 1.140625 -2.351562 1.140625 -2 C 1.140625 -1.65625 1.171875 -1.378906 1.234375 -1.171875 C 1.296875 -0.972656 1.382812 -0.828125 1.5 -0.734375 C 1.625 -0.648438 1.78125 -0.609375 1.96875 -0.609375 Z M 1.96875 -0.609375 "/></g></g><g transform="translate(126.46764, 33.616292)"><g/></g><g transform="translate(127.795972, 33.616292)"><g><path d="M 1.578125 1.28125 C 1.078125 1.28125 0.707031 1.207031 0.46875 1.0625 C 0.226562 0.914062 0.109375 0.710938 0.109375 0.453125 C 0.109375 0.296875 0.15625 0.164062 0.25 0.0625 C 0.351562 -0.0390625 0.503906 -0.109375 0.703125 -0.140625 L 0.703125 -0.203125 C 0.597656 -0.265625 0.519531 -0.332031 0.46875 -0.40625 C 0.425781 -0.476562 0.40625 -0.566406 0.40625 -0.671875 C 0.40625 -0.910156 0.566406 -1.078125 0.890625 -1.171875 L 0.890625 -1.21875 C 0.722656 -1.3125 0.597656 -1.425781 0.515625 -1.5625 C 0.429688 -1.707031 0.390625 -1.878906 0.390625 -2.078125 C 0.390625 -2.273438 0.4375 -2.445312 0.53125 -2.59375 C 0.625 -2.75 0.757812 -2.867188 0.9375 -2.953125 C 1.113281 -3.046875 1.328125 -3.09375 1.578125 -3.09375 C 1.828125 -3.09375 2.03125 -3.046875 2.1875 -2.953125 C 2.28125 -3.085938 2.332031 -3.242188 2.34375 -3.421875 L 2.40625 -3.453125 L 2.953125 -3.328125 C 2.929688 -3.179688 2.882812 -3.054688 2.8125 -2.953125 C 2.75 -2.859375 2.644531 -2.773438 2.5 -2.703125 L 2.5 -2.640625 C 2.675781 -2.492188 2.765625 -2.285156 2.765625 -2.015625 C 2.765625 -1.828125 2.71875 -1.65625 2.625 -1.5 C 2.53125 -1.351562 2.394531 -1.238281 2.21875 -1.15625 C 2.039062 -1.070312 1.828125 -1.03125 1.578125 -1.03125 L 1.46875 -1.03125 C 1.394531 -1.03125 1.34375 -1.03125 1.3125 -1.03125 C 1.238281 -1.03125 1.179688 -1.007812 1.140625 -0.96875 C 1.109375 -0.9375 1.09375 -0.890625 1.09375 -0.828125 C 1.09375 -0.765625 1.113281 -0.710938 1.15625 -0.671875 C 1.207031 -0.640625 1.285156 -0.625 1.390625 -0.625 L 2.0625 -0.59375 C 2.738281 -0.582031 3.078125 -0.296875 3.078125 0.265625 C 3.078125 0.460938 3.023438 0.632812 2.921875 0.78125 C 2.828125 0.9375 2.664062 1.054688 2.4375 1.140625 C 2.21875 1.234375 1.929688 1.28125 1.578125 1.28125 Z M 1.578125 -1.5625 C 1.722656 -1.5625 1.835938 -1.601562 1.921875 -1.6875 C 2.003906 -1.769531 2.046875 -1.894531 2.046875 -2.0625 C 2.046875 -2.21875 2.003906 -2.335938 1.921875 -2.421875 C 1.835938 -2.503906 1.722656 -2.546875 1.578125 -2.546875 C 1.429688 -2.546875 1.316406 -2.503906 1.234375 -2.421875 C 1.148438 -2.335938 1.109375 -2.21875 1.109375 -2.0625 C 1.109375 -1.894531 1.148438 -1.769531 1.234375 -1.6875 C 1.316406 -1.601562 1.429688 -1.5625 1.578125 -1.5625 Z M 1.578125 0.734375 C 1.835938 0.734375 2.023438 0.695312 2.140625 0.625 C 2.253906 0.550781 2.3125 0.457031 2.3125 0.34375 C 2.3125 0.238281 2.28125 0.164062 2.21875 0.125 C 2.164062 0.0820312 2.070312 0.0625 1.9375 0.0625 L 1.34375 0.03125 C 1.320312 0.03125 1.300781 0.0234375 1.28125 0.015625 C 1.257812 0.015625 1.242188 0.015625 1.234375 0.015625 C 1.097656 0.015625 1 0.0390625 0.9375 0.09375 C 0.875 0.15625 0.84375 0.234375 0.84375 0.328125 C 0.84375 0.460938 0.898438 0.5625 1.015625 0.625 C 1.140625 0.695312 1.328125 0.734375 1.578125 0.734375 Z M 1.578125 0.734375 "/></g></g></g><g fill="#000000" fill-opacity="1"><g transform="translate(130.953166, 33.616292)"><g/></g><g transform="translate(132.281498, 33.616292)"><g/></g></g><g fill="#004aad" fill-opacity="1"><g transform="translate(3.523631, 45.545878)"><g><path d="M 3.859375 0 L 3.015625 0 L 2.71875 -0.921875 L 1.171875 -0.921875 L 0.875 0 L 0.0625 0 L 1.453125 -4.015625 L 2.46875 -4.015625 Z M 1.90625 -3.171875 L 1.390625 -1.59375 L 2.5 -1.59375 L 1.984375 -3.171875 Z M 1.90625 -3.171875 "/></g></g><g transform="translate(7.442622, 45.545878)"><g><path d="M 1.578125 1.28125 C 1.078125 1.28125 0.707031 1.207031 0.46875 1.0625 C 0.226562 0.914062 0.109375 0.710938 0.109375 0.453125 C 0.109375 0.296875 0.15625 0.164062 0.25 0.0625 C 0.351562 -0.0390625 0.503906 -0.109375 0.703125 -0.140625 L 0.703125 -0.203125 C 0.597656 -0.265625 0.519531 -0.332031 0.46875 -0.40625 C 0.425781 -0.476562 0.40625 -0.566406 0.40625 -0.671875 C 0.40625 -0.910156 0.566406 -1.078125 0.890625 -1.171875 L 0.890625 -1.21875 C 0.722656 -1.3125 0.597656 -1.425781 0.515625 -1.5625 C 0.429688 -1.707031 0.390625 -1.878906 0.390625 -2.078125 C 0.390625 -2.273438 0.4375 -2.445312 0.53125 -2.59375 C 0.625 -2.75 0.757812 -2.867188 0.9375 -2.953125 C 1.113281 -3.046875 1.328125 -3.09375 1.578125 -3.09375 C 1.828125 -3.09375 2.03125 -3.046875 2.1875 -2.953125 C 2.28125 -3.085938 2.332031 -3.242188 2.34375 -3.421875 L 2.40625 -3.453125 L 2.953125 -3.328125 C 2.929688 -3.179688 2.882812 -3.054688 2.8125 -2.953125 C 2.75 -2.859375 2.644531 -2.773438 2.5 -2.703125 L 2.5 -2.640625 C 2.675781 -2.492188 2.765625 -2.285156 2.765625 -2.015625 C 2.765625 -1.828125 2.71875 -1.65625 2.625 -1.5 C 2.53125 -1.351562 2.394531 -1.238281 2.21875 -1.15625 C 2.039062 -1.070312 1.828125 -1.03125 1.578125 -1.03125 L 1.46875 -1.03125 C 1.394531 -1.03125 1.34375 -1.03125 1.3125 -1.03125 C 1.238281 -1.03125 1.179688 -1.007812 1.140625 -0.96875 C 1.109375 -0.9375 1.09375 -0.890625 1.09375 -0.828125 C 1.09375 -0.765625 1.113281 -0.710938 1.15625 -0.671875 C 1.207031 -0.640625 1.285156 -0.625 1.390625 -0.625 L 2.0625 -0.59375 C 2.738281 -0.582031 3.078125 -0.296875 3.078125 0.265625 C 3.078125 0.460938 3.023438 0.632812 2.921875 0.78125 C 2.828125 0.9375 2.664062 1.054688 2.4375 1.140625 C 2.21875 1.234375 1.929688 1.28125 1.578125 1.28125 Z M 1.578125 -1.5625 C 1.722656 -1.5625 1.835938 -1.601562 1.921875 -1.6875 C 2.003906 -1.769531 2.046875 -1.894531 2.046875 -2.0625 C 2.046875 -2.21875 2.003906 -2.335938 1.921875 -2.421875 C 1.835938 -2.503906 1.722656 -2.546875 1.578125 -2.546875 C 1.429688 -2.546875 1.316406 -2.503906 1.234375 -2.421875 C 1.148438 -2.335938 1.109375 -2.21875 1.109375 -2.0625 C 1.109375 -1.894531 1.148438 -1.769531 1.234375 -1.6875 C 1.316406 -1.601562 1.429688 -1.5625 1.578125 -1.5625 Z M 1.578125 0.734375 C 1.835938 0.734375 2.023438 0.695312 2.140625 0.625 C 2.253906 0.550781 2.3125 0.457031 2.3125 0.34375 C 2.3125 0.238281 2.28125 0.164062 2.21875 0.125 C 2.164062 0.0820312 2.070312 0.0625 1.9375 0.0625 L 1.34375 0.03125 C 1.320312 0.03125 1.300781 0.0234375 1.28125 0.015625 C 1.257812 0.015625 1.242188 0.015625 1.234375 0.015625 C 1.097656 0.015625 1 0.0390625 0.9375 0.09375 C 0.875 0.15625 0.84375 0.234375 0.84375 0.328125 C 0.84375 0.460938 0.898438 0.5625 1.015625 0.625 C 1.140625 0.695312 1.328125 0.734375 1.578125 0.734375 Z M 1.578125 0.734375 "/></g></g><g transform="translate(10.597067, 45.545878)"><g><path d="M 1.1875 0.0625 C 0.988281 0.0625 0.816406 0.0234375 0.671875 -0.046875 C 0.535156 -0.117188 0.425781 -0.222656 0.34375 -0.359375 C 0.269531 -0.503906 0.234375 -0.671875 0.234375 -0.859375 C 0.234375 -1.035156 0.269531 -1.1875 0.34375 -1.3125 C 0.425781 -1.4375 0.546875 -1.535156 0.703125 -1.609375 C 0.859375 -1.691406 1.066406 -1.753906 1.328125 -1.796875 C 1.515625 -1.828125 1.65625 -1.859375 1.75 -1.890625 C 1.84375 -1.921875 1.90625 -1.957031 1.9375 -2 C 1.96875 -2.050781 1.984375 -2.109375 1.984375 -2.171875 C 1.984375 -2.273438 1.945312 -2.347656 1.875 -2.390625 C 1.8125 -2.441406 1.703125 -2.46875 1.546875 -2.46875 C 1.378906 -2.46875 1.21875 -2.429688 1.0625 -2.359375 C 0.914062 -2.285156 0.785156 -2.1875 0.671875 -2.0625 L 0.625 -2.0625 L 0.296875 -2.546875 C 0.453125 -2.710938 0.640625 -2.84375 0.859375 -2.9375 C 1.078125 -3.039062 1.320312 -3.09375 1.59375 -3.09375 C 1.988281 -3.09375 2.273438 -3.003906 2.453125 -2.828125 C 2.640625 -2.660156 2.734375 -2.421875 2.734375 -2.109375 L 2.734375 -0.796875 C 2.734375 -0.660156 2.789062 -0.59375 2.90625 -0.59375 C 2.945312 -0.59375 2.992188 -0.597656 3.046875 -0.609375 L 3.078125 -0.59375 L 3.140625 -0.078125 C 3.097656 -0.046875 3.035156 -0.0195312 2.953125 0 C 2.878906 0.0078125 2.796875 0.015625 2.703125 0.015625 C 2.523438 0.015625 2.382812 -0.015625 2.28125 -0.078125 C 2.1875 -0.148438 2.113281 -0.257812 2.0625 -0.40625 L 2.015625 -0.421875 C 1.859375 -0.0976562 1.582031 0.0625 1.1875 0.0625 Z M 1.421875 -0.515625 C 1.597656 -0.515625 1.738281 -0.570312 1.84375 -0.6875 C 1.945312 -0.800781 2 -0.96875 2 -1.1875 L 2 -1.484375 L 1.953125 -1.5 C 1.898438 -1.457031 1.835938 -1.425781 1.765625 -1.40625 C 1.691406 -1.382812 1.585938 -1.359375 1.453125 -1.328125 C 1.285156 -1.304688 1.164062 -1.257812 1.09375 -1.1875 C 1.019531 -1.125 0.984375 -1.03125 0.984375 -0.90625 C 0.984375 -0.78125 1.019531 -0.679688 1.09375 -0.609375 C 1.175781 -0.546875 1.285156 -0.515625 1.421875 -0.515625 Z M 1.421875 -0.515625 "/></g></g><g transform="translate(13.795514, 45.545878)"><g><path d="M 0.4375 0 L 0.4375 -3.03125 L 1.171875 -3.03125 L 1.171875 -2.578125 L 1.234375 -2.5625 C 1.304688 -2.738281 1.398438 -2.863281 1.515625 -2.9375 C 1.640625 -3.019531 1.785156 -3.0625 1.953125 -3.0625 C 2.128906 -3.0625 2.257812 -3.03125 2.34375 -2.96875 L 2.21875 -2.3125 L 2.15625 -2.296875 C 2.113281 -2.316406 2.066406 -2.332031 2.015625 -2.34375 C 1.972656 -2.351562 1.914062 -2.359375 1.84375 -2.359375 C 1.632812 -2.359375 1.472656 -2.28125 1.359375 -2.125 C 1.253906 -1.976562 1.203125 -1.742188 1.203125 -1.421875 L 1.203125 0 Z M 0.4375 0 "/></g></g></g><g fill="#000000" fill-opacity="1"><g transform="translate(113.550094, 45.545878)"><g><path d="M 0.1875 -0.3125 C 0.1875 -0.539062 0.210938 -0.726562 0.265625 -0.875 C 0.316406 -1.03125 0.394531 -1.171875 0.5 -1.296875 C 0.613281 -1.421875 0.769531 -1.554688 0.96875 -1.703125 L 1.515625 -2.09375 C 1.660156 -2.195312 1.769531 -2.285156 1.84375 -2.359375 C 1.925781 -2.429688 1.988281 -2.507812 2.03125 -2.59375 C 2.070312 -2.6875 2.09375 -2.785156 2.09375 -2.890625 C 2.09375 -3.054688 2.039062 -3.179688 1.9375 -3.265625 C 1.84375 -3.359375 1.695312 -3.40625 1.5 -3.40625 C 1.3125 -3.40625 1.140625 -3.359375 0.984375 -3.265625 C 0.835938 -3.171875 0.71875 -3.046875 0.625 -2.890625 L 0.578125 -2.875 L 0.140625 -3.375 C 0.285156 -3.582031 0.472656 -3.75 0.703125 -3.875 C 0.929688 -4.007812 1.207031 -4.078125 1.53125 -4.078125 C 1.832031 -4.078125 2.082031 -4.023438 2.28125 -3.921875 C 2.488281 -3.828125 2.640625 -3.691406 2.734375 -3.515625 C 2.835938 -3.347656 2.890625 -3.15625 2.890625 -2.9375 C 2.890625 -2.738281 2.847656 -2.5625 2.765625 -2.40625 C 2.679688 -2.25 2.566406 -2.101562 2.421875 -1.96875 C 2.285156 -1.832031 2.109375 -1.691406 1.890625 -1.546875 L 1.421875 -1.203125 C 1.273438 -1.109375 1.171875 -1.019531 1.109375 -0.9375 C 1.054688 -0.851562 1.03125 -0.765625 1.03125 -0.671875 L 2.84375 -0.671875 L 2.84375 0 L 0.1875 0 Z M 0.1875 -0.3125 "/></g></g><g transform="translate(116.688037, 45.545878)"><g><path d="M 1.96875 0.0625 C 1.632812 0.0625 1.34375 -0.0078125 1.09375 -0.15625 C 0.851562 -0.300781 0.664062 -0.523438 0.53125 -0.828125 C 0.40625 -1.140625 0.34375 -1.53125 0.34375 -2 C 0.34375 -2.476562 0.40625 -2.867188 0.53125 -3.171875 C 0.664062 -3.484375 0.851562 -3.710938 1.09375 -3.859375 C 1.34375 -4.003906 1.632812 -4.078125 1.96875 -4.078125 C 2.289062 -4.078125 2.570312 -4.003906 2.8125 -3.859375 C 3.0625 -3.710938 3.253906 -3.484375 3.390625 -3.171875 C 3.523438 -2.867188 3.59375 -2.476562 3.59375 -2 C 3.59375 -1.53125 3.523438 -1.140625 3.390625 -0.828125 C 3.253906 -0.523438 3.0625 -0.300781 2.8125 -0.15625 C 2.570312 -0.0078125 2.289062 0.0625 1.96875 0.0625 Z M 1.96875 -0.609375 C 2.144531 -0.609375 2.289062 -0.648438 2.40625 -0.734375 C 2.53125 -0.828125 2.625 -0.972656 2.6875 -1.171875 C 2.75 -1.378906 2.78125 -1.65625 2.78125 -2 C 2.78125 -2.351562 2.75 -2.628906 2.6875 -2.828125 C 2.625 -3.035156 2.53125 -3.179688 2.40625 -3.265625 C 2.289062 -3.359375 2.144531 -3.40625 1.96875 -3.40625 C 1.78125 -3.40625 1.625 -3.359375 1.5 -3.265625 C 1.382812 -3.179688 1.296875 -3.035156 1.234375 -2.828125 C 1.171875 -2.628906 1.140625 -2.351562 1.140625 -2 C 1.140625 -1.65625 1.171875 -1.378906 1.234375 -1.171875 C 1.296875 -0.972656 1.382812 -0.828125 1.5 -0.734375 C 1.625 -0.648438 1.78125 -0.609375 1.96875 -0.609375 Z M 1.96875 -0.609375 "/></g></g><g transform="translate(120.618029, 45.545878)"><g><path d="M 0.78125 0.03125 C 0.675781 0.03125 0.585938 0.0078125 0.515625 -0.03125 C 0.441406 -0.0703125 0.382812 -0.125 0.34375 -0.1875 C 0.300781 -0.257812 0.28125 -0.34375 0.28125 -0.4375 C 0.28125 -0.519531 0.300781 -0.597656 0.34375 -0.671875 C 0.382812 -0.742188 0.441406 -0.796875 0.515625 -0.828125 C 0.585938 -0.867188 0.675781 -0.890625 0.78125 -0.890625 C 0.875 -0.890625 0.957031 -0.867188 1.03125 -0.828125 C 1.101562 -0.796875 1.160156 -0.742188 1.203125 -0.671875 C 1.242188 -0.597656 1.265625 -0.519531 1.265625 -0.4375 C 1.265625 -0.300781 1.21875 -0.1875 1.125 -0.09375 C 1.039062 -0.0078125 0.925781 0.03125 0.78125 0.03125 Z M 0.78125 0.03125 "/></g></g><g transform="translate(122.171875, 45.545878)"><g><path d="M 1.96875 0.0625 C 1.632812 0.0625 1.34375 -0.0078125 1.09375 -0.15625 C 0.851562 -0.300781 0.664062 -0.523438 0.53125 -0.828125 C 0.40625 -1.140625 0.34375 -1.53125 0.34375 -2 C 0.34375 -2.476562 0.40625 -2.867188 0.53125 -3.171875 C 0.664062 -3.484375 0.851562 -3.710938 1.09375 -3.859375 C 1.34375 -4.003906 1.632812 -4.078125 1.96875 -4.078125 C 2.289062 -4.078125 2.570312 -4.003906 2.8125 -3.859375 C 3.0625 -3.710938 3.253906 -3.484375 3.390625 -3.171875 C 3.523438 -2.867188 3.59375 -2.476562 3.59375 -2 C 3.59375 -1.53125 3.523438 -1.140625 3.390625 -0.828125 C 3.253906 -0.523438 3.0625 -0.300781 2.8125 -0.15625 C 2.570312 -0.0078125 2.289062 0.0625 1.96875 0.0625 Z M 1.96875 -0.609375 C 2.144531 -0.609375 2.289062 -0.648438 2.40625 -0.734375 C 2.53125 -0.828125 2.625 -0.972656 2.6875 -1.171875 C 2.75 -1.378906 2.78125 -1.65625 2.78125 -2 C 2.78125 -2.351562 2.75 -2.628906 2.6875 -2.828125 C 2.625 -3.035156 2.53125 -3.179688 2.40625 -3.265625 C 2.289062 -3.359375 2.144531 -3.40625 1.96875 -3.40625 C 1.78125 -3.40625 1.625 -3.359375 1.5 -3.265625 C 1.382812 -3.179688 1.296875 -3.035156 1.234375 -2.828125 C 1.171875 -2.628906 1.140625 -2.351562 1.140625 -2 C 1.140625 -1.65625 1.171875 -1.378906 1.234375 -1.171875 C 1.296875 -0.972656 1.382812 -0.828125 1.5 -0.734375 C 1.625 -0.648438 1.78125 -0.609375 1.96875 -0.609375 Z M 1.96875 -0.609375 "/></g></g><g transform="translate(126.101867, 45.545878)"><g/></g><g transform="translate(127.430199, 45.545878)"><g><path d="M 1.578125 1.28125 C 1.078125 1.28125 0.707031 1.207031 0.46875 1.0625 C 0.226562 0.914062 0.109375 0.710938 0.109375 0.453125 C 0.109375 0.296875 0.15625 0.164062 0.25 0.0625 C 0.351562 -0.0390625 0.503906 -0.109375 0.703125 -0.140625 L 0.703125 -0.203125 C 0.597656 -0.265625 0.519531 -0.332031 0.46875 -0.40625 C 0.425781 -0.476562 0.40625 -0.566406 0.40625 -0.671875 C 0.40625 -0.910156 0.566406 -1.078125 0.890625 -1.171875 L 0.890625 -1.21875 C 0.722656 -1.3125 0.597656 -1.425781 0.515625 -1.5625 C 0.429688 -1.707031 0.390625 -1.878906 0.390625 -2.078125 C 0.390625 -2.273438 0.4375 -2.445312 0.53125 -2.59375 C 0.625 -2.75 0.757812 -2.867188 0.9375 -2.953125 C 1.113281 -3.046875 1.328125 -3.09375 1.578125 -3.09375 C 1.828125 -3.09375 2.03125 -3.046875 2.1875 -2.953125 C 2.28125 -3.085938 2.332031 -3.242188 2.34375 -3.421875 L 2.40625 -3.453125 L 2.953125 -3.328125 C 2.929688 -3.179688 2.882812 -3.054688 2.8125 -2.953125 C 2.75 -2.859375 2.644531 -2.773438 2.5 -2.703125 L 2.5 -2.640625 C 2.675781 -2.492188 2.765625 -2.285156 2.765625 -2.015625 C 2.765625 -1.828125 2.71875 -1.65625 2.625 -1.5 C 2.53125 -1.351562 2.394531 -1.238281 2.21875 -1.15625 C 2.039062 -1.070312 1.828125 -1.03125 1.578125 -1.03125 L 1.46875 -1.03125 C 1.394531 -1.03125 1.34375 -1.03125 1.3125 -1.03125 C 1.238281 -1.03125 1.179688 -1.007812 1.140625 -0.96875 C 1.109375 -0.9375 1.09375 -0.890625 1.09375 -0.828125 C 1.09375 -0.765625 1.113281 -0.710938 1.15625 -0.671875 C 1.207031 -0.640625 1.285156 -0.625 1.390625 -0.625 L 2.0625 -0.59375 C 2.738281 -0.582031 3.078125 -0.296875 3.078125 0.265625 C 3.078125 0.460938 3.023438 0.632812 2.921875 0.78125 C 2.828125 0.9375 2.664062 1.054688 2.4375 1.140625 C 2.21875 1.234375 1.929688 1.28125 1.578125 1.28125 Z M 1.578125 -1.5625 C 1.722656 -1.5625 1.835938 -1.601562 1.921875 -1.6875 C 2.003906 -1.769531 2.046875 -1.894531 2.046875 -2.0625 C 2.046875 -2.21875 2.003906 -2.335938 1.921875 -2.421875 C 1.835938 -2.503906 1.722656 -2.546875 1.578125 -2.546875 C 1.429688 -2.546875 1.316406 -2.503906 1.234375 -2.421875 C 1.148438 -2.335938 1.109375 -2.21875 1.109375 -2.0625 C 1.109375 -1.894531 1.148438 -1.769531 1.234375 -1.6875 C 1.316406 -1.601562 1.429688 -1.5625 1.578125 -1.5625 Z M 1.578125 0.734375 C 1.835938 0.734375 2.023438 0.695312 2.140625 0.625 C 2.253906 0.550781 2.3125 0.457031 2.3125 0.34375 C 2.3125 0.238281 2.28125 0.164062 2.21875 0.125 C 2.164062 0.0820312 2.070312 0.0625 1.9375 0.0625 L 1.34375 0.03125 C 1.320312 0.03125 1.300781 0.0234375 1.28125 0.015625 C 1.257812 0.015625 1.242188 0.015625 1.234375 0.015625 C 1.097656 0.015625 1 0.0390625 0.9375 0.09375 C 0.875 0.15625 0.84375 0.234375 0.84375 0.328125 C 0.84375 0.460938 0.898438 0.5625 1.015625 0.625 C 1.140625 0.695312 1.328125 0.734375 1.578125 0.734375 Z M 1.578125 0.734375 "/></g></g></g><g fill="#004aad" fill-opacity="1"><g transform="translate(3.523631, 57.475461)"><g><path d="M 1.96875 -4.015625 C 2.613281 -4.015625 3.109375 -3.84375 3.453125 -3.5 C 3.796875 -3.164062 3.96875 -2.664062 3.96875 -2 C 3.96875 -1.34375 3.796875 -0.84375 3.453125 -0.5 C 3.109375 -0.164062 2.613281 0 1.96875 0 L 0.515625 0 L 0.515625 -4.015625 Z M 1.921875 -0.671875 C 2.335938 -0.671875 2.644531 -0.773438 2.84375 -0.984375 C 3.050781 -1.191406 3.15625 -1.53125 3.15625 -2 C 3.15625 -2.476562 3.050781 -2.820312 2.84375 -3.03125 C 2.644531 -3.238281 2.335938 -3.34375 1.921875 -3.34375 L 1.3125 -3.34375 L 1.3125 -0.671875 Z M 1.921875 -0.671875 "/></g></g><g transform="translate(7.822146, 57.475461)"><g><path d="M 0.8125 -3.390625 C 0.675781 -3.390625 0.566406 -3.429688 0.484375 -3.515625 C 0.398438 -3.597656 0.359375 -3.707031 0.359375 -3.84375 C 0.359375 -3.96875 0.398438 -4.070312 0.484375 -4.15625 C 0.566406 -4.238281 0.675781 -4.28125 0.8125 -4.28125 C 0.90625 -4.28125 0.988281 -4.257812 1.0625 -4.21875 C 1.132812 -4.1875 1.1875 -4.132812 1.21875 -4.0625 C 1.257812 -4 1.28125 -3.925781 1.28125 -3.84375 C 1.28125 -3.75 1.257812 -3.664062 1.21875 -3.59375 C 1.1875 -3.53125 1.132812 -3.476562 1.0625 -3.4375 C 0.988281 -3.40625 0.90625 -3.390625 0.8125 -3.390625 Z M 0.4375 0 L 0.4375 -3.03125 L 1.203125 -3.03125 L 1.203125 0 Z M 0.4375 0 "/></g></g><g transform="translate(9.455746, 57.475461)"><g><path d="M 1.421875 0.0625 C 1.210938 0.0625 1.019531 0.0351562 0.84375 -0.015625 C 0.675781 -0.0664062 0.53125 -0.132812 0.40625 -0.21875 C 0.28125 -0.300781 0.191406 -0.398438 0.140625 -0.515625 L 0.5625 -0.96875 L 0.625 -0.96875 C 0.71875 -0.832031 0.832031 -0.726562 0.96875 -0.65625 C 1.113281 -0.59375 1.265625 -0.5625 1.421875 -0.5625 C 1.566406 -0.5625 1.675781 -0.585938 1.75 -0.640625 C 1.832031 -0.691406 1.875 -0.765625 1.875 -0.859375 C 1.875 -0.941406 1.84375 -1.007812 1.78125 -1.0625 C 1.726562 -1.113281 1.644531 -1.15625 1.53125 -1.1875 L 1.125 -1.28125 C 0.820312 -1.351562 0.601562 -1.460938 0.46875 -1.609375 C 0.332031 -1.753906 0.265625 -1.941406 0.265625 -2.171875 C 0.265625 -2.359375 0.3125 -2.519531 0.40625 -2.65625 C 0.5 -2.800781 0.632812 -2.910156 0.8125 -2.984375 C 0.988281 -3.054688 1.191406 -3.09375 1.421875 -3.09375 C 1.691406 -3.09375 1.914062 -3.050781 2.09375 -2.96875 C 2.28125 -2.882812 2.421875 -2.78125 2.515625 -2.65625 L 2.109375 -2.21875 L 2.0625 -2.21875 C 1.976562 -2.3125 1.882812 -2.378906 1.78125 -2.421875 C 1.675781 -2.460938 1.554688 -2.484375 1.421875 -2.484375 C 1.117188 -2.484375 0.96875 -2.390625 0.96875 -2.203125 C 0.96875 -2.128906 0.992188 -2.066406 1.046875 -2.015625 C 1.109375 -1.960938 1.207031 -1.921875 1.34375 -1.890625 L 1.71875 -1.8125 C 2.03125 -1.75 2.253906 -1.644531 2.390625 -1.5 C 2.535156 -1.351562 2.609375 -1.15625 2.609375 -0.90625 C 2.609375 -0.71875 2.5625 -0.550781 2.46875 -0.40625 C 2.375 -0.257812 2.234375 -0.144531 2.046875 -0.0625 C 1.867188 0.0195312 1.660156 0.0625 1.421875 0.0625 Z M 1.421875 0.0625 "/></g></g><g transform="translate(12.252669, 57.475461)"><g><path d="M 2.09375 -0.71875 L 2.28125 -0.15625 C 2.207031 -0.09375 2.109375 -0.0390625 1.984375 0 C 1.859375 0.0390625 1.710938 0.0625 1.546875 0.0625 C 1.222656 0.0625 0.972656 -0.0234375 0.796875 -0.203125 C 0.628906 -0.390625 0.546875 -0.648438 0.546875 -0.984375 L 0.546875 -2.421875 L 0.09375 -2.421875 L 0.09375 -3.03125 L 0.546875 -3.03125 L 0.546875 -3.625 L 1.3125 -3.75 L 1.3125 -3.03125 L 2.171875 -3.03125 L 2.171875 -2.421875 L 1.3125 -2.421875 L 1.3125 -1.046875 C 1.3125 -0.890625 1.34375 -0.773438 1.40625 -0.703125 C 1.46875 -0.640625 1.554688 -0.609375 1.671875 -0.609375 C 1.804688 -0.609375 1.925781 -0.644531 2.03125 -0.71875 Z M 2.09375 -0.71875 "/></g></g><g transform="translate(14.609564, 57.475461)"><g><path d="M 0.8125 -3.390625 C 0.675781 -3.390625 0.566406 -3.429688 0.484375 -3.515625 C 0.398438 -3.597656 0.359375 -3.707031 0.359375 -3.84375 C 0.359375 -3.96875 0.398438 -4.070312 0.484375 -4.15625 C 0.566406 -4.238281 0.675781 -4.28125 0.8125 -4.28125 C 0.90625 -4.28125 0.988281 -4.257812 1.0625 -4.21875 C 1.132812 -4.1875 1.1875 -4.132812 1.21875 -4.0625 C 1.257812 -4 1.28125 -3.925781 1.28125 -3.84375 C 1.28125 -3.75 1.257812 -3.664062 1.21875 -3.59375 C 1.1875 -3.53125 1.132812 -3.476562 1.0625 -3.4375 C 0.988281 -3.40625 0.90625 -3.390625 0.8125 -3.390625 Z M 0.4375 0 L 0.4375 -3.03125 L 1.203125 -3.03125 L 1.203125 0 Z M 0.4375 0 "/></g></g><g transform="translate(16.243164, 57.475461)"><g><path d="M 1.265625 0.0625 C 0.984375 0.0625 0.769531 -0.0078125 0.625 -0.15625 C 0.488281 -0.3125 0.421875 -0.535156 0.421875 -0.828125 L 0.421875 -4.25 L 1.171875 -4.25 L 1.171875 -0.859375 C 1.171875 -0.679688 1.25 -0.59375 1.40625 -0.59375 C 1.445312 -0.59375 1.492188 -0.597656 1.546875 -0.609375 L 1.59375 -0.59375 L 1.65625 -0.015625 C 1.613281 0.00390625 1.554688 0.0195312 1.484375 0.03125 C 1.421875 0.0507812 1.347656 0.0625 1.265625 0.0625 Z M 1.265625 0.0625 "/></g></g><g transform="translate(17.986772, 57.475461)"><g><path d="M 1.265625 0.0625 C 0.984375 0.0625 0.769531 -0.0078125 0.625 -0.15625 C 0.488281 -0.3125 0.421875 -0.535156 0.421875 -0.828125 L 0.421875 -4.25 L 1.171875 -4.25 L 1.171875 -0.859375 C 1.171875 -0.679688 1.25 -0.59375 1.40625 -0.59375 C 1.445312 -0.59375 1.492188 -0.597656 1.546875 -0.609375 L 1.59375 -0.59375 L 1.65625 -0.015625 C 1.613281 0.00390625 1.554688 0.0195312 1.484375 0.03125 C 1.421875 0.0507812 1.347656 0.0625 1.265625 0.0625 Z M 1.265625 0.0625 "/></g></g><g transform="translate(19.730379, 57.475461)"><g><path d="M 3 -1.34375 L 1.046875 -1.34375 C 1.066406 -1.082031 1.140625 -0.890625 1.265625 -0.765625 C 1.398438 -0.648438 1.578125 -0.59375 1.796875 -0.59375 C 1.972656 -0.59375 2.113281 -0.625 2.21875 -0.6875 C 2.320312 -0.75 2.410156 -0.847656 2.484375 -0.984375 L 2.53125 -0.984375 L 3.046875 -0.65625 C 2.941406 -0.445312 2.789062 -0.273438 2.59375 -0.140625 C 2.394531 -0.00390625 2.128906 0.0625 1.796875 0.0625 C 1.484375 0.0625 1.210938 0.00390625 0.984375 -0.109375 C 0.753906 -0.234375 0.578125 -0.410156 0.453125 -0.640625 C 0.328125 -0.878906 0.265625 -1.171875 0.265625 -1.515625 C 0.265625 -1.859375 0.328125 -2.144531 0.453125 -2.375 C 0.585938 -2.613281 0.765625 -2.789062 0.984375 -2.90625 C 1.210938 -3.03125 1.460938 -3.09375 1.734375 -3.09375 C 2.171875 -3.09375 2.5 -2.976562 2.71875 -2.75 C 2.945312 -2.519531 3.0625 -2.1875 3.0625 -1.75 C 3.0625 -1.59375 3.054688 -1.46875 3.046875 -1.375 Z M 2.34375 -1.828125 C 2.332031 -2.066406 2.273438 -2.238281 2.171875 -2.34375 C 2.078125 -2.445312 1.929688 -2.5 1.734375 -2.5 C 1.359375 -2.5 1.132812 -2.273438 1.0625 -1.828125 Z M 2.34375 -1.828125 "/></g></g><g transform="translate(23.027832, 57.475461)"><g><path d="M 1.5 0.0625 C 1.257812 0.0625 1.046875 0.00390625 0.859375 -0.109375 C 0.671875 -0.234375 0.523438 -0.410156 0.421875 -0.640625 C 0.316406 -0.878906 0.265625 -1.171875 0.265625 -1.515625 C 0.265625 -1.859375 0.316406 -2.144531 0.421875 -2.375 C 0.535156 -2.613281 0.6875 -2.789062 0.875 -2.90625 C 1.0625 -3.03125 1.28125 -3.09375 1.53125 -3.09375 C 1.71875 -3.09375 1.878906 -3.054688 2.015625 -2.984375 C 2.160156 -2.921875 2.28125 -2.820312 2.375 -2.6875 L 2.4375 -2.703125 L 2.4375 -4.25 L 3.1875 -4.25 L 3.1875 0 L 2.4375 0 L 2.4375 -0.390625 L 2.375 -0.40625 C 2.289062 -0.257812 2.175781 -0.144531 2.03125 -0.0625 C 1.882812 0.0195312 1.707031 0.0625 1.5 0.0625 Z M 1.75 -0.59375 C 1.957031 -0.59375 2.125 -0.664062 2.25 -0.8125 C 2.375 -0.96875 2.4375 -1.203125 2.4375 -1.515625 C 2.4375 -1.828125 2.375 -2.054688 2.25 -2.203125 C 2.125 -2.359375 1.957031 -2.4375 1.75 -2.4375 C 1.519531 -2.4375 1.347656 -2.363281 1.234375 -2.21875 C 1.117188 -2.070312 1.0625 -1.835938 1.0625 -1.515625 C 1.0625 -1.191406 1.117188 -0.957031 1.234375 -0.8125 C 1.347656 -0.664062 1.519531 -0.59375 1.75 -0.59375 Z M 1.75 -0.59375 "/></g></g><g transform="translate(26.663556, 57.475461)"><g/></g><g transform="translate(27.991888, 57.475461)"><g><path d="M 1.625 0 L 0.828125 0 L 0.109375 -3.03125 L 0.8125 -3.03125 L 1.265625 -0.984375 L 1.3125 -0.984375 L 1.890625 -3.03125 L 2.546875 -3.03125 L 3.15625 -0.984375 L 3.203125 -0.984375 L 3.640625 -3.03125 L 4.328125 -3.03125 L 3.609375 0 L 2.8125 0 L 2.234375 -2.0625 L 2.1875 -2.0625 Z M 1.625 0 "/></g></g><g transform="translate(32.427911, 57.475461)"><g><path d="M 1.1875 0.0625 C 0.988281 0.0625 0.816406 0.0234375 0.671875 -0.046875 C 0.535156 -0.117188 0.425781 -0.222656 0.34375 -0.359375 C 0.269531 -0.503906 0.234375 -0.671875 0.234375 -0.859375 C 0.234375 -1.035156 0.269531 -1.1875 0.34375 -1.3125 C 0.425781 -1.4375 0.546875 -1.535156 0.703125 -1.609375 C 0.859375 -1.691406 1.066406 -1.753906 1.328125 -1.796875 C 1.515625 -1.828125 1.65625 -1.859375 1.75 -1.890625 C 1.84375 -1.921875 1.90625 -1.957031 1.9375 -2 C 1.96875 -2.050781 1.984375 -2.109375 1.984375 -2.171875 C 1.984375 -2.273438 1.945312 -2.347656 1.875 -2.390625 C 1.8125 -2.441406 1.703125 -2.46875 1.546875 -2.46875 C 1.378906 -2.46875 1.21875 -2.429688 1.0625 -2.359375 C 0.914062 -2.285156 0.785156 -2.1875 0.671875 -2.0625 L 0.625 -2.0625 L 0.296875 -2.546875 C 0.453125 -2.710938 0.640625 -2.84375 0.859375 -2.9375 C 1.078125 -3.039062 1.320312 -3.09375 1.59375 -3.09375 C 1.988281 -3.09375 2.273438 -3.003906 2.453125 -2.828125 C 2.640625 -2.660156 2.734375 -2.421875 2.734375 -2.109375 L 2.734375 -0.796875 C 2.734375 -0.660156 2.789062 -0.59375 2.90625 -0.59375 C 2.945312 -0.59375 2.992188 -0.597656 3.046875 -0.609375 L 3.078125 -0.59375 L 3.140625 -0.078125 C 3.097656 -0.046875 3.035156 -0.0195312 2.953125 0 C 2.878906 0.0078125 2.796875 0.015625 2.703125 0.015625 C 2.523438 0.015625 2.382812 -0.015625 2.28125 -0.078125 C 2.1875 -0.148438 2.113281 -0.257812 2.0625 -0.40625 L 2.015625 -0.421875 C 1.859375 -0.0976562 1.582031 0.0625 1.1875 0.0625 Z M 1.421875 -0.515625 C 1.597656 -0.515625 1.738281 -0.570312 1.84375 -0.6875 C 1.945312 -0.800781 2 -0.96875 2 -1.1875 L 2 -1.484375 L 1.953125 -1.5 C 1.898438 -1.457031 1.835938 -1.425781 1.765625 -1.40625 C 1.691406 -1.382812 1.585938 -1.359375 1.453125 -1.328125 C 1.285156 -1.304688 1.164062 -1.257812 1.09375 -1.1875 C 1.019531 -1.125 0.984375 -1.03125 0.984375 -0.90625 C 0.984375 -0.78125 1.019531 -0.679688 1.09375 -0.609375 C 1.175781 -0.546875 1.285156 -0.515625 1.421875 -0.515625 Z M 1.421875 -0.515625 "/></g></g><g transform="translate(35.626359, 57.475461)"><g><path d="M 2.09375 -0.71875 L 2.28125 -0.15625 C 2.207031 -0.09375 2.109375 -0.0390625 1.984375 0 C 1.859375 0.0390625 1.710938 0.0625 1.546875 0.0625 C 1.222656 0.0625 0.972656 -0.0234375 0.796875 -0.203125 C 0.628906 -0.390625 0.546875 -0.648438 0.546875 -0.984375 L 0.546875 -2.421875 L 0.09375 -2.421875 L 0.09375 -3.03125 L 0.546875 -3.03125 L 0.546875 -3.625 L 1.3125 -3.75 L 1.3125 -3.03125 L 2.171875 -3.03125 L 2.171875 -2.421875 L 1.3125 -2.421875 L 1.3125 -1.046875 C 1.3125 -0.890625 1.34375 -0.773438 1.40625 -0.703125 C 1.46875 -0.640625 1.554688 -0.609375 1.671875 -0.609375 C 1.804688 -0.609375 1.925781 -0.644531 2.03125 -0.71875 Z M 2.09375 -0.71875 "/></g></g><g transform="translate(37.983254, 57.475461)"><g><path d="M 3 -1.34375 L 1.046875 -1.34375 C 1.066406 -1.082031 1.140625 -0.890625 1.265625 -0.765625 C 1.398438 -0.648438 1.578125 -0.59375 1.796875 -0.59375 C 1.972656 -0.59375 2.113281 -0.625 2.21875 -0.6875 C 2.320312 -0.75 2.410156 -0.847656 2.484375 -0.984375 L 2.53125 -0.984375 L 3.046875 -0.65625 C 2.941406 -0.445312 2.789062 -0.273438 2.59375 -0.140625 C 2.394531 -0.00390625 2.128906 0.0625 1.796875 0.0625 C 1.484375 0.0625 1.210938 0.00390625 0.984375 -0.109375 C 0.753906 -0.234375 0.578125 -0.410156 0.453125 -0.640625 C 0.328125 -0.878906 0.265625 -1.171875 0.265625 -1.515625 C 0.265625 -1.859375 0.328125 -2.144531 0.453125 -2.375 C 0.585938 -2.613281 0.765625 -2.789062 0.984375 -2.90625 C 1.210938 -3.03125 1.460938 -3.09375 1.734375 -3.09375 C 2.171875 -3.09375 2.5 -2.976562 2.71875 -2.75 C 2.945312 -2.519531 3.0625 -2.1875 3.0625 -1.75 C 3.0625 -1.59375 3.054688 -1.46875 3.046875 -1.375 Z M 2.34375 -1.828125 C 2.332031 -2.066406 2.273438 -2.238281 2.171875 -2.34375 C 2.078125 -2.445312 1.929688 -2.5 1.734375 -2.5 C 1.359375 -2.5 1.132812 -2.273438 1.0625 -1.828125 Z M 2.34375 -1.828125 "/></g></g><g transform="translate(41.280707, 57.475461)"><g><path d="M 0.4375 0 L 0.4375 -3.03125 L 1.171875 -3.03125 L 1.171875 -2.578125 L 1.234375 -2.5625 C 1.304688 -2.738281 1.398438 -2.863281 1.515625 -2.9375 C 1.640625 -3.019531 1.785156 -3.0625 1.953125 -3.0625 C 2.128906 -3.0625 2.257812 -3.03125 2.34375 -2.96875 L 2.21875 -2.3125 L 2.15625 -2.296875 C 2.113281 -2.316406 2.066406 -2.332031 2.015625 -2.34375 C 1.972656 -2.351562 1.914062 -2.359375 1.84375 -2.359375 C 1.632812 -2.359375 1.472656 -2.28125 1.359375 -2.125 C 1.253906 -1.976562 1.203125 -1.742188 1.203125 -1.421875 L 1.203125 0 Z M 0.4375 0 "/></g></g></g><g fill="#000000" fill-opacity="1"><g transform="translate(113.550094, 57.475461)"><g><path d="M 0.21875 0 L 0.21875 -0.65625 L 1.1875 -0.65625 L 1.1875 -3.15625 L 1.125 -3.171875 C 0.976562 -3.109375 0.835938 -3.054688 0.703125 -3.015625 C 0.578125 -2.972656 0.429688 -2.941406 0.265625 -2.921875 L 0.265625 -3.609375 C 0.703125 -3.703125 1.0625 -3.835938 1.34375 -4.015625 L 1.96875 -4.015625 L 1.96875 -0.65625 L 2.828125 -0.65625 L 2.828125 0 Z M 0.21875 0 "/></g></g><g transform="translate(116.517527, 57.475461)"><g><path d="M 1.96875 0.0625 C 1.632812 0.0625 1.34375 -0.0078125 1.09375 -0.15625 C 0.851562 -0.300781 0.664062 -0.523438 0.53125 -0.828125 C 0.40625 -1.140625 0.34375 -1.53125 0.34375 -2 C 0.34375 -2.476562 0.40625 -2.867188 0.53125 -3.171875 C 0.664062 -3.484375 0.851562 -3.710938 1.09375 -3.859375 C 1.34375 -4.003906 1.632812 -4.078125 1.96875 -4.078125 C 2.289062 -4.078125 2.570312 -4.003906 2.8125 -3.859375 C 3.0625 -3.710938 3.253906 -3.484375 3.390625 -3.171875 C 3.523438 -2.867188 3.59375 -2.476562 3.59375 -2 C 3.59375 -1.53125 3.523438 -1.140625 3.390625 -0.828125 C 3.253906 -0.523438 3.0625 -0.300781 2.8125 -0.15625 C 2.570312 -0.0078125 2.289062 0.0625 1.96875 0.0625 Z M 1.96875 -0.609375 C 2.144531 -0.609375 2.289062 -0.648438 2.40625 -0.734375 C 2.53125 -0.828125 2.625 -0.972656 2.6875 -1.171875 C 2.75 -1.378906 2.78125 -1.65625 2.78125 -2 C 2.78125 -2.351562 2.75 -2.628906 2.6875 -2.828125 C 2.625 -3.035156 2.53125 -3.179688 2.40625 -3.265625 C 2.289062 -3.359375 2.144531 -3.40625 1.96875 -3.40625 C 1.78125 -3.40625 1.625 -3.359375 1.5 -3.265625 C 1.382812 -3.179688 1.296875 -3.035156 1.234375 -2.828125 C 1.171875 -2.628906 1.140625 -2.351562 1.140625 -2 C 1.140625 -1.65625 1.171875 -1.378906 1.234375 -1.171875 C 1.296875 -0.972656 1.382812 -0.828125 1.5 -0.734375 C 1.625 -0.648438 1.78125 -0.609375 1.96875 -0.609375 Z M 1.96875 -0.609375 "/></g></g><g transform="translate(120.447519, 57.475461)"><g><path d="M 1.96875 0.0625 C 1.632812 0.0625 1.34375 -0.0078125 1.09375 -0.15625 C 0.851562 -0.300781 0.664062 -0.523438 0.53125 -0.828125 C 0.40625 -1.140625 0.34375 -1.53125 0.34375 -2 C 0.34375 -2.476562 0.40625 -2.867188 0.53125 -3.171875 C 0.664062 -3.484375 0.851562 -3.710938 1.09375 -3.859375 C 1.34375 -4.003906 1.632812 -4.078125 1.96875 -4.078125 C 2.289062 -4.078125 2.570312 -4.003906 2.8125 -3.859375 C 3.0625 -3.710938 3.253906 -3.484375 3.390625 -3.171875 C 3.523438 -2.867188 3.59375 -2.476562 3.59375 -2 C 3.59375 -1.53125 3.523438 -1.140625 3.390625 -0.828125 C 3.253906 -0.523438 3.0625 -0.300781 2.8125 -0.15625 C 2.570312 -0.0078125 2.289062 0.0625 1.96875 0.0625 Z M 1.96875 -0.609375 C 2.144531 -0.609375 2.289062 -0.648438 2.40625 -0.734375 C 2.53125 -0.828125 2.625 -0.972656 2.6875 -1.171875 C 2.75 -1.378906 2.78125 -1.65625 2.78125 -2 C 2.78125 -2.351562 2.75 -2.628906 2.6875 -2.828125 C 2.625 -3.035156 2.53125 -3.179688 2.40625 -3.265625 C 2.289062 -3.359375 2.144531 -3.40625 1.96875 -3.40625 C 1.78125 -3.40625 1.625 -3.359375 1.5 -3.265625 C 1.382812 -3.179688 1.296875 -3.035156 1.234375 -2.828125 C 1.171875 -2.628906 1.140625 -2.351562 1.140625 -2 C 1.140625 -1.65625 1.171875 -1.378906 1.234375 -1.171875 C 1.296875 -0.972656 1.382812 -0.828125 1.5 -0.734375 C 1.625 -0.648438 1.78125 -0.609375 1.96875 -0.609375 Z M 1.96875 -0.609375 "/></g></g><g transform="translate(124.377511, 57.475461)"><g><path d="M 1.96875 0.0625 C 1.632812 0.0625 1.34375 -0.0078125 1.09375 -0.15625 C 0.851562 -0.300781 0.664062 -0.523438 0.53125 -0.828125 C 0.40625 -1.140625 0.34375 -1.53125 0.34375 -2 C 0.34375 -2.476562 0.40625 -2.867188 0.53125 -3.171875 C 0.664062 -3.484375 0.851562 -3.710938 1.09375 -3.859375 C 1.34375 -4.003906 1.632812 -4.078125 1.96875 -4.078125 C 2.289062 -4.078125 2.570312 -4.003906 2.8125 -3.859375 C 3.0625 -3.710938 3.253906 -3.484375 3.390625 -3.171875 C 3.523438 -2.867188 3.59375 -2.476562 3.59375 -2 C 3.59375 -1.53125 3.523438 -1.140625 3.390625 -0.828125 C 3.253906 -0.523438 3.0625 -0.300781 2.8125 -0.15625 C 2.570312 -0.0078125 2.289062 0.0625 1.96875 0.0625 Z M 1.96875 -0.609375 C 2.144531 -0.609375 2.289062 -0.648438 2.40625 -0.734375 C 2.53125 -0.828125 2.625 -0.972656 2.6875 -1.171875 C 2.75 -1.378906 2.78125 -1.65625 2.78125 -2 C 2.78125 -2.351562 2.75 -2.628906 2.6875 -2.828125 C 2.625 -3.035156 2.53125 -3.179688 2.40625 -3.265625 C 2.289062 -3.359375 2.144531 -3.40625 1.96875 -3.40625 C 1.78125 -3.40625 1.625 -3.359375 1.5 -3.265625 C 1.382812 -3.179688 1.296875 -3.035156 1.234375 -2.828125 C 1.171875 -2.628906 1.140625 -2.351562 1.140625 -2 C 1.140625 -1.65625 1.171875 -1.378906 1.234375 -1.171875 C 1.296875 -0.972656 1.382812 -0.828125 1.5 -0.734375 C 1.625 -0.648438 1.78125 -0.609375 1.96875 -0.609375 Z M 1.96875 -0.609375 "/></g></g><g transform="translate(128.307503, 57.475461)"><g><path d="M 0.78125 0.03125 C 0.675781 0.03125 0.585938 0.0078125 0.515625 -0.03125 C 0.441406 -0.0703125 0.382812 -0.125 0.34375 -0.1875 C 0.300781 -0.257812 0.28125 -0.34375 0.28125 -0.4375 C 0.28125 -0.519531 0.300781 -0.597656 0.34375 -0.671875 C 0.382812 -0.742188 0.441406 -0.796875 0.515625 -0.828125 C 0.585938 -0.867188 0.675781 -0.890625 0.78125 -0.890625 C 0.875 -0.890625 0.957031 -0.867188 1.03125 -0.828125 C 1.101562 -0.796875 1.160156 -0.742188 1.203125 -0.671875 C 1.242188 -0.597656 1.265625 -0.519531 1.265625 -0.4375 C 1.265625 -0.300781 1.21875 -0.1875 1.125 -0.09375 C 1.039062 -0.0078125 0.925781 0.03125 0.78125 0.03125 Z M 0.78125 0.03125 "/></g></g><g transform="translate(129.861349, 57.475461)"><g><path d="M 1.96875 0.0625 C 1.632812 0.0625 1.34375 -0.0078125 1.09375 -0.15625 C 0.851562 -0.300781 0.664062 -0.523438 0.53125 -0.828125 C 0.40625 -1.140625 0.34375 -1.53125 0.34375 -2 C 0.34375 -2.476562 0.40625 -2.867188 0.53125 -3.171875 C 0.664062 -3.484375 0.851562 -3.710938 1.09375 -3.859375 C 1.34375 -4.003906 1.632812 -4.078125 1.96875 -4.078125 C 2.289062 -4.078125 2.570312 -4.003906 2.8125 -3.859375 C 3.0625 -3.710938 3.253906 -3.484375 3.390625 -3.171875 C 3.523438 -2.867188 3.59375 -2.476562 3.59375 -2 C 3.59375 -1.53125 3.523438 -1.140625 3.390625 -0.828125 C 3.253906 -0.523438 3.0625 -0.300781 2.8125 -0.15625 C 2.570312 -0.0078125 2.289062 0.0625 1.96875 0.0625 Z M 1.96875 -0.609375 C 2.144531 -0.609375 2.289062 -0.648438 2.40625 -0.734375 C 2.53125 -0.828125 2.625 -0.972656 2.6875 -1.171875 C 2.75 -1.378906 2.78125 -1.65625 2.78125 -2 C 2.78125 -2.351562 2.75 -2.628906 2.6875 -2.828125 C 2.625 -3.035156 2.53125 -3.179688 2.40625 -3.265625 C 2.289062 -3.359375 2.144531 -3.40625 1.96875 -3.40625 C 1.78125 -3.40625 1.625 -3.359375 1.5 -3.265625 C 1.382812 -3.179688 1.296875 -3.035156 1.234375 -2.828125 C 1.171875 -2.628906 1.140625 -2.351562 1.140625 -2 C 1.140625 -1.65625 1.171875 -1.378906 1.234375 -1.171875 C 1.296875 -0.972656 1.382812 -0.828125 1.5 -0.734375 C 1.625 -0.648438 1.78125 -0.609375 1.96875 -0.609375 Z M 1.96875 -0.609375 "/></g></g><g transform="translate(133.791341, 57.475461)"><g/></g><g transform="translate(135.119673, 57.475461)"><g><path d="M 0.4375 0 L 0.4375 -3.03125 L 1.171875 -3.03125 L 1.171875 -2.625 L 1.21875 -2.609375 C 1.320312 -2.773438 1.4375 -2.894531 1.5625 -2.96875 C 1.695312 -3.050781 1.867188 -3.09375 2.078125 -3.09375 C 2.304688 -3.09375 2.488281 -3.046875 2.625 -2.953125 C 2.769531 -2.859375 2.875 -2.722656 2.9375 -2.546875 L 3 -2.546875 C 3.09375 -2.734375 3.210938 -2.867188 3.359375 -2.953125 C 3.503906 -3.046875 3.6875 -3.09375 3.90625 -3.09375 C 4.53125 -3.09375 4.84375 -2.738281 4.84375 -2.03125 L 4.84375 0 L 4.09375 0 L 4.09375 -1.9375 C 4.09375 -2.113281 4.054688 -2.238281 3.984375 -2.3125 C 3.910156 -2.394531 3.800781 -2.4375 3.65625 -2.4375 C 3.238281 -2.4375 3.03125 -2.160156 3.03125 -1.609375 L 3.03125 0 L 2.265625 0 L 2.265625 -1.9375 C 2.265625 -2.113281 2.226562 -2.238281 2.15625 -2.3125 C 2.082031 -2.394531 1.972656 -2.4375 1.828125 -2.4375 C 1.628906 -2.4375 1.472656 -2.367188 1.359375 -2.234375 C 1.253906 -2.109375 1.203125 -1.90625 1.203125 -1.625 L 1.203125 0 Z M 0.4375 0 "/></g></g><g transform="translate(140.366996, 57.475461)"><g><path d="M 1.265625 0.0625 C 0.984375 0.0625 0.769531 -0.0078125 0.625 -0.15625 C 0.488281 -0.3125 0.421875 -0.535156 0.421875 -0.828125 L 0.421875 -4.25 L 1.171875 -4.25 L 1.171875 -0.859375 C 1.171875 -0.679688 1.25 -0.59375 1.40625 -0.59375 C 1.445312 -0.59375 1.492188 -0.597656 1.546875 -0.609375 L 1.59375 -0.59375 L 1.65625 -0.015625 C 1.613281 0.00390625 1.554688 0.0195312 1.484375 0.03125 C 1.421875 0.0507812 1.347656 0.0625 1.265625 0.0625 Z M 1.265625 0.0625 "/></g></g></g><g fill="#004aad" fill-opacity="1"><g transform="translate(3.523631, 69.405048)"><g><path d="M 2.078125 -4.015625 C 2.359375 -4.015625 2.601562 -3.960938 2.8125 -3.859375 C 3.019531 -3.753906 3.175781 -3.601562 3.28125 -3.40625 C 3.382812 -3.21875 3.4375 -3 3.4375 -2.75 C 3.4375 -2.5 3.382812 -2.28125 3.28125 -2.09375 C 3.175781 -1.90625 3.019531 -1.757812 2.8125 -1.65625 C 2.601562 -1.550781 2.359375 -1.5 2.078125 -1.5 L 1.3125 -1.5 L 1.3125 0 L 0.515625 0 L 0.515625 -4.015625 Z M 1.96875 -2.125 C 2.40625 -2.125 2.625 -2.332031 2.625 -2.75 C 2.625 -3.175781 2.40625 -3.390625 1.96875 -3.390625 L 1.3125 -3.390625 L 1.3125 -2.125 Z M 1.96875 -2.125 "/></g></g><g transform="translate(7.197857, 69.405048)"><g><path d="M 3.109375 -2.5 L 3.109375 -4.015625 L 3.90625 -4.015625 L 3.90625 0 L 3.109375 0 L 3.109375 -1.828125 L 1.3125 -1.828125 L 1.3125 0 L 0.515625 0 L 0.515625 -4.015625 L 1.3125 -4.015625 L 1.3125 -2.5 Z M 3.109375 -2.5 "/></g></g></g><g fill="#000000" fill-opacity="1"><g transform="translate(113.550094, 69.405048)"><g><path d="M 1.671875 0.0625 C 1.273438 0.0625 0.957031 -0.0195312 0.71875 -0.1875 C 0.476562 -0.363281 0.328125 -0.601562 0.265625 -0.90625 L 0.859375 -1.171875 L 0.921875 -1.15625 C 0.984375 -0.976562 1.070312 -0.84375 1.1875 -0.75 C 1.300781 -0.664062 1.460938 -0.625 1.671875 -0.625 C 1.878906 -0.625 2.035156 -0.679688 2.140625 -0.796875 C 2.253906 -0.921875 2.3125 -1.097656 2.3125 -1.328125 C 2.3125 -1.566406 2.253906 -1.742188 2.140625 -1.859375 C 2.035156 -1.984375 1.882812 -2.046875 1.6875 -2.046875 C 1.539062 -2.046875 1.414062 -2.015625 1.3125 -1.953125 C 1.21875 -1.890625 1.132812 -1.796875 1.0625 -1.671875 L 0.40625 -1.71875 L 0.484375 -4.015625 L 2.875 -4.015625 L 2.875 -3.34375 L 1.15625 -3.34375 L 1.125 -2.328125 L 1.171875 -2.3125 C 1.265625 -2.4375 1.375 -2.53125 1.5 -2.59375 C 1.632812 -2.65625 1.796875 -2.6875 1.984375 -2.6875 C 2.210938 -2.6875 2.410156 -2.632812 2.578125 -2.53125 C 2.753906 -2.425781 2.890625 -2.273438 2.984375 -2.078125 C 3.078125 -1.878906 3.125 -1.632812 3.125 -1.34375 C 3.125 -1.050781 3.066406 -0.800781 2.953125 -0.59375 C 2.835938 -0.382812 2.671875 -0.222656 2.453125 -0.109375 C 2.234375 0.00390625 1.972656 0.0625 1.671875 0.0625 Z M 1.671875 0.0625 "/></g></g><g transform="translate(116.938303, 69.405048)"><g><path d="M 0.78125 0.03125 C 0.675781 0.03125 0.585938 0.0078125 0.515625 -0.03125 C 0.441406 -0.0703125 0.382812 -0.125 0.34375 -0.1875 C 0.300781 -0.257812 0.28125 -0.34375 0.28125 -0.4375 C 0.28125 -0.519531 0.300781 -0.597656 0.34375 -0.671875 C 0.382812 -0.742188 0.441406 -0.796875 0.515625 -0.828125 C 0.585938 -0.867188 0.675781 -0.890625 0.78125 -0.890625 C 0.875 -0.890625 0.957031 -0.867188 1.03125 -0.828125 C 1.101562 -0.796875 1.160156 -0.742188 1.203125 -0.671875 C 1.242188 -0.597656 1.265625 -0.519531 1.265625 -0.4375 C 1.265625 -0.300781 1.21875 -0.1875 1.125 -0.09375 C 1.039062 -0.0078125 0.925781 0.03125 0.78125 0.03125 Z M 0.78125 0.03125 "/></g></g><g transform="translate(118.492148, 69.405048)"><g><path d="M 0.1875 -0.3125 C 0.1875 -0.539062 0.210938 -0.726562 0.265625 -0.875 C 0.316406 -1.03125 0.394531 -1.171875 0.5 -1.296875 C 0.613281 -1.421875 0.769531 -1.554688 0.96875 -1.703125 L 1.515625 -2.09375 C 1.660156 -2.195312 1.769531 -2.285156 1.84375 -2.359375 C 1.925781 -2.429688 1.988281 -2.507812 2.03125 -2.59375 C 2.070312 -2.6875 2.09375 -2.785156 2.09375 -2.890625 C 2.09375 -3.054688 2.039062 -3.179688 1.9375 -3.265625 C 1.84375 -3.359375 1.695312 -3.40625 1.5 -3.40625 C 1.3125 -3.40625 1.140625 -3.359375 0.984375 -3.265625 C 0.835938 -3.171875 0.71875 -3.046875 0.625 -2.890625 L 0.578125 -2.875 L 0.140625 -3.375 C 0.285156 -3.582031 0.472656 -3.75 0.703125 -3.875 C 0.929688 -4.007812 1.207031 -4.078125 1.53125 -4.078125 C 1.832031 -4.078125 2.082031 -4.023438 2.28125 -3.921875 C 2.488281 -3.828125 2.640625 -3.691406 2.734375 -3.515625 C 2.835938 -3.347656 2.890625 -3.15625 2.890625 -2.9375 C 2.890625 -2.738281 2.847656 -2.5625 2.765625 -2.40625 C 2.679688 -2.25 2.566406 -2.101562 2.421875 -1.96875 C 2.285156 -1.832031 2.109375 -1.691406 1.890625 -1.546875 L 1.421875 -1.203125 C 1.273438 -1.109375 1.171875 -1.019531 1.109375 -0.9375 C 1.054688 -0.851562 1.03125 -0.765625 1.03125 -0.671875 L 2.84375 -0.671875 L 2.84375 0 L 0.1875 0 Z M 0.1875 -0.3125 "/></g></g><g transform="translate(121.630092, 69.405048)"><g/></g><g transform="translate(122.958424, 69.405048)"><g><path d="M 1.1875 0.0625 C 0.988281 0.0625 0.816406 0.0234375 0.671875 -0.046875 C 0.535156 -0.117188 0.425781 -0.222656 0.34375 -0.359375 C 0.269531 -0.503906 0.234375 -0.671875 0.234375 -0.859375 C 0.234375 -1.035156 0.269531 -1.1875 0.34375 -1.3125 C 0.425781 -1.4375 0.546875 -1.535156 0.703125 -1.609375 C 0.859375 -1.691406 1.066406 -1.753906 1.328125 -1.796875 C 1.515625 -1.828125 1.65625 -1.859375 1.75 -1.890625 C 1.84375 -1.921875 1.90625 -1.957031 1.9375 -2 C 1.96875 -2.050781 1.984375 -2.109375 1.984375 -2.171875 C 1.984375 -2.273438 1.945312 -2.347656 1.875 -2.390625 C 1.8125 -2.441406 1.703125 -2.46875 1.546875 -2.46875 C 1.378906 -2.46875 1.21875 -2.429688 1.0625 -2.359375 C 0.914062 -2.285156 0.785156 -2.1875 0.671875 -2.0625 L 0.625 -2.0625 L 0.296875 -2.546875 C 0.453125 -2.710938 0.640625 -2.84375 0.859375 -2.9375 C 1.078125 -3.039062 1.320312 -3.09375 1.59375 -3.09375 C 1.988281 -3.09375 2.273438 -3.003906 2.453125 -2.828125 C 2.640625 -2.660156 2.734375 -2.421875 2.734375 -2.109375 L 2.734375 -0.796875 C 2.734375 -0.660156 2.789062 -0.59375 2.90625 -0.59375 C 2.945312 -0.59375 2.992188 -0.597656 3.046875 -0.609375 L 3.078125 -0.59375 L 3.140625 -0.078125 C 3.097656 -0.046875 3.035156 -0.0195312 2.953125 0 C 2.878906 0.0078125 2.796875 0.015625 2.703125 0.015625 C 2.523438 0.015625 2.382812 -0.015625 2.28125 -0.078125 C 2.1875 -0.148438 2.113281 -0.257812 2.0625 -0.40625 L 2.015625 -0.421875 C 1.859375 -0.0976562 1.582031 0.0625 1.1875 0.0625 Z M 1.421875 -0.515625 C 1.597656 -0.515625 1.738281 -0.570312 1.84375 -0.6875 C 1.945312 -0.800781 2 -0.96875 2 -1.1875 L 2 -1.484375 L 1.953125 -1.5 C 1.898438 -1.457031 1.835938 -1.425781 1.765625 -1.40625 C 1.691406 -1.382812 1.585938 -1.359375 1.453125 -1.328125 C 1.285156 -1.304688 1.164062 -1.257812 1.09375 -1.1875 C 1.019531 -1.125 0.984375 -1.03125 0.984375 -0.90625 C 0.984375 -0.78125 1.019531 -0.679688 1.09375 -0.609375 C 1.175781 -0.546875 1.285156 -0.515625 1.421875 -0.515625 Z M 1.421875 -0.515625 "/></g></g><g transform="translate(126.156871, 69.405048)"><g><path d="M 2.09375 -0.71875 L 2.28125 -0.15625 C 2.207031 -0.09375 2.109375 -0.0390625 1.984375 0 C 1.859375 0.0390625 1.710938 0.0625 1.546875 0.0625 C 1.222656 0.0625 0.972656 -0.0234375 0.796875 -0.203125 C 0.628906 -0.390625 0.546875 -0.648438 0.546875 -0.984375 L 0.546875 -2.421875 L 0.09375 -2.421875 L 0.09375 -3.03125 L 0.546875 -3.03125 L 0.546875 -3.625 L 1.3125 -3.75 L 1.3125 -3.03125 L 2.171875 -3.03125 L 2.171875 -2.421875 L 1.3125 -2.421875 L 1.3125 -1.046875 C 1.3125 -0.890625 1.34375 -0.773438 1.40625 -0.703125 C 1.46875 -0.640625 1.554688 -0.609375 1.671875 -0.609375 C 1.804688 -0.609375 1.925781 -0.644531 2.03125 -0.71875 Z M 2.09375 -0.71875 "/></g></g><g transform="translate(128.513766, 69.405048)"><g/></g><g transform="translate(129.842098, 69.405048)"><g><path d="M 0.1875 -0.3125 C 0.1875 -0.539062 0.210938 -0.726562 0.265625 -0.875 C 0.316406 -1.03125 0.394531 -1.171875 0.5 -1.296875 C 0.613281 -1.421875 0.769531 -1.554688 0.96875 -1.703125 L 1.515625 -2.09375 C 1.660156 -2.195312 1.769531 -2.285156 1.84375 -2.359375 C 1.925781 -2.429688 1.988281 -2.507812 2.03125 -2.59375 C 2.070312 -2.6875 2.09375 -2.785156 2.09375 -2.890625 C 2.09375 -3.054688 2.039062 -3.179688 1.9375 -3.265625 C 1.84375 -3.359375 1.695312 -3.40625 1.5 -3.40625 C 1.3125 -3.40625 1.140625 -3.359375 0.984375 -3.265625 C 0.835938 -3.171875 0.71875 -3.046875 0.625 -2.890625 L 0.578125 -2.875 L 0.140625 -3.375 C 0.285156 -3.582031 0.472656 -3.75 0.703125 -3.875 C 0.929688 -4.007812 1.207031 -4.078125 1.53125 -4.078125 C 1.832031 -4.078125 2.082031 -4.023438 2.28125 -3.921875 C 2.488281 -3.828125 2.640625 -3.691406 2.734375 -3.515625 C 2.835938 -3.347656 2.890625 -3.15625 2.890625 -2.9375 C 2.890625 -2.738281 2.847656 -2.5625 2.765625 -2.40625 C 2.679688 -2.25 2.566406 -2.101562 2.421875 -1.96875 C 2.285156 -1.832031 2.109375 -1.691406 1.890625 -1.546875 L 1.421875 -1.203125 C 1.273438 -1.109375 1.171875 -1.019531 1.109375 -0.9375 C 1.054688 -0.851562 1.03125 -0.765625 1.03125 -0.671875 L 2.84375 -0.671875 L 2.84375 0 L 0.1875 0 Z M 0.1875 -0.3125 "/></g></g><g transform="translate(132.980041, 69.405048)"><g><path d="M 1.671875 0.0625 C 1.273438 0.0625 0.957031 -0.0195312 0.71875 -0.1875 C 0.476562 -0.363281 0.328125 -0.601562 0.265625 -0.90625 L 0.859375 -1.171875 L 0.921875 -1.15625 C 0.984375 -0.976562 1.070312 -0.84375 1.1875 -0.75 C 1.300781 -0.664062 1.460938 -0.625 1.671875 -0.625 C 1.878906 -0.625 2.035156 -0.679688 2.140625 -0.796875 C 2.253906 -0.921875 2.3125 -1.097656 2.3125 -1.328125 C 2.3125 -1.566406 2.253906 -1.742188 2.140625 -1.859375 C 2.035156 -1.984375 1.882812 -2.046875 1.6875 -2.046875 C 1.539062 -2.046875 1.414062 -2.015625 1.3125 -1.953125 C 1.21875 -1.890625 1.132812 -1.796875 1.0625 -1.671875 L 0.40625 -1.71875 L 0.484375 -4.015625 L 2.875 -4.015625 L 2.875 -3.34375 L 1.15625 -3.34375 L 1.125 -2.328125 L 1.171875 -2.3125 C 1.265625 -2.4375 1.375 -2.53125 1.5 -2.59375 C 1.632812 -2.65625 1.796875 -2.6875 1.984375 -2.6875 C 2.210938 -2.6875 2.410156 -2.632812 2.578125 -2.53125 C 2.753906 -2.425781 2.890625 -2.273438 2.984375 -2.078125 C 3.078125 -1.878906 3.125 -1.632812 3.125 -1.34375 C 3.125 -1.050781 3.066406 -0.800781 2.953125 -0.59375 C 2.835938 -0.382812 2.671875 -0.222656 2.453125 -0.109375 C 2.234375 0.00390625 1.972656 0.0625 1.671875 0.0625 Z M 1.671875 0.0625 "/></g></g><g transform="translate(136.36825, 69.405048)"><g/></g><g transform="translate(137.696582, 69.405048)"><g><path d="M 1.203125 -2.09375 C 1.003906 -2.09375 0.828125 -2.132812 0.671875 -2.21875 C 0.515625 -2.3125 0.390625 -2.429688 0.296875 -2.578125 C 0.210938 -2.722656 0.171875 -2.894531 0.171875 -3.09375 C 0.171875 -3.28125 0.210938 -3.445312 0.296875 -3.59375 C 0.390625 -3.75 0.515625 -3.867188 0.671875 -3.953125 C 0.828125 -4.035156 1.003906 -4.078125 1.203125 -4.078125 C 1.398438 -4.078125 1.578125 -4.035156 1.734375 -3.953125 C 1.890625 -3.867188 2.007812 -3.75 2.09375 -3.59375 C 2.1875 -3.445312 2.234375 -3.28125 2.234375 -3.09375 C 2.234375 -2.894531 2.1875 -2.722656 2.09375 -2.578125 C 2.007812 -2.429688 1.890625 -2.3125 1.734375 -2.21875 C 1.578125 -2.132812 1.398438 -2.09375 1.203125 -2.09375 Z M 1.203125 -2.625 C 1.328125 -2.625 1.425781 -2.660156 1.5 -2.734375 C 1.582031 -2.816406 1.625 -2.9375 1.625 -3.09375 C 1.625 -3.238281 1.582031 -3.347656 1.5 -3.421875 C 1.425781 -3.503906 1.328125 -3.546875 1.203125 -3.546875 C 1.066406 -3.546875 0.960938 -3.503906 0.890625 -3.421875 C 0.816406 -3.347656 0.78125 -3.238281 0.78125 -3.09375 C 0.78125 -2.9375 0.816406 -2.816406 0.890625 -2.734375 C 0.972656 -2.660156 1.078125 -2.625 1.203125 -2.625 Z M 1.203125 -2.625 "/></g></g><g transform="translate(140.10023, 69.405048)"><g><path d="M 2.1875 0.0625 C 1.820312 0.0625 1.5 -0.015625 1.21875 -0.171875 C 0.9375 -0.328125 0.710938 -0.554688 0.546875 -0.859375 C 0.390625 -1.171875 0.3125 -1.550781 0.3125 -2 C 0.3125 -2.457031 0.390625 -2.835938 0.546875 -3.140625 C 0.710938 -3.453125 0.9375 -3.6875 1.21875 -3.84375 C 1.5 -4 1.820312 -4.078125 2.1875 -4.078125 C 2.582031 -4.078125 2.910156 -4 3.171875 -3.84375 C 3.441406 -3.695312 3.632812 -3.46875 3.75 -3.15625 L 3.171875 -2.796875 L 3.109375 -2.796875 C 3.023438 -3.015625 2.90625 -3.164062 2.75 -3.25 C 2.601562 -3.34375 2.414062 -3.390625 2.1875 -3.390625 C 1.851562 -3.390625 1.59375 -3.28125 1.40625 -3.0625 C 1.226562 -2.84375 1.140625 -2.488281 1.140625 -2 C 1.140625 -1.53125 1.226562 -1.179688 1.40625 -0.953125 C 1.59375 -0.734375 1.851562 -0.625 2.1875 -0.625 C 2.71875 -0.625 3.039062 -0.878906 3.15625 -1.390625 L 3.21875 -1.390625 L 3.8125 -1.078125 C 3.695312 -0.703125 3.503906 -0.414062 3.234375 -0.21875 C 2.972656 -0.03125 2.625 0.0625 2.1875 0.0625 Z M 2.1875 0.0625 "/></g></g></g><g clip-path="url(#8d0b1caad9)"><path stroke-linecap="butt" transform="matrix(0.7496, 0, 0, 0.7496, 2.662588, 1.855641)" fill-opacity="1" fill="#000000" fill-rule="nonzero" stroke-linejoin="miter" d="M 0.0749224 0.150892 L 0.0749224 15.54452 M 146.481143 0.150892 L 146.481143 15.54452 M 0.00196677 0.0727258 L 146.55931 0.0727258 M 0.00196677 15.617476 L 146.55931 15.617476 M 146.856343 0.150892 L 146.856343 15.54452 M 293.262564 0.150892 L 293.262564 15.54452 M 146.778177 0.0727258 L 293.33552 0.0727258 M 146.778177 15.617476 L 293.33552 15.617476 M 0.0749224 16.065632 L 0.0749224 31.45926 M 146.481143 16.065632 L 146.481143 31.45926 M 0.00196677 15.987465 L 146.55931 15.987465 M 0.00196677 31.532215 L 146.55931 31.532215 M 146.856343 16.065632 L 146.856343 31.45926 M 293.262564 16.065632 L 293.262564 31.45926 M 146.778177 15.987465 L 293.33552 15.987465 M 146.778177 31.532215 L 293.33552 31.532215 M 0.0749224 31.980371 L 0.0749224 47.373999 M 146.481143 31.980371 L 146.481143 47.373999 M 0.00196677 31.902204 L 146.55931 31.902204 M 0.00196677 47.446954 L 146.55931 47.446954 M 146.856343 31.980371 L 146.856343 47.373999 M 293.262564 31.980371 L 293.262564 47.373999 M 146.778177 31.902204 L 293.33552 31.902204 M 146.778177 47.446954 L 293.33552 47.446954 M 0.0749224 47.889899 L 0.0749224 63.288738 M 146.481143 47.889899 L 146.481143 63.288738 M 0.00196677 47.816943 L 146.55931 47.816943 M 0.00196677 63.361694 L 146.55931 63.361694 M 146.856343 47.889899 L 146.856343 63.288738 M 293.262564 47.889899 L 293.262564 63.288738 M 146.778177 47.816943 L 293.33552 47.816943 M 146.778177 63.361694 L 293.33552 63.361694 M 0.0749224 63.804638 L 0.0749224 79.203477 M 146.481143 63.804638 L 146.481143 79.203477 M 0.00196677 63.731683 L 146.55931 63.731683 M 0.00196677 79.276433 L 146.55931 79.276433 M 146.856343 63.804638 L 146.856343 79.203477 M 293.262564 63.804638 L 293.262564 79.203477 M 146.778177 63.731683 L 293.33552 63.731683 M 146.778177 79.276433 L 293.33552 79.276433 M 0.0749224 79.719377 L 0.0749224 95.118217 M 146.481143 79.719377 L 146.481143 95.118217 M 0.00196677 79.646422 L 146.55931 79.646422 M 0.00196677 95.191172 L 146.55931 95.191172 M 146.856343 79.719377 L 146.856343 95.118217 M 293.262564 79.719377 L 293.262564 95.118217 M 146.778177 79.646422 L 293.33552 79.646422 M 146.778177 95.191172 L 293.33552 95.191172 " stroke="#000000" stroke-width="0.14867" stroke-opacity="1" stroke-miterlimit="4"/></g></svg>