<svg xmlns="http://www.w3.org/2000/svg" xmlns:xlink="http://www.w3.org/1999/xlink" width="300" zoomAndPan="magnify" viewBox="0 0 224.87999 48" height="64" preserveAspectRatio="xMidYMid meet" version="1.0"><defs><g/><clipPath id="6c8cef385d"><path d="M 2.234375 0 L 222.527344 0 L 222.527344 47.019531 L 2.234375 47.019531 Z M 2.234375 0 " clip-rule="nonzero"/></clipPath><clipPath id="442094a7da"><path d="M 11.640625 2.429688 L 212.949219 2.429688 L 212.949219 45 L 11.640625 45 Z M 11.640625 2.429688 " clip-rule="nonzero"/></clipPath></defs><g clip-path="url(#6c8cef385d)"><path fill="#ffffff" d="M 2.234375 0 L 222.644531 0 L 222.644531 47.019531 L 2.234375 47.019531 Z M 2.234375 0 " fill-opacity="1" fill-rule="nonzero"/><path fill="#ffffff" d="M 2.234375 0 L 222.644531 0 L 222.644531 47.019531 L 2.234375 47.019531 Z M 2.234375 0 " fill-opacity="1" fill-rule="nonzero"/></g><g fill="#004aad" fill-opacity="1"><g transform="translate(11.730898, 8.936208)"><g><path d="M 0.421875 0 L 0.421875 -3.234375 L 1.0625 -3.234375 L 1.0625 -1.90625 L 1.125 -1.90625 L 2.203125 -3.234375 L 2.859375 -3.234375 L 2.859375 -3.171875 L 1.671875 -1.703125 L 2.984375 -0.0625 L 2.984375 0 L 2.265625 0 L 1.125 -1.390625 L 1.0625 -1.390625 L 1.0625 0 Z M 0.421875 0 "/></g></g><g transform="translate(14.718363, 8.936208)"><g><path d="M 1.765625 0.046875 C 1.472656 0.046875 1.210938 -0.015625 0.984375 -0.140625 C 0.753906 -0.265625 0.570312 -0.453125 0.4375 -0.703125 C 0.3125 -0.953125 0.25 -1.257812 0.25 -1.625 C 0.25 -1.976562 0.3125 -2.28125 0.4375 -2.53125 C 0.570312 -2.78125 0.753906 -2.96875 0.984375 -3.09375 C 1.210938 -3.21875 1.472656 -3.28125 1.765625 -3.28125 C 2.078125 -3.28125 2.34375 -3.21875 2.5625 -3.09375 C 2.78125 -2.976562 2.9375 -2.796875 3.03125 -2.546875 L 2.5625 -2.25 L 2.5 -2.265625 C 2.4375 -2.429688 2.34375 -2.550781 2.21875 -2.625 C 2.101562 -2.695312 1.953125 -2.734375 1.765625 -2.734375 C 1.492188 -2.734375 1.28125 -2.644531 1.125 -2.46875 C 0.976562 -2.289062 0.90625 -2.007812 0.90625 -1.625 C 0.90625 -1.238281 0.976562 -0.953125 1.125 -0.765625 C 1.28125 -0.585938 1.492188 -0.5 1.765625 -0.5 C 2.179688 -0.5 2.441406 -0.707031 2.546875 -1.125 L 2.59375 -1.125 L 3.0625 -0.875 C 2.976562 -0.5625 2.828125 -0.328125 2.609375 -0.171875 C 2.398438 -0.0234375 2.117188 0.046875 1.765625 0.046875 Z M 1.765625 0.046875 "/></g></g><g transform="translate(17.889365, 8.936208)"><g><path d="M 1.015625 0.046875 C 0.796875 0.046875 0.628906 -0.0078125 0.515625 -0.125 C 0.398438 -0.25 0.34375 -0.429688 0.34375 -0.671875 L 0.34375 -3.421875 L 0.953125 -3.421875 L 0.953125 -0.703125 C 0.953125 -0.546875 1.015625 -0.46875 1.140625 -0.46875 C 1.171875 -0.46875 1.207031 -0.472656 1.25 -0.484375 L 1.28125 -0.484375 L 1.328125 -0.015625 C 1.296875 0.00390625 1.25 0.0195312 1.1875 0.03125 C 1.132812 0.0390625 1.078125 0.046875 1.015625 0.046875 Z M 1.015625 0.046875 "/></g></g></g><g fill="#000000" fill-opacity="1"><g transform="translate(113.894275, 8.936208)"><g><path d="M 1.578125 0.046875 C 1.316406 0.046875 1.085938 -0.0078125 0.890625 -0.125 C 0.691406 -0.25 0.535156 -0.429688 0.421875 -0.671875 C 0.316406 -0.921875 0.265625 -1.238281 0.265625 -1.625 C 0.265625 -2 0.316406 -2.304688 0.421875 -2.546875 C 0.535156 -2.796875 0.691406 -2.976562 0.890625 -3.09375 C 1.085938 -3.21875 1.316406 -3.28125 1.578125 -3.28125 C 1.847656 -3.28125 2.078125 -3.21875 2.265625 -3.09375 C 2.460938 -2.976562 2.613281 -2.796875 2.71875 -2.546875 C 2.832031 -2.304688 2.890625 -2 2.890625 -1.625 C 2.890625 -1.238281 2.832031 -0.921875 2.71875 -0.671875 C 2.613281 -0.429688 2.460938 -0.25 2.265625 -0.125 C 2.078125 -0.0078125 1.847656 0.046875 1.578125 0.046875 Z M 1.578125 -0.5 C 1.722656 -0.5 1.84375 -0.53125 1.9375 -0.59375 C 2.039062 -0.664062 2.117188 -0.785156 2.171875 -0.953125 C 2.222656 -1.117188 2.25 -1.34375 2.25 -1.625 C 2.25 -1.894531 2.222656 -2.113281 2.171875 -2.28125 C 2.117188 -2.445312 2.039062 -2.5625 1.9375 -2.625 C 1.84375 -2.695312 1.722656 -2.734375 1.578125 -2.734375 C 1.429688 -2.734375 1.3125 -2.695312 1.21875 -2.625 C 1.125 -2.5625 1.046875 -2.445312 0.984375 -2.28125 C 0.929688 -2.113281 0.90625 -1.894531 0.90625 -1.625 C 0.90625 -1.34375 0.929688 -1.117188 0.984375 -0.953125 C 1.046875 -0.785156 1.125 -0.664062 1.21875 -0.59375 C 1.3125 -0.53125 1.429688 -0.5 1.578125 -0.5 Z M 1.578125 -0.5 "/></g></g><g transform="translate(117.054221, 8.936208)"><g><path d="M 0.625 0.015625 C 0.539062 0.015625 0.46875 0 0.40625 -0.03125 C 0.351562 -0.0625 0.3125 -0.101562 0.28125 -0.15625 C 0.25 -0.21875 0.234375 -0.28125 0.234375 -0.34375 C 0.234375 -0.414062 0.25 -0.476562 0.28125 -0.53125 C 0.3125 -0.59375 0.351562 -0.640625 0.40625 -0.671875 C 0.46875 -0.703125 0.539062 -0.71875 0.625 -0.71875 C 0.707031 -0.71875 0.773438 -0.703125 0.828125 -0.671875 C 0.890625 -0.640625 0.9375 -0.59375 0.96875 -0.53125 C 1 -0.476562 1.015625 -0.421875 1.015625 -0.359375 C 1.015625 -0.242188 0.976562 -0.148438 0.90625 -0.078125 C 0.832031 -0.015625 0.738281 0.015625 0.625 0.015625 Z M 0.625 0.015625 "/></g></g><g transform="translate(118.303605, 8.936208)"><g><path d="M 0.15625 -0.25 C 0.15625 -0.4375 0.175781 -0.585938 0.21875 -0.703125 C 0.257812 -0.828125 0.320312 -0.9375 0.40625 -1.03125 C 0.5 -1.132812 0.625 -1.25 0.78125 -1.375 L 1.21875 -1.6875 C 1.332031 -1.769531 1.421875 -1.84375 1.484375 -1.90625 C 1.554688 -1.96875 1.609375 -2.03125 1.640625 -2.09375 C 1.671875 -2.164062 1.6875 -2.242188 1.6875 -2.328125 C 1.6875 -2.460938 1.644531 -2.5625 1.5625 -2.625 C 1.488281 -2.695312 1.367188 -2.734375 1.203125 -2.734375 C 1.054688 -2.734375 0.921875 -2.695312 0.796875 -2.625 C 0.679688 -2.550781 0.582031 -2.453125 0.5 -2.328125 L 0.46875 -2.3125 L 0.109375 -2.71875 C 0.222656 -2.882812 0.375 -3.019531 0.5625 -3.125 C 0.75 -3.226562 0.972656 -3.28125 1.234375 -3.28125 C 1.472656 -3.28125 1.675781 -3.238281 1.84375 -3.15625 C 2.007812 -3.082031 2.128906 -2.972656 2.203125 -2.828125 C 2.285156 -2.691406 2.328125 -2.535156 2.328125 -2.359375 C 2.328125 -2.203125 2.289062 -2.0625 2.21875 -1.9375 C 2.15625 -1.8125 2.066406 -1.691406 1.953125 -1.578125 C 1.847656 -1.472656 1.707031 -1.359375 1.53125 -1.234375 L 1.140625 -0.96875 C 1.023438 -0.882812 0.941406 -0.8125 0.890625 -0.75 C 0.847656 -0.6875 0.828125 -0.613281 0.828125 -0.53125 L 2.296875 -0.53125 L 2.296875 0 L 0.15625 0 Z M 0.15625 -0.25 "/></g></g><g transform="translate(120.826697, 8.936208)"><g/></g><g transform="translate(121.894755, 8.936208)"><g><path d="M 1.265625 1.03125 C 0.859375 1.03125 0.5625 0.972656 0.375 0.859375 C 0.1875 0.742188 0.09375 0.578125 0.09375 0.359375 C 0.09375 0.234375 0.128906 0.128906 0.203125 0.046875 C 0.285156 -0.0351562 0.40625 -0.0859375 0.5625 -0.109375 L 0.5625 -0.15625 C 0.476562 -0.207031 0.414062 -0.265625 0.375 -0.328125 C 0.34375 -0.390625 0.328125 -0.460938 0.328125 -0.546875 C 0.328125 -0.742188 0.457031 -0.875 0.71875 -0.9375 L 0.71875 -0.984375 C 0.582031 -1.054688 0.476562 -1.148438 0.40625 -1.265625 C 0.34375 -1.378906 0.3125 -1.515625 0.3125 -1.671875 C 0.3125 -1.828125 0.347656 -1.96875 0.421875 -2.09375 C 0.503906 -2.21875 0.613281 -2.3125 0.75 -2.375 C 0.894531 -2.445312 1.066406 -2.484375 1.265625 -2.484375 C 1.472656 -2.484375 1.640625 -2.445312 1.765625 -2.375 C 1.835938 -2.488281 1.878906 -2.617188 1.890625 -2.765625 L 1.9375 -2.78125 L 2.375 -2.671875 C 2.363281 -2.554688 2.328125 -2.457031 2.265625 -2.375 C 2.210938 -2.300781 2.128906 -2.234375 2.015625 -2.171875 L 2.015625 -2.125 C 2.148438 -2 2.21875 -1.832031 2.21875 -1.625 C 2.21875 -1.46875 2.179688 -1.328125 2.109375 -1.203125 C 2.035156 -1.085938 1.925781 -0.992188 1.78125 -0.921875 C 1.632812 -0.859375 1.460938 -0.828125 1.265625 -0.828125 L 1.171875 -0.828125 C 1.117188 -0.828125 1.082031 -0.828125 1.0625 -0.828125 C 1 -0.828125 0.953125 -0.8125 0.921875 -0.78125 C 0.890625 -0.757812 0.875 -0.722656 0.875 -0.671875 C 0.875 -0.617188 0.894531 -0.578125 0.9375 -0.546875 C 0.976562 -0.523438 1.039062 -0.507812 1.125 -0.5 L 1.671875 -0.484375 C 2.203125 -0.460938 2.46875 -0.226562 2.46875 0.21875 C 2.46875 0.375 2.425781 0.507812 2.34375 0.625 C 2.269531 0.75 2.140625 0.847656 1.953125 0.921875 C 1.773438 0.992188 1.546875 1.03125 1.265625 1.03125 Z M 1.265625 -1.25 C 1.390625 -1.25 1.484375 -1.285156 1.546875 -1.359375 C 1.609375 -1.429688 1.640625 -1.53125 1.640625 -1.65625 C 1.640625 -1.78125 1.609375 -1.878906 1.546875 -1.953125 C 1.484375 -2.023438 1.390625 -2.0625 1.265625 -2.0625 C 1.148438 -2.0625 1.054688 -2.023438 0.984375 -1.953125 C 0.921875 -1.878906 0.890625 -1.78125 0.890625 -1.65625 C 0.890625 -1.53125 0.921875 -1.429688 0.984375 -1.359375 C 1.054688 -1.285156 1.148438 -1.25 1.265625 -1.25 Z M 1.265625 0.59375 C 1.472656 0.59375 1.625 0.5625 1.71875 0.5 C 1.8125 0.4375 1.859375 0.359375 1.859375 0.265625 C 1.859375 0.191406 1.832031 0.132812 1.78125 0.09375 C 1.738281 0.0625 1.664062 0.046875 1.5625 0.046875 L 1.078125 0.015625 C 1.054688 0.015625 1.039062 0.015625 1.03125 0.015625 C 1.019531 0.015625 1.003906 0.015625 0.984375 0.015625 C 0.890625 0.015625 0.8125 0.0351562 0.75 0.078125 C 0.695312 0.128906 0.671875 0.191406 0.671875 0.265625 C 0.671875 0.367188 0.71875 0.445312 0.8125 0.5 C 0.914062 0.5625 1.066406 0.59375 1.265625 0.59375 Z M 1.265625 0.59375 "/></g></g><g transform="translate(124.431115, 8.936208)"><g><path d="M 0.59375 0.46875 L 0.015625 0.46875 L 1.21875 -3.421875 L 1.796875 -3.421875 Z M 0.59375 0.46875 "/></g></g><g transform="translate(126.33062, 8.936208)"><g><path d="M 1.015625 0.046875 C 0.796875 0.046875 0.628906 -0.0078125 0.515625 -0.125 C 0.398438 -0.25 0.34375 -0.429688 0.34375 -0.671875 L 0.34375 -3.421875 L 0.953125 -3.421875 L 0.953125 -0.703125 C 0.953125 -0.546875 1.015625 -0.46875 1.140625 -0.46875 C 1.171875 -0.46875 1.207031 -0.472656 1.25 -0.484375 L 1.28125 -0.484375 L 1.328125 -0.015625 C 1.296875 0.00390625 1.25 0.0195312 1.1875 0.03125 C 1.132812 0.0390625 1.078125 0.046875 1.015625 0.046875 Z M 1.015625 0.046875 "/></g></g></g><g fill="#004aad" fill-opacity="1"><g transform="translate(11.730898, 19.472885)"><g><path d="M 1.046875 0 L 0.421875 0 L 0.421875 -3.234375 L 1.15625 -3.234375 L 2.453125 -1.15625 L 2.515625 -1.15625 L 2.515625 -3.234375 L 3.125 -3.234375 L 3.125 0 L 2.46875 0 L 1.09375 -2.21875 L 1.046875 -2.21875 Z M 1.046875 0 "/></g></g><g transform="translate(15.27561, 19.472885)"><g><path d="M 0.953125 0.046875 C 0.796875 0.046875 0.660156 0.0195312 0.546875 -0.03125 C 0.429688 -0.09375 0.34375 -0.175781 0.28125 -0.28125 C 0.21875 -0.394531 0.1875 -0.53125 0.1875 -0.6875 C 0.1875 -0.832031 0.21875 -0.953125 0.28125 -1.046875 C 0.34375 -1.148438 0.4375 -1.234375 0.5625 -1.296875 C 0.695312 -1.359375 0.867188 -1.40625 1.078125 -1.4375 C 1.222656 -1.46875 1.332031 -1.492188 1.40625 -1.515625 C 1.476562 -1.546875 1.53125 -1.578125 1.5625 -1.609375 C 1.59375 -1.648438 1.609375 -1.695312 1.609375 -1.75 C 1.609375 -1.832031 1.578125 -1.894531 1.515625 -1.9375 C 1.460938 -1.976562 1.375 -2 1.25 -2 C 1.113281 -2 0.984375 -1.96875 0.859375 -1.90625 C 0.734375 -1.84375 0.628906 -1.757812 0.546875 -1.65625 L 0.5 -1.65625 L 0.234375 -2.046875 C 0.359375 -2.179688 0.507812 -2.285156 0.6875 -2.359375 C 0.875 -2.441406 1.070312 -2.484375 1.28125 -2.484375 C 1.601562 -2.484375 1.835938 -2.414062 1.984375 -2.28125 C 2.128906 -2.144531 2.203125 -1.953125 2.203125 -1.703125 L 2.203125 -0.640625 C 2.203125 -0.523438 2.25 -0.46875 2.34375 -0.46875 C 2.375 -0.46875 2.410156 -0.476562 2.453125 -0.5 L 2.484375 -0.484375 L 2.53125 -0.0625 C 2.488281 -0.0390625 2.4375 -0.0195312 2.375 0 C 2.320312 0.0078125 2.257812 0.015625 2.1875 0.015625 C 2.039062 0.015625 1.925781 -0.0078125 1.84375 -0.0625 C 1.757812 -0.125 1.703125 -0.210938 1.671875 -0.328125 L 1.625 -0.328125 C 1.5 -0.078125 1.273438 0.046875 0.953125 0.046875 Z M 1.140625 -0.40625 C 1.285156 -0.40625 1.398438 -0.453125 1.484375 -0.546875 C 1.566406 -0.648438 1.609375 -0.785156 1.609375 -0.953125 L 1.609375 -1.203125 L 1.578125 -1.203125 C 1.535156 -1.171875 1.484375 -1.144531 1.421875 -1.125 C 1.367188 -1.113281 1.285156 -1.097656 1.171875 -1.078125 C 1.035156 -1.054688 0.9375 -1.015625 0.875 -0.953125 C 0.820312 -0.898438 0.796875 -0.828125 0.796875 -0.734375 C 0.796875 -0.628906 0.828125 -0.546875 0.890625 -0.484375 C 0.953125 -0.429688 1.035156 -0.40625 1.140625 -0.40625 Z M 1.140625 -0.40625 "/></g></g><g transform="translate(17.847351, 19.472885)"><g><path d="M 1.421875 0.046875 C 1.179688 0.046875 0.972656 0 0.796875 -0.09375 C 0.617188 -0.195312 0.476562 -0.34375 0.375 -0.53125 C 0.269531 -0.71875 0.21875 -0.945312 0.21875 -1.21875 C 0.21875 -1.488281 0.269531 -1.71875 0.375 -1.90625 C 0.476562 -2.09375 0.617188 -2.234375 0.796875 -2.328125 C 0.972656 -2.429688 1.175781 -2.484375 1.40625 -2.484375 C 1.925781 -2.484375 2.257812 -2.296875 2.40625 -1.921875 L 1.984375 -1.625 L 1.9375 -1.625 C 1.882812 -1.738281 1.816406 -1.820312 1.734375 -1.875 C 1.660156 -1.9375 1.550781 -1.96875 1.40625 -1.96875 C 1.226562 -1.96875 1.085938 -1.90625 0.984375 -1.78125 C 0.890625 -1.65625 0.84375 -1.46875 0.84375 -1.21875 C 0.84375 -0.96875 0.894531 -0.78125 1 -0.65625 C 1.101562 -0.53125 1.242188 -0.46875 1.421875 -0.46875 C 1.554688 -0.46875 1.664062 -0.503906 1.75 -0.578125 C 1.84375 -0.648438 1.910156 -0.753906 1.953125 -0.890625 L 2 -0.890625 L 2.4375 -0.65625 C 2.375 -0.445312 2.257812 -0.273438 2.09375 -0.140625 C 1.925781 -0.015625 1.703125 0.046875 1.421875 0.046875 Z M 1.421875 0.046875 "/></g></g><g transform="translate(20.361597, 19.472885)"><g><path d="M 1.015625 0.046875 C 0.796875 0.046875 0.628906 -0.0078125 0.515625 -0.125 C 0.398438 -0.25 0.34375 -0.429688 0.34375 -0.671875 L 0.34375 -3.421875 L 0.953125 -3.421875 L 0.953125 -0.703125 C 0.953125 -0.546875 1.015625 -0.46875 1.140625 -0.46875 C 1.171875 -0.46875 1.207031 -0.472656 1.25 -0.484375 L 1.28125 -0.484375 L 1.328125 -0.015625 C 1.296875 0.00390625 1.25 0.0195312 1.1875 0.03125 C 1.132812 0.0390625 1.078125 0.046875 1.015625 0.046875 Z M 1.015625 0.046875 "/></g></g></g><g fill="#000000" fill-opacity="1"><g transform="translate(113.894275, 19.472885)"><g><path d="M 1.390625 0.046875 C 1.128906 0.046875 0.910156 0.0078125 0.734375 -0.0625 C 0.554688 -0.144531 0.421875 -0.257812 0.328125 -0.40625 C 0.242188 -0.5625 0.203125 -0.738281 0.203125 -0.9375 C 0.203125 -1.125 0.25 -1.285156 0.34375 -1.421875 C 0.4375 -1.554688 0.570312 -1.664062 0.75 -1.75 L 0.75 -1.796875 C 0.625 -1.867188 0.523438 -1.957031 0.453125 -2.0625 C 0.390625 -2.175781 0.359375 -2.304688 0.359375 -2.453125 C 0.359375 -2.617188 0.394531 -2.765625 0.46875 -2.890625 C 0.550781 -3.015625 0.671875 -3.109375 0.828125 -3.171875 C 0.984375 -3.242188 1.171875 -3.28125 1.390625 -3.28125 C 1.609375 -3.28125 1.789062 -3.242188 1.9375 -3.171875 C 2.09375 -3.109375 2.210938 -3.015625 2.296875 -2.890625 C 2.378906 -2.765625 2.421875 -2.617188 2.421875 -2.453125 C 2.421875 -2.304688 2.382812 -2.175781 2.3125 -2.0625 C 2.25 -1.957031 2.15625 -1.867188 2.03125 -1.796875 L 2.03125 -1.75 C 2.21875 -1.675781 2.351562 -1.566406 2.4375 -1.421875 C 2.53125 -1.285156 2.578125 -1.125 2.578125 -0.9375 C 2.578125 -0.738281 2.53125 -0.5625 2.4375 -0.40625 C 2.34375 -0.257812 2.207031 -0.144531 2.03125 -0.0625 C 1.851562 0.0078125 1.640625 0.046875 1.390625 0.046875 Z M 1.390625 -1.96875 C 1.515625 -1.96875 1.613281 -2.003906 1.6875 -2.078125 C 1.769531 -2.148438 1.8125 -2.25 1.8125 -2.375 C 1.8125 -2.5 1.769531 -2.597656 1.6875 -2.671875 C 1.613281 -2.742188 1.515625 -2.78125 1.390625 -2.78125 C 1.253906 -2.78125 1.148438 -2.742188 1.078125 -2.671875 C 1.003906 -2.597656 0.96875 -2.5 0.96875 -2.375 C 0.96875 -2.25 1.003906 -2.148438 1.078125 -2.078125 C 1.148438 -2.003906 1.253906 -1.96875 1.390625 -1.96875 Z M 1.390625 -0.5 C 1.554688 -0.5 1.6875 -0.539062 1.78125 -0.625 C 1.875 -0.707031 1.921875 -0.828125 1.921875 -0.984375 C 1.921875 -1.140625 1.875 -1.257812 1.78125 -1.34375 C 1.6875 -1.425781 1.554688 -1.46875 1.390625 -1.46875 C 1.210938 -1.46875 1.078125 -1.425781 0.984375 -1.34375 C 0.890625 -1.257812 0.84375 -1.140625 0.84375 -0.984375 C 0.84375 -0.828125 0.890625 -0.707031 0.984375 -0.625 C 1.078125 -0.539062 1.210938 -0.5 1.390625 -0.5 Z M 1.390625 -0.5 "/></g></g><g transform="translate(116.667244, 19.472885)"><g><path d="M 0.625 0.015625 C 0.539062 0.015625 0.46875 0 0.40625 -0.03125 C 0.351562 -0.0625 0.3125 -0.101562 0.28125 -0.15625 C 0.25 -0.21875 0.234375 -0.28125 0.234375 -0.34375 C 0.234375 -0.414062 0.25 -0.476562 0.28125 -0.53125 C 0.3125 -0.59375 0.351562 -0.640625 0.40625 -0.671875 C 0.46875 -0.703125 0.539062 -0.71875 0.625 -0.71875 C 0.707031 -0.71875 0.773438 -0.703125 0.828125 -0.671875 C 0.890625 -0.640625 0.9375 -0.59375 0.96875 -0.53125 C 1 -0.476562 1.015625 -0.421875 1.015625 -0.359375 C 1.015625 -0.242188 0.976562 -0.148438 0.90625 -0.078125 C 0.832031 -0.015625 0.738281 0.015625 0.625 0.015625 Z M 0.625 0.015625 "/></g></g><g transform="translate(117.916628, 19.472885)"><g><path d="M 1.578125 0.046875 C 1.316406 0.046875 1.085938 -0.0078125 0.890625 -0.125 C 0.691406 -0.25 0.535156 -0.429688 0.421875 -0.671875 C 0.316406 -0.921875 0.265625 -1.238281 0.265625 -1.625 C 0.265625 -2 0.316406 -2.304688 0.421875 -2.546875 C 0.535156 -2.796875 0.691406 -2.976562 0.890625 -3.09375 C 1.085938 -3.21875 1.316406 -3.28125 1.578125 -3.28125 C 1.847656 -3.28125 2.078125 -3.21875 2.265625 -3.09375 C 2.460938 -2.976562 2.613281 -2.796875 2.71875 -2.546875 C 2.832031 -2.304688 2.890625 -2 2.890625 -1.625 C 2.890625 -1.238281 2.832031 -0.921875 2.71875 -0.671875 C 2.613281 -0.429688 2.460938 -0.25 2.265625 -0.125 C 2.078125 -0.0078125 1.847656 0.046875 1.578125 0.046875 Z M 1.578125 -0.5 C 1.722656 -0.5 1.84375 -0.53125 1.9375 -0.59375 C 2.039062 -0.664062 2.117188 -0.785156 2.171875 -0.953125 C 2.222656 -1.117188 2.25 -1.34375 2.25 -1.625 C 2.25 -1.894531 2.222656 -2.113281 2.171875 -2.28125 C 2.117188 -2.445312 2.039062 -2.5625 1.9375 -2.625 C 1.84375 -2.695312 1.722656 -2.734375 1.578125 -2.734375 C 1.429688 -2.734375 1.3125 -2.695312 1.21875 -2.625 C 1.125 -2.5625 1.046875 -2.445312 0.984375 -2.28125 C 0.929688 -2.113281 0.90625 -1.894531 0.90625 -1.625 C 0.90625 -1.34375 0.929688 -1.117188 0.984375 -0.953125 C 1.046875 -0.785156 1.125 -0.664062 1.21875 -0.59375 C 1.3125 -0.53125 1.429688 -0.5 1.578125 -0.5 Z M 1.578125 -0.5 "/></g></g><g transform="translate(121.076574, 19.472885)"><g/></g><g transform="translate(122.144631, 19.472885)"><g><path d="M 1.265625 1.03125 C 0.859375 1.03125 0.5625 0.972656 0.375 0.859375 C 0.1875 0.742188 0.09375 0.578125 0.09375 0.359375 C 0.09375 0.234375 0.128906 0.128906 0.203125 0.046875 C 0.285156 -0.0351562 0.40625 -0.0859375 0.5625 -0.109375 L 0.5625 -0.15625 C 0.476562 -0.207031 0.414062 -0.265625 0.375 -0.328125 C 0.34375 -0.390625 0.328125 -0.460938 0.328125 -0.546875 C 0.328125 -0.742188 0.457031 -0.875 0.71875 -0.9375 L 0.71875 -0.984375 C 0.582031 -1.054688 0.476562 -1.148438 0.40625 -1.265625 C 0.34375 -1.378906 0.3125 -1.515625 0.3125 -1.671875 C 0.3125 -1.828125 0.347656 -1.96875 0.421875 -2.09375 C 0.503906 -2.21875 0.613281 -2.3125 0.75 -2.375 C 0.894531 -2.445312 1.066406 -2.484375 1.265625 -2.484375 C 1.472656 -2.484375 1.640625 -2.445312 1.765625 -2.375 C 1.835938 -2.488281 1.878906 -2.617188 1.890625 -2.765625 L 1.9375 -2.78125 L 2.375 -2.671875 C 2.363281 -2.554688 2.328125 -2.457031 2.265625 -2.375 C 2.210938 -2.300781 2.128906 -2.234375 2.015625 -2.171875 L 2.015625 -2.125 C 2.148438 -2 2.21875 -1.832031 2.21875 -1.625 C 2.21875 -1.46875 2.179688 -1.328125 2.109375 -1.203125 C 2.035156 -1.085938 1.925781 -0.992188 1.78125 -0.921875 C 1.632812 -0.859375 1.460938 -0.828125 1.265625 -0.828125 L 1.171875 -0.828125 C 1.117188 -0.828125 1.082031 -0.828125 1.0625 -0.828125 C 1 -0.828125 0.953125 -0.8125 0.921875 -0.78125 C 0.890625 -0.757812 0.875 -0.722656 0.875 -0.671875 C 0.875 -0.617188 0.894531 -0.578125 0.9375 -0.546875 C 0.976562 -0.523438 1.039062 -0.507812 1.125 -0.5 L 1.671875 -0.484375 C 2.203125 -0.460938 2.46875 -0.226562 2.46875 0.21875 C 2.46875 0.375 2.425781 0.507812 2.34375 0.625 C 2.269531 0.75 2.140625 0.847656 1.953125 0.921875 C 1.773438 0.992188 1.546875 1.03125 1.265625 1.03125 Z M 1.265625 -1.25 C 1.390625 -1.25 1.484375 -1.285156 1.546875 -1.359375 C 1.609375 -1.429688 1.640625 -1.53125 1.640625 -1.65625 C 1.640625 -1.78125 1.609375 -1.878906 1.546875 -1.953125 C 1.484375 -2.023438 1.390625 -2.0625 1.265625 -2.0625 C 1.148438 -2.0625 1.054688 -2.023438 0.984375 -1.953125 C 0.921875 -1.878906 0.890625 -1.78125 0.890625 -1.65625 C 0.890625 -1.53125 0.921875 -1.429688 0.984375 -1.359375 C 1.054688 -1.285156 1.148438 -1.25 1.265625 -1.25 Z M 1.265625 0.59375 C 1.472656 0.59375 1.625 0.5625 1.71875 0.5 C 1.8125 0.4375 1.859375 0.359375 1.859375 0.265625 C 1.859375 0.191406 1.832031 0.132812 1.78125 0.09375 C 1.738281 0.0625 1.664062 0.046875 1.5625 0.046875 L 1.078125 0.015625 C 1.054688 0.015625 1.039062 0.015625 1.03125 0.015625 C 1.019531 0.015625 1.003906 0.015625 0.984375 0.015625 C 0.890625 0.015625 0.8125 0.0351562 0.75 0.078125 C 0.695312 0.128906 0.671875 0.191406 0.671875 0.265625 C 0.671875 0.367188 0.71875 0.445312 0.8125 0.5 C 0.914062 0.5625 1.066406 0.59375 1.265625 0.59375 Z M 1.265625 0.59375 "/></g></g></g><g fill="#004aad" fill-opacity="1"><g transform="translate(11.730898, 30.009562)"><g><path d="M 1.046875 0 L 0.421875 0 L 0.421875 -3.234375 L 1.15625 -3.234375 L 2.453125 -1.15625 L 2.515625 -1.15625 L 2.515625 -3.234375 L 3.125 -3.234375 L 3.125 0 L 2.46875 0 L 1.09375 -2.21875 L 1.046875 -2.21875 Z M 1.046875 0 "/></g></g><g transform="translate(15.27561, 30.009562)"><g><path d="M 0.953125 0.046875 C 0.796875 0.046875 0.660156 0.0195312 0.546875 -0.03125 C 0.429688 -0.09375 0.34375 -0.175781 0.28125 -0.28125 C 0.21875 -0.394531 0.1875 -0.53125 0.1875 -0.6875 C 0.1875 -0.832031 0.21875 -0.953125 0.28125 -1.046875 C 0.34375 -1.148438 0.4375 -1.234375 0.5625 -1.296875 C 0.695312 -1.359375 0.867188 -1.40625 1.078125 -1.4375 C 1.222656 -1.46875 1.332031 -1.492188 1.40625 -1.515625 C 1.476562 -1.546875 1.53125 -1.578125 1.5625 -1.609375 C 1.59375 -1.648438 1.609375 -1.695312 1.609375 -1.75 C 1.609375 -1.832031 1.578125 -1.894531 1.515625 -1.9375 C 1.460938 -1.976562 1.375 -2 1.25 -2 C 1.113281 -2 0.984375 -1.96875 0.859375 -1.90625 C 0.734375 -1.84375 0.628906 -1.757812 0.546875 -1.65625 L 0.5 -1.65625 L 0.234375 -2.046875 C 0.359375 -2.179688 0.507812 -2.285156 0.6875 -2.359375 C 0.875 -2.441406 1.070312 -2.484375 1.28125 -2.484375 C 1.601562 -2.484375 1.835938 -2.414062 1.984375 -2.28125 C 2.128906 -2.144531 2.203125 -1.953125 2.203125 -1.703125 L 2.203125 -0.640625 C 2.203125 -0.523438 2.25 -0.46875 2.34375 -0.46875 C 2.375 -0.46875 2.410156 -0.476562 2.453125 -0.5 L 2.484375 -0.484375 L 2.53125 -0.0625 C 2.488281 -0.0390625 2.4375 -0.0195312 2.375 0 C 2.320312 0.0078125 2.257812 0.015625 2.1875 0.015625 C 2.039062 0.015625 1.925781 -0.0078125 1.84375 -0.0625 C 1.757812 -0.125 1.703125 -0.210938 1.671875 -0.328125 L 1.625 -0.328125 C 1.5 -0.078125 1.273438 0.046875 0.953125 0.046875 Z M 1.140625 -0.40625 C 1.285156 -0.40625 1.398438 -0.453125 1.484375 -0.546875 C 1.566406 -0.648438 1.609375 -0.785156 1.609375 -0.953125 L 1.609375 -1.203125 L 1.578125 -1.203125 C 1.535156 -1.171875 1.484375 -1.144531 1.421875 -1.125 C 1.367188 -1.113281 1.285156 -1.097656 1.171875 -1.078125 C 1.035156 -1.054688 0.9375 -1.015625 0.875 -0.953125 C 0.820312 -0.898438 0.796875 -0.828125 0.796875 -0.734375 C 0.796875 -0.628906 0.828125 -0.546875 0.890625 -0.484375 C 0.953125 -0.429688 1.035156 -0.40625 1.140625 -0.40625 Z M 1.140625 -0.40625 "/></g></g><g transform="translate(17.847351, 30.009562)"><g><path d="M 0.15625 -0.25 C 0.15625 -0.4375 0.175781 -0.585938 0.21875 -0.703125 C 0.257812 -0.828125 0.320312 -0.9375 0.40625 -1.03125 C 0.5 -1.132812 0.625 -1.25 0.78125 -1.375 L 1.21875 -1.6875 C 1.332031 -1.769531 1.421875 -1.84375 1.484375 -1.90625 C 1.554688 -1.96875 1.609375 -2.03125 1.640625 -2.09375 C 1.671875 -2.164062 1.6875 -2.242188 1.6875 -2.328125 C 1.6875 -2.460938 1.644531 -2.5625 1.5625 -2.625 C 1.488281 -2.695312 1.367188 -2.734375 1.203125 -2.734375 C 1.054688 -2.734375 0.921875 -2.695312 0.796875 -2.625 C 0.679688 -2.550781 0.582031 -2.453125 0.5 -2.328125 L 0.46875 -2.3125 L 0.109375 -2.71875 C 0.222656 -2.882812 0.375 -3.019531 0.5625 -3.125 C 0.75 -3.226562 0.972656 -3.28125 1.234375 -3.28125 C 1.472656 -3.28125 1.675781 -3.238281 1.84375 -3.15625 C 2.007812 -3.082031 2.128906 -2.972656 2.203125 -2.828125 C 2.285156 -2.691406 2.328125 -2.535156 2.328125 -2.359375 C 2.328125 -2.203125 2.289062 -2.0625 2.21875 -1.9375 C 2.15625 -1.8125 2.066406 -1.691406 1.953125 -1.578125 C 1.847656 -1.472656 1.707031 -1.359375 1.53125 -1.234375 L 1.140625 -0.96875 C 1.023438 -0.882812 0.941406 -0.8125 0.890625 -0.75 C 0.847656 -0.6875 0.828125 -0.613281 0.828125 -0.53125 L 2.296875 -0.53125 L 2.296875 0 L 0.15625 0 Z M 0.15625 -0.25 "/></g></g><g transform="translate(20.370443, 30.009562)"><g><path d="M 2.515625 -2.015625 L 2.515625 -3.234375 L 3.140625 -3.234375 L 3.140625 0 L 2.515625 0 L 2.515625 -1.46875 L 1.0625 -1.46875 L 1.0625 0 L 0.421875 0 L 0.421875 -3.234375 L 1.0625 -3.234375 L 1.0625 -2.015625 Z M 2.515625 -2.015625 "/></g></g><g transform="translate(23.937268, 30.009562)"><g><path d="M 1.671875 -3.234375 C 1.898438 -3.234375 2.097656 -3.191406 2.265625 -3.109375 C 2.429688 -3.023438 2.554688 -2.90625 2.640625 -2.75 C 2.722656 -2.59375 2.765625 -2.414062 2.765625 -2.21875 C 2.765625 -2.019531 2.722656 -1.84375 2.640625 -1.6875 C 2.554688 -1.53125 2.429688 -1.410156 2.265625 -1.328125 C 2.097656 -1.242188 1.898438 -1.203125 1.671875 -1.203125 L 1.0625 -1.203125 L 1.0625 0 L 0.421875 0 L 0.421875 -3.234375 Z M 1.59375 -1.71875 C 1.945312 -1.71875 2.125 -1.882812 2.125 -2.21875 C 2.125 -2.5625 1.945312 -2.734375 1.59375 -2.734375 L 1.0625 -2.734375 L 1.0625 -1.71875 Z M 1.59375 -1.71875 "/></g></g><g transform="translate(26.891563, 30.009562)"><g><path d="M 1.765625 0.046875 C 1.460938 0.046875 1.195312 -0.0078125 0.96875 -0.125 C 0.75 -0.25 0.570312 -0.4375 0.4375 -0.6875 C 0.3125 -0.9375 0.25 -1.25 0.25 -1.625 C 0.25 -1.988281 0.3125 -2.296875 0.4375 -2.546875 C 0.570312 -2.796875 0.75 -2.976562 0.96875 -3.09375 C 1.195312 -3.21875 1.460938 -3.28125 1.765625 -3.28125 C 2.054688 -3.28125 2.316406 -3.21875 2.546875 -3.09375 C 2.773438 -2.976562 2.953125 -2.796875 3.078125 -2.546875 C 3.203125 -2.296875 3.265625 -1.988281 3.265625 -1.625 C 3.265625 -1.25 3.203125 -0.9375 3.078125 -0.6875 C 2.953125 -0.4375 2.773438 -0.25 2.546875 -0.125 C 2.316406 -0.0078125 2.054688 0.046875 1.765625 0.046875 Z M 1.765625 -0.515625 C 2.035156 -0.515625 2.242188 -0.597656 2.390625 -0.765625 C 2.535156 -0.941406 2.609375 -1.226562 2.609375 -1.625 C 2.609375 -2.007812 2.535156 -2.289062 2.390625 -2.46875 C 2.242188 -2.644531 2.035156 -2.734375 1.765625 -2.734375 C 1.484375 -2.734375 1.269531 -2.644531 1.125 -2.46875 C 0.976562 -2.289062 0.90625 -2.007812 0.90625 -1.625 C 0.90625 -1.226562 0.976562 -0.941406 1.125 -0.765625 C 1.269531 -0.597656 1.484375 -0.515625 1.765625 -0.515625 Z M 1.765625 -0.515625 "/></g></g><g transform="translate(30.414162, 30.009562)"><g><path d="M 2.203125 0 L 1.578125 0 L 1.578125 -0.703125 L 0.109375 -0.703125 L 0.109375 -1.21875 L 1.375 -3.234375 L 2.203125 -3.234375 L 2.203125 -1.21875 L 2.6875 -1.21875 L 2.6875 -0.703125 L 2.203125 -0.703125 Z M 0.765625 -1.265625 L 0.78125 -1.21875 L 1.578125 -1.21875 L 1.578125 -2.46875 L 1.53125 -2.484375 Z M 0.765625 -1.265625 "/></g></g></g><g fill="#000000" fill-opacity="1"><g transform="translate(113.894275, 30.009562)"><g><path d="M 0.171875 0 L 0.171875 -0.53125 L 0.953125 -0.53125 L 0.953125 -2.546875 L 0.90625 -2.5625 C 0.789062 -2.5 0.675781 -2.453125 0.5625 -2.421875 C 0.457031 -2.398438 0.335938 -2.378906 0.203125 -2.359375 L 0.203125 -2.90625 C 0.566406 -2.976562 0.859375 -3.085938 1.078125 -3.234375 L 1.578125 -3.234375 L 1.578125 -0.53125 L 2.28125 -0.53125 L 2.28125 0 Z M 0.171875 0 "/></g></g><g transform="translate(116.280267, 30.009562)"><g><path d="M 0.625 0.015625 C 0.539062 0.015625 0.46875 0 0.40625 -0.03125 C 0.351562 -0.0625 0.3125 -0.101562 0.28125 -0.15625 C 0.25 -0.21875 0.234375 -0.28125 0.234375 -0.34375 C 0.234375 -0.414062 0.25 -0.476562 0.28125 -0.53125 C 0.3125 -0.59375 0.351562 -0.640625 0.40625 -0.671875 C 0.46875 -0.703125 0.539062 -0.71875 0.625 -0.71875 C 0.707031 -0.71875 0.773438 -0.703125 0.828125 -0.671875 C 0.890625 -0.640625 0.9375 -0.59375 0.96875 -0.53125 C 1 -0.476562 1.015625 -0.421875 1.015625 -0.359375 C 1.015625 -0.242188 0.976562 -0.148438 0.90625 -0.078125 C 0.832031 -0.015625 0.738281 0.015625 0.625 0.015625 Z M 0.625 0.015625 "/></g></g><g transform="translate(117.529651, 30.009562)"><g><path d="M 1.359375 0.046875 C 1.046875 0.046875 0.800781 -0.015625 0.625 -0.140625 C 0.457031 -0.265625 0.34375 -0.4375 0.28125 -0.65625 L 0.765625 -0.875 L 0.8125 -0.859375 C 0.894531 -0.617188 1.070312 -0.5 1.34375 -0.5 C 1.550781 -0.5 1.710938 -0.582031 1.828125 -0.75 C 1.941406 -0.925781 2 -1.191406 2 -1.546875 L 1.953125 -1.5625 C 1.878906 -1.414062 1.78125 -1.304688 1.65625 -1.234375 C 1.539062 -1.160156 1.390625 -1.125 1.203125 -1.125 C 1.003906 -1.125 0.832031 -1.164062 0.6875 -1.25 C 0.539062 -1.34375 0.425781 -1.46875 0.34375 -1.625 C 0.257812 -1.78125 0.21875 -1.96875 0.21875 -2.1875 C 0.21875 -2.40625 0.265625 -2.597656 0.359375 -2.765625 C 0.460938 -2.929688 0.597656 -3.054688 0.765625 -3.140625 C 0.941406 -3.234375 1.144531 -3.28125 1.375 -3.28125 C 1.78125 -3.28125 2.09375 -3.148438 2.3125 -2.890625 C 2.539062 -2.640625 2.65625 -2.234375 2.65625 -1.671875 C 2.65625 -1.285156 2.601562 -0.960938 2.5 -0.703125 C 2.394531 -0.453125 2.242188 -0.265625 2.046875 -0.140625 C 1.859375 -0.015625 1.628906 0.046875 1.359375 0.046875 Z M 1.390625 -1.65625 C 1.554688 -1.65625 1.6875 -1.703125 1.78125 -1.796875 C 1.882812 -1.898438 1.9375 -2.03125 1.9375 -2.1875 C 1.9375 -2.351562 1.882812 -2.484375 1.78125 -2.578125 C 1.6875 -2.679688 1.554688 -2.734375 1.390625 -2.734375 C 1.222656 -2.734375 1.09375 -2.6875 1 -2.59375 C 0.914062 -2.5 0.875 -2.363281 0.875 -2.1875 C 0.875 -2.019531 0.914062 -1.890625 1 -1.796875 C 1.09375 -1.703125 1.222656 -1.65625 1.390625 -1.65625 Z M 1.390625 -1.65625 "/></g></g><g transform="translate(120.452988, 30.009562)"><g><path d="M 0.15625 -0.25 C 0.15625 -0.4375 0.175781 -0.585938 0.21875 -0.703125 C 0.257812 -0.828125 0.320312 -0.9375 0.40625 -1.03125 C 0.5 -1.132812 0.625 -1.25 0.78125 -1.375 L 1.21875 -1.6875 C 1.332031 -1.769531 1.421875 -1.84375 1.484375 -1.90625 C 1.554688 -1.96875 1.609375 -2.03125 1.640625 -2.09375 C 1.671875 -2.164062 1.6875 -2.242188 1.6875 -2.328125 C 1.6875 -2.460938 1.644531 -2.5625 1.5625 -2.625 C 1.488281 -2.695312 1.367188 -2.734375 1.203125 -2.734375 C 1.054688 -2.734375 0.921875 -2.695312 0.796875 -2.625 C 0.679688 -2.550781 0.582031 -2.453125 0.5 -2.328125 L 0.46875 -2.3125 L 0.109375 -2.71875 C 0.222656 -2.882812 0.375 -3.019531 0.5625 -3.125 C 0.75 -3.226562 0.972656 -3.28125 1.234375 -3.28125 C 1.472656 -3.28125 1.675781 -3.238281 1.84375 -3.15625 C 2.007812 -3.082031 2.128906 -2.972656 2.203125 -2.828125 C 2.285156 -2.691406 2.328125 -2.535156 2.328125 -2.359375 C 2.328125 -2.203125 2.289062 -2.0625 2.21875 -1.9375 C 2.15625 -1.8125 2.066406 -1.691406 1.953125 -1.578125 C 1.847656 -1.472656 1.707031 -1.359375 1.53125 -1.234375 L 1.140625 -0.96875 C 1.023438 -0.882812 0.941406 -0.8125 0.890625 -0.75 C 0.847656 -0.6875 0.828125 -0.613281 0.828125 -0.53125 L 2.296875 -0.53125 L 2.296875 0 L 0.15625 0 Z M 0.15625 -0.25 "/></g></g><g transform="translate(122.97608, 30.009562)"><g/></g><g transform="translate(124.044137, 30.009562)"><g><path d="M 1.265625 1.03125 C 0.859375 1.03125 0.5625 0.972656 0.375 0.859375 C 0.1875 0.742188 0.09375 0.578125 0.09375 0.359375 C 0.09375 0.234375 0.128906 0.128906 0.203125 0.046875 C 0.285156 -0.0351562 0.40625 -0.0859375 0.5625 -0.109375 L 0.5625 -0.15625 C 0.476562 -0.207031 0.414062 -0.265625 0.375 -0.328125 C 0.34375 -0.390625 0.328125 -0.460938 0.328125 -0.546875 C 0.328125 -0.742188 0.457031 -0.875 0.71875 -0.9375 L 0.71875 -0.984375 C 0.582031 -1.054688 0.476562 -1.148438 0.40625 -1.265625 C 0.34375 -1.378906 0.3125 -1.515625 0.3125 -1.671875 C 0.3125 -1.828125 0.347656 -1.96875 0.421875 -2.09375 C 0.503906 -2.21875 0.613281 -2.3125 0.75 -2.375 C 0.894531 -2.445312 1.066406 -2.484375 1.265625 -2.484375 C 1.472656 -2.484375 1.640625 -2.445312 1.765625 -2.375 C 1.835938 -2.488281 1.878906 -2.617188 1.890625 -2.765625 L 1.9375 -2.78125 L 2.375 -2.671875 C 2.363281 -2.554688 2.328125 -2.457031 2.265625 -2.375 C 2.210938 -2.300781 2.128906 -2.234375 2.015625 -2.171875 L 2.015625 -2.125 C 2.148438 -2 2.21875 -1.832031 2.21875 -1.625 C 2.21875 -1.46875 2.179688 -1.328125 2.109375 -1.203125 C 2.035156 -1.085938 1.925781 -0.992188 1.78125 -0.921875 C 1.632812 -0.859375 1.460938 -0.828125 1.265625 -0.828125 L 1.171875 -0.828125 C 1.117188 -0.828125 1.082031 -0.828125 1.0625 -0.828125 C 1 -0.828125 0.953125 -0.8125 0.921875 -0.78125 C 0.890625 -0.757812 0.875 -0.722656 0.875 -0.671875 C 0.875 -0.617188 0.894531 -0.578125 0.9375 -0.546875 C 0.976562 -0.523438 1.039062 -0.507812 1.125 -0.5 L 1.671875 -0.484375 C 2.203125 -0.460938 2.46875 -0.226562 2.46875 0.21875 C 2.46875 0.375 2.425781 0.507812 2.34375 0.625 C 2.269531 0.75 2.140625 0.847656 1.953125 0.921875 C 1.773438 0.992188 1.546875 1.03125 1.265625 1.03125 Z M 1.265625 -1.25 C 1.390625 -1.25 1.484375 -1.285156 1.546875 -1.359375 C 1.609375 -1.429688 1.640625 -1.53125 1.640625 -1.65625 C 1.640625 -1.78125 1.609375 -1.878906 1.546875 -1.953125 C 1.484375 -2.023438 1.390625 -2.0625 1.265625 -2.0625 C 1.148438 -2.0625 1.054688 -2.023438 0.984375 -1.953125 C 0.921875 -1.878906 0.890625 -1.78125 0.890625 -1.65625 C 0.890625 -1.53125 0.921875 -1.429688 0.984375 -1.359375 C 1.054688 -1.285156 1.148438 -1.25 1.265625 -1.25 Z M 1.265625 0.59375 C 1.472656 0.59375 1.625 0.5625 1.71875 0.5 C 1.8125 0.4375 1.859375 0.359375 1.859375 0.265625 C 1.859375 0.191406 1.832031 0.132812 1.78125 0.09375 C 1.738281 0.0625 1.664062 0.046875 1.5625 0.046875 L 1.078125 0.015625 C 1.054688 0.015625 1.039062 0.015625 1.03125 0.015625 C 1.019531 0.015625 1.003906 0.015625 0.984375 0.015625 C 0.890625 0.015625 0.8125 0.0351562 0.75 0.078125 C 0.695312 0.128906 0.671875 0.191406 0.671875 0.265625 C 0.671875 0.367188 0.71875 0.445312 0.8125 0.5 C 0.914062 0.5625 1.066406 0.59375 1.265625 0.59375 Z M 1.265625 0.59375 "/></g></g><g transform="translate(126.580497, 30.009562)"><g><path d="M 0.59375 0.46875 L 0.015625 0.46875 L 1.21875 -3.421875 L 1.796875 -3.421875 Z M 0.59375 0.46875 "/></g></g><g transform="translate(128.480003, 30.009562)"><g><path d="M 1.015625 0.046875 C 0.796875 0.046875 0.628906 -0.0078125 0.515625 -0.125 C 0.398438 -0.25 0.34375 -0.429688 0.34375 -0.671875 L 0.34375 -3.421875 L 0.953125 -3.421875 L 0.953125 -0.703125 C 0.953125 -0.546875 1.015625 -0.46875 1.140625 -0.46875 C 1.171875 -0.46875 1.207031 -0.472656 1.25 -0.484375 L 1.28125 -0.484375 L 1.328125 -0.015625 C 1.296875 0.00390625 1.25 0.0195312 1.1875 0.03125 C 1.132812 0.0390625 1.078125 0.046875 1.015625 0.046875 Z M 1.015625 0.046875 "/></g></g></g><g fill="#000000" fill-opacity="1"><g transform="translate(129.886389, 30.009562)"><g/></g><g transform="translate(130.954446, 30.009562)"><g/></g></g><g fill="#004aad" fill-opacity="1"><g transform="translate(11.730898, 40.546239)"><g><path d="M 1.046875 0 L 0.421875 0 L 0.421875 -3.234375 L 1.15625 -3.234375 L 2.453125 -1.15625 L 2.515625 -1.15625 L 2.515625 -3.234375 L 3.125 -3.234375 L 3.125 0 L 2.46875 0 L 1.09375 -2.21875 L 1.046875 -2.21875 Z M 1.046875 0 "/></g></g><g transform="translate(15.27561, 40.546239)"><g><path d="M 0.953125 0.046875 C 0.796875 0.046875 0.660156 0.0195312 0.546875 -0.03125 C 0.429688 -0.09375 0.34375 -0.175781 0.28125 -0.28125 C 0.21875 -0.394531 0.1875 -0.53125 0.1875 -0.6875 C 0.1875 -0.832031 0.21875 -0.953125 0.28125 -1.046875 C 0.34375 -1.148438 0.4375 -1.234375 0.5625 -1.296875 C 0.695312 -1.359375 0.867188 -1.40625 1.078125 -1.4375 C 1.222656 -1.46875 1.332031 -1.492188 1.40625 -1.515625 C 1.476562 -1.546875 1.53125 -1.578125 1.5625 -1.609375 C 1.59375 -1.648438 1.609375 -1.695312 1.609375 -1.75 C 1.609375 -1.832031 1.578125 -1.894531 1.515625 -1.9375 C 1.460938 -1.976562 1.375 -2 1.25 -2 C 1.113281 -2 0.984375 -1.96875 0.859375 -1.90625 C 0.734375 -1.84375 0.628906 -1.757812 0.546875 -1.65625 L 0.5 -1.65625 L 0.234375 -2.046875 C 0.359375 -2.179688 0.507812 -2.285156 0.6875 -2.359375 C 0.875 -2.441406 1.070312 -2.484375 1.28125 -2.484375 C 1.601562 -2.484375 1.835938 -2.414062 1.984375 -2.28125 C 2.128906 -2.144531 2.203125 -1.953125 2.203125 -1.703125 L 2.203125 -0.640625 C 2.203125 -0.523438 2.25 -0.46875 2.34375 -0.46875 C 2.375 -0.46875 2.410156 -0.476562 2.453125 -0.5 L 2.484375 -0.484375 L 2.53125 -0.0625 C 2.488281 -0.0390625 2.4375 -0.0195312 2.375 0 C 2.320312 0.0078125 2.257812 0.015625 2.1875 0.015625 C 2.039062 0.015625 1.925781 -0.0078125 1.84375 -0.0625 C 1.757812 -0.125 1.703125 -0.210938 1.671875 -0.328125 L 1.625 -0.328125 C 1.5 -0.078125 1.273438 0.046875 0.953125 0.046875 Z M 1.140625 -0.40625 C 1.285156 -0.40625 1.398438 -0.453125 1.484375 -0.546875 C 1.566406 -0.648438 1.609375 -0.785156 1.609375 -0.953125 L 1.609375 -1.203125 L 1.578125 -1.203125 C 1.535156 -1.171875 1.484375 -1.144531 1.421875 -1.125 C 1.367188 -1.113281 1.285156 -1.097656 1.171875 -1.078125 C 1.035156 -1.054688 0.9375 -1.015625 0.875 -0.953125 C 0.820312 -0.898438 0.796875 -0.828125 0.796875 -0.734375 C 0.796875 -0.628906 0.828125 -0.546875 0.890625 -0.484375 C 0.953125 -0.429688 1.035156 -0.40625 1.140625 -0.40625 Z M 1.140625 -0.40625 "/></g></g><g transform="translate(17.847351, 40.546239)"><g><path d="M 0.15625 -0.25 C 0.15625 -0.4375 0.175781 -0.585938 0.21875 -0.703125 C 0.257812 -0.828125 0.320312 -0.9375 0.40625 -1.03125 C 0.5 -1.132812 0.625 -1.25 0.78125 -1.375 L 1.21875 -1.6875 C 1.332031 -1.769531 1.421875 -1.84375 1.484375 -1.90625 C 1.554688 -1.96875 1.609375 -2.03125 1.640625 -2.09375 C 1.671875 -2.164062 1.6875 -2.242188 1.6875 -2.328125 C 1.6875 -2.460938 1.644531 -2.5625 1.5625 -2.625 C 1.488281 -2.695312 1.367188 -2.734375 1.203125 -2.734375 C 1.054688 -2.734375 0.921875 -2.695312 0.796875 -2.625 C 0.679688 -2.550781 0.582031 -2.453125 0.5 -2.328125 L 0.46875 -2.3125 L 0.109375 -2.71875 C 0.222656 -2.882812 0.375 -3.019531 0.5625 -3.125 C 0.75 -3.226562 0.972656 -3.28125 1.234375 -3.28125 C 1.472656 -3.28125 1.675781 -3.238281 1.84375 -3.15625 C 2.007812 -3.082031 2.128906 -2.972656 2.203125 -2.828125 C 2.285156 -2.691406 2.328125 -2.535156 2.328125 -2.359375 C 2.328125 -2.203125 2.289062 -2.0625 2.21875 -1.9375 C 2.15625 -1.8125 2.066406 -1.691406 1.953125 -1.578125 C 1.847656 -1.472656 1.707031 -1.359375 1.53125 -1.234375 L 1.140625 -0.96875 C 1.023438 -0.882812 0.941406 -0.8125 0.890625 -0.75 C 0.847656 -0.6875 0.828125 -0.613281 0.828125 -0.53125 L 2.296875 -0.53125 L 2.296875 0 L 0.15625 0 Z M 0.15625 -0.25 "/></g></g><g transform="translate(20.370443, 40.546239)"><g><path d="M 1.671875 -3.234375 C 1.898438 -3.234375 2.097656 -3.191406 2.265625 -3.109375 C 2.429688 -3.023438 2.554688 -2.90625 2.640625 -2.75 C 2.722656 -2.59375 2.765625 -2.414062 2.765625 -2.21875 C 2.765625 -2.019531 2.722656 -1.84375 2.640625 -1.6875 C 2.554688 -1.53125 2.429688 -1.410156 2.265625 -1.328125 C 2.097656 -1.242188 1.898438 -1.203125 1.671875 -1.203125 L 1.0625 -1.203125 L 1.0625 0 L 0.421875 0 L 0.421875 -3.234375 Z M 1.59375 -1.71875 C 1.945312 -1.71875 2.125 -1.882812 2.125 -2.21875 C 2.125 -2.5625 1.945312 -2.734375 1.59375 -2.734375 L 1.0625 -2.734375 L 1.0625 -1.71875 Z M 1.59375 -1.71875 "/></g></g><g transform="translate(23.324738, 40.546239)"><g><path d="M 1.765625 0.046875 C 1.460938 0.046875 1.195312 -0.0078125 0.96875 -0.125 C 0.75 -0.25 0.570312 -0.4375 0.4375 -0.6875 C 0.3125 -0.9375 0.25 -1.25 0.25 -1.625 C 0.25 -1.988281 0.3125 -2.296875 0.4375 -2.546875 C 0.570312 -2.796875 0.75 -2.976562 0.96875 -3.09375 C 1.195312 -3.21875 1.460938 -3.28125 1.765625 -3.28125 C 2.054688 -3.28125 2.316406 -3.21875 2.546875 -3.09375 C 2.773438 -2.976562 2.953125 -2.796875 3.078125 -2.546875 C 3.203125 -2.296875 3.265625 -1.988281 3.265625 -1.625 C 3.265625 -1.25 3.203125 -0.9375 3.078125 -0.6875 C 2.953125 -0.4375 2.773438 -0.25 2.546875 -0.125 C 2.316406 -0.0078125 2.054688 0.046875 1.765625 0.046875 Z M 1.765625 -0.515625 C 2.035156 -0.515625 2.242188 -0.597656 2.390625 -0.765625 C 2.535156 -0.941406 2.609375 -1.226562 2.609375 -1.625 C 2.609375 -2.007812 2.535156 -2.289062 2.390625 -2.46875 C 2.242188 -2.644531 2.035156 -2.734375 1.765625 -2.734375 C 1.484375 -2.734375 1.269531 -2.644531 1.125 -2.46875 C 0.976562 -2.289062 0.90625 -2.007812 0.90625 -1.625 C 0.90625 -1.226562 0.976562 -0.941406 1.125 -0.765625 C 1.269531 -0.597656 1.484375 -0.515625 1.765625 -0.515625 Z M 1.765625 -0.515625 "/></g></g><g transform="translate(26.847337, 40.546239)"><g><path d="M 2.203125 0 L 1.578125 0 L 1.578125 -0.703125 L 0.109375 -0.703125 L 0.109375 -1.21875 L 1.375 -3.234375 L 2.203125 -3.234375 L 2.203125 -1.21875 L 2.6875 -1.21875 L 2.6875 -0.703125 L 2.203125 -0.703125 Z M 0.765625 -1.265625 L 0.78125 -1.21875 L 1.578125 -1.21875 L 1.578125 -2.46875 L 1.53125 -2.484375 Z M 0.765625 -1.265625 "/></g></g></g><g fill="#000000" fill-opacity="1"><g transform="translate(113.894275, 40.546239)"><g><path d="M 1.578125 0.046875 C 1.316406 0.046875 1.085938 -0.0078125 0.890625 -0.125 C 0.691406 -0.25 0.535156 -0.429688 0.421875 -0.671875 C 0.316406 -0.921875 0.265625 -1.238281 0.265625 -1.625 C 0.265625 -2 0.316406 -2.304688 0.421875 -2.546875 C 0.535156 -2.796875 0.691406 -2.976562 0.890625 -3.09375 C 1.085938 -3.21875 1.316406 -3.28125 1.578125 -3.28125 C 1.847656 -3.28125 2.078125 -3.21875 2.265625 -3.09375 C 2.460938 -2.976562 2.613281 -2.796875 2.71875 -2.546875 C 2.832031 -2.304688 2.890625 -2 2.890625 -1.625 C 2.890625 -1.238281 2.832031 -0.921875 2.71875 -0.671875 C 2.613281 -0.429688 2.460938 -0.25 2.265625 -0.125 C 2.078125 -0.0078125 1.847656 0.046875 1.578125 0.046875 Z M 1.578125 -0.5 C 1.722656 -0.5 1.84375 -0.53125 1.9375 -0.59375 C 2.039062 -0.664062 2.117188 -0.785156 2.171875 -0.953125 C 2.222656 -1.117188 2.25 -1.34375 2.25 -1.625 C 2.25 -1.894531 2.222656 -2.113281 2.171875 -2.28125 C 2.117188 -2.445312 2.039062 -2.5625 1.9375 -2.625 C 1.84375 -2.695312 1.722656 -2.734375 1.578125 -2.734375 C 1.429688 -2.734375 1.3125 -2.695312 1.21875 -2.625 C 1.125 -2.5625 1.046875 -2.445312 0.984375 -2.28125 C 0.929688 -2.113281 0.90625 -1.894531 0.90625 -1.625 C 0.90625 -1.34375 0.929688 -1.117188 0.984375 -0.953125 C 1.046875 -0.785156 1.125 -0.664062 1.21875 -0.59375 C 1.3125 -0.53125 1.429688 -0.5 1.578125 -0.5 Z M 1.578125 -0.5 "/></g></g><g transform="translate(117.054221, 40.546239)"><g><path d="M 0.625 0.015625 C 0.539062 0.015625 0.46875 0 0.40625 -0.03125 C 0.351562 -0.0625 0.3125 -0.101562 0.28125 -0.15625 C 0.25 -0.21875 0.234375 -0.28125 0.234375 -0.34375 C 0.234375 -0.414062 0.25 -0.476562 0.28125 -0.53125 C 0.3125 -0.59375 0.351562 -0.640625 0.40625 -0.671875 C 0.46875 -0.703125 0.539062 -0.71875 0.625 -0.71875 C 0.707031 -0.71875 0.773438 -0.703125 0.828125 -0.671875 C 0.890625 -0.640625 0.9375 -0.59375 0.96875 -0.53125 C 1 -0.476562 1.015625 -0.421875 1.015625 -0.359375 C 1.015625 -0.242188 0.976562 -0.148438 0.90625 -0.078125 C 0.832031 -0.015625 0.738281 0.015625 0.625 0.015625 Z M 0.625 0.015625 "/></g></g><g transform="translate(118.303605, 40.546239)"><g><path d="M 0.15625 -0.25 C 0.15625 -0.4375 0.175781 -0.585938 0.21875 -0.703125 C 0.257812 -0.828125 0.320312 -0.9375 0.40625 -1.03125 C 0.5 -1.132812 0.625 -1.25 0.78125 -1.375 L 1.21875 -1.6875 C 1.332031 -1.769531 1.421875 -1.84375 1.484375 -1.90625 C 1.554688 -1.96875 1.609375 -2.03125 1.640625 -2.09375 C 1.671875 -2.164062 1.6875 -2.242188 1.6875 -2.328125 C 1.6875 -2.460938 1.644531 -2.5625 1.5625 -2.625 C 1.488281 -2.695312 1.367188 -2.734375 1.203125 -2.734375 C 1.054688 -2.734375 0.921875 -2.695312 0.796875 -2.625 C 0.679688 -2.550781 0.582031 -2.453125 0.5 -2.328125 L 0.46875 -2.3125 L 0.109375 -2.71875 C 0.222656 -2.882812 0.375 -3.019531 0.5625 -3.125 C 0.75 -3.226562 0.972656 -3.28125 1.234375 -3.28125 C 1.472656 -3.28125 1.675781 -3.238281 1.84375 -3.15625 C 2.007812 -3.082031 2.128906 -2.972656 2.203125 -2.828125 C 2.285156 -2.691406 2.328125 -2.535156 2.328125 -2.359375 C 2.328125 -2.203125 2.289062 -2.0625 2.21875 -1.9375 C 2.15625 -1.8125 2.066406 -1.691406 1.953125 -1.578125 C 1.847656 -1.472656 1.707031 -1.359375 1.53125 -1.234375 L 1.140625 -0.96875 C 1.023438 -0.882812 0.941406 -0.8125 0.890625 -0.75 C 0.847656 -0.6875 0.828125 -0.613281 0.828125 -0.53125 L 2.296875 -0.53125 L 2.296875 0 L 0.15625 0 Z M 0.15625 -0.25 "/></g></g><g transform="translate(120.826697, 40.546239)"><g><path d="M 2.203125 0 L 1.578125 0 L 1.578125 -0.703125 L 0.109375 -0.703125 L 0.109375 -1.21875 L 1.375 -3.234375 L 2.203125 -3.234375 L 2.203125 -1.21875 L 2.6875 -1.21875 L 2.6875 -0.703125 L 2.203125 -0.703125 Z M 0.765625 -1.265625 L 0.78125 -1.21875 L 1.578125 -1.21875 L 1.578125 -2.46875 L 1.53125 -2.484375 Z M 0.765625 -1.265625 "/></g></g><g transform="translate(123.643892, 40.546239)"><g/></g><g transform="translate(124.71195, 40.546239)"><g><path d="M 1.265625 1.03125 C 0.859375 1.03125 0.5625 0.972656 0.375 0.859375 C 0.1875 0.742188 0.09375 0.578125 0.09375 0.359375 C 0.09375 0.234375 0.128906 0.128906 0.203125 0.046875 C 0.285156 -0.0351562 0.40625 -0.0859375 0.5625 -0.109375 L 0.5625 -0.15625 C 0.476562 -0.207031 0.414062 -0.265625 0.375 -0.328125 C 0.34375 -0.390625 0.328125 -0.460938 0.328125 -0.546875 C 0.328125 -0.742188 0.457031 -0.875 0.71875 -0.9375 L 0.71875 -0.984375 C 0.582031 -1.054688 0.476562 -1.148438 0.40625 -1.265625 C 0.34375 -1.378906 0.3125 -1.515625 0.3125 -1.671875 C 0.3125 -1.828125 0.347656 -1.96875 0.421875 -2.09375 C 0.503906 -2.21875 0.613281 -2.3125 0.75 -2.375 C 0.894531 -2.445312 1.066406 -2.484375 1.265625 -2.484375 C 1.472656 -2.484375 1.640625 -2.445312 1.765625 -2.375 C 1.835938 -2.488281 1.878906 -2.617188 1.890625 -2.765625 L 1.9375 -2.78125 L 2.375 -2.671875 C 2.363281 -2.554688 2.328125 -2.457031 2.265625 -2.375 C 2.210938 -2.300781 2.128906 -2.234375 2.015625 -2.171875 L 2.015625 -2.125 C 2.148438 -2 2.21875 -1.832031 2.21875 -1.625 C 2.21875 -1.46875 2.179688 -1.328125 2.109375 -1.203125 C 2.035156 -1.085938 1.925781 -0.992188 1.78125 -0.921875 C 1.632812 -0.859375 1.460938 -0.828125 1.265625 -0.828125 L 1.171875 -0.828125 C 1.117188 -0.828125 1.082031 -0.828125 1.0625 -0.828125 C 1 -0.828125 0.953125 -0.8125 0.921875 -0.78125 C 0.890625 -0.757812 0.875 -0.722656 0.875 -0.671875 C 0.875 -0.617188 0.894531 -0.578125 0.9375 -0.546875 C 0.976562 -0.523438 1.039062 -0.507812 1.125 -0.5 L 1.671875 -0.484375 C 2.203125 -0.460938 2.46875 -0.226562 2.46875 0.21875 C 2.46875 0.375 2.425781 0.507812 2.34375 0.625 C 2.269531 0.75 2.140625 0.847656 1.953125 0.921875 C 1.773438 0.992188 1.546875 1.03125 1.265625 1.03125 Z M 1.265625 -1.25 C 1.390625 -1.25 1.484375 -1.285156 1.546875 -1.359375 C 1.609375 -1.429688 1.640625 -1.53125 1.640625 -1.65625 C 1.640625 -1.78125 1.609375 -1.878906 1.546875 -1.953125 C 1.484375 -2.023438 1.390625 -2.0625 1.265625 -2.0625 C 1.148438 -2.0625 1.054688 -2.023438 0.984375 -1.953125 C 0.921875 -1.878906 0.890625 -1.78125 0.890625 -1.65625 C 0.890625 -1.53125 0.921875 -1.429688 0.984375 -1.359375 C 1.054688 -1.285156 1.148438 -1.25 1.265625 -1.25 Z M 1.265625 0.59375 C 1.472656 0.59375 1.625 0.5625 1.71875 0.5 C 1.8125 0.4375 1.859375 0.359375 1.859375 0.265625 C 1.859375 0.191406 1.832031 0.132812 1.78125 0.09375 C 1.738281 0.0625 1.664062 0.046875 1.5625 0.046875 L 1.078125 0.015625 C 1.054688 0.015625 1.039062 0.015625 1.03125 0.015625 C 1.019531 0.015625 1.003906 0.015625 0.984375 0.015625 C 0.890625 0.015625 0.8125 0.0351562 0.75 0.078125 C 0.695312 0.128906 0.671875 0.191406 0.671875 0.265625 C 0.671875 0.367188 0.71875 0.445312 0.8125 0.5 C 0.914062 0.5625 1.066406 0.59375 1.265625 0.59375 Z M 1.265625 0.59375 "/></g></g><g transform="translate(127.248309, 40.546239)"><g><path d="M 1.890625 0.46875 L 1.3125 0.46875 L 0.09375 -3.421875 L 0.6875 -3.421875 Z M 1.890625 0.46875 "/></g></g><g transform="translate(129.147815, 40.546239)"><g><path d="M 1.015625 0.046875 C 0.796875 0.046875 0.628906 -0.0078125 0.515625 -0.125 C 0.398438 -0.25 0.34375 -0.429688 0.34375 -0.671875 L 0.34375 -3.421875 L 0.953125 -3.421875 L 0.953125 -0.703125 C 0.953125 -0.546875 1.015625 -0.46875 1.140625 -0.46875 C 1.171875 -0.46875 1.207031 -0.472656 1.25 -0.484375 L 1.28125 -0.484375 L 1.328125 -0.015625 C 1.296875 0.00390625 1.25 0.0195312 1.1875 0.03125 C 1.132812 0.0390625 1.078125 0.046875 1.015625 0.046875 Z M 1.015625 0.046875 "/></g></g></g><g clip-path="url(#442094a7da)"><path stroke-linecap="butt" transform="matrix(0.734694, 0, 0, 0.734694, 11.641292, 2.430886)" fill-opacity="1" fill="#000000" fill-rule="nonzero" stroke-linejoin="miter" d="M 0.0628949 0.120656 L 0.0628949 14.034827 M 138.811163 0.120656 L 138.811163 14.034827 M -0.000907223 0.0621703 L 138.874965 0.0621703 M -0.000907223 14.098629 L 138.874965 14.098629 M 139.114223 0.120656 L 139.114223 14.034827 M 273.454831 0.120656 L 273.454831 14.034827 M 139.055738 0.0621703 L 273.513316 0.0621703 M 139.055738 14.098629 L 273.513316 14.098629 M 0.0628949 14.465491 L 0.0628949 28.379663 M 138.811163 14.465491 L 138.811163 28.379663 M -0.000907223 14.401689 L 138.874965 14.401689 M -0.000907223 28.438148 L 138.874965 28.438148 M 139.114223 14.465491 L 139.114223 28.379663 M 273.454831 14.465491 L 273.454831 28.379663 M 139.055738 14.401689 L 273.513316 14.401689 M 139.055738 28.438148 L 273.513316 28.438148 M 0.0628949 28.80501 L 0.0628949 42.719181 M 138.811163 28.80501 L 138.811163 42.719181 M -0.000907223 28.746525 L 138.874965 28.746525 M -0.000907223 42.782983 L 138.874965 42.782983 M 139.114223 28.80501 L 139.114223 42.719181 M 273.454831 28.80501 L 273.454831 42.719181 M 139.055738 28.746525 L 273.513316 28.746525 M 139.055738 42.782983 L 273.513316 42.782983 M 0.0628949 43.144528 L 0.0628949 57.26074 M 138.811163 43.144528 L 138.811163 57.26074 M -0.000907223 43.086043 L 138.874965 43.086043 M -0.000907223 57.319225 L 138.874965 57.319225 M 139.114223 43.144528 L 139.114223 57.26074 M 273.454831 43.144528 L 273.454831 57.26074 M 139.055738 43.086043 L 273.513316 43.086043 M 139.055738 57.319225 L 273.513316 57.319225 " stroke="#000000" stroke-width="0.121965" stroke-opacity="1" stroke-miterlimit="4"/></g></svg>