<?xml version="1.0" encoding="UTF-8" standalone="no"?>
<!-- Created with Inkscape (http://www.inkscape.org/) -->
<svg
   xmlns:svg="http://www.w3.org/2000/svg"
   xmlns="http://www.w3.org/2000/svg"
   version="1.0"
   width="620"
   height="177.77"
   id="svg2">
  <defs
     id="defs4" />
  <g
     transform="translate(1069.8572,-1323.2514)"
     id="layer1">
    <path
       d="M -614.86087,1490.7067 C -615.13983,1490.5366 -615.48702,1490.148 -615.6324,1489.8431 C -615.86217,1489.3613 -615.86698,1489.27 -615.66926,1489.1449 C -615.28307,1488.9007 -615.09853,1488.9779 -614.89527,1489.4686 C -614.66459,1490.0255 -614.3205,1490.2399 -613.65733,1490.2399 C -612.74142,1490.2399 -612.12782,1489.1934 -612.56486,1488.3767 C -612.75062,1488.0297 -613.65607,1487.7036 -614.03274,1487.8481 C -614.24742,1487.9305 -614.29246,1487.88 -614.25077,1487.6037 C -614.21374,1487.3583 -614.01922,1487.1943 -613.59199,1487.0481 C -612.67035,1486.7328 -612.45154,1486.1574 -613.03239,1485.5765 C -613.61086,1484.9981 -614.79753,1485.3537 -615.07594,1486.1889 C -615.12164,1486.326 -615.26157,1486.3579 -615.49401,1486.2841 C -615.93541,1486.144 -615.83017,1485.6911 -615.20728,1485.0499 C -614.58956,1484.4141 -613.48166,1484.313 -612.73349,1484.8243 C -611.87531,1485.4108 -611.7159,1486.4945 -612.40148,1487.0815 C -612.68512,1487.3244 -612.67736,1487.3489 -612.16405,1487.833 C -610.52599,1489.3779 -612.8968,1491.9042 -614.86087,1490.7067 z M -630.95765,1488.3048 C -631.93684,1487.9555 -632.4484,1487.4411 -633.05227,1486.1983 C -633.41245,1485.4571 -633.46809,1485.1469 -633.47051,1483.8666 C -633.47362,1482.2342 -633.1538,1481.2535 -632.33802,1480.3938 C -631.41047,1479.4163 -629.68787,1478.9733 -628.28731,1479.3522 C -627.47541,1479.5718 -626.49832,1480.4505 -626.17044,1481.2559 L -625.93602,1481.8317 L -626.51806,1481.9926 C -626.83818,1482.0811 -627.11788,1482.1018 -627.13959,1482.0386 C -627.29737,1481.5791 -627.88005,1480.8596 -628.30339,1480.6015 C -629.42786,1479.9159 -631.14974,1480.4459 -631.84116,1481.6904 C -632.17931,1482.2991 -632.22977,1482.5816 -632.22977,1483.8666 C -632.22977,1485.1517 -632.17931,1485.4342 -631.84116,1486.0429 C -631.32207,1486.9772 -630.36164,1487.4894 -629.30361,1487.396 C -628.36897,1487.3135 -627.83238,1486.9293 -627.33327,1485.9853 C -626.95917,1485.2776 -626.92436,1485.2539 -626.40061,1485.3495 C -626.10138,1485.4041 -625.8342,1485.4708 -625.80687,1485.4976 C -625.64237,1485.6591 -626.53927,1487.2254 -627.04326,1487.6568 C -628.03762,1488.508 -629.64284,1488.7737 -630.95765,1488.3048 z M -624.22439,1483.8666 L -624.22439,1479.3588 L -623.60261,1479.3588 L -622.98083,1479.3588 L -622.98083,1481.2241 L -622.98083,1483.0894 L -620.64917,1483.0894 L -618.3175,1483.0894 L -618.3175,1481.2241 L -618.3175,1479.3588 L -617.69572,1479.3588 L -617.07395,1479.3588 L -617.07395,1483.8666 L -617.07395,1488.3745 L -617.69572,1488.3745 L -618.3175,1488.3745 L -618.3175,1486.276 L -618.3175,1484.1775 L -620.64917,1484.1775 L -622.98083,1484.1775 L -622.98083,1486.276 L -622.98083,1488.3745 L -623.60261,1488.3745 L -624.22439,1488.3745 L -624.22439,1483.8666 z M -635.95821,1473.527 L -639.22032,1467.8559 L -647.03362,1467.8559 L -654.84693,1467.8559 L -654.84693,1467.3895 L -654.84693,1466.9232 L -647.29519,1466.9232 L -639.74347,1466.9232 L -640.08108,1466.3769 L -640.41869,1465.8307 L -640.099,1465.2888 L -639.77932,1464.747 L -647.31311,1464.747 L -654.84693,1464.747 L -654.84693,1464.2807 L -654.84693,1463.8143 L -647.03585,1463.8082 L -639.22477,1463.8021 L -636.979,1459.8832 C -632.96142,1452.8726 -633.28468,1453.3632 -632.86454,1453.6385 L -632.50066,1453.8769 L -635.84521,1459.6617 C -637.6847,1462.8433 -639.21969,1465.5552 -639.25629,1465.6881 C -639.29288,1465.8209 -637.64908,1468.8281 -635.6034,1472.3707 C -632.31931,1478.0579 -631.9133,1478.8341 -632.13459,1479.0026 C -632.27244,1479.1075 -632.45517,1479.1945 -632.54066,1479.1958 C -632.62616,1479.1971 -634.16406,1476.6462 -635.95821,1473.527 z M -897.92505,1476.5613 C -898.20401,1476.3912 -898.55119,1476.0026 -898.69658,1475.6977 C -898.92634,1475.2159 -898.93116,1475.1246 -898.73343,1474.9995 C -898.34725,1474.7553 -898.1627,1474.8324 -897.95945,1475.3232 C -897.72877,1475.88 -897.38467,1476.0944 -896.7215,1476.0944 C -895.80559,1476.0944 -895.19199,1475.048 -895.62904,1474.2313 C -895.8148,1473.8842 -896.72024,1473.5582 -897.09692,1473.7027 C -897.3116,1473.7851 -897.35663,1473.7346 -897.31494,1473.4583 C -897.27792,1473.2129 -897.08339,1473.0488 -896.65617,1472.9027 C -895.73452,1472.5873 -895.51572,1472.0119 -896.09657,1471.4311 C -896.67504,1470.8526 -897.8617,1471.2082 -898.14012,1472.0435 C -898.18582,1472.1806 -898.32575,1472.2125 -898.55819,1472.1387 C -898.99959,1471.9986 -898.89435,1471.5456 -898.27145,1470.9045 C -897.65373,1470.2686 -896.54583,1470.1676 -895.79767,1470.6789 C -894.93949,1471.2653 -894.78008,1472.3491 -895.46565,1472.9361 C -895.74929,1473.1789 -895.74153,1473.2035 -895.22823,1473.6876 C -893.59017,1475.2325 -895.96098,1477.7587 -897.92505,1476.5613 z M -914.02182,1474.1593 C -915.00101,1473.8101 -915.51257,1473.2957 -916.11646,1472.0529 C -916.47663,1471.3116 -916.53226,1471.0015 -916.53469,1469.7212 C -916.5378,1468.0888 -916.21797,1467.108 -915.4022,1466.2483 C -914.47465,1465.2708 -912.75205,1464.8279 -911.35149,1465.2067 C -910.53959,1465.4264 -909.5625,1466.305 -909.23462,1467.1105 L -909.00018,1467.6863 L -909.58223,1467.8472 C -909.90236,1467.9357 -910.18205,1467.9563 -910.20376,1467.8931 C -910.36154,1467.4337 -910.94423,1466.7141 -911.36756,1466.456 C -912.49203,1465.7704 -914.21392,1466.3004 -914.90534,1467.545 C -915.2435,1468.1537 -915.29395,1468.4362 -915.29395,1469.7212 C -915.29395,1471.0062 -915.2435,1471.2887 -914.90534,1471.8974 C -914.38624,1472.8318 -913.42582,1473.3439 -912.36779,1473.2506 C -911.43314,1473.1681 -910.89656,1472.7839 -910.39745,1471.8398 C -910.02334,1471.1322 -909.98854,1471.1085 -909.46478,1471.2041 C -909.16555,1471.2587 -908.89837,1471.3253 -908.87105,1471.3521 C -908.70655,1471.5136 -909.60344,1473.08 -910.10743,1473.5114 C -911.1018,1474.3625 -912.70702,1474.6283 -914.02182,1474.1593 z M -907.28856,1469.7212 L -907.28856,1465.2133 L -906.66679,1465.2133 L -906.04501,1465.2133 L -906.04501,1467.0786 L -906.04501,1468.944 L -903.71334,1468.944 L -901.38168,1468.944 L -901.38168,1467.0786 L -901.38168,1465.2133 L -900.7599,1465.2133 L -900.13812,1465.2133 L -900.13812,1469.7212 L -900.13812,1474.2291 L -900.7599,1474.2291 L -901.38168,1474.2291 L -901.38168,1472.1306 L -901.38168,1470.0321 L -903.71334,1470.0321 L -906.04501,1470.0321 L -906.04501,1472.1306 L -906.04501,1474.2291 L -906.66679,1474.2291 L -907.28856,1474.2291 L -907.28856,1469.7212 z M -661.95179,1470.5935 C -662.94155,1470.27 -663.7904,1469.5109 -664.28193,1468.51 C -664.66641,1467.727 -664.71764,1467.4491 -664.71764,1466.146 C -664.71764,1464.8416 -664.66661,1464.5653 -664.28028,1463.7786 C -663.3449,1461.8738 -661.40416,1461.0736 -659.26644,1461.7114 C -657.61925,1462.2028 -656.6046,1463.6428 -656.44817,1465.7111 C -656.2313,1468.5785 -657.78015,1470.5938 -660.3192,1470.7479 C -660.89349,1470.7828 -661.56806,1470.719 -661.95179,1470.5935 z M -658.92973,1469.1574 C -658.17783,1468.5581 -657.79106,1467.7674 -657.68669,1466.6165 C -657.52669,1464.8519 -658.18341,1463.4272 -659.41449,1462.8682 C -661.02147,1462.1384 -662.81953,1462.9593 -663.3223,1464.6523 C -664.15049,1467.4411 -662.76517,1469.83 -660.40646,1469.6805 C -659.70043,1469.6357 -659.3933,1469.527 -658.92973,1469.1574 z M -919.02239,1459.3816 L -922.28449,1453.7104 L -930.0978,1453.7104 L -937.9111,1453.7104 L -937.9111,1453.2441 L -937.9111,1452.7778 L -930.35937,1452.7778 L -922.80764,1452.7778 L -923.14526,1452.2315 L -923.48287,1451.6852 L -923.16318,1451.1434 L -922.84348,1450.6015 L -930.37729,1450.6015 L -937.9111,1450.6015 L -937.9111,1450.1352 L -937.9111,1449.6689 L -930.10002,1449.6673 L -922.28894,1449.6657 L -919.41916,1444.6777 C -917.84079,1441.9344 -916.47373,1439.5864 -916.38126,1439.4599 C -916.23493,1439.2598 -916.1707,1439.2668 -915.88581,1439.5141 L -915.55848,1439.7982 L -918.90239,1445.5496 C -920.74154,1448.7129 -922.27793,1451.4097 -922.31659,1451.5424 C -922.35524,1451.6751 -920.70834,1454.683 -918.65681,1458.2265 C -915.34756,1463.9424 -914.9552,1464.6912 -915.17892,1464.8636 C -915.31761,1464.9704 -915.50516,1465.0567 -915.59569,1465.0553 C -915.68621,1465.0539 -917.22823,1462.5008 -919.02239,1459.3816 z M -945.01596,1456.4481 C -946.00572,1456.1245 -946.85458,1455.3655 -947.34611,1454.3645 C -947.73058,1453.5816 -947.78182,1453.3036 -947.78182,1452.0005 C -947.78182,1450.6962 -947.73078,1450.4199 -947.34447,1449.6332 C -946.40907,1447.7283 -944.46833,1446.9281 -942.33062,1447.5659 C -940.68342,1448.0574 -939.66877,1449.4974 -939.51234,1451.5657 C -939.29548,1454.4331 -940.84433,1456.4484 -943.38338,1456.6025 C -943.95766,1456.6373 -944.63224,1456.5735 -945.01596,1456.4481 z M -941.9939,1455.012 C -941.24201,1454.4126 -940.85523,1453.622 -940.75087,1452.471 C -940.59086,1450.7065 -941.24759,1449.2818 -942.47866,1448.7227 C -944.08565,1447.993 -945.8837,1448.8139 -946.38647,1450.5069 C -947.21466,1453.2957 -945.82935,1455.6846 -943.47062,1455.5351 C -942.76461,1455.4903 -942.45747,1455.3815 -941.9939,1455.012 z M -855.01368,1452.7174 C -856.00344,1452.3939 -856.85229,1451.6348 -857.34382,1450.6339 C -857.7283,1449.8509 -857.77954,1449.573 -857.77954,1448.2699 C -857.77954,1446.9655 -857.7285,1446.6892 -857.34218,1445.9025 C -856.40679,1443.9977 -854.46605,1443.1975 -852.32833,1443.8353 C -850.68114,1444.3267 -849.66649,1445.7667 -849.51007,1447.835 C -849.29319,1450.7024 -850.84204,1452.7177 -853.3811,1452.8718 C -853.95539,1452.9067 -854.62995,1452.8429 -855.01368,1452.7174 z M -851.99163,1451.2813 C -851.23973,1450.682 -850.85295,1449.8913 -850.74858,1448.7404 C -850.58859,1446.9758 -851.24531,1445.5511 -852.47638,1444.9921 C -854.08336,1444.2623 -855.88142,1445.0832 -856.38419,1446.7762 C -857.21238,1449.565 -855.82706,1451.9539 -853.46835,1451.8044 C -852.76232,1451.7596 -852.45519,1451.6509 -851.99163,1451.2813 z M -631.17381,1452.7174 C -632.16357,1452.3939 -633.01242,1451.6348 -633.50395,1450.6339 C -633.88843,1449.8509 -633.93966,1449.573 -633.93966,1448.2699 C -633.93966,1446.9655 -633.88863,1446.6892 -633.5023,1445.9025 C -632.56692,1443.9977 -630.62618,1443.1975 -628.48846,1443.8353 C -626.84126,1444.3267 -625.82661,1445.7667 -625.67019,1447.835 C -625.45332,1450.7024 -627.00216,1452.7177 -629.54122,1452.8718 C -630.11551,1452.9067 -630.79008,1452.8429 -631.17381,1452.7174 z M -628.15175,1451.2813 C -627.39985,1450.682 -627.01307,1449.8913 -626.90871,1448.7404 C -626.74871,1446.9758 -627.40543,1445.5511 -628.6365,1444.9921 C -630.24349,1444.2623 -632.04154,1445.0832 -632.54431,1446.7762 C -633.37251,1449.565 -631.98719,1451.9539 -629.62847,1451.8044 C -628.92244,1451.7596 -628.61532,1451.6509 -628.15175,1451.2813 z M -847.75337,1448.2699 L -847.75337,1443.762 L -847.1316,1443.762 L -846.50982,1443.762 L -846.50982,1445.6273 L -846.50982,1447.4927 L -844.17815,1447.4927 L -841.84649,1447.4927 L -841.84649,1445.6273 L -841.84649,1443.762 L -841.22471,1443.762 L -840.60293,1443.762 L -840.60293,1448.2699 L -840.60293,1452.7778 L -841.22471,1452.7778 L -841.84649,1452.7778 L -841.84649,1450.6793 L -841.84649,1448.5808 L -844.17815,1448.5808 L -846.50982,1448.5808 L -846.50982,1450.6793 L -846.50982,1452.7778 L -847.1316,1452.7778 L -847.75337,1452.7778 L -847.75337,1448.2699 z M -1057.2802,1443.8042 C -1057.3788,1443.5879 -1057.4393,1443.3924 -1057.4148,1443.3698 C -1057.3902,1443.3472 -1056.99,1443.1056 -1056.5255,1442.833 L -1055.6808,1442.3374 L -1055.4091,1442.6976 C -1055.2597,1442.8958 -1055.1501,1443.0659 -1055.1656,1443.0758 C -1055.1812,1443.0856 -1055.623,1443.342 -1056.1475,1443.6456 L -1057.101,1444.1976 L -1057.2802,1443.8042 z M -963.66929,1443.5462 C -964.65904,1443.2226 -965.5079,1442.4636 -965.99944,1441.4627 C -966.38391,1440.6797 -966.43514,1440.4017 -966.43514,1439.0987 C -966.43514,1437.7943 -966.3841,1437.518 -965.99779,1436.7313 C -965.06239,1434.8265 -963.12166,1434.0263 -960.98394,1434.664 C -959.33674,1435.1555 -958.32209,1436.5955 -958.16566,1438.6638 C -957.9488,1441.5312 -959.49765,1443.5465 -962.0367,1443.7006 C -962.61098,1443.7355 -963.28556,1443.6717 -963.66929,1443.5462 z M -960.64722,1442.1101 C -959.89533,1441.5107 -959.50856,1440.7201 -959.40419,1439.5691 C -959.24419,1437.8046 -959.90091,1436.3799 -961.13199,1435.8208 C -962.73897,1435.0911 -964.53702,1435.912 -965.0398,1437.605 C -965.86798,1440.3938 -964.48267,1442.7827 -962.12395,1442.6332 C -961.41793,1442.5884 -961.11079,1442.4796 -960.64722,1442.1101 z M -739.51852,1443.5462 C -740.50829,1443.2226 -741.35714,1442.4636 -741.84867,1441.4627 C -742.23314,1440.6797 -742.28438,1440.4017 -742.28438,1439.0987 C -742.28438,1437.7943 -742.23334,1437.518 -741.84702,1436.7313 C -740.91163,1434.8265 -738.97089,1434.0263 -736.83318,1434.664 C -735.18598,1435.1555 -734.17133,1436.5955 -734.01491,1438.6638 C -733.79803,1441.5312 -735.34688,1443.5465 -737.88594,1443.7006 C -738.46023,1443.7355 -739.13479,1443.6717 -739.51852,1443.5462 z M -736.49647,1442.1101 C -735.74457,1441.5107 -735.35779,1440.7201 -735.25343,1439.5691 C -735.09343,1437.8046 -735.75015,1436.3799 -736.98122,1435.8208 C -738.58821,1435.0911 -740.38626,1435.912 -740.88903,1437.605 C -741.71722,1440.3938 -740.3319,1442.7827 -737.97319,1442.6332 C -737.26716,1442.5884 -736.96003,1442.4796 -736.49647,1442.1101 z M -515.83409,1443.5462 C -516.82385,1443.2226 -517.67271,1442.4636 -518.16424,1441.4627 C -518.54871,1440.6797 -518.59995,1440.4017 -518.59995,1439.0987 C -518.59995,1437.7943 -518.54891,1437.518 -518.16259,1436.7313 C -517.2272,1434.8265 -515.28646,1434.0263 -513.14875,1434.664 C -511.50155,1435.1555 -510.4869,1436.5955 -510.33048,1438.6638 C -510.1136,1441.5312 -511.66245,1443.5465 -514.20151,1443.7006 C -514.7758,1443.7355 -515.45036,1443.6717 -515.83409,1443.5462 z M -512.81204,1442.1101 C -512.06014,1441.5107 -511.67336,1440.7201 -511.569,1439.5691 C -511.409,1437.8046 -512.06572,1436.3799 -513.29679,1435.8208 C -514.90378,1435.0911 -516.70183,1435.912 -517.2046,1437.605 C -518.03279,1440.3938 -516.64747,1442.7827 -514.28876,1442.6332 C -513.58273,1442.5884 -513.2756,1442.4796 -512.81204,1442.1101 z M -857.12047,1442.5573 C -857.40739,1442.0657 -858.96132,1439.3793 -860.57366,1436.5876 C -862.18601,1433.7958 -863.58095,1431.5366 -863.67353,1431.5672 C -863.76612,1431.5979 -869.91808,1433.3425 -877.34457,1435.4442 L -890.84728,1439.2654 L -898.91247,1437.4386 C -906.59876,1435.6976 -906.97767,1435.5956 -906.97767,1435.2659 C -906.97767,1435.0757 -906.92191,1434.8856 -906.85376,1434.8434 C -906.78561,1434.8013 -904.28491,1435.3228 -901.29663,1436.0022 C -898.30836,1436.6816 -895.78172,1437.2191 -895.68189,1437.1966 C -895.53459,1437.1633 -907.32851,1413.514 -907.6554,1413.1871 C -907.70631,1413.1362 -910.91343,1413.9396 -914.78233,1414.9724 C -918.65124,1416.0051 -921.82568,1416.8371 -921.83665,1416.8213 C -921.84762,1416.8054 -921.89877,1416.6159 -921.95031,1416.4001 L -922.04403,1416.0079 L -914.7437,1414.0486 L -907.44337,1412.0893 L -893.49255,1416.1206 C -885.81961,1418.3378 -879.3319,1420.1889 -879.07541,1420.2341 C -878.74892,1420.2917 -875.18605,1419.3332 -867.19376,1417.0377 C -855.54847,1413.693 -855.53153,1413.6892 -855.52976,1414.383 C -855.52893,1414.7028 -878.48654,1421.3056 -879.11732,1421.167 C -879.35075,1421.1157 -885.55744,1419.3324 -892.90996,1417.2041 C -900.26248,1415.0758 -906.29879,1413.352 -906.324,1413.3735 C -906.38253,1413.4233 -891.78538,1436.1511 -891.51233,1436.4353 C -891.34066,1436.614 -889.03043,1436.0022 -876.95252,1432.5793 L -862.59676,1428.5108 L -849.40527,1433.0351 C -842.14995,1435.5234 -836.19724,1437.5384 -836.17701,1437.5129 C -836.15681,1437.4874 -838.60471,1433.1845 -841.61682,1427.9509 L -847.09337,1418.4353 L -846.73347,1418.1995 C -846.29768,1417.9139 -847.02201,1416.755 -840.13257,1428.7616 C -837.28727,1433.7203 -834.93739,1437.8042 -834.91061,1437.837 C -834.88381,1437.8697 -831.78098,1437.1262 -828.01542,1436.1846 L -821.16894,1434.4727 L -821.07191,1434.8593 C -821.01726,1435.0771 -821.04923,1435.2919 -821.14514,1435.3512 C -821.23878,1435.409 -824.4273,1436.2191 -828.23073,1437.1512 L -835.14604,1438.8461 L -848.39477,1435.7876 C -855.68156,1434.1055 -861.66449,1432.7502 -861.69017,1432.7759 C -861.71585,1432.8016 -860.40665,1435.1256 -858.78086,1437.9404 C -856.09273,1442.5944 -855.84921,1443.076 -856.09354,1443.2546 C -856.50418,1443.5549 -856.56059,1443.5166 -857.12047,1442.5573 z M -633.50763,1442.1687 C -633.92116,1441.4634 -635.47522,1438.7767 -636.96108,1436.1984 C -638.44694,1433.6201 -639.73901,1431.5358 -639.83232,1431.5667 C -639.92564,1431.5976 -646.0791,1433.3427 -653.50668,1435.4447 L -667.01136,1439.2666 L -674.64712,1437.54 C -684.37072,1435.3412 -683.48744,1435.582 -683.35956,1435.1656 C -683.30184,1434.9777 -683.23167,1434.7981 -683.20363,1434.7666 C -683.17557,1434.735 -680.62731,1435.2817 -677.54081,1435.9814 C -674.4543,1436.6811 -671.86867,1437.2316 -671.79495,1437.2046 C -671.68166,1437.1632 -683.54724,1413.4554 -683.81554,1413.1871 C -683.86643,1413.1362 -687.07356,1413.9396 -690.94246,1414.9724 C -694.81136,1416.0051 -697.98581,1416.8371 -697.99677,1416.8213 C -698.00775,1416.8054 -698.05889,1416.6159 -698.11043,1416.4001 L -698.20415,1416.0079 L -690.90381,1414.0486 L -683.60349,1412.0893 L -669.65267,1416.1206 C -661.97974,1418.3378 -655.49202,1420.1889 -655.23554,1420.2341 C -654.90904,1420.2917 -651.34618,1419.3332 -643.35388,1417.0377 C -631.7086,1413.693 -631.69165,1413.6892 -631.68988,1414.383 C -631.68906,1414.7028 -654.64667,1421.3056 -655.27744,1421.167 C -655.51088,1421.1157 -661.71757,1419.3324 -669.07008,1417.2041 C -676.4226,1415.0758 -682.45891,1413.352 -682.48412,1413.3735 C -682.54265,1413.4233 -667.94551,1436.1511 -667.67245,1436.4353 C -667.50078,1436.614 -665.19055,1436.0022 -653.11265,1432.5793 L -638.75688,1428.5108 L -625.56539,1433.0351 C -618.31007,1435.5234 -612.35736,1437.5384 -612.33714,1437.5129 C -612.31693,1437.4874 -614.76484,1433.1845 -617.77694,1427.9509 L -623.2535,1418.4353 L -622.8936,1418.1995 C -622.45781,1417.9139 -623.18213,1416.755 -616.2927,1428.7616 C -613.4474,1433.7203 -611.09974,1437.802 -611.07568,1437.832 C -611.05161,1437.8621 -607.89752,1437.1155 -604.06658,1436.173 C -600.23565,1435.2305 -597.08903,1434.4716 -597.07407,1434.4865 C -597.05912,1434.5015 -597.00238,1434.6911 -596.94796,1434.9079 L -596.84902,1435.3021 L -603.96918,1437.0504 C -607.88527,1438.0119 -611.1963,1438.7962 -611.32703,1438.7932 C -611.45776,1438.7902 -617.46834,1437.4245 -624.68387,1435.7582 C -631.89941,1434.0919 -637.82353,1432.7491 -637.84857,1432.7742 C -637.87363,1432.7992 -636.56955,1435.1184 -634.95059,1437.9278 C -632.26935,1442.5807 -632.03083,1443.0539 -632.27386,1443.2386 C -632.4206,1443.35 -632.58905,1443.4434 -632.64821,1443.4462 C -632.70736,1443.4489 -633.09409,1442.874 -633.50763,1442.1687 z M -1053.7584,1441.6974 C -1053.9842,1441.3527 -1053.9648,1441.3283 -1053.0674,1440.8312 C -1052.329,1440.4222 -1052.0992,1440.3569 -1051.9202,1440.5054 C -1051.5285,1440.8305 -1051.6742,1441.0772 -1052.549,1441.5709 C -1053.0179,1441.8356 -1053.4295,1442.0521 -1053.4637,1442.0521 C -1053.498,1442.0521 -1053.6305,1441.8925 -1053.7584,1441.6974 z M -1050.1881,1439.6691 C -1050.4213,1439.3131 -1050.4068,1439.2947 -1049.471,1438.7552 C -1048.6094,1438.2586 -1048.4969,1438.2294 -1048.3234,1438.4573 C -1048.0014,1438.8804 -1048.0858,1439.0075 -1049.0356,1439.5296 L -1049.9501,1440.0324 L -1050.1881,1439.6691 z M -1026.9195,1437.3448 L -1033.9311,1435.457 L -1033.8241,1435.0628 C -1033.7502,1434.7904 -1033.625,1434.6816 -1033.419,1434.7109 C -1033.255,1434.7342 -1030.148,1435.5527 -1026.5146,1436.5298 C -1022.8811,1437.5068 -1019.8603,1438.2572 -1019.8016,1438.1973 C -1019.7429,1438.1373 -1016.5452,1432.5758 -1012.6956,1425.8384 C -1008.4474,1418.4033 -1005.801,1413.6202 -1005.9626,1413.6693 C -1006.1091,1413.7137 -1009.1955,1414.4206 -1012.8213,1415.2402 C -1019.5942,1416.7712 -1019.7557,1416.7915 -1019.6345,1416.0976 C -1019.6052,1415.9292 -1017.6512,1415.4279 -1012.2123,1414.1934 L -1004.8299,1412.5177 L -990.492,1416.587 C -982.60623,1418.8252 -976.13059,1420.6264 -976.10174,1420.5897 C -976.0729,1420.5531 -974.52754,1417.883 -972.66762,1414.6562 C -969.4411,1409.0586 -969.27048,1408.7975 -968.94866,1408.9647 C -968.76314,1409.0611 -968.58968,1409.1581 -968.56318,1409.1801 C -968.53667,1409.2022 -969.9589,1411.7168 -971.72369,1414.7682 C -973.48847,1417.8196 -974.90916,1420.3377 -974.88076,1420.3641 C -974.85237,1420.3904 -968.63856,1418.6344 -961.07231,1416.4619 L -947.31549,1412.5117 L -939.97074,1414.3156 C -935.43449,1415.4297 -932.63017,1416.1887 -932.63692,1416.3005 C -932.68041,1417.021 -932.54854,1417.0405 -939.93188,1415.226 L -947.0046,1413.4879 L -952.36743,1424.277 L -957.73026,1435.0661 L -959.40128,1434.1012 C -960.32035,1433.5706 -961.07075,1433.0964 -961.06884,1433.0475 C -961.06692,1432.9986 -958.20825,1428.6567 -954.71623,1423.3988 C -951.22421,1418.1409 -948.37992,1413.8227 -948.39559,1413.8028 C -948.41125,1413.7829 -954.61571,1415.536 -962.18328,1417.6985 L -975.94249,1421.6303 L -990.2766,1417.5634 L -1004.6106,1413.4964 L -1004.9806,1414.134 C -1007.6532,1418.7393 -1018.582,1437.9107 -1018.5508,1437.9389 C -1018.5278,1437.9598 -1012.5633,1435.9255 -1005.2962,1433.4182 L -992.0835,1428.8595 L -979.66096,1432.4246 C -972.82858,1434.3853 -967.2126,1436.0155 -967.181,1436.047 C -967.14941,1436.0786 -967.27955,1436.6612 -967.47022,1437.3416 L -967.81688,1438.5787 L -978.74693,1435.4383 L -989.67697,1432.2978 L -1004.5593,1435.7721 C -1012.7446,1437.683 -1019.5466,1439.2433 -1019.6748,1439.2395 C -1019.8031,1439.2356 -1023.0632,1438.383 -1026.9195,1437.3448 z M -802.87743,1437.3382 L -809.84219,1435.4578 L -809.74322,1435.0635 C -809.68878,1434.8466 -809.62937,1434.6543 -809.6112,1434.6361 C -809.59303,1434.6179 -806.47214,1435.4376 -802.67588,1436.4575 C -798.87963,1437.4774 -795.7533,1438.2916 -795.72849,1438.2668 C -795.58633,1438.1246 -781.67474,1413.7259 -781.71657,1413.6921 C -781.74444,1413.6696 -784.8054,1414.3413 -788.51871,1415.1849 C -793.73007,1416.3687 -795.29857,1416.6738 -795.39474,1416.5223 C -795.77475,1415.9237 -795.69849,1415.8992 -788.11506,1414.1891 L -780.70669,1412.5184 L -766.41652,1416.5763 C -758.55693,1418.8082 -752.06854,1420.5743 -751.99786,1420.5009 C -751.9272,1420.4276 -750.42009,1417.8494 -748.64872,1414.7716 C -746.87735,1411.6938 -745.35028,1409.0926 -745.25521,1408.9912 C -745.12189,1408.8489 -745.00392,1408.8493 -744.73919,1408.9931 C -744.40383,1409.1753 -744.47,1409.3075 -747.63113,1414.7736 C -749.41046,1417.8503 -750.85819,1420.3801 -750.8483,1420.3953 C -750.8384,1420.4105 -744.61612,1418.6472 -737.021,1416.4768 L -723.2117,1412.5307 L -716.07467,1414.2879 C -712.1493,1415.2543 -708.90014,1416.0825 -708.85431,1416.1283 C -708.80849,1416.1742 -708.8145,1416.3851 -708.8677,1416.597 L -708.96441,1416.9823 L -715.96127,1415.2318 L -722.95815,1413.4812 L -725.68418,1419.0229 C -727.1835,1422.0709 -729.56182,1426.9079 -730.96932,1429.772 C -732.37682,1432.6361 -733.54696,1434.9981 -733.56961,1435.021 C -733.59226,1435.0438 -734.38476,1434.6209 -735.3307,1434.0811 L -737.05058,1433.0996 L -730.67892,1423.4939 C -727.17449,1418.2108 -724.33203,1413.8634 -724.36233,1413.8331 C -724.39264,1413.8028 -730.57785,1415.5459 -738.10726,1417.7067 L -751.79709,1421.6354 L -766.16038,1417.5636 C -774.0602,1415.3241 -780.53017,1413.5 -780.53808,1413.5099 C -780.74608,1413.772 -794.45559,1437.8848 -794.41595,1437.9188 C -794.38421,1437.9461 -788.42463,1435.9192 -781.17244,1433.4146 L -767.98664,1428.8608 L -755.52468,1432.4377 C -748.67061,1434.405 -743.05401,1436.0265 -743.04338,1436.041 C -742.961,1436.1538 -743.72494,1438.3871 -743.86147,1438.4326 C -743.95788,1438.4648 -748.81876,1437.1152 -754.66345,1435.4337 C -760.50813,1433.7521 -765.46502,1432.382 -765.67875,1432.3889 C -765.89249,1432.3959 -772.67044,1433.9434 -780.74086,1435.8278 C -788.81128,1437.7123 -795.52648,1439.2461 -795.66352,1439.2363 C -795.80056,1439.2265 -799.04681,1438.3724 -802.87743,1437.3382 z M -578.83464,1437.3795 C -582.46815,1436.367 -585.5224,1435.5178 -585.62185,1435.4922 C -585.75934,1435.4569 -585.75934,1435.3475 -585.62185,1435.0361 L -585.44102,1434.6265 L -578.76374,1436.4679 C -575.09122,1437.4806 -572.07391,1438.2945 -572.0586,1438.2765 C -571.91214,1438.1043 -558.0063,1413.71 -558.03902,1413.6826 C -558.06312,1413.6625 -561.09066,1414.3337 -564.76692,1415.1743 C -568.44318,1416.0149 -571.53847,1416.6726 -571.64533,1416.6359 C -571.7522,1416.5991 -571.83948,1416.4094 -571.8393,1416.2144 C -571.83897,1415.8736 -571.55078,1415.7947 -564.442,1414.1899 L -557.04504,1412.52 L -542.81533,1416.5604 C -534.989,1418.7826 -528.53042,1420.6008 -528.46294,1420.6008 C -528.39544,1420.6008 -526.78373,1417.9077 -524.88138,1414.6162 C -522.979,1411.3247 -521.37789,1408.6316 -521.32336,1408.6316 C -521.26882,1408.6316 -521.09537,1408.7258 -520.93791,1408.8409 C -520.67014,1409.0367 -520.86339,1409.4165 -523.92401,1414.7089 C -525.72382,1417.8212 -527.18505,1420.3801 -527.17115,1420.3953 C -527.15725,1420.4105 -520.93376,1418.6478 -513.34116,1416.4781 L -499.53644,1412.5333 L -492.39142,1414.2926 C -488.46165,1415.2602 -485.21044,1416.0878 -485.16648,1416.1317 C -485.12252,1416.1757 -485.13007,1416.3851 -485.18326,1416.597 L -485.27998,1416.9823 L -492.27687,1415.2318 L -499.27378,1413.4812 L -503.86353,1422.7536 C -506.38788,1427.8534 -508.76601,1432.6905 -509.14825,1433.5027 C -509.53048,1434.3148 -509.86645,1435.0026 -509.89484,1435.031 C -509.92323,1435.0594 -510.71688,1434.6351 -511.65849,1434.0881 L -513.37052,1433.0936 L -507.00245,1423.4851 C -503.5,1418.2004 -500.65536,1413.8556 -500.68102,1413.83 C -500.70667,1413.8043 -506.81246,1415.5248 -514.24942,1417.6533 C -521.68637,1419.7819 -527.94604,1421.5243 -528.15977,1421.5254 C -528.37351,1421.5265 -534.91383,1419.7204 -542.69382,1417.5117 C -554.848,1414.0613 -556.85903,1413.5297 -556.97973,1413.7352 C -557.82045,1415.167 -570.88153,1438.0105 -570.85927,1438.0103 C -570.84276,1438.0101 -564.86466,1435.9508 -557.57462,1433.434 L -544.31999,1428.8581 L -531.82738,1432.444 L -519.33476,1436.0299 L -519.64371,1437.1368 C -519.81364,1437.7456 -520.01314,1438.3078 -520.08705,1438.3861 C -520.16721,1438.471 -524.59826,1437.2714 -531.06902,1435.4129 L -541.9166,1432.2974 L -556.82673,1435.7758 C -565.02731,1437.6889 -571.84743,1439.2465 -571.98255,1439.2372 C -572.11768,1439.2279 -575.20112,1438.3919 -578.83464,1437.3795 z M -914.08254,1438.572 C -915.07229,1438.2484 -915.92115,1437.4894 -916.41269,1436.4884 C -916.79716,1435.7055 -916.84839,1435.4275 -916.84839,1434.1244 C -916.84839,1432.8201 -916.79735,1432.5438 -916.41104,1431.7571 C -915.47564,1429.8522 -913.53491,1429.052 -911.39719,1429.6898 C -909.74999,1430.1813 -908.73534,1431.6213 -908.57891,1433.6896 C -908.36205,1436.557 -909.9109,1438.5723 -912.44995,1438.7264 C -913.02423,1438.7612 -913.69881,1438.6974 -914.08254,1438.572 z M -911.06047,1437.1359 C -910.30858,1436.5365 -909.92181,1435.7459 -909.81744,1434.5949 C -909.65744,1432.8304 -910.31416,1431.4057 -911.54524,1430.8466 C -913.15222,1430.1169 -914.95027,1430.9378 -915.45305,1432.6308 C -916.28123,1435.4196 -914.89592,1437.8085 -912.5372,1437.659 C -911.83118,1437.6142 -911.52404,1437.5054 -911.06047,1437.1359 z M -690.24266,1438.572 C -691.23242,1438.2484 -692.08127,1437.4894 -692.57281,1436.4884 C -692.95728,1435.7055 -693.00852,1435.4275 -693.00852,1434.1244 C -693.00852,1432.8201 -692.95748,1432.5438 -692.57116,1431.7571 C -691.63577,1429.8522 -689.69503,1429.052 -687.55732,1429.6898 C -685.91012,1430.1813 -684.89547,1431.6213 -684.73905,1433.6896 C -684.52217,1436.557 -686.07102,1438.5723 -688.61008,1438.7264 C -689.18437,1438.7612 -689.85893,1438.6974 -690.24266,1438.572 z M -687.22061,1437.1359 C -686.46871,1436.5365 -686.08193,1435.7459 -685.97757,1434.5949 C -685.81757,1432.8304 -686.47429,1431.4057 -687.70536,1430.8466 C -689.31234,1430.1169 -691.1104,1430.9378 -691.61317,1432.6308 C -692.44136,1435.4196 -691.05604,1437.8085 -688.69733,1437.659 C -687.9913,1437.6142 -687.68417,1437.5054 -687.22061,1437.1359 z M -701.79112,1434.1244 L -701.79112,1429.6166 L -701.16934,1429.6166 L -700.54757,1429.6166 L -700.54757,1431.4819 L -700.54757,1433.3472 L -698.2159,1433.3472 L -695.88424,1433.3472 L -695.88424,1431.4819 L -695.88424,1429.6166 L -695.26246,1429.6166 L -694.64068,1429.6166 L -694.64068,1434.1244 L -694.64068,1438.6323 L -695.26246,1438.6323 L -695.88424,1438.6323 L -695.88424,1436.5338 L -695.88424,1434.4353 L -698.2159,1434.4353 L -700.54757,1434.4353 L -700.54757,1436.5338 L -700.54757,1438.6323 L -701.16934,1438.6323 L -701.79112,1438.6323 L -701.79112,1434.1244 z M -1040.9251,1438.2611 C -1041.9149,1437.9375 -1042.7637,1437.1785 -1043.2553,1436.1776 C -1043.6398,1435.3946 -1043.691,1435.1166 -1043.691,1433.8136 C -1043.691,1432.5092 -1043.6399,1432.2329 -1043.2536,1431.4462 C -1042.3182,1429.5414 -1040.3775,1428.7412 -1038.2398,1429.3789 C -1036.5926,1429.8704 -1035.5779,1431.3104 -1035.4215,1433.3787 C -1035.2046,1436.2461 -1036.7535,1438.2614 -1039.2926,1438.4155 C -1039.8668,1438.4504 -1040.5414,1438.3866 -1040.9251,1438.2611 z M -1037.9031,1436.825 C -1037.1512,1436.2256 -1036.7644,1435.435 -1036.66,1434.284 C -1036.5,1432.5195 -1037.1568,1431.0948 -1038.3878,1430.5357 C -1039.9948,1429.806 -1041.7929,1430.6269 -1042.2956,1432.3199 C -1043.1238,1435.1087 -1041.7385,1437.4976 -1039.3798,1437.3481 C -1038.6738,1437.3033 -1038.3666,1437.1945 -1037.9031,1436.825 z M -816.92981,1438.2611 C -817.91958,1437.9375 -818.76843,1437.1785 -819.25996,1436.1776 C -819.64443,1435.3946 -819.69567,1435.1166 -819.69567,1433.8136 C -819.69567,1432.5092 -819.64464,1432.2329 -819.25831,1431.4462 C -818.32292,1429.5414 -816.38218,1428.7412 -814.24447,1429.3789 C -812.59727,1429.8704 -811.58262,1431.3104 -811.4262,1433.3787 C -811.20932,1436.2461 -812.75817,1438.2614 -815.29723,1438.4155 C -815.87152,1438.4504 -816.54608,1438.3866 -816.92981,1438.2611 z M -813.90776,1436.825 C -813.15586,1436.2256 -812.76908,1435.435 -812.66472,1434.284 C -812.50472,1432.5195 -813.16144,1431.0948 -814.39251,1430.5357 C -815.9995,1429.806 -817.79755,1430.6269 -818.30032,1432.3199 C -819.12851,1435.1087 -817.74319,1437.4976 -815.38448,1437.3481 C -814.67845,1437.3033 -814.37133,1437.1945 -813.90776,1436.825 z M -592.77905,1438.2611 C -593.76881,1437.9375 -594.61766,1437.1785 -595.10919,1436.1776 C -595.49367,1435.3946 -595.5449,1435.1166 -595.5449,1433.8136 C -595.5449,1432.5092 -595.49387,1432.2329 -595.10755,1431.4462 C -594.17216,1429.5414 -592.23142,1428.7412 -590.0937,1429.3789 C -588.44651,1429.8704 -587.43186,1431.3104 -587.27543,1433.3787 C -587.05856,1436.2461 -588.60741,1438.2614 -591.14647,1438.4155 C -591.72075,1438.4504 -592.39532,1438.3866 -592.77905,1438.2611 z M -589.757,1436.825 C -589.0051,1436.2256 -588.61832,1435.435 -588.51395,1434.284 C -588.35395,1432.5195 -589.01068,1431.0948 -590.24175,1430.5357 C -591.84873,1429.806 -593.64679,1430.6269 -594.14956,1432.3199 C -594.97775,1435.1087 -593.59243,1437.4976 -591.23372,1437.3481 C -590.52769,1437.3033 -590.22056,1437.1945 -589.757,1436.825 z M -1046.5599,1437.7124 C -1046.8151,1437.2355 -1046.7758,1437.1791 -1045.8222,1436.6549 C -1044.9263,1436.1624 -1044.9214,1436.1616 -1044.7205,1436.4833 C -1044.4794,1436.8693 -1044.5706,1436.9771 -1045.6661,1437.5998 C -1046.3777,1438.0044 -1046.402,1438.0074 -1046.5599,1437.7124 z M -928.84975,1422.5612 C -929.83951,1422.2376 -930.68836,1421.4786 -931.1799,1420.4777 C -931.56437,1419.6947 -931.6156,1419.4168 -931.6156,1418.1137 C -931.6156,1416.8093 -931.56457,1416.533 -931.17825,1415.7463 C -930.24286,1413.8415 -928.30212,1413.0413 -926.1644,1413.6791 C -924.5172,1414.1705 -923.50256,1415.6105 -923.34613,1417.6788 C -923.12926,1420.5462 -924.67811,1422.5615 -927.21717,1422.7156 C -927.79145,1422.7505 -928.46603,1422.6867 -928.84975,1422.5612 z M -925.82769,1421.1251 C -925.0758,1420.5258 -924.68902,1419.7351 -924.58465,1418.5842 C -924.42465,1416.8196 -925.08138,1415.3949 -926.31245,1414.8358 C -927.91944,1414.1061 -929.71749,1414.927 -930.22026,1416.62 C -931.04845,1419.4088 -929.66313,1421.7977 -927.30441,1421.6482 C -926.59839,1421.6034 -926.29126,1421.4947 -925.82769,1421.1251 z M -705.00988,1422.5612 C -705.99964,1422.2376 -706.84849,1421.4786 -707.34002,1420.4777 C -707.7245,1419.6947 -707.77573,1419.4168 -707.77573,1418.1137 C -707.77573,1416.8093 -707.7247,1416.533 -707.33837,1415.7463 C -706.40299,1413.8415 -704.46225,1413.0413 -702.32453,1413.6791 C -700.67733,1414.1705 -699.66268,1415.6105 -699.50626,1417.6788 C -699.28939,1420.5462 -700.83823,1422.5615 -703.37729,1422.7156 C -703.95158,1422.7505 -704.62615,1422.6867 -705.00988,1422.5612 z M -701.98782,1421.1251 C -701.23592,1420.5258 -700.84914,1419.7351 -700.74478,1418.5842 C -700.58478,1416.8196 -701.2415,1415.3949 -702.47257,1414.8358 C -704.07956,1414.1061 -705.87761,1414.927 -706.38038,1416.62 C -707.20858,1419.4088 -705.82326,1421.7977 -703.46454,1421.6482 C -702.75851,1421.6034 -702.45139,1421.4947 -701.98782,1421.1251 z M -481.32545,1422.5612 C -482.31521,1422.2376 -483.16406,1421.4786 -483.65559,1420.4777 C -484.04006,1419.6947 -484.0913,1419.4168 -484.0913,1418.1137 C -484.0913,1416.8093 -484.04027,1416.533 -483.65394,1415.7463 C -482.71855,1413.8415 -480.77782,1413.0413 -478.6401,1413.6791 C -476.9929,1414.1705 -475.97825,1415.6105 -475.82183,1417.6788 C -475.60495,1420.5462 -477.1538,1422.5615 -479.69286,1422.7156 C -480.26715,1422.7505 -480.94172,1422.6867 -481.32545,1422.5612 z M -478.30339,1421.1251 C -477.55149,1420.5258 -477.16471,1419.7351 -477.06035,1418.5842 C -476.90035,1416.8196 -477.55707,1415.3949 -478.78814,1414.8358 C -480.39513,1414.1061 -482.19318,1414.927 -482.69595,1416.62 C -483.52414,1419.4088 -482.13882,1421.7977 -479.78011,1421.6482 C -479.07408,1421.6034 -478.76696,1421.4947 -478.30339,1421.1251 z M -1026.3134,1422.2503 C -1027.3031,1421.9268 -1028.152,1421.1677 -1028.6435,1420.1668 C -1029.028,1419.3838 -1029.0792,1419.1059 -1029.0792,1417.8028 C -1029.0792,1416.4984 -1029.0282,1416.2221 -1028.6419,1415.4354 C -1027.7065,1413.5306 -1025.7657,1412.7304 -1023.628,1413.3682 C -1021.9808,1413.8596 -1020.9662,1415.2996 -1020.8097,1417.3679 C -1020.5929,1420.2354 -1022.1417,1422.2506 -1024.6808,1422.4047 C -1025.2551,1422.4396 -1025.9296,1422.3758 -1026.3134,1422.2503 z M -1023.2913,1420.8142 C -1022.5394,1420.2149 -1022.1526,1419.4242 -1022.0483,1418.2733 C -1021.8883,1416.5087 -1022.545,1415.084 -1023.7761,1414.525 C -1025.3831,1413.7952 -1027.1811,1414.6161 -1027.6839,1416.3092 C -1028.5121,1419.098 -1027.1267,1421.4868 -1024.768,1421.3373 C -1024.062,1421.2925 -1023.7549,1421.1838 -1023.2913,1420.8142 z M -802.1626,1422.2503 C -803.15236,1421.9268 -804.00121,1421.1677 -804.49274,1420.1668 C -804.87722,1419.3838 -804.92845,1419.1059 -804.92845,1417.8028 C -804.92845,1416.4984 -804.87742,1416.2221 -804.4911,1415.4354 C -803.55571,1413.5306 -801.61497,1412.7304 -799.47725,1413.3682 C -797.83006,1413.8596 -796.81541,1415.2996 -796.65898,1417.3679 C -796.44211,1420.2354 -797.99096,1422.2506 -800.53002,1422.4047 C -801.1043,1422.4396 -801.77887,1422.3758 -802.1626,1422.2503 z M -799.14054,1420.8142 C -798.38865,1420.2149 -798.00187,1419.4242 -797.8975,1418.2733 C -797.7375,1416.5087 -798.39423,1415.084 -799.6253,1414.525 C -801.23228,1413.7952 -803.03034,1414.6161 -803.53311,1416.3092 C -804.3613,1419.098 -802.97598,1421.4868 -800.61727,1421.3373 C -799.91124,1421.2925 -799.60411,1421.1838 -799.14054,1420.8142 z M -578.47817,1422.2503 C -579.46793,1421.9268 -580.31678,1421.1677 -580.80831,1420.1668 C -581.19279,1419.3838 -581.24402,1419.1059 -581.24402,1417.8028 C -581.24402,1416.4984 -581.19299,1416.2221 -580.80666,1415.4354 C -579.87128,1413.5306 -577.93054,1412.7304 -575.79282,1413.3682 C -574.14563,1413.8596 -573.13098,1415.2996 -572.97455,1417.3679 C -572.75768,1420.2354 -574.30653,1422.2506 -576.84558,1422.4047 C -577.41987,1422.4396 -578.09444,1422.3758 -578.47817,1422.2503 z M -575.45611,1420.8142 C -574.70421,1420.2149 -574.31744,1419.4242 -574.21307,1418.2733 C -574.05307,1416.5087 -574.70979,1415.084 -575.94087,1414.525 C -577.54785,1413.7952 -579.34591,1414.6161 -579.84868,1416.3092 C -580.67687,1419.098 -579.29155,1421.4868 -576.93284,1421.3373 C -576.22681,1421.2925 -575.91968,1421.1838 -575.45611,1420.8142 z M -813.71106,1417.8028 L -813.71106,1413.2949 L -813.08928,1413.2949 L -812.4675,1413.2949 L -812.4675,1415.1602 L -812.4675,1417.0256 L -810.13584,1417.0256 L -807.80417,1417.0256 L -807.80417,1415.1602 L -807.80417,1413.2949 L -807.1824,1413.2949 L -806.56062,1413.2949 L -806.56062,1417.8028 L -806.56062,1422.3107 L -807.1824,1422.3107 L -807.80417,1422.3107 L -807.80417,1420.2122 L -807.80417,1418.1137 L -810.13584,1418.1137 L -812.4675,1418.1137 L -812.4675,1420.2122 L -812.4675,1422.3107 L -813.08928,1422.3107 L -813.71106,1422.3107 L -813.71106,1417.8028 z M -590.02663,1417.8028 L -590.02663,1413.2949 L -589.40485,1413.2949 L -588.78307,1413.2949 L -588.78307,1415.1602 L -588.78307,1417.0256 L -586.45141,1417.0256 L -584.11974,1417.0256 L -584.11974,1415.1602 L -584.11974,1413.2949 L -583.49797,1413.2949 L -582.87619,1413.2949 L -582.87619,1417.8028 L -582.87619,1422.3107 L -583.49797,1422.3107 L -584.11974,1422.3107 L -584.11974,1420.2122 L -584.11974,1418.1137 L -586.45141,1418.1137 L -588.78307,1418.1137 L -588.78307,1420.2122 L -588.78307,1422.3107 L -589.40485,1422.3107 L -590.02663,1422.3107 L -590.02663,1417.8028 z M -851.43846,1417.2761 C -852.42822,1416.9525 -853.27707,1416.1935 -853.7686,1415.1926 C -854.15308,1414.4096 -854.20431,1414.1316 -854.20431,1412.8286 C -854.20431,1411.5242 -854.15328,1411.2479 -853.76696,1410.4612 C -852.83157,1408.5564 -850.89083,1407.7562 -848.75311,1408.3939 C -847.10592,1408.8854 -846.09127,1410.3254 -845.93485,1412.3937 C -845.71797,1415.2611 -847.26682,1417.2764 -849.80588,1417.4305 C -850.38017,1417.4654 -851.05473,1417.4016 -851.43846,1417.2761 z M -848.41641,1415.84 C -847.66451,1415.2406 -847.27773,1414.45 -847.17336,1413.2991 C -847.01337,1411.5345 -847.67009,1410.1098 -848.90116,1409.5507 C -850.50814,1408.821 -852.3062,1409.6419 -852.80897,1411.3349 C -853.63716,1414.1237 -852.25184,1416.5126 -849.89313,1416.3631 C -849.1871,1416.3183 -848.87997,1416.2095 -848.41641,1415.84 z M -627.59859,1417.2761 C -628.58835,1416.9525 -629.4372,1416.1935 -629.92873,1415.1926 C -630.31321,1414.4096 -630.36444,1414.1316 -630.36444,1412.8286 C -630.36444,1411.5242 -630.31341,1411.2479 -629.92708,1410.4612 C -628.9917,1408.5564 -627.05096,1407.7562 -624.91324,1408.3939 C -623.26604,1408.8854 -622.25139,1410.3254 -622.09497,1412.3937 C -621.87809,1415.2611 -623.42694,1417.2764 -625.966,1417.4305 C -626.54029,1417.4654 -627.21486,1417.4016 -627.59859,1417.2761 z M -624.57653,1415.84 C -623.82463,1415.2406 -623.43785,1414.45 -623.33349,1413.2991 C -623.17349,1411.5345 -623.83021,1410.1098 -625.06128,1409.5507 C -626.66827,1408.821 -628.46632,1409.6419 -628.96909,1411.3349 C -629.79729,1414.1237 -628.41197,1416.5126 -626.05325,1416.3631 C -625.34722,1416.3183 -625.0401,1416.2095 -624.57653,1415.84 z M -474.37603,1416.6526 C -474.37603,1416.5298 -474.41486,1416.328 -474.4623,1416.2044 C -474.52712,1416.0355 -474.2903,1415.9147 -473.51033,1415.7188 C -472.93927,1415.5753 -472.44729,1415.4827 -472.41701,1415.513 C -472.38673,1415.5433 -472.34295,1415.7291 -472.31975,1415.9259 C -472.28454,1416.2243 -472.38567,1416.3164 -472.92797,1416.4798 C -474.22539,1416.8708 -474.37603,1416.8888 -474.37603,1416.6526 z M -470.24388,1415.5263 C -470.43741,1415.022 -470.30629,1414.8824 -469.40055,1414.6283 C -468.3892,1414.3445 -468.23854,1414.3701 -468.11387,1414.8468 C -468.0436,1415.1156 -468.15671,1415.1946 -468.91119,1415.4039 C -469.39477,1415.5381 -469.87207,1415.6736 -469.97185,1415.7051 C -470.07165,1415.7366 -470.19406,1415.6562 -470.24388,1415.5263 z M -466.13748,1414.4686 C -466.13748,1414.35 -466.17652,1414.1512 -466.22426,1414.0268 C -466.28928,1413.8574 -466.05487,1413.7313 -465.28937,1413.5241 C -464.17656,1413.2229 -464.20255,1413.2189 -464.04995,1413.7156 C -463.95468,1414.0258 -464.03094,1414.0826 -464.84673,1414.3092 C -465.34291,1414.447 -465.8363,1414.5877 -465.94317,1414.6219 C -466.05004,1414.6562 -466.13748,1414.5871 -466.13748,1414.4686 z M -461.98041,1413.3586 C -462.04394,1413.2951 -462.09592,1413.1198 -462.09592,1412.9691 C -462.09592,1412.7701 -461.85704,1412.6257 -461.22276,1412.4414 C -460.23996,1412.1556 -459.99986,1412.1944 -459.8786,1412.658 C -459.80889,1412.9247 -459.89362,1413.0069 -460.37071,1413.1353 C -461.39823,1413.412 -461.86259,1413.4764 -461.98041,1413.3586 z M -1031.2532,1407.3078 L -1034.5153,1401.6366 L -1042.2509,1401.6366 L -1049.9865,1401.6366 L -1049.9865,1401.248 L -1049.9865,1400.8594 L -1042.5252,1400.8594 C -1038.4214,1400.8594 -1035.0643,1400.8069 -1035.0648,1400.7428 C -1035.0654,1400.6787 -1035.1987,1400.4247 -1035.3611,1400.1784 C -1035.6511,1399.7385 -1035.6511,1399.7221 -1035.3606,1399.2457 C -1035.198,1398.979 -1035.0647,1398.7084 -1035.0644,1398.6443 C -1035.0641,1398.5802 -1038.4214,1398.5277 -1042.5252,1398.5277 L -1049.9865,1398.5277 L -1049.9865,1398.1391 L -1049.9865,1397.7505 L -1042.2484,1397.7505 L -1034.5104,1397.7505 L -1031.4275,1392.399 C -1028.4005,1387.1443 -1028.3378,1387.0506 -1027.9676,1387.2193 C -1027.7602,1387.3138 -1027.6236,1387.4774 -1027.6641,1387.5829 C -1027.7046,1387.6884 -1029.2839,1390.4514 -1031.1736,1393.7229 C -1033.0634,1396.9944 -1034.5775,1399.7461 -1034.5384,1399.8377 C -1034.4993,1399.9294 -1032.826,1402.8374 -1030.82,1406.2999 C -1027.2913,1412.3905 -1027.1834,1412.6016 -1027.5041,1412.7842 C -1027.6865,1412.888 -1027.8706,1412.9743 -1027.9134,1412.976 C -1027.9561,1412.9776 -1029.4591,1410.4269 -1031.2532,1407.3078 z M -967.08906,1408.1049 C -968.07882,1407.7813 -968.92767,1407.0223 -969.41921,1406.0213 C -969.80368,1405.2384 -969.85492,1404.9604 -969.85492,1403.6574 C -969.85492,1402.353 -969.80388,1402.0767 -969.41756,1401.29 C -968.48217,1399.3851 -966.54143,1398.585 -964.40372,1399.2227 C -962.75651,1399.7142 -961.74187,1401.1542 -961.58544,1403.2225 C -961.36858,1406.0899 -962.91742,1408.1052 -965.45648,1408.2593 C -966.03076,1408.2941 -966.70534,1408.2304 -967.08906,1408.1049 z M -964.067,1406.6688 C -963.31511,1406.0694 -962.92833,1405.2788 -962.82397,1404.1278 C -962.66396,1402.3633 -963.32069,1400.9386 -964.55176,1400.3795 C -966.15875,1399.6498 -967.9568,1400.4707 -968.45957,1402.1637 C -969.28776,1404.9525 -967.90245,1407.3414 -965.54372,1407.1919 C -964.83771,1407.1471 -964.53057,1407.0383 -964.067,1406.6688 z M -743.09374,1408.1049 C -744.08351,1407.7813 -744.93236,1407.0223 -745.42389,1406.0213 C -745.80836,1405.2384 -745.8596,1404.9604 -745.8596,1403.6574 C -745.8596,1402.353 -745.80857,1402.0767 -745.42224,1401.29 C -744.48685,1399.3851 -742.54611,1398.585 -740.4084,1399.2227 C -738.7612,1399.7142 -737.74655,1401.1542 -737.59013,1403.2225 C -737.37325,1406.0899 -738.9221,1408.1052 -741.46116,1408.2593 C -742.03545,1408.2941 -742.71002,1408.2304 -743.09374,1408.1049 z M -740.07169,1406.6688 C -739.31979,1406.0694 -738.93301,1405.2788 -738.82865,1404.1278 C -738.66865,1402.3633 -739.32537,1400.9386 -740.55644,1400.3795 C -742.16343,1399.6498 -743.96148,1400.4707 -744.46425,1402.1637 C -745.29244,1404.9525 -743.90712,1407.3414 -741.54841,1407.1919 C -740.84238,1407.1471 -740.53526,1407.0383 -740.07169,1406.6688 z M -519.40931,1408.1049 C -520.39908,1407.7813 -521.24793,1407.0223 -521.73946,1406.0213 C -522.12393,1405.2384 -522.17517,1404.9604 -522.17517,1403.6574 C -522.17517,1402.353 -522.12413,1402.0767 -521.73781,1401.29 C -520.80242,1399.3851 -518.86168,1398.585 -516.72397,1399.2227 C -515.07677,1399.7142 -514.06212,1401.1542 -513.9057,1403.2225 C -513.68882,1406.0899 -515.23767,1408.1052 -517.77673,1408.2593 C -518.35102,1408.2941 -519.02558,1408.2304 -519.40931,1408.1049 z M -516.38726,1406.6688 C -515.63536,1406.0694 -515.24858,1405.2788 -515.14422,1404.1278 C -514.98422,1402.3633 -515.64094,1400.9386 -516.87201,1400.3795 C -518.479,1399.6498 -520.27705,1400.4707 -520.77982,1402.1637 C -521.60801,1404.9525 -520.22269,1407.3414 -517.86398,1407.1919 C -517.15795,1407.1471 -516.85082,1407.0383 -516.38726,1406.6688 z M -512.14901,1403.6574 L -512.14901,1399.1495 L -511.52723,1399.1495 L -510.90545,1399.1495 L -510.90545,1401.0148 L -510.90545,1402.8801 L -508.57379,1402.8801 L -506.24212,1402.8801 L -506.24212,1401.0148 L -506.24212,1399.1495 L -505.62034,1399.1495 L -504.99857,1399.1495 L -504.99857,1403.6574 L -504.99857,1408.1652 L -505.62034,1408.1652 L -506.24212,1408.1652 L -506.24212,1406.0667 L -506.24212,1403.9682 L -508.57379,1403.9682 L -510.90545,1403.9682 L -510.90545,1406.0667 L -510.90545,1408.1652 L -511.52723,1408.1652 L -512.14901,1408.1652 L -512.14901,1403.6574 z M -1057.0913,1404.5297 C -1058.0811,1404.2061 -1058.93,1403.4471 -1059.4215,1402.4461 C -1059.806,1401.6632 -1059.8572,1401.3852 -1059.8572,1400.0821 C -1059.8572,1398.7777 -1059.8062,1398.5015 -1059.4198,1397.7148 C -1058.4845,1395.8099 -1056.5437,1395.0097 -1054.406,1395.6475 C -1052.7588,1396.1389 -1051.7442,1397.5789 -1051.5877,1399.6473 C -1051.3709,1402.5147 -1052.9197,1404.53 -1055.4588,1404.6841 C -1056.033,1404.7189 -1056.7076,1404.6551 -1057.0913,1404.5297 z M -1054.0693,1403.0936 C -1053.3174,1402.4942 -1052.9306,1401.7036 -1052.8262,1400.5526 C -1052.6663,1398.7881 -1053.323,1397.3634 -1054.554,1396.8043 C -1056.161,1396.0745 -1057.9591,1396.8955 -1058.4619,1398.5885 C -1059.29,1401.3773 -1057.9047,1403.7662 -1055.546,1403.6166 C -1054.84,1403.5719 -1054.5329,1403.4631 -1054.0693,1403.0936 z M -972.04352,1393.1545 L -975.29547,1387.5013 L -983.02883,1387.4962 L -990.7622,1387.4911 L -990.7622,1387.1025 L -990.7622,1386.7139 L -983.30085,1386.7139 C -979.19712,1386.7139 -975.83952,1386.6806 -975.83952,1386.64 C -975.83952,1386.5993 -975.97658,1386.3406 -976.14409,1386.0652 C -976.44738,1385.5665 -976.44732,1385.5622 -976.13142,1385.051 L -975.81417,1384.5377 L -983.28818,1384.5377 L -990.7622,1384.5377 L -990.7622,1384.0714 L -990.7622,1383.605 L -983.0262,1383.605 L -975.29022,1383.605 L -972.19927,1378.2389 C -969.20035,1373.0325 -969.09862,1372.8794 -968.78213,1373.0967 C -968.60271,1373.2199 -968.47657,1373.4058 -968.5018,1373.5097 C -968.5371,1373.6551 -971.84833,1379.4409 -975.17693,1385.1733 C -975.40509,1385.5662 -975.32623,1385.7218 -971.82195,1391.792 C -969.8482,1395.211 -968.19326,1398.1128 -968.14431,1398.2404 C -968.08804,1398.387 -968.19071,1398.534 -968.42343,1398.6401 C -968.78202,1398.8034 -968.87584,1398.6613 -972.04352,1393.1545 z M -742.05121,1386.7516 L -742.05121,1375.4419 L -755.0499,1372.4439 C -762.19918,1370.795 -768.08212,1369.4795 -768.12312,1369.5205 C -768.16411,1369.5615 -766.89643,1371.8488 -765.30604,1374.6034 C -763.71565,1377.358 -762.41442,1379.6684 -762.41442,1379.7376 C -762.41442,1379.8718 -763.03098,1380.2456 -763.10943,1380.159 C -763.13506,1380.1307 -764.64366,1377.5194 -766.4619,1374.3561 C -768.28011,1371.1928 -769.84452,1368.52 -769.93833,1368.4165 C -770.06993,1368.2714 -773.2243,1369.112 -783.73977,1372.0943 L -797.37062,1375.9602 L -805.19109,1374.1892 C -809.49235,1373.2151 -813.17336,1372.3796 -813.37112,1372.3325 C -813.65488,1372.2648 -813.7204,1372.1578 -813.68201,1371.8247 C -813.65078,1371.5539 -813.54976,1371.4154 -813.40017,1371.4381 C -813.27193,1371.4576 -810.68945,1372.0345 -807.66135,1372.7202 C -804.63323,1373.4058 -802.12637,1373.9375 -802.09054,1373.9017 C -802.05469,1373.8658 -804.76214,1368.415 -808.10709,1361.7888 L -814.1888,1349.7411 L -815.23235,1350.0287 C -817.88263,1350.759 -827.96641,1353.435 -828.23078,1353.4781 C -828.43699,1353.5118 -828.56025,1353.407 -828.63544,1353.134 L -828.74359,1352.7415 L -821.34391,1350.7637 L -813.94423,1348.7859 L -799.95793,1352.818 C -792.26547,1355.0357 -785.96057,1356.8368 -785.94703,1356.8205 C -785.93349,1356.8042 -786.68305,1353.9579 -787.61271,1350.4954 C -788.54238,1347.0329 -789.30375,1344.1206 -789.30465,1344.0237 C -789.30555,1343.9268 -789.13346,1343.8145 -788.92219,1343.7741 C -788.4692,1343.6875 -788.70961,1342.9502 -786.57853,1350.9617 C -785.74844,1354.0823 -785.0127,1356.6975 -784.94353,1356.7734 C -784.87214,1356.8518 -779.97555,1355.5217 -773.61347,1353.6959 C -767.4511,1351.9273 -762.34884,1350.5176 -762.27511,1350.5631 C -762.20139,1350.6087 -762.10443,1350.786 -762.05967,1350.9572 C -761.98931,1351.2263 -762.11838,1351.3096 -763.01243,1351.5723 C -763.58122,1351.7394 -768.8226,1353.2468 -774.65992,1354.922 L -785.27328,1357.9678 L -799.05123,1353.9979 C -806.62911,1351.8145 -812.84231,1350.0457 -812.85834,1350.0674 C -812.87438,1350.0891 -809.57381,1355.2481 -805.52376,1361.5319 C -801.4737,1367.8158 -798.10443,1373.0478 -798.03649,1373.1587 C -797.94093,1373.3146 -794.67948,1372.4434 -783.63436,1369.3114 C -775.78114,1367.0846 -769.24542,1365.2647 -769.11056,1365.2673 C -768.97571,1365.2699 -762.98957,1367.2908 -755.80804,1369.7582 C -748.62651,1372.2256 -742.73108,1374.2266 -742.70708,1374.2048 C -742.68309,1374.183 -745.12229,1369.8852 -748.12755,1364.654 C -753.2867,1355.6735 -753.5754,1355.1304 -753.30084,1354.9225 C -753.14089,1354.8014 -752.97261,1354.7 -752.92684,1354.6973 C -752.8811,1354.6946 -750.20551,1359.2799 -746.9811,1364.8869 L -741.11854,1375.0814 L -741.11854,1386.5714 L -741.11854,1398.0614 L -741.58488,1398.0614 L -742.05121,1398.0614 L -742.05121,1386.7516 z M -997.867,1390.3842 C -998.8568,1390.0607 -999.7057,1389.3016 -1000.1972,1388.3007 C -1000.5817,1387.5178 -1000.6329,1387.2398 -1000.6329,1385.9367 C -1000.6329,1384.6323 -1000.5819,1384.356 -1000.1955,1383.5693 C -999.2602,1381.6645 -997.3194,1380.8643 -995.1817,1381.5021 C -993.5345,1381.9935 -992.5198,1383.4335 -992.3634,1385.5018 C -992.1466,1388.3693 -993.6954,1390.3845 -996.2345,1390.5386 C -996.8087,1390.5735 -997.4833,1390.5097 -997.867,1390.3842 z M -994.845,1388.9481 C -994.0931,1388.3488 -993.7063,1387.5581 -993.6019,1386.4072 C -993.4419,1384.6426 -994.0987,1383.2179 -995.3297,1382.6589 C -996.9367,1381.9291 -998.7348,1382.75 -999.2376,1384.4431 C -1000.0657,1387.2319 -998.6804,1389.6207 -996.3217,1389.4712 C -995.6157,1389.4265 -995.3086,1389.3177 -994.845,1388.9481 z M -761.43618,1389.4516 C -762.42594,1389.128 -763.27479,1388.369 -763.76632,1387.368 C -764.1508,1386.5851 -764.20203,1386.3071 -764.20203,1385.004 C -764.20203,1383.6996 -764.151,1383.4234 -763.76467,1382.6367 C -762.82929,1380.7318 -760.88855,1379.9316 -758.75083,1380.5694 C -757.10363,1381.0608 -756.08899,1382.5008 -755.93256,1384.5692 C -755.71569,1387.4366 -757.26453,1389.4519 -759.80359,1389.606 C -760.37788,1389.6408 -761.05245,1389.577 -761.43618,1389.4516 z M -758.41412,1388.0155 C -757.66222,1387.4161 -757.27545,1386.6255 -757.17108,1385.4745 C -757.01108,1383.71 -757.6678,1382.2853 -758.89888,1381.7262 C -760.50586,1380.9964 -762.30392,1381.8174 -762.80669,1383.5104 C -763.63488,1386.2992 -762.24956,1388.6881 -759.89084,1388.5385 C -759.18482,1388.4938 -758.87769,1388.385 -758.41412,1388.0155 z M -754.33132,1385.004 L -754.33132,1380.4961 L -753.70954,1380.4961 L -753.08776,1380.4961 L -753.08776,1382.3615 L -753.08776,1384.2268 L -750.75609,1384.2268 L -748.42443,1384.2268 L -748.42443,1382.3615 L -748.42443,1380.4961 L -747.80265,1380.4961 L -747.18087,1380.4961 L -747.18087,1385.004 L -747.18087,1389.5119 L -747.80265,1389.5119 L -748.42443,1389.5119 L -748.42443,1387.4134 L -748.42443,1385.3149 L -750.75609,1385.3149 L -753.08776,1385.3149 L -753.08776,1387.4134 L -753.08776,1389.5119 L -753.70954,1389.5119 L -754.33132,1389.5119 L -754.33132,1385.004 z M -1010.0004,1389.0461 C -1010.2794,1388.876 -1010.6266,1388.4874 -1010.772,1388.1825 C -1011.0017,1387.7007 -1011.0065,1387.6094 -1010.8088,1387.4843 C -1010.4226,1387.2401 -1010.2381,1387.3172 -1010.0348,1387.808 C -1009.8041,1388.3649 -1009.4601,1388.5793 -1008.7969,1388.5793 C -1007.881,1388.5793 -1007.2674,1387.5328 -1007.7044,1386.7162 C -1007.8902,1386.3691 -1008.7956,1386.043 -1009.1723,1386.1875 C -1009.387,1386.2699 -1009.432,1386.2194 -1009.3903,1385.9431 C -1009.3533,1385.6977 -1009.1588,1385.5337 -1008.7315,1385.3875 C -1007.8099,1385.0722 -1007.5911,1384.4968 -1008.172,1383.9159 C -1008.7504,1383.3375 -1009.9371,1383.6931 -1010.2155,1384.5283 C -1010.2612,1384.6654 -1010.4011,1384.6973 -1010.6336,1384.6235 C -1011.075,1384.4834 -1010.9697,1384.0305 -1010.3468,1383.3893 C -1009.7291,1382.7535 -1008.6212,1382.6524 -1007.873,1383.1637 C -1007.0149,1383.7502 -1006.8555,1384.8339 -1007.541,1385.4209 C -1007.8247,1385.6637 -1007.8169,1385.6883 -1007.3036,1386.1724 C -1005.6655,1387.7173 -1008.0364,1390.2436 -1010.0004,1389.0461 z M -1026.2526,1386.6442 C -1027.2318,1386.2949 -1027.7434,1385.7805 -1028.3473,1384.5377 C -1028.7075,1383.7965 -1028.7631,1383.4863 -1028.7655,1382.206 C -1028.7686,1380.5736 -1028.4488,1379.5929 -1027.633,1378.7332 C -1026.7055,1377.7557 -1024.9829,1377.3127 -1023.5823,1377.6916 C -1022.7704,1377.9112 -1021.7933,1378.7899 -1021.4654,1379.5953 L -1021.231,1380.1711 L -1021.8131,1380.332 C -1022.1332,1380.4205 -1022.4129,1380.4412 -1022.4346,1380.3779 C -1022.5924,1379.9185 -1023.1751,1379.199 -1023.5984,1378.9409 C -1024.7229,1378.2553 -1026.4448,1378.7853 -1027.1362,1380.0298 C -1027.4743,1380.6385 -1027.5248,1380.921 -1027.5248,1382.206 C -1027.5248,1383.491 -1027.4743,1383.7736 -1027.1362,1384.3823 C -1026.6171,1385.3166 -1025.6566,1385.8288 -1024.5986,1385.7354 C -1023.664,1385.6529 -1023.1274,1385.2687 -1022.6283,1384.3247 C -1022.2542,1383.617 -1022.2194,1383.5933 -1021.6956,1383.6889 C -1021.3964,1383.7435 -1021.1292,1383.8102 -1021.1019,1383.837 C -1020.9374,1383.9985 -1021.8343,1385.5648 -1022.3383,1385.9962 C -1023.3326,1386.8474 -1024.9378,1387.1131 -1026.2526,1386.6442 z M -1019.5194,1382.206 L -1019.5194,1377.6981 L -1018.8976,1377.6981 L -1018.2758,1377.6981 L -1018.2758,1379.5635 L -1018.2758,1381.4288 L -1015.9442,1381.4288 L -1013.6125,1381.4288 L -1013.6125,1379.5635 L -1013.6125,1377.6981 L -1012.9907,1377.6981 L -1012.3689,1377.6981 L -1012.3689,1382.206 L -1012.3689,1386.7139 L -1012.9907,1386.7139 L -1013.6125,1386.7139 L -1013.6125,1384.6154 L -1013.6125,1382.5169 L -1015.9442,1382.5169 L -1018.2758,1382.5169 L -1018.2758,1384.6154 L -1018.2758,1386.7139 L -1018.8976,1386.7139 L -1019.5194,1386.7139 L -1019.5194,1382.206 z M -820.66048,1375.3061 C -821.65024,1374.9826 -822.49909,1374.2235 -822.99062,1373.2226 C -823.3751,1372.4397 -823.42633,1372.1617 -823.42633,1370.8586 C -823.42633,1369.5542 -823.3753,1369.2779 -822.98897,1368.4912 C -822.05359,1366.5864 -820.11285,1365.7862 -817.97513,1366.424 C -816.32793,1366.9154 -815.31329,1368.3554 -815.15686,1370.4237 C -814.93999,1373.2912 -816.48883,1375.3064 -819.02789,1375.4605 C -819.60218,1375.4954 -820.27675,1375.4316 -820.66048,1375.3061 z M -817.63842,1373.87 C -816.88652,1373.2707 -816.49975,1372.48 -816.39538,1371.3291 C -816.23538,1369.5645 -816.8921,1368.1398 -818.12318,1367.5808 C -819.73016,1366.851 -821.52822,1367.6719 -822.03099,1369.365 C -822.85918,1372.1538 -821.47386,1374.5426 -819.11514,1374.3931 C -818.40912,1374.3484 -818.10199,1374.2396 -817.63842,1373.87 z M -832.05349,1370.8586 L -832.05349,1366.3507 L -831.43172,1366.3507 L -830.80994,1366.3507 L -830.80994,1368.216 L -830.80994,1370.0814 L -828.47827,1370.0814 L -826.14661,1370.0814 L -826.14661,1368.216 L -826.14661,1366.3507 L -825.52483,1366.3507 L -824.90305,1366.3507 L -824.90305,1370.8586 L -824.90305,1375.3665 L -825.52483,1375.3665 L -826.14661,1375.3665 L -826.14661,1373.268 L -826.14661,1371.1695 L -828.47827,1371.1695 L -830.80994,1371.1695 L -830.80994,1373.268 L -830.80994,1375.3665 L -831.43172,1375.3665 L -832.05349,1375.3665 L -832.05349,1370.8586 z M -950.77613,1374.9006 C -951.05509,1374.7306 -951.40228,1374.342 -951.54766,1374.0371 C -951.77742,1373.5553 -951.78224,1373.464 -951.58451,1373.3389 C -951.19833,1373.0946 -951.01379,1373.1718 -950.81052,1373.6625 C -950.57985,1374.2194 -950.23576,1374.4338 -949.57258,1374.4338 C -948.65668,1374.4338 -948.04307,1373.3874 -948.48012,1372.5707 C -948.66588,1372.2236 -949.57132,1371.8975 -949.94799,1372.0421 C -950.16268,1372.1245 -950.20771,1372.074 -950.16602,1371.7977 C -950.129,1371.5523 -949.93448,1371.3882 -949.50725,1371.2421 C -948.58561,1370.9267 -948.3668,1370.3513 -948.94765,1369.7705 C -949.52612,1369.192 -950.71279,1369.5476 -950.9912,1370.3829 C -951.03691,1370.52 -951.17684,1370.5518 -951.40927,1370.4781 C -951.85067,1370.338 -951.74544,1369.885 -951.12254,1369.2439 C -950.50482,1368.608 -949.39691,1368.507 -948.64875,1369.0183 C -947.79057,1369.6047 -947.63116,1370.6884 -948.31673,1371.2755 C -948.60038,1371.5183 -948.59261,1371.5429 -948.07931,1372.027 C -946.44125,1373.5719 -948.81206,1376.0981 -950.77613,1374.9006 z M -967.02835,1372.4987 C -968.00754,1372.1495 -968.5191,1371.635 -969.12298,1370.3923 C -969.48315,1369.651 -969.53878,1369.3409 -969.54122,1368.0606 C -969.54433,1366.4282 -969.2245,1365.4474 -968.40872,1364.5877 C -967.48117,1363.6102 -965.75857,1363.1673 -964.35801,1363.5461 C -963.54612,1363.7657 -962.56903,1364.6444 -962.24114,1365.4498 L -962.00671,1366.0257 L -962.58876,1366.1866 C -962.90889,1366.2751 -963.18858,1366.2957 -963.21029,1366.2325 C -963.36807,1365.773 -963.95076,1365.0535 -964.37408,1364.7954 C -965.49856,1364.1098 -967.22045,1364.6398 -967.91186,1365.8844 C -968.25002,1366.4931 -968.30047,1366.7756 -968.30047,1368.0606 C -968.30047,1369.3456 -968.25002,1369.6281 -967.91186,1370.2368 C -967.39277,1371.1712 -966.43235,1371.6833 -965.37431,1371.59 C -964.43966,1371.5075 -963.90308,1371.1233 -963.40398,1370.1792 C -963.02987,1369.4716 -962.99506,1369.4479 -962.47131,1369.5435 C -962.17208,1369.5981 -961.9049,1369.6647 -961.87758,1369.6915 C -961.71307,1369.853 -962.60997,1371.4194 -963.11396,1371.8508 C -964.10833,1372.7019 -965.71355,1372.9676 -967.02835,1372.4987 z M -960.29509,1368.0606 L -960.29509,1363.5527 L -959.67331,1363.5527 L -959.05153,1363.5527 L -959.05153,1365.418 L -959.05153,1367.2834 L -956.71987,1367.2834 L -954.3882,1367.2834 L -954.3882,1365.418 L -954.3882,1363.5527 L -953.76643,1363.5527 L -953.14465,1363.5527 L -953.14465,1368.0606 L -953.14465,1372.5685 L -953.76643,1372.5685 L -954.3882,1372.5685 L -954.3882,1370.47 L -954.3882,1368.3715 L -956.71987,1368.3715 L -959.05153,1368.3715 L -959.05153,1370.47 L -959.05153,1372.5685 L -959.67331,1372.5685 L -960.29509,1372.5685 L -960.29509,1368.0606 z M -851.44718,1361.6879 C -851.72614,1361.5178 -852.07333,1361.1292 -852.21872,1360.8243 C -852.44848,1360.3425 -852.4533,1360.2512 -852.25557,1360.1261 C -851.86939,1359.8819 -851.68484,1359.959 -851.48158,1360.4498 C -851.2509,1361.0067 -850.90681,1361.221 -850.24364,1361.221 C -849.32773,1361.221 -848.71413,1360.1746 -849.15118,1359.3579 C -849.33693,1359.0109 -850.24238,1358.6848 -850.61905,1358.8293 C -850.83374,1358.9117 -850.87877,1358.8612 -850.83708,1358.5849 C -850.80005,1358.3395 -850.60553,1358.1755 -850.17831,1358.0293 C -849.25666,1357.714 -849.03786,1357.1386 -849.61871,1356.5577 C -850.19718,1355.9792 -851.38384,1356.3348 -851.66226,1357.1701 C -851.70796,1357.3072 -851.84789,1357.3391 -852.08032,1357.2653 C -852.52172,1357.1252 -852.41649,1356.6722 -851.79359,1356.0311 C -851.17587,1355.3953 -850.06797,1355.2942 -849.3198,1355.8055 C -848.46163,1356.392 -848.30222,1357.4757 -848.98779,1358.0627 C -849.27143,1358.3055 -849.26367,1358.3301 -848.75036,1358.8142 C -847.11231,1360.3591 -849.48311,1362.8854 -851.44718,1361.6879 z M -844.38275,1359.286 C -845.36194,1358.9367 -845.87351,1358.4223 -846.47738,1357.1795 C -846.83756,1356.4383 -846.89319,1356.1281 -846.89562,1354.8478 C -846.89873,1353.2154 -846.5789,1352.2347 -845.76313,1351.375 C -844.83557,1350.3975 -843.11297,1349.9545 -841.71242,1350.3334 C -840.90052,1350.553 -839.92342,1351.4317 -839.59555,1352.2371 L -839.36112,1352.8129 L -839.94317,1352.9738 C -840.26329,1353.0623 -840.54298,1353.083 -840.56469,1353.0197 C -840.72247,1352.5603 -841.30515,1351.8408 -841.72849,1351.5827 C -842.85296,1350.8971 -844.57485,1351.4271 -845.26626,1352.6716 C -845.60442,1353.2803 -845.65488,1353.5628 -845.65488,1354.8478 C -845.65488,1356.1328 -845.60442,1356.4154 -845.26626,1357.0241 C -844.74717,1357.9584 -843.78674,1358.4706 -842.72871,1358.3772 C -841.79407,1358.2947 -841.25748,1357.9105 -840.75838,1356.9665 C -840.38427,1356.2588 -840.34947,1356.2351 -839.82571,1356.3307 C -839.52648,1356.3853 -839.2593,1356.4519 -839.23198,1356.4788 C -839.06747,1356.6403 -839.96437,1358.2066 -840.46837,1358.638 C -841.46273,1359.4892 -843.06794,1359.7549 -844.38275,1359.286 z M -835.27225,1359.2954 C -836.26201,1358.9718 -837.11086,1358.2128 -837.60239,1357.2118 C -837.98687,1356.4289 -838.0381,1356.1509 -838.0381,1354.8478 C -838.0381,1353.5434 -837.98707,1353.2672 -837.60074,1352.4805 C -836.66536,1350.5756 -834.72462,1349.7754 -832.5869,1350.4132 C -830.9397,1350.9046 -829.92506,1352.3446 -829.76863,1354.413 C -829.55176,1357.2804 -831.1006,1359.2957 -833.63966,1359.4498 C -834.21395,1359.4846 -834.88852,1359.4208 -835.27225,1359.2954 z M -832.25019,1357.8593 C -831.49829,1357.2599 -831.11152,1356.4693 -831.00715,1355.3183 C -830.84715,1353.5538 -831.50387,1352.129 -832.73495,1351.57 C -834.34193,1350.8402 -836.13999,1351.6612 -836.64276,1353.3542 C -837.47095,1356.143 -836.08563,1358.5318 -833.72691,1358.3823 C -833.02089,1358.3376 -832.71376,1358.2288 -832.25019,1357.8593 z M -860.8107,1354.8478 L -860.8107,1350.3399 L -860.18892,1350.3399 L -859.56715,1350.3399 L -859.56715,1352.2053 L -859.56715,1354.0706 L -857.23548,1354.0706 L -854.90381,1354.0706 L -854.90381,1352.2053 L -854.90381,1350.3399 L -854.28204,1350.3399 L -853.66026,1350.3399 L -853.66026,1354.8478 L -853.66026,1359.3557 L -854.28204,1359.3557 L -854.90381,1359.3557 L -854.90381,1357.2572 L -854.90381,1355.1587 L -857.23548,1355.1587 L -859.56715,1355.1587 L -859.56715,1357.2572 L -859.56715,1359.3557 L -860.18892,1359.3557 L -860.8107,1359.3557 L -860.8107,1354.8478 z M -758.0164,1354.0103 C -759.00616,1353.6867 -759.85501,1352.9277 -760.34655,1351.9267 C -760.73102,1351.1438 -760.78226,1350.8658 -760.78226,1349.5627 C -760.78226,1348.2583 -760.73122,1347.9821 -760.3449,1347.1954 C -759.40951,1345.2905 -757.46877,1344.4903 -755.33106,1345.1281 C -753.68386,1345.6195 -752.66921,1347.0595 -752.51279,1349.1279 C -752.29591,1351.9953 -753.84476,1354.0106 -756.38382,1354.1647 C -756.95811,1354.1995 -757.63267,1354.1357 -758.0164,1354.0103 z M -754.99435,1352.5742 C -754.24245,1351.9748 -753.85567,1351.1842 -753.75131,1350.0332 C -753.59131,1348.2687 -754.24803,1346.8439 -755.4791,1346.2849 C -757.08608,1345.5551 -758.88414,1346.3761 -759.38691,1348.0691 C -760.2151,1350.8579 -758.82978,1353.2467 -756.47107,1353.0972 C -755.76504,1353.0525 -755.45791,1352.9437 -754.99435,1352.5742 z M -811.02293,1342.3519 C -812.01269,1342.0284 -812.86154,1341.2693 -813.35307,1340.2684 C -813.73755,1339.4855 -813.78878,1339.2075 -813.78878,1337.9044 C -813.78878,1336.6 -813.73775,1336.3237 -813.35142,1335.537 C -812.41604,1333.6322 -810.4753,1332.832 -808.33758,1333.4698 C -806.69038,1333.9612 -805.67574,1335.4012 -805.51931,1337.4695 C -805.30244,1340.337 -806.85128,1342.3522 -809.39034,1342.5063 C -809.96463,1342.5412 -810.6392,1342.4774 -811.02293,1342.3519 z M -808.00087,1340.9158 C -807.24897,1340.3165 -806.8622,1339.5258 -806.75783,1338.3749 C -806.59783,1336.6103 -807.25455,1335.1856 -808.48563,1334.6266 C -810.09261,1333.8968 -811.89067,1334.7177 -812.39344,1336.4107 C -813.22163,1339.1996 -811.83631,1341.5884 -809.47759,1341.4389 C -808.77157,1341.3942 -808.46444,1341.2854 -808.00087,1340.9158 z M -801.38538,1342.3519 C -802.37514,1342.0284 -803.22399,1341.2693 -803.71552,1340.2684 C -804.1,1339.4855 -804.15123,1339.2075 -804.15123,1337.9044 C -804.15123,1336.6 -804.1002,1336.3237 -803.71387,1335.537 C -802.77849,1333.6322 -800.83775,1332.832 -798.70003,1333.4698 C -797.05283,1333.9612 -796.03819,1335.4012 -795.88176,1337.4695 C -795.66489,1340.337 -797.21373,1342.3522 -799.75279,1342.5063 C -800.32708,1342.5412 -801.00165,1342.4774 -801.38538,1342.3519 z M -798.36332,1340.9158 C -797.61142,1340.3165 -797.22465,1339.5258 -797.12028,1338.3749 C -796.96028,1336.6103 -797.617,1335.1856 -798.84808,1334.6266 C -800.45506,1333.8968 -802.25312,1334.7177 -802.75589,1336.4107 C -803.58408,1339.1996 -802.19876,1341.5884 -799.84004,1341.4389 C -799.13402,1341.3942 -798.82689,1341.2854 -798.36332,1340.9158 z M -791.998,1342.3425 C -792.97719,1341.9933 -793.48876,1341.4788 -794.09263,1340.2361 C -794.45281,1339.4948 -794.50844,1339.1847 -794.51087,1337.9044 C -794.51398,1336.272 -794.19415,1335.2912 -793.37838,1334.4315 C -792.45083,1333.454 -790.72822,1333.0111 -789.32767,1333.3899 C -788.51577,1333.6095 -787.53868,1334.4882 -787.2108,1335.2936 L -786.97637,1335.8695 L -787.55842,1336.0304 C -787.87854,1336.1189 -788.15823,1336.1395 -788.17995,1336.0763 C -788.33772,1335.6168 -788.9204,1334.8973 -789.34374,1334.6392 C -790.46821,1333.9536 -792.1901,1334.4836 -792.88152,1335.7282 C -793.21967,1336.3369 -793.27013,1336.6194 -793.27013,1337.9044 C -793.27013,1339.1894 -793.21967,1339.4719 -792.88152,1340.0806 C -792.36242,1341.015 -791.402,1341.5271 -790.34396,1341.4338 C -789.40932,1341.3513 -788.87273,1340.9671 -788.37363,1340.023 C -787.99952,1339.3154 -787.96472,1339.2917 -787.44096,1339.3873 C -787.14173,1339.4419 -786.87456,1339.5085 -786.84723,1339.5353 C -786.68272,1339.6968 -787.57962,1341.2632 -788.08362,1341.6946 C -789.07798,1342.5457 -790.68319,1342.8114 -791.998,1342.3425 z M -819.4625,1335.1841 C -819.4625,1334.9872 -819.0998,1334.951 -817.13084,1334.951 C -815.16187,1334.951 -814.79917,1334.9872 -814.79917,1335.1841 C -814.79917,1335.381 -815.16187,1335.4173 -817.13084,1335.4173 C -819.0998,1335.4173 -819.4625,1335.381 -819.4625,1335.1841 z"
       id="path2453"
       style="fill:#000000" />
  </g>
</svg>
