<svg xmlns="http://www.w3.org/2000/svg" xmlns:xlink="http://www.w3.org/1999/xlink" width="461" zoomAndPan="magnify" viewBox="0 0 345.75 273.749983" height="365" preserveAspectRatio="xMidYMid meet" version="1.0"><defs><clipPath id="c20e739473"><path d="M 44.074219 94.496094 L 145.878906 94.496094 L 145.878906 219 L 44.074219 219 Z M 44.074219 94.496094 " clip-rule="nonzero"/></clipPath><clipPath id="0eee7f7c22"><path d="M 52.707031 88.734375 C 46.960938 101.453125 38.453125 125.808594 41.875 156.097656 C 43.640625 171.757812 38.546875 211.300781 44.765625 223.949219 C 48.304688 231.144531 66.4375 218.625 66.4375 218.625 C 66.4375 218.625 60.539062 241.046875 73.261719 247.632812 C 80.957031 251.617188 91.105469 244.421875 92.125 245.195312 C 162.824219 298.894531 287.765625 262.273438 304.519531 209.222656 C 307.601562 199.460938 306.734375 190.042969 305.667969 178.457031 C 302.277344 141.605469 284.40625 130.648438 272.390625 91.519531 C 261.453125 55.910156 272.234375 51.902344 262.007812 36.070312 C 239.824219 1.730469 175.789062 0 131.730469 16.464844 C 114.804688 22.785156 73.734375 42.183594 52.707031 88.734375 Z M 52.707031 88.734375 " clip-rule="nonzero"/></clipPath><clipPath id="f34e475550"><path d="M 80.621094 153.296875 L 145.878906 153.296875 L 145.878906 270.167969 L 80.621094 270.167969 Z M 80.621094 153.296875 " clip-rule="nonzero"/></clipPath><clipPath id="1908db3ee0"><path d="M 52.707031 88.734375 C 46.960938 101.453125 38.453125 125.808594 41.875 156.097656 C 43.640625 171.757812 38.546875 211.300781 44.765625 223.949219 C 48.304688 231.144531 66.4375 218.625 66.4375 218.625 C 66.4375 218.625 60.539062 241.046875 73.261719 247.632812 C 80.957031 251.617188 91.105469 244.421875 92.125 245.195312 C 162.824219 298.894531 287.765625 262.273438 304.519531 209.222656 C 307.601562 199.460938 306.734375 190.042969 305.667969 178.457031 C 302.277344 141.605469 284.40625 130.648438 272.390625 91.519531 C 261.453125 55.910156 272.234375 51.902344 262.007812 36.070312 C 239.824219 1.730469 175.789062 0 131.730469 16.464844 C 114.804688 22.785156 73.734375 42.183594 52.707031 88.734375 Z M 52.707031 88.734375 " clip-rule="nonzero"/></clipPath><clipPath id="05f8c0f094"><path d="M 99.183594 112.308594 L 139.355469 112.308594 L 139.355469 160.679688 L 99.183594 160.679688 Z M 99.183594 112.308594 " clip-rule="nonzero"/></clipPath><clipPath id="1bf98659f5"><path d="M 52.707031 88.734375 C 46.960938 101.453125 38.453125 125.808594 41.875 156.097656 C 43.640625 171.757812 38.546875 211.300781 44.765625 223.949219 C 48.304688 231.144531 66.4375 218.625 66.4375 218.625 C 66.4375 218.625 60.539062 241.046875 73.261719 247.632812 C 80.957031 251.617188 91.105469 244.421875 92.125 245.195312 C 162.824219 298.894531 287.765625 262.273438 304.519531 209.222656 C 307.601562 199.460938 306.734375 190.042969 305.667969 178.457031 C 302.277344 141.605469 284.40625 130.648438 272.390625 91.519531 C 261.453125 55.910156 272.234375 51.902344 262.007812 36.070312 C 239.824219 1.730469 175.789062 0 131.730469 16.464844 C 114.804688 22.785156 73.734375 42.183594 52.707031 88.734375 Z M 52.707031 88.734375 " clip-rule="nonzero"/></clipPath><clipPath id="1b4f409fb2"><path d="M 117.164062 130.414062 L 124.125 130.414062 L 124.125 140.695312 L 117.164062 140.695312 Z M 117.164062 130.414062 " clip-rule="nonzero"/></clipPath><clipPath id="b6f1ef8401"><path d="M 52.707031 88.734375 C 46.960938 101.453125 38.453125 125.808594 41.875 156.097656 C 43.640625 171.757812 38.546875 211.300781 44.765625 223.949219 C 48.304688 231.144531 66.4375 218.625 66.4375 218.625 C 66.4375 218.625 60.539062 241.046875 73.261719 247.632812 C 80.957031 251.617188 91.105469 244.421875 92.125 245.195312 C 162.824219 298.894531 287.765625 262.273438 304.519531 209.222656 C 307.601562 199.460938 306.734375 190.042969 305.667969 178.457031 C 302.277344 141.605469 284.40625 130.648438 272.390625 91.519531 C 261.453125 55.910156 272.234375 51.902344 262.007812 36.070312 C 239.824219 1.730469 175.789062 0 131.730469 16.464844 C 114.804688 22.785156 73.734375 42.183594 52.707031 88.734375 Z M 52.707031 88.734375 " clip-rule="nonzero"/></clipPath><clipPath id="3636277057"><path d="M 124.417969 153.296875 L 178.945312 153.296875 L 178.945312 270.167969 L 124.417969 270.167969 Z M 124.417969 153.296875 " clip-rule="nonzero"/></clipPath><clipPath id="f4b63f115b"><path d="M 52.707031 88.734375 C 46.960938 101.453125 38.453125 125.808594 41.875 156.097656 C 43.640625 171.757812 38.546875 211.300781 44.765625 223.949219 C 48.304688 231.144531 66.4375 218.625 66.4375 218.625 C 66.4375 218.625 60.539062 241.046875 73.261719 247.632812 C 80.957031 251.617188 91.105469 244.421875 92.125 245.195312 C 162.824219 298.894531 287.765625 262.273438 304.519531 209.222656 C 307.601562 199.460938 306.734375 190.042969 305.667969 178.457031 C 302.277344 141.605469 284.40625 130.648438 272.390625 91.519531 C 261.453125 55.910156 272.234375 51.902344 262.007812 36.070312 C 239.824219 1.730469 175.789062 0 131.730469 16.464844 C 114.804688 22.785156 73.734375 42.183594 52.707031 88.734375 Z M 52.707031 88.734375 " clip-rule="nonzero"/></clipPath><clipPath id="720135cbc2"><path d="M 124 152.859375 L 179.523438 152.859375 L 179.523438 270.601562 L 124 270.601562 Z M 124 152.859375 " clip-rule="nonzero"/></clipPath><clipPath id="2647c66fb4"><path d="M 52.707031 88.734375 C 46.960938 101.453125 38.453125 125.808594 41.875 156.097656 C 43.640625 171.757812 38.546875 211.300781 44.765625 223.949219 C 48.304688 231.144531 66.4375 218.625 66.4375 218.625 C 66.4375 218.625 60.539062 241.046875 73.261719 247.632812 C 80.957031 251.617188 91.105469 244.421875 92.125 245.195312 C 162.824219 298.894531 287.765625 262.273438 304.519531 209.222656 C 307.601562 199.460938 306.734375 190.042969 305.667969 178.457031 C 302.277344 141.605469 284.40625 130.648438 272.390625 91.519531 C 261.453125 55.910156 272.234375 51.902344 262.007812 36.070312 C 239.824219 1.730469 175.789062 0 131.730469 16.464844 C 114.804688 22.785156 73.734375 42.183594 52.707031 88.734375 Z M 52.707031 88.734375 " clip-rule="nonzero"/></clipPath><clipPath id="30f8e6f1b7"><path d="M 126.445312 187.761719 L 209.6875 187.761719 L 209.6875 236.132812 L 126.445312 236.132812 Z M 126.445312 187.761719 " clip-rule="nonzero"/></clipPath><clipPath id="79fe9fe400"><path d="M 52.707031 88.734375 C 46.960938 101.453125 38.453125 125.808594 41.875 156.097656 C 43.640625 171.757812 38.546875 211.300781 44.765625 223.949219 C 48.304688 231.144531 66.4375 218.625 66.4375 218.625 C 66.4375 218.625 60.539062 241.046875 73.261719 247.632812 C 80.957031 251.617188 91.105469 244.421875 92.125 245.195312 C 162.824219 298.894531 287.765625 262.273438 304.519531 209.222656 C 307.601562 199.460938 306.734375 190.042969 305.667969 178.457031 C 302.277344 141.605469 284.40625 130.648438 272.390625 91.519531 C 261.453125 55.910156 272.234375 51.902344 262.007812 36.070312 C 239.824219 1.730469 175.789062 0 131.730469 16.464844 C 114.804688 22.785156 73.734375 42.183594 52.707031 88.734375 Z M 52.707031 88.734375 " clip-rule="nonzero"/></clipPath><clipPath id="4aa91b531f"><path d="M 126.011719 187.183594 L 210.558594 187.183594 L 210.558594 236.570312 L 126.011719 236.570312 Z M 126.011719 187.183594 " clip-rule="nonzero"/></clipPath><clipPath id="54b386e06f"><path d="M 52.707031 88.734375 C 46.960938 101.453125 38.453125 125.808594 41.875 156.097656 C 43.640625 171.757812 38.546875 211.300781 44.765625 223.949219 C 48.304688 231.144531 66.4375 218.625 66.4375 218.625 C 66.4375 218.625 60.539062 241.046875 73.261719 247.632812 C 80.957031 251.617188 91.105469 244.421875 92.125 245.195312 C 162.824219 298.894531 287.765625 262.273438 304.519531 209.222656 C 307.601562 199.460938 306.734375 190.042969 305.667969 178.457031 C 302.277344 141.605469 284.40625 130.648438 272.390625 91.519531 C 261.453125 55.910156 272.234375 51.902344 262.007812 36.070312 C 239.824219 1.730469 175.789062 0 131.730469 16.464844 C 114.804688 22.785156 73.734375 42.183594 52.707031 88.734375 Z M 52.707031 88.734375 " clip-rule="nonzero"/></clipPath><clipPath id="f96cc2491a"><path d="M 128.332031 187.761719 L 214.910156 187.761719 L 214.910156 236.132812 L 128.332031 236.132812 Z M 128.332031 187.761719 " clip-rule="nonzero"/></clipPath><clipPath id="1e96fd56cc"><path d="M 52.707031 88.734375 C 46.960938 101.453125 38.453125 125.808594 41.875 156.097656 C 43.640625 171.757812 38.546875 211.300781 44.765625 223.949219 C 48.304688 231.144531 66.4375 218.625 66.4375 218.625 C 66.4375 218.625 60.539062 241.046875 73.261719 247.632812 C 80.957031 251.617188 91.105469 244.421875 92.125 245.195312 C 162.824219 298.894531 287.765625 262.273438 304.519531 209.222656 C 307.601562 199.460938 306.734375 190.042969 305.667969 178.457031 C 302.277344 141.605469 284.40625 130.648438 272.390625 91.519531 C 261.453125 55.910156 272.234375 51.902344 262.007812 36.070312 C 239.824219 1.730469 175.789062 0 131.730469 16.464844 C 114.804688 22.785156 73.734375 42.183594 52.707031 88.734375 Z M 52.707031 88.734375 " clip-rule="nonzero"/></clipPath><clipPath id="66a4bd07fd"><path d="M 127.898438 187.183594 L 215.488281 187.183594 L 215.488281 236.570312 L 127.898438 236.570312 Z M 127.898438 187.183594 " clip-rule="nonzero"/></clipPath><clipPath id="b58abc9a93"><path d="M 52.707031 88.734375 C 46.960938 101.453125 38.453125 125.808594 41.875 156.097656 C 43.640625 171.757812 38.546875 211.300781 44.765625 223.949219 C 48.304688 231.144531 66.4375 218.625 66.4375 218.625 C 66.4375 218.625 60.539062 241.046875 73.261719 247.632812 C 80.957031 251.617188 91.105469 244.421875 92.125 245.195312 C 162.824219 298.894531 287.765625 262.273438 304.519531 209.222656 C 307.601562 199.460938 306.734375 190.042969 305.667969 178.457031 C 302.277344 141.605469 284.40625 130.648438 272.390625 91.519531 C 261.453125 55.910156 272.234375 51.902344 262.007812 36.070312 C 239.824219 1.730469 175.789062 0 131.730469 16.464844 C 114.804688 22.785156 73.734375 42.183594 52.707031 88.734375 Z M 52.707031 88.734375 " clip-rule="nonzero"/></clipPath><clipPath id="86ec14fde9"><path d="M 186 207.3125 L 197.363281 207.3125 L 197.363281 233.960938 L 186 233.960938 Z M 186 207.3125 " clip-rule="nonzero"/></clipPath><clipPath id="a617aa18ba"><path d="M 52.707031 88.734375 C 46.960938 101.453125 38.453125 125.808594 41.875 156.097656 C 43.640625 171.757812 38.546875 211.300781 44.765625 223.949219 C 48.304688 231.144531 66.4375 218.625 66.4375 218.625 C 66.4375 218.625 60.539062 241.046875 73.261719 247.632812 C 80.957031 251.617188 91.105469 244.421875 92.125 245.195312 C 162.824219 298.894531 287.765625 262.273438 304.519531 209.222656 C 307.601562 199.460938 306.734375 190.042969 305.667969 178.457031 C 302.277344 141.605469 284.40625 130.648438 272.390625 91.519531 C 261.453125 55.910156 272.234375 51.902344 262.007812 36.070312 C 239.824219 1.730469 175.789062 0 131.730469 16.464844 C 114.804688 22.785156 73.734375 42.183594 52.707031 88.734375 Z M 52.707031 88.734375 " clip-rule="nonzero"/></clipPath><clipPath id="4e0bd9b281"><path d="M 185.46875 206.878906 L 197.941406 206.878906 L 197.941406 234.539062 L 185.46875 234.539062 Z M 185.46875 206.878906 " clip-rule="nonzero"/></clipPath><clipPath id="66ef374045"><path d="M 52.707031 88.734375 C 46.960938 101.453125 38.453125 125.808594 41.875 156.097656 C 43.640625 171.757812 38.546875 211.300781 44.765625 223.949219 C 48.304688 231.144531 66.4375 218.625 66.4375 218.625 C 66.4375 218.625 60.539062 241.046875 73.261719 247.632812 C 80.957031 251.617188 91.105469 244.421875 92.125 245.195312 C 162.824219 298.894531 287.765625 262.273438 304.519531 209.222656 C 307.601562 199.460938 306.734375 190.042969 305.667969 178.457031 C 302.277344 141.605469 284.40625 130.648438 272.390625 91.519531 C 261.453125 55.910156 272.234375 51.902344 262.007812 36.070312 C 239.824219 1.730469 175.789062 0 131.730469 16.464844 C 114.804688 22.785156 73.734375 42.183594 52.707031 88.734375 Z M 52.707031 88.734375 " clip-rule="nonzero"/></clipPath><clipPath id="615c4b50d6"><path d="M 108.464844 204.273438 L 140.515625 204.273438 L 140.515625 222.519531 L 108.464844 222.519531 Z M 108.464844 204.273438 " clip-rule="nonzero"/></clipPath><clipPath id="baa5fabe11"><path d="M 52.707031 88.734375 C 46.960938 101.453125 38.453125 125.808594 41.875 156.097656 C 43.640625 171.757812 38.546875 211.300781 44.765625 223.949219 C 48.304688 231.144531 66.4375 218.625 66.4375 218.625 C 66.4375 218.625 60.539062 241.046875 73.261719 247.632812 C 80.957031 251.617188 91.105469 244.421875 92.125 245.195312 C 162.824219 298.894531 287.765625 262.273438 304.519531 209.222656 C 307.601562 199.460938 306.734375 190.042969 305.667969 178.457031 C 302.277344 141.605469 284.40625 130.648438 272.390625 91.519531 C 261.453125 55.910156 272.234375 51.902344 262.007812 36.070312 C 239.824219 1.730469 175.789062 0 131.730469 16.464844 C 114.804688 22.785156 73.734375 42.183594 52.707031 88.734375 Z M 52.707031 88.734375 " clip-rule="nonzero"/></clipPath><clipPath id="f0a0668f8d"><path d="M 108.03125 203.839844 L 140.949219 203.839844 L 140.949219 222.953125 L 108.03125 222.953125 Z M 108.03125 203.839844 " clip-rule="nonzero"/></clipPath><clipPath id="5a0e40fc18"><path d="M 52.707031 88.734375 C 46.960938 101.453125 38.453125 125.808594 41.875 156.097656 C 43.640625 171.757812 38.546875 211.300781 44.765625 223.949219 C 48.304688 231.144531 66.4375 218.625 66.4375 218.625 C 66.4375 218.625 60.539062 241.046875 73.261719 247.632812 C 80.957031 251.617188 91.105469 244.421875 92.125 245.195312 C 162.824219 298.894531 287.765625 262.273438 304.519531 209.222656 C 307.601562 199.460938 306.734375 190.042969 305.667969 178.457031 C 302.277344 141.605469 284.40625 130.648438 272.390625 91.519531 C 261.453125 55.910156 272.234375 51.902344 262.007812 36.070312 C 239.824219 1.730469 175.789062 0 131.730469 16.464844 C 114.804688 22.785156 73.734375 42.183594 52.707031 88.734375 Z M 52.707031 88.734375 " clip-rule="nonzero"/></clipPath><clipPath id="35311db37f"><path d="M 67.277344 151.847656 L 116.152344 151.847656 L 116.152344 270.167969 L 67.277344 270.167969 Z M 67.277344 151.847656 " clip-rule="nonzero"/></clipPath><clipPath id="442da670fb"><path d="M 52.707031 88.734375 C 46.960938 101.453125 38.453125 125.808594 41.875 156.097656 C 43.640625 171.757812 38.546875 211.300781 44.765625 223.949219 C 48.304688 231.144531 66.4375 218.625 66.4375 218.625 C 66.4375 218.625 60.539062 241.046875 73.261719 247.632812 C 80.957031 251.617188 91.105469 244.421875 92.125 245.195312 C 162.824219 298.894531 287.765625 262.273438 304.519531 209.222656 C 307.601562 199.460938 306.734375 190.042969 305.667969 178.457031 C 302.277344 141.605469 284.40625 130.648438 272.390625 91.519531 C 261.453125 55.910156 272.234375 51.902344 262.007812 36.070312 C 239.824219 1.730469 175.789062 0 131.730469 16.464844 C 114.804688 22.785156 73.734375 42.183594 52.707031 88.734375 Z M 52.707031 88.734375 " clip-rule="nonzero"/></clipPath><clipPath id="59b19bd800"><path d="M 66.699219 151.414062 L 116.585938 151.414062 L 116.585938 270.601562 L 66.699219 270.601562 Z M 66.699219 151.414062 " clip-rule="nonzero"/></clipPath><clipPath id="b29552435e"><path d="M 52.707031 88.734375 C 46.960938 101.453125 38.453125 125.808594 41.875 156.097656 C 43.640625 171.757812 38.546875 211.300781 44.765625 223.949219 C 48.304688 231.144531 66.4375 218.625 66.4375 218.625 C 66.4375 218.625 60.539062 241.046875 73.261719 247.632812 C 80.957031 251.617188 91.105469 244.421875 92.125 245.195312 C 162.824219 298.894531 287.765625 262.273438 304.519531 209.222656 C 307.601562 199.460938 306.734375 190.042969 305.667969 178.457031 C 302.277344 141.605469 284.40625 130.648438 272.390625 91.519531 C 261.453125 55.910156 272.234375 51.902344 262.007812 36.070312 C 239.824219 1.730469 175.789062 0 131.730469 16.464844 C 114.804688 22.785156 73.734375 42.183594 52.707031 88.734375 Z M 52.707031 88.734375 " clip-rule="nonzero"/></clipPath><clipPath id="0aa779fb07"><path d="M 84.101562 203 L 85.117188 203 L 85.117188 218.898438 L 84.101562 218.898438 Z M 84.101562 203 " clip-rule="nonzero"/></clipPath><clipPath id="56648d89e5"><path d="M 52.707031 88.734375 C 46.960938 101.453125 38.453125 125.808594 41.875 156.097656 C 43.640625 171.757812 38.546875 211.300781 44.765625 223.949219 C 48.304688 231.144531 66.4375 218.625 66.4375 218.625 C 66.4375 218.625 60.539062 241.046875 73.261719 247.632812 C 80.957031 251.617188 91.105469 244.421875 92.125 245.195312 C 162.824219 298.894531 287.765625 262.273438 304.519531 209.222656 C 307.601562 199.460938 306.734375 190.042969 305.667969 178.457031 C 302.277344 141.605469 284.40625 130.648438 272.390625 91.519531 C 261.453125 55.910156 272.234375 51.902344 262.007812 36.070312 C 239.824219 1.730469 175.789062 0 131.730469 16.464844 C 114.804688 22.785156 73.734375 42.183594 52.707031 88.734375 Z M 52.707031 88.734375 " clip-rule="nonzero"/></clipPath><clipPath id="f0b5e14937"><path d="M 77.285156 212.816406 L 99.910156 212.816406 L 99.910156 221.21875 L 77.285156 221.21875 Z M 77.285156 212.816406 " clip-rule="nonzero"/></clipPath><clipPath id="65d2cd922e"><path d="M 52.707031 88.734375 C 46.960938 101.453125 38.453125 125.808594 41.875 156.097656 C 43.640625 171.757812 38.546875 211.300781 44.765625 223.949219 C 48.304688 231.144531 66.4375 218.625 66.4375 218.625 C 66.4375 218.625 60.539062 241.046875 73.261719 247.632812 C 80.957031 251.617188 91.105469 244.421875 92.125 245.195312 C 162.824219 298.894531 287.765625 262.273438 304.519531 209.222656 C 307.601562 199.460938 306.734375 190.042969 305.667969 178.457031 C 302.277344 141.605469 284.40625 130.648438 272.390625 91.519531 C 261.453125 55.910156 272.234375 51.902344 262.007812 36.070312 C 239.824219 1.730469 175.789062 0 131.730469 16.464844 C 114.804688 22.785156 73.734375 42.183594 52.707031 88.734375 Z M 52.707031 88.734375 " clip-rule="nonzero"/></clipPath><clipPath id="48c9ce0031"><path d="M 76.125 232.511719 L 104.695312 232.511719 L 104.695312 249 L 76.125 249 Z M 76.125 232.511719 " clip-rule="nonzero"/></clipPath><clipPath id="3732e3d067"><path d="M 52.707031 88.734375 C 46.960938 101.453125 38.453125 125.808594 41.875 156.097656 C 43.640625 171.757812 38.546875 211.300781 44.765625 223.949219 C 48.304688 231.144531 66.4375 218.625 66.4375 218.625 C 66.4375 218.625 60.539062 241.046875 73.261719 247.632812 C 80.957031 251.617188 91.105469 244.421875 92.125 245.195312 C 162.824219 298.894531 287.765625 262.273438 304.519531 209.222656 C 307.601562 199.460938 306.734375 190.042969 305.667969 178.457031 C 302.277344 141.605469 284.40625 130.648438 272.390625 91.519531 C 261.453125 55.910156 272.234375 51.902344 262.007812 36.070312 C 239.824219 1.730469 175.789062 0 131.730469 16.464844 C 114.804688 22.785156 73.734375 42.183594 52.707031 88.734375 Z M 52.707031 88.734375 " clip-rule="nonzero"/></clipPath><clipPath id="67a1a971ff"><path d="M 89.902344 161.839844 L 99.910156 161.839844 L 99.910156 211.515625 L 89.902344 211.515625 Z M 89.902344 161.839844 " clip-rule="nonzero"/></clipPath><clipPath id="6123f25292"><path d="M 52.707031 88.734375 C 46.960938 101.453125 38.453125 125.808594 41.875 156.097656 C 43.640625 171.757812 38.546875 211.300781 44.765625 223.949219 C 48.304688 231.144531 66.4375 218.625 66.4375 218.625 C 66.4375 218.625 60.539062 241.046875 73.261719 247.632812 C 80.957031 251.617188 91.105469 244.421875 92.125 245.195312 C 162.824219 298.894531 287.765625 262.273438 304.519531 209.222656 C 307.601562 199.460938 306.734375 190.042969 305.667969 178.457031 C 302.277344 141.605469 284.40625 130.648438 272.390625 91.519531 C 261.453125 55.910156 272.234375 51.902344 262.007812 36.070312 C 239.824219 1.730469 175.789062 0 131.730469 16.464844 C 114.804688 22.785156 73.734375 42.183594 52.707031 88.734375 Z M 52.707031 88.734375 " clip-rule="nonzero"/></clipPath><clipPath id="2f39d7adba"><path d="M 132.101562 163.722656 L 140.949219 163.722656 L 140.949219 208.90625 L 132.101562 208.90625 Z M 132.101562 163.722656 " clip-rule="nonzero"/></clipPath><clipPath id="e45dfb2bad"><path d="M 52.707031 88.734375 C 46.960938 101.453125 38.453125 125.808594 41.875 156.097656 C 43.640625 171.757812 38.546875 211.300781 44.765625 223.949219 C 48.304688 231.144531 66.4375 218.625 66.4375 218.625 C 66.4375 218.625 60.539062 241.046875 73.261719 247.632812 C 80.957031 251.617188 91.105469 244.421875 92.125 245.195312 C 162.824219 298.894531 287.765625 262.273438 304.519531 209.222656 C 307.601562 199.460938 306.734375 190.042969 305.667969 178.457031 C 302.277344 141.605469 284.40625 130.648438 272.390625 91.519531 C 261.453125 55.910156 272.234375 51.902344 262.007812 36.070312 C 239.824219 1.730469 175.789062 0 131.730469 16.464844 C 114.804688 22.785156 73.734375 42.183594 52.707031 88.734375 Z M 52.707031 88.734375 " clip-rule="nonzero"/></clipPath></defs><path fill="#caddff" d="M 52.707031 88.734375 C 46.960938 101.453125 38.453125 125.808594 41.875 156.097656 C 46.257812 194.960938 67.976562 225.597656 89.101562 242.816406 C 159.199219 299.945312 287.527344 263.039062 304.519531 209.222656 C 307.601562 199.460938 306.734375 190.042969 305.667969 178.457031 C 302.277344 141.605469 284.40625 130.648438 272.390625 91.519531 C 261.453125 55.910156 272.234375 51.902344 262.007812 36.070312 C 239.824219 1.730469 175.789062 -0.00390625 131.730469 16.460938 C 114.804688 22.785156 73.738281 42.183594 52.707031 88.734375 " fill-opacity="1" fill-rule="nonzero"/><path fill="#99b9ff" d="M 152.183594 142.488281 C 153.5625 145.53125 155.019531 148.53125 156.699219 151.417969 C 158.378906 154.300781 160.257812 157.078125 162.414062 159.632812 C 164.566406 162.183594 166.992188 164.523438 169.6875 166.484375 C 171.035156 167.46875 172.449219 168.355469 173.910156 169.144531 C 175.375 169.921875 176.890625 170.613281 178.445312 171.179688 C 179.996094 171.753906 181.589844 172.203125 183.199219 172.546875 C 184.8125 172.886719 186.4375 173.121094 188.066406 173.25 C 189.695312 173.382812 191.324219 173.417969 192.945312 173.375 C 194.566406 173.339844 196.179688 173.21875 197.785156 173.054688 C 198.1875 173.019531 198.585938 172.96875 198.984375 172.917969 L 199.582031 172.847656 L 200.777344 172.683594 L 201.375 172.59375 C 201.773438 172.539062 202.167969 172.480469 202.5625 172.410156 C 204.148438 172.152344 205.722656 171.867188 207.289062 171.558594 C 210.425781 170.941406 213.535156 170.253906 216.636719 169.597656 C 218.1875 169.269531 219.742188 168.953125 221.292969 168.65625 C 222.839844 168.359375 224.394531 168.089844 225.945312 167.851562 C 227.5 167.613281 229.050781 167.417969 230.601562 167.261719 C 232.15625 167.117188 233.707031 167.019531 235.25 166.992188 C 238.34375 166.945312 241.414062 167.167969 244.371094 167.78125 C 245.847656 168.085938 247.300781 168.488281 248.710938 168.984375 C 250.117188 169.484375 251.480469 170.085938 252.792969 170.777344 L 253.285156 171.035156 L 253.765625 171.3125 C 254.085938 171.496094 254.410156 171.675781 254.71875 171.882812 L 255.652344 172.476562 L 256.554688 173.117188 C 256.703125 173.222656 256.855469 173.328125 257.003906 173.4375 L 257.4375 173.777344 C 257.726562 174.007812 258.015625 174.234375 258.304688 174.464844 L 259.128906 175.191406 L 259.542969 175.554688 L 259.941406 175.941406 C 262.058594 177.972656 263.90625 180.277344 265.488281 182.761719 C 267.066406 185.246094 268.386719 187.910156 269.464844 190.679688 C 270.546875 193.449219 271.414062 196.316406 272.066406 199.238281 C 272.730469 202.195312 275.671875 204.058594 278.632812 203.394531 C 281.59375 202.730469 283.457031 199.796875 282.796875 196.839844 C 282.691406 196.378906 282.535156 195.949219 282.332031 195.546875 L 282.308594 195.503906 C 280.746094 192.484375 279.121094 189.507812 277.296875 186.632812 C 275.46875 183.765625 273.460938 180.996094 271.195312 178.433594 C 268.929688 175.871094 266.410156 173.515625 263.652344 171.484375 L 263.136719 171.101562 L 262.609375 170.738281 L 261.546875 170.019531 C 261.183594 169.792969 260.816406 169.574219 260.453125 169.351562 L 259.90625 169.019531 C 259.722656 168.914062 259.53125 168.8125 259.34375 168.707031 C 258.96875 168.503906 258.597656 168.296875 258.222656 168.097656 L 257.078125 167.535156 C 256.695312 167.34375 256.304688 167.179688 255.917969 167.003906 L 255.332031 166.75 L 254.742188 166.515625 C 253.167969 165.886719 251.550781 165.363281 249.917969 164.949219 C 248.285156 164.539062 246.628906 164.246094 244.976562 164.042969 C 241.660156 163.648438 238.347656 163.652344 235.097656 163.917969 C 233.46875 164.050781 231.859375 164.246094 230.257812 164.492188 C 228.660156 164.730469 227.074219 165.019531 225.5 165.335938 C 222.351562 165.964844 219.242188 166.710938 216.152344 167.457031 C 213.058594 168.203125 209.984375 168.953125 206.894531 169.59375 C 205.347656 169.914062 203.800781 170.210938 202.25 170.457031 C 201.859375 170.523438 201.472656 170.578125 201.085938 170.636719 L 200.503906 170.722656 L 199.921875 170.796875 L 199.335938 170.871094 L 198.753906 170.9375 C 198.363281 170.980469 197.976562 171.023438 197.585938 171.054688 C 194.476562 171.347656 191.347656 171.390625 188.28125 171.039062 C 185.21875 170.683594 182.222656 169.921875 179.433594 168.707031 C 178.039062 168.097656 176.695312 167.382812 175.417969 166.570312 C 174.136719 165.757812 172.925781 164.84375 171.785156 163.855469 C 169.507812 161.871094 167.546875 159.546875 165.894531 157.027344 C 164.234375 154.507812 162.894531 151.78125 161.8125 148.957031 C 161.671875 148.605469 161.546875 148.246094 161.417969 147.890625 C 161.289062 147.535156 161.167969 147.175781 161.046875 146.816406 C 160.8125 146.09375 160.589844 145.371094 160.382812 144.640625 C 159.976562 143.175781 159.613281 141.699219 159.339844 140.199219 C 158.957031 138.148438 156.984375 136.792969 154.929688 137.171875 C 152.871094 137.550781 151.511719 139.523438 151.894531 141.574219 C 151.949219 141.875 152.039062 142.160156 152.15625 142.425781 L 152.183594 142.488281 " fill-opacity="1" fill-rule="nonzero"/><path fill="#5479f7" d="M 206.144531 177.21875 C 205.261719 175.980469 205.484375 174.25 206.652344 173.277344 C 207 172.992188 207.390625 172.796875 207.792969 172.695312 C 210.484375 172.003906 212.980469 170.703125 215.171875 169.003906 L 216.0625 168.3125 C 218.257812 166.613281 220.136719 164.519531 221.476562 162.089844 C 221.675781 161.722656 221.960938 161.394531 222.324219 161.132812 C 223.554688 160.242188 225.292969 160.453125 226.269531 161.617188 C 227.34375 162.890625 227.132812 164.789062 225.828125 165.800781 C 225.523438 166.039062 225.1875 166.203125 224.839844 166.304688 C 222.183594 167.058594 219.671875 168.242188 217.492188 169.933594 L 216.390625 170.785156 C 214.210938 172.476562 212.4375 174.613281 211.050781 176.992188 C 210.867188 177.304688 210.621094 177.589844 210.316406 177.824219 C 209.011719 178.835938 207.117188 178.570312 206.144531 177.21875 " fill-opacity="1" fill-rule="nonzero"/><path fill="#5479f7" d="M 209.847656 186.898438 C 208.960938 185.664062 209.183594 183.929688 210.351562 182.960938 C 210.699219 182.671875 211.089844 182.480469 211.492188 182.375 C 214.183594 181.6875 216.679688 180.386719 218.875 178.6875 L 224.539062 174.296875 C 226.730469 172.59375 228.609375 170.503906 229.949219 168.070312 C 230.148438 167.707031 230.433594 167.375 230.796875 167.113281 C 232.027344 166.222656 233.765625 166.4375 234.746094 167.601562 C 235.816406 168.875 235.605469 170.773438 234.300781 171.785156 C 233.996094 172.019531 233.660156 172.1875 233.3125 172.285156 C 230.65625 173.039062 228.144531 174.226562 225.964844 175.914062 L 220.089844 180.46875 C 217.910156 182.15625 216.140625 184.292969 214.75 186.675781 C 214.566406 186.988281 214.320312 187.273438 214.015625 187.507812 C 212.710938 188.519531 210.816406 188.253906 209.847656 186.898438 " fill-opacity="1" fill-rule="nonzero"/><path fill="#5479f7" d="M 212.355469 197.503906 C 211.46875 196.269531 211.695312 194.535156 212.863281 193.566406 C 213.207031 193.28125 213.597656 193.085938 214.003906 192.980469 C 216.691406 192.292969 219.1875 190.992188 221.382812 189.292969 L 234.207031 179.351562 C 236.398438 177.648438 238.277344 175.558594 239.617188 173.128906 C 239.816406 172.761719 240.101562 172.433594 240.464844 172.171875 C 241.695312 171.277344 243.433594 171.492188 244.414062 172.65625 C 245.484375 173.929688 245.273438 175.828125 243.96875 176.839844 C 243.664062 177.078125 243.328125 177.242188 242.976562 177.34375 C 240.324219 178.097656 237.8125 179.28125 235.632812 180.972656 L 222.601562 191.074219 C 220.417969 192.765625 218.648438 194.898438 217.257812 197.28125 C 217.074219 197.59375 216.828125 197.878906 216.527344 198.113281 C 215.21875 199.125 213.328125 198.859375 212.355469 197.503906 " fill-opacity="1" fill-rule="nonzero"/><path fill="#5479f7" d="M 157.445312 114.5625 C 156.558594 113.328125 156.785156 111.59375 157.953125 110.621094 C 158.296875 110.335938 158.6875 110.140625 159.09375 110.039062 C 161.78125 109.347656 164.277344 108.050781 166.472656 106.347656 L 167.363281 105.65625 C 169.558594 103.957031 171.4375 101.863281 172.773438 99.433594 C 172.976562 99.066406 173.261719 98.738281 173.625 98.476562 C 174.855469 97.585938 176.59375 97.800781 177.570312 98.960938 C 178.644531 100.238281 178.433594 102.132812 177.128906 103.148438 C 176.824219 103.382812 176.488281 103.550781 176.136719 103.648438 C 173.484375 104.402344 170.96875 105.585938 168.789062 107.277344 L 167.691406 108.128906 C 165.511719 109.820312 163.738281 111.957031 162.347656 114.335938 C 162.164062 114.652344 161.921875 114.933594 161.617188 115.171875 C 160.3125 116.183594 158.417969 115.917969 157.445312 114.5625 " fill-opacity="1" fill-rule="nonzero"/><path fill="#5479f7" d="M 161.144531 124.242188 C 160.261719 123.007812 160.484375 121.273438 161.65625 120.304688 C 162 120.015625 162.390625 119.824219 162.796875 119.722656 C 165.484375 119.027344 167.980469 117.730469 170.171875 116.027344 L 175.839844 111.640625 C 178.03125 109.9375 179.910156 107.847656 181.246094 105.414062 C 181.449219 105.050781 181.734375 104.71875 182.097656 104.457031 C 183.328125 103.566406 185.066406 103.78125 186.046875 104.941406 C 187.117188 106.21875 186.90625 108.117188 185.601562 109.128906 C 185.296875 109.363281 184.960938 109.53125 184.609375 109.632812 C 181.957031 110.386719 179.445312 111.570312 177.265625 113.261719 L 171.390625 117.8125 C 169.210938 119.503906 167.441406 121.636719 166.050781 124.019531 C 165.867188 124.332031 165.621094 124.617188 165.316406 124.851562 C 164.011719 125.863281 162.117188 125.597656 161.144531 124.242188 " fill-opacity="1" fill-rule="nonzero"/><path fill="#5479f7" d="M 163.65625 134.851562 C 162.769531 133.613281 162.992188 131.882812 164.164062 130.910156 C 164.507812 130.625 164.894531 130.433594 165.300781 130.328125 C 167.992188 129.636719 170.488281 128.339844 172.679688 126.636719 L 185.503906 116.695312 C 187.699219 114.996094 189.578125 112.902344 190.917969 110.472656 C 191.117188 110.105469 191.402344 109.777344 191.765625 109.515625 C 192.996094 108.625 194.734375 108.835938 195.710938 110 C 196.785156 111.277344 196.574219 113.171875 195.269531 114.1875 C 194.964844 114.421875 194.628906 114.589844 194.277344 114.6875 C 191.625 115.441406 189.113281 116.625 186.933594 118.316406 L 173.898438 128.417969 C 171.71875 130.109375 169.949219 132.246094 168.558594 134.625 C 168.375 134.9375 168.128906 135.222656 167.824219 135.457031 C 166.519531 136.472656 164.625 136.203125 163.65625 134.851562 " fill-opacity="1" fill-rule="nonzero"/><path fill="#5479f7" d="M 248.902344 232.222656 C 249.878906 233.386719 251.617188 233.597656 252.847656 232.710938 C 253.210938 232.445312 253.496094 232.117188 253.699219 231.75 C 255.035156 229.320312 256.914062 227.230469 259.109375 225.527344 L 260 224.835938 C 262.195312 223.136719 264.691406 221.839844 267.378906 221.144531 C 267.785156 221.042969 268.175781 220.847656 268.519531 220.5625 C 269.6875 219.59375 269.910156 217.859375 269.027344 216.625 C 268.054688 215.269531 266.160156 215.003906 264.855469 216.015625 C 264.550781 216.25 264.308594 216.535156 264.125 216.847656 C 262.734375 219.230469 260.960938 221.363281 258.78125 223.054688 L 257.683594 223.910156 C 255.503906 225.597656 252.988281 226.78125 250.335938 227.535156 C 249.984375 227.636719 249.648438 227.800781 249.34375 228.039062 C 248.039062 229.050781 247.828125 230.949219 248.902344 232.222656 " fill-opacity="1" fill-rule="nonzero"/><path fill="#5479f7" d="M 240.425781 226.242188 C 241.40625 227.402344 243.144531 227.617188 244.375 226.726562 C 244.742188 226.464844 245.023438 226.136719 245.226562 225.769531 C 246.5625 223.339844 248.441406 221.246094 250.636719 219.546875 L 256.300781 215.15625 C 258.492188 213.453125 260.988281 212.15625 263.679688 211.464844 C 264.085938 211.359375 264.472656 211.167969 264.820312 210.878906 C 265.988281 209.910156 266.210938 208.175781 265.328125 206.941406 C 264.355469 205.585938 262.460938 205.320312 261.15625 206.332031 C 260.851562 206.566406 260.605469 206.851562 260.425781 207.164062 C 259.035156 209.546875 257.261719 211.683594 255.082031 213.371094 L 249.207031 217.925781 C 247.027344 219.613281 244.515625 220.800781 241.863281 221.554688 C 241.515625 221.652344 241.175781 221.820312 240.871094 222.054688 C 239.566406 223.066406 239.355469 224.964844 240.425781 226.242188 " fill-opacity="1" fill-rule="nonzero"/><path fill="#5479f7" d="M 230.761719 221.183594 C 231.738281 222.347656 233.476562 222.5625 234.707031 221.671875 C 235.070312 221.410156 235.355469 221.078125 235.554688 220.714844 C 236.894531 218.28125 238.773438 216.191406 240.96875 214.488281 L 253.792969 204.546875 C 255.984375 202.847656 258.480469 201.546875 261.171875 200.859375 C 261.578125 200.753906 261.964844 200.5625 262.308594 200.273438 C 263.480469 199.304688 263.703125 197.570312 262.816406 196.335938 C 261.847656 194.980469 259.953125 194.714844 258.648438 195.726562 C 258.34375 195.960938 258.097656 196.246094 257.914062 196.558594 C 256.523438 198.9375 254.753906 201.078125 252.574219 202.765625 L 239.539062 212.867188 C 237.359375 214.558594 234.847656 215.742188 232.191406 216.496094 C 231.847656 216.597656 231.511719 216.761719 231.207031 217 C 229.898438 218.011719 229.6875 219.910156 230.761719 221.183594 " fill-opacity="1" fill-rule="nonzero"/><path fill="#5479f7" d="M 214.863281 208.113281 C 213.976562 206.878906 214.203125 205.144531 215.371094 204.171875 C 215.714844 203.886719 216.105469 203.691406 216.511719 203.589844 C 219.203125 202.898438 221.695312 201.597656 223.890625 199.898438 L 243.875 184.410156 C 246.070312 182.707031 247.945312 180.617188 249.285156 178.183594 C 249.488281 177.816406 249.769531 177.488281 250.132812 177.226562 C 251.367188 176.335938 253.101562 176.550781 254.082031 177.710938 C 255.152344 178.988281 254.941406 180.886719 253.636719 181.898438 C 253.332031 182.132812 252.996094 182.300781 252.648438 182.398438 C 249.992188 183.152344 247.480469 184.339844 245.300781 186.027344 L 225.109375 201.679688 C 222.929688 203.371094 221.15625 205.507812 219.765625 207.886719 C 219.582031 208.203125 219.335938 208.484375 219.03125 208.722656 C 217.726562 209.734375 215.835938 209.46875 214.863281 208.113281 " fill-opacity="1" fill-rule="nonzero"/><path fill="#5479f7" d="M 220.953125 215.945312 C 220.066406 214.710938 220.289062 212.976562 221.460938 212.003906 C 221.804688 211.71875 222.191406 211.527344 222.597656 211.421875 C 225.285156 210.730469 227.78125 209.429688 229.976562 207.730469 L 249.960938 192.242188 C 252.15625 190.539062 254.035156 188.449219 255.371094 186.015625 C 255.570312 185.648438 255.855469 185.320312 256.21875 185.058594 C 257.453125 184.167969 259.1875 184.382812 260.167969 185.542969 C 261.242188 186.820312 261.03125 188.71875 259.722656 189.730469 C 259.417969 189.964844 259.082031 190.132812 258.734375 190.230469 C 256.078125 190.988281 253.566406 192.171875 251.386719 193.859375 L 231.195312 209.511719 C 229.015625 211.203125 227.242188 213.339844 225.855469 215.71875 C 225.671875 216.03125 225.425781 216.316406 225.121094 216.550781 C 223.816406 217.566406 221.921875 217.296875 220.953125 215.945312 " fill-opacity="1" fill-rule="nonzero"/><path fill="#5479f7" d="M 197.816406 171.417969 C 198.792969 172.582031 200.53125 172.792969 201.761719 171.902344 C 202.125 171.640625 202.410156 171.3125 202.609375 170.945312 C 203.949219 168.515625 205.828125 166.421875 208.019531 164.722656 L 213.683594 160.332031 C 215.878906 158.628906 218.375 157.332031 221.066406 156.640625 C 221.46875 156.539062 221.859375 156.34375 222.203125 156.058594 C 223.375 155.085938 223.597656 153.351562 222.714844 152.117188 C 221.742188 150.761719 219.847656 150.496094 218.542969 151.511719 C 218.238281 151.746094 217.992188 152.03125 217.808594 152.34375 C 216.417969 154.722656 214.648438 156.859375 212.46875 158.550781 L 206.597656 163.101562 C 204.414062 164.792969 201.902344 165.976562 199.25 166.730469 C 198.898438 166.832031 198.5625 166.996094 198.257812 167.234375 C 196.953125 168.246094 196.742188 170.140625 197.816406 171.417969 " fill-opacity="1" fill-rule="nonzero"/><path fill="#5479f7" d="M 188.148438 166.359375 C 189.125 167.523438 190.863281 167.738281 192.09375 166.847656 C 192.457031 166.585938 192.742188 166.253906 192.945312 165.890625 C 194.28125 163.457031 196.160156 161.367188 198.355469 159.664062 L 211.179688 149.726562 C 213.371094 148.023438 215.867188 146.726562 218.558594 146.035156 C 218.960938 145.929688 219.351562 145.738281 219.695312 145.449219 C 220.867188 144.480469 221.089844 142.746094 220.203125 141.511719 C 219.234375 140.15625 217.339844 139.890625 216.035156 140.902344 C 215.730469 141.136719 215.484375 141.421875 215.304688 141.734375 C 213.910156 144.117188 212.140625 146.253906 209.960938 147.941406 L 196.925781 158.046875 C 194.746094 159.734375 192.234375 160.917969 189.582031 161.675781 C 189.234375 161.773438 188.894531 161.941406 188.589844 162.175781 C 187.285156 163.1875 187.074219 165.085938 188.148438 166.359375 " fill-opacity="1" fill-rule="nonzero"/><path fill="#5479f7" d="M 178.480469 161.304688 C 179.457031 162.464844 181.195312 162.679688 182.429688 161.789062 C 182.789062 161.527344 183.074219 161.199219 183.277344 160.832031 C 184.613281 158.402344 186.492188 156.308594 188.6875 154.609375 L 208.671875 139.117188 C 210.863281 137.417969 213.359375 136.117188 216.050781 135.429688 C 216.453125 135.324219 216.84375 135.128906 217.1875 134.84375 C 218.359375 133.871094 218.582031 132.140625 217.695312 130.902344 C 216.726562 129.550781 214.832031 129.285156 213.527344 130.296875 C 213.222656 130.53125 212.976562 130.816406 212.796875 131.128906 C 211.402344 133.507812 209.632812 135.644531 207.453125 137.335938 L 187.261719 152.988281 C 185.082031 154.679688 182.566406 155.863281 179.914062 156.617188 C 179.5625 156.714844 179.226562 156.882812 178.925781 157.117188 C 177.617188 158.132812 177.40625 160.03125 178.480469 161.304688 " fill-opacity="1" fill-rule="nonzero"/><path fill="#5479f7" d="M 172.394531 153.472656 C 173.371094 154.636719 175.105469 154.847656 176.339844 153.957031 C 176.703125 153.695312 176.988281 153.367188 177.1875 153 C 178.527344 150.570312 180.40625 148.476562 182.597656 146.777344 L 202.582031 131.285156 C 204.777344 129.585938 207.269531 128.289062 209.960938 127.597656 C 210.367188 127.492188 210.757812 127.296875 211.101562 127.011719 C 212.269531 126.039062 212.496094 124.308594 211.609375 123.070312 C 210.640625 121.71875 208.746094 121.453125 207.4375 122.464844 C 207.136719 122.699219 206.890625 122.984375 206.707031 123.296875 C 205.316406 125.675781 203.542969 127.816406 201.363281 129.503906 L 181.171875 145.15625 C 178.992188 146.847656 176.480469 148.03125 173.824219 148.785156 C 173.476562 148.882812 173.140625 149.050781 172.835938 149.285156 C 171.53125 150.296875 171.320312 152.199219 172.394531 153.472656 " fill-opacity="1" fill-rule="nonzero"/><path fill="#5479f7" d="M 166.304688 145.640625 C 167.285156 146.804688 169.019531 147.015625 170.25 146.125 C 170.617188 145.863281 170.902344 145.535156 171.101562 145.167969 C 172.4375 142.738281 174.316406 140.644531 176.511719 138.945312 L 196.496094 123.453125 C 198.6875 121.753906 201.183594 120.453125 203.875 119.765625 C 204.28125 119.660156 204.667969 119.464844 205.015625 119.179688 C 206.183594 118.207031 206.40625 116.476562 205.523438 115.242188 C 204.550781 113.886719 202.65625 113.621094 201.351562 114.632812 C 201.046875 114.867188 200.800781 115.152344 200.621094 115.464844 C 199.230469 117.84375 197.457031 119.984375 195.277344 121.671875 L 175.085938 137.324219 C 172.90625 139.015625 170.394531 140.199219 167.738281 140.953125 C 167.390625 141.054688 167.054688 141.21875 166.75 141.453125 C 165.441406 142.46875 165.230469 144.367188 166.304688 145.640625 " fill-opacity="1" fill-rule="nonzero"/><path fill="#ffffff" d="M 209.140625 226.191406 C 208.761719 225.671875 208.414062 225.121094 208.050781 224.585938 C 207.703125 224.039062 207.375 223.476562 207.039062 222.921875 C 206.730469 222.34375 206.410156 221.777344 206.121094 221.195312 L 205.695312 220.308594 L 205.488281 219.867188 L 205.292969 219.417969 C 203.203125 214.625 202.273438 209.3125 202.511719 204.214844 C 202.601562 201.660156 202.976562 199.167969 203.484375 196.746094 C 204.007812 194.328125 204.695312 191.988281 205.464844 189.710938 C 207.023438 185.160156 208.921875 180.855469 210.847656 176.640625 C 212.777344 172.425781 214.734375 168.292969 216.511719 164.117188 C 218.285156 159.949219 219.871094 155.742188 221.050781 151.441406 C 222.21875 147.144531 222.976562 142.75 223.085938 138.328125 C 223.195312 133.910156 222.65625 129.476562 221.464844 125.183594 C 221.332031 124.644531 221.152344 124.117188 220.980469 123.585938 L 220.464844 121.996094 C 220.28125 121.46875 220.0625 120.953125 219.863281 120.429688 L 219.558594 119.652344 C 219.457031 119.390625 219.359375 119.128906 219.234375 118.875 L 218.53125 117.351562 C 218.414062 117.09375 218.300781 116.839844 218.175781 116.589844 L 217.785156 115.84375 L 216.996094 114.355469 C 216.722656 113.867188 216.421875 113.386719 216.136719 112.902344 C 215.582031 111.925781 214.933594 111 214.308594 110.058594 L 214.074219 109.707031 L 213.824219 109.363281 L 213.320312 108.683594 C 212.980469 108.230469 212.664062 107.761719 212.300781 107.324219 C 211.589844 106.445312 210.894531 105.546875 210.132812 104.707031 C 209.753906 104.285156 209.394531 103.84375 209 103.433594 L 207.832031 102.195312 C 204.664062 98.925781 201.160156 95.960938 197.460938 93.253906 C 197.253906 93.101562 197.195312 92.8125 197.339844 92.59375 C 197.488281 92.367188 197.792969 92.304688 198.019531 92.453125 C 201.894531 94.984375 205.609375 97.800781 209.027344 100.972656 L 210.296875 102.179688 C 210.722656 102.582031 211.117188 103.011719 211.527344 103.425781 C 212.359375 104.25 213.121094 105.136719 213.90625 106.003906 C 214.300781 106.4375 214.660156 106.902344 215.035156 107.351562 L 215.59375 108.03125 L 215.875 108.375 L 216.136719 108.726562 C 216.835938 109.671875 217.5625 110.597656 218.195312 111.585938 C 218.523438 112.078125 218.863281 112.558594 219.175781 113.058594 L 220.085938 114.578125 L 220.539062 115.335938 C 220.6875 115.59375 220.820312 115.859375 220.957031 116.117188 L 221.785156 117.6875 C 221.929688 117.949219 222.046875 118.21875 222.167969 118.488281 L 222.539062 119.296875 C 222.777344 119.839844 223.039062 120.371094 223.261719 120.921875 L 223.902344 122.582031 C 224.113281 123.136719 224.335938 123.691406 224.511719 124.257812 C 226.023438 128.765625 226.863281 133.53125 227 138.320312 C 227.136719 143.109375 226.570312 147.898438 225.570312 152.539062 C 224.558594 157.183594 223.121094 161.691406 221.519531 166.089844 C 219.921875 170.484375 218.160156 174.773438 216.480469 179.03125 C 214.804688 183.285156 213.207031 187.511719 212.007812 191.75 C 211.414062 193.867188 210.917969 195.984375 210.578125 198.085938 C 210.253906 200.191406 210.054688 202.285156 210.097656 204.332031 C 210.132812 208.4375 211.078125 212.378906 212.855469 215.945312 L 213.019531 216.277344 L 213.558594 217.261719 C 213.804688 217.695312 214.074219 218.117188 214.328125 218.546875 C 214.617188 218.957031 214.890625 219.378906 215.179688 219.789062 C 215.488281 220.1875 215.777344 220.597656 216.097656 220.992188 C 217.363281 222.570312 218.785156 224.050781 220.339844 225.425781 C 221.898438 226.796875 223.582031 228.0625 225.335938 229.253906 L 226.664062 230.128906 L 228.039062 230.960938 C 228.265625 231.097656 228.492188 231.242188 228.722656 231.375 L 229.429688 231.765625 C 229.902344 232.027344 230.367188 232.296875 230.84375 232.550781 C 238.492188 236.589844 246.933594 239.484375 255.566406 241.746094 C 259.886719 242.875 264.269531 243.851562 268.683594 244.714844 C 270.644531 245.097656 272.617188 245.449219 274.59375 245.78125 L 274.625 212.335938 C 274.636719 209.855469 276.550781 207.746094 279.070312 207.558594 C 281.714844 207.359375 284.019531 209.339844 284.21875 211.980469 L 287.304688 252.988281 C 287.335938 253.410156 287.324219 253.875 287.261719 254.3125 C 286.785156 257.683594 283.664062 260.023438 280.292969 259.546875 L 279.867188 259.488281 L 279.863281 259.488281 C 275.253906 258.550781 270.652344 257.550781 266.074219 256.410156 C 261.492188 255.253906 256.929688 253.984375 252.402344 252.539062 C 247.875 251.09375 243.382812 249.46875 238.960938 247.589844 C 234.535156 245.703125 230.1875 243.558594 225.984375 241.039062 C 225.460938 240.726562 224.941406 240.390625 224.421875 240.0625 L 223.644531 239.570312 C 223.386719 239.40625 223.132812 239.226562 222.875 239.054688 L 221.34375 238.007812 L 219.847656 236.90625 C 217.863281 235.402344 215.941406 233.785156 214.132812 232.011719 C 212.328125 230.238281 210.644531 228.292969 209.140625 226.191406 " fill-opacity="1" fill-rule="nonzero"/><path fill="#000000" d="M 281.167969 260.089844 C 280.855469 260.089844 280.539062 260.066406 280.222656 260.023438 L 279.800781 259.960938 C 274.433594 258.875 270.046875 257.894531 265.957031 256.875 C 260.992188 255.621094 256.511719 254.355469 252.257812 252.996094 C 247.351562 251.429688 242.9375 249.804688 238.773438 248.027344 C 238.527344 247.925781 238.414062 247.644531 238.515625 247.398438 C 238.621094 247.15625 238.902344 247.042969 239.148438 247.144531 C 243.289062 248.910156 247.671875 250.523438 252.550781 252.082031 C 256.785156 253.4375 261.25 254.699219 266.191406 255.945312 C 270.261719 256.960938 274.640625 257.9375 279.960938 259.019531 L 280.355469 259.074219 C 281.863281 259.285156 283.359375 258.902344 284.574219 257.988281 C 285.785156 257.078125 286.574219 255.75 286.785156 254.246094 C 286.839844 253.863281 286.851562 253.429688 286.828125 253.019531 L 283.738281 212.015625 C 283.5625 209.644531 281.484375 207.859375 279.105469 208.035156 C 276.871094 208.203125 275.113281 210.09375 275.105469 212.339844 L 275.09375 225.070312 C 275.09375 225.332031 274.878906 225.546875 274.613281 225.546875 C 274.347656 225.546875 274.132812 225.332031 274.132812 225.066406 L 274.148438 212.335938 C 274.15625 209.59375 276.304688 207.285156 279.03125 207.078125 C 281.9375 206.859375 284.480469 209.042969 284.699219 211.945312 L 287.785156 252.953125 C 287.816406 253.4375 287.800781 253.929688 287.738281 254.382812 C 287.488281 256.136719 286.570312 257.6875 285.152344 258.753906 C 283.988281 259.628906 282.601562 260.089844 281.167969 260.089844 " fill-opacity="1" fill-rule="nonzero"/><path fill="#000000" d="M 275.070312 246.347656 L 274.511719 246.253906 C 272.320312 245.886719 270.386719 245.535156 268.589844 245.1875 C 266.765625 244.828125 264.96875 244.457031 263.253906 244.082031 C 262.996094 244.023438 262.832031 243.769531 262.890625 243.511719 C 262.945312 243.253906 263.203125 243.089844 263.460938 243.144531 C 265.167969 243.519531 266.957031 243.890625 268.773438 244.246094 C 270.40625 244.5625 272.160156 244.878906 274.113281 245.214844 L 274.128906 229.382812 C 274.128906 229.117188 274.34375 228.902344 274.609375 228.902344 C 274.871094 228.902344 275.089844 229.117188 275.089844 229.382812 L 275.070312 246.347656 " fill-opacity="1" fill-rule="nonzero"/><path fill="#000000" d="M 255.5625 242.226562 C 255.523438 242.226562 255.480469 242.222656 255.441406 242.210938 C 251.652344 241.21875 248.21875 240.1875 244.945312 239.066406 C 244.691406 238.984375 244.558594 238.710938 244.644531 238.460938 C 244.730469 238.210938 245.003906 238.074219 245.253906 238.160156 C 248.507812 239.273438 251.921875 240.296875 255.683594 241.28125 C 255.941406 241.351562 256.09375 241.613281 256.027344 241.867188 C 255.972656 242.082031 255.777344 242.226562 255.5625 242.226562 " fill-opacity="1" fill-rule="nonzero"/><path fill="#000000" d="M 245.097656 239.09375 C 245.046875 239.09375 244.996094 239.085938 244.945312 239.066406 C 243.410156 238.542969 241.902344 237.992188 240.457031 237.433594 C 240.210938 237.335938 240.085938 237.058594 240.1875 236.8125 C 240.28125 236.566406 240.558594 236.445312 240.804688 236.539062 C 242.238281 237.09375 243.734375 237.640625 245.253906 238.160156 C 245.503906 238.246094 245.640625 238.519531 245.554688 238.769531 C 245.484375 238.96875 245.296875 239.09375 245.097656 239.09375 " fill-opacity="1" fill-rule="nonzero"/><path fill="#99b9ff" d="M 161.3125 98.539062 C 165.050781 100.140625 171.734375 93.996094 174.917969 88.121094 C 176.371094 85.433594 178.394531 81.707031 177.15625 77.992188 C 175.683594 73.554688 171.101562 73.75 169.957031 69.738281 C 169.019531 66.449219 171.523438 64.28125 174.476562 57.957031 C 176.417969 53.789062 179.324219 47.558594 178.972656 42.066406 C 178.453125 33.957031 170.65625 24.75 161.117188 23.472656 C 146.269531 21.484375 133.769531 39.574219 136.273438 50.609375 C 136.824219 53.023438 139.277344 60.320312 145.492188 63.714844 C 148.027344 65.101562 151.191406 65.835938 151.3125 67.597656 C 151.429688 69.238281 148.75 69.480469 147.816406 71.625 C 146 75.792969 153.984375 79.785156 158.050781 90.566406 C 159.925781 95.527344 159.375 97.707031 161.3125 98.539062 " fill-opacity="1" fill-rule="nonzero"/><path fill="#ffffff" d="M 165.300781 96.390625 C 165.246094 96.390625 165.1875 96.378906 165.136719 96.363281 C 164.886719 96.269531 164.757812 95.996094 164.847656 95.746094 C 168.175781 86.660156 168.464844 78.933594 165.707031 72.785156 C 164.191406 69.398438 161.984375 66.941406 159.855469 64.5625 C 156.929688 61.296875 154.164062 58.210938 153.507812 53.160156 C 153.011719 49.332031 153.859375 45.316406 156.027344 41.226562 C 156.148438 40.992188 156.441406 40.902344 156.675781 41.027344 C 156.910156 41.152344 157 41.441406 156.875 41.675781 C 154.800781 45.585938 153.988281 49.410156 154.460938 53.035156 C 155.078125 57.796875 157.746094 60.773438 160.570312 63.921875 C 162.75 66.355469 165.003906 68.867188 166.585938 72.394531 C 169.445312 78.777344 169.164062 86.746094 165.75 96.074219 C 165.679688 96.269531 165.496094 96.390625 165.300781 96.390625 " fill-opacity="1" fill-rule="nonzero"/><path fill="#5479f7" d="M 160.707031 103.332031 C 164.765625 101.632812 165.664062 89.492188 160.136719 82.304688 C 157.566406 78.960938 154.128906 77.375 152.246094 76.53125 C 143.554688 72.632812 137.308594 75.859375 135.480469 72.691406 C 134.164062 70.414062 137.226562 68.453125 138.792969 61.011719 C 139.363281 58.300781 140.402344 53.066406 138.613281 47.25 C 137.746094 44.441406 136.019531 38.839844 131.347656 36.511719 C 124.09375 32.898438 116.199219 40.390625 112.167969 36.707031 C 110.128906 34.84375 111.65625 32.480469 110.246094 27.074219 C 108.835938 21.648438 105.125 15.675781 100.703125 13.238281 C 92.0625 8.472656 77.855469 15.625 70.496094 24.683594 C 60.964844 36.414062 59.402344 55.667969 68.847656 66.734375 C 77.4375 76.796875 92.867188 77.445312 99.605469 77.726562 C 103.210938 77.875 106.21875 77.652344 108.304688 77.414062 C 107.503906 78.394531 106.644531 79.777344 106.335938 81.535156 C 105.308594 87.417969 110.980469 94.429688 117.070312 96.539062 C 126.253906 99.71875 130.941406 89.871094 141.800781 91.695312 C 152.828125 93.550781 156.425781 105.125 160.707031 103.332031 " fill-opacity="1" fill-rule="nonzero"/><path fill="#caddff" d="M 160.429688 101.863281 C 160.210938 101.863281 160.015625 101.714844 159.960938 101.496094 C 158.757812 96.386719 156.53125 92.136719 153.347656 88.871094 C 149.484375 84.914062 145.65625 83.816406 139.855469 82.152344 C 137.3125 81.421875 134.433594 80.597656 131.058594 79.378906 C 124.488281 77.007812 113.488281 73.039062 105.414062 65.035156 C 98.960938 58.636719 94.699219 49.972656 92.75 39.277344 C 92.699219 39.019531 92.875 38.769531 93.132812 38.722656 C 93.394531 38.675781 93.644531 38.847656 93.691406 39.105469 C 95.609375 49.605469 99.78125 58.097656 106.089844 64.355469 C 114.015625 72.210938 124.886719 76.132812 131.382812 78.476562 C 134.726562 79.683594 137.59375 80.507812 140.121094 81.230469 C 145.851562 82.875 149.996094 84.0625 154.035156 88.203125 C 157.34375 91.59375 159.652344 95.992188 160.894531 101.277344 C 160.957031 101.53125 160.796875 101.792969 160.539062 101.851562 C 160.503906 101.859375 160.464844 101.863281 160.429688 101.863281 " fill-opacity="1" fill-rule="nonzero"/><path fill="#000000" d="M 226.957031 242.09375 C 226.882812 242.09375 226.804688 242.078125 226.734375 242.039062 C 216.378906 236.589844 210.585938 229.679688 207.546875 224.84375 C 204.246094 219.582031 203.410156 215.660156 203.378906 215.5 C 203.324219 215.238281 203.492188 214.984375 203.75 214.933594 C 204.011719 214.875 204.265625 215.042969 204.316406 215.304688 C 204.347656 215.460938 207.773438 230.976562 227.179688 241.191406 C 227.414062 241.3125 227.507812 241.605469 227.382812 241.839844 C 227.296875 242 227.128906 242.09375 226.957031 242.09375 " fill-opacity="1" fill-rule="nonzero"/><path fill="#ffffff" d="M 248.464844 95.519531 C 233.765625 109.660156 210.371094 109.222656 196.210938 94.542969 C 182.054688 79.863281 182.492188 56.5 197.191406 42.363281 C 211.890625 28.222656 235.285156 28.660156 249.445312 43.339844 C 263.601562 58.019531 263.164062 81.382812 248.464844 95.519531 Z M 254.460938 38.515625 C 237.632812 21.070312 209.828125 20.550781 192.359375 37.351562 C 174.890625 54.15625 174.371094 81.921875 191.199219 99.367188 C 208.023438 116.8125 235.824219 117.332031 253.292969 100.53125 C 270.765625 83.726562 271.285156 55.960938 254.460938 38.515625 " fill-opacity="1" fill-rule="nonzero"/><path fill="#000000" d="M 222.824219 32.53125 C 213.710938 32.53125 204.589844 35.910156 197.523438 42.707031 C 183.039062 56.640625 182.605469 79.742188 196.558594 94.210938 C 203.316406 101.21875 212.402344 105.179688 222.144531 105.359375 C 231.871094 105.539062 241.113281 101.925781 248.132812 95.175781 C 255.148438 88.425781 259.113281 79.351562 259.296875 69.625 C 259.480469 59.894531 255.855469 50.679688 249.097656 43.671875 C 241.949219 36.261719 232.390625 32.53125 222.824219 32.53125 Z M 222.847656 106.324219 C 222.605469 106.324219 222.367188 106.324219 222.128906 106.316406 C 212.128906 106.132812 202.804688 102.066406 195.867188 94.875 C 181.546875 80.027344 181.992188 56.316406 196.859375 42.015625 C 211.722656 27.714844 235.46875 28.160156 249.789062 43.003906 C 256.726562 50.195312 260.445312 59.65625 260.253906 69.640625 C 260.070312 79.625 256 88.9375 248.796875 95.867188 L 248.464844 95.519531 L 248.796875 95.867188 C 241.769531 102.625 232.578125 106.324219 222.847656 106.324219 Z M 222.820312 25.582031 C 211.96875 25.582031 201.109375 29.605469 192.695312 37.695312 C 184.335938 45.738281 179.613281 56.542969 179.398438 68.128906 C 179.179688 79.710938 183.492188 90.6875 191.542969 99.035156 C 200.054688 107.859375 211.4375 112.300781 222.835938 112.300781 C 233.6875 112.300781 244.546875 108.277344 252.960938 100.183594 C 261.320312 92.144531 266.042969 81.335938 266.257812 69.753906 C 266.476562 58.167969 262.164062 47.191406 254.113281 38.847656 C 245.601562 30.023438 234.21875 25.582031 222.820312 25.582031 Z M 222.835938 113.257812 C 211.1875 113.257812 199.550781 108.71875 190.851562 99.699219 C 182.625 91.167969 178.214844 79.949219 178.4375 68.109375 C 178.660156 56.269531 183.484375 45.222656 192.027344 37.007812 C 209.660156 20.046875 237.824219 20.574219 254.804688 38.179688 C 263.03125 46.710938 267.441406 57.929688 267.21875 69.773438 C 266.996094 81.613281 262.167969 92.65625 253.628906 100.875 C 245.03125 109.144531 233.925781 113.257812 222.835938 113.257812 " fill-opacity="1" fill-rule="nonzero"/><path fill="#ffffff" d="M 299.15625 148.152344 C 300.996094 146.382812 301.050781 143.460938 299.277344 141.621094 L 258.207031 99.039062 L 251.546875 105.445312 L 292.621094 148.027344 C 294.390625 149.867188 297.316406 149.921875 299.15625 148.152344 " fill-opacity="1" fill-rule="nonzero"/><path fill="#000000" d="M 252.222656 105.460938 L 292.960938 147.695312 C 293.730469 148.492188 294.761719 148.941406 295.871094 148.964844 C 296.980469 148.988281 298.023438 148.574219 298.820312 147.804688 C 299.617188 147.039062 300.070312 146.007812 300.089844 144.90625 C 300.109375 143.800781 299.699219 142.753906 298.929688 141.957031 L 258.191406 99.71875 Z M 295.949219 149.921875 C 295.917969 149.921875 295.886719 149.921875 295.851562 149.921875 C 294.488281 149.894531 293.21875 149.34375 292.273438 148.363281 L 251.199219 105.777344 C 251.015625 105.585938 251.023438 105.285156 251.210938 105.101562 L 257.875 98.695312 C 257.964844 98.605469 258.09375 98.554688 258.214844 98.5625 C 258.339844 98.5625 258.464844 98.617188 258.550781 98.707031 L 299.621094 141.292969 C 300.570312 142.273438 301.074219 143.558594 301.050781 144.921875 C 301.023438 146.28125 300.46875 147.554688 299.488281 148.496094 C 298.527344 149.417969 297.277344 149.921875 295.949219 149.921875 " fill-opacity="1" fill-rule="nonzero"/><path fill="#000000" d="M 279.421875 124.742188 C 279.292969 124.742188 279.167969 124.691406 279.074219 124.59375 L 275.613281 121.003906 C 275.429688 120.8125 275.433594 120.507812 275.625 120.328125 C 275.816406 120.144531 276.121094 120.148438 276.304688 120.339844 L 279.765625 123.929688 C 279.949219 124.117188 279.945312 124.425781 279.753906 124.605469 C 279.660156 124.695312 279.542969 124.742188 279.421875 124.742188 " fill-opacity="1" fill-rule="nonzero"/><path fill="#000000" d="M 295.949219 147.683594 C 295.929688 147.683594 295.910156 147.683594 295.894531 147.683594 C 295.128906 147.671875 294.414062 147.359375 293.882812 146.808594 L 289.992188 142.777344 C 289.808594 142.585938 289.816406 142.285156 290.003906 142.101562 C 290.195312 141.914062 290.5 141.921875 290.683594 142.113281 L 294.578125 146.144531 C 295.304688 146.898438 296.511719 146.921875 297.265625 146.195312 C 298.023438 145.46875 298.046875 144.261719 297.316406 143.507812 L 283.652344 129.335938 C 283.46875 129.148438 283.472656 128.84375 283.664062 128.660156 C 283.855469 128.476562 284.160156 128.480469 284.339844 128.671875 L 298.011719 142.84375 C 299.105469 143.980469 299.070312 145.792969 297.933594 146.886719 C 297.398438 147.402344 296.691406 147.683594 295.949219 147.683594 " fill-opacity="1" fill-rule="nonzero"/><path fill="#ffffff" d="M 259.296875 115.226562 L 267.699219 107.144531 C 268.136719 106.722656 268.148438 106.027344 267.730469 105.59375 L 263.785156 101.503906 C 263.363281 101.066406 262.667969 101.054688 262.234375 101.472656 L 253.828125 109.558594 C 253.390625 109.976562 253.378906 110.671875 253.800781 111.105469 L 257.742188 115.195312 C 258.164062 115.632812 258.859375 115.644531 259.296875 115.226562 " fill-opacity="1" fill-rule="nonzero"/><path fill="#000000" d="M 262.960938 102.191406 C 262.453125 102.191406 261.976562 102.382812 261.613281 102.734375 L 255.117188 108.984375 C 254.742188 109.34375 254.53125 109.828125 254.519531 110.34375 C 254.511719 110.863281 254.703125 111.351562 255.066406 111.726562 L 257.171875 113.910156 C 257.535156 114.285156 258.015625 114.496094 258.535156 114.503906 C 259.050781 114.511719 259.542969 114.324219 259.917969 113.964844 L 266.414062 107.710938 C 266.789062 107.355469 267 106.871094 267.011719 106.351562 C 267.019531 105.835938 266.828125 105.34375 266.46875 104.972656 L 264.359375 102.785156 C 264 102.414062 263.515625 102.203125 262.996094 102.191406 C 262.984375 102.191406 262.972656 102.191406 262.960938 102.191406 Z M 258.570312 115.464844 C 258.554688 115.464844 258.535156 115.464844 258.515625 115.464844 C 257.742188 115.449219 257.019531 115.136719 256.480469 114.574219 L 254.371094 112.390625 C 253.835938 111.832031 253.546875 111.101562 253.5625 110.328125 C 253.578125 109.550781 253.890625 108.832031 254.449219 108.292969 L 260.949219 102.042969 C 261.507812 101.507812 262.230469 101.222656 263.015625 101.234375 C 263.789062 101.25 264.511719 101.5625 265.050781 102.121094 L 267.160156 104.308594 C 267.695312 104.863281 267.984375 105.597656 267.96875 106.371094 C 267.957031 107.144531 267.640625 107.867188 267.082031 108.402344 L 260.582031 114.652344 C 260.039062 115.175781 259.328125 115.464844 258.570312 115.464844 " fill-opacity="1" fill-rule="nonzero"/><path fill="#ffffff" d="M 266.101562 122.285156 L 274.507812 114.199219 C 274.945312 113.78125 274.957031 113.085938 274.535156 112.648438 L 270.59375 108.558594 C 270.171875 108.125 269.476562 108.109375 269.039062 108.53125 L 260.636719 116.613281 C 260.199219 117.035156 260.1875 117.730469 260.609375 118.164062 L 264.550781 122.253906 C 264.972656 122.691406 265.664062 122.703125 266.101562 122.285156 " fill-opacity="1" fill-rule="nonzero"/><path fill="#000000" d="M 269.769531 109.25 C 269.285156 109.25 268.796875 109.429688 268.421875 109.789062 L 261.925781 116.042969 C 261.550781 116.398438 261.339844 116.882812 261.328125 117.402344 C 261.316406 117.917969 261.511719 118.410156 261.871094 118.78125 L 263.980469 120.96875 C 264.339844 121.339844 264.824219 121.550781 265.339844 121.5625 C 265.863281 121.574219 266.351562 121.378906 266.722656 121.019531 L 273.222656 114.769531 C 273.597656 114.410156 273.808594 113.925781 273.816406 113.410156 C 273.828125 112.890625 273.632812 112.402344 273.273438 112.03125 L 271.167969 109.84375 C 270.785156 109.449219 270.277344 109.25 269.769531 109.25 Z M 265.378906 122.519531 C 265.363281 122.519531 265.34375 122.519531 265.324219 122.519531 C 264.550781 122.507812 263.828125 122.191406 263.289062 121.632812 L 261.179688 119.449219 C 260.644531 118.890625 260.355469 118.15625 260.367188 117.382812 C 260.382812 116.613281 260.699219 115.886719 261.257812 115.351562 L 267.757812 109.101562 C 268.90625 107.992188 270.75 108.027344 271.859375 109.175781 L 273.964844 111.363281 C 274.503906 111.921875 274.792969 112.652344 274.777344 113.429688 C 274.761719 114.199219 274.449219 114.925781 273.890625 115.460938 L 267.390625 121.710938 C 266.84375 122.234375 266.132812 122.519531 265.378906 122.519531 " fill-opacity="1" fill-rule="nonzero"/><path fill="#000000" d="M 183.421875 62.582031 C 183.394531 62.582031 183.367188 62.578125 183.339844 62.574219 C 183.078125 62.527344 182.902344 62.28125 182.949219 62.019531 C 183.632812 58.070312 184.890625 54.265625 186.695312 50.703125 C 186.816406 50.46875 187.105469 50.375 187.339844 50.492188 C 187.578125 50.613281 187.671875 50.898438 187.550781 51.136719 C 185.792969 54.613281 184.5625 58.328125 183.894531 62.183594 C 183.855469 62.417969 183.652344 62.582031 183.421875 62.582031 " fill-opacity="1" fill-rule="nonzero"/><path fill="#000000" d="M 229.730469 108.765625 C 229.5 108.765625 229.296875 108.601562 229.257812 108.367188 C 229.210938 108.109375 229.386719 107.859375 229.648438 107.8125 C 237.417969 106.460938 244.535156 102.847656 250.242188 97.359375 C 257.84375 90.050781 262.136719 80.21875 262.335938 69.679688 C 262.535156 59.140625 258.609375 49.15625 251.289062 41.566406 C 243.964844 33.972656 234.121094 29.683594 223.570312 29.488281 C 213.011719 29.285156 203.015625 33.207031 195.414062 40.519531 C 195.226562 40.703125 194.921875 40.699219 194.738281 40.507812 C 194.550781 40.316406 194.558594 40.011719 194.75 39.828125 C 202.535156 32.339844 212.78125 28.320312 223.585938 28.53125 C 234.394531 28.730469 244.480469 33.125 251.980469 40.902344 C 259.480469 48.679688 263.496094 58.902344 263.296875 69.699219 C 263.09375 80.492188 258.691406 90.5625 250.90625 98.050781 C 245.066406 103.671875 237.769531 107.371094 229.8125 108.757812 C 229.78125 108.761719 229.757812 108.765625 229.730469 108.765625 " fill-opacity="1" fill-rule="nonzero"/><path fill="#5479f7" d="M 196.925781 69.335938 L 278.15625 69.335938 C 281.148438 69.335938 283.570312 71.757812 283.570312 74.746094 C 283.570312 77.730469 281.148438 80.15625 278.15625 80.15625 L 196.925781 80.15625 C 193.933594 80.15625 191.507812 77.730469 191.507812 74.746094 C 191.507812 71.757812 193.933594 69.335938 196.925781 69.335938 " fill-opacity="1" fill-rule="nonzero"/><path fill="#99b9ff" d="M 250.679688 52.109375 L 295.542969 52.109375 C 298.320312 52.109375 300.574219 54.359375 300.574219 57.128906 C 300.574219 59.902344 298.320312 62.152344 295.542969 62.152344 L 250.679688 62.152344 C 247.902344 62.152344 245.648438 59.902344 245.648438 57.128906 C 245.648438 54.359375 247.902344 52.109375 250.679688 52.109375 " fill-opacity="1" fill-rule="nonzero"/><path fill="#5479f7" d="M 230.242188 57.132812 C 230.242188 59.90625 232.496094 62.15625 235.269531 62.15625 C 238.046875 62.15625 240.300781 59.90625 240.300781 57.132812 C 240.300781 54.359375 238.046875 52.109375 235.269531 52.109375 C 232.496094 52.109375 230.242188 54.359375 230.242188 57.132812 " fill-opacity="1" fill-rule="nonzero"/><path fill="#000000" d="M 191.460938 15.46875 C 191.199219 15.46875 190.988281 15.257812 190.980469 14.996094 L 190.941406 13.1875 C 190.9375 12.917969 191.148438 12.703125 191.414062 12.695312 C 191.414062 12.695312 191.417969 12.695312 191.421875 12.695312 C 191.683594 12.695312 191.898438 12.902344 191.902344 13.164062 L 191.941406 14.976562 C 191.949219 15.242188 191.738281 15.460938 191.472656 15.464844 C 191.46875 15.46875 191.464844 15.46875 191.460938 15.46875 " fill-opacity="1" fill-rule="nonzero"/><path fill="#000000" d="M 191.597656 21.808594 C 191.335938 21.808594 191.125 21.601562 191.117188 21.339844 L 191.078125 19.527344 C 191.070312 19.265625 191.28125 19.042969 191.550781 19.039062 C 191.550781 19.039062 191.554688 19.039062 191.558594 19.039062 C 191.820312 19.039062 192.03125 19.246094 192.039062 19.507812 L 192.078125 21.320312 C 192.082031 21.585938 191.871094 21.800781 191.609375 21.808594 C 191.605469 21.808594 191.601562 21.808594 191.597656 21.808594 " fill-opacity="1" fill-rule="nonzero"/><path fill="#000000" d="M 187.484375 17.765625 C 187.222656 17.765625 187.007812 17.550781 187.007812 17.289062 C 187.003906 17.023438 187.21875 16.808594 187.484375 16.804688 L 189.273438 16.792969 C 189.539062 16.792969 189.753906 17.003906 189.753906 17.265625 C 189.757812 17.53125 189.542969 17.746094 189.277344 17.75 L 187.488281 17.765625 C 187.488281 17.765625 187.488281 17.765625 187.484375 17.765625 " fill-opacity="1" fill-rule="nonzero"/><path fill="#000000" d="M 193.746094 17.714844 C 193.480469 17.714844 193.265625 17.503906 193.265625 17.238281 C 193.261719 16.972656 193.476562 16.757812 193.738281 16.757812 L 195.527344 16.742188 C 195.78125 16.730469 196.007812 16.953125 196.011719 17.21875 C 196.015625 17.480469 195.800781 17.699219 195.535156 17.703125 L 193.746094 17.714844 " fill-opacity="1" fill-rule="nonzero"/><path fill="#000000" d="M 50.046875 145.234375 C 49.78125 145.234375 49.566406 145.015625 49.566406 144.753906 C 49.566406 120.433594 54.804688 103.058594 59.203125 92.769531 C 63.980469 81.589844 68.6875 76.257812 68.886719 76.035156 C 69.0625 75.835938 69.367188 75.820312 69.5625 75.996094 C 69.761719 76.171875 69.777344 76.476562 69.601562 76.671875 C 69.554688 76.726562 64.777344 82.144531 60.0625 93.195312 C 55.714844 103.398438 50.527344 120.625 50.527344 144.753906 C 50.527344 145.015625 50.3125 145.234375 50.046875 145.234375 " fill-opacity="1" fill-rule="nonzero"/><path fill="#000000" d="M 61.546875 115.914062 C 61.519531 115.914062 61.496094 115.910156 61.46875 115.90625 C 61.207031 115.863281 61.027344 115.621094 61.070312 115.359375 C 64.820312 91.53125 75.804688 78.109375 75.914062 77.976562 C 76.082031 77.773438 76.386719 77.746094 76.589844 77.914062 C 76.792969 78.082031 76.820312 78.386719 76.652344 78.589844 C 76.542969 78.71875 65.722656 91.957031 62.019531 115.507812 C 61.980469 115.746094 61.777344 115.914062 61.546875 115.914062 " fill-opacity="1" fill-rule="nonzero"/><path fill="#000000" d="M 292.726562 162.820312 C 290.789062 162.820312 289.210938 164.394531 289.210938 166.328125 C 289.210938 168.265625 290.789062 169.839844 292.726562 169.839844 C 294.664062 169.839844 296.242188 168.265625 296.242188 166.328125 C 296.242188 164.394531 294.664062 162.820312 292.726562 162.820312 Z M 292.726562 170.796875 C 290.257812 170.796875 288.253906 168.792969 288.253906 166.328125 C 288.253906 163.863281 290.257812 161.859375 292.726562 161.859375 C 295.195312 161.859375 297.203125 163.863281 297.203125 166.328125 C 297.203125 168.792969 295.195312 170.796875 292.726562 170.796875 " fill-opacity="1" fill-rule="nonzero"/><path fill="#ffffff" d="M 209.304688 253.835938 C 209.304688 255.339844 208.085938 256.5625 206.578125 256.5625 C 205.070312 256.5625 203.847656 255.339844 203.847656 253.835938 C 203.847656 252.328125 205.070312 251.109375 206.578125 251.109375 C 208.085938 251.109375 209.304688 252.328125 209.304688 253.835938 " fill-opacity="1" fill-rule="nonzero"/><g clip-path="url(#c20e739473)"><g clip-path="url(#0eee7f7c22)"><path fill="#000000" d="M 139.535156 102.273438 C 132.652344 94.835938 122.417969 93.269531 114.726562 95.367188 C 104.992188 98.023438 100.082031 106.433594 96.621094 112.363281 C 90.5 122.847656 93.457031 126.644531 88.644531 132.738281 C 80.128906 143.523438 66.773438 136.78125 56.390625 144.664062 C 40.554688 156.683594 38.402344 197.476562 59.832031 213.011719 C 74.125 223.371094 93.5625 217.378906 98.851562 215.75 C 114.90625 210.800781 134.878906 196.992188 137.742188 178.277344 C 140.113281 162.800781 129.902344 149.929688 138.449219 136.953125 C 140.621094 133.652344 142.425781 132.753906 144.042969 128.625 C 146.667969 121.917969 147.257812 110.621094 139.535156 102.273438 " fill-opacity="1" fill-rule="nonzero"/></g></g><g clip-path="url(#f34e475550)"><g clip-path="url(#1908db3ee0)"><path fill="#5479f7" d="M 82.761719 158.46875 C 82.761719 158.46875 107.992188 146.113281 137.058594 159.765625 L 145.816406 270.058594 L 92.160156 270.058594 C 92.160156 270.058594 79.417969 254.253906 80.71875 243.894531 C 82.019531 233.535156 82.761719 158.46875 82.761719 158.46875 " fill-opacity="1" fill-rule="nonzero"/></g></g><g clip-path="url(#05f8c0f094)"><g clip-path="url(#1bf98659f5)"><path fill="#ffffff" d="M 125.140625 140.289062 C 126.78125 141.109375 128.769531 140.792969 130.066406 139.496094 C 131.554688 138.003906 132.757812 136.421875 133.730469 134.820312 L 135.609375 134.859375 C 136.207031 134.871094 136.710938 134.402344 136.734375 133.804688 L 137.058594 126.484375 C 141.375 119.453125 137.976562 115.683594 137.976562 115.683594 C 137.65625 112.078125 128.539062 109.925781 123.433594 116.878906 C 119.96875 121.59375 114.984375 116.878906 114.984375 116.878906 C 114.984375 116.878906 112.375 109.851562 109.320312 114.171875 C 106.269531 118.496094 112.320312 126.09375 112.320312 126.09375 L 107.800781 145.335938 C 106.757812 149.773438 103.578125 153.40625 99.316406 155.039062 C 99.316406 155.039062 97.894531 160.992188 117.109375 160.582031 C 131.777344 160.269531 127.390625 157.527344 127.390625 157.527344 C 122.347656 155.308594 119.589844 149.832031 120.804688 144.460938 L 122.097656 138.765625 L 125.140625 140.289062 " fill-opacity="1" fill-rule="nonzero"/></g></g><g clip-path="url(#1b4f409fb2)"><g clip-path="url(#b6f1ef8401)"><path fill="#000000" d="M 123.632812 140.675781 C 123.5625 140.675781 123.492188 140.660156 123.425781 140.628906 C 117.816406 137.90625 117.28125 131.308594 117.257812 131.03125 C 117.242188 130.765625 117.4375 130.535156 117.703125 130.515625 C 117.96875 130.496094 118.199219 130.695312 118.214844 130.960938 C 118.222656 131.023438 118.742188 137.289062 123.84375 139.765625 C 124.082031 139.882812 124.183594 140.167969 124.066406 140.40625 C 123.984375 140.578125 123.8125 140.675781 123.632812 140.675781 " fill-opacity="1" fill-rule="nonzero"/></g></g><g clip-path="url(#3636277057)"><g clip-path="url(#f4b63f115b)"><path fill="#ffffff" d="M 178.902344 226.859375 C 178.902344 226.859375 142.121094 162.835938 137.058594 159.765625 C 136.980469 159.714844 136.902344 159.675781 136.828125 159.644531 L 124.515625 153.339844 L 139.25 270.058594 L 153.851562 270.058594 L 149.078125 209.132812 L 164.523438 234.882812 L 178.902344 226.859375 " fill-opacity="1" fill-rule="nonzero"/></g></g><g clip-path="url(#720135cbc2)"><g clip-path="url(#2647c66fb4)"><path fill="#000000" d="M 139.671875 269.578125 L 153.332031 269.578125 L 148.597656 209.167969 C 148.582031 208.945312 148.722656 208.742188 148.933594 208.675781 C 149.144531 208.605469 149.375 208.695312 149.488281 208.886719 L 164.695312 234.234375 L 178.242188 226.679688 C 165.46875 204.457031 140.707031 162.539062 136.808594 160.175781 C 136.753906 160.136719 136.695312 160.109375 136.640625 160.085938 C 136.628906 160.082031 136.617188 160.078125 136.605469 160.070312 L 125.105469 154.183594 Z M 153.851562 270.535156 L 139.25 270.535156 C 139.007812 270.535156 138.804688 270.355469 138.773438 270.117188 L 124.039062 153.402344 C 124.015625 153.226562 124.09375 153.050781 124.238281 152.949219 C 124.386719 152.847656 124.574219 152.835938 124.734375 152.914062 L 137.027344 159.210938 C 137.121094 159.25 137.214844 159.296875 137.308594 159.355469 C 142.417969 162.457031 177.8125 224.003906 179.316406 226.621094 C 179.382812 226.730469 179.398438 226.863281 179.363281 226.988281 C 179.328125 227.113281 179.246094 227.214844 179.132812 227.277344 L 164.757812 235.296875 C 164.53125 235.425781 164.246094 235.347656 164.113281 235.128906 L 149.714844 211.128906 L 154.328125 270.019531 C 154.339844 270.152344 154.292969 270.285156 154.203125 270.382812 C 154.113281 270.480469 153.984375 270.535156 153.851562 270.535156 " fill-opacity="1" fill-rule="nonzero"/></g></g><g clip-path="url(#30f8e6f1b7)"><g clip-path="url(#79fe9fe400)"><path fill="#000000" d="M 181.40625 233.933594 L 128.832031 236.054688 C 127.054688 236.054688 125.960938 234.105469 126.894531 232.59375 L 153.414062 189.476562 C 154.066406 188.417969 155.21875 187.769531 156.464844 187.769531 L 209.609375 188.984375 L 181.40625 233.933594 " fill-opacity="1" fill-rule="nonzero"/></g></g><g clip-path="url(#4aa91b531f)"><g clip-path="url(#54b386e06f)"><path fill="#000000" d="M 156.453125 188.25 C 155.394531 188.25 154.382812 188.816406 153.824219 189.726562 L 127.300781 232.84375 C 126.957031 233.40625 126.945312 234.082031 127.265625 234.65625 C 127.585938 235.230469 128.171875 235.574219 128.832031 235.574219 L 181.132812 233.464844 L 208.753906 189.441406 Z M 128.851562 236.535156 C 127.820312 236.535156 126.921875 236.007812 126.425781 235.125 C 125.933594 234.242188 125.953125 233.203125 126.484375 232.34375 L 153.003906 189.222656 C 153.738281 188.03125 155.0625 187.289062 156.464844 187.289062 L 210.460938 188.523438 L 181.675781 234.402344 L 181.425781 234.410156 L 128.851562 236.535156 " fill-opacity="1" fill-rule="nonzero"/></g></g><g clip-path="url(#f96cc2491a)"><g clip-path="url(#1e96fd56cc)"><path fill="#5479f7" d="M 185.191406 236.054688 L 128.441406 236.054688 L 158.140625 187.769531 L 214.886719 187.769531 L 185.191406 236.054688 " fill-opacity="1" fill-rule="nonzero"/></g></g><g clip-path="url(#66a4bd07fd)"><g clip-path="url(#b58abc9a93)"><path fill="#000000" d="M 129.300781 235.574219 L 184.921875 235.574219 L 214.027344 188.25 L 158.40625 188.25 Z M 185.191406 236.535156 L 128.441406 236.535156 C 128.269531 236.535156 128.109375 236.4375 128.023438 236.289062 C 127.9375 236.136719 127.941406 235.953125 128.03125 235.804688 L 157.730469 187.519531 C 157.816406 187.378906 157.972656 187.289062 158.140625 187.289062 L 214.886719 187.289062 C 215.058594 187.289062 215.21875 187.386719 215.304688 187.539062 C 215.390625 187.6875 215.386719 187.875 215.296875 188.019531 L 185.601562 236.304688 C 185.511719 236.445312 185.355469 236.535156 185.191406 236.535156 " fill-opacity="1" fill-rule="nonzero"/></g></g><g clip-path="url(#86ec14fde9)"><g clip-path="url(#a617aa18ba)"><path fill="#ffffff" d="M 186.496094 233.933594 C 186.496094 233.933594 185.429688 228.351562 186.496094 224.628906 C 187.5625 220.90625 194.171875 209.832031 196.0625 207.515625 C 197.953125 205.199219 199.554688 229.941406 186.496094 233.933594 " fill-opacity="1" fill-rule="nonzero"/></g></g><g clip-path="url(#4e0bd9b281)"><g clip-path="url(#66ef374045)"><path fill="#000000" d="M 196.296875 207.996094 C 194.199219 210.714844 187.945312 221.300781 186.957031 224.761719 C 186.125 227.671875 186.648438 231.828125 186.875 233.300781 C 192.414062 231.304688 194.859375 225.402344 195.941406 220.726562 C 197.347656 214.636719 196.84375 209.1875 196.296875 207.996094 Z M 186.496094 234.410156 C 186.410156 234.410156 186.324219 234.390625 186.246094 234.34375 C 186.128906 234.273438 186.050781 234.15625 186.023438 234.023438 C 185.980469 233.789062 184.949219 228.289062 186.03125 224.496094 C 187.101562 220.769531 193.695312 209.660156 195.691406 207.214844 C 196.042969 206.78125 196.441406 206.886719 196.554688 206.929688 C 197.941406 207.445312 197.808594 213.136719 197.789062 213.785156 C 197.539062 222.175781 194.476562 231.992188 186.636719 234.390625 C 186.589844 234.40625 186.542969 234.410156 186.496094 234.410156 " fill-opacity="1" fill-rule="nonzero"/></g></g><g clip-path="url(#615c4b50d6)"><g clip-path="url(#baa5fabe11)"><path fill="#ffffff" d="M 120.867188 204.375 L 108.601562 211.675781 C 109.269531 213.847656 110.125 215.972656 111.015625 218.039062 C 111.640625 219.484375 112.285156 221.015625 113.046875 222.472656 C 117.269531 217.34375 119.875 213.492188 119.875 213.492188 C 119.875 213.492188 123.660156 215.765625 126.441406 213.492188 C 129.226562 211.21875 133.148438 210.972656 135.929688 211.882812 C 138.710938 212.796875 140.429688 210.917969 140.429688 210.917969 L 120.867188 204.375 " fill-opacity="1" fill-rule="nonzero"/></g></g><g clip-path="url(#f0a0668f8d)"><g clip-path="url(#5a0e40fc18)"><path fill="#000000" d="M 109.171875 211.894531 C 109.878906 214.105469 110.757812 216.226562 111.457031 217.847656 L 111.609375 218.203125 C 112.089844 219.324219 112.585938 220.476562 113.144531 221.601562 C 117.03125 216.828125 119.453125 213.261719 119.476562 213.222656 C 119.621094 213.011719 119.90625 212.949219 120.125 213.082031 C 120.15625 213.101562 123.65625 215.148438 126.140625 213.121094 C 129.128906 210.679688 133.285156 210.511719 136.078125 211.425781 C 137.601562 211.925781 138.765625 211.492188 139.433594 211.089844 L 120.921875 204.898438 Z M 113.046875 222.953125 C 113.03125 222.953125 113.015625 222.953125 113 222.949219 C 112.839844 222.933594 112.699219 222.839844 112.625 222.695312 C 111.914062 221.339844 111.308594 219.9375 110.726562 218.578125 L 110.574219 218.226562 C 109.828125 216.496094 108.878906 214.203125 108.140625 211.820312 C 108.078125 211.605469 108.164062 211.378906 108.355469 211.265625 L 120.621094 203.960938 C 120.742188 203.890625 120.886719 203.875 121.019531 203.921875 L 140.582031 210.460938 C 140.734375 210.511719 140.855469 210.636719 140.894531 210.796875 C 140.933594 210.953125 140.894531 211.117188 140.785156 211.238281 C 140.707031 211.324219 138.820312 213.335938 135.777344 212.339844 C 133.234375 211.503906 129.457031 211.652344 126.746094 213.863281 C 124.253906 215.898438 121.128906 214.660156 120.027344 214.117188 C 119.28125 215.191406 116.878906 218.574219 113.417969 222.777344 C 113.328125 222.886719 113.191406 222.953125 113.046875 222.953125 " fill-opacity="1" fill-rule="nonzero"/></g></g><g clip-path="url(#35311db37f)"><g clip-path="url(#442da670fb)"><path fill="#ffffff" d="M 116.0625 221.128906 C 115.277344 219.640625 111.296875 211.296875 110.625 209.132812 L 106.089844 210.796875 L 101.597656 151.917969 L 88.371094 156.546875 L 88.382812 156.355469 L 82.34375 158.65625 C 77.628906 160.449219 74.195312 164.570312 73.289062 169.527344 C 69.679688 189.335938 61.8125 239.554688 73.304688 247.101562 L 71.484375 270.058594 L 109.558594 270.058594 L 107.144531 230.648438 C 109.285156 228.371094 114.367188 223.179688 116.0625 221.128906 " fill-opacity="1" fill-rule="nonzero"/></g></g><g clip-path="url(#59b19bd800)"><g clip-path="url(#b29552435e)"><path fill="#000000" d="M 72.003906 269.578125 L 109.046875 269.578125 L 106.664062 230.679688 C 106.65625 230.546875 106.703125 230.417969 106.792969 230.324219 C 107.414062 229.660156 108.285156 228.753906 109.25 227.746094 C 111.464844 225.433594 114.195312 222.585938 115.492188 221.0625 C 114.523438 219.160156 111.28125 212.34375 110.328125 209.75 L 106.257812 211.246094 C 106.117188 211.296875 105.957031 211.28125 105.832031 211.199219 C 105.707031 211.117188 105.625 210.980469 105.613281 210.832031 L 101.167969 152.578125 L 88.53125 157 C 88.398438 157.042969 88.253906 157.03125 88.132812 156.964844 L 82.511719 159.105469 C 77.984375 160.832031 74.628906 164.855469 73.761719 169.613281 C 72.078125 178.84375 69.109375 196.746094 68.113281 212.941406 C 66.945312 231.917969 68.832031 243.59375 73.566406 246.703125 C 73.714844 246.796875 73.796875 246.96875 73.78125 247.140625 Z M 109.558594 270.535156 L 71.484375 270.535156 C 71.347656 270.535156 71.222656 270.480469 71.132812 270.382812 C 71.039062 270.285156 70.996094 270.152344 71.003906 270.019531 L 72.804688 247.339844 C 67.867188 243.78125 65.96875 232.191406 67.152344 212.882812 C 68.152344 196.640625 71.132812 178.691406 72.816406 169.441406 C 73.746094 164.355469 77.328125 160.050781 82.171875 158.207031 L 88.210938 155.90625 C 88.351562 155.855469 88.507812 155.871094 88.632812 155.945312 L 101.441406 151.464844 C 101.582031 151.417969 101.738281 151.4375 101.863281 151.519531 C 101.988281 151.597656 102.066406 151.734375 102.078125 151.882812 L 106.523438 210.128906 L 110.457031 208.679688 C 110.582031 208.636719 110.71875 208.644531 110.835938 208.703125 C 110.953125 208.757812 111.042969 208.863281 111.082031 208.988281 C 111.757812 211.160156 115.730469 219.46875 116.488281 220.902344 C 116.578125 221.074219 116.558594 221.285156 116.433594 221.433594 C 115.21875 222.902344 112.292969 225.957031 109.941406 228.410156 C 109.050781 229.335938 108.242188 230.183594 107.636719 230.828125 L 110.035156 270.027344 C 110.046875 270.160156 110 270.289062 109.90625 270.386719 C 109.816406 270.480469 109.691406 270.535156 109.558594 270.535156 " fill-opacity="1" fill-rule="nonzero"/></g></g><g clip-path="url(#0aa779fb07)"><g clip-path="url(#56648d89e5)"><path fill="#000000" d="M 84.601562 218.863281 C 84.335938 218.863281 84.121094 218.648438 84.121094 218.382812 L 84.121094 203.527344 C 84.121094 203.261719 84.335938 203.050781 84.601562 203.050781 C 84.867188 203.050781 85.082031 203.261719 85.082031 203.527344 L 85.082031 218.382812 C 85.082031 218.648438 84.867188 218.863281 84.601562 218.863281 " fill-opacity="1" fill-rule="nonzero"/></g></g><g clip-path="url(#f0b5e14937)"><g clip-path="url(#65d2cd922e)"><path fill="#000000" d="M 77.882812 221.128906 C 77.683594 221.128906 77.496094 221 77.425781 220.800781 C 77.34375 220.550781 77.476562 220.277344 77.730469 220.195312 L 99.164062 212.96875 C 99.417969 212.886719 99.6875 213.019531 99.773438 213.269531 C 99.859375 213.519531 99.722656 213.792969 99.472656 213.878906 L 78.035156 221.101562 C 77.984375 221.121094 77.933594 221.128906 77.882812 221.128906 " fill-opacity="1" fill-rule="nonzero"/></g></g><g clip-path="url(#48c9ce0031)"><g clip-path="url(#3732e3d067)"><path fill="#000000" d="M 78.558594 248.894531 C 77.359375 248.894531 76.6875 248.726562 76.582031 248.695312 C 76.328125 248.625 76.175781 248.359375 76.246094 248.105469 C 76.316406 247.851562 76.578125 247.703125 76.835938 247.769531 C 76.9375 247.796875 87.261719 250.300781 103.769531 232.78125 C 103.949219 232.589844 104.253906 232.578125 104.449219 232.761719 C 104.640625 232.941406 104.648438 233.246094 104.46875 233.4375 C 91.550781 247.148438 82.386719 248.894531 78.558594 248.894531 " fill-opacity="1" fill-rule="nonzero"/></g></g><g clip-path="url(#67a1a971ff)"><g clip-path="url(#6123f25292)"><path fill="#000000" d="M 97.398438 211.4375 C 97.195312 211.4375 97.007812 211.304688 96.941406 211.101562 L 91.21875 193.152344 C 91.171875 193 91.203125 192.832031 91.304688 192.707031 L 98.589844 183.628906 L 90.179688 178.90625 C 89.984375 178.800781 89.890625 178.574219 89.953125 178.359375 L 94.511719 162.210938 C 94.582031 161.953125 94.847656 161.804688 95.105469 161.878906 C 95.359375 161.949219 95.507812 162.214844 95.433594 162.46875 L 90.976562 178.257812 L 99.554688 183.066406 C 99.675781 183.136719 99.761719 183.257812 99.789062 183.394531 C 99.816406 183.53125 99.78125 183.675781 99.695312 183.785156 L 92.210938 193.105469 L 97.855469 210.8125 C 97.9375 211.0625 97.796875 211.332031 97.546875 211.414062 C 97.496094 211.429688 97.449219 211.4375 97.398438 211.4375 " fill-opacity="1" fill-rule="nonzero"/></g></g><g clip-path="url(#2f39d7adba)"><g clip-path="url(#e45dfb2bad)"><path fill="#000000" d="M 139.25 208.898438 C 139.238281 208.898438 139.230469 208.898438 139.222656 208.898438 C 138.957031 208.882812 138.753906 208.65625 138.769531 208.394531 L 139.9375 187.976562 L 134.195312 182.898438 C 134.011719 182.734375 133.980469 182.460938 134.125 182.261719 L 138.679688 175.960938 L 132.179688 164.582031 C 132.046875 164.351562 132.125 164.058594 132.355469 163.925781 C 132.585938 163.796875 132.878906 163.875 133.011719 164.105469 L 139.664062 175.753906 C 139.757812 175.917969 139.75 176.121094 139.636719 176.269531 L 135.15625 182.46875 L 140.746094 187.410156 C 140.859375 187.507812 140.917969 187.652344 140.910156 187.796875 L 139.726562 208.449219 C 139.714844 208.703125 139.5 208.898438 139.25 208.898438 " fill-opacity="1" fill-rule="nonzero"/></g></g></svg>