<svg xmlns="http://www.w3.org/2000/svg" xmlns:xlink="http://www.w3.org/1999/xlink" width="461" zoomAndPan="magnify" viewBox="0 0 345.75 273.749983" height="365" preserveAspectRatio="xMidYMid meet" version="1.0"><defs><clipPath id="a0d3629b16"><path d="M 92 127.28125 L 125.4375 127.28125 L 125.4375 164.21875 L 92 164.21875 Z M 92 127.28125 " clip-rule="nonzero"/></clipPath><clipPath id="0356deed2f"><path d="M 62.140625 119.164062 C 75.488281 94.78125 104.253906 61.675781 175.359375 103.066406 C 232.597656 136.386719 262.554688 225.261719 259.128906 238.261719 C 252.808594 262.253906 166.222656 262.792969 154.332031 262.8125 C 126.988281 262.859375 107.441406 259.613281 88.9375 248.683594 C 83.308594 245.359375 76.132812 241.042969 69.066406 233.003906 C 47.453125 208.429688 42.65625 167.0625 60.113281 143.554688 C 67.414062 133.726562 57.523438 127.59375 62.140625 119.164062 Z M 62.140625 119.164062 " clip-rule="nonzero"/></clipPath><clipPath id="8fc532ad82"><path d="M 101.289062 140.875 L 129.828125 140.875 L 129.828125 188.25 L 101.289062 188.25 Z M 101.289062 140.875 " clip-rule="nonzero"/></clipPath><clipPath id="7e6106ec31"><path d="M 62.140625 119.164062 C 75.488281 94.78125 104.253906 61.675781 175.359375 103.066406 C 232.597656 136.386719 262.554688 225.261719 259.128906 238.261719 C 252.808594 262.253906 166.222656 262.792969 154.332031 262.8125 C 126.988281 262.859375 107.441406 259.613281 88.9375 248.683594 C 83.308594 245.359375 76.132812 241.042969 69.066406 233.003906 C 47.453125 208.429688 42.65625 167.0625 60.113281 143.554688 C 67.414062 133.726562 57.523438 127.59375 62.140625 119.164062 Z M 62.140625 119.164062 " clip-rule="nonzero"/></clipPath><clipPath id="92a3de5fba"><path d="M 101.015625 140.597656 L 130.238281 140.597656 L 130.238281 188.660156 L 101.015625 188.660156 Z M 101.015625 140.597656 " clip-rule="nonzero"/></clipPath><clipPath id="754a6961f5"><path d="M 62.140625 119.164062 C 75.488281 94.78125 104.253906 61.675781 175.359375 103.066406 C 232.597656 136.386719 262.554688 225.261719 259.128906 238.261719 C 252.808594 262.253906 166.222656 262.792969 154.332031 262.8125 C 126.988281 262.859375 107.441406 259.613281 88.9375 248.683594 C 83.308594 245.359375 76.132812 241.042969 69.066406 233.003906 C 47.453125 208.429688 42.65625 167.0625 60.113281 143.554688 C 67.414062 133.726562 57.523438 127.59375 62.140625 119.164062 Z M 62.140625 119.164062 " clip-rule="nonzero"/></clipPath><clipPath id="0a7006dc0d"><path d="M 64.382812 113.820312 L 105.269531 113.820312 L 105.269531 156.390625 L 64.382812 156.390625 Z M 64.382812 113.820312 " clip-rule="nonzero"/></clipPath><clipPath id="b6eb30bb7a"><path d="M 62.140625 119.164062 C 75.488281 94.78125 104.253906 61.675781 175.359375 103.066406 C 232.597656 136.386719 262.554688 225.261719 259.128906 238.261719 C 252.808594 262.253906 166.222656 262.792969 154.332031 262.8125 C 126.988281 262.859375 107.441406 259.613281 88.9375 248.683594 C 83.308594 245.359375 76.132812 241.042969 69.066406 233.003906 C 47.453125 208.429688 42.65625 167.0625 60.113281 143.554688 C 67.414062 133.726562 57.523438 127.59375 62.140625 119.164062 Z M 62.140625 119.164062 " clip-rule="nonzero"/></clipPath><clipPath id="7a0cbfddeb"><path d="M 65.890625 143.070312 L 70.691406 143.070312 L 70.691406 147.878906 L 65.890625 147.878906 Z M 65.890625 143.070312 " clip-rule="nonzero"/></clipPath><clipPath id="ee0c8e6cd2"><path d="M 62.140625 119.164062 C 75.488281 94.78125 104.253906 61.675781 175.359375 103.066406 C 232.597656 136.386719 262.554688 225.261719 259.128906 238.261719 C 252.808594 262.253906 166.222656 262.792969 154.332031 262.8125 C 126.988281 262.859375 107.441406 259.613281 88.9375 248.683594 C 83.308594 245.359375 76.132812 241.042969 69.066406 233.003906 C 47.453125 208.429688 42.65625 167.0625 60.113281 143.554688 C 67.414062 133.726562 57.523438 127.59375 62.140625 119.164062 Z M 62.140625 119.164062 " clip-rule="nonzero"/></clipPath><clipPath id="c0726f581e"><path d="M 69.046875 145.542969 L 76.179688 145.542969 L 76.179688 152.683594 L 69.046875 152.683594 Z M 69.046875 145.542969 " clip-rule="nonzero"/></clipPath><clipPath id="554a0660c0"><path d="M 62.140625 119.164062 C 75.488281 94.78125 104.253906 61.675781 175.359375 103.066406 C 232.597656 136.386719 262.554688 225.261719 259.128906 238.261719 C 252.808594 262.253906 166.222656 262.792969 154.332031 262.8125 C 126.988281 262.859375 107.441406 259.613281 88.9375 248.683594 C 83.308594 245.359375 76.132812 241.042969 69.066406 233.003906 C 47.453125 208.429688 42.65625 167.0625 60.113281 143.554688 C 67.414062 133.726562 57.523438 127.59375 62.140625 119.164062 Z M 62.140625 119.164062 " clip-rule="nonzero"/></clipPath><clipPath id="d83bc6e2c4"><path d="M 73.300781 147.601562 L 81.945312 147.601562 L 81.945312 156.253906 L 73.300781 156.253906 Z M 73.300781 147.601562 " clip-rule="nonzero"/></clipPath><clipPath id="4fdf238fa6"><path d="M 62.140625 119.164062 C 75.488281 94.78125 104.253906 61.675781 175.359375 103.066406 C 232.597656 136.386719 262.554688 225.261719 259.128906 238.261719 C 252.808594 262.253906 166.222656 262.792969 154.332031 262.8125 C 126.988281 262.859375 107.441406 259.613281 88.9375 248.683594 C 83.308594 245.359375 76.132812 241.042969 69.066406 233.003906 C 47.453125 208.429688 42.65625 167.0625 60.113281 143.554688 C 67.414062 133.726562 57.523438 127.59375 62.140625 119.164062 Z M 62.140625 119.164062 " clip-rule="nonzero"/></clipPath><clipPath id="739399e120"><path d="M 79.472656 148.152344 L 89.214844 148.152344 L 89.214844 157.902344 L 79.472656 157.902344 Z M 79.472656 148.152344 " clip-rule="nonzero"/></clipPath><clipPath id="f6b0e7b135"><path d="M 62.140625 119.164062 C 75.488281 94.78125 104.253906 61.675781 175.359375 103.066406 C 232.597656 136.386719 262.554688 225.261719 259.128906 238.261719 C 252.808594 262.253906 166.222656 262.792969 154.332031 262.8125 C 126.988281 262.859375 107.441406 259.613281 88.9375 248.683594 C 83.308594 245.359375 76.132812 241.042969 69.066406 233.003906 C 47.453125 208.429688 42.65625 167.0625 60.113281 143.554688 C 67.414062 133.726562 57.523438 127.59375 62.140625 119.164062 Z M 62.140625 119.164062 " clip-rule="nonzero"/></clipPath><clipPath id="958f25cb64"><path d="M 85.785156 146.367188 L 96.488281 146.367188 L 96.488281 157.078125 L 85.785156 157.078125 Z M 85.785156 146.367188 " clip-rule="nonzero"/></clipPath><clipPath id="9f329a4fe7"><path d="M 62.140625 119.164062 C 75.488281 94.78125 104.253906 61.675781 175.359375 103.066406 C 232.597656 136.386719 262.554688 225.261719 259.128906 238.261719 C 252.808594 262.253906 166.222656 262.792969 154.332031 262.8125 C 126.988281 262.859375 107.441406 259.613281 88.9375 248.683594 C 83.308594 245.359375 76.132812 241.042969 69.066406 233.003906 C 47.453125 208.429688 42.65625 167.0625 60.113281 143.554688 C 67.414062 133.726562 57.523438 127.59375 62.140625 119.164062 Z M 62.140625 119.164062 " clip-rule="nonzero"/></clipPath><clipPath id="3475e2d1b1"><path d="M 62.324219 133.183594 L 71.105469 133.183594 L 71.105469 141.972656 L 62.324219 141.972656 Z M 62.324219 133.183594 " clip-rule="nonzero"/></clipPath><clipPath id="95c55d130b"><path d="M 62.140625 119.164062 C 75.488281 94.78125 104.253906 61.675781 175.359375 103.066406 C 232.597656 136.386719 262.554688 225.261719 259.128906 238.261719 C 252.808594 262.253906 166.222656 262.792969 154.332031 262.8125 C 126.988281 262.859375 107.441406 259.613281 88.9375 248.683594 C 83.308594 245.359375 76.132812 241.042969 69.066406 233.003906 C 47.453125 208.429688 42.65625 167.0625 60.113281 143.554688 C 67.414062 133.726562 57.523438 127.59375 62.140625 119.164062 Z M 62.140625 119.164062 " clip-rule="nonzero"/></clipPath><clipPath id="55b8029dce"><path d="M 63.421875 127.417969 L 72.886719 127.417969 L 72.886719 136.890625 L 63.421875 136.890625 Z M 63.421875 127.417969 " clip-rule="nonzero"/></clipPath><clipPath id="8fa29c08e7"><path d="M 62.140625 119.164062 C 75.488281 94.78125 104.253906 61.675781 175.359375 103.066406 C 232.597656 136.386719 262.554688 225.261719 259.128906 238.261719 C 252.808594 262.253906 166.222656 262.792969 154.332031 262.8125 C 126.988281 262.859375 107.441406 259.613281 88.9375 248.683594 C 83.308594 245.359375 76.132812 241.042969 69.066406 233.003906 C 47.453125 208.429688 42.65625 167.0625 60.113281 143.554688 C 67.414062 133.726562 57.523438 127.59375 62.140625 119.164062 Z M 62.140625 119.164062 " clip-rule="nonzero"/></clipPath><clipPath id="cd2813d1c9"><path d="M 64.929688 139.5 L 70.417969 139.5 L 70.417969 144.992188 L 64.929688 144.992188 Z M 64.929688 139.5 " clip-rule="nonzero"/></clipPath><clipPath id="b01fffb434"><path d="M 62.140625 119.164062 C 75.488281 94.78125 104.253906 61.675781 175.359375 103.066406 C 232.597656 136.386719 262.554688 225.261719 259.128906 238.261719 C 252.808594 262.253906 166.222656 262.792969 154.332031 262.8125 C 126.988281 262.859375 107.441406 259.613281 88.9375 248.683594 C 83.308594 245.359375 76.132812 241.042969 69.066406 233.003906 C 47.453125 208.429688 42.65625 167.0625 60.113281 143.554688 C 67.414062 133.726562 57.523438 127.59375 62.140625 119.164062 Z M 62.140625 119.164062 " clip-rule="nonzero"/></clipPath><clipPath id="bf90df3f2c"><path d="M 98.683594 126.457031 L 106.089844 126.457031 L 106.089844 133.871094 L 98.683594 133.871094 Z M 98.683594 126.457031 " clip-rule="nonzero"/></clipPath><clipPath id="e3db9862e4"><path d="M 62.140625 119.164062 C 75.488281 94.78125 104.253906 61.675781 175.359375 103.066406 C 232.597656 136.386719 262.554688 225.261719 259.128906 238.261719 C 252.808594 262.253906 166.222656 262.792969 154.332031 262.8125 C 126.988281 262.859375 107.441406 259.613281 88.9375 248.683594 C 83.308594 245.359375 76.132812 241.042969 69.066406 233.003906 C 47.453125 208.429688 42.65625 167.0625 60.113281 143.554688 C 67.414062 133.726562 57.523438 127.59375 62.140625 119.164062 Z M 62.140625 119.164062 " clip-rule="nonzero"/></clipPath><clipPath id="477cdfa747"><path d="M 97.859375 121.511719 L 105.679688 121.511719 L 105.679688 129.339844 L 97.859375 129.339844 Z M 97.859375 121.511719 " clip-rule="nonzero"/></clipPath><clipPath id="6fb2b5f652"><path d="M 62.140625 119.164062 C 75.488281 94.78125 104.253906 61.675781 175.359375 103.066406 C 232.597656 136.386719 262.554688 225.261719 259.128906 238.261719 C 252.808594 262.253906 166.222656 262.792969 154.332031 262.8125 C 126.988281 262.859375 107.441406 259.613281 88.9375 248.683594 C 83.308594 245.359375 76.132812 241.042969 69.066406 233.003906 C 47.453125 208.429688 42.65625 167.0625 60.113281 143.554688 C 67.414062 133.726562 57.523438 127.59375 62.140625 119.164062 Z M 62.140625 119.164062 " clip-rule="nonzero"/></clipPath><clipPath id="10602d0f65"><path d="M 94.15625 117.253906 L 102.386719 117.253906 L 102.386719 125.632812 L 94.15625 125.632812 Z M 94.15625 117.253906 " clip-rule="nonzero"/></clipPath><clipPath id="a11edccd0a"><path d="M 62.140625 119.164062 C 75.488281 94.78125 104.253906 61.675781 175.359375 103.066406 C 232.597656 136.386719 262.554688 225.261719 259.128906 238.261719 C 252.808594 262.253906 166.222656 262.792969 154.332031 262.8125 C 126.988281 262.859375 107.441406 259.613281 88.9375 248.683594 C 83.308594 245.359375 76.132812 241.042969 69.066406 233.003906 C 47.453125 208.429688 42.65625 167.0625 60.113281 143.554688 C 67.414062 133.726562 57.523438 127.59375 62.140625 119.164062 Z M 62.140625 119.164062 " clip-rule="nonzero"/></clipPath><clipPath id="54facf8679"><path d="M 90.585938 113.273438 L 98.40625 113.273438 L 98.40625 120.960938 L 90.585938 120.960938 Z M 90.585938 113.273438 " clip-rule="nonzero"/></clipPath><clipPath id="6f432d5728"><path d="M 62.140625 119.164062 C 75.488281 94.78125 104.253906 61.675781 175.359375 103.066406 C 232.597656 136.386719 262.554688 225.261719 259.128906 238.261719 C 252.808594 262.253906 166.222656 262.792969 154.332031 262.8125 C 126.988281 262.859375 107.441406 259.613281 88.9375 248.683594 C 83.308594 245.359375 76.132812 241.042969 69.066406 233.003906 C 47.453125 208.429688 42.65625 167.0625 60.113281 143.554688 C 67.414062 133.726562 57.523438 127.59375 62.140625 119.164062 Z M 62.140625 119.164062 " clip-rule="nonzero"/></clipPath><clipPath id="fb610a4cbd"><path d="M 86.609375 112.722656 L 91.960938 112.722656 L 91.960938 118.078125 L 86.609375 118.078125 Z M 86.609375 112.722656 " clip-rule="nonzero"/></clipPath><clipPath id="7c8166c035"><path d="M 62.140625 119.164062 C 75.488281 94.78125 104.253906 61.675781 175.359375 103.066406 C 232.597656 136.386719 262.554688 225.261719 259.128906 238.261719 C 252.808594 262.253906 166.222656 262.792969 154.332031 262.8125 C 126.988281 262.859375 107.441406 259.613281 88.9375 248.683594 C 83.308594 245.359375 76.132812 241.042969 69.066406 233.003906 C 47.453125 208.429688 42.65625 167.0625 60.113281 143.554688 C 67.414062 133.726562 57.523438 127.59375 62.140625 119.164062 Z M 62.140625 119.164062 " clip-rule="nonzero"/></clipPath><clipPath id="871d7b5d40"><path d="M 81.121094 112.035156 L 87.980469 112.035156 L 87.980469 118.765625 L 81.121094 118.765625 Z M 81.121094 112.035156 " clip-rule="nonzero"/></clipPath><clipPath id="c6a2c35528"><path d="M 62.140625 119.164062 C 75.488281 94.78125 104.253906 61.675781 175.359375 103.066406 C 232.597656 136.386719 262.554688 225.261719 259.128906 238.261719 C 252.808594 262.253906 166.222656 262.792969 154.332031 262.8125 C 126.988281 262.859375 107.441406 259.613281 88.9375 248.683594 C 83.308594 245.359375 76.132812 241.042969 69.066406 233.003906 C 47.453125 208.429688 42.65625 167.0625 60.113281 143.554688 C 67.414062 133.726562 57.523438 127.59375 62.140625 119.164062 Z M 62.140625 119.164062 " clip-rule="nonzero"/></clipPath><clipPath id="94dae64651"><path d="M 75.222656 113.820312 L 84.277344 113.820312 L 84.277344 122.886719 L 75.222656 122.886719 Z M 75.222656 113.820312 " clip-rule="nonzero"/></clipPath><clipPath id="d817ffaa80"><path d="M 62.140625 119.164062 C 75.488281 94.78125 104.253906 61.675781 175.359375 103.066406 C 232.597656 136.386719 262.554688 225.261719 259.128906 238.261719 C 252.808594 262.253906 166.222656 262.792969 154.332031 262.8125 C 126.988281 262.859375 107.441406 259.613281 88.9375 248.683594 C 83.308594 245.359375 76.132812 241.042969 69.066406 233.003906 C 47.453125 208.429688 42.65625 167.0625 60.113281 143.554688 C 67.414062 133.726562 57.523438 127.59375 62.140625 119.164062 Z M 62.140625 119.164062 " clip-rule="nonzero"/></clipPath><clipPath id="5b63e822b4"><path d="M 70.554688 115.605469 L 78.652344 115.605469 L 78.652344 123.710938 L 70.554688 123.710938 Z M 70.554688 115.605469 " clip-rule="nonzero"/></clipPath><clipPath id="1f8b657890"><path d="M 62.140625 119.164062 C 75.488281 94.78125 104.253906 61.675781 175.359375 103.066406 C 232.597656 136.386719 262.554688 225.261719 259.128906 238.261719 C 252.808594 262.253906 166.222656 262.792969 154.332031 262.8125 C 126.988281 262.859375 107.441406 259.613281 88.9375 248.683594 C 83.308594 245.359375 76.132812 241.042969 69.066406 233.003906 C 47.453125 208.429688 42.65625 167.0625 60.113281 143.554688 C 67.414062 133.726562 57.523438 127.59375 62.140625 119.164062 Z M 62.140625 119.164062 " clip-rule="nonzero"/></clipPath><clipPath id="2d8a906751"><path d="M 66.714844 118.078125 L 75.496094 118.078125 L 75.496094 126.867188 L 66.714844 126.867188 Z M 66.714844 118.078125 " clip-rule="nonzero"/></clipPath><clipPath id="da97ab82e2"><path d="M 62.140625 119.164062 C 75.488281 94.78125 104.253906 61.675781 175.359375 103.066406 C 232.597656 136.386719 262.554688 225.261719 259.128906 238.261719 C 252.808594 262.253906 166.222656 262.792969 154.332031 262.8125 C 126.988281 262.859375 107.441406 259.613281 88.9375 248.683594 C 83.308594 245.359375 76.132812 241.042969 69.066406 233.003906 C 47.453125 208.429688 42.65625 167.0625 60.113281 143.554688 C 67.414062 133.726562 57.523438 127.59375 62.140625 119.164062 Z M 62.140625 119.164062 " clip-rule="nonzero"/></clipPath><clipPath id="40188dd7e6"><path d="M 63.148438 124 L 69.183594 124 L 69.183594 130 L 63.148438 130 Z M 63.148438 124 " clip-rule="nonzero"/></clipPath><clipPath id="8bd6e814e3"><path d="M 62.140625 119.164062 C 75.488281 94.78125 104.253906 61.675781 175.359375 103.066406 C 232.597656 136.386719 262.554688 225.261719 259.128906 238.261719 C 252.808594 262.253906 166.222656 262.792969 154.332031 262.8125 C 126.988281 262.859375 107.441406 259.613281 88.9375 248.683594 C 83.308594 245.359375 76.132812 241.042969 69.066406 233.003906 C 47.453125 208.429688 42.65625 167.0625 60.113281 143.554688 C 67.414062 133.726562 57.523438 127.59375 62.140625 119.164062 Z M 62.140625 119.164062 " clip-rule="nonzero"/></clipPath><clipPath id="746f046fdf"><path d="M 178.808594 195.113281 L 193.761719 195.113281 L 193.761719 215.710938 L 178.808594 215.710938 Z M 178.808594 195.113281 " clip-rule="nonzero"/></clipPath><clipPath id="3f83406b77"><path d="M 62.140625 119.164062 C 75.488281 94.78125 104.253906 61.675781 175.359375 103.066406 C 232.597656 136.386719 262.554688 225.261719 259.128906 238.261719 C 252.808594 262.253906 166.222656 262.792969 154.332031 262.8125 C 126.988281 262.859375 107.441406 259.613281 88.9375 248.683594 C 83.308594 245.359375 76.132812 241.042969 69.066406 233.003906 C 47.453125 208.429688 42.65625 167.0625 60.113281 143.554688 C 67.414062 133.726562 57.523438 127.59375 62.140625 119.164062 Z M 62.140625 119.164062 " clip-rule="nonzero"/></clipPath><clipPath id="733a012790"><path d="M 178.398438 194.839844 L 194 194.839844 L 194 215.988281 L 178.398438 215.988281 Z M 178.398438 194.839844 " clip-rule="nonzero"/></clipPath><clipPath id="9e04bc174b"><path d="M 62.140625 119.164062 C 75.488281 94.78125 104.253906 61.675781 175.359375 103.066406 C 232.597656 136.386719 262.554688 225.261719 259.128906 238.261719 C 252.808594 262.253906 166.222656 262.792969 154.332031 262.8125 C 126.988281 262.859375 107.441406 259.613281 88.9375 248.683594 C 83.308594 245.359375 76.132812 241.042969 69.066406 233.003906 C 47.453125 208.429688 42.65625 167.0625 60.113281 143.554688 C 67.414062 133.726562 57.523438 127.59375 62.140625 119.164062 Z M 62.140625 119.164062 " clip-rule="nonzero"/></clipPath><clipPath id="f662f2473c"><path d="M 49.425781 174.515625 L 185.941406 174.515625 L 185.941406 262.832031 L 49.425781 262.832031 Z M 49.425781 174.515625 " clip-rule="nonzero"/></clipPath><clipPath id="fd98ca1f6e"><path d="M 62.140625 119.164062 C 75.488281 94.78125 104.253906 61.675781 175.359375 103.066406 C 232.597656 136.386719 262.554688 225.261719 259.128906 238.261719 C 252.808594 262.253906 166.222656 262.792969 154.332031 262.8125 C 126.988281 262.859375 107.441406 259.613281 88.9375 248.683594 C 83.308594 245.359375 76.132812 241.042969 69.066406 233.003906 C 47.453125 208.429688 42.65625 167.0625 60.113281 143.554688 C 67.414062 133.726562 57.523438 127.59375 62.140625 119.164062 Z M 62.140625 119.164062 " clip-rule="nonzero"/></clipPath><clipPath id="cc0b7e4be1"><path d="M 49.425781 174.242188 L 186.355469 174.242188 L 186.355469 262.832031 L 49.425781 262.832031 Z M 49.425781 174.242188 " clip-rule="nonzero"/></clipPath><clipPath id="845194c166"><path d="M 62.140625 119.164062 C 75.488281 94.78125 104.253906 61.675781 175.359375 103.066406 C 232.597656 136.386719 262.554688 225.261719 259.128906 238.261719 C 252.808594 262.253906 166.222656 262.792969 154.332031 262.8125 C 126.988281 262.859375 107.441406 259.613281 88.9375 248.683594 C 83.308594 245.359375 76.132812 241.042969 69.066406 233.003906 C 47.453125 208.429688 42.65625 167.0625 60.113281 143.554688 C 67.414062 133.726562 57.523438 127.59375 62.140625 119.164062 Z M 62.140625 119.164062 " clip-rule="nonzero"/></clipPath><clipPath id="6ea1eb6355"><path d="M 60.265625 199.371094 L 73.710938 199.371094 L 73.710938 231.367188 L 60.265625 231.367188 Z M 60.265625 199.371094 " clip-rule="nonzero"/></clipPath><clipPath id="8ea011a5d6"><path d="M 62.140625 119.164062 C 75.488281 94.78125 104.253906 61.675781 175.359375 103.066406 C 232.597656 136.386719 262.554688 225.261719 259.128906 238.261719 C 252.808594 262.253906 166.222656 262.792969 154.332031 262.8125 C 126.988281 262.859375 107.441406 259.613281 88.9375 248.683594 C 83.308594 245.359375 76.132812 241.042969 69.066406 233.003906 C 47.453125 208.429688 42.65625 167.0625 60.113281 143.554688 C 67.414062 133.726562 57.523438 127.59375 62.140625 119.164062 Z M 62.140625 119.164062 " clip-rule="nonzero"/></clipPath><clipPath id="af95e5b806"><path d="M 95.664062 225.324219 L 114.1875 225.324219 L 114.1875 245.238281 L 95.664062 245.238281 Z M 95.664062 225.324219 " clip-rule="nonzero"/></clipPath><clipPath id="de49c4be99"><path d="M 62.140625 119.164062 C 75.488281 94.78125 104.253906 61.675781 175.359375 103.066406 C 232.597656 136.386719 262.554688 225.261719 259.128906 238.261719 C 252.808594 262.253906 166.222656 262.792969 154.332031 262.8125 C 126.988281 262.859375 107.441406 259.613281 88.9375 248.683594 C 83.308594 245.359375 76.132812 241.042969 69.066406 233.003906 C 47.453125 208.429688 42.65625 167.0625 60.113281 143.554688 C 67.414062 133.726562 57.523438 127.59375 62.140625 119.164062 Z M 62.140625 119.164062 " clip-rule="nonzero"/></clipPath></defs><path fill="#eef4ff" d="M 90.613281 115.160156 L 132.128906 194.003906 C 128.078125 186.3125 138.335938 172.265625 157.167969 157.375 C 159.425781 155.589844 160.078125 152.441406 158.738281 149.890625 L 122.90625 81.84375 C 121.148438 78.507812 116.78125 77.597656 113.855469 79.972656 C 96.175781 94.324219 86.695312 107.71875 90.613281 115.160156 " fill-opacity="1" fill-rule="nonzero"/><path fill="#5479f7" d="M 117.597656 78.953125 C 116.316406 78.953125 115.066406 79.390625 114.050781 80.214844 C 95.851562 94.988281 87.195312 107.996094 90.890625 115.015625 L 130.988281 191.171875 C 130.25 183.234375 139.605469 170.863281 156.972656 157.128906 C 159.109375 155.441406 159.738281 152.457031 158.460938 150.035156 L 122.628906 81.988281 C 121.835938 80.476562 120.417969 79.414062 118.746094 79.070312 C 118.363281 78.992188 117.980469 78.953125 117.597656 78.953125 Z M 132.128906 194.3125 C 132.015625 194.3125 131.910156 194.253906 131.851562 194.148438 L 90.339844 115.304688 C 88.363281 111.558594 89.554688 106.402344 93.878906 99.984375 C 97.953125 93.929688 104.796875 86.925781 113.660156 79.730469 C 115.121094 78.542969 117.019531 78.078125 118.871094 78.460938 C 120.726562 78.839844 122.296875 80.019531 123.183594 81.699219 L 159.011719 149.746094 C 160.429688 152.433594 159.730469 155.742188 157.359375 157.621094 C 147.972656 165.042969 140.699219 172.285156 136.324219 178.566406 C 131.863281 184.96875 130.507812 190.257812 132.402344 193.855469 C 132.484375 194.007812 132.425781 194.199219 132.273438 194.277344 C 132.226562 194.300781 132.175781 194.3125 132.128906 194.3125 " fill-opacity="1" fill-rule="nonzero"/><path fill="#eef4ff" d="M 183.121094 47.597656 L 219.011719 115.757812 C 220.421875 118.4375 223.613281 119.640625 226.441406 118.558594 C 255.441406 107.472656 278.679688 105.136719 283.445312 114.1875 L 241.929688 35.347656 C 237.242188 26.441406 214.671875 28.5625 186.324219 39.191406 C 182.945312 40.457031 181.441406 44.402344 183.121094 47.597656 " fill-opacity="1" fill-rule="nonzero"/><path fill="#5479f7" d="M 183.398438 47.449219 L 219.289062 115.609375 C 220.625 118.148438 223.652344 119.292969 226.328125 118.269531 C 253.433594 107.90625 274.378906 105.519531 281.757812 111.652344 L 241.65625 35.492188 C 237.191406 27.011719 215.511719 28.574219 186.429688 39.480469 C 184.902344 40.054688 183.695312 41.257812 183.113281 42.785156 C 182.535156 44.308594 182.636719 46.007812 183.398438 47.449219 Z M 224.308594 119.265625 C 222.03125 119.265625 219.851562 118.023438 218.738281 115.902344 L 182.847656 47.742188 C 182.003906 46.140625 181.890625 44.253906 182.53125 42.5625 C 183.175781 40.867188 184.519531 39.535156 186.210938 38.898438 C 200.367188 33.589844 213.078125 30.386719 222.972656 29.632812 C 233.222656 28.851562 239.875 30.777344 242.207031 35.203125 L 283.722656 114.042969 C 283.800781 114.195312 283.746094 114.382812 283.59375 114.464844 C 283.4375 114.542969 283.25 114.484375 283.171875 114.332031 C 280.925781 110.074219 274.316406 108.273438 264.054688 109.132812 C 253.9375 109.980469 240.96875 113.339844 226.550781 118.851562 C 225.816406 119.132812 225.058594 119.265625 224.308594 119.265625 " fill-opacity="1" fill-rule="nonzero"/><path fill="#5479f7" d="M 293.75 152.707031 C 291.367188 155.140625 287.460938 155.179688 285.03125 152.796875 L 273.121094 141.128906 C 251.339844 119.785156 219.589844 111.679688 190.253906 119.976562 C 156.683594 129.46875 120.339844 120.191406 95.410156 95.761719 L 87.332031 87.847656 C 84.898438 85.460938 84.855469 81.554688 87.238281 79.121094 C 89.621094 76.683594 93.523438 76.644531 95.957031 79.027344 L 104.035156 86.945312 C 125.816406 108.289062 157.570312 116.394531 186.902344 108.097656 C 220.476562 98.605469 256.816406 107.882812 281.746094 132.308594 L 293.652344 143.980469 C 296.085938 146.363281 296.128906 150.269531 293.75 152.707031 " fill-opacity="1" fill-rule="nonzero"/><path fill="#5479f7" d="M 114.542969 88.769531 C 114.015625 89.308594 113.160156 89.390625 112.535156 88.933594 C 111.84375 88.433594 111.695312 87.46875 112.195312 86.78125 L 152.371094 31.597656 C 152.871094 30.910156 153.835938 30.757812 154.523438 31.257812 C 155.214844 31.761719 155.363281 32.726562 154.863281 33.414062 L 114.6875 88.597656 C 114.640625 88.660156 114.59375 88.714844 114.542969 88.769531 " fill-opacity="1" fill-rule="nonzero"/><path fill="#5479f7" d="M 129.296875 98.085938 C 128.769531 98.621094 127.914062 98.707031 127.289062 98.25 C 126.601562 97.746094 126.449219 96.78125 126.949219 96.09375 L 163.09375 46.449219 C 163.597656 45.757812 164.5625 45.609375 165.25 46.109375 C 165.9375 46.613281 166.085938 47.578125 165.585938 48.265625 L 129.441406 97.910156 C 129.394531 97.972656 129.347656 98.03125 129.296875 98.085938 " fill-opacity="1" fill-rule="nonzero"/><path fill="#5479f7" d="M 147.152344 103.136719 C 146.625 103.675781 145.769531 103.757812 145.144531 103.300781 C 144.457031 102.800781 144.304688 101.835938 144.808594 101.144531 L 173.816406 61.300781 C 174.320312 60.613281 175.28125 60.460938 175.96875 60.964844 C 176.660156 61.464844 176.808594 62.429688 176.308594 63.121094 L 147.296875 102.964844 C 147.253906 103.023438 147.203125 103.082031 147.152344 103.136719 " fill-opacity="1" fill-rule="nonzero"/><path fill="#5479f7" d="M 274.285156 150.742188 C 274.234375 150.796875 274.179688 150.84375 274.117188 150.890625 L 219.84375 192.261719 C 219.167969 192.777344 218.199219 192.648438 217.683594 191.96875 C 217.167969 191.292969 217.296875 190.324219 217.976562 189.808594 L 272.25 148.4375 C 272.925781 147.921875 273.894531 148.050781 274.410156 148.730469 C 274.878906 149.347656 274.8125 150.203125 274.285156 150.742188 " fill-opacity="1" fill-rule="nonzero"/><path fill="#5479f7" d="M 259.222656 140.328125 C 259.167969 140.382812 259.113281 140.433594 259.050781 140.476562 L 210.226562 177.695312 C 209.550781 178.214844 208.582031 178.082031 208.066406 177.402344 C 207.550781 176.726562 207.679688 175.757812 208.359375 175.242188 L 257.183594 138.023438 C 257.863281 137.507812 258.828125 137.636719 259.34375 138.316406 C 259.8125 138.933594 259.746094 139.789062 259.222656 140.328125 " fill-opacity="1" fill-rule="nonzero"/><path fill="#5479f7" d="M 244.160156 129.914062 C 244.109375 129.964844 244.050781 130.015625 243.992188 130.0625 L 204.804688 159.933594 C 204.125 160.449219 203.15625 160.320312 202.644531 159.640625 C 202.128906 158.964844 202.253906 158 202.933594 157.480469 L 242.125 127.609375 C 242.800781 127.09375 243.765625 127.222656 244.28125 127.902344 C 244.753906 128.515625 244.6875 129.375 244.160156 129.914062 " fill-opacity="1" fill-rule="nonzero"/><path fill="#5479f7" d="M 191.425781 124.128906 C 187.660156 125.195312 183.863281 126.023438 180.050781 126.640625 C 176.921875 156.082031 187.328125 185.835938 208.804688 206.875 L 220.714844 218.546875 C 223.144531 220.929688 227.046875 220.886719 229.429688 218.453125 C 231.8125 216.019531 231.773438 212.113281 229.335938 209.726562 L 217.429688 198.058594 C 197.644531 178.671875 188.601562 150.828125 192.847656 123.753906 C 192.375 123.878906 191.898438 124 191.425781 124.128906 " fill-opacity="1" fill-rule="nonzero"/><path fill="#5479f7" d="M 185.730469 103.945312 C 189.492188 102.878906 193.292969 102.054688 197.105469 101.4375 C 200.234375 71.996094 189.824219 42.242188 168.351562 21.199219 L 160.269531 13.28125 C 157.835938 10.898438 153.933594 10.941406 151.554688 13.375 C 149.171875 15.808594 149.210938 19.714844 151.644531 22.097656 L 159.726562 30.015625 C 179.507812 49.402344 188.554688 77.25 184.304688 104.320312 C 184.78125 104.195312 185.253906 104.078125 185.730469 103.945312 " fill-opacity="1" fill-rule="nonzero"/><path fill="#eef4ff" d="M 160.699219 123.816406 C 160.589844 123.816406 160.480469 123.757812 160.425781 123.652344 L 155.132812 113.601562 C 153.792969 111.058594 150.761719 109.917969 148.082031 110.945312 C 141.28125 113.558594 134.730469 115.71875 128.613281 117.359375 C 128.449219 117.40625 128.277344 117.304688 128.234375 117.140625 C 128.1875 116.972656 128.285156 116.800781 128.453125 116.757812 C 134.550781 115.121094 141.078125 112.96875 147.859375 110.363281 C 150.835938 109.222656 154.199219 110.488281 155.683594 113.308594 L 160.976562 123.359375 C 161.054688 123.511719 161 123.703125 160.84375 123.78125 C 160.800781 123.808594 160.75 123.816406 160.699219 123.816406 " fill-opacity="1" fill-rule="nonzero"/><path fill="#5479f7" d="M 146.851562 199.886719 C 138.992188 199.886719 133.84375 197.933594 131.851562 194.148438 L 90.335938 115.304688 C 90.257812 115.152344 90.316406 114.964844 90.46875 114.886719 C 90.621094 114.804688 90.808594 114.863281 90.890625 115.015625 C 92.625 118.3125 96.890625 120.117188 103.574219 120.390625 C 110.027344 120.652344 118.628906 119.394531 128.453125 116.757812 C 128.621094 116.710938 128.789062 116.8125 128.835938 116.976562 C 128.878906 117.144531 128.78125 117.316406 128.613281 117.359375 C 110.644531 122.183594 97.765625 122.261719 92.308594 117.710938 L 132.402344 193.855469 C 136.894531 202.386719 158.714844 200.765625 188 189.730469 C 189.523438 189.152344 190.730469 187.949219 191.308594 186.425781 C 191.886719 184.902344 191.78125 183.203125 191.023438 181.761719 L 160.425781 123.652344 C 160.34375 123.5 160.402344 123.3125 160.554688 123.230469 C 160.707031 123.148438 160.894531 123.207031 160.976562 123.359375 L 191.574219 181.472656 C 192.417969 183.070312 192.53125 184.957031 191.890625 186.644531 C 191.25 188.339844 189.910156 189.675781 188.21875 190.3125 C 173.980469 195.679688 161.183594 198.929688 151.214844 199.707031 C 149.675781 199.828125 148.222656 199.886719 146.851562 199.886719 " fill-opacity="1" fill-rule="nonzero"/><path fill="#5479f7" d="M 279.339844 130.347656 C 279.277344 130.347656 279.214844 130.332031 279.164062 130.292969 C 279.023438 130.191406 278.988281 129.996094 279.085938 129.855469 C 283.679688 123.347656 285.089844 117.980469 283.171875 114.332031 L 243.082031 38.207031 C 243.542969 43.03125 240.277344 49.488281 233.464844 57.132812 C 225.457031 66.121094 212.792969 76.304688 197.820312 85.804688 C 197.671875 85.898438 197.480469 85.855469 197.386719 85.707031 C 197.296875 85.5625 197.339844 85.371094 197.484375 85.277344 C 228.550781 65.570312 246.710938 45.101562 241.65625 35.492188 C 241.574219 35.339844 241.632812 35.152344 241.785156 35.070312 C 241.9375 34.992188 242.128906 35.050781 242.207031 35.203125 L 283.722656 114.042969 C 285.757812 117.910156 284.332031 123.503906 279.597656 130.214844 C 279.535156 130.300781 279.441406 130.347656 279.339844 130.347656 " fill-opacity="1" fill-rule="nonzero"/><path fill="#eef4ff" d="M 271.3125 139.722656 C 271.234375 139.722656 271.152344 139.695312 271.09375 139.632812 C 270.96875 139.511719 270.96875 139.3125 271.09375 139.191406 C 274.335938 135.921875 277.023438 132.777344 279.085938 129.855469 C 279.1875 129.714844 279.378906 129.679688 279.523438 129.78125 C 279.660156 129.882812 279.695312 130.074219 279.59375 130.214844 C 277.515625 133.167969 274.800781 136.335938 271.535156 139.628906 C 271.472656 139.691406 271.394531 139.722656 271.3125 139.722656 " fill-opacity="1" fill-rule="nonzero"/><path fill="#5479f7" d="M 211.953125 179.238281 C 209.679688 179.238281 207.472656 178.011719 206.355469 175.882812 L 192.082031 148.777344 C 192 148.625 192.058594 148.4375 192.210938 148.355469 C 192.363281 148.277344 192.554688 148.332031 192.632812 148.484375 L 206.90625 175.589844 C 208.339844 178.3125 211.742188 179.398438 214.492188 178.007812 C 216.039062 177.226562 217.59375 176.425781 219.121094 175.621094 C 240.234375 164.480469 259.179688 151.203125 271.089844 139.191406 C 271.210938 139.070312 271.410156 139.070312 271.535156 139.191406 C 271.65625 139.3125 271.65625 139.507812 271.535156 139.628906 C 259.578125 151.6875 240.578125 165.003906 219.414062 176.171875 C 217.882812 176.976562 216.320312 177.785156 214.773438 178.566406 C 213.871094 179.019531 212.90625 179.238281 211.953125 179.238281 " fill-opacity="1" fill-rule="nonzero"/><path fill="#eef4ff" d="M 192.359375 148.941406 C 192.246094 148.941406 192.136719 148.882812 192.082031 148.777344 L 180.554688 126.886719 C 180.476562 126.734375 180.53125 126.542969 180.683594 126.464844 C 180.835938 126.386719 181.027344 126.441406 181.105469 126.59375 L 192.632812 148.484375 C 192.714844 148.636719 192.65625 148.828125 192.503906 148.90625 C 192.457031 148.933594 192.40625 148.941406 192.359375 148.941406 " fill-opacity="1" fill-rule="nonzero"/><path fill="#5479f7" d="M 180.832031 127.054688 C 180.71875 127.054688 180.609375 126.992188 180.554688 126.886719 L 178.328125 122.652344 C 178.246094 122.5 178.304688 122.3125 178.457031 122.230469 C 178.609375 122.152344 178.796875 122.210938 178.875 122.363281 L 181.105469 126.59375 C 181.1875 126.746094 181.128906 126.9375 180.976562 127.015625 C 180.929688 127.042969 180.878906 127.054688 180.832031 127.054688 " fill-opacity="1" fill-rule="nonzero"/><path fill="#eef4ff" d="M 178.601562 122.820312 C 178.488281 122.820312 178.382812 122.757812 178.328125 122.652344 L 172.191406 111 C 172.113281 110.847656 172.167969 110.660156 172.320312 110.582031 C 172.472656 110.5 172.664062 110.558594 172.742188 110.710938 L 178.875 122.363281 C 178.957031 122.515625 178.898438 122.703125 178.746094 122.785156 C 178.699219 122.808594 178.652344 122.820312 178.601562 122.820312 " fill-opacity="1" fill-rule="nonzero"/><path fill="#5479f7" d="M 172.46875 111.167969 C 172.355469 111.167969 172.246094 111.109375 172.191406 111 L 170.421875 107.644531 C 169.628906 106.136719 169.476562 104.410156 169.992188 102.789062 C 170.507812 101.167969 171.628906 99.851562 173.144531 99.085938 C 174.628906 98.332031 176.132812 97.558594 177.605469 96.777344 C 180.148438 95.4375 182.691406 94.050781 185.160156 92.652344 C 185.3125 92.570312 185.503906 92.621094 185.585938 92.773438 C 185.671875 92.921875 185.617188 93.113281 185.46875 93.195312 C 182.992188 94.597656 180.441406 95.988281 177.898438 97.328125 C 176.417969 98.109375 174.914062 98.886719 173.425781 99.640625 C 172.0625 100.332031 171.050781 101.515625 170.585938 102.976562 C 170.121094 104.4375 170.257812 105.992188 170.972656 107.351562 L 172.742188 110.710938 C 172.824219 110.863281 172.765625 111.050781 172.613281 111.132812 C 172.566406 111.15625 172.515625 111.167969 172.46875 111.167969 " fill-opacity="1" fill-rule="nonzero"/><path fill="#eef4ff" d="M 185.316406 93.238281 C 185.207031 93.238281 185.101562 93.179688 185.042969 93.078125 C 184.957031 92.929688 185.011719 92.738281 185.160156 92.652344 C 189.382812 90.269531 193.527344 87.789062 197.484375 85.277344 C 197.632812 85.1875 197.824219 85.230469 197.914062 85.375 C 198.007812 85.519531 197.964844 85.714844 197.820312 85.804688 C 193.851562 88.320312 189.699219 90.808594 185.46875 93.195312 C 185.421875 93.222656 185.367188 93.238281 185.316406 93.238281 " fill-opacity="1" fill-rule="nonzero"/><path fill="#eef4ff" d="M 209.746094 190.117188 C 209.746094 196.800781 204.332031 202.222656 197.652344 202.222656 C 190.972656 202.222656 185.558594 196.800781 185.558594 190.117188 C 185.558594 183.433594 190.972656 178.011719 197.652344 178.011719 C 204.332031 178.011719 209.746094 183.433594 209.746094 190.117188 " fill-opacity="1" fill-rule="nonzero"/><path fill="#5479f7" d="M 197.652344 178.324219 C 191.15625 178.324219 185.871094 183.613281 185.871094 190.117188 C 185.871094 196.617188 191.15625 201.90625 197.652344 201.90625 C 204.148438 201.90625 209.433594 196.617188 209.433594 190.117188 C 209.433594 183.613281 204.148438 178.324219 197.652344 178.324219 Z M 197.652344 202.53125 C 190.8125 202.53125 185.246094 196.964844 185.246094 190.117188 C 185.246094 183.269531 190.8125 177.699219 197.652344 177.699219 C 204.492188 177.699219 210.058594 183.269531 210.058594 190.117188 C 210.058594 196.964844 204.492188 202.53125 197.652344 202.53125 " fill-opacity="1" fill-rule="nonzero"/><path fill="#5479f7" d="M 206.378906 190.117188 C 206.378906 194.9375 202.46875 198.847656 197.652344 198.847656 C 192.832031 198.847656 188.925781 194.9375 188.925781 190.117188 C 188.925781 185.292969 192.832031 181.382812 197.652344 181.382812 C 202.46875 181.382812 206.378906 185.292969 206.378906 190.117188 " fill-opacity="1" fill-rule="nonzero"/><g clip-path="url(#a0d3629b16)"><g clip-path="url(#0356deed2f)"><path fill="#5479f7" d="M 125.246094 148.300781 C 125.421875 146.210938 125.496094 141.761719 123.015625 137.234375 C 120.347656 132.355469 114.152344 126.351562 106.390625 127.40625 C 101.761719 128.035156 96.015625 131.253906 94.464844 137.265625 C 92.96875 143.058594 96.296875 147.851562 96.832031 148.597656 C 93.90625 148.714844 92.910156 149.722656 92.527344 150.328125 C 90.769531 153.085938 94.269531 159.058594 98.601562 161.867188 C 104.800781 165.890625 114.511719 164.609375 120.21875 158.894531 C 124.054688 155.058594 124.976562 150.332031 125.246094 148.300781 " fill-opacity="1" fill-rule="nonzero"/></g></g><g clip-path="url(#8fc532ad82)"><g clip-path="url(#7e6106ec31)"><path fill="#eef4ff" d="M 124.546875 140.945312 C 124.546875 140.945312 120.804688 143.3125 120.105469 150.796875 C 119.636719 155.789062 112.402344 153.398438 112.402344 153.398438 C 112.402344 153.398438 108.417969 151.421875 108.691406 155.695312 C 108.964844 159.972656 113.917969 157.898438 113.917969 157.898438 L 101.40625 180.316406 L 116.195312 188.238281 L 121.230469 164.964844 C 122.613281 165.472656 123.8125 165.679688 124.792969 165.726562 C 126.578125 165.816406 128.1875 164.6875 128.773438 162.996094 C 132.609375 151.863281 124.546875 140.945312 124.546875 140.945312 " fill-opacity="1" fill-rule="nonzero"/></g></g><g clip-path="url(#92a3de5fba)"><g clip-path="url(#754a6961f5)"><path fill="#5479f7" d="M 101.832031 180.191406 L 115.976562 187.769531 L 120.925781 164.902344 C 120.945312 164.8125 121 164.738281 121.078125 164.695312 C 121.15625 164.648438 121.253906 164.640625 121.335938 164.671875 C 122.535156 165.109375 123.703125 165.359375 124.808594 165.414062 C 126.429688 165.492188 127.9375 164.457031 128.476562 162.894531 C 131.898438 152.976562 125.636719 143.097656 124.476562 141.386719 C 123.660156 142.058594 120.988281 144.695312 120.414062 150.824219 C 120.300781 152.054688 119.789062 152.972656 118.894531 153.558594 C 116.570312 155.078125 112.476562 153.75 112.304688 153.695312 C 112.292969 153.691406 112.277344 153.683594 112.265625 153.679688 C 112.246094 153.671875 110.59375 152.867188 109.664062 153.488281 C 109.152344 153.828125 108.933594 154.5625 109.003906 155.675781 C 109.066406 156.667969 109.40625 157.359375 110.007812 157.734375 C 111.398438 158.597656 113.773438 157.621094 113.796875 157.613281 C 113.917969 157.558594 114.058594 157.59375 114.148438 157.691406 C 114.238281 157.789062 114.253906 157.933594 114.1875 158.050781 Z M 116.195312 188.550781 C 116.144531 188.550781 116.09375 188.539062 116.046875 188.515625 L 101.257812 180.589844 C 101.1875 180.550781 101.132812 180.484375 101.109375 180.402344 C 101.085938 180.324219 101.09375 180.234375 101.136719 180.164062 L 113.253906 158.449219 C 112.332031 158.703125 110.796875 158.957031 109.679688 158.265625 C 108.894531 157.777344 108.457031 156.917969 108.378906 155.714844 C 108.292969 154.363281 108.609375 153.4375 109.316406 152.96875 C 110.492188 152.183594 112.285156 152.996094 112.519531 153.109375 C 112.816406 153.203125 116.554688 154.34375 118.554688 153.035156 C 119.28125 152.558594 119.699219 151.796875 119.792969 150.769531 C 120.5 143.214844 124.21875 140.78125 124.378906 140.679688 C 124.515625 140.59375 124.699219 140.628906 124.796875 140.757812 C 124.878906 140.871094 132.914062 151.941406 129.066406 163.097656 C 128.4375 164.921875 126.671875 166.132812 124.777344 166.039062 C 123.714844 165.984375 122.597656 165.761719 121.460938 165.378906 L 116.5 188.304688 C 116.480469 188.398438 116.414062 188.480469 116.328125 188.519531 C 116.285156 188.539062 116.242188 188.550781 116.195312 188.550781 " fill-opacity="1" fill-rule="nonzero"/></g></g><g clip-path="url(#0a7006dc0d)"><g clip-path="url(#b6eb30bb7a)"><path fill="#5479f7" d="M 104.71875 129.003906 C 106.808594 139.996094 101.890625 153.929688 90.910156 156.023438 C 79.925781 158.117188 66.945312 150.773438 64.855469 139.78125 C 62.765625 128.789062 69.992188 116.445312 80.976562 114.351562 C 91.957031 112.257812 102.625 118.011719 104.71875 129.003906 " fill-opacity="1" fill-rule="nonzero"/></g></g><g clip-path="url(#7a0cbfddeb)"><g clip-path="url(#ee0c8e6cd2)"><path fill="#5479f7" d="M 70.582031 145.03125 C 70.820312 146.292969 69.996094 147.507812 68.734375 147.746094 C 67.476562 147.988281 66.257812 147.160156 66.019531 145.898438 C 65.777344 144.636719 66.605469 143.421875 67.867188 143.179688 C 69.125 142.941406 70.34375 143.769531 70.582031 145.03125 " fill-opacity="1" fill-rule="nonzero"/></g></g><g clip-path="url(#c0726f581e)"><g clip-path="url(#554a0660c0)"><path fill="#5479f7" d="M 69.128906 149.8125 C 69.492188 151.726562 71.339844 152.984375 73.253906 152.621094 C 75.167969 152.257812 76.425781 150.40625 76.058594 148.492188 C 75.695312 146.574219 73.847656 145.316406 71.933594 145.683594 C 70.019531 146.046875 68.761719 147.898438 69.128906 149.8125 " fill-opacity="1" fill-rule="nonzero"/></g></g><g clip-path="url(#d83bc6e2c4)"><g clip-path="url(#4fdf238fa6)"><path fill="#5479f7" d="M 74.128906 149.5625 C 72.816406 151.492188 73.316406 154.125 75.246094 155.4375 C 77.175781 156.753906 79.808594 156.253906 81.121094 154.320312 C 82.433594 152.386719 81.933594 149.753906 80.003906 148.441406 C 78.070312 147.125 75.441406 147.628906 74.128906 149.5625 " fill-opacity="1" fill-rule="nonzero"/></g></g><g clip-path="url(#739399e120)"><g clip-path="url(#f6b0e7b135)"><path fill="#5479f7" d="M 79.695312 153.945312 C 80.191406 156.550781 82.703125 158.261719 85.304688 157.765625 C 87.910156 157.269531 89.617188 154.757812 89.121094 152.152344 C 88.628906 149.546875 86.113281 147.835938 83.511719 148.332031 C 80.910156 148.828125 79.199219 151.34375 79.695312 153.945312 " fill-opacity="1" fill-rule="nonzero"/></g></g><g clip-path="url(#958f25cb64)"><g clip-path="url(#9f329a4fe7)"><path fill="#5479f7" d="M 86.035156 153.292969 C 86.875 156.097656 89.828125 157.6875 92.628906 156.847656 C 95.429688 156.007812 97.019531 153.054688 96.179688 150.25 C 95.339844 147.449219 92.390625 145.855469 89.589844 146.695312 C 86.789062 147.535156 85.199219 150.492188 86.035156 153.292969 " fill-opacity="1" fill-rule="nonzero"/></g></g><g clip-path="url(#3475e2d1b1)"><g clip-path="url(#95c55d130b)"><path fill="#5479f7" d="M 70.984375 136.792969 C 71.429688 139.136719 69.894531 141.398438 67.550781 141.847656 C 65.207031 142.292969 62.949219 140.753906 62.5 138.410156 C 62.054688 136.0625 63.59375 133.800781 65.9375 133.355469 C 68.277344 132.910156 70.539062 134.449219 70.984375 136.792969 " fill-opacity="1" fill-rule="nonzero"/></g></g><g clip-path="url(#55b8029dce)"><g clip-path="url(#8fa29c08e7)"><path fill="#5479f7" d="M 72.050781 134.765625 C 70.59375 136.910156 67.675781 137.464844 65.535156 136.007812 C 63.394531 134.546875 62.839844 131.628906 64.296875 129.484375 C 65.75 127.339844 68.667969 126.785156 70.808594 128.242188 C 72.953125 129.703125 73.507812 132.621094 72.050781 134.765625 " fill-opacity="1" fill-rule="nonzero"/></g></g><g clip-path="url(#cd2813d1c9)"><g clip-path="url(#b01fffb434)"><path fill="#5479f7" d="M 70.257812 141.730469 C 70.535156 143.1875 69.578125 144.589844 68.125 144.867188 C 66.671875 145.144531 65.269531 144.191406 64.992188 142.734375 C 64.714844 141.277344 65.667969 139.875 67.125 139.597656 C 68.578125 139.320312 69.980469 140.277344 70.257812 141.730469 " fill-opacity="1" fill-rule="nonzero"/></g></g><g clip-path="url(#bf90df3f2c)"><g clip-path="url(#e3db9862e4)"><path fill="#5479f7" d="M 106.019531 129.421875 C 106.394531 131.394531 105.101562 133.296875 103.128906 133.671875 C 101.15625 134.046875 99.253906 132.753906 98.878906 130.78125 C 98.503906 128.808594 99.800781 126.90625 101.769531 126.527344 C 103.742188 126.152344 105.644531 127.449219 106.019531 129.421875 " fill-opacity="1" fill-rule="nonzero"/></g></g><g clip-path="url(#477cdfa747)"><g clip-path="url(#6fb2b5f652)"><path fill="#5479f7" d="M 105.566406 124.75 C 105.964844 126.839844 104.59375 128.855469 102.507812 129.253906 C 100.417969 129.652344 98.40625 128.277344 98.007812 126.191406 C 97.609375 124.101562 98.980469 122.085938 101.066406 121.6875 C 103.15625 121.289062 105.171875 122.660156 105.566406 124.75 " fill-opacity="1" fill-rule="nonzero"/></g></g><g clip-path="url(#10602d0f65)"><g clip-path="url(#a11edccd0a)"><path fill="#5479f7" d="M 102.296875 120.691406 C 102.71875 122.898438 101.265625 125.035156 99.058594 125.453125 C 96.847656 125.875 94.71875 124.425781 94.296875 122.214844 C 93.878906 120.003906 95.328125 117.871094 97.535156 117.449219 C 99.746094 117.027344 101.875 118.480469 102.296875 120.691406 " fill-opacity="1" fill-rule="nonzero"/></g></g><g clip-path="url(#54facf8679)"><g clip-path="url(#6f432d5728)"><path fill="#5479f7" d="M 90.78125 117.808594 C 91.171875 119.878906 93.171875 121.242188 95.242188 120.847656 C 97.3125 120.453125 98.671875 118.453125 98.277344 116.382812 C 97.882812 114.308594 95.882812 112.949219 93.8125 113.34375 C 91.746094 113.738281 90.386719 115.738281 90.78125 117.808594 " fill-opacity="1" fill-rule="nonzero"/></g></g><g clip-path="url(#fb610a4cbd)"><g clip-path="url(#7c8166c035)"><path fill="#5479f7" d="M 91.855469 114.941406 C 92.125 116.359375 91.195312 117.730469 89.773438 118 C 88.355469 118.269531 86.988281 117.339844 86.71875 115.917969 C 86.449219 114.5 87.378906 113.128906 88.796875 112.859375 C 90.214844 112.589844 91.585938 113.519531 91.855469 114.941406 " fill-opacity="1" fill-rule="nonzero"/></g></g><g clip-path="url(#871d7b5d40)"><g clip-path="url(#c6a2c35528)"><path fill="#5479f7" d="M 87.789062 114.839844 C 88.128906 116.628906 86.953125 118.359375 85.164062 118.703125 C 83.371094 119.042969 81.644531 117.867188 81.300781 116.074219 C 80.960938 114.28125 82.136719 112.550781 83.929688 112.210938 C 85.71875 111.871094 87.449219 113.042969 87.789062 114.839844 " fill-opacity="1" fill-rule="nonzero"/></g></g><g clip-path="url(#94dae64651)"><g clip-path="url(#d817ffaa80)"><path fill="#5479f7" d="M 84.121094 117.574219 C 84.582031 120 82.992188 122.339844 80.570312 122.800781 C 78.144531 123.261719 75.808594 121.671875 75.347656 119.246094 C 74.886719 116.820312 76.476562 114.480469 78.898438 114.015625 C 81.324219 113.554688 83.660156 115.148438 84.121094 117.574219 " fill-opacity="1" fill-rule="nonzero"/></g></g><g clip-path="url(#5b63e822b4)"><g clip-path="url(#1f8b657890)"><path fill="#5479f7" d="M 73.882812 115.699219 C 76.050781 115.289062 78.140625 116.710938 78.550781 118.875 C 78.960938 121.042969 77.542969 123.136719 75.378906 123.546875 C 73.210938 123.960938 71.125 122.539062 70.710938 120.371094 C 70.300781 118.203125 71.71875 116.113281 73.882812 115.699219 " fill-opacity="1" fill-rule="nonzero"/></g></g><g clip-path="url(#2d8a906751)"><g clip-path="url(#da97ab82e2)"><path fill="#5479f7" d="M 70.300781 118.214844 C 72.65625 117.765625 74.929688 119.316406 75.375 121.671875 C 75.824219 124.027344 74.277344 126.300781 71.925781 126.75 C 69.570312 127.199219 67.296875 125.652344 66.847656 123.296875 C 66.402344 120.9375 67.945312 118.664062 70.300781 118.214844 " fill-opacity="1" fill-rule="nonzero"/></g></g><g clip-path="url(#40188dd7e6)"><g clip-path="url(#8bd6e814e3)"><path fill="#5479f7" d="M 69.015625 126.429688 C 69.320312 128.027344 68.269531 129.574219 66.667969 129.878906 C 65.070312 130.183594 63.527344 129.132812 63.222656 127.53125 C 62.917969 125.929688 63.96875 124.386719 65.566406 124.082031 C 67.167969 123.777344 68.710938 124.828125 69.015625 126.429688 " fill-opacity="1" fill-rule="nonzero"/></g></g><g clip-path="url(#746f046fdf)"><g clip-path="url(#3f83406b77)"><path fill="#eef4ff" d="M 178.988281 211.632812 C 178.988281 211.632812 177.800781 202.738281 182.078125 199.648438 C 185.316406 197.308594 190.03125 195.851562 191.859375 195.304688 C 192.390625 195.148438 193.378906 195.261719 193.609375 195.765625 C 193.609375 195.765625 194.019531 196.726562 192.648438 197.371094 L 188.695312 199.027344 C 188.320312 199.199219 188.265625 199.703125 188.589844 199.957031 C 189.589844 200.726562 191.398438 202.871094 191.691406 204.039062 C 192.175781 205.988281 191.136719 207.71875 189.28125 209.3125 C 187.421875 210.90625 186.933594 211.210938 186.84375 211.632812 C 186.757812 212.058594 183.671875 215.667969 183.671875 215.667969 L 178.988281 211.632812 " fill-opacity="1" fill-rule="nonzero"/></g></g><g clip-path="url(#733a012790)"><g clip-path="url(#9e04bc174b)"><path fill="#5479f7" d="M 179.285156 211.476562 L 183.640625 215.226562 C 185.019531 213.601562 186.4375 211.839844 186.546875 211.554688 C 186.628906 211.140625 186.945312 210.875 187.992188 209.996094 C 188.289062 209.746094 188.644531 209.445312 189.078125 209.078125 C 191.042969 207.386719 191.800781 205.765625 191.386719 204.113281 C 191.121094 203.039062 189.363281 200.945312 188.398438 200.203125 C 188.160156 200.015625 188.039062 199.726562 188.070312 199.429688 C 188.105469 199.128906 188.289062 198.871094 188.558594 198.742188 L 192.527344 197.085938 C 193.5625 196.597656 193.347656 195.957031 193.320312 195.886719 C 193.191406 195.597656 192.402344 195.46875 191.949219 195.605469 C 187.730469 196.859375 184.472656 198.300781 182.261719 199.902344 C 178.441406 202.664062 179.167969 210.429688 179.285156 211.476562 Z M 183.671875 215.976562 C 183.601562 215.976562 183.527344 215.953125 183.46875 215.902344 L 178.785156 211.871094 C 178.730469 211.820312 178.691406 211.75 178.679688 211.675781 C 178.632812 211.304688 177.519531 202.558594 181.894531 199.394531 C 184.164062 197.753906 187.488281 196.28125 191.773438 195.007812 C 192.429688 194.808594 193.585938 194.960938 193.890625 195.636719 C 194.078125 196.070312 194.082031 197.042969 192.78125 197.65625 L 188.8125 199.3125 C 188.71875 199.359375 188.695312 199.457031 188.691406 199.496094 C 188.6875 199.535156 188.6875 199.636719 188.78125 199.710938 C 189.828125 200.519531 191.679688 202.710938 191.992188 203.964844 C 192.46875 205.867188 191.644531 207.695312 189.480469 209.550781 C 189.050781 209.921875 188.691406 210.222656 188.394531 210.472656 C 187.523438 211.203125 187.195312 211.476562 187.148438 211.699219 C 187.058594 212.136719 185.082031 214.5 183.910156 215.871094 C 183.855469 215.933594 183.78125 215.972656 183.695312 215.976562 C 183.691406 215.976562 183.683594 215.976562 183.671875 215.976562 " fill-opacity="1" fill-rule="nonzero"/></g></g><g clip-path="url(#f662f2473c)"><g clip-path="url(#fd98ca1f6e)"><path fill="#eef4ff" d="M 177.816406 208.28125 L 162.222656 221.761719 C 159.773438 223.878906 156.085938 223.675781 153.882812 221.300781 C 145.476562 212.242188 126.214844 191.445312 121.777344 186.308594 C 117.554688 181.347656 111.277344 175.84375 103.695312 174.945312 C 98.828125 174.367188 94.550781 174.675781 91.027344 175.335938 C 88.667969 175.773438 86.460938 176.671875 84.507812 177.9375 C 70.046875 182.027344 49.328125 204.78125 48.15625 215.097656 C 47.234375 223.179688 55.394531 230.988281 59.28125 234.714844 L 52.214844 253.441406 L 108.1875 264.902344 L 118.253906 228.511719 L 136.015625 239.179688 C 148.679688 247.59375 165.347656 249.484375 173.71875 238.910156 C 177.988281 233.515625 182.378906 225.898438 185.917969 215.667969 L 177.816406 208.28125 " fill-opacity="1" fill-rule="nonzero"/></g></g><g clip-path="url(#cc0b7e4be1)"><g clip-path="url(#845194c166)"><path fill="#5479f7" d="M 52.636719 253.210938 L 107.964844 264.539062 L 117.953125 228.425781 C 117.980469 228.332031 118.046875 228.257812 118.136719 228.222656 C 118.226562 228.183594 118.332031 228.191406 118.414062 228.242188 L 136.175781 238.910156 C 148.277344 246.953125 164.964844 249.460938 173.472656 238.714844 C 178.320312 232.59375 182.386719 224.871094 185.558594 215.757812 L 177.808594 208.695312 L 162.425781 221.996094 C 159.835938 224.234375 155.984375 224.023438 153.652344 221.515625 C 145.484375 212.707031 126 191.671875 121.539062 186.511719 C 117.597656 181.875 111.292969 176.160156 103.660156 175.253906 C 99.398438 174.75 95.167969 174.878906 91.085938 175.640625 C 88.792969 176.070312 86.636719 176.929688 84.675781 178.199219 C 84.648438 178.214844 84.621094 178.230469 84.589844 178.238281 C 70.351562 182.265625 49.628906 204.90625 48.464844 215.132812 C 47.5625 223.050781 55.613281 230.765625 59.484375 234.476562 C 59.574219 234.5625 59.617188 234.707031 59.574219 234.824219 Z M 108.191406 265.214844 C 108.167969 265.214844 108.148438 265.210938 108.128906 265.207031 L 52.152344 253.75 C 52.066406 253.730469 51.988281 253.671875 51.945312 253.59375 C 51.898438 253.515625 51.894531 253.417969 51.925781 253.332031 L 58.917969 234.796875 C 54.910156 230.953125 46.921875 223.1875 47.84375 215.0625 C 48.414062 210.050781 53.503906 201.964844 61.121094 193.96875 C 69.054688 185.636719 77.746094 179.542969 84.378906 177.652344 C 86.394531 176.351562 88.613281 175.46875 90.972656 175.027344 C 95.113281 174.253906 99.410156 174.121094 103.734375 174.636719 C 111.566406 175.566406 118 181.386719 122.011719 186.109375 C 126.464844 191.253906 145.941406 212.285156 154.109375 221.089844 C 156.210938 223.351562 159.683594 223.542969 162.019531 221.523438 L 177.613281 208.042969 C 177.730469 207.941406 177.910156 207.941406 178.023438 208.050781 L 186.128906 215.4375 C 186.222656 215.519531 186.253906 215.652344 186.214844 215.765625 C 183.007812 225.03125 178.886719 232.882812 173.960938 239.101562 C 165.21875 250.144531 148.171875 247.628906 135.84375 239.4375 L 118.445312 228.988281 L 108.488281 264.984375 C 108.453125 265.125 108.328125 265.214844 108.191406 265.214844 " fill-opacity="1" fill-rule="nonzero"/></g></g><g clip-path="url(#6ea1eb6355)"><g clip-path="url(#8ea011a5d6)"><path fill="#5479f7" d="M 60.703125 231.261719 C 60.664062 231.261719 60.625 231.25 60.585938 231.238281 C 60.425781 231.171875 60.347656 230.988281 60.414062 230.832031 L 73.085938 199.65625 C 73.152344 199.496094 73.332031 199.417969 73.492188 199.484375 C 73.652344 199.550781 73.730469 199.730469 73.664062 199.890625 L 60.992188 231.066406 C 60.941406 231.1875 60.824219 231.261719 60.703125 231.261719 " fill-opacity="1" fill-rule="nonzero"/></g></g><g clip-path="url(#af95e5b806)"><g clip-path="url(#de49c4be99)"><path fill="#5479f7" d="M 96.085938 245.175781 C 96.054688 245.175781 96.027344 245.171875 95.996094 245.164062 C 95.832031 245.117188 95.738281 244.941406 95.785156 244.777344 C 95.824219 244.652344 99.609375 232.257812 113.675781 225.363281 C 113.832031 225.285156 114.015625 225.351562 114.09375 225.503906 C 114.167969 225.660156 114.105469 225.84375 113.949219 225.921875 C 100.128906 232.699219 96.417969 244.832031 96.382812 244.953125 C 96.34375 245.089844 96.21875 245.175781 96.085938 245.175781 " fill-opacity="1" fill-rule="nonzero"/></g></g><path fill="#eef4ff" d="M 280.671875 201.265625 C 282.6875 201.265625 284.324219 202.902344 284.324219 204.917969 L 284.324219 230.058594 C 284.324219 232.078125 282.6875 233.714844 280.671875 233.714844 L 211.425781 233.714844 C 209.410156 233.714844 207.777344 232.078125 207.777344 230.058594 L 207.777344 204.917969 C 207.777344 202.902344 209.410156 201.265625 211.425781 201.265625 L 280.671875 201.265625 " fill-opacity="1" fill-rule="nonzero"/><path fill="#5479f7" d="M 280.671875 234.027344 L 211.425781 234.027344 C 209.238281 234.027344 207.460938 232.246094 207.460938 230.058594 L 207.460938 204.917969 C 207.460938 202.734375 209.238281 200.953125 211.425781 200.953125 L 225.082031 200.953125 C 225.257812 200.953125 225.394531 201.09375 225.394531 201.265625 C 225.394531 201.4375 225.257812 201.578125 225.082031 201.578125 L 211.425781 201.578125 C 209.582031 201.578125 208.085938 203.078125 208.085938 204.917969 L 208.085938 230.058594 C 208.085938 231.902344 209.582031 233.402344 211.425781 233.402344 L 280.671875 233.402344 C 282.511719 233.402344 284.007812 231.902344 284.007812 230.058594 L 284.007812 204.917969 C 284.007812 203.078125 282.511719 201.578125 280.671875 201.578125 L 234.289062 201.578125 C 234.117188 201.578125 233.980469 201.4375 233.980469 201.265625 C 233.980469 201.09375 234.117188 200.953125 234.289062 200.953125 L 280.671875 200.953125 C 282.855469 200.953125 284.632812 202.734375 284.632812 204.917969 L 284.632812 230.058594 C 284.632812 232.246094 282.855469 234.027344 280.671875 234.027344 " fill-opacity="1" fill-rule="nonzero"/><path fill="#5479f7" d="M 274.214844 213.542969 L 219.183594 213.542969 C 219.007812 213.542969 218.871094 213.402344 218.871094 213.234375 C 218.871094 213.0625 219.007812 212.921875 219.183594 212.921875 L 274.214844 212.921875 C 274.386719 212.921875 274.527344 213.0625 274.527344 213.234375 C 274.527344 213.402344 274.386719 213.542969 274.214844 213.542969 " fill-opacity="1" fill-rule="nonzero"/><path fill="#5479f7" d="M 274.214844 220.90625 L 262.710938 220.90625 C 262.539062 220.90625 262.398438 220.765625 262.398438 220.59375 C 262.398438 220.421875 262.539062 220.28125 262.710938 220.28125 L 274.214844 220.28125 C 274.386719 220.28125 274.527344 220.421875 274.527344 220.59375 C 274.527344 220.765625 274.386719 220.90625 274.214844 220.90625 " fill-opacity="1" fill-rule="nonzero"/><path fill="#5479f7" d="M 255.355469 220.90625 L 219.179688 220.90625 C 219.007812 220.90625 218.871094 220.765625 218.871094 220.59375 C 218.871094 220.421875 219.007812 220.28125 219.179688 220.28125 L 255.355469 220.28125 C 255.523438 220.28125 255.667969 220.421875 255.667969 220.59375 C 255.667969 220.765625 255.523438 220.90625 255.355469 220.90625 " fill-opacity="1" fill-rule="nonzero"/><path fill="#eef4ff" d="M 190.625 39.8125 C 190.625 46.5 185.210938 51.917969 178.53125 51.917969 C 171.851562 51.917969 166.4375 46.5 166.4375 39.8125 C 166.4375 33.128906 171.851562 27.710938 178.53125 27.710938 C 185.210938 27.710938 190.625 33.128906 190.625 39.8125 " fill-opacity="1" fill-rule="nonzero"/><path fill="#5479f7" d="M 178.535156 28.019531 C 172.035156 28.019531 166.75 33.308594 166.75 39.8125 C 166.75 46.316406 172.035156 51.605469 178.535156 51.605469 C 185.03125 51.605469 190.316406 46.316406 190.316406 39.8125 C 190.316406 33.308594 185.03125 28.019531 178.535156 28.019531 Z M 178.535156 52.226562 C 171.695312 52.226562 166.128906 46.660156 166.128906 39.8125 C 166.128906 32.964844 171.695312 27.394531 178.535156 27.394531 C 185.375 27.394531 190.9375 32.964844 190.9375 39.8125 C 190.9375 46.660156 185.375 52.226562 178.535156 52.226562 " fill-opacity="1" fill-rule="nonzero"/><path fill="#5479f7" d="M 187.257812 39.8125 C 187.257812 44.636719 183.351562 48.546875 178.53125 48.546875 C 173.714844 48.546875 169.808594 44.636719 169.808594 39.8125 C 169.808594 34.992188 173.714844 31.078125 178.53125 31.078125 C 183.351562 31.078125 187.257812 34.992188 187.257812 39.8125 " fill-opacity="1" fill-rule="nonzero"/><path fill="#eef4ff" d="M 272.960938 23.589844 C 274.976562 23.589844 276.613281 25.222656 276.613281 27.242188 L 276.613281 52.382812 C 276.613281 54.402344 274.976562 56.035156 272.960938 56.035156 L 203.714844 56.035156 C 201.695312 56.035156 200.0625 54.402344 200.0625 52.382812 L 200.0625 27.242188 C 200.0625 25.222656 201.695312 23.589844 203.714844 23.589844 L 272.960938 23.589844 " fill-opacity="1" fill-rule="nonzero"/><path fill="#5479f7" d="M 272.960938 56.347656 L 203.710938 56.347656 C 201.527344 56.347656 199.75 54.570312 199.75 52.382812 L 199.75 27.242188 C 199.75 25.054688 201.527344 23.277344 203.710938 23.277344 L 217.371094 23.277344 C 217.546875 23.277344 217.683594 23.417969 217.683594 23.589844 C 217.683594 23.761719 217.546875 23.902344 217.371094 23.902344 L 203.710938 23.902344 C 201.871094 23.902344 200.375 25.398438 200.375 27.242188 L 200.375 52.382812 C 200.375 54.226562 201.871094 55.726562 203.710938 55.726562 L 272.960938 55.726562 C 274.800781 55.726562 276.300781 54.226562 276.300781 52.382812 L 276.300781 27.242188 C 276.300781 25.398438 274.800781 23.902344 272.960938 23.902344 L 226.578125 23.902344 C 226.40625 23.902344 226.265625 23.761719 226.265625 23.589844 C 226.265625 23.417969 226.40625 23.277344 226.578125 23.277344 L 272.960938 23.277344 C 275.144531 23.277344 276.921875 25.054688 276.921875 27.242188 L 276.921875 52.382812 C 276.921875 54.570312 275.144531 56.347656 272.960938 56.347656 " fill-opacity="1" fill-rule="nonzero"/><path fill="#5479f7" d="M 266.503906 35.867188 L 211.46875 35.867188 C 211.300781 35.867188 211.160156 35.726562 211.160156 35.554688 C 211.160156 35.382812 211.300781 35.242188 211.46875 35.242188 L 266.503906 35.242188 C 266.679688 35.242188 266.816406 35.382812 266.816406 35.554688 C 266.816406 35.726562 266.679688 35.867188 266.503906 35.867188 " fill-opacity="1" fill-rule="nonzero"/><path fill="#5479f7" d="M 266.507812 43.230469 L 255 43.230469 C 254.824219 43.230469 254.6875 43.089844 254.6875 42.917969 C 254.6875 42.746094 254.824219 42.605469 255 42.605469 L 266.507812 42.605469 C 266.675781 42.605469 266.816406 42.746094 266.816406 42.917969 C 266.816406 43.089844 266.675781 43.230469 266.507812 43.230469 " fill-opacity="1" fill-rule="nonzero"/><path fill="#5479f7" d="M 247.640625 43.230469 L 211.46875 43.230469 C 211.296875 43.230469 211.160156 43.089844 211.160156 42.917969 C 211.160156 42.746094 211.296875 42.605469 211.46875 42.605469 L 247.640625 42.605469 C 247.816406 42.605469 247.953125 42.746094 247.953125 42.917969 C 247.953125 43.089844 247.816406 43.230469 247.640625 43.230469 " fill-opacity="1" fill-rule="nonzero"/><path fill="#eef4ff" d="M 154.714844 37.996094 L 83.902344 37.996094 C 81.296875 37.996094 79.183594 40.109375 79.183594 42.722656 C 79.183594 45.332031 81.296875 47.445312 83.902344 47.445312 L 154.714844 47.445312 C 157.320312 47.445312 159.4375 45.332031 159.4375 42.722656 C 159.4375 40.109375 157.320312 37.996094 154.714844 37.996094 " fill-opacity="1" fill-rule="nonzero"/><path fill="#5479f7" d="M 83.902344 38.308594 C 81.472656 38.308594 79.496094 40.285156 79.496094 42.71875 C 79.496094 45.152344 81.472656 47.132812 83.902344 47.132812 L 154.714844 47.132812 C 157.148438 47.132812 159.125 45.152344 159.125 42.71875 C 159.125 40.285156 157.148438 38.308594 154.714844 38.308594 Z M 154.714844 47.757812 L 83.902344 47.757812 C 81.128906 47.757812 78.871094 45.496094 78.871094 42.71875 C 78.871094 39.941406 81.128906 37.683594 83.902344 37.683594 L 154.714844 37.683594 C 157.492188 37.683594 159.75 39.941406 159.75 42.71875 C 159.75 45.496094 157.492188 47.757812 154.714844 47.757812 " fill-opacity="1" fill-rule="nonzero"/><path fill="#eef4ff" d="M 107.859375 22.945312 L 68.746094 22.945312 C 66.328125 22.945312 64.363281 24.910156 64.363281 27.335938 C 64.363281 29.757812 66.328125 31.71875 68.746094 31.71875 L 107.859375 31.71875 C 110.277344 31.71875 112.242188 29.757812 112.242188 27.335938 C 112.242188 24.910156 110.277344 22.945312 107.859375 22.945312 " fill-opacity="1" fill-rule="nonzero"/><path fill="#5479f7" d="M 68.746094 23.253906 C 66.503906 23.253906 64.675781 25.085938 64.675781 27.332031 C 64.675781 29.578125 66.503906 31.40625 68.746094 31.40625 L 107.859375 31.40625 C 110.101562 31.40625 111.929688 29.578125 111.929688 27.332031 C 111.929688 25.085938 110.101562 23.253906 107.859375 23.253906 Z M 107.859375 32.03125 L 68.746094 32.03125 C 66.160156 32.03125 64.050781 29.921875 64.050781 27.332031 C 64.050781 24.742188 66.160156 22.632812 68.746094 22.632812 L 107.859375 22.632812 C 110.445312 22.632812 112.554688 24.742188 112.554688 27.332031 C 112.554688 29.921875 110.445312 32.03125 107.859375 32.03125 " fill-opacity="1" fill-rule="nonzero"/><path fill="#eef4ff" d="M 125.671875 27.335938 C 125.671875 29.757812 123.707031 31.71875 121.285156 31.71875 C 118.867188 31.71875 116.902344 29.757812 116.902344 27.335938 C 116.902344 24.910156 118.867188 22.945312 121.285156 22.945312 C 123.707031 22.945312 125.671875 24.910156 125.671875 27.335938 " fill-opacity="1" fill-rule="nonzero"/><path fill="#5479f7" d="M 121.289062 23.253906 C 119.042969 23.253906 117.214844 25.085938 117.214844 27.332031 C 117.214844 29.578125 119.042969 31.40625 121.289062 31.40625 C 123.53125 31.40625 125.359375 29.578125 125.359375 27.332031 C 125.359375 25.085938 123.53125 23.253906 121.289062 23.253906 Z M 121.289062 32.03125 C 118.699219 32.03125 116.59375 29.921875 116.59375 27.332031 C 116.59375 24.742188 118.699219 22.632812 121.289062 22.632812 C 123.875 22.632812 125.984375 24.742188 125.984375 27.332031 C 125.984375 29.921875 123.875 32.03125 121.289062 32.03125 " fill-opacity="1" fill-rule="nonzero"/><path fill="#5479f7" d="M 225.472656 243.695312 L 185.558594 243.695312 C 185.386719 243.695312 185.246094 243.554688 185.246094 243.382812 C 185.246094 243.210938 185.386719 243.070312 185.558594 243.070312 L 225.472656 243.070312 C 225.648438 243.070312 225.785156 243.210938 225.785156 243.382812 C 225.785156 243.554688 225.648438 243.695312 225.472656 243.695312 " fill-opacity="1" fill-rule="nonzero"/><path fill="#5479f7" d="M 259.660156 252.113281 L 207.855469 252.113281 C 207.683594 252.113281 207.546875 251.976562 207.546875 251.804688 C 207.546875 251.632812 207.683594 251.492188 207.855469 251.492188 L 259.660156 251.492188 C 259.832031 251.492188 259.972656 251.632812 259.972656 251.804688 C 259.972656 251.976562 259.832031 252.113281 259.660156 252.113281 " fill-opacity="1" fill-rule="nonzero"/><path fill="#5479f7" d="M 267.367188 255.234375 C 265.476562 255.234375 263.9375 253.695312 263.9375 251.804688 C 263.9375 249.914062 265.476562 248.371094 267.367188 248.371094 C 267.539062 248.371094 267.679688 248.511719 267.679688 248.683594 C 267.679688 248.855469 267.539062 248.996094 267.367188 248.996094 C 265.820312 248.996094 264.5625 250.253906 264.5625 251.804688 C 264.5625 253.351562 265.820312 254.609375 267.367188 254.609375 C 268.914062 254.609375 270.171875 253.351562 270.171875 251.804688 C 270.171875 251.632812 270.308594 251.492188 270.480469 251.492188 C 270.652344 251.492188 270.792969 251.632812 270.792969 251.804688 C 270.792969 253.695312 269.253906 255.234375 267.367188 255.234375 " fill-opacity="1" fill-rule="nonzero"/></svg>