<svg xmlns="http://www.w3.org/2000/svg" xmlns:xlink="http://www.w3.org/1999/xlink" width="461" zoomAndPan="magnify" viewBox="0 0 345.75 273.749983" height="365" preserveAspectRatio="xMidYMid meet" version="1.0"><path fill="#caddff" d="M 170.433594 5.828125 C 164.375 6.652344 137.433594 10.691406 108.207031 28.519531 C 101.128906 32.84375 72.507812 50.304688 56.9375 77.632812 C 30.429688 124.15625 39.453125 203.246094 96.933594 244.097656 C 163.886719 291.683594 263.289062 263.734375 294.085938 209.109375 C 307.746094 184.882812 315.367188 142.179688 296.652344 110.019531 C 281.589844 84.140625 251.113281 67.914062 255.980469 46.652344 C 258.324219 36.410156 266.609375 34.867188 265.539062 27.988281 C 263.007812 11.675781 213.242188 0 170.433594 5.828125 " fill-opacity="1" fill-rule="nonzero"/><path fill="#5479f7" d="M 235.714844 71.761719 C 232.632812 71.761719 229.597656 71.988281 226.621094 72.425781 C 215.429688 74.078125 204.023438 73.953125 192.972656 71.523438 C 187.890625 70.410156 182.628906 69.824219 177.234375 69.824219 C 134.570312 69.824219 99.984375 106.472656 99.984375 151.683594 C 99.984375 196.894531 141.203125 233.542969 183.867188 233.542969 C 187.78125 233.542969 191.570312 233.234375 195.226562 232.636719 C 203.542969 231.28125 212 230.890625 220.398438 231.601562 C 222.058594 231.742188 223.753906 231.816406 225.484375 231.816406 C 264.269531 231.816406 305.941406 195.984375 305.941406 151.789062 C 305.941406 107.589844 274.5 71.761719 235.714844 71.761719 " fill-opacity="1" fill-rule="nonzero"/><path fill="#000000" d="M 177.234375 70.304688 C 134.90625 70.304688 100.46875 106.808594 100.46875 151.683594 C 100.46875 195.03125 139.4375 233.058594 183.867188 233.058594 C 187.695312 233.058594 191.492188 232.753906 195.148438 232.160156 C 203.679688 230.769531 212.1875 230.417969 220.4375 231.121094 C 222.089844 231.261719 223.785156 231.332031 225.484375 231.332031 C 262.46875 231.332031 305.457031 196.585938 305.457031 151.789062 C 305.457031 107.929688 274.171875 72.246094 235.714844 72.246094 C 232.699219 72.246094 229.664062 72.46875 226.691406 72.90625 C 214.910156 74.644531 203.527344 74.339844 192.871094 71.996094 C 187.761719 70.875 182.5 70.304688 177.234375 70.304688 Z M 183.867188 234.027344 C 163.003906 234.027344 141.765625 225.238281 125.59375 209.917969 C 117.519531 202.269531 111.144531 193.464844 106.652344 183.75 C 101.90625 173.492188 99.5 162.703125 99.5 151.683594 C 99.5 129.691406 107.582031 109.015625 122.257812 93.464844 C 136.941406 77.90625 156.464844 69.335938 177.234375 69.335938 C 182.566406 69.335938 187.898438 69.914062 193.078125 71.050781 C 203.621094 73.367188 214.882812 73.667969 226.550781 71.949219 C 229.570312 71.503906 232.652344 71.277344 235.714844 71.277344 C 254.617188 71.277344 272.378906 79.660156 285.738281 94.878906 C 299.078125 110.082031 306.425781 130.292969 306.425781 151.789062 C 306.425781 162.507812 304.015625 173.058594 299.261719 183.144531 C 294.808594 192.589844 288.527344 201.195312 280.589844 208.726562 C 272.980469 215.949219 263.996094 221.910156 254.609375 225.96875 C 245.042969 230.109375 234.972656 232.300781 225.484375 232.300781 C 223.761719 232.300781 222.035156 232.226562 220.359375 232.085938 C 212.183594 231.390625 203.753906 231.738281 195.304688 233.117188 C 191.597656 233.722656 187.746094 234.027344 183.867188 234.027344 " fill-opacity="1" fill-rule="nonzero"/><path fill="#99b9ff" d="M 166.898438 85.550781 L 164.195312 85.078125 C 156.167969 83.683594 147.898438 85.941406 142.003906 91.195312 C 127.695312 103.941406 119.824219 117.714844 115.511719 128.523438 C 111.621094 138.285156 118.824219 148.8125 129.964844 149.695312 C 142.101562 150.65625 153.433594 143.832031 157.339844 133.089844 C 161.367188 122.023438 168.304688 111.847656 174.609375 104.097656 C 180.246094 97.171875 176.074219 87.144531 166.898438 85.550781 " fill-opacity="1" fill-rule="nonzero"/><path fill="#000000" d="M 184.351562 78.011719 Z M 204.863281 85.253906 C 204.847656 85.253906 204.832031 85.253906 204.816406 85.253906 C 196.523438 85.246094 190.476562 82.765625 187.605469 81.289062 C 186.167969 80.546875 183.4375 78.921875 183.382812 78.074219 C 183.367188 77.804688 183.570312 77.578125 183.835938 77.558594 C 184.066406 77.546875 184.277344 77.699219 184.335938 77.917969 C 184.683594 78.449219 188.4375 81.335938 195.011719 83.046875 C 203.085938 85.148438 215.96875 85.625 231.46875 75.980469 C 231.695312 75.835938 231.996094 75.90625 232.136719 76.132812 C 232.277344 76.359375 232.207031 76.660156 231.980469 76.800781 C 222.964844 82.410156 213.839844 85.253906 204.863281 85.253906 " fill-opacity="1" fill-rule="nonzero"/><path fill="#ffffff" d="M 204.285156 84.769531 C 204.285156 84.769531 186.058594 29.304688 239.9375 2.089844 C 239.9375 2.089844 267.164062 82.535156 204.285156 84.769531 " fill-opacity="1" fill-rule="nonzero"/><path fill="#000000" d="M 239.652344 2.777344 C 212.433594 16.738281 204.359375 38.128906 202.394531 53.660156 C 200.433594 69.136719 203.96875 82.023438 204.640625 84.273438 C 219.679688 83.660156 230.714844 78.414062 237.445312 68.675781 C 245.929688 56.386719 246.039062 38.992188 244.632812 26.5625 C 243.300781 14.769531 240.390625 5.105469 239.652344 2.777344 Z M 204.289062 85.257812 C 204.078125 85.257812 203.890625 85.121094 203.828125 84.921875 C 203.78125 84.78125 199.261719 70.753906 201.429688 53.574219 C 202.703125 43.476562 206 34.273438 211.230469 26.226562 C 217.769531 16.167969 227.351562 7.902344 239.722656 1.65625 C 239.847656 1.589844 239.992188 1.585938 240.125 1.640625 C 240.253906 1.691406 240.355469 1.800781 240.398438 1.929688 C 240.433594 2.039062 244.058594 12.847656 245.59375 26.453125 C 247.019531 39.046875 246.898438 56.691406 238.238281 69.222656 C 231.277344 79.308594 219.859375 84.703125 204.304688 85.257812 C 204.296875 85.257812 204.292969 85.257812 204.289062 85.257812 " fill-opacity="1" fill-rule="nonzero"/><path fill="#000000" d="M 207.796875 81.066406 C 207.675781 81.066406 207.554688 81.019531 207.460938 80.929688 C 207.269531 80.746094 207.261719 80.441406 207.445312 80.246094 C 227.75 58.957031 229.511719 24.726562 229.527344 24.382812 C 229.539062 24.117188 229.757812 23.910156 230.03125 23.921875 C 230.300781 23.933594 230.503906 24.160156 230.496094 24.429688 C 230.488281 24.515625 230.070312 33.238281 227.121094 44.492188 C 224.394531 54.890625 218.890625 69.648438 208.148438 80.914062 C 208.050781 81.015625 207.921875 81.066406 207.796875 81.066406 " fill-opacity="1" fill-rule="nonzero"/><path fill="#000000" d="M 196.847656 83.96875 C 196.070312 83.90625 199.851562 57.953125 181.984375 42.574219 C 181.984375 42.574219 185.03125 28.019531 195.175781 33.402344 C 216.050781 44.480469 204.285156 84.769531 204.285156 84.769531 L 196.847656 83.96875 " fill-opacity="1" fill-rule="nonzero"/><path fill="#5479f7" d="M 197.140625 190.242188 C 197.140625 190.242188 183.132812 198.78125 133.90625 196.375 C 90.605469 194.253906 64.515625 164.585938 64.515625 164.585938 C 64.136719 173.34375 39.675781 263.117188 130.449219 259.929688 C 137.5 259.683594 160.832031 258.828125 176.78125 244.550781 C 199.804688 223.9375 197.472656 193.769531 197.140625 190.242188 " fill-opacity="1" fill-rule="nonzero"/><path fill="#000000" d="M 64.894531 165.703125 C 64.777344 166.617188 64.574219 167.859375 64.324219 169.382812 C 62.097656 182.96875 56.191406 219.058594 75.695312 241.21875 C 87.109375 254.1875 105.523438 260.320312 130.433594 259.449219 C 150.449219 258.746094 165.933594 253.613281 176.457031 244.1875 C 197.800781 225.082031 197.253906 197.960938 196.71875 191.015625 C 193.410156 192.644531 177.492188 198.992188 133.882812 196.859375 C 111.410156 195.757812 93.652344 187.132812 82.710938 180.09375 C 73.113281 173.914062 66.933594 167.832031 64.894531 165.703125 Z M 125.847656 260.5 C 102.964844 260.5 85.863281 254.238281 74.964844 241.859375 C 55.160156 219.355469 61.121094 182.9375 63.367188 169.226562 C 63.730469 167 63.996094 165.390625 64.03125 164.566406 C 64.039062 164.367188 64.167969 164.195312 64.355469 164.128906 C 64.539062 164.0625 64.746094 164.117188 64.878906 164.265625 C 64.941406 164.339844 71.511719 171.738281 83.265625 179.296875 C 94.097656 186.265625 111.683594 194.800781 133.929688 195.890625 C 182.445312 198.261719 196.75 189.910156 196.886719 189.828125 C 197.03125 189.742188 197.207031 189.734375 197.355469 189.808594 C 197.503906 189.882812 197.605469 190.03125 197.621094 190.195312 C 197.839844 192.507812 198.378906 200.839844 196.191406 211.089844 C 193.265625 224.8125 186.84375 236.191406 177.101562 244.910156 C 170.253906 251.042969 161.265625 255.4375 150.390625 257.972656 C 141.585938 260.023438 133.792969 260.296875 130.464844 260.417969 C 128.902344 260.472656 127.359375 260.5 125.847656 260.5 " fill-opacity="1" fill-rule="nonzero"/><path fill="#ffffff" d="M 201.710938 183.972656 C 201.710938 183.972656 187.703125 192.511719 138.480469 190.105469 C 95.179688 187.988281 64.515625 164.585938 64.515625 164.585938 C 64.136719 173.34375 64.296875 197.632812 80.792969 220.1875 C 84.648438 225.460938 105.40625 253.84375 139.691406 253.796875 C 146.746094 253.785156 165.40625 252.554688 181.351562 238.28125 C 204.378906 217.667969 202.042969 187.5 201.710938 183.972656 " fill-opacity="1" fill-rule="nonzero"/><path fill="#000000" d="M 64.964844 165.511719 C 64.574219 177.449219 66.308594 199.5625 81.183594 219.902344 C 90.3125 232.382812 110.039062 253.3125 139.601562 253.3125 C 139.632812 253.3125 139.660156 253.3125 139.691406 253.3125 C 148.722656 253.300781 166.101562 251.28125 181.027344 237.917969 C 202.375 218.808594 201.828125 191.691406 201.289062 184.746094 C 197.980469 186.375 182.0625 192.722656 138.453125 190.589844 C 116.007812 189.488281 97.027344 182.585938 85.054688 176.988281 C 74.363281 171.992188 67.199219 167.109375 64.964844 165.511719 Z M 139.601562 254.28125 C 125.0625 254.28125 111.246094 249.265625 98.535156 239.371094 C 88.523438 231.578125 82.410156 223.21875 80.402344 220.472656 C 64.96875 199.371094 63.519531 176.386719 64.03125 164.566406 C 64.039062 164.382812 64.144531 164.222656 64.308594 164.148438 C 64.472656 164.070312 64.664062 164.089844 64.808594 164.199219 C 64.886719 164.257812 72.601562 170.101562 85.492188 176.125 C 97.378906 181.679688 116.226562 188.53125 138.5 189.621094 C 186.917969 191.988281 201.320312 183.640625 201.460938 183.558594 C 201.605469 183.472656 201.78125 183.464844 201.929688 183.539062 C 202.078125 183.613281 202.179688 183.761719 202.191406 183.925781 C 202.410156 186.238281 202.953125 194.570312 200.765625 204.820312 C 197.835938 218.542969 191.414062 229.921875 181.675781 238.640625 C 166.507812 252.21875 148.859375 254.269531 139.691406 254.28125 C 139.660156 254.28125 139.632812 254.28125 139.601562 254.28125 " fill-opacity="1" fill-rule="nonzero"/><path fill="#000000" d="M 148.527344 199.050781 C 148.527344 199.050781 117.9375 222.207031 113.972656 204.914062 C 108.960938 183.039062 148.527344 199.050781 148.527344 199.050781 " fill-opacity="1" fill-rule="nonzero"/><path fill="#caddff" d="M 131.472656 225.046875 C 118.367188 225.046875 106.335938 216.980469 102.34375 204.296875 C 100.832031 199.496094 100.597656 194.347656 101.671875 189.410156 C 101.726562 189.148438 101.984375 188.980469 102.246094 189.039062 C 102.507812 189.097656 102.671875 189.351562 102.617188 189.613281 C 101.582031 194.386719 101.808594 199.363281 103.269531 204.003906 C 108.078125 219.289062 124.960938 227.640625 140.898438 222.621094 C 153.027344 218.804688 161.644531 208.023438 162.335938 195.796875 C 162.355469 195.53125 162.574219 195.328125 162.847656 195.34375 C 163.117188 195.355469 163.320312 195.585938 163.304688 195.855469 C 162.589844 208.480469 153.699219 219.609375 141.191406 223.546875 C 137.957031 224.566406 134.679688 225.046875 131.472656 225.046875 " fill-opacity="1" fill-rule="nonzero"/><path fill="#ffffff" d="M 139.382812 121.265625 L 141 119.707031 L 168.78125 148.558594 L 167.160156 150.117188 L 139.382812 121.265625 " fill-opacity="1" fill-rule="nonzero"/><path fill="#000000" d="M 167.160156 150.601562 C 167.035156 150.601562 166.90625 150.550781 166.8125 150.453125 L 139.035156 121.601562 C 138.847656 121.410156 138.855469 121.105469 139.046875 120.917969 C 139.238281 120.734375 139.546875 120.738281 139.730469 120.929688 L 167.511719 149.78125 C 167.695312 149.972656 167.691406 150.28125 167.496094 150.46875 C 167.402344 150.554688 167.28125 150.601562 167.160156 150.601562 " fill-opacity="1" fill-rule="nonzero"/><path fill="#ffffff" d="M 128.578125 113.808594 L 133.957031 108.628906 L 139.773438 114.671875 L 134.394531 119.851562 L 128.578125 113.808594 " fill-opacity="1" fill-rule="nonzero"/><path fill="#000000" d="M 129.261719 113.820312 L 134.40625 119.164062 L 139.089844 114.65625 L 133.945312 109.3125 Z M 134.394531 120.332031 C 134.265625 120.332031 134.140625 120.285156 134.046875 120.1875 L 128.230469 114.144531 C 128.042969 113.953125 128.050781 113.644531 128.242188 113.460938 L 133.621094 108.28125 C 133.714844 108.191406 133.847656 108.144531 133.964844 108.144531 C 134.09375 108.148438 134.21875 108.199219 134.304688 108.292969 L 140.121094 114.335938 C 140.308594 114.527344 140.300781 114.832031 140.109375 115.019531 L 134.730469 120.199219 C 134.636719 120.289062 134.515625 120.332031 134.394531 120.332031 " fill-opacity="1" fill-rule="nonzero"/><path fill="#ffffff" d="M 132.035156 120.292969 L 140.308594 112.328125 L 147.125 123.667969 L 143.105469 127.539062 L 132.035156 120.292969 " fill-opacity="1" fill-rule="nonzero"/><path fill="#000000" d="M 132.808594 120.222656 L 143.046875 126.921875 L 146.511719 123.585938 L 140.207031 113.101562 Z M 143.109375 128.019531 C 143.015625 128.019531 142.921875 127.996094 142.839844 127.941406 L 131.769531 120.699219 C 131.644531 120.621094 131.566406 120.488281 131.550781 120.339844 C 131.539062 120.195312 131.59375 120.046875 131.699219 119.945312 L 139.972656 111.980469 C 140.078125 111.878906 140.226562 111.828125 140.371094 111.847656 C 140.515625 111.867188 140.648438 111.953125 140.722656 112.078125 L 147.539062 123.417969 C 147.65625 123.609375 147.625 123.859375 147.460938 124.015625 L 143.445312 127.886719 C 143.351562 127.976562 143.230469 128.019531 143.109375 128.019531 " fill-opacity="1" fill-rule="nonzero"/><path fill="#ffffff" d="M 118.507812 115.808594 C 121.085938 118.488281 125.347656 118.570312 128.027344 115.988281 L 136.152344 108.164062 C 138.832031 105.585938 138.914062 101.320312 136.335938 98.644531 L 88.855469 49.328125 L 71.027344 66.496094 L 118.507812 115.808594 " fill-opacity="1" fill-rule="nonzero"/><path fill="#99b9ff" d="M 129.316406 114.75 L 134.871094 109.402344 C 138.257812 106.136719 138.359375 100.746094 135.097656 97.355469 L 112.285156 73.664062 L 94.457031 90.828125 L 117.269531 114.523438 C 120.535156 117.910156 125.925781 118.011719 129.316406 114.75 " fill-opacity="1" fill-rule="nonzero"/><path fill="#ffffff" d="M 58.5625 43.847656 L 66.695312 36.015625 L 85.679688 55.734375 L 77.546875 63.5625 L 58.5625 43.847656 " fill-opacity="1" fill-rule="nonzero"/><path fill="#99b9ff" d="M 59.203125 44.507812 L 63.238281 40.621094 L 99.925781 78.726562 L 95.890625 82.613281 L 59.203125 44.507812 " fill-opacity="1" fill-rule="nonzero"/><path fill="#000000" d="M 59.246094 43.859375 L 96.445312 82.492188 L 103.882812 75.335938 L 66.679688 36.699219 Z M 96.433594 83.664062 C 96.308594 83.664062 96.179688 83.613281 96.085938 83.515625 L 58.214844 44.183594 C 58.027344 43.988281 58.035156 43.683594 58.226562 43.496094 L 66.359375 35.664062 C 66.453125 35.578125 66.574219 35.53125 66.703125 35.53125 C 66.832031 35.53125 66.953125 35.585938 67.042969 35.679688 L 104.914062 75.011719 C 105.003906 75.105469 105.054688 75.230469 105.050781 75.355469 C 105.046875 75.484375 104.996094 75.609375 104.902344 75.699219 L 96.769531 83.527344 C 96.675781 83.621094 96.554688 83.664062 96.433594 83.664062 " fill-opacity="1" fill-rule="nonzero"/><path fill="#5479f7" d="M 90.566406 86.785156 L 108.394531 69.621094 L 112.289062 73.667969 L 94.464844 90.832031 L 90.566406 86.785156 " fill-opacity="1" fill-rule="nonzero"/><path fill="#5479f7" d="M 79.816406 65.21875 L 96.445312 82.492188 L 103.882812 75.335938 L 87.25 58.0625 Z M 96.433594 83.664062 C 96.308594 83.664062 96.179688 83.613281 96.085938 83.515625 L 78.78125 65.542969 C 78.691406 65.453125 78.644531 65.328125 78.644531 65.199219 C 78.648438 65.070312 78.703125 64.949219 78.792969 64.859375 L 86.925781 57.027344 C 87.121094 56.84375 87.425781 56.847656 87.613281 57.039062 L 104.914062 75.011719 C 105.003906 75.105469 105.054688 75.230469 105.050781 75.355469 C 105.046875 75.484375 104.996094 75.609375 104.902344 75.695312 L 96.769531 83.527344 C 96.675781 83.617188 96.554688 83.664062 96.433594 83.664062 " fill-opacity="1" fill-rule="nonzero"/><path fill="#000000" d="M 71.710938 66.507812 L 118.40625 115.007812 C 119.683594 116.332031 121.402344 117.082031 123.246094 117.117188 C 125.101562 117.152344 126.832031 116.46875 128.160156 115.191406 L 135.351562 108.265625 C 138.089844 105.625 138.175781 101.25 135.535156 98.511719 L 88.839844 50.011719 Z M 123.378906 118.089844 C 123.328125 118.089844 123.277344 118.085938 123.226562 118.085938 C 121.125 118.046875 119.167969 117.191406 117.710938 115.675781 L 70.679688 66.832031 C 70.492188 66.636719 70.496094 66.332031 70.691406 66.144531 L 88.519531 48.980469 C 88.609375 48.890625 88.734375 48.84375 88.863281 48.84375 C 88.992188 48.847656 89.113281 48.898438 89.203125 48.992188 L 136.234375 97.839844 C 139.242188 100.964844 139.148438 105.953125 136.023438 108.960938 L 128.832031 115.886719 C 127.355469 117.308594 125.425781 118.089844 123.378906 118.089844 " fill-opacity="1" fill-rule="nonzero"/><path fill="#ffffff" d="M 65.09375 71.617188 L 94.195312 43.59375 L 97.824219 47.359375 L 68.71875 75.382812 L 65.09375 71.617188 " fill-opacity="1" fill-rule="nonzero"/><path fill="#000000" d="M 65.777344 71.628906 L 68.734375 74.695312 L 97.140625 47.34375 L 94.183594 44.277344 Z M 68.71875 75.867188 C 68.59375 75.867188 68.464844 75.816406 68.371094 75.71875 L 64.746094 71.953125 C 64.65625 71.859375 64.605469 71.734375 64.609375 71.605469 C 64.613281 71.476562 64.664062 71.355469 64.757812 71.265625 L 93.863281 43.242188 C 94.054688 43.058594 94.359375 43.0625 94.546875 43.253906 L 98.171875 47.019531 C 98.261719 47.113281 98.308594 47.238281 98.308594 47.367188 C 98.304688 47.496094 98.253906 47.617188 98.160156 47.707031 L 69.054688 75.730469 C 68.960938 75.820312 68.839844 75.867188 68.71875 75.867188 " fill-opacity="1" fill-rule="nonzero"/><path fill="#ffffff" d="M 49.660156 46.007812 L 69.191406 27.203125 L 72.820312 30.96875 L 53.289062 49.773438 L 49.660156 46.007812 " fill-opacity="1" fill-rule="nonzero"/><path fill="#000000" d="M 50.347656 46.023438 L 53.300781 49.089844 L 72.132812 30.957031 L 69.179688 27.890625 Z M 53.289062 50.257812 C 53.160156 50.257812 53.035156 50.210938 52.941406 50.113281 L 49.3125 46.34375 C 49.222656 46.253906 49.175781 46.128906 49.175781 46 C 49.179688 45.871094 49.234375 45.75 49.328125 45.660156 L 68.855469 26.855469 C 69.046875 26.667969 69.355469 26.675781 69.539062 26.867188 L 73.167969 30.636719 C 73.253906 30.726562 73.304688 30.851562 73.300781 30.980469 C 73.300781 31.109375 73.246094 31.230469 73.152344 31.320312 L 53.625 50.125 C 53.53125 50.214844 53.410156 50.257812 53.289062 50.257812 " fill-opacity="1" fill-rule="nonzero"/><path fill="#ffffff" d="M 99.183594 89.519531 C 99.609375 89.109375 100.292969 89.121094 100.703125 89.546875 L 102.722656 91.644531 C 106.410156 95.476562 111.90625 97.050781 117.066406 95.757812 C 122.972656 94.277344 129.265625 96.078125 133.488281 100.464844 L 134.855469 101.886719 C 135.269531 102.316406 135.253906 102.996094 134.828125 103.40625 C 134.398438 103.820312 133.71875 103.808594 133.304688 103.378906 L 131.9375 101.957031 C 128.246094 98.125 122.75 96.546875 117.589844 97.84375 C 111.6875 99.324219 105.394531 97.523438 101.171875 93.136719 L 99.152344 91.039062 C 98.742188 90.613281 98.753906 89.933594 99.183594 89.519531 " fill-opacity="1" fill-rule="nonzero"/><path fill="#ffffff" d="M 130.113281 101.585938 C 130.207031 101.496094 130.359375 101.484375 130.464844 101.566406 C 130.582031 101.660156 130.605469 101.828125 130.511719 101.945312 L 123.222656 111.355469 C 123.128906 111.472656 122.960938 111.496094 122.84375 111.40625 C 122.726562 111.3125 122.703125 111.144531 122.796875 111.027344 L 130.089844 101.617188 C 130.097656 101.605469 130.105469 101.59375 130.113281 101.585938 " fill-opacity="1" fill-rule="nonzero"/><path fill="#ffffff" d="M 127.589844 99.886719 C 127.683594 99.796875 127.832031 99.785156 127.9375 99.867188 C 128.058594 99.960938 128.078125 100.128906 127.988281 100.246094 L 121.425781 108.710938 C 121.335938 108.828125 121.167969 108.851562 121.050781 108.761719 C 120.933594 108.667969 120.910156 108.5 121 108.382812 L 127.5625 99.917969 C 127.570312 99.90625 127.578125 99.894531 127.589844 99.886719 " fill-opacity="1" fill-rule="nonzero"/><path fill="#ffffff" d="M 124.5 98.914062 C 124.59375 98.824219 124.742188 98.8125 124.851562 98.894531 C 124.96875 98.988281 124.988281 99.15625 124.898438 99.273438 L 119.632812 106.070312 C 119.542969 106.1875 119.375 106.207031 119.253906 106.117188 C 119.136719 106.023438 119.117188 105.855469 119.207031 105.738281 L 124.472656 98.945312 C 124.480469 98.933594 124.488281 98.921875 124.5 98.914062 " fill-opacity="1" fill-rule="nonzero"/><path fill="#ffffff" d="M 102.566406 89.960938 C 102.578125 89.953125 102.585938 89.945312 102.597656 89.9375 L 112.277344 83.007812 C 112.398438 82.917969 112.566406 82.945312 112.652344 83.066406 C 112.738281 83.1875 112.710938 83.355469 112.589844 83.445312 L 102.910156 90.375 C 102.789062 90.460938 102.621094 90.433594 102.535156 90.3125 C 102.457031 90.203125 102.472656 90.054688 102.566406 89.960938 " fill-opacity="1" fill-rule="nonzero"/><path fill="#ffffff" d="M 105.140625 91.855469 C 105.152344 91.84375 105.160156 91.835938 105.171875 91.828125 L 113.878906 85.59375 C 114 85.507812 114.167969 85.535156 114.253906 85.65625 C 114.34375 85.777344 114.316406 85.945312 114.195312 86.03125 L 105.484375 92.265625 C 105.363281 92.351562 105.195312 92.328125 105.109375 92.203125 C 105.03125 92.09375 105.046875 91.945312 105.140625 91.855469 " fill-opacity="1" fill-rule="nonzero"/><path fill="#ffffff" d="M 107.714844 93.746094 C 107.726562 93.738281 107.734375 93.730469 107.746094 93.722656 L 114.734375 88.71875 C 114.855469 88.628906 115.023438 88.660156 115.109375 88.78125 C 115.195312 88.902344 115.167969 89.066406 115.046875 89.15625 L 108.058594 94.160156 C 107.9375 94.246094 107.769531 94.21875 107.683594 94.097656 C 107.605469 93.988281 107.621094 93.839844 107.714844 93.746094 " fill-opacity="1" fill-rule="nonzero"/><path fill="#ffffff" d="M 116.882812 95.027344 C 117.546875 94.863281 118.210938 94.738281 118.882812 94.648438 C 119.578125 89.535156 117.914062 84.292969 114.277344 80.515625 L 112.261719 78.421875 C 111.847656 77.992188 111.167969 77.980469 110.738281 78.390625 C 110.3125 78.804688 110.296875 79.484375 110.710938 79.914062 L 112.726562 82.007812 C 116.078125 85.488281 117.515625 90.390625 116.632812 95.085938 C 116.714844 95.066406 116.800781 95.050781 116.882812 95.027344 " fill-opacity="1" fill-rule="nonzero"/><path fill="#ffffff" d="M 117.773438 98.574219 C 117.113281 98.742188 116.445312 98.863281 115.777344 98.953125 C 115.078125 104.070312 116.742188 109.308594 120.378906 113.085938 L 121.75 114.507812 C 122.160156 114.9375 122.84375 114.949219 123.269531 114.539062 C 123.699219 114.125 123.710938 113.441406 123.300781 113.015625 L 121.929688 111.59375 C 118.578125 108.113281 117.144531 103.210938 118.023438 98.515625 C 117.941406 98.535156 117.859375 98.554688 117.773438 98.574219 " fill-opacity="1" fill-rule="nonzero"/><path fill="#000000" d="M 245.550781 84.738281 C 246.238281 84.667969 250.253906 84.289062 253.890625 86.679688 C 257.425781 89 257.097656 91.632812 260.496094 93.164062 C 263.042969 94.308594 264.355469 93.53125 267.421875 93.910156 C 271.988281 94.464844 277.542969 97.390625 279.855469 101.941406 C 283.464844 109.058594 279.175781 120.21875 271.265625 123.199219 C 266.144531 125.128906 257.601562 122.441406 256.601562 121.980469 C 254.214844 120.882812 254.125 119.632812 249.398438 113.46875 C 244.503906 107.089844 243.363281 102.617188 243.300781 99.886719 C 243.292969 99.492188 243.308594 98.050781 242.417969 97.453125 C 241.660156 96.941406 240.871094 97.4375 239.886719 97.382812 C 237.78125 97.257812 235.570312 94.65625 235.402344 92.519531 C 235.105469 88.839844 240.75 85.261719 245.550781 84.738281 " fill-opacity="1" fill-rule="nonzero"/><path fill="#000000" d="M 280.492188 242.527344 C 281.480469 244.53125 283.5625 248.984375 284.648438 253.5 C 285.089844 255.324219 284.613281 256.355469 284.199219 257.832031 C 283.601562 259.957031 282.925781 260.953125 283.21875 261.554688 C 283.835938 262.820312 290.878906 262.507812 293.21875 258.660156 C 293.964844 257.429688 294.117188 255.625 292.886719 249.203125 C 291.621094 242.613281 292.09375 241.585938 291.121094 240.785156 C 288.058594 238.261719 281.34375 242.039062 280.492188 242.527344 " fill-opacity="1" fill-rule="nonzero"/><path fill="#5479f7" d="M 284.636719 261.355469 C 284.386719 261.355469 284.175781 261.164062 284.15625 260.914062 C 284.132812 260.644531 284.328125 260.410156 284.597656 260.386719 C 287.226562 260.160156 289.089844 259.226562 290.140625 257.609375 C 292.128906 254.546875 290.597656 249.988281 290.585938 249.945312 C 290.5 249.691406 290.632812 249.414062 290.882812 249.328125 C 291.136719 249.242188 291.410156 249.375 291.5 249.628906 C 291.570312 249.832031 293.199219 254.683594 290.953125 258.140625 C 289.734375 260.015625 287.621094 261.097656 284.679688 261.351562 C 284.664062 261.355469 284.652344 261.355469 284.636719 261.355469 " fill-opacity="1" fill-rule="nonzero"/><path fill="#000000" d="M 248.523438 250.855469 C 248.523438 250.855469 248.15625 253.695312 249.351562 260.21875 C 249.523438 261.15625 248.53125 261.925781 247.582031 262.007812 C 243.710938 262.351562 234.621094 262.964844 227.039062 262.726562 C 226.335938 262.703125 225.824219 262.167969 225.667969 261.710938 C 224.261719 257.617188 235.4375 256.308594 235.890625 253.535156 C 236.703125 248.574219 248.523438 250.855469 248.523438 250.855469 " fill-opacity="1" fill-rule="nonzero"/><path fill="#5479f7" d="M 232.070312 261.554688 C 230.652344 261.554688 229.25 261.511719 227.914062 261.417969 C 227.648438 261.398438 227.445312 261.164062 227.464844 260.898438 C 227.484375 260.632812 227.730469 260.433594 227.984375 260.449219 C 236.09375 261.035156 246.042969 259.601562 246.980469 259 C 247.203125 258.855469 247.503906 258.917969 247.648438 259.144531 C 247.792969 259.371094 247.730469 259.667969 247.503906 259.8125 C 246.40625 260.519531 239.074219 261.554688 232.070312 261.554688 " fill-opacity="1" fill-rule="nonzero"/><path fill="#ffffff" d="M 230.058594 149.078125 C 230.058594 149.078125 231.019531 217.410156 227.769531 248.210938 C 227.242188 253.234375 231.335938 257.535156 236.375 257.257812 C 237.953125 257.171875 239.78125 256.824219 241.898438 256.113281 C 246.648438 254.511719 250.382812 254.21875 253.035156 254.375 C 255.636719 254.523438 257.820312 252.421875 257.8125 249.816406 C 257.777344 236.558594 257.441406 203.085938 255.039062 189.03125 C 255.039062 189.03125 265.238281 218.609375 273.601562 244.730469 C 274.589844 247.828125 277.546875 249.847656 280.792969 249.683594 C 284.460938 249.496094 289.574219 248.53125 295.164062 245.375 C 298.960938 243.234375 300.757812 238.730469 299.535156 234.539062 C 295.003906 219.046875 281.152344 178.90625 251.328125 145.261719 L 230.058594 149.078125 " fill-opacity="1" fill-rule="nonzero"/><path fill="#000000" d="M 230.550781 149.484375 C 230.621094 155.230469 231.335938 219.023438 228.253906 248.261719 C 228.015625 250.515625 228.773438 252.746094 230.335938 254.386719 C 231.894531 256.03125 234.09375 256.898438 236.347656 256.773438 C 237.988281 256.6875 239.804688 256.308594 241.746094 255.652344 C 245.808594 254.285156 249.621094 253.691406 253.0625 253.890625 C 254.171875 253.953125 255.238281 253.566406 256.050781 252.792969 C 256.867188 252.023438 257.332031 250.941406 257.324219 249.816406 C 257.289062 236.21875 256.949219 203.074219 254.558594 189.113281 C 254.515625 188.867188 254.671875 188.625 254.917969 188.5625 C 255.15625 188.5 255.414062 188.636719 255.496094 188.875 C 255.597656 189.167969 265.792969 218.757812 274.058594 244.582031 C 274.980469 247.457031 277.734375 249.355469 280.769531 249.199219 C 284.097656 249.03125 289.253906 248.15625 294.925781 244.957031 C 298.539062 242.917969 300.242188 238.691406 299.066406 234.675781 C 294.511719 219.085938 280.726562 179.257812 251.144531 145.785156 Z M 235.917969 257.753906 C 233.550781 257.753906 231.28125 256.785156 229.632812 255.054688 C 227.875 253.207031 227.023438 250.695312 227.289062 248.160156 C 230.496094 217.738281 229.582031 149.769531 229.574219 149.085938 C 229.570312 148.847656 229.738281 148.644531 229.972656 148.601562 L 251.242188 144.785156 C 251.40625 144.753906 251.578125 144.8125 251.691406 144.941406 C 281.527344 178.597656 295.410156 218.71875 299.996094 234.40625 C 301.296875 238.851562 299.40625 243.539062 295.398438 245.800781 C 289.566406 249.09375 284.246094 249.992188 280.816406 250.167969 C 277.347656 250.34375 274.191406 248.167969 273.136719 244.878906 C 266.839844 225.199219 259.414062 203.332031 256.199219 193.917969 C 257.984375 209.691406 258.261719 237.609375 258.292969 249.816406 C 258.296875 251.203125 257.722656 252.546875 256.714844 253.5 C 255.707031 254.453125 254.394531 254.9375 253.007812 254.855469 C 249.683594 254.664062 246 255.242188 242.054688 256.570312 C 240.03125 257.253906 238.128906 257.644531 236.402344 257.742188 C 236.242188 257.75 236.082031 257.753906 235.917969 257.753906 " fill-opacity="1" fill-rule="nonzero"/><path fill="#000000" d="M 256.894531 196.28125 C 256.6875 196.28125 256.496094 196.148438 256.433594 195.9375 C 255.226562 191.894531 252.109375 183.714844 249.597656 177.40625 C 248.25 174.03125 245.332031 171.515625 241.789062 170.683594 C 241.53125 170.625 241.367188 170.363281 241.429688 170.105469 C 241.488281 169.84375 241.75 169.679688 242.011719 169.742188 C 245.863281 170.644531 249.035156 173.375 250.496094 177.050781 C 253.015625 183.378906 256.144531 191.589844 257.359375 195.660156 C 257.4375 195.917969 257.292969 196.1875 257.035156 196.261719 C 256.988281 196.277344 256.941406 196.28125 256.894531 196.28125 " fill-opacity="1" fill-rule="nonzero"/><path fill="#ffffff" d="M 183.4375 104.9375 C 183.101562 104.460938 183.253906 103.785156 183.789062 103.503906 C 184.171875 103.300781 184.640625 103.394531 184.949219 103.691406 L 189.839844 108.425781 L 190.359375 108.328125 C 191.382812 108.128906 192.363281 108.839844 192.5 109.875 C 192.5 109.875 192.433594 112.898438 193.347656 114.085938 C 198.050781 120.1875 208.8125 130.890625 210.476562 130.890625 C 212.257812 130.890625 215.230469 129.226562 215.230469 129.226562 L 228.664062 131.839844 C 228.664062 131.839844 221.769531 142.777344 210 140.164062 C 200.085938 137.960938 191.101562 121.757812 188.515625 116.703125 C 188.203125 116.097656 187.703125 115.617188 187.097656 115.304688 C 186.84375 115.175781 186.605469 115.011719 186.390625 114.816406 L 184.371094 112.988281 C 183.609375 112.292969 183.359375 111.199219 183.742188 110.246094 L 184.226562 109.050781 C 184.707031 107.863281 184.550781 106.515625 183.8125 105.46875 L 183.4375 104.9375 " fill-opacity="1" fill-rule="nonzero"/><path fill="#000000" d="M 184.226562 103.878906 C 184.152344 103.878906 184.082031 103.894531 184.015625 103.929688 C 183.882812 104 183.792969 104.117188 183.757812 104.257812 C 183.726562 104.394531 183.753906 104.542969 183.835938 104.660156 L 184.210938 105.1875 C 185.046875 106.375 185.222656 107.886719 184.675781 109.230469 L 184.191406 110.425781 C 183.882812 111.191406 184.085938 112.074219 184.695312 112.628906 L 186.714844 114.457031 C 186.898438 114.621094 187.101562 114.761719 187.320312 114.875 C 188.03125 115.242188 188.59375 115.796875 188.945312 116.480469 C 191.453125 121.378906 200.386719 137.53125 210.105469 139.691406 C 211.308594 139.957031 212.464844 140.078125 213.5625 140.078125 C 221.335938 140.078125 226.402344 134.101562 227.835938 132.175781 L 215.308594 129.734375 C 214.652344 130.085938 212.136719 131.375 210.472656 131.375 C 208.441406 131.375 197.402344 120.140625 192.964844 114.378906 C 192.007812 113.140625 192.007812 110.378906 192.011719 109.902344 C 191.957031 109.550781 191.769531 109.242188 191.480469 109.03125 C 191.179688 108.8125 190.8125 108.730469 190.449219 108.800781 L 189.929688 108.902344 C 189.773438 108.933594 189.613281 108.882812 189.503906 108.773438 L 184.613281 104.039062 C 184.503906 103.933594 184.363281 103.878906 184.226562 103.878906 Z M 213.566406 141.046875 C 212.398438 141.046875 211.175781 140.921875 209.894531 140.636719 C 199.765625 138.382812 190.636719 121.914062 188.082031 116.921875 C 187.824219 116.417969 187.410156 116.007812 186.878906 115.738281 C 186.582031 115.585938 186.308594 115.398438 186.0625 115.175781 L 184.046875 113.34375 C 183.136719 112.519531 182.835938 111.203125 183.292969 110.066406 L 183.777344 108.871094 C 184.199219 107.832031 184.066406 106.664062 183.417969 105.746094 L 183.042969 105.21875 C 182.800781 104.871094 182.71875 104.441406 182.816406 104.027344 C 182.914062 103.617188 183.1875 103.269531 183.566406 103.070312 C 184.125 102.78125 184.8125 102.886719 185.285156 103.34375 L 189.992188 107.902344 L 190.269531 107.851562 C 190.894531 107.730469 191.527344 107.871094 192.046875 108.246094 C 192.566406 108.621094 192.898438 109.175781 192.980469 109.808594 C 192.980469 109.832031 192.984375 109.859375 192.984375 109.882812 C 192.96875 110.679688 193.070312 112.929688 193.730469 113.789062 C 198.652344 120.175781 209.070312 130.296875 210.476562 130.40625 C 212.109375 130.40625 214.964844 128.820312 214.992188 128.804688 C 215.09375 128.746094 215.207031 128.730469 215.320312 128.75 L 228.753906 131.367188 C 228.910156 131.398438 229.042969 131.503906 229.105469 131.648438 C 229.171875 131.796875 229.15625 131.964844 229.070312 132.101562 C 229.007812 132.199219 223.304688 141.046875 213.566406 141.046875 " fill-opacity="1" fill-rule="nonzero"/><path fill="#5479f7" d="M 225.769531 119.324219 C 228.09375 116.097656 233.265625 112.1875 237.246094 112.253906 L 256.871094 112.53125 C 258.886719 112.558594 260.515625 114.1875 260.539062 116.207031 L 260.695312 129.78125 L 262.949219 151.152344 C 252.648438 143.480469 241.917969 150.042969 235.910156 152.050781 C 229.90625 154.058594 228.066406 151.339844 228.066406 151.339844 L 228.660156 133.386719 C 228.660156 133.386719 226.644531 137.929688 221.203125 141.351562 C 220.492188 141.796875 219.558594 141.496094 219.210938 140.734375 C 217.597656 137.164062 214.507812 134.734375 214.28125 129.546875 C 214.230469 128.398438 214.738281 127.304688 215.625 126.578125 C 218.851562 123.933594 223.609375 122.320312 225.769531 119.324219 " fill-opacity="1" fill-rule="nonzero"/><path fill="#5479f7" d="M 257.097656 112.601562 C 260.671875 112.660156 264.03125 114.289062 266.304688 117.054688 C 269.125 120.484375 273.0625 125.5625 276.375 130.929688 C 276.726562 131.503906 276.773438 132.226562 276.457031 132.820312 C 274.160156 137.121094 269.929688 136.542969 266.683594 138.453125 C 266.1875 138.742188 265.5625 138.609375 265.234375 138.144531 C 262.402344 134.105469 259.09375 131.425781 259.09375 131.425781 L 255.953125 112.582031 L 257.097656 112.601562 " fill-opacity="1" fill-rule="nonzero"/><path fill="#ffffff" d="M 237.246094 112.25 L 237.597656 197.289062 L 222.632812 193.847656 L 227.414062 138.605469 C 227.414062 138.605469 221.660156 148.136719 209.101562 143.277344 C 196.542969 138.414062 190.378906 121.980469 190.378906 121.980469 L 197 116.5 C 197 116.5 213.304688 133.785156 225.085938 118.09375 C 225.085938 118.09375 230.050781 111.257812 237.246094 112.25 " fill-opacity="1" fill-rule="nonzero"/><path fill="#000000" d="M 223.152344 193.46875 L 237.109375 196.675781 L 236.761719 112.683594 C 230.167969 112.054688 225.523438 118.3125 225.480469 118.378906 C 222.292969 122.621094 218.480469 124.894531 214.144531 125.140625 C 213.882812 125.152344 213.617188 125.160156 213.355469 125.160156 C 205.492188 125.160156 198.535156 118.714844 196.96875 117.152344 L 190.960938 122.128906 C 191.898438 124.429688 198.027344 138.46875 209.277344 142.824219 C 221.292969 147.476562 226.773438 138.726562 227 138.351562 C 227.117188 138.160156 227.351562 138.074219 227.566406 138.144531 C 227.78125 138.214844 227.917969 138.421875 227.898438 138.644531 Z M 237.597656 197.769531 C 237.5625 197.769531 237.523438 197.765625 237.488281 197.757812 L 222.527344 194.320312 C 222.292969 194.265625 222.132812 194.046875 222.152344 193.804688 L 226.792969 140.195312 C 224.5625 142.707031 218.722656 147.519531 208.925781 143.726562 C 196.3125 138.84375 190.179688 122.832031 189.925781 122.152344 C 189.855469 121.957031 189.910156 121.738281 190.070312 121.605469 L 196.691406 116.125 C 196.890625 115.960938 197.179688 115.980469 197.355469 116.164062 C 197.433594 116.25 205.488281 124.65625 214.09375 124.171875 C 218.128906 123.945312 221.699219 121.800781 224.699219 117.800781 C 224.902344 117.519531 229.914062 110.75 237.3125 111.773438 C 237.550781 111.804688 237.730469 112.007812 237.730469 112.25 L 238.082031 197.285156 C 238.082031 197.429688 238.015625 197.570312 237.898438 197.664062 C 237.8125 197.734375 237.707031 197.769531 237.597656 197.769531 " fill-opacity="1" fill-rule="nonzero"/><path fill="#ffffff" d="M 250.335938 112.421875 L 252.34375 195.785156 C 252.34375 195.785156 270.296875 199.070312 283.082031 189.171875 L 272.410156 160.089844 C 272.410156 160.089844 285.648438 146.488281 276.375 130.914062 C 267.097656 115.335938 264.5 111.539062 250.335938 112.421875 " fill-opacity="1" fill-rule="nonzero"/><path fill="#000000" d="M 252.820312 195.367188 C 255.46875 195.757812 271.09375 197.609375 282.503906 189.003906 L 271.957031 160.257812 C 271.894531 160.082031 271.933594 159.886719 272.0625 159.753906 C 272.097656 159.71875 275.347656 156.335938 277.433594 151.128906 C 280.214844 144.191406 279.71875 137.472656 275.957031 131.160156 C 266.660156 115.542969 264.140625 112.125 250.832031 112.875 Z M 259.359375 196.769531 C 255.167969 196.769531 252.332031 196.273438 252.261719 196.261719 C 252.035156 196.21875 251.867188 196.023438 251.863281 195.796875 L 249.851562 112.429688 C 249.847656 112.171875 250.046875 111.953125 250.304688 111.9375 C 264.554688 111.050781 267.324219 114.769531 276.789062 130.664062 C 281.683594 138.882812 280.324219 146.542969 278.320312 151.523438 C 276.445312 156.183594 273.746094 159.351562 272.96875 160.203125 L 283.535156 189.003906 C 283.609375 189.203125 283.546875 189.425781 283.378906 189.554688 C 275.597656 195.578125 265.851562 196.769531 259.359375 196.769531 " fill-opacity="1" fill-rule="nonzero"/><path fill="#99b9ff" d="M 240.679688 150.84375 L 258.53125 132.777344 C 258.988281 132.320312 259.730469 132.316406 260.1875 132.769531 L 283.800781 156.109375 C 284.261719 156.566406 284.265625 157.308594 283.808594 157.765625 L 265.953125 175.828125 C 265.5 176.289062 264.761719 176.292969 264.300781 175.839844 L 240.691406 152.496094 C 240.230469 152.042969 240.226562 151.300781 240.679688 150.84375 " fill-opacity="1" fill-rule="nonzero"/><path fill="#000000" d="M 240.679688 150.84375 L 240.683594 150.84375 Z M 259.367188 132.917969 C 259.367188 132.917969 259.363281 132.917969 259.363281 132.917969 C 259.179688 132.917969 259.007812 132.988281 258.878906 133.121094 L 241.023438 151.183594 C 240.894531 151.3125 240.824219 151.484375 240.828125 151.667969 C 240.828125 151.851562 240.898438 152.023438 241.03125 152.152344 L 264.640625 175.492188 C 264.769531 175.621094 264.941406 175.691406 265.121094 175.691406 C 265.125 175.691406 265.125 175.691406 265.125 175.691406 C 265.3125 175.691406 265.480469 175.617188 265.609375 175.488281 L 283.464844 157.425781 C 283.59375 157.296875 283.664062 157.125 283.664062 156.941406 C 283.664062 156.757812 283.589844 156.585938 283.460938 156.457031 L 259.851562 133.117188 C 259.71875 132.988281 259.546875 132.917969 259.367188 132.917969 Z M 265.121094 176.660156 C 264.683594 176.660156 264.269531 176.492188 263.957031 176.183594 L 240.347656 152.839844 C 240.035156 152.53125 239.859375 152.117188 239.859375 151.675781 C 239.855469 151.230469 240.023438 150.8125 240.335938 150.5 L 258.1875 132.4375 C 258.5 132.125 258.917969 131.949219 259.355469 131.949219 C 259.8125 131.949219 260.214844 132.113281 260.53125 132.425781 L 284.140625 155.765625 C 284.457031 156.078125 284.628906 156.492188 284.632812 156.933594 C 284.636719 157.375 284.464844 157.792969 284.15625 158.109375 L 266.300781 176.167969 C 265.988281 176.484375 265.574219 176.65625 265.132812 176.660156 C 265.128906 176.660156 265.125 176.660156 265.121094 176.660156 " fill-opacity="1" fill-rule="nonzero"/><path fill="#000000" d="M 244.585938 144.878906 L 252.621094 136.75 C 253.175781 136.1875 254.082031 136.183594 254.644531 136.738281 L 256.503906 138.578125 L 246.457031 148.742188 L 244.597656 146.90625 C 244.035156 146.347656 244.027344 145.441406 244.585938 144.878906 " fill-opacity="1" fill-rule="nonzero"/><path fill="#000000" d="M 246.277344 139.371094 C 246.039062 139.136719 246.035156 138.75 246.269531 138.511719 C 246.507812 138.273438 246.890625 138.273438 247.128906 138.507812 C 247.367188 138.746094 247.371094 139.128906 247.136719 139.367188 C 246.898438 139.605469 246.515625 139.605469 246.277344 139.371094 Z M 245.261719 141.835938 L 247.449219 143.992188 L 251.765625 139.628906 L 249.582031 137.464844 C 248.375 136.273438 246.433594 136.285156 245.238281 137.492188 C 244.046875 138.699219 244.058594 140.644531 245.261719 141.835938 " fill-opacity="1" fill-rule="nonzero"/><path fill="#5479f7" d="M 249.550781 152.761719 L 260.554688 141.628906 C 260.804688 141.378906 260.800781 140.976562 260.550781 140.730469 L 260.457031 140.640625 C 260.207031 140.390625 259.804688 140.394531 259.558594 140.644531 L 248.554688 151.773438 C 248.304688 152.023438 248.308594 152.429688 248.558594 152.675781 L 248.652344 152.765625 C 248.902344 153.015625 249.304688 153.011719 249.550781 152.761719 " fill-opacity="1" fill-rule="nonzero"/><path fill="#5479f7" d="M 251.597656 154.785156 L 262.601562 143.652344 C 262.847656 143.402344 262.847656 143 262.597656 142.75 L 262.503906 142.660156 C 262.257812 142.414062 261.851562 142.414062 261.605469 142.667969 L 250.601562 153.796875 C 250.355469 154.046875 250.355469 154.449219 250.605469 154.699219 L 250.699219 154.789062 C 250.949219 155.039062 251.351562 155.035156 251.597656 154.785156 " fill-opacity="1" fill-rule="nonzero"/><path fill="#5479f7" d="M 253.648438 156.804688 L 264.648438 145.675781 C 264.898438 145.425781 264.894531 145.019531 264.644531 144.773438 L 264.550781 144.683594 C 264.300781 144.4375 263.898438 144.441406 263.652344 144.6875 L 252.648438 155.820312 C 252.398438 156.070312 252.402344 156.472656 252.65625 156.71875 L 252.746094 156.8125 C 252.996094 157.058594 253.398438 157.054688 253.648438 156.804688 " fill-opacity="1" fill-rule="nonzero"/><path fill="#ffffff" d="M 266.0625 159.222656 C 265.789062 158.84375 265.515625 158.460938 265.242188 158.082031 C 264.066406 159.539062 262.324219 160.4375 260.445312 160.554688 C 259.195312 160.632812 257.8125 160.710938 257 160.722656 C 255.890625 160.738281 255.464844 160.695312 255.183594 161.554688 C 254.632812 163.21875 259.527344 162.542969 259.527344 162.542969 L 254.230469 165.367188 C 254.230469 165.367188 253.464844 167.855469 256.910156 168.71875 C 259.355469 169.332031 262.8125 166.410156 264.621094 164.660156 C 265.074219 164.21875 265.554688 163.808594 266.054688 163.429688 C 266.539062 163.058594 267.226562 162.515625 268.027344 161.828125 C 267.414062 160.933594 266.683594 160.09375 266.0625 159.222656 " fill-opacity="1" fill-rule="nonzero"/><path fill="#000000" d="M 254.660156 165.6875 C 254.625 165.941406 254.609375 166.425781 254.894531 166.914062 C 255.246094 167.535156 255.964844 167.984375 257.027344 168.25 C 258.640625 168.652344 261.285156 167.21875 264.28125 164.3125 C 264.738281 163.871094 265.234375 163.441406 265.761719 163.042969 C 266.136719 162.757812 266.703125 162.3125 267.375 161.746094 C 267.117188 161.390625 266.84375 161.042969 266.574219 160.699219 C 266.269531 160.308594 265.957031 159.910156 265.667969 159.507812 L 265.203125 158.859375 C 263.96875 160.140625 262.277344 160.925781 260.476562 161.039062 C 258.863281 161.140625 257.695312 161.195312 257.003906 161.207031 L 256.828125 161.210938 C 255.839844 161.222656 255.796875 161.242188 255.644531 161.703125 C 255.609375 161.808594 255.628906 161.832031 255.644531 161.847656 C 255.976562 162.246094 257.882812 162.277344 259.460938 162.0625 C 259.6875 162.03125 259.914062 162.167969 259.984375 162.390625 C 260.058594 162.617188 259.960938 162.859375 259.753906 162.96875 Z M 257.617188 169.285156 C 257.335938 169.285156 257.058594 169.253906 256.792969 169.1875 C 255.457031 168.855469 254.53125 168.246094 254.042969 167.378906 C 253.441406 166.3125 253.753906 165.269531 253.769531 165.222656 C 253.804688 165.101562 253.890625 165 254 164.9375 L 257.320312 163.167969 C 256.332031 163.148438 255.328125 162.984375 254.898438 162.46875 C 254.65625 162.175781 254.59375 161.796875 254.722656 161.402344 C 255.097656 160.261719 255.820312 160.253906 256.8125 160.242188 L 256.992188 160.238281 C 257.664062 160.226562 258.816406 160.171875 260.414062 160.070312 C 262.160156 159.960938 263.78125 159.125 264.867188 157.777344 C 264.960938 157.660156 265.109375 157.59375 265.257812 157.597656 C 265.40625 157.601562 265.546875 157.675781 265.636719 157.796875 L 266.457031 158.941406 C 266.734375 159.328125 267.039062 159.71875 267.335938 160.101562 C 267.703125 160.570312 268.082031 161.054688 268.425781 161.550781 C 268.566406 161.753906 268.53125 162.03125 268.34375 162.195312 C 267.503906 162.914062 266.796875 163.472656 266.347656 163.8125 C 265.855469 164.191406 265.386719 164.59375 264.957031 165.007812 C 262.875 167.027344 260.007812 169.285156 257.617188 169.285156 " fill-opacity="1" fill-rule="nonzero"/><path fill="#ffffff" d="M 240.582031 92.167969 C 239.953125 92.6875 239.585938 92.835938 239.078125 93.328125 C 238.035156 94.339844 237.128906 97.3125 235.378906 97.925781 C 235.191406 98.898438 235.964844 99.011719 236.261719 99.554688 C 236.042969 100.03125 235.683594 102.257812 235.304688 103.621094 C 235.167969 104.097656 235.414062 104.601562 235.871094 104.789062 C 236.644531 105.101562 237.515625 105.304688 238.492188 105.378906 C 238.492188 105.378906 243.695312 112.585938 238.613281 116.496094 L 250.339844 113.203125 L 245.144531 103.34375 C 245.292969 103.289062 247.242188 102.542969 247.449219 100.929688 C 247.523438 100.335938 247.394531 99.394531 246.859375 99.191406 C 246.339844 98.996094 245.464844 99.519531 244.917969 100.636719 C 244.792969 100.371094 244.691406 100.03125 244.582031 99.636719 C 244.433594 99.101562 244.324219 98.484375 244.476562 98.175781 C 239.617188 96.855469 243.988281 92.132812 240.582031 92.167969 " fill-opacity="1" fill-rule="nonzero"/><path fill="#000000" d="M 235.835938 98.257812 C 235.851562 98.453125 235.96875 98.558594 236.179688 98.742188 C 236.351562 98.894531 236.546875 99.066406 236.6875 99.320312 C 236.761719 99.453125 236.765625 99.617188 236.703125 99.753906 C 236.609375 99.957031 236.441406 100.761719 236.292969 101.476562 C 236.132812 102.230469 235.957031 103.089844 235.769531 103.75 C 235.703125 103.992188 235.824219 104.246094 236.054688 104.339844 C 236.800781 104.644531 237.632812 104.828125 238.527344 104.894531 C 238.671875 104.90625 238.800781 104.980469 238.882812 105.09375 C 238.933594 105.164062 243.277344 111.292969 240.222656 115.542969 L 249.628906 112.898438 L 244.714844 103.570312 C 244.648438 103.445312 244.640625 103.300781 244.691406 103.167969 C 244.742188 103.039062 244.84375 102.9375 244.976562 102.890625 C 245.050781 102.859375 246.796875 102.207031 246.964844 100.867188 C 247.039062 100.304688 246.871094 99.714844 246.6875 99.644531 C 246.472656 99.566406 245.8125 99.917969 245.351562 100.851562 C 245.269531 101.019531 245.101562 101.125 244.910156 101.121094 C 244.722656 101.117188 244.554688 101.007812 244.476562 100.839844 C 244.328125 100.515625 244.210938 100.117188 244.113281 99.765625 C 243.976562 99.25 243.910156 98.839844 243.921875 98.507812 C 241.328125 97.605469 241.441406 95.609375 241.519531 94.265625 C 241.554688 93.652344 241.589844 93.074219 241.371094 92.847656 C 241.261719 92.734375 241.054688 92.667969 240.753906 92.652344 C 240.527344 92.832031 240.332031 92.96875 240.15625 93.09375 C 239.898438 93.269531 239.675781 93.425781 239.414062 93.679688 C 239.082031 94 238.734375 94.605469 238.363281 95.25 C 237.695312 96.410156 236.949219 97.710938 235.835938 98.257812 Z M 238.613281 116.980469 C 238.433594 116.980469 238.265625 116.882812 238.183594 116.714844 C 238.078125 116.507812 238.136719 116.253906 238.320312 116.113281 C 242.597656 112.820312 238.976562 106.964844 238.222656 105.839844 C 237.316406 105.753906 236.464844 105.550781 235.691406 105.238281 C 235.003906 104.960938 234.636719 104.207031 234.835938 103.488281 C 235.015625 102.859375 235.1875 102.019531 235.34375 101.277344 C 235.507812 100.503906 235.621094 99.972656 235.71875 99.636719 C 235.667969 99.582031 235.605469 99.527344 235.539062 99.46875 C 235.214844 99.1875 234.722656 98.753906 234.902344 97.835938 C 234.933594 97.667969 235.054688 97.527344 235.21875 97.46875 C 236.160156 97.140625 236.886719 95.878906 237.523438 94.765625 C 237.929688 94.0625 238.3125 93.398438 238.742188 92.980469 C 239.054688 92.675781 239.324219 92.492188 239.601562 92.296875 C 239.804688 92.152344 240.015625 92.007812 240.277344 91.792969 C 240.363281 91.722656 240.46875 91.683594 240.578125 91.683594 C 241.257812 91.675781 241.746094 91.835938 242.074219 92.179688 C 242.578125 92.710938 242.535156 93.492188 242.488281 94.320312 C 242.40625 95.746094 242.328125 97.089844 244.605469 97.707031 C 244.746094 97.746094 244.859375 97.84375 244.921875 97.976562 C 244.980469 98.109375 244.980469 98.257812 244.914062 98.390625 C 244.910156 98.390625 244.804688 98.621094 245.050781 99.507812 C 245.054688 99.519531 245.054688 99.53125 245.058594 99.542969 C 245.664062 98.84375 246.421875 98.511719 247.03125 98.738281 C 247.859375 99.050781 248.019531 100.257812 247.925781 100.988281 C 247.75 102.386719 246.53125 103.207031 245.8125 103.574219 L 250.765625 112.976562 C 250.835938 113.105469 250.839844 113.257812 250.78125 113.394531 C 250.726562 113.527344 250.609375 113.628906 250.46875 113.667969 L 238.746094 116.960938 C 238.703125 116.976562 238.65625 116.980469 238.613281 116.980469 " fill-opacity="1" fill-rule="nonzero"/><path fill="#ffffff" d="M 242.5 104.785156 C 242.5 104.785156 240.835938 105.816406 238.652344 105.394531 L 242.5 104.785156 " fill-opacity="1" fill-rule="nonzero"/><path fill="#000000" d="M 239.714844 105.984375 C 239.347656 105.984375 238.960938 105.949219 238.558594 105.871094 C 238.292969 105.820312 238.121094 105.566406 238.171875 105.304688 C 238.222656 105.042969 238.476562 104.871094 238.742188 104.921875 C 240.699219 105.296875 242.230469 104.382812 242.242188 104.375 C 242.46875 104.238281 242.769531 104.308594 242.910156 104.535156 C 243.050781 104.761719 242.980469 105.058594 242.753906 105.199219 C 242.691406 105.238281 241.464844 105.984375 239.714844 105.984375 " fill-opacity="1" fill-rule="nonzero"/><path fill="#ffffff" d="M 263.816406 131.183594 C 263.816406 131.183594 271.355469 152.25 262.949219 157.929688 L 268.027344 163.289062 C 268.027344 163.289062 280.042969 156.238281 279.199219 141.296875 C 278.359375 126.359375 263.816406 131.183594 263.816406 131.183594 " fill-opacity="1" fill-rule="nonzero"/><path fill="#000000" d="M 268.03125 163.925781 C 267.898438 163.925781 267.769531 163.871094 267.679688 163.773438 L 262.597656 158.414062 C 262.5 158.308594 262.453125 158.167969 262.46875 158.027344 C 262.484375 157.886719 262.5625 157.757812 262.675781 157.679688 C 270.679688 152.269531 263.4375 131.707031 263.363281 131.5 C 263.273438 131.25 263.40625 130.96875 263.65625 130.878906 C 263.90625 130.789062 264.1875 130.921875 264.273438 131.171875 C 264.582031 132.03125 271.574219 151.910156 263.679688 158.144531 L 268.105469 162.816406 C 270.035156 161.53125 279.921875 154.273438 279.183594 141.152344 C 279.167969 140.886719 279.375 140.65625 279.640625 140.640625 C 279.917969 140.625 280.136719 140.832031 280.152344 141.097656 C 281 156.160156 268.402344 163.78125 268.273438 163.855469 C 268.199219 163.902344 268.113281 163.925781 268.03125 163.925781 " fill-opacity="1" fill-rule="nonzero"/><path fill="#000000" d="M 232.363281 144.480469 C 232.121094 144.480469 231.910156 144.296875 231.882812 144.046875 L 229.742188 124.824219 C 229.722656 124.660156 229.789062 124.5 229.917969 124.394531 L 232.980469 121.898438 L 230.738281 118.894531 C 230.601562 118.710938 230.609375 118.453125 230.765625 118.28125 L 234.144531 114.515625 C 234.324219 114.316406 234.628906 114.296875 234.828125 114.480469 C 235.027344 114.65625 235.042969 114.960938 234.867188 115.160156 L 231.75 118.636719 L 234.035156 121.691406 C 234.191406 121.898438 234.15625 122.191406 233.953125 122.355469 L 230.734375 124.980469 L 232.847656 143.941406 C 232.875 144.207031 232.683594 144.445312 232.417969 144.476562 C 232.398438 144.476562 232.382812 144.480469 232.363281 144.480469 " fill-opacity="1" fill-rule="nonzero"/><path fill="#000000" d="M 253.511719 138.347656 C 253.480469 138.347656 253.449219 138.34375 253.417969 138.335938 C 253.15625 138.285156 252.984375 138.03125 253.035156 137.769531 L 256.058594 122.238281 L 253.929688 121.089844 C 253.804688 121.019531 253.714844 120.902344 253.683594 120.765625 C 253.65625 120.628906 253.6875 120.484375 253.769531 120.371094 L 255.3125 118.3125 L 252.144531 115.183594 C 251.957031 114.996094 251.953125 114.6875 252.140625 114.5 C 252.328125 114.308594 252.636719 114.304688 252.824219 114.496094 L 256.292969 117.917969 C 256.46875 118.089844 256.488281 118.363281 256.34375 118.554688 L 254.882812 120.503906 L 256.832031 121.558594 C 257.019531 121.65625 257.117188 121.867188 257.078125 122.074219 L 253.984375 137.953125 C 253.941406 138.1875 253.738281 138.347656 253.511719 138.347656 " fill-opacity="1" fill-rule="nonzero"/><path fill="#ffffff" d="M 82.929688 122.875 L 57 148.808594 C 55.394531 150.414062 55.394531 153.015625 57 154.621094 C 58.605469 156.226562 61.207031 156.226562 62.8125 154.621094 L 88.746094 128.6875 C 90.351562 127.082031 90.351562 124.476562 88.746094 122.871094 C 87.140625 121.269531 84.535156 121.269531 82.929688 122.875 " fill-opacity="1" fill-rule="nonzero"/><path fill="#ffffff" d="M 97.648438 113.96875 C 99.253906 115.574219 99.253906 118.175781 97.648438 119.78125 C 96.042969 121.386719 93.441406 121.386719 91.835938 119.78125 C 90.230469 118.175781 90.230469 115.574219 91.835938 113.96875 C 93.441406 112.363281 96.042969 112.363281 97.648438 113.96875 " fill-opacity="1" fill-rule="nonzero"/><path fill="#99b9ff" d="M 282.6875 31.832031 L 254.167969 60.351562 C 252.40625 62.113281 252.40625 64.980469 254.167969 66.742188 C 255.933594 68.507812 258.796875 68.507812 260.5625 66.742188 L 289.082031 38.222656 C 290.84375 36.460938 290.84375 33.597656 289.082031 31.832031 C 287.3125 30.066406 284.453125 30.066406 282.6875 31.832031 " fill-opacity="1" fill-rule="nonzero"/><path fill="#99b9ff" d="M 298.871094 22.039062 C 300.636719 23.804688 300.636719 26.667969 298.871094 28.433594 C 297.105469 30.199219 294.246094 30.199219 292.480469 28.433594 C 290.714844 26.667969 290.714844 23.804688 292.480469 22.039062 C 294.246094 20.277344 297.105469 20.277344 298.871094 22.039062 " fill-opacity="1" fill-rule="nonzero"/><path fill="#ffffff" d="M 149.25 25.632812 L 123.316406 51.566406 C 121.710938 53.171875 121.710938 55.773438 123.316406 57.378906 C 124.921875 58.984375 127.523438 58.984375 129.128906 57.378906 L 155.0625 31.445312 C 156.667969 29.839844 156.667969 27.238281 155.0625 25.632812 C 153.457031 24.027344 150.851562 24.027344 149.25 25.632812 " fill-opacity="1" fill-rule="nonzero"/><path fill="#ffffff" d="M 163.964844 16.730469 C 165.570312 18.332031 165.570312 20.9375 163.964844 22.542969 C 162.359375 24.148438 159.757812 24.148438 158.152344 22.542969 C 156.546875 20.9375 156.546875 18.332031 158.152344 16.730469 C 159.757812 15.125 162.359375 15.125 163.964844 16.730469 " fill-opacity="1" fill-rule="nonzero"/><path fill="#000000" d="M 197.3125 22.601562 C 197.046875 22.601562 196.832031 22.390625 196.828125 22.128906 L 196.785156 20.296875 C 196.78125 20.03125 196.992188 19.808594 197.261719 19.800781 C 197.265625 19.800781 197.269531 19.800781 197.273438 19.800781 C 197.535156 19.800781 197.75 20.011719 197.753906 20.277344 L 197.796875 22.105469 C 197.800781 22.375 197.589844 22.597656 197.320312 22.601562 C 197.320312 22.601562 197.3125 22.601562 197.3125 22.601562 " fill-opacity="1" fill-rule="nonzero"/><path fill="#000000" d="M 197.449219 29.007812 C 197.1875 29.007812 196.972656 28.796875 196.964844 28.535156 L 196.925781 26.703125 C 196.921875 26.4375 197.132812 26.214844 197.402344 26.207031 C 197.402344 26.207031 197.40625 26.207031 197.410156 26.207031 C 197.671875 26.207031 197.886719 26.417969 197.894531 26.683594 L 197.933594 28.511719 C 197.941406 28.78125 197.726562 29.003906 197.460938 29.007812 C 197.457031 29.007812 197.453125 29.007812 197.449219 29.007812 " fill-opacity="1" fill-rule="nonzero"/><path fill="#000000" d="M 193.300781 24.921875 C 193.035156 24.921875 192.820312 24.707031 192.816406 24.441406 C 192.8125 24.171875 193.03125 23.957031 193.296875 23.953125 L 195.101562 23.9375 C 195.101562 23.9375 195.105469 23.9375 195.105469 23.9375 C 195.371094 23.9375 195.585938 24.152344 195.589844 24.417969 C 195.589844 24.6875 195.375 24.90625 195.109375 24.910156 L 193.304688 24.921875 C 193.300781 24.921875 193.300781 24.921875 193.300781 24.921875 " fill-opacity="1" fill-rule="nonzero"/><path fill="#000000" d="M 199.617188 24.871094 C 199.351562 24.871094 199.132812 24.65625 199.132812 24.390625 C 199.132812 24.125 199.347656 23.90625 199.613281 23.902344 L 201.417969 23.890625 C 201.695312 23.886719 201.902344 24.101562 201.90625 24.367188 C 201.90625 24.636719 201.691406 24.855469 201.425781 24.855469 L 199.621094 24.871094 C 199.621094 24.871094 199.617188 24.871094 199.617188 24.871094 " fill-opacity="1" fill-rule="nonzero"/><path fill="#000000" d="M 195.054688 245.117188 C 194.792969 245.117188 194.578125 244.90625 194.570312 244.644531 L 194.53125 242.8125 C 194.527344 242.542969 194.738281 242.324219 195.003906 242.316406 C 195.011719 242.316406 195.011719 242.316406 195.015625 242.316406 C 195.28125 242.316406 195.496094 242.527344 195.5 242.789062 L 195.539062 244.621094 C 195.546875 244.890625 195.335938 245.109375 195.066406 245.117188 C 195.0625 245.117188 195.058594 245.117188 195.054688 245.117188 " fill-opacity="1" fill-rule="nonzero"/><path fill="#000000" d="M 195.195312 251.527344 C 194.929688 251.527344 194.714844 251.316406 194.707031 251.050781 L 194.667969 249.222656 C 194.664062 248.953125 194.875 248.730469 195.144531 248.726562 C 195.148438 248.726562 195.152344 248.726562 195.15625 248.726562 C 195.417969 248.726562 195.632812 248.9375 195.636719 249.199219 L 195.675781 251.03125 C 195.683594 251.296875 195.472656 251.519531 195.203125 251.527344 C 195.199219 251.527344 195.195312 251.527344 195.195312 251.527344 " fill-opacity="1" fill-rule="nonzero"/><path fill="#000000" d="M 191.046875 247.4375 C 190.78125 247.4375 190.5625 247.222656 190.5625 246.957031 C 190.558594 246.691406 190.773438 246.472656 191.042969 246.46875 L 192.84375 246.453125 C 192.847656 246.453125 192.847656 246.453125 192.851562 246.453125 C 193.117188 246.453125 193.332031 246.667969 193.332031 246.933594 C 193.335938 247.203125 193.121094 247.421875 192.851562 247.421875 L 191.050781 247.4375 C 191.046875 247.4375 191.046875 247.4375 191.046875 247.4375 " fill-opacity="1" fill-rule="nonzero"/><path fill="#000000" d="M 197.359375 247.386719 C 197.09375 247.386719 196.878906 247.175781 196.875 246.90625 C 196.875 246.640625 197.089844 246.421875 197.355469 246.417969 L 199.160156 246.40625 C 199.425781 246.40625 199.648438 246.617188 199.648438 246.886719 C 199.652344 247.152344 199.433594 247.371094 199.167969 247.375 L 197.363281 247.386719 C 197.363281 247.386719 197.363281 247.386719 197.359375 247.386719 " fill-opacity="1" fill-rule="nonzero"/><path fill="#000000" d="M 53.625 168.910156 C 53.410156 168.910156 53.214844 168.769531 53.15625 168.554688 C 45.949219 142.007812 48.410156 119.652344 51.746094 105.566406 C 55.363281 90.296875 60.769531 81.171875 60.824219 81.082031 C 60.960938 80.851562 61.261719 80.777344 61.488281 80.914062 C 61.71875 81.050781 61.792969 81.351562 61.65625 81.582031 C 61.601562 81.667969 56.261719 90.695312 52.679688 105.832031 C 49.378906 119.796875 46.941406 141.96875 54.089844 168.300781 C 54.160156 168.558594 54.007812 168.824219 53.75 168.894531 C 53.707031 168.90625 53.664062 168.910156 53.625 168.910156 " fill-opacity="1" fill-rule="nonzero"/><path fill="#000000" d="M 57.328125 126.5 C 57.320312 126.5 57.3125 126.5 57.300781 126.5 C 57.035156 126.484375 56.828125 126.257812 56.84375 125.988281 C 57.660156 109.328125 61.675781 97.59375 64.898438 90.683594 C 68.40625 83.164062 71.675781 79.648438 71.816406 79.503906 C 72 79.308594 72.304688 79.300781 72.5 79.480469 C 72.695312 79.664062 72.703125 79.972656 72.519531 80.167969 C 72.386719 80.308594 59.355469 94.515625 57.808594 126.039062 C 57.796875 126.296875 57.582031 126.5 57.328125 126.5 " fill-opacity="1" fill-rule="nonzero"/><path fill="#000000" d="M 107.734375 38.078125 C 106.527344 38.078125 105.542969 39.0625 105.542969 40.269531 C 105.542969 41.480469 106.527344 42.460938 107.734375 42.460938 C 108.941406 42.460938 109.925781 41.480469 109.925781 40.269531 C 109.925781 39.0625 108.941406 38.078125 107.734375 38.078125 Z M 107.734375 43.429688 C 105.992188 43.429688 104.574219 42.011719 104.574219 40.269531 C 104.574219 38.527344 105.992188 37.109375 107.734375 37.109375 C 109.476562 37.109375 110.894531 38.527344 110.894531 40.269531 C 110.894531 42.011719 109.476562 43.429688 107.734375 43.429688 " fill-opacity="1" fill-rule="nonzero"/><path fill="#000000" d="M 279.167969 73.574219 C 278.058594 73.574219 277.152344 74.480469 277.152344 75.589844 C 277.152344 76.703125 278.058594 77.605469 279.167969 77.605469 C 280.28125 77.605469 281.183594 76.703125 281.183594 75.589844 C 281.183594 74.480469 280.28125 73.574219 279.167969 73.574219 Z M 279.167969 78.574219 C 277.523438 78.574219 276.183594 77.238281 276.183594 75.589844 C 276.183594 73.945312 277.523438 72.605469 279.167969 72.605469 C 280.816406 72.605469 282.152344 73.945312 282.152344 75.589844 C 282.152344 77.238281 280.816406 78.574219 279.167969 78.574219 " fill-opacity="1" fill-rule="nonzero"/></svg>