<svg xmlns="http://www.w3.org/2000/svg" xmlns:xlink="http://www.w3.org/1999/xlink" width="461" zoomAndPan="magnify" viewBox="0 0 345.75 273.749983" height="365" preserveAspectRatio="xMidYMid meet" version="1.0"><defs><clipPath id="99e3fad751"><path d="M 57 2.835938 L 293 2.835938 L 293 270.535156 L 57 270.535156 Z M 57 2.835938 " clip-rule="nonzero"/></clipPath></defs><path fill="#baca49" d="M 215.210938 243.722656 C 217.234375 247.269531 215.976562 251.773438 212.378906 253.792969 C 208.78125 255.789062 204.203125 254.535156 202.179688 250.988281 C 200.15625 247.417969 201.410156 242.914062 205.011719 240.917969 C 208.609375 238.898438 213.1875 240.152344 215.210938 243.722656 Z M 215.210938 243.722656 " fill-opacity="1" fill-rule="nonzero"/><path fill="#baca49" d="M 182.394531 191.308594 C 184.4375 194.855469 183.160156 199.359375 179.5625 201.359375 C 175.960938 203.375 171.40625 202.121094 169.359375 198.554688 C 167.335938 195.003906 168.613281 190.5 172.214844 188.503906 C 175.8125 186.484375 180.371094 187.738281 182.394531 191.308594 Z M 182.394531 191.308594 " fill-opacity="1" fill-rule="nonzero"/><path fill="#baca49" d="M 181.667969 154.933594 C 183.691406 158.503906 182.4375 163.007812 178.835938 165.007812 C 175.238281 167.023438 170.660156 165.75 168.636719 162.203125 C 166.613281 158.652344 167.871094 154.148438 171.46875 152.132812 C 175.066406 150.132812 179.644531 151.386719 181.667969 154.933594 Z M 181.667969 154.933594 " fill-opacity="1" fill-rule="nonzero"/><path fill="#baca49" d="M 150.535156 135.539062 C 152.558594 139.085938 151.300781 143.589844 147.703125 145.585938 C 144.101562 147.605469 139.523438 146.351562 137.5 142.78125 C 135.476562 139.234375 136.734375 134.730469 140.332031 132.734375 C 143.933594 130.714844 148.511719 131.96875 150.535156 135.539062 Z M 150.535156 135.539062 " fill-opacity="1" fill-rule="nonzero"/><path fill="#baca49" d="M 109.410156 73.605469 C 111.453125 77.152344 110.175781 81.65625 106.578125 83.675781 C 102.980469 85.671875 98.421875 84.421875 96.375 80.871094 C 94.351562 77.300781 95.632812 72.796875 99.230469 70.800781 C 102.828125 68.78125 107.386719 70.035156 109.410156 73.605469 Z M 109.410156 73.605469 " fill-opacity="1" fill-rule="nonzero"/><path fill="#baca49" d="M 114.265625 36.976562 C 116.289062 40.527344 115.011719 45.03125 111.410156 47.027344 C 107.8125 49.046875 103.253906 47.792969 101.230469 44.222656 C 99.1875 40.675781 100.464844 36.171875 104.066406 34.171875 C 107.664062 32.15625 112.222656 33.410156 114.265625 36.976562 Z M 114.265625 36.976562 " fill-opacity="1" fill-rule="nonzero"/><path fill="#6fceae" d="M 229.351562 235.839844 C 231.972656 237.476562 234.550781 239.261719 237.082031 241.195312 C 228.839844 258.445312 210.996094 269.070312 191.890625 268.367188 C 191.378906 264.566406 191.082031 260.847656 191.039062 257.191406 L 202.179688 250.988281 C 204.203125 254.535156 208.78125 255.789062 212.378906 253.792969 C 215.976562 251.773438 217.234375 247.269531 215.210938 243.722656 Z M 229.351562 235.839844 " fill-opacity="1" fill-rule="nonzero"/><path fill="#6aac9c" d="M 229.351562 235.839844 L 215.210938 243.722656 C 213.1875 240.152344 208.609375 238.898438 205.011719 240.917969 C 201.410156 242.914062 200.15625 247.417969 202.179688 250.988281 L 191.039062 257.191406 C 190.785156 245.167969 192.914062 233.949219 197.492188 224.28125 C 208.246094 225.429688 219.066406 229.421875 229.351562 235.839844 Z M 229.351562 235.839844 " fill-opacity="1" fill-rule="nonzero"/><path fill="#6fceae" d="M 205.5 178.433594 C 208.269531 195.367188 205.5 210.21875 200.046875 219.460938 C 199.132812 221.011719 198.28125 222.625 197.492188 224.28125 C 195.640625 224.070312 193.808594 223.964844 191.976562 223.941406 C 181.136719 223.792969 166.847656 218.460938 153.578125 207.371094 L 153.578125 207.347656 L 169.359375 198.554688 C 171.40625 202.121094 175.960938 203.375 179.5625 201.359375 C 183.160156 199.359375 184.4375 194.855469 182.394531 191.308594 Z M 205.5 178.433594 " fill-opacity="1" fill-rule="nonzero"/><path fill="#6aac9c" d="M 205.5 178.433594 L 182.394531 191.308594 C 180.371094 187.738281 175.8125 186.484375 172.214844 188.503906 C 168.613281 190.5 167.335938 195.003906 169.359375 198.554688 L 153.578125 207.347656 L 153.578125 207.371094 C 145.914062 200.976562 138.628906 192.648438 132.539062 182.300781 L 168.636719 162.203125 C 170.660156 165.75 175.238281 167.023438 178.835938 165.007812 C 182.4375 163.007812 183.691406 158.503906 181.667969 154.933594 L 194.683594 147.691406 L 194.703125 147.691406 C 200.496094 158.1875 203.925781 168.660156 205.5 178.433594 Z M 205.5 178.433594 " fill-opacity="1" fill-rule="nonzero"/><path fill="#6fceae" d="M 194.683594 147.691406 L 181.667969 154.933594 C 179.644531 151.386719 175.066406 150.132812 171.46875 152.132812 C 167.871094 154.148438 166.613281 158.652344 168.636719 162.203125 L 132.539062 182.300781 C 132.28125 181.875 132.027344 181.472656 131.792969 181.046875 C 126.171875 171.210938 122.65625 161.371094 120.804688 152.089844 L 137.5 142.78125 C 139.523438 146.351562 144.101562 147.605469 147.703125 145.585938 C 151.300781 143.589844 152.558594 139.085938 150.535156 135.539062 L 174.554688 122.152344 C 181.648438 128.503906 188.355469 136.578125 193.980469 146.414062 C 194.214844 146.839844 194.46875 147.265625 194.683594 147.691406 Z M 194.683594 147.691406 " fill-opacity="1" fill-rule="nonzero"/><path fill="#6aac9c" d="M 174.554688 122.152344 L 150.535156 135.539062 C 148.511719 131.96875 143.933594 130.714844 140.332031 132.734375 C 136.734375 134.730469 135.476562 139.234375 137.5 142.78125 L 120.804688 152.089844 C 117.183594 133.878906 119.929688 117.777344 125.722656 108.003906 C 126.640625 106.429688 127.511719 104.816406 128.277344 103.160156 C 130.132812 103.351562 131.964844 103.476562 133.792969 103.5 C 145.273438 103.667969 160.648438 109.660156 174.554688 122.152344 Z M 174.554688 122.152344 " fill-opacity="1" fill-rule="nonzero"/><path fill="#6aac9c" d="M 133.964844 59.921875 C 135.988281 75.835938 134.136719 90.75 128.277344 103.160156 C 114.5 101.691406 100.613281 95.554688 87.859375 85.632812 L 96.375 80.871094 C 98.421875 84.421875 102.980469 85.671875 106.578125 83.675781 C 110.175781 81.65625 111.453125 77.152344 109.410156 73.605469 Z M 133.964844 59.921875 " fill-opacity="1" fill-rule="nonzero"/><path fill="#6fceae" d="M 133.964844 59.921875 L 109.410156 73.605469 C 107.386719 70.035156 102.828125 68.78125 99.230469 70.800781 C 95.632812 72.796875 94.351562 77.300781 96.375 80.871094 L 87.859375 85.632812 L 87.835938 85.632812 C 80.128906 79.617188 72.84375 72.246094 66.261719 63.707031 L 101.230469 44.222656 C 103.253906 47.792969 107.8125 49.046875 111.410156 47.027344 C 115.011719 45.03125 116.289062 40.527344 114.265625 36.976562 L 126.128906 30.347656 C 130.132812 40.335938 132.773438 50.320312 133.964844 59.921875 Z M 133.964844 59.921875 " fill-opacity="1" fill-rule="nonzero"/><path fill="#6aac9c" d="M 126.128906 30.347656 L 114.265625 36.976562 C 112.222656 33.410156 107.664062 32.15625 104.066406 34.171875 C 100.464844 36.171875 99.1875 40.675781 101.230469 44.222656 L 66.261719 63.707031 C 64.558594 61.472656 62.898438 59.179688 61.28125 56.800781 C 62.769531 39.886719 65.710938 22.53125 70.203125 4.960938 C 89.582031 10.804688 107.792969 18.113281 124.59375 26.632812 C 125.128906 27.863281 125.636719 29.117188 126.128906 30.347656 Z M 126.128906 30.347656 " fill-opacity="1" fill-rule="nonzero"/><path fill="#5cc096" d="M 138.457031 249.714844 C 83.003906 215.675781 53.824219 141.679688 61.28125 56.800781 C 62.898438 59.179688 64.558594 61.472656 66.261719 63.707031 C 72.84375 72.246094 80.128906 79.617188 87.835938 85.632812 L 87.859375 85.632812 C 100.613281 95.554688 114.5 101.691406 128.277344 103.160156 C 127.511719 104.816406 126.640625 106.429688 125.722656 108.003906 C 119.929688 117.777344 117.183594 133.878906 120.804688 152.089844 C 122.65625 161.371094 126.171875 171.210938 131.792969 181.046875 C 132.027344 181.472656 132.28125 181.875 132.539062 182.300781 C 138.628906 192.648438 145.914062 200.976562 153.578125 207.371094 C 166.847656 218.460938 181.136719 223.792969 191.976562 223.941406 C 193.808594 223.964844 195.640625 224.070312 197.492188 224.28125 C 192.914062 233.949219 190.785156 245.167969 191.039062 257.191406 C 191.082031 260.847656 191.378906 264.566406 191.890625 268.367188 C 189.144531 268.28125 186.375 267.941406 183.585938 267.367188 C 162.695312 262.992188 147.828125 255.472656 138.457031 249.714844 Z M 138.457031 249.714844 " fill-opacity="1" fill-rule="nonzero"/><path fill="#5cc096" d="M 133.964844 59.921875 C 132.773438 50.320312 130.132812 40.335938 126.128906 30.347656 C 125.636719 29.117188 125.128906 27.863281 124.59375 26.632812 C 148.574219 38.785156 169.722656 53.421875 187.378906 69.78125 C 201.050781 82.402344 212.65625 96.085938 221.878906 110.445312 C 237.828125 135.242188 246.730469 162.09375 247.070312 189.207031 C 247.21875 199.742188 246.132812 215.445312 239.722656 234.480469 C 239.511719 235.140625 239.277344 235.796875 239.042969 236.476562 C 238.46875 238.09375 237.828125 239.664062 237.082031 241.195312 C 234.550781 239.261719 231.972656 237.476562 229.351562 235.839844 C 219.066406 229.421875 208.246094 225.429688 197.492188 224.28125 C 198.28125 222.625 199.132812 221.011719 200.046875 219.460938 C 205.5 210.21875 208.269531 195.367188 205.5 178.433594 C 203.925781 168.660156 200.496094 158.1875 194.703125 147.691406 L 194.683594 147.691406 C 194.46875 147.265625 194.214844 146.839844 193.980469 146.414062 C 188.355469 136.578125 181.648438 128.503906 174.554688 122.152344 C 160.648438 109.660156 145.273438 103.667969 133.792969 103.5 C 131.964844 103.476562 130.132812 103.351562 128.277344 103.160156 C 134.136719 90.75 135.988281 75.835938 133.964844 59.921875 Z M 133.964844 59.921875 " fill-opacity="1" fill-rule="nonzero"/><path fill="#4aaf8f" d="M 227.351562 98.316406 C 225.433594 102.414062 223.625 106.472656 221.878906 110.445312 C 212.65625 96.085938 201.050781 82.402344 187.378906 69.78125 L 187.398438 69.761719 C 210.460938 48.21875 239.765625 29.605469 273.863281 15.964844 C 263.171875 31.792969 252.117188 49.832031 241.386719 70.035156 C 238.339844 75.816406 235.441406 81.488281 232.71875 87.097656 L 232.695312 87.097656 C 230.84375 90.878906 229.054688 94.617188 227.351562 98.316406 Z M 227.351562 98.316406 " fill-opacity="1" fill-rule="nonzero"/><path fill="#349370" d="M 247.070312 189.207031 C 246.730469 162.09375 237.828125 135.242188 221.878906 110.445312 C 223.625 106.472656 225.433594 102.414062 227.351562 98.316406 C 229.054688 94.617188 230.84375 90.878906 232.695312 87.097656 L 232.71875 87.097656 C 235.445312 81.488281 238.339844 75.816406 241.386719 70.035156 C 252.117188 49.832031 263.171875 31.792969 273.863281 15.964844 C 305.039062 104.222656 290.195312 190.585938 239.722656 234.480469 C 246.132812 215.445312 247.21875 199.742188 247.070312 189.207031 Z M 247.070312 189.207031 " fill-opacity="1" fill-rule="nonzero"/><g clip-path="url(#99e3fad751)"><path fill="#3a322b" d="M 275.867188 15.25 C 275.839844 15.175781 275.777344 15.117188 275.742188 15.046875 C 275.675781 14.910156 275.605469 14.789062 275.515625 14.667969 C 275.429688 14.558594 275.332031 14.46875 275.226562 14.378906 C 275.160156 14.320312 275.121094 14.246094 275.046875 14.195312 C 274.992188 14.160156 274.929688 14.15625 274.878906 14.125 C 274.824219 14.097656 274.789062 14.046875 274.734375 14.023438 C 274.660156 13.988281 274.578125 13.992188 274.5 13.96875 C 274.355469 13.921875 274.21875 13.886719 274.070312 13.871094 C 273.941406 13.859375 273.820312 13.863281 273.695312 13.871094 C 273.539062 13.886719 273.398438 13.910156 273.25 13.953125 C 273.1875 13.96875 273.125 13.960938 273.0625 13.984375 C 240.519531 27.007812 211 45.246094 187.515625 66.78125 C 157.296875 39.339844 117.355469 16.960938 70.8125 2.925781 C 70.257812 2.757812 69.65625 2.824219 69.152344 3.109375 C 68.644531 3.394531 68.28125 3.875 68.136719 4.433594 C 41.109375 110.226562 68.921875 209.527344 137.335938 251.527344 C 151 259.914062 166.410156 265.945312 183.148438 269.445312 C 186.023438 270.050781 188.898438 270.378906 191.753906 270.480469 C 191.800781 270.480469 191.84375 270.503906 191.890625 270.503906 C 191.96875 270.503906 192.046875 270.5 192.125 270.488281 C 192.597656 270.503906 193.070312 270.527344 193.539062 270.527344 C 214.527344 270.527344 233.914062 257.433594 241.039062 237.183594 C 241.210938 236.695312 241.355469 236.207031 241.519531 235.71875 C 266.621094 213.6875 283.214844 181.371094 289.511719 142.195312 C 295.898438 102.480469 291.175781 58.582031 275.867188 15.25 Z M 268.285156 20.574219 C 257.960938 36.261719 248.273438 52.511719 239.511719 69.039062 C 236.515625 74.6875 233.613281 80.429688 230.78125 86.214844 C 230.753906 86.273438 230.71875 86.328125 230.695312 86.390625 C 229.441406 88.953125 228.214844 91.519531 226.996094 94.101562 C 223.578125 89.074219 220.839844 83.664062 218.914062 77.921875 C 217.042969 72.328125 215.933594 66.503906 215.613281 60.609375 C 215.546875 59.433594 214.46875 58.53125 213.371094 58.601562 C 212.195312 58.664062 211.292969 59.667969 211.359375 60.839844 C 211.699219 67.113281 212.882812 73.316406 214.875 79.273438 C 217.1875 86.171875 220.582031 92.632812 224.90625 98.539062 C 223.777344 100.976562 222.6875 103.421875 221.601562 105.871094 C 213.046875 93.136719 202.65625 81.011719 190.632812 69.699219 C 212.160156 50.007812 238.839844 33.136719 268.285156 20.574219 Z M 238.078125 148.753906 C 242.382812 161.972656 244.761719 175.53125 244.941406 189.234375 C 245.140625 204.621094 242.476562 220.28125 237.019531 235.773438 C 236.769531 236.488281 236.453125 237.171875 236.167969 237.871094 C 224.734375 229.609375 212.667969 224.40625 200.742188 222.566406 C 201.109375 221.882812 201.484375 221.199219 201.878906 220.53125 C 207.527344 210.980469 210.410156 195.671875 207.625 178.25 C 207.621094 178.191406 207.601562 178.136719 207.59375 178.082031 C 205.984375 168.136719 202.488281 157.515625 196.644531 146.882812 C 196.609375 146.804688 196.609375 146.722656 196.570312 146.648438 C 196.535156 146.585938 196.476562 146.550781 196.4375 146.496094 C 196.226562 146.113281 196.046875 145.734375 195.828125 145.351562 C 190.132812 135.378906 183.308594 127.234375 176.09375 120.738281 C 175.96875 120.605469 175.84375 120.484375 175.695312 120.386719 C 161.421875 107.691406 145.640625 101.554688 133.824219 101.378906 C 133.027344 101.367188 132.222656 101.289062 131.421875 101.246094 C 136.359375 89.222656 137.917969 75.019531 136.078125 59.941406 C 136.082031 59.738281 136.046875 59.546875 135.992188 59.34375 C 134.820312 50.152344 132.394531 40.652344 128.71875 31.136719 C 150.222656 42.496094 169.335938 55.855469 185.535156 70.707031 C 185.625 70.882812 185.710938 71.066406 185.851562 71.21875 C 186.074219 71.453125 186.339844 71.613281 186.621094 71.726562 C 199.738281 83.902344 210.90625 97.046875 219.851562 110.886719 C 219.960938 111.382812 220.238281 111.808594 220.664062 112.117188 C 227.96875 123.625 233.730469 135.597656 237.8125 147.875 C 237.8125 147.90625 237.800781 147.933594 237.804688 147.964844 C 237.835938 148.253906 237.941406 148.515625 238.078125 148.753906 Z M 204.027344 249.925781 C 203.332031 248.710938 203.15625 247.296875 203.53125 245.953125 C 203.914062 244.59375 204.808594 243.464844 206.054688 242.769531 C 206.890625 242.304688 207.796875 242.085938 208.6875 242.085938 C 210.558594 242.085938 212.378906 243.050781 213.359375 244.769531 C 214.054688 245.984375 214.230469 247.394531 213.855469 248.742188 C 213.472656 250.101562 212.578125 251.234375 211.332031 251.929688 C 208.753906 253.363281 205.476562 252.460938 204.027344 249.925781 Z M 215.792969 240.957031 C 212.84375 237.753906 207.949219 236.84375 203.980469 239.058594 C 201.734375 240.308594 200.117188 242.351562 199.429688 244.8125 C 198.941406 246.550781 198.988281 248.351562 199.496094 250.039062 L 193.160156 253.570312 C 193.363281 243.707031 195.257812 234.601562 198.785156 226.597656 C 207.542969 227.757812 216.425781 230.847656 225.09375 235.777344 Z M 127.550781 109.082031 C 128.257812 107.882812 128.910156 106.648438 129.539062 105.394531 C 130.949219 105.511719 132.355469 105.605469 133.757812 105.628906 C 144.203125 105.78125 158.023438 110.980469 170.878906 121.761719 L 151.113281 132.773438 C 148.164062 129.570312 143.269531 128.660156 139.296875 130.871094 C 137.050781 132.125 135.433594 134.167969 134.746094 136.632812 C 134.261719 138.371094 134.308594 140.164062 134.816406 141.851562 L 122.355469 148.796875 C 119.648438 132.351562 122.285156 117.984375 127.550781 109.082031 Z M 139.347656 141.738281 C 138.652344 140.523438 138.476562 139.117188 138.851562 137.769531 C 139.230469 136.410156 140.128906 135.277344 141.375 134.582031 C 142.210938 134.117188 143.113281 133.898438 144.007812 133.898438 C 145.878906 133.898438 147.699219 134.863281 148.683594 136.582031 C 149.378906 137.800781 149.550781 139.210938 149.175781 140.554688 C 148.792969 141.914062 147.898438 143.046875 146.652344 143.742188 C 144.078125 145.179688 140.800781 144.28125 139.347656 141.738281 Z M 136.917969 145.546875 C 138.765625 147.554688 141.363281 148.671875 144.035156 148.671875 C 145.628906 148.671875 147.246094 148.277344 148.730469 147.449219 C 150.976562 146.199219 152.589844 144.15625 153.28125 141.699219 C 153.769531 139.957031 153.722656 138.160156 153.214844 136.46875 L 174.246094 124.753906 C 180.617188 130.679688 186.640625 138.03125 191.777344 146.882812 L 182.257812 152.1875 C 179.308594 148.980469 174.417969 148.066406 170.441406 150.285156 C 168.195312 151.535156 166.582031 153.578125 165.890625 156.039062 C 165.402344 157.777344 165.449219 159.574219 165.957031 161.265625 L 133.339844 179.4375 C 128.320312 170.519531 125.058594 161.628906 123.214844 153.183594 Z M 170.488281 161.152344 C 169.792969 159.9375 169.617188 158.527344 169.992188 157.179688 C 170.375 155.820312 171.269531 154.691406 172.515625 153.996094 C 173.347656 153.53125 174.253906 153.3125 175.144531 153.3125 C 177.019531 153.3125 178.839844 154.28125 179.820312 156 C 180.515625 157.214844 180.691406 158.628906 180.316406 159.972656 C 179.933594 161.332031 179.039062 162.460938 177.792969 163.15625 C 175.210938 164.589844 171.9375 163.6875 170.488281 161.152344 Z M 168.058594 164.960938 C 169.902344 166.96875 172.503906 168.085938 175.175781 168.085938 C 176.769531 168.085938 178.386719 167.691406 179.871094 166.863281 C 182.117188 165.613281 183.730469 163.570312 184.421875 161.113281 C 184.910156 159.371094 184.863281 157.574219 184.355469 155.886719 L 193.8125 150.617188 C 198.601562 159.734375 201.601562 168.78125 203.148438 177.308594 L 182.984375 188.542969 C 180.035156 185.339844 175.140625 184.425781 171.167969 186.644531 C 168.917969 187.894531 167.304688 189.941406 166.617188 192.398438 C 166.132812 194.136719 166.179688 195.933594 166.683594 197.621094 L 153.847656 204.773438 C 147.25 199.0625 140.957031 191.847656 135.527344 183.085938 Z M 171.210938 197.511719 C 170.519531 196.292969 170.34375 194.882812 170.71875 193.539062 C 171.101562 192.175781 171.996094 191.046875 173.242188 190.351562 C 174.078125 189.890625 174.980469 189.667969 175.875 189.667969 C 177.75 189.667969 179.566406 190.636719 180.546875 192.355469 C 181.242188 193.570312 181.417969 194.984375 181.042969 196.328125 C 180.660156 197.6875 179.765625 198.820312 178.515625 199.511719 C 175.941406 200.945312 172.667969 200.050781 171.210938 197.511719 Z M 168.78125 201.320312 C 170.628906 203.328125 173.226562 204.441406 175.898438 204.441406 C 177.492188 204.441406 179.109375 204.050781 180.59375 203.222656 C 182.839844 201.972656 184.453125 199.929688 185.144531 197.46875 C 185.632812 195.730469 185.589844 193.933594 185.078125 192.242188 L 203.832031 181.796875 C 205.730469 196.917969 203.136719 210.046875 198.210938 218.378906 C 197.503906 219.570312 196.851562 220.800781 196.226562 222.050781 C 194.816406 221.933594 193.40625 221.847656 192.003906 221.828125 C 182.230469 221.6875 169.507812 217.089844 157.378906 207.675781 Z M 69.507812 64.335938 L 100.648438 46.988281 C 102.492188 48.996094 105.089844 50.109375 107.761719 50.109375 C 109.355469 50.109375 110.972656 49.71875 112.457031 48.886719 C 114.707031 47.636719 116.320312 45.59375 117.007812 43.136719 C 117.496094 41.394531 117.449219 39.597656 116.941406 37.910156 L 125.023438 33.40625 C 128.28125 41.984375 130.46875 50.523438 131.617188 58.800781 L 110 70.84375 C 107.050781 67.640625 102.160156 66.730469 98.1875 68.941406 C 95.9375 70.195312 94.324219 72.238281 93.636719 74.699219 C 93.148438 76.4375 93.195312 78.234375 93.703125 79.921875 L 88.0625 83.066406 C 81.503906 77.820312 75.261719 71.53125 69.507812 64.335938 Z M 112.410156 38.019531 C 113.105469 39.238281 113.28125 40.648438 112.90625 41.992188 C 112.527344 43.355469 111.628906 44.484375 110.382812 45.179688 C 107.804688 46.621094 104.53125 45.71875 103.074219 43.179688 C 102.378906 41.964844 102.207031 40.554688 102.582031 39.207031 C 102.960938 37.847656 103.859375 36.714844 105.105469 36.023438 C 105.941406 35.558594 106.84375 35.335938 107.738281 35.335938 C 109.609375 35.332031 111.429688 36.300781 112.410156 38.019531 Z M 98.234375 79.808594 C 97.542969 78.59375 97.363281 77.183594 97.742188 75.835938 C 98.121094 74.476562 99.015625 73.347656 100.265625 72.648438 C 101.101562 72.183594 102.003906 71.964844 102.898438 71.964844 C 104.769531 71.964844 106.585938 72.933594 107.566406 74.652344 C 107.566406 74.652344 107.566406 74.652344 107.570312 74.652344 C 108.265625 75.867188 108.4375 77.277344 108.0625 78.621094 C 107.683594 79.980469 106.785156 81.113281 105.539062 81.808594 C 102.960938 83.246094 99.683594 82.351562 98.234375 79.808594 Z M 95.804688 83.617188 C 97.648438 85.625 100.25 86.746094 102.917969 86.746094 C 104.515625 86.746094 106.128906 86.351562 107.613281 85.523438 C 109.863281 84.269531 111.476562 82.226562 112.167969 79.765625 C 112.652344 78.023438 112.609375 76.230469 112.101562 74.539062 L 132.140625 63.375 C 133.414062 77.140625 131.691406 89.992188 126.953125 100.820312 C 115.027344 99.238281 102.988281 94.097656 91.726562 85.890625 Z M 71.71875 7.644531 C 89.886719 13.25 106.988281 20.160156 122.882812 28.132812 C 123.070312 28.566406 123.234375 29 123.417969 29.433594 L 114.84375 34.210938 C 111.894531 31.003906 107 30.09375 103.03125 32.308594 C 100.78125 33.558594 99.167969 35.605469 98.476562 38.066406 C 97.992188 39.804688 98.039062 41.601562 98.542969 43.289062 L 66.855469 60.945312 C 65.695312 59.394531 64.558594 57.792969 63.445312 56.167969 C 64.910156 40.292969 67.640625 24.058594 71.71875 7.644531 Z M 139.570312 247.910156 C 85.238281 214.558594 57.226562 143.90625 62.921875 62.769531 C 63.410156 63.429688 63.910156 64.070312 64.40625 64.714844 C 64.410156 64.722656 64.410156 64.730469 64.414062 64.738281 C 64.523438 64.9375 64.664062 65.101562 64.824219 65.25 C 71.390625 73.734375 78.621094 81.050781 86.269531 87.039062 C 86.445312 87.230469 86.644531 87.386719 86.871094 87.5 C 98.941406 96.820312 111.992188 102.828125 125 104.84375 C 124.628906 105.535156 124.28125 106.25 123.882812 106.921875 C 117.921875 117.003906 115.082031 133.523438 118.703125 152.15625 C 118.707031 152.335938 118.75 152.507812 118.800781 152.683594 C 120.699219 162.144531 124.234375 172.128906 129.933594 182.105469 C 130.148438 182.480469 130.382812 182.824219 130.601562 183.191406 C 130.625 183.25 130.625 183.3125 130.65625 183.367188 C 130.730469 183.5 130.824219 183.609375 130.925781 183.722656 C 137.046875 194.003906 144.339844 202.339844 152.015625 208.789062 C 152.09375 208.871094 152.179688 208.941406 152.265625 209.011719 C 165.941406 220.417969 180.730469 225.917969 191.941406 226.078125 C 192.734375 226.089844 193.53125 226.125 194.328125 226.171875 C 189.523438 237.746094 187.863281 251.335938 189.476562 266.058594 C 187.660156 265.898438 185.839844 265.671875 184.019531 265.292969 C 167.765625 261.886719 152.8125 256.039062 139.570312 247.910156 Z M 193.785156 266.230469 C 193.476562 263.585938 193.273438 260.980469 193.183594 258.421875 L 201.59375 253.734375 C 203.441406 255.742188 206.042969 256.859375 208.714844 256.859375 C 210.308594 256.859375 211.925781 256.464844 213.410156 255.640625 C 215.65625 254.386719 217.269531 252.339844 217.957031 249.878906 C 218.445312 248.140625 218.398438 246.347656 217.890625 244.65625 L 229.265625 238.320312 C 230.96875 239.410156 232.65625 240.574219 234.335938 241.804688 C 226.445312 256.765625 210.726562 266.136719 193.785156 266.230469 Z M 244.054688 227.503906 C 247.613281 214.714844 249.363281 201.863281 249.199219 189.179688 C 249.023438 175.71875 246.78125 162.402344 242.738281 149.394531 C 250.296875 148.125 257.542969 145.742188 264.316406 142.277344 C 269.640625 139.554688 274.632812 136.175781 279.152344 132.242188 C 280.039062 131.46875 280.128906 130.125 279.355469 129.242188 C 278.582031 128.355469 277.238281 128.265625 276.355469 129.039062 C 272.09375 132.75 267.386719 135.929688 262.375 138.496094 C 255.820312 141.851562 248.785156 144.125 241.445312 145.292969 C 237.308594 133.203125 231.570312 121.414062 224.386719 110.074219 C 227.46875 103.058594 230.714844 96.066406 234.085938 89.144531 C 241.777344 88.804688 249.394531 87.535156 256.734375 85.296875 C 263.179688 83.328125 269.414062 80.632812 275.273438 77.289062 C 276.292969 76.707031 276.648438 75.40625 276.0625 74.386719 C 275.476562 73.371094 274.179688 73.015625 273.15625 73.597656 C 267.574219 76.785156 261.628906 79.355469 255.488281 81.230469 C 249.242188 83.136719 242.785156 84.285156 236.257812 84.75 C 238.550781 80.132812 240.878906 75.542969 243.28125 71.019531 C 252.378906 53.863281 262.46875 36.996094 273.246094 20.769531 C 300.488281 101.640625 288.824219 183.027344 244.054688 227.503906 Z M 244.054688 227.503906 " fill-opacity="1" fill-rule="nonzero"/></g></svg>